<?xml version="1.0" encoding="UTF-8"?>
<!DOCTYPE svg PUBLIC "-//W3C//DTD SVG 1.1//EN" "http://www.w3.org/Graphics/SVG/1.1/DTD/svg11.dtd">
<!-- Creator: CorelDRAW Home & Student 2014 -->
<svg xmlns="http://www.w3.org/2000/svg" xml:space="preserve" width="50.8mm" height="50.8001mm" version="1.1" shape-rendering="geometricPrecision" text-rendering="geometricPrecision" image-rendering="optimizeQuality" fill-rule="evenodd" clip-rule="evenodd"
viewBox="0 0 4244 4244"
 xmlns:xlink="http://www.w3.org/1999/xlink">
 <g id="Layer_x0020_1">
  <metadata id="CorelCorpID_0Corel-Layer"/>
  <polygon fill="#534745" fill-rule="nonzero" points="390,1735 364,1735 364,1729 372,1727 372,1668 364,1666 364,1661 390,1661 390,1666 382,1668 382,1727 390,1729 "/>
  <path id="1" fill="#534745" fill-rule="nonzero" d="M460 1735l-12 0 -35 -61 0 0c0,2 0,5 0,7 1,3 1,5 1,7 0,3 0,5 0,7l0 40 -9 0 0 -74 11 0 35 61 0 0c0,-3 0,-5 0,-8 0,-1 0,-2 0,-3 0,-1 -1,-2 -1,-4 0,-1 0,-2 0,-3 0,-1 0,-2 0,-3l0 -40 10 0 0 74z"/>
  <polygon id="2" fill="#534745" fill-rule="nonzero" points="474,1711 474,1703 499,1703 499,1711 "/>
  <path id="3" fill="#534745" fill-rule="nonzero" d="M539 1735l-9 0 0 -46c0,-2 0,-3 0,-5 0,-2 0,-3 0,-5 0,-2 0,-3 0,-5 0,-1 0,-2 0,-4 0,1 -1,2 -1,2 -1,0 -1,1 -2,1 0,1 -1,1 -1,2 -1,0 -1,1 -2,1l-7 6 -5 -6 19 -15 8 0 0 74z"/>
  <path fill="#534745" fill-rule="nonzero" d="M3727 1698c0,5 0,11 -2,15 -1,5 -3,9 -6,12 -2,4 -6,6 -10,8 -4,2 -8,3 -14,3 -5,0 -10,-1 -14,-3 -4,-2 -7,-4 -10,-8 -2,-3 -4,-7 -6,-12 -1,-4 -2,-10 -2,-15 0,-6 1,-11 2,-16 2,-5 4,-8 6,-12 3,-3 6,-6 10,-7 4,-2 9,-3 15,-3 5,0 9,1 13,3 4,1 8,4 10,7 3,4 5,8 6,12 2,5 2,10 2,16zm-54 0c0,4 1,8 2,12 1,4 2,7 4,10 1,2 4,4 7,5 2,2 6,2 9,2 4,0 8,0 10,-2 3,-1 5,-3 7,-5 2,-3 3,-6 4,-10 1,-4 1,-8 1,-12 0,-5 0,-9 -1,-13 -1,-3 -2,-6 -4,-9 -2,-3 -4,-4 -7,-6 -2,-1 -6,-2 -9,-2 -4,0 -8,1 -10,2 -3,2 -5,3 -7,6 -2,3 -3,6 -4,9 -1,4 -2,8 -2,13z"/>
  <path id="1" fill="#534745" fill-rule="nonzero" d="M3796 1661l0 48c0,4 0,7 -1,10 -1,4 -3,7 -5,9 -2,2 -5,4 -9,6 -3,1 -7,2 -12,2 -4,0 -8,-1 -11,-2 -3,-2 -6,-3 -8,-6 -2,-2 -4,-5 -5,-8 -1,-4 -2,-7 -2,-12l0 -47 9 0 0 48c0,6 2,10 5,14 3,3 7,4 13,4 3,0 5,0 8,-1 2,-1 4,-2 5,-4 1,-1 2,-3 3,-6 1,-2 1,-4 1,-7l0 -48 9 0z"/>
  <polygon id="2" fill="#534745" fill-rule="nonzero" points="3837,1735 3828,1735 3828,1669 3807,1669 3807,1661 3858,1661 3858,1669 3837,1669 "/>
  <polygon id="3" fill="#534745" fill-rule="nonzero" points="3858,1711 3858,1703 3883,1703 3883,1711 "/>
  <path id="4" fill="#534745" fill-rule="nonzero" d="M3923 1735l-9 0 0 -46c0,-2 0,-3 0,-5 0,-2 0,-3 0,-5 0,-2 0,-3 1,-5 0,-1 0,-2 0,-4 -1,1 -1,2 -2,2 0,0 -1,1 -1,1 -1,1 -1,1 -2,2 0,0 -1,1 -1,1l-8 6 -5 -6 20 -15 7 0 0 74z"/>
  <rect fill="none" fill-rule="nonzero" stroke="#2B2A29" stroke-width="20.6291" x="212" y="212" width="3820" height="3820"/>
  <g id="copper1">
   <line id="connector2pin" fill="none" fill-rule="nonzero" stroke="#2B2A29" stroke-width="16.7105" x1="0" y1="1910" x2="212" y2= "1910" />
   <line id="connector1pin" fill="none" fill-rule="nonzero" stroke="#2B2A29" stroke-width="16.7105" x1="0" y1="1698" x2="212" y2= "1698" />
   <line id="connector3pin" fill="none" fill-rule="nonzero" stroke="#2B2A29" stroke-width="16.7105" x1="0" y1="2122" x2="212" y2= "2122" />
   <line id="connector5pin" fill="none" fill-rule="nonzero" stroke="#2B2A29" stroke-width="16.7105" x1="0" y1="2547" x2="212" y2= "2547" />
   <line id="connector4pin" fill="none" fill-rule="nonzero" stroke="#2B2A29" stroke-width="16.7105" x1="0" y1="2334" x2="212" y2= "2334" />
   <line id="connector6pin" fill="none" fill-rule="nonzero" stroke="#2B2A29" stroke-width="16.7105" x1="0" y1="2759" x2="212" y2= "2759" />
   <line id="connector12pin" fill="none" fill-rule="nonzero" stroke="#2B2A29" stroke-width="16.7105" x1="4032" y1="1910" x2="4244" y2= "1910" />
   <line id="connector9pin" fill="none" fill-rule="nonzero" stroke="#2B2A29" stroke-width="16.7105" x1="4032" y1="1698" x2="4244" y2= "1698" />
   <line id="connector15pin" fill="none" fill-rule="nonzero" stroke="#2B2A29" stroke-width="16.7105" x1="4032" y1="2122" x2="4244" y2= "2122" />
   <line id="connector21pin" fill="none" fill-rule="nonzero" stroke="#2B2A29" stroke-width="16.7105" x1="4032" y1="2547" x2="4244" y2= "2547" />
   <line id="connector18pin" fill="none" fill-rule="nonzero" stroke="#2B2A29" stroke-width="16.7105" x1="4032" y1="2334" x2="4244" y2= "2334" />
   <line id="connector24pin" fill="none" fill-rule="nonzero" stroke="#2B2A29" stroke-width="16.7105" x1="4032" y1="2777" x2="4244" y2= "2777" />
   <line id="connector8pin" fill="none" fill-rule="nonzero" stroke="#2B2A29" stroke-width="16.7105" x1="2122" y1="212" x2="2122" y2= "0" />
   <line id="connector7pin" fill="none" fill-rule="nonzero" stroke="#2B2A29" stroke-width="16.7105" x1="2122" y1="4244" x2="2122" y2= "4032" />
   <line id="connector0pin" fill="none" fill-rule="nonzero" stroke="#2B2A29" stroke-width="16.7105" x1="2122" y1="4244" x2="2122" y2= "4032" />
   <line id="connector11pin" fill="none" fill-rule="nonzero" stroke="#2B2A29" stroke-width="16.7105" x1="2122" y1="4244" x2="2122" y2= "4032" />
   <line id="connector14pin" fill="none" fill-rule="nonzero" stroke="#2B2A29" stroke-width="16.7105" x1="2122" y1="4236" x2="2122" y2= "4024" />
   <line id="connector17pin" fill="none" fill-rule="nonzero" stroke="#2B2A29" stroke-width="16.7105" x1="2122" y1="4244" x2="2122" y2= "4032" />
   <line id="connector20pin" fill="none" fill-rule="nonzero" stroke="#2B2A29" stroke-width="16.7105" x1="2122" y1="4244" x2="2122" y2= "4032" />
   <line id="connector23pin" fill="none" fill-rule="nonzero" stroke="#2B2A29" stroke-width="16.7105" x1="2122" y1="4244" x2="2122" y2= "4032" />
   <line id="connector26pin" fill="none" fill-rule="nonzero" stroke="#2B2A29" stroke-width="16.7105" x1="2122" y1="4244" x2="2122" y2= "4032" />
   <line id="connector10pin" fill="none" fill-rule="nonzero" stroke="#2B2A29" stroke-width="16.7105" x1="2122" y1="212" x2="2122" y2= "0" />
   <line id="connector13pin" fill="none" fill-rule="nonzero" stroke="#2B2A29" stroke-width="16.7105" x1="2122" y1="212" x2="2122" y2= "0" />
   <line id="connector16pin" fill="none" fill-rule="nonzero" stroke="#2B2A29" stroke-width="16.7105" x1="2122" y1="212" x2="2122" y2= "0" />
   <line id="connector19pin" fill="none" fill-rule="nonzero" stroke="#2B2A29" stroke-width="16.7105" x1="2122" y1="212" x2="2122" y2= "0" />
   <line id="connector22pin" fill="none" fill-rule="nonzero" stroke="#2B2A29" stroke-width="16.7105" x1="2122" y1="212" x2="2122" y2= "0" />
   <line id="connector25pin" fill="none" fill-rule="nonzero" stroke="#2B2A29" stroke-width="16.7105" x1="2122" y1="212" x2="2122" y2= "0" />
  </g>
  <polygon fill="#534745" fill-rule="nonzero" points="390,1947 364,1947 364,1942 372,1940 372,1880 364,1878 364,1873 390,1873 390,1878 382,1880 382,1940 390,1942 "/>
  <path id="1" fill="#534745" fill-rule="nonzero" d="M460 1947l-12 0 -35 -61 0 0c0,2 0,5 0,8 1,2 1,4 1,6 0,3 0,5 0,7l0 40 -9 0 0 -74 11 0 35 61 0 0c0,-3 0,-5 0,-8 0,-1 0,-2 0,-3 0,-1 -1,-2 -1,-3 0,-1 0,-3 0,-4 0,-1 0,-2 0,-3l0 -40 10 0 0 74z"/>
  <polygon id="2" fill="#534745" fill-rule="nonzero" points="474,1923 474,1915 499,1915 499,1923 "/>
  <path id="3" fill="#534745" fill-rule="nonzero" d="M554 1947l-46 0 0 -8 17 -19c3,-3 5,-5 7,-8 2,-2 4,-4 5,-6 2,-2 3,-5 3,-7 1,-2 1,-4 1,-7 0,-2 0,-4 0,-5 -1,-2 -2,-3 -3,-4 -1,-1 -2,-2 -4,-2 -1,-1 -3,-1 -4,-1 -4,0 -7,1 -9,2 -3,1 -5,3 -7,5l-6 -6c2,-1 3,-3 5,-4 1,-1 3,-2 5,-2 2,-1 3,-2 5,-2 2,-1 5,-1 7,-1 3,0 6,1 8,2 3,0 5,2 7,3 2,2 3,4 4,7 1,2 2,5 2,8 0,3 -1,5 -2,8 0,3 -2,5 -3,8 -2,2 -4,5 -6,7 -2,3 -4,5 -7,8l-14 15 0 0 35 0 0 9z"/>
  <path fill="#534745" fill-rule="nonzero" d="M3727 1910c0,6 0,11 -2,16 -1,4 -3,8 -6,11 -2,4 -6,6 -10,8 -4,2 -8,3 -14,3 -5,0 -10,-1 -14,-3 -4,-2 -7,-4 -10,-8 -2,-3 -4,-7 -6,-12 -1,-4 -2,-9 -2,-15 0,-6 1,-11 2,-16 2,-4 4,-8 6,-12 3,-3 6,-5 10,-7 4,-2 9,-3 15,-3 5,0 9,1 13,3 4,2 8,4 10,7 3,4 5,8 6,12 2,5 2,10 2,16zm-54 0c0,5 1,9 2,12 1,4 2,7 4,10 1,2 4,4 7,6 2,1 6,2 9,2 4,0 8,-1 10,-2 3,-2 5,-4 7,-6 2,-3 3,-6 4,-10 1,-3 1,-7 1,-12 0,-5 0,-9 -1,-12 -1,-4 -2,-7 -4,-10 -2,-2 -4,-4 -7,-6 -2,-1 -6,-2 -9,-2 -4,0 -8,1 -10,2 -3,2 -5,4 -7,6 -2,3 -3,6 -4,10 -1,3 -2,7 -2,12z"/>
  <path id="1" fill="#534745" fill-rule="nonzero" d="M3796 1873l0 48c0,4 0,7 -1,11 -1,3 -3,6 -5,8 -2,3 -5,4 -9,6 -3,1 -7,2 -12,2 -4,0 -8,-1 -11,-2 -3,-1 -6,-3 -8,-6 -2,-2 -4,-5 -5,-8 -1,-3 -2,-7 -2,-11l0 -48 9 0 0 48c0,6 2,11 5,14 3,3 7,5 13,5 3,0 5,-1 8,-2 2,-1 4,-2 5,-4 1,-1 2,-3 3,-5 1,-3 1,-5 1,-8l0 -48 9 0z"/>
  <polygon id="2" fill="#534745" fill-rule="nonzero" points="3837,1947 3828,1947 3828,1881 3807,1881 3807,1873 3858,1873 3858,1881 3837,1881 "/>
  <polygon id="3" fill="#534745" fill-rule="nonzero" points="3858,1923 3858,1915 3883,1915 3883,1923 "/>
  <path id="4" fill="#534745" fill-rule="nonzero" d="M3938 1947l-46 0 0 -8 18 -19c2,-3 5,-5 7,-8 2,-2 3,-4 5,-6 1,-2 2,-5 3,-7 1,-2 1,-4 1,-7 0,-2 0,-3 -1,-5 -1,-1 -1,-3 -2,-4 -1,-1 -3,-2 -4,-2 -2,-1 -3,-1 -5,-1 -3,0 -6,1 -9,2 -2,1 -5,3 -7,5l-5 -6c1,-1 3,-2 4,-4 2,-1 3,-2 5,-2 2,-1 4,-2 6,-2 2,-1 4,-1 6,-1 3,0 6,1 9,2 2,0 5,2 7,3 1,2 3,4 4,7 1,2 1,5 1,8 0,3 0,5 -1,8 -1,3 -2,5 -4,8 -1,2 -3,5 -5,7 -3,3 -5,5 -7,8l-15 15 0 1 35 0 0 8z"/>
  <path fill="#534745" fill-rule="nonzero" d="M3727 2122c0,6 0,11 -2,16 -1,4 -3,8 -6,12 -2,3 -6,6 -10,7 -4,2 -8,3 -14,3 -5,0 -10,-1 -14,-3 -4,-1 -7,-4 -10,-7 -2,-4 -4,-8 -6,-12 -1,-5 -2,-10 -2,-16 0,-6 1,-11 2,-15 2,-5 4,-9 6,-12 3,-4 6,-6 10,-8 4,-2 9,-3 15,-3 5,0 9,1 13,3 4,2 8,4 10,8 3,3 5,7 6,12 2,4 2,9 2,15zm-54 0c0,5 1,9 2,13 1,3 2,6 4,9 1,3 4,4 7,6 2,1 6,2 9,2 4,0 8,-1 10,-2 3,-2 5,-3 7,-6 2,-3 3,-6 4,-9 1,-4 1,-8 1,-13 0,-4 0,-9 -1,-12 -1,-4 -2,-7 -4,-10 -2,-2 -4,-4 -7,-5 -2,-2 -6,-2 -9,-2 -4,0 -8,0 -10,2 -3,1 -5,3 -7,5 -2,3 -3,6 -4,10 -1,3 -2,8 -2,12z"/>
  <path id="1" fill="#534745" fill-rule="nonzero" d="M3796 2085l0 48c0,4 0,8 -1,11 -1,3 -3,6 -5,8 -2,3 -5,5 -9,6 -3,1 -7,2 -12,2 -4,0 -8,0 -11,-2 -3,-1 -6,-3 -8,-5 -2,-3 -4,-6 -5,-9 -1,-3 -2,-7 -2,-11l0 -48 9 0 0 48c0,6 2,11 5,14 3,3 7,5 13,5 3,0 5,-1 8,-1 2,-1 4,-3 5,-4 1,-2 2,-4 3,-6 1,-2 1,-5 1,-8l0 -48 9 0z"/>
  <polygon id="2" fill="#534745" fill-rule="nonzero" points="3837,2159 3828,2159 3828,2094 3807,2094 3807,2085 3858,2085 3858,2094 3837,2094 "/>
  <polygon id="3" fill="#534745" fill-rule="nonzero" points="3858,2136 3858,2127 3883,2127 3883,2136 "/>
  <path id="4" fill="#534745" fill-rule="nonzero" d="M3936 2103c0,2 -1,4 -1,6 -1,2 -2,4 -4,6 -1,1 -3,2 -5,3 -2,1 -4,2 -6,2l0 1c6,0 10,2 13,5 3,3 5,7 5,12 0,3 -1,6 -2,9 -1,3 -2,5 -5,7 -2,2 -5,3 -8,5 -3,1 -7,1 -12,1 -4,0 -7,0 -10,-1 -4,0 -7,-1 -10,-3l0 -8c3,1 7,2 10,3 3,1 7,1 10,1 3,0 6,0 8,-1 2,0 4,-1 5,-3 2,-1 3,-2 4,-4 0,-2 1,-4 1,-6 0,-2 -1,-4 -2,-6 -1,-1 -2,-3 -3,-4 -2,-1 -4,-2 -7,-2 -2,-1 -5,-1 -8,-1l-6 0 0 -8 6 0c3,0 6,0 8,-1 2,0 4,-1 5,-3 1,-1 3,-2 3,-4 1,-2 1,-4 1,-6 0,-1 0,-3 -1,-4 0,-2 -1,-3 -2,-4 -1,-1 -3,-2 -4,-2 -2,0 -3,-1 -5,-1 -4,0 -7,1 -10,2 -2,1 -5,2 -8,4l-4 -6c1,-1 2,-2 4,-3 2,-1 3,-2 5,-2 2,-1 4,-2 6,-2 2,0 4,-1 7,-1 3,0 7,1 9,2 3,1 5,2 7,4 2,1 3,3 4,5 1,3 2,5 2,8z"/>
  <polygon fill="#534745" fill-rule="nonzero" points="390,2160 364,2160 364,2154 372,2152 372,2093 364,2091 364,2086 390,2086 390,2091 382,2093 382,2152 390,2154 "/>
  <path id="1" fill="#534745" fill-rule="nonzero" d="M460 2160l-12 0 -35 -61 0 0c0,2 0,5 0,7 1,3 1,5 1,7 0,3 0,5 0,7l0 40 -9 0 0 -74 11 0 35 61 0 0c0,-3 0,-5 0,-8 0,-1 0,-2 0,-3 0,-1 -1,-3 -1,-4 0,-1 0,-2 0,-3 0,-1 0,-2 0,-3l0 -40 10 0 0 74z"/>
  <polygon id="2" fill="#534745" fill-rule="nonzero" points="474,2136 474,2128 499,2128 499,2136 "/>
  <path id="3" fill="#534745" fill-rule="nonzero" d="M551 2103c0,3 0,5 -1,7 -1,2 -2,4 -3,5 -2,2 -3,3 -5,4 -2,1 -4,1 -7,2l0 0c6,1 11,3 14,6 3,3 5,7 5,12 0,3 -1,6 -2,9 -1,2 -3,5 -5,6 -2,2 -5,4 -8,5 -4,1 -8,2 -12,2 -4,0 -8,-1 -11,-1 -3,-1 -6,-2 -9,-3l0 -9c3,2 6,3 10,4 3,0 6,1 9,1 3,0 6,-1 8,-1 3,-1 5,-2 6,-3 1,-1 3,-3 3,-5 1,-1 1,-3 1,-6 0,-2 0,-4 -1,-5 -1,-2 -2,-3 -4,-4 -2,-1 -4,-2 -6,-3 -2,0 -5,0 -8,0l-7 0 0 -8 7 0c3,0 5,-1 7,-1 2,-1 4,-2 6,-3 1,-1 2,-3 3,-5 1,-1 1,-3 1,-5 0,-2 0,-3 -1,-5 -1,-1 -1,-2 -3,-3 -1,-1 -2,-2 -3,-3 -2,0 -4,0 -6,0 -3,0 -6,0 -9,1 -3,1 -6,3 -8,5l-5 -7c2,-1 3,-2 5,-2 1,-1 3,-2 5,-3 2,-1 4,-1 6,-2 2,0 4,0 6,0 4,0 7,0 10,1 3,1 5,2 7,4 2,2 3,4 4,6 1,2 1,5 1,7z"/>
  <polygon fill="#534745" fill-rule="nonzero" points="390,2371 364,2371 364,2366 372,2364 372,2305 364,2303 364,2298 390,2298 390,2303 382,2305 382,2364 390,2366 "/>
  <path id="1" fill="#534745" fill-rule="nonzero" d="M460 2371l-12 0 -35 -61 0 0c0,3 0,5 0,8 1,2 1,5 1,7 0,2 0,4 0,6l0 40 -9 0 0 -73 11 0 35 60 0 0c0,-2 0,-5 0,-7 0,-1 0,-2 0,-4 0,-1 -1,-2 -1,-3 0,-1 0,-2 0,-3 0,-1 0,-2 0,-3l0 -40 10 0 0 73z"/>
  <polygon id="2" fill="#534745" fill-rule="nonzero" points="474,2348 474,2339 499,2339 499,2348 "/>
  <path id="3" fill="#534745" fill-rule="nonzero" d="M558 2355l-11 0 0 16 -9 0 0 -16 -34 0 0 -8 33 -50 10 0 0 49 11 0 0 9zm-20 -9l0 -18c0,-1 0,-3 0,-5 0,-3 0,-5 0,-6 0,-2 0,-4 1,-6 0,-2 0,-3 0,-4l-1 0c0,0 0,1 -1,2 0,1 0,2 -1,2 0,1 -1,2 -1,3 0,1 -1,1 -1,2l-21 30 25 0z"/>
  <path fill="#534745" fill-rule="nonzero" d="M3727 2334c0,6 0,11 -2,16 -1,5 -3,9 -6,12 -2,3 -6,6 -10,8 -4,1 -8,2 -14,2 -5,0 -10,-1 -14,-2 -4,-2 -7,-5 -10,-8 -2,-3 -4,-7 -6,-12 -1,-5 -2,-10 -2,-16 0,-5 1,-11 2,-15 2,-5 4,-9 6,-12 3,-3 6,-6 10,-8 4,-2 9,-2 15,-2 5,0 9,0 13,2 4,2 8,5 10,8 3,3 5,7 6,12 2,4 2,10 2,15zm-54 0c0,5 1,9 2,13 1,4 2,7 4,9 1,3 4,5 7,6 2,1 6,2 9,2 4,0 8,-1 10,-2 3,-1 5,-3 7,-6 2,-2 3,-5 4,-9 1,-4 1,-8 1,-13 0,-4 0,-8 -1,-12 -1,-4 -2,-7 -4,-9 -2,-3 -4,-5 -7,-6 -2,-2 -6,-2 -9,-2 -4,0 -8,0 -10,2 -3,1 -5,3 -7,6 -2,2 -3,5 -4,9 -1,4 -2,8 -2,12z"/>
  <path id="1" fill="#534745" fill-rule="nonzero" d="M3796 2298l0 47c0,4 0,8 -1,11 -1,3 -3,6 -5,9 -2,2 -5,4 -9,5 -3,2 -7,2 -12,2 -4,0 -8,0 -11,-2 -3,-1 -6,-3 -8,-5 -2,-2 -4,-5 -5,-9 -1,-3 -2,-7 -2,-11l0 -47 9 0 0 48c0,5 2,10 5,13 3,4 7,5 13,5 3,0 5,0 8,-1 2,-1 4,-2 5,-4 1,-2 2,-4 3,-6 1,-2 1,-5 1,-7l0 -48 9 0z"/>
  <polygon id="2" fill="#534745" fill-rule="nonzero" points="3837,2371 3828,2371 3828,2306 3807,2306 3807,2298 3858,2298 3858,2306 3837,2306 "/>
  <polygon id="3" fill="#534745" fill-rule="nonzero" points="3858,2348 3858,2339 3883,2339 3883,2348 "/>
  <path id="4" fill="#534745" fill-rule="nonzero" d="M3942 2355l-11 0 0 16 -8 0 0 -16 -35 0 0 -8 34 -50 9 0 0 49 11 0 0 9zm-19 -9l0 -17c0,-2 0,-4 0,-6 0,-2 0,-4 0,-6 0,-2 0,-4 0,-6 0,-2 0,-3 0,-4l0 0c-1,0 -1,1 -1,2 -1,1 -1,2 -1,2 -1,1 -1,2 -2,3 0,1 0,1 -1,2l-21 30 26 0z"/>
  <polygon fill="#534745" fill-rule="nonzero" points="390,2583 364,2583 364,2578 372,2576 372,2517 364,2514 364,2509 390,2509 390,2514 382,2517 382,2576 390,2578 "/>
  <path id="1" fill="#534745" fill-rule="nonzero" d="M460 2583l-12 0 -35 -61 0 0c0,3 0,5 0,8 1,2 1,4 1,7 0,2 0,4 0,6l0 40 -9 0 0 -74 11 0 35 61 0 0c0,-3 0,-5 0,-8 0,-1 0,-2 0,-3 0,-1 -1,-2 -1,-3 0,-1 0,-2 0,-3 0,-2 0,-2 0,-3l0 -41 10 0 0 74z"/>
  <polygon id="2" fill="#534745" fill-rule="nonzero" points="474,2560 474,2551 499,2551 499,2560 "/>
  <path id="3" fill="#534745" fill-rule="nonzero" d="M530 2538c4,0 7,0 10,1 2,1 5,3 7,4 2,2 4,4 5,7 1,3 2,6 2,9 0,4 -1,8 -2,11 -1,3 -3,5 -5,7 -2,3 -5,4 -8,5 -3,1 -7,2 -12,2 -1,0 -3,0 -5,0 -1,0 -3,-1 -4,-1 -2,0 -3,-1 -5,-1 -1,-1 -2,-1 -3,-2l0 -9c1,1 2,2 3,2 2,1 3,2 5,2 2,0 3,1 5,1 2,0 3,0 5,0 2,0 5,0 7,-1 2,0 4,-1 5,-3 2,-1 3,-3 3,-5 1,-2 2,-4 2,-7 0,-4 -2,-8 -5,-11 -3,-2 -7,-3 -13,-3 -1,0 -2,0 -3,0 -1,0 -2,0 -3,0 -1,0 -2,0 -3,1 -1,0 -2,0 -2,0l-5 -3 3 -35 35 0 0 9 -27 0 -2 21c1,0 2,-1 4,-1 2,0 4,0 6,0z"/>
  <path fill="#534745" fill-rule="nonzero" d="M3727 2547c0,5 0,11 -2,15 -1,5 -3,9 -6,12 -2,4 -6,6 -10,8 -4,2 -8,3 -14,3 -5,0 -10,-1 -14,-3 -4,-2 -7,-4 -10,-8 -2,-3 -4,-7 -6,-12 -1,-5 -2,-10 -2,-15 0,-6 1,-11 2,-16 2,-5 4,-9 6,-12 3,-3 6,-6 10,-8 4,-1 9,-2 15,-2 5,0 9,1 13,2 4,2 8,5 10,8 3,3 5,7 6,12 2,5 2,10 2,16zm-54 0c0,4 1,8 2,12 1,4 2,7 4,9 1,3 4,5 7,6 2,2 6,2 9,2 4,0 8,0 10,-2 3,-1 5,-3 7,-6 2,-2 3,-5 4,-9 1,-4 1,-8 1,-12 0,-5 0,-9 -1,-13 -1,-3 -2,-7 -4,-9 -2,-3 -4,-5 -7,-6 -2,-1 -6,-2 -9,-2 -4,0 -8,1 -10,2 -3,1 -5,3 -7,6 -2,2 -3,6 -4,9 -1,4 -2,8 -2,13z"/>
  <path id="1" fill="#534745" fill-rule="nonzero" d="M3796 2510l0 48c0,3 0,7 -1,10 -1,4 -3,6 -5,9 -2,2 -5,4 -9,6 -3,1 -7,2 -12,2 -4,0 -8,-1 -11,-2 -3,-2 -6,-3 -8,-6 -2,-2 -4,-5 -5,-8 -1,-4 -2,-8 -2,-12l0 -47 9 0 0 48c0,6 2,10 5,14 3,3 7,4 13,4 3,0 5,0 8,-1 2,-1 4,-2 5,-4 1,-1 2,-3 3,-6 1,-2 1,-5 1,-7l0 -48 9 0z"/>
  <polygon id="2" fill="#534745" fill-rule="nonzero" points="3837,2584 3828,2584 3828,2518 3807,2518 3807,2510 3858,2510 3858,2518 3837,2518 "/>
  <polygon id="3" fill="#534745" fill-rule="nonzero" points="3858,2560 3858,2552 3883,2552 3883,2560 "/>
  <path id="4" fill="#534745" fill-rule="nonzero" d="M3915 2538c3,0 6,1 9,2 3,1 5,2 8,4 2,2 3,4 5,7 1,2 1,5 1,9 0,4 0,7 -1,10 -1,3 -3,6 -5,8 -3,2 -5,4 -9,5 -3,1 -7,2 -11,2 -2,0 -4,0 -5,-1 -2,0 -3,0 -5,0 -2,-1 -3,-1 -4,-2 -2,0 -3,-1 -4,-1l0 -9c1,1 2,1 4,2 1,1 3,1 5,2 1,0 3,0 5,0 1,1 3,1 4,1 3,0 5,-1 7,-1 2,-1 4,-2 6,-3 1,-1 2,-3 3,-5 1,-2 1,-4 1,-7 0,-5 -1,-8 -4,-11 -3,-3 -8,-4 -13,-4 -1,0 -2,0 -3,0 -1,0 -2,1 -3,1 -1,0 -2,0 -3,0 -1,0 -2,0 -3,1l-5 -3 3 -35 35 0 0 8 -27 0 -2 21c1,0 3,0 5,0 1,0 3,-1 6,-1z"/>
  <polygon fill="#534745" fill-rule="nonzero" points="390,2796 364,2796 364,2791 372,2789 372,2729 364,2727 364,2722 390,2722 390,2727 382,2729 382,2789 390,2791 "/>
  <path id="1" fill="#534745" fill-rule="nonzero" d="M460 2796l-12 0 -35 -61 0 0c0,2 0,5 0,7 1,3 1,5 1,7 0,3 0,5 0,7l0 40 -9 0 0 -74 11 0 35 61 0 0c0,-3 0,-5 0,-8 0,-1 0,-2 0,-3 0,-1 -1,-2 -1,-3 0,-2 0,-3 0,-4 0,-1 0,-2 0,-3l0 -40 10 0 0 74z"/>
  <polygon id="2" fill="#534745" fill-rule="nonzero" points="474,2772 474,2764 499,2764 499,2772 "/>
  <path id="3" fill="#534745" fill-rule="nonzero" d="M509 2764c0,-3 0,-7 0,-10 0,-4 1,-7 2,-10 1,-3 2,-6 4,-9 1,-3 3,-5 6,-7 2,-2 5,-4 8,-5 3,-1 7,-2 12,-2 0,0 1,0 2,0 1,0 1,0 2,0 1,0 2,0 3,1 0,0 1,0 1,0l0 8c-1,0 -2,-1 -4,-1 -1,0 -2,0 -4,0 -3,0 -6,0 -8,1 -2,1 -4,2 -6,3 -1,1 -3,3 -4,5 -1,1 -2,3 -3,5 0,3 -1,5 -1,7 -1,3 -1,6 -1,8l1 0c0,-1 1,-2 2,-3 1,-1 2,-2 3,-3 2,-1 3,-1 5,-2 1,0 3,0 5,0 3,0 6,0 9,1 2,1 5,3 6,4 2,2 4,5 5,8 1,2 1,5 1,9 0,4 -1,7 -2,10 -1,3 -2,6 -4,8 -2,2 -4,4 -7,5 -3,1 -6,2 -9,2 -4,0 -7,-1 -10,-2 -3,-1 -5,-3 -7,-6 -3,-3 -4,-6 -6,-10 -1,-4 -1,-9 -1,-15zm24 25c2,0 3,0 5,-1 2,-1 3,-2 4,-3 2,-2 3,-3 3,-5 1,-3 1,-5 1,-8 0,-2 0,-4 -1,-6 0,-2 -1,-4 -2,-5 -1,-1 -3,-2 -4,-3 -2,-1 -4,-1 -6,-1 -2,0 -4,0 -6,1 -2,1 -4,2 -5,3 -1,1 -2,3 -3,4 -1,2 -1,4 -1,5 0,2 0,5 1,7 0,2 1,4 3,6 1,2 2,3 4,4 2,1 4,2 7,2z"/>
  <path fill="#534745" fill-rule="nonzero" d="M3727 2759c0,6 0,11 -2,15 -1,5 -3,9 -6,12 -2,4 -6,6 -10,8 -4,2 -8,3 -14,3 -5,0 -10,-1 -14,-3 -4,-2 -7,-4 -10,-8 -2,-3 -4,-7 -6,-12 -1,-4 -2,-9 -2,-15 0,-6 1,-11 2,-16 2,-4 4,-8 6,-12 3,-3 6,-5 10,-7 4,-2 9,-3 15,-3 5,0 9,1 13,3 4,2 8,4 10,7 3,4 5,8 6,12 2,5 2,10 2,16zm-54 0c0,4 1,9 2,12 1,4 2,7 4,10 1,2 4,4 7,6 2,1 6,2 9,2 4,0 8,-1 10,-2 3,-2 5,-4 7,-6 2,-3 3,-6 4,-10 1,-3 1,-8 1,-12 0,-5 0,-9 -1,-13 -1,-3 -2,-6 -4,-9 -2,-2 -4,-4 -7,-6 -2,-1 -6,-2 -9,-2 -4,0 -8,1 -10,2 -3,2 -5,4 -7,6 -2,3 -3,6 -4,9 -1,4 -2,8 -2,13z"/>
  <path id="1" fill="#534745" fill-rule="nonzero" d="M3796 2722l0 48c0,4 0,7 -1,11 -1,3 -3,6 -5,8 -2,2 -5,4 -9,6 -3,1 -7,2 -12,2 -4,0 -8,-1 -11,-2 -3,-1 -6,-3 -8,-6 -2,-2 -4,-5 -5,-8 -1,-4 -2,-7 -2,-11l0 -48 9 0 0 48c0,6 2,11 5,14 3,3 7,5 13,5 3,0 5,-1 8,-2 2,-1 4,-2 5,-4 1,-1 2,-3 3,-6 1,-2 1,-4 1,-7l0 -48 9 0z"/>
  <polygon id="2" fill="#534745" fill-rule="nonzero" points="3837,2796 3828,2796 3828,2730 3807,2730 3807,2722 3858,2722 3858,2730 3837,2730 "/>
  <polygon id="3" fill="#534745" fill-rule="nonzero" points="3858,2772 3858,2764 3883,2764 3883,2772 "/>
  <path id="4" fill="#534745" fill-rule="nonzero" d="M3893 2764c0,-3 0,-7 1,-10 0,-4 1,-7 1,-10 1,-3 3,-6 4,-9 2,-3 4,-5 6,-7 2,-2 5,-4 9,-5 3,-1 7,-2 11,-2 1,0 2,0 2,0 1,0 2,0 3,0 0,0 1,1 2,1 1,0 1,0 2,0l0 8c-1,0 -3,-1 -4,-1 -2,0 -3,0 -4,0 -3,0 -6,0 -8,1 -3,1 -5,2 -6,3 -2,1 -3,3 -5,5 -1,1 -2,3 -2,6 -1,2 -1,4 -2,7 0,2 0,5 0,7l0 0c1,-1 2,-2 3,-3 1,-1 2,-2 3,-3 1,-1 3,-1 4,-2 2,0 4,0 6,0 3,0 6,0 8,1 3,1 5,3 7,5 2,1 3,4 4,7 1,2 1,6 1,9 0,4 0,7 -1,10 -1,3 -3,6 -5,8 -2,2 -4,4 -7,5 -2,1 -6,2 -9,2 -3,0 -6,-1 -9,-2 -3,-1 -6,-3 -8,-6 -2,-3 -4,-6 -5,-10 -1,-4 -2,-9 -2,-15zm24 25c2,0 4,0 6,-1 1,-1 3,-2 4,-3 1,-2 2,-3 3,-5 0,-3 1,-5 1,-8 0,-2 -1,-4 -1,-6 -1,-2 -2,-4 -3,-5 -1,-1 -2,-2 -4,-3 -2,-1 -3,-1 -6,-1 -2,0 -4,0 -6,1 -2,1 -3,2 -5,3 -1,1 -2,3 -3,4 0,2 -1,4 -1,5 0,3 1,5 1,7 1,2 2,4 3,6 1,2 3,3 5,4 1,1 4,2 6,2z"/>
  <path fill="#534745" fill-rule="nonzero" d="M1675 2101l-28 -83 0 0c0,3 0,6 0,9 0,3 1,6 1,9 0,3 0,6 0,8l0 57 -12 0 0 -95 19 0 25 77 1 0 27 -77 17 0 0 95 -12 0 0 -58c0,-2 0,-5 0,-7 1,-3 1,-6 1,-9 0,-3 0,-6 0,-9l0 0 -29 83 -10 0z"/>
  <path id="1" fill="#534745" fill-rule="nonzero" d="M1808 2065c0,6 -1,11 -3,16 -1,4 -3,8 -6,11 -3,4 -6,6 -10,8 -4,1 -8,2 -13,2 -4,0 -8,-1 -12,-2 -4,-2 -7,-4 -10,-8 -2,-3 -5,-7 -6,-11 -2,-5 -2,-10 -2,-16 0,-6 0,-11 2,-16 1,-4 3,-8 6,-11 3,-3 6,-6 10,-7 4,-2 8,-3 13,-3 4,0 8,1 12,3 4,1 7,4 10,7 3,3 5,7 6,11 2,5 3,10 3,16zm-50 0c0,9 1,16 4,20 3,5 8,7 15,7 6,0 11,-2 14,-7 3,-4 4,-11 4,-20 0,-9 -1,-16 -4,-20 -3,-5 -8,-7 -15,-7 -6,0 -11,2 -14,7 -3,4 -4,11 -4,20z"/>
  <path id="2" fill="#534745" fill-rule="nonzero" d="M1871 2101l0 -46c0,-6 -2,-10 -4,-13 -2,-3 -6,-4 -10,-4 -4,0 -7,1 -9,2 -3,1 -5,3 -6,5 -1,2 -3,5 -3,8 -1,3 -1,7 -1,11l0 37 -12 0 0 -71 10 0 1 9 1 0c1,-2 2,-3 4,-5 1,-1 3,-2 5,-3 2,-1 3,-2 5,-2 2,-1 4,-1 7,-1 7,0 13,2 17,6 4,5 6,11 6,20l0 47 -11 0z"/>
  <polygon id="3" fill="#534745" fill-rule="nonzero" points="1915,2064 1924,2053 1943,2030 1956,2030 1931,2060 1958,2101 1945,2101 1923,2068 1916,2073 1916,2101 1904,2101 1904,2000 1916,2000 1916,2046 1915,2064 "/>
  <path id="4" fill="#534745" fill-rule="nonzero" d="M2045 2101l-28 -83 0 0c0,3 0,6 1,9 0,3 0,6 0,9 0,3 0,6 0,8l0 57 -12 0 0 -95 19 0 26 77 0 0 27 -77 18 0 0 95 -12 0 0 -58c0,-2 0,-5 0,-7 0,-3 0,-6 0,-9 0,-3 0,-6 1,-9l-1 0 -29 83 -10 0z"/>
  <path id="5" fill="#534745" fill-rule="nonzero" d="M2160 2101l-2 -10 -1 0c-1,2 -3,3 -4,5 -2,1 -3,2 -5,3 -2,1 -3,2 -6,2 -2,1 -4,1 -7,1 -3,0 -5,0 -8,-1 -2,-1 -5,-2 -6,-4 -2,-2 -4,-4 -5,-7 -1,-2 -1,-6 -1,-9 0,-7 2,-13 7,-17 5,-3 13,-5 23,-6l12 0 0 -5c0,-3 -1,-5 -1,-7 -1,-2 -2,-3 -3,-5 -1,-1 -2,-2 -4,-2 -2,-1 -4,-1 -6,-1 -4,0 -7,1 -10,2 -3,1 -6,2 -9,3l-4 -9c3,-1 7,-3 10,-4 4,-1 9,-2 13,-2 4,0 8,1 11,2 3,0 6,2 8,4 2,2 4,4 5,7 1,3 1,7 1,11l0 49 -8 0zm-22 -9c3,0 5,0 8,-1 2,-1 4,-2 5,-4 2,-1 3,-3 4,-6 1,-2 2,-5 2,-9l0 -6 -10 0c-3,0 -7,1 -9,2 -3,0 -5,1 -7,2 -1,2 -2,3 -3,5 -1,2 -1,4 -1,6 0,4 1,7 3,8 2,2 5,3 8,3z"/>
  <polygon id="6" fill="#534745" fill-rule="nonzero" points="2201,2064 2210,2053 2229,2030 2243,2030 2217,2060 2244,2101 2231,2101 2209,2068 2202,2073 2202,2101 2190,2101 2190,2000 2202,2000 2202,2046 2201,2064 "/>
  <path id="7" fill="#534745" fill-rule="nonzero" d="M2284 2102c-5,0 -9,-1 -13,-2 -4,-2 -7,-4 -10,-7 -3,-3 -5,-7 -6,-12 -2,-4 -3,-10 -3,-15 0,-6 1,-11 2,-16 2,-5 4,-9 6,-12 3,-3 6,-6 10,-7 3,-2 7,-3 12,-3 4,0 8,1 11,3 4,1 6,3 9,6 2,3 4,6 5,10 2,4 2,8 2,13l0 8 -45 0c1,8 2,14 6,18 3,4 8,6 14,6 3,0 5,0 6,-1 2,0 4,0 6,-1 2,0 3,0 5,-1 2,-1 3,-1 5,-2l0 10c-2,1 -3,2 -5,2 -2,1 -3,2 -5,2 -2,0 -4,1 -6,1 -2,0 -4,0 -6,0zm-2 -64c-5,0 -9,2 -12,5 -3,3 -5,8 -5,15l32 0c0,-3 0,-6 -1,-8 0,-3 -1,-5 -3,-7 -1,-1 -2,-3 -4,-4 -2,0 -5,-1 -7,-1z"/>
  <path id="8" fill="#534745" fill-rule="nonzero" d="M2370 2081c0,4 -1,7 -2,9 -1,3 -3,5 -6,7 -2,2 -5,3 -8,4 -3,1 -7,1 -11,1 -5,0 -9,0 -12,-1 -4,-1 -7,-2 -9,-3l0 -11c1,0 3,1 4,2 2,0 3,1 5,1 2,1 4,1 6,2 2,0 4,0 6,0 2,0 5,0 7,0 2,-1 3,-2 4,-2 2,-1 3,-2 3,-4 1,-1 1,-2 1,-4 0,-1 0,-2 -1,-4 0,-1 -1,-2 -2,-3 -1,-1 -3,-2 -5,-3 -2,-1 -4,-2 -7,-4 -3,-1 -6,-2 -9,-3 -2,-2 -4,-3 -6,-5 -2,-1 -3,-3 -4,-5 -1,-2 -1,-5 -1,-8 0,-3 0,-6 2,-8 1,-2 2,-4 5,-6 2,-1 4,-3 7,-3 3,-1 7,-2 10,-2 5,0 8,1 12,2 3,1 7,2 10,3l-4 10c-3,-2 -6,-3 -9,-4 -3,0 -6,-1 -9,-1 -4,0 -7,1 -9,2 -2,2 -3,4 -3,6 0,2 0,3 0,4 1,1 2,3 3,4 1,1 3,2 5,3 2,1 4,2 7,3 3,1 6,3 8,4 3,1 5,3 6,4 2,2 3,4 4,6 1,2 2,4 2,7z"/>
  <path id="9" fill="#534745" fill-rule="nonzero" d="M1686 2230c0,4 -1,8 -3,11 -1,3 -3,6 -6,8 -3,3 -6,4 -10,6 -4,1 -9,1 -14,1 -4,0 -9,0 -13,-1 -4,0 -8,-2 -10,-3l0 -12c1,1 3,2 5,3 1,0 3,1 5,1 3,1 5,1 7,2 2,0 4,0 6,0 7,0 12,-1 16,-4 3,-2 5,-6 5,-11 0,-2 -1,-4 -1,-6 -1,-2 -2,-3 -4,-5 -1,-1 -3,-3 -6,-4 -3,-1 -6,-3 -10,-5 -4,-1 -7,-3 -10,-5 -3,-1 -5,-3 -7,-6 -2,-2 -3,-4 -4,-7 -1,-3 -1,-6 -1,-10 0,-4 1,-7 2,-10 1,-3 3,-6 6,-8 2,-2 5,-3 9,-4 3,-1 7,-2 11,-2 5,0 10,1 14,2 4,0 8,2 11,3l-4 10c-3,-1 -6,-2 -10,-3 -3,-1 -7,-1 -11,-1 -5,0 -9,1 -12,3 -3,3 -4,6 -4,10 0,3 0,5 1,7 0,1 2,3 3,4 2,2 4,3 6,5 2,1 5,2 9,4 4,1 7,3 10,4 3,2 6,4 8,6 2,2 3,4 4,7 1,3 2,6 2,10z"/>
  <path id="10" fill="#534745" fill-rule="nonzero" d="M1731 2256c-5,0 -9,0 -13,-2 -4,-2 -7,-4 -10,-7 -3,-3 -5,-7 -7,-11 -1,-5 -2,-10 -2,-16 0,-6 1,-11 2,-16 2,-4 4,-8 6,-11 3,-4 6,-6 9,-8 4,-1 8,-2 12,-2 5,0 9,0 12,2 3,2 6,4 9,6 2,3 4,7 5,11 1,4 2,8 2,13l0 7 -45 0c0,8 2,14 5,18 4,4 9,6 15,6 2,0 4,0 6,0 2,0 4,-1 6,-1 2,-1 3,-1 5,-2 2,0 3,-1 5,-2l0 11c-2,0 -4,1 -5,2 -2,0 -4,1 -5,1 -2,1 -4,1 -6,1 -2,0 -4,0 -6,0zm-3 -64c-5,0 -9,2 -11,6 -3,3 -5,8 -6,14l33 0c0,-3 0,-5 -1,-8 -1,-2 -2,-4 -3,-6 -1,-2 -3,-3 -5,-4 -2,-1 -4,-2 -7,-2z"/>
  <path id="11" fill="#534745" fill-rule="nonzero" d="M1805 2183c1,0 2,0 4,0 2,0 3,0 4,0l-2 11c-1,0 -2,0 -3,0 -2,-1 -3,-1 -4,-1 -3,0 -5,1 -7,2 -3,1 -5,3 -6,5 -2,2 -3,4 -4,7 -1,3 -1,6 -1,10l0 38 -12 0 0 -71 10 0 1 13 1 0c1,-2 2,-4 3,-5 1,-2 3,-4 4,-5 2,-1 3,-2 5,-3 2,-1 4,-1 7,-1z"/>
  <path id="12" fill="#534745" fill-rule="nonzero" d="M1840 2255l-24 -71 12 0 13 40c0,1 1,3 1,5 1,2 2,5 2,7 1,2 2,4 2,7 1,2 1,3 1,4l1 0c0,-1 0,-2 1,-4 0,-3 1,-5 1,-7 1,-2 2,-5 2,-7 1,-2 2,-4 2,-5l13 -40 12 0 -24 71 -15 0z"/>
  <path id="13" fill="#534745" fill-rule="nonzero" d="M1948 2219c0,6 0,12 -2,16 -1,5 -3,9 -6,12 -3,3 -6,5 -10,7 -4,2 -8,2 -13,2 -4,0 -8,0 -12,-2 -4,-2 -7,-4 -10,-7 -3,-3 -5,-7 -6,-12 -2,-4 -3,-10 -3,-16 0,-5 1,-11 3,-15 1,-5 3,-9 6,-12 2,-3 6,-5 10,-7 3,-2 8,-2 13,-2 4,0 8,0 12,2 4,2 7,4 10,7 2,3 5,7 6,12 2,4 2,10 2,15zm-49 0c0,9 1,16 4,21 3,4 8,7 14,7 7,0 12,-3 15,-7 3,-5 4,-12 4,-21 0,-9 -1,-15 -4,-20 -3,-4 -8,-7 -15,-7 -6,0 -11,3 -14,7 -3,5 -4,11 -4,20z"/>
  <path id="14" fill="#534745" fill-rule="nonzero" d="M2053 2230c0,4 -1,8 -2,11 -2,3 -4,6 -7,8 -2,3 -6,4 -10,6 -4,1 -8,1 -13,1 -5,0 -9,0 -14,-1 -4,0 -7,-2 -10,-3l0 -12c1,1 3,2 5,3 2,0 4,1 6,1 2,1 4,1 6,2 2,0 5,0 7,0 7,0 12,-1 15,-4 3,-2 5,-6 5,-11 0,-2 0,-4 -1,-6 -1,-2 -2,-3 -3,-5 -2,-1 -4,-3 -7,-4 -2,-1 -6,-3 -10,-5 -3,-1 -7,-3 -10,-5 -2,-1 -5,-3 -7,-6 -1,-2 -3,-4 -4,-7 0,-3 -1,-6 -1,-10 0,-4 1,-7 2,-10 2,-3 4,-6 6,-8 3,-2 6,-3 9,-4 3,-1 7,-2 11,-2 6,0 10,1 14,2 4,0 8,2 11,3l-4 10c-3,-1 -6,-2 -9,-3 -4,-1 -8,-1 -11,-1 -6,0 -10,1 -13,3 -2,3 -4,6 -4,10 0,3 0,5 1,7 1,1 2,3 3,4 2,2 4,3 6,5 3,1 6,2 9,4 4,1 8,3 11,4 3,2 5,4 7,6 2,2 3,4 4,7 1,3 2,6 2,10z"/>
  <path id="15" fill="#534745" fill-rule="nonzero" d="M2082 2255l-12 0 0 -71 12 0 0 71zm-13 -90c0,-3 1,-5 2,-6 2,-1 3,-2 5,-2 1,0 2,0 3,1 1,0 1,0 2,1 1,1 1,1 2,2 0,1 0,2 0,4 0,2 -1,4 -2,5 -1,2 -3,2 -5,2 -2,0 -3,0 -5,-2 -1,-1 -2,-3 -2,-5z"/>
  <polygon id="16" fill="#534745" fill-rule="nonzero" points="2120,2219 2097,2184 2110,2184 2126,2211 2143,2184 2156,2184 2133,2219 2157,2255 2144,2255 2126,2227 2109,2255 2096,2255 "/>
  <path id="17" fill="#534745" fill-rule="nonzero" d="M2207 2160l26 0c5,0 10,1 14,2 5,0 8,2 11,4 3,2 5,4 6,7 2,3 3,7 3,11 0,3 -1,6 -2,8 -1,2 -2,4 -3,6 -2,2 -4,3 -6,5 -2,1 -5,2 -8,2l0 1c3,0 6,1 8,2 3,1 5,2 7,4 2,2 3,4 5,6 1,3 1,6 1,10 0,4 -1,8 -2,11 -1,4 -3,6 -6,9 -3,2 -6,4 -10,5 -3,1 -8,2 -13,2l-31 0 0 -95zm12 41l16 0c4,0 7,-1 9,-1 3,-1 5,-2 6,-3 2,-2 3,-3 3,-5 1,-2 1,-4 1,-7 0,-5 -1,-9 -5,-11 -3,-2 -8,-3 -15,-3l-15 0 0 30zm0 10l0 34 17 0c4,0 7,-1 10,-1 2,-1 4,-3 6,-4 2,-2 3,-3 3,-6 1,-2 1,-4 1,-7 0,-2 0,-4 -1,-6 0,-2 -2,-4 -3,-6 -2,-1 -4,-2 -7,-3 -2,-1 -6,-1 -10,-1l-16 0z"/>
  <path id="18" fill="#534745" fill-rule="nonzero" d="M2346 2219c0,6 -1,12 -2,16 -2,5 -4,9 -7,12 -2,3 -6,5 -9,7 -4,2 -9,2 -13,2 -5,0 -9,0 -13,-2 -3,-2 -7,-4 -9,-7 -3,-3 -5,-7 -7,-12 -1,-4 -2,-10 -2,-16 0,-5 1,-11 2,-15 1,-5 3,-9 6,-12 3,-3 6,-5 10,-7 4,-2 8,-2 13,-2 4,0 9,0 12,2 4,2 7,4 10,7 3,3 5,7 6,12 2,4 3,10 3,15zm-50 0c0,9 1,16 4,21 3,4 8,7 15,7 6,0 11,-3 14,-7 3,-5 5,-12 5,-21 0,-9 -2,-15 -5,-20 -3,-4 -8,-7 -14,-7 -7,0 -12,3 -15,7 -3,5 -4,11 -4,20z"/>
  <path id="19" fill="#534745" fill-rule="nonzero" d="M2404 2255l-2 -10 -1 0c-1,2 -2,4 -4,5 -1,2 -3,3 -4,4 -2,1 -4,1 -6,2 -2,0 -5,0 -7,0 -3,0 -6,0 -8,-1 -3,-1 -5,-2 -7,-4 -2,-2 -3,-4 -4,-6 -1,-3 -2,-6 -2,-10 0,-7 3,-12 8,-16 5,-4 12,-6 22,-6l12 -1 0 -4c0,-3 0,-6 -1,-8 0,-1 -1,-3 -2,-4 -2,-1 -3,-2 -5,-3 -2,0 -4,-1 -6,-1 -3,0 -7,1 -10,2 -3,1 -6,2 -9,4l-4 -9c3,-2 7,-3 11,-5 4,-1 8,-1 12,-1 5,0 8,0 12,1 3,1 6,2 8,4 2,2 3,5 4,8 1,3 2,6 2,10l0 49 -9 0zm-21 -8c2,0 5,-1 7,-2 2,0 4,-2 6,-3 2,-2 3,-4 4,-7 1,-2 1,-5 1,-8l0 -7 -9 1c-4,0 -7,0 -10,1 -3,1 -5,2 -6,3 -2,1 -3,3 -4,4 0,2 -1,4 -1,6 0,4 1,7 3,9 3,2 5,3 9,3z"/>
  <path id="20" fill="#534745" fill-rule="nonzero" d="M2466 2183c1,0 2,0 4,0 1,0 3,0 4,0l-2 11c-1,0 -2,0 -4,0 -1,-1 -2,-1 -3,-1 -3,0 -5,1 -8,2 -2,1 -4,3 -5,5 -2,2 -3,4 -4,7 -1,3 -1,6 -1,10l0 38 -12 0 0 -71 9 0 2 13 0 0c1,-2 3,-4 4,-5 1,-2 2,-4 4,-5 1,-1 3,-2 5,-3 2,-1 4,-1 7,-1z"/>
  <path id="21" fill="#534745" fill-rule="nonzero" d="M2532 2246l-1 0c-1,1 -2,2 -3,4 -2,1 -3,2 -5,3 -1,1 -3,2 -5,3 -2,0 -5,0 -7,0 -4,0 -8,0 -11,-2 -4,-1 -6,-4 -9,-7 -2,-3 -4,-7 -5,-11 -2,-5 -2,-10 -2,-16 0,-6 0,-12 2,-16 1,-5 3,-9 5,-12 3,-3 5,-5 9,-7 3,-2 7,-2 11,-2 2,0 5,0 7,1 2,0 4,1 5,2 2,1 3,2 5,3 1,1 2,3 3,4l1 0c0,-1 0,-3 -1,-4 0,-1 0,-2 0,-4 0,-1 0,-2 0,-2l0 -29 12 0 0 101 -10 0 -1 -9zm-19 1c3,0 6,-1 8,-2 3,-1 4,-2 6,-4 1,-2 2,-5 3,-8 1,-3 1,-7 1,-11l0 -2c0,-5 0,-9 -1,-12 0,-3 -1,-6 -3,-9 -1,-2 -3,-4 -5,-5 -3,-1 -6,-2 -9,-2 -6,0 -10,3 -13,8 -3,4 -4,11 -4,20 0,9 1,16 4,20 3,4 7,7 13,7z"/>
  <path id="22" fill="#534745" fill-rule="nonzero" d="M2613 2255l-24 -71 12 0 13 40c0,1 1,3 1,5 1,2 2,5 2,7 1,2 1,4 2,7 1,2 1,3 1,4l1 0c0,-1 0,-2 1,-4 0,-3 1,-5 1,-7 1,-2 2,-5 2,-7 1,-2 2,-4 2,-5l13 -40 12 0 -24 71 -15 0z"/>
  <path id="23" fill="#534745" fill-rule="nonzero" d="M2698 2255l-11 0 0 -59c0,-2 0,-4 0,-6 0,-2 0,-4 0,-6 0,-2 0,-4 0,-6 0,-2 0,-4 0,-5 0,0 -1,1 -2,2 0,0 -1,1 -1,1 -1,1 -2,1 -2,2 -1,0 -2,1 -3,2l-9 8 -6 -8 24 -20 10 0 0 95z"/>
  <path id="24" fill="#534745" fill-rule="nonzero" d="M2735 2248c0,-2 0,-3 0,-4 1,-1 1,-2 2,-3 1,-1 2,-1 3,-2 1,0 2,0 3,0 1,0 2,0 3,0 1,1 2,1 3,2 1,1 1,2 2,3 0,1 0,2 0,4 0,1 0,3 0,4 -1,1 -1,2 -2,3 -1,1 -2,1 -3,1 -1,1 -2,1 -3,1 -1,0 -2,0 -3,-1 -1,0 -2,0 -3,-1 -1,-1 -1,-2 -2,-3 0,-1 0,-3 0,-4z"/>
  <path id="25" fill="#534745" fill-rule="nonzero" d="M2828 2208c0,7 -1,14 -2,20 -1,6 -3,11 -5,16 -3,4 -6,7 -10,9 -4,2 -8,3 -14,3 -5,0 -9,-1 -13,-3 -4,-2 -7,-5 -10,-9 -2,-5 -4,-10 -5,-16 -1,-6 -2,-13 -2,-20 0,-8 1,-15 2,-21 1,-6 3,-11 5,-15 2,-4 5,-8 9,-10 4,-2 9,-3 14,-3 5,0 10,1 14,3 3,2 7,6 9,10 3,4 4,9 6,15 1,6 2,13 2,21zm-49 0c0,6 0,12 1,17 1,4 2,8 3,12 2,3 3,5 6,7 2,2 5,2 8,2 3,0 6,0 9,-2 2,-2 4,-4 5,-7 2,-3 3,-7 4,-12 0,-5 1,-11 1,-17 0,-7 -1,-13 -1,-17 -1,-5 -2,-9 -4,-12 -1,-4 -3,-6 -5,-8 -3,-1 -6,-2 -9,-2 -3,0 -6,1 -8,2 -3,2 -4,4 -6,8 -1,3 -2,7 -3,12 -1,4 -1,10 -1,17z"/>
  <path id="26" fill="#534745" fill-rule="nonzero" d="M2889 2246l-1 0c-1,1 -2,2 -3,4 -1,1 -3,2 -4,3 -2,1 -4,2 -6,3 -2,0 -4,0 -7,0 -4,0 -8,0 -11,-2 -3,-1 -6,-4 -8,-7 -3,-3 -5,-7 -6,-11 -1,-5 -2,-10 -2,-16 0,-6 1,-12 2,-16 1,-5 3,-9 6,-12 2,-3 5,-5 8,-7 3,-2 7,-2 11,-2 3,0 5,0 7,1 2,0 4,1 6,2 1,1 3,2 4,3 1,1 2,3 3,4l1 0c0,-1 0,-3 0,-4 0,-1 0,-2 0,-4 -1,-1 -1,-2 -1,-2l0 -29 12 0 0 101 -9 0 -2 -9zm-19 1c4,0 6,-1 9,-2 2,-1 4,-2 5,-4 2,-2 3,-5 3,-8 1,-3 1,-7 1,-11l0 -2c0,-5 0,-9 0,-12 -1,-3 -2,-6 -3,-9 -2,-2 -4,-4 -6,-5 -2,-1 -5,-2 -9,-2 -6,0 -10,3 -13,8 -2,4 -4,11 -4,20 0,9 2,16 4,20 3,4 7,7 13,7z"/>
  <path fill="#534745" fill-rule="nonzero" d="M2097 330l10 0 -25 74 -9 0 -25 -74 10 0 15 47c1,3 2,6 3,9 1,3 1,5 2,8 0,-3 1,-5 2,-8 0,-3 1,-6 2,-9l15 -47z"/>
  <path id="1" fill="#534745" fill-rule="nonzero" d="M2134 405c-3,0 -7,-1 -10,-2 -3,-1 -5,-2 -7,-5 -3,-2 -4,-5 -5,-8 -2,-4 -2,-8 -2,-13 0,-6 0,-10 2,-14 1,-4 3,-7 5,-9 2,-2 5,-4 8,-5 3,-1 6,-1 9,-1 3,0 5,0 8,0 2,1 5,2 6,3l-2 7c-1,0 -2,0 -3,-1 -1,0 -2,0 -3,-1 -1,0 -2,0 -3,0 -1,0 -2,0 -3,0 -5,0 -9,1 -11,5 -3,3 -4,8 -4,15 0,8 1,13 4,16 2,3 6,5 11,5 3,0 5,0 7,-1 2,-1 4,-1 6,-2l0 8c-2,1 -3,2 -6,2 -2,1 -4,1 -7,1z"/>
  <path id="2" fill="#534745" fill-rule="nonzero" d="M2182 405c-4,0 -7,-1 -10,-2 -3,-1 -5,-2 -8,-5 -2,-2 -3,-5 -5,-8 -1,-4 -2,-8 -2,-13 0,-6 1,-10 2,-14 2,-4 3,-7 6,-9 2,-2 4,-4 7,-5 3,-1 7,-1 10,-1 3,0 5,0 8,0 2,1 4,2 6,3l-3 7c0,0 -1,0 -2,-1 -1,0 -2,0 -3,-1 -1,0 -2,0 -3,0 -1,0 -2,0 -3,0 -5,0 -9,1 -11,5 -3,3 -4,8 -4,15 0,8 1,13 4,16 2,3 6,5 11,5 2,0 5,0 7,-1 2,-1 4,-1 6,-2l0 8c-2,1 -4,2 -6,2 -2,1 -4,1 -7,1z"/>
  <path fill="#534745" fill-rule="nonzero" d="M2053 3875l25 0 0 36c-2,1 -4,1 -6,2 -2,0 -4,0 -6,1 -2,0 -4,0 -6,0 -2,1 -5,1 -7,1 -5,0 -10,-1 -14,-3 -4,-2 -8,-4 -10,-7 -3,-4 -5,-8 -7,-12 -1,-5 -2,-10 -2,-16 0,-6 1,-11 2,-16 2,-5 4,-9 7,-12 3,-3 7,-6 12,-7 4,-2 9,-3 15,-3 4,0 7,0 11,1 3,1 6,2 9,3l-3 8c-1,0 -3,-1 -4,-1 -2,-1 -3,-1 -4,-1 -2,-1 -3,-1 -5,-1 -2,-1 -3,-1 -5,-1 -4,0 -7,1 -11,2 -3,2 -5,4 -8,6 -2,3 -3,6 -4,9 -1,4 -2,8 -2,13 0,4 0,8 1,12 1,3 3,7 5,9 2,3 4,5 8,6 3,2 7,2 11,2 2,0 3,0 4,0 1,0 2,0 4,0 1,0 2,0 2,0 1,-1 2,-1 3,-1l0 -22 -15 0 0 -8z"/>
  <path id="1" fill="#534745" fill-rule="nonzero" d="M2150 3914l-11 0 -35 -61 -1 0c1,2 1,5 1,7 0,3 0,5 0,7 0,3 0,5 0,7l0 40 -9 0 0 -74 11 0 35 61 1 0c-1,-3 -1,-5 -1,-8 0,-1 0,-2 0,-3 0,-1 0,-2 0,-4 0,-1 0,-2 0,-3 0,-1 0,-2 0,-3l0 -40 9 0 0 74z"/>
  <path id="2" fill="#534745" fill-rule="nonzero" d="M2224 3876c0,6 0,12 -2,16 -2,5 -4,9 -7,12 -3,3 -7,6 -11,7 -5,2 -10,3 -15,3l-19 0 0 -74 21 0c5,0 9,1 14,2 4,2 7,4 10,7 3,3 5,7 7,12 2,4 2,9 2,15zm-10 0c0,-4 0,-9 -1,-12 -1,-4 -3,-7 -5,-9 -2,-2 -5,-4 -8,-5 -3,-1 -6,-2 -10,-2l-10 0 0 58 8 0c9,0 15,-3 20,-8 4,-5 6,-12 6,-22z"/>
 </g>
</svg>
