<?xml version="1.0" encoding="UTF-8"?>
<!DOCTYPE svg PUBLIC "-//W3C//DTD SVG 1.1//EN" "http://www.w3.org/Graphics/SVG/1.1/DTD/svg11.dtd">
<!-- Creator: CorelDRAW Home & Student 2014 -->
<svg xmlns="http://www.w3.org/2000/svg" xml:space="preserve" width="49.9554mm" height="71.9615mm" version="1.1" shape-rendering="geometricPrecision" text-rendering="geometricPrecision" image-rendering="optimizeQuality" fill-rule="evenodd" clip-rule="evenodd"
viewBox="0 0 1819 2620"
 xmlns:xlink="http://www.w3.org/1999/xlink">
 <g id="Layer_x0020_1">
  <metadata id="CorelCorpID_0Corel-Layer"/>
  <g id="breadboard">
   <rect fill="#00A63D" y="313" width="1819" height="1989" rx="48" ry="48"/>
   <circle id="hole_6_" fill="white" stroke="#47CC79" stroke-width="18.204" cx="125" cy="475" r="61"/>
   <path id="text_7_" fill="white" fill-rule="nonzero" d="M228 425c-2,1 -4,2 -6,4 -1,0 -2,2 -6,7 -3,4 -5,7 -6,7 -1,2 -2,4 -2,7 0,1 0,21 0,22 0,4 2,7 5,9 1,0 3,1 4,1 1,0 1,0 9,0 8,0 8,0 9,0 3,0 7,-3 8,-6 1,-1 1,-2 1,-4 0,0 0,-1 0,-8l0 -8 -7 0c-8,0 -8,0 -9,0 0,1 0,1 -1,1 0,1 -1,1 -1,2 0,1 0,1 0,2 0,1 1,1 1,1 1,1 1,1 1,1 1,1 1,1 5,1l4 0 0 4c0,4 0,4 0,5 -1,0 -1,1 -2,1 -1,1 0,1 -9,1 -9,0 -8,0 -9,-1 -1,0 -1,-1 -2,-2 0,0 0,-1 0,-11l0 -11 0 0c1,-1 1,-2 2,-3 0,0 2,-3 5,-7 6,-7 5,-7 6,-7 1,0 0,0 7,0 7,0 6,0 7,-1 1,0 2,-2 2,-3 0,-2 -1,-3 -3,-4 0,0 -1,0 -6,0 -6,0 -6,0 -7,0l0 0z"/>
   <path id="1" fill="white" fill-rule="nonzero" d="M263 452c0,29 0,27 0,28 0,0 1,1 1,1 1,1 1,1 2,1 0,0 1,0 2,0 1,-1 2,-1 2,-3 0,0 0,-1 0,-20l0 -21 10 22 10 22 5 0 4 0 0 -27c0,-26 0,-27 0,-27 0,-1 -1,-2 -2,-2 -1,-1 -2,-1 -2,-1 -1,1 -1,1 -2,1 0,1 -1,1 -1,2 0,0 0,2 0,21l0 20 -9 -21 -10 -22 0 -1 -5 0 -5 0 0 27z"/>
   <path id="2" fill="white" fill-rule="nonzero" d="M321 425c-1,0 -2,1 -3,2 0,1 0,2 0,3 1,1 2,2 3,2 0,1 0,1 2,1l2 0 0 21 0 21 -2 0c-2,0 -2,0 -2,0 -2,0 -3,2 -3,4 0,1 1,3 3,3l0 0 8 0c7,0 7,0 8,0 2,0 4,-1 5,-2 1,-1 2,-2 3,-3 0,0 2,-4 4,-8 5,-9 5,-9 5,-11 0,-2 1,-3 1,-4 0,-2 -1,-3 -1,-4 0,-2 0,-2 -5,-11 -2,-5 -4,-8 -4,-9 -2,-2 -5,-4 -8,-5 -1,0 -2,0 -8,0 -4,0 -8,0 -8,0l0 0zm15 8c1,0 2,0 2,1 1,0 1,1 7,13 1,3 1,3 2,4 0,1 0,2 0,3 0,1 0,2 0,3 -1,0 -1,1 -2,4 -6,11 -6,12 -7,12 0,1 -1,1 -1,1 -1,1 -1,1 -3,1l-1 0 0 -21 0 -21 1 0c2,0 2,0 2,0z"/>
   <path id="text_6_" fill="white" fill-rule="nonzero" d="M120 1213c-2,1 -5,2 -6,4 -2,4 -2,8 0,11 0,0 7,9 15,20 9,11 16,20 16,20 0,1 0,1 -1,1l0 0 -11 0 -10 0 -1 0c0,0 -1,-1 -1,-1 0,-1 -1,-1 -1,-1 0,-2 0,-3 -1,-3 -1,-1 -2,-2 -3,-2 0,0 0,1 -1,1 -1,0 -1,0 -2,1 -1,1 -1,2 -1,4 0,2 1,5 3,6 2,2 4,3 7,4 1,0 2,0 12,0 12,0 11,0 12,0 5,-2 8,-6 7,-11 0,-1 0,-3 -1,-4 0,0 -7,-9 -16,-20 -8,-11 -15,-20 -15,-20 -1,0 -1,-1 0,-1l0 0 11 0 11 0 0 0c1,0 1,1 2,1 0,1 0,1 0,1 0,2 0,3 1,3 1,1 1,1 2,1 0,1 1,1 1,1 1,0 2,-1 3,-2 1,-1 1,-2 1,-4 0,-2 -1,-5 -3,-6 -2,-2 -4,-3 -7,-4 0,0 -2,0 -11,0 -9,0 -11,0 -12,0l0 0z"/>
   <path id="1" fill="white" fill-rule="nonzero" d="M189 1231c-3,0 -5,1 -7,3 -1,1 -4,3 -4,3 -2,2 -3,5 -3,7 0,1 0,1 0,10 0,8 0,10 0,10 0,3 1,5 3,7 0,1 4,4 4,4 2,2 4,3 7,3 1,0 23,0 23,0 2,-1 4,-2 4,-4 0,-2 -1,-4 -3,-4 -1,-1 0,0 -12,-1l-12 0 0 0c-1,0 -1,0 -3,-2 -2,-1 -2,-2 -3,-2 0,-1 0,-1 0,-3l0 -2 15 0c14,0 14,0 15,0 0,0 1,0 1,-1 1,0 1,-1 1,-1 1,-1 1,0 1,-7 0,-6 0,-6 0,-8 -1,-2 -2,-4 -4,-6 0,0 -2,-2 -4,-3 -1,-2 -3,-3 -5,-3 -1,0 -1,0 -8,0 -4,0 -6,0 -6,0zm12 8c1,1 2,1 3,2 1,1 2,2 2,2 1,0 1,1 1,1 0,1 0,1 0,4l0 4 -12 0 -12 0 0 -4 0 -3 0 0c0,-1 1,-1 1,-2 0,0 1,-1 2,-2 2,-1 2,-1 3,-2 0,0 0,0 6,0l6 0 0 0z"/>
   <path id="2" fill="white" fill-rule="nonzero" d="M240 1231c0,0 -1,0 -2,1 0,1 -1,1 -1,2 0,1 0,40 0,40 0,1 1,2 1,3 1,0 1,0 2,1 1,0 2,0 3,-1 1,0 2,-1 2,-1 0,-1 0,0 0,-13l0 -12 7 -6 7 -6 4 0c4,0 4,0 5,1 0,0 1,0 1,1 0,0 1,0 1,1l0 0 0 2c0,2 0,2 0,3 1,1 2,3 4,3 2,0 4,-2 4,-4 0,0 0,-3 0,-4 0,-5 -4,-10 -9,-11 -2,0 -2,0 -7,0 -5,0 -5,0 -5,0 -1,0 -1,0 -2,0 0,1 -2,3 -5,5 -2,2 -5,4 -5,4 0,0 0,-1 0,-3 0,-3 0,-3 0,-3 0,-1 0,-1 0,-1 0,-1 -1,-1 -2,-2 -1,0 -2,0 -3,0l0 0z"/>
   <path id="3" fill="white" fill-rule="nonzero" d="M303 1231c-1,0 -2,0 -2,1 -1,1 -1,1 -1,2 0,0 0,0 0,5 0,4 0,4 0,5 1,1 14,32 14,32 0,0 1,1 1,1 1,0 1,1 2,1 0,0 6,0 6,0 1,0 1,-1 2,-1 0,0 1,-1 1,-1 0,0 14,-31 14,-32 1,-1 1,-1 1,-5 0,-5 0,-5 -1,-5 0,-1 0,-1 0,-2 -1,-1 -1,-1 -2,-1 -1,0 -2,0 -3,0 0,0 -1,0 -1,1 -1,1 -1,1 -1,2 -1,0 -1,0 -1,4l0 3 -6 14c-3,8 -6,14 -6,14 0,0 -3,-6 -6,-14l-6 -14 0 -3c0,-4 0,-4 0,-4 0,-1 -1,-1 -1,-1 0,-1 -1,-1 -1,-2 -1,0 -2,0 -3,0l0 0z"/>
   <path id="4" fill="white" fill-rule="nonzero" d="M376 1231c-2,0 -4,1 -6,2 -1,1 -4,4 -5,4 -1,2 -3,5 -3,7 0,1 0,1 0,10 0,8 0,10 0,10 0,3 2,5 3,7 1,1 4,4 5,4 1,1 3,2 5,3 1,0 1,0 8,0 6,0 6,0 7,0 2,-1 4,-2 6,-3 1,-1 3,-3 4,-3 2,-2 3,-5 3,-8 0,0 0,-1 0,-10 0,-7 0,-9 0,-10 0,-2 -1,-5 -3,-7 -1,0 -3,-2 -4,-4 -1,0 -3,-1 -4,-1 -1,-1 -2,-1 -2,-1 -1,0 -1,0 -7,0 -5,0 -7,0 -7,0zm13 8c0,0 1,1 1,1 1,0 4,3 4,3 0,1 1,1 1,2 0,0 0,1 0,9l0 10 0 0c-1,1 -1,1 -3,3 -2,2 -2,2 -2,2 -1,0 -1,0 -7,0 -7,0 -7,0 -7,0 -1,0 -1,0 -3,-2 -2,-1 -2,-2 -2,-2 -1,-1 -1,0 -1,-11l0 -9 1 0c0,-1 0,-2 2,-3l2 -2c0,0 1,0 1,-1 1,0 1,0 7,0 5,0 6,0 6,0l0 0z"/>
   <path id="5" fill="white" fill-rule="nonzero" d="M495 1213c-3,1 -5,2 -6,4 -3,4 -3,8 -1,11 1,0 8,9 16,20 9,11 16,20 16,20 0,1 0,1 -1,1l0 0 -11 0 -10 0 -1 0c-1,0 -1,-1 -1,-1 -1,-1 -1,-1 -1,-1 0,-2 0,-3 -1,-3 -1,-1 -2,-2 -3,-2 0,0 -1,1 -1,1 -1,0 -1,0 -2,1 -1,1 -1,2 -1,4 0,2 1,5 3,6 2,2 4,3 7,4 0,0 2,0 11,0 12,0 12,0 13,0 5,-2 8,-6 7,-11 0,-1 -1,-3 -1,-4 0,0 -8,-9 -16,-20 -9,-11 -16,-20 -16,-20 0,0 0,-1 1,-1l0 0 11 0 11 0 0 0c1,0 1,1 2,1 0,1 0,1 0,1 0,2 0,3 1,3 1,1 1,1 2,1 0,1 1,1 1,1 1,0 2,-1 3,-2 1,-1 1,-2 1,-4 0,-2 -1,-5 -3,-6 -2,-2 -4,-3 -7,-4 0,0 -2,0 -11,0 -9,0 -11,0 -12,0l0 0z"/>
   <path id="6" fill="white" fill-rule="nonzero" d="M557 1231c-2,0 -3,1 -3,3 -1,2 0,4 3,5l0 0 4 0 5 0 0 15 0 15 -5 0 -4 1 0 0c-2,0 -3,2 -3,4 0,2 1,3 3,4l0 0 13 0 13 0 0 0c2,-1 3,-1 3,-2 0,-1 1,-1 1,-2 0,-1 -1,-2 -1,-2 0,-1 -1,-2 -3,-2l0 0 -4 -1 -5 0 0 -17c0,-17 0,-18 0,-18 0,-1 0,-1 -1,-2 0,0 -1,0 -1,-1 -1,0 0,0 -8,0 -4,0 -7,0 -7,0l0 0zm8 -21c-1,0 -1,0 -2,1 -1,0 -1,1 -1,1 0,1 0,1 0,4 0,2 0,2 0,3 0,0 0,1 1,1 1,1 1,1 2,1 0,1 1,1 3,1 3,0 3,0 4,-1 1,0 1,-1 2,-2 0,-1 0,-1 0,-3 0,-3 0,-3 0,-4 -1,-1 -1,-1 -2,-2 -1,0 -1,0 -4,0 -2,0 -3,0 -3,0z"/>
   <path id="7" fill="white" fill-rule="nonzero" d="M616 1231c-1,0 -2,1 -3,2 0,1 0,1 0,2 0,0 0,1 0,2 0,0 2,3 7,9 4,4 7,8 7,8 0,0 -3,4 -7,8 -4,5 -7,9 -7,9 -1,1 -1,3 -1,4 1,3 5,4 7,2 0,0 3,-4 7,-8l6 -8 1 -1 6 8c4,5 7,8 7,8 1,2 4,2 6,1 1,-2 2,-4 0,-6 0,0 -3,-4 -7,-9 -4,-4 -7,-8 -7,-8 0,0 3,-4 7,-8 5,-6 7,-9 7,-9 0,-1 0,-2 0,-2 0,-3 -3,-5 -6,-4 0,0 -1,1 -1,1 0,0 -3,4 -6,8 -4,4 -6,7 -6,7 0,0 -1,0 -7,-7 -3,-4 -6,-8 -6,-8 0,0 -1,-1 -2,-1 0,0 -1,0 -2,0l0 0z"/>
   <path id="8" fill="white" fill-rule="nonzero" d="M737 1246l0 32 13 0c13,0 13,0 14,0 3,-1 6,-2 8,-4 1,0 2,-2 2,-2 2,-3 4,-6 4,-9 0,0 0,-1 0,-3 0,-3 0,-3 0,-4 0,-3 -1,-5 -3,-7 0,-1 -1,-2 -2,-3l0 0 0 -1c3,-3 5,-6 5,-10 0,-1 0,-6 0,-7 0,-2 -1,-5 -3,-7 0,-1 -1,-2 -2,-3 -2,-2 -5,-4 -9,-5l-1 0 -13 0 -13 0 0 33zm26 -24c1,0 1,0 2,0 3,2 4,4 5,6 0,1 0,1 0,3 0,2 0,3 0,4 -1,3 -4,5 -7,6l-1 0 -8 0 -9 0 0 -10 0 -9 9 0 8 0 1 0zm0 28c1,0 1,0 2,1 3,1 4,3 5,6 0,0 0,0 0,3 0,2 0,2 0,3 -1,1 -1,1 -1,2 -1,2 -3,4 -6,4l-1 0 -8 0 -9 0 0 -9 0 -10 9 0 8 0 1 0z"/>
   <path id="9" fill="white" fill-rule="nonzero" d="M813 1231c-2,0 -4,1 -6,2 0,1 -4,4 -4,4 -2,2 -3,5 -4,7 0,1 0,1 0,10 0,8 0,10 0,10 1,3 2,5 4,7 0,1 3,4 4,4 2,1 3,2 5,3 2,0 2,0 8,0 6,0 7,0 8,0 2,-1 4,-2 5,-3 1,-1 4,-3 4,-3 2,-2 3,-5 4,-8 0,0 0,-1 0,-10 0,-7 0,-9 0,-10 -1,-2 -2,-5 -4,-7 0,0 -3,-2 -4,-4 -1,0 -2,-1 -4,-1 0,-1 -1,-1 -2,-1 0,0 -1,0 -7,0 -5,0 -6,0 -7,0zm13 8c1,0 1,1 1,1 1,0 4,3 4,3 1,1 1,1 1,2 0,0 0,1 0,9l0 10 0 0c0,1 0,1 -3,3 -1,2 -2,2 -2,2 -1,0 0,0 -7,0 -7,0 -6,0 -7,0 0,0 -1,0 -2,-2 -2,-1 -2,-2 -3,-2 0,-1 0,0 0,-11l0 -9 0 0c0,-1 1,-2 2,-3l2 -2c1,0 1,0 1,-1 1,0 1,0 7,0 6,0 6,0 6,0l0 0z"/>
   <path id="10" fill="white" fill-rule="nonzero" d="M874 1231c-1,0 -2,1 -3,1 0,1 -1,1 -1,2 0,0 0,0 0,1 0,1 0,1 0,1 1,1 1,2 2,3 1,0 0,0 10,0l8 0 1 0c1,1 2,2 3,3 0,1 0,2 0,4 0,2 0,3 0,3 0,0 0,0 -1,0 0,0 0,0 -1,0l-1 -1 -9 0 -9 0 -1 1c-2,0 -5,1 -7,3 -2,2 -3,5 -3,7 0,1 0,1 0,4 0,3 0,3 0,4 0,3 1,5 3,7 2,2 4,3 6,3 2,1 1,1 9,1 7,0 7,0 8,0 0,0 1,-1 4,-2 1,-1 3,-2 3,-2 0,0 0,0 0,0 0,0 0,0 0,1 1,3 4,4 7,2 0,-1 1,-2 1,-3 0,0 0,-2 0,-5l-1 -16c0,-6 0,-11 0,-11 -1,-5 -4,-10 -9,-11 -2,0 -1,0 -11,0 -4,0 -8,0 -8,0l0 0zm17 26c1,0 1,0 2,1 0,0 1,1 1,2 0,0 0,0 0,2 0,1 0,2 0,2 0,0 -2,1 -4,3l-5 2 -6 0c-5,0 -6,0 -6,0 -1,0 -2,-1 -3,-2l0 -1 0 -3 0 -3 0 0c1,-2 2,-3 3,-3 0,0 0,0 1,0 0,0 4,0 8,0l9 0 0 0z"/>
   <path id="11" fill="white" fill-rule="nonzero" d="M928 1231c-1,0 -2,0 -2,1 -1,1 -1,1 -2,2 0,1 0,40 0,40 1,1 1,2 2,3 0,0 1,0 1,1 1,0 2,0 3,-1 1,0 2,-1 2,-1 1,-1 1,0 1,-13l0 -12 7 -6 6 -6 4 0c4,0 4,0 5,1 1,0 1,0 1,1 1,0 1,0 1,1l0 0 0 2c0,2 0,2 0,3 1,1 3,3 4,3 2,0 4,-2 5,-4 0,0 0,-3 0,-4 -1,-5 -5,-10 -10,-11 -1,0 -1,0 -7,0 -4,0 -5,0 -5,0 -1,0 -1,0 -1,0 -1,1 -3,3 -5,5 -3,2 -5,4 -5,4 0,0 0,-1 0,-3 0,-3 0,-3 -1,-3 0,-1 0,-1 0,-1 0,-1 -1,-1 -1,-2 -1,0 -2,0 -3,0l0 0z"/>
   <path id="12" fill="white" fill-rule="nonzero" d="M1023 1213c-1,0 -1,1 -2,1 -1,1 -1,2 -1,2 0,1 0,2 0,11l0 9 -2 -1c-1,-1 -2,-1 -2,-2 -2,-1 -4,-2 -6,-2 -1,0 -1,0 -5,0 -4,0 -4,0 -5,0 -2,0 -4,1 -5,2 -1,1 -4,4 -5,4 -2,2 -3,5 -3,7 0,1 0,19 0,20 0,3 1,5 3,7 1,1 4,4 5,4 1,2 4,3 6,3 1,0 8,0 9,0 2,-1 4,-1 6,-3 0,0 1,-1 2,-1 1,-1 2,-2 2,-2 0,0 0,1 0,1 0,2 0,3 1,4 1,0 1,0 2,1 1,0 2,0 3,-1 1,0 1,-1 2,-1 0,-1 0,-1 0,-1 0,-1 0,-2 0,-29 0,-28 0,-29 0,-30 0,0 -1,-1 -1,-2 -1,0 -2,-1 -2,-1 0,0 -1,0 -2,0zm-14 26c1,0 1,1 2,1 0,0 7,6 8,7 0,0 0,1 1,1l0 1 0 5 0 6 0 1c-1,1 -1,1 -3,2l-3 3c-3,3 -3,3 -4,3 -1,0 0,0 -5,0l-3 0 -1 0c-1,0 -1,0 -3,-2 -2,-1 -2,-2 -2,-2 -1,-1 -1,0 -1,-11 0,-10 0,-9 1,-10 0,-1 0,-1 2,-3 2,-1 3,-2 3,-2 1,0 8,0 8,0l0 0z"/>
   <path id="text" fill="white" fill-rule="nonzero" d="M227 1921c-2,0 -3,2 -4,3 -1,2 -1,4 0,5 1,2 2,3 4,4l0 0 10 0 9 0 0 34 0 34 -9 0 -10 0 0 0c-3,1 -5,3 -5,6 0,3 2,5 5,6l0 0 25 0c23,0 24,0 25,0 0,0 1,-1 1,-1 1,0 2,-1 3,-2 0,-2 0,0 0,-18 0,-11 0,-16 0,-16 0,-1 0,-2 -1,-2 0,-1 -1,-2 -2,-2 -1,-1 -2,-1 -3,-1 -1,0 -2,0 -3,1 0,0 -2,1 -2,2 0,0 0,1 0,1 -1,1 -1,0 -1,14l0 12 -5 0 -6 0 0 -40 0 -40 -15 0c-8,0 -15,0 -16,0l0 0z"/>
   <circle id="hole_6__0" fill="white" stroke="#47CC79" stroke-width="18.204" cx="1699" cy="468" r="61"/>
   <circle id="hole_6__1" fill="white" stroke="#47CC79" stroke-width="18.204" cx="125" cy="1644" r="61"/>
   <circle id="hole_6__2" fill="white" stroke="#47CC79" stroke-width="18.204" cx="1698" cy="1638" r="61"/>
   <rect fill="#47CC79" x="1206" y="373" width="384" height="252"/>
   <rect fill="#00A63D" x="1206" y="386" width="384" height="169"/>
   <rect fill="black" x="376" y="321" width="91.0215" height="163.837" rx="7" ry="23"/>
   <path id="text_7__3" fill="white" fill-rule="nonzero" d="M505 515c-2,0 -3,1 -3,2 -1,1 -1,2 0,3 0,1 1,2 2,2l0 1 6 0 6 0 0 22 0 21 -6 0 -6 0 0 1c-2,0 -3,2 -3,3 0,2 1,3 3,4l1 0 15 0c15,0 16,0 16,0 0,0 1,0 1,0 1,-1 1,-1 2,-2 0,-1 0,0 0,-11 0,-8 0,-10 0,-11 0,0 0,-1 0,-1 -1,0 -1,-1 -2,-1 0,-1 -1,-1 -2,-1 -1,0 -1,0 -2,1 0,0 -1,1 -1,1 0,0 0,0 0,1 -1,0 -1,0 -1,9l0 7 -3 0 -4 0 0 -25 0 -26 -10 0c-5,0 -9,0 -9,0l0 0z"/>
   <path id="text_7__4" fill="white" fill-rule="nonzero" d="M604 515c-1,0 -2,1 -3,2 0,1 0,2 0,3 1,1 1,2 3,2l0 1 13 0 14 0 0 9 0 9 -11 0c-8,0 -12,0 -12,0 -2,0 -4,1 -5,2 -1,1 -2,2 -2,4l0 0 0 14 0 13 17 0c14,0 17,0 17,0 2,0 3,-2 3,-4 0,-2 -1,-3 -3,-3 0,-1 -2,-1 -13,-1l-14 0 0 -9c0,-5 0,-9 0,-9 0,0 6,0 12,0l12 0 1 0c1,0 2,-1 3,-2 1,-1 2,-3 2,-4 1,-1 1,-20 0,-20 0,-4 -2,-6 -5,-7 -1,0 -1,0 -15,0 -8,0 -14,0 -14,0l0 0z"/>
   <path id="text_7__5" fill="white" fill-rule="nonzero" d="M685 515c-1,0 -2,1 -3,2 0,1 0,2 0,3 1,1 2,2 3,2l0 1 14 0 13 0 0 7c0,7 0,7 0,8 0,1 -1,2 -3,2l0 1 -8 0c-9,0 -9,0 -9,0 -1,1 -2,1 -2,2 -1,1 -1,1 -1,1 0,1 0,1 1,2 0,1 1,1 2,2 0,0 0,0 9,0 9,0 8,0 9,1 1,0 1,1 2,2 0,0 0,0 0,8l0 7 -13 0 -14 0 0 1c-2,0 -3,2 -3,3 0,2 1,3 3,4l0 0 14 0c10,0 14,0 14,0 2,0 4,-1 5,-3 1,-1 1,-2 2,-3l0 -1 0 -8 0 -8 0 -1c-1,0 -1,-1 -1,-2 0,-1 -1,-2 -2,-3 0,0 0,-1 0,-1l0 0c2,-2 2,-4 3,-6 0,-1 0,-16 0,-16 -1,-4 -3,-6 -6,-7 -1,0 0,0 -15,0 -8,0 -14,0 -14,0l0 0z"/>
   <path id="text_7__6" fill="white" fill-rule="nonzero" d="M786 515c-1,0 -1,0 -2,1 0,1 0,1 -1,1 0,1 0,0 0,20l0 18 11 0 12 0 0 8c0,8 0,8 0,9 0,0 0,0 1,1 0,0 1,1 1,1 1,0 2,0 3,0 1,-1 2,-1 2,-2 0,-1 0,0 0,-9l0 -8 1 0c1,0 2,-1 3,-2 0,-1 0,-3 0,-4 -1,-1 -2,-2 -3,-2l-1 0 0 -11 0 -11 0 -1c0,-1 -1,-2 -2,-2 0,-1 -1,-1 -1,-1 -1,0 -1,0 -1,0 -2,1 -3,2 -3,3l0 1 0 11 0 11 -8 0 -7 0 0 -14c0,-14 0,-15 0,-15 0,-1 -1,-2 -2,-2 0,-1 -1,-1 -1,-1 0,0 -1,0 -2,0l0 0z"/>
   <path id="text_7__7" fill="white" fill-rule="nonzero" d="M870 532l0 16 11 0 12 0 0 9 0 9 -9 0c-9,0 -9,0 -10,0 0,0 -1,0 -3,-1 -2,-1 -3,-2 -4,-2 -1,0 -3,1 -4,2 -1,1 -1,3 0,4 0,0 1,1 1,1 1,1 7,3 8,4 0,0 1,0 2,0 1,0 1,0 10,0 10,0 10,0 10,0 2,-1 3,-1 5,-3 0,-1 1,-2 1,-3l0 -1 0 -9c0,-7 0,-10 0,-11 0,-3 -2,-5 -6,-6 0,0 0,0 -9,0l-7 0 0 -9 0 -9 9 0c8,0 10,0 10,-1 2,0 3,-1 3,-3 0,-2 -1,-4 -3,-4 0,0 -2,0 -14,0l-13 0 0 17z"/>
   <path id="text_7__8" fill="white" fill-rule="nonzero" d="M965 515c-1,0 -1,0 -2,1 -1,1 -1,1 -1,2 0,1 0,52 0,53 0,0 0,1 0,1 1,1 1,1 2,2 0,0 1,0 1,0 0,0 4,0 16,0 15,0 16,0 16,0 0,0 1,0 1,-1 1,0 1,-1 1,-1 1,-1 1,0 1,-11 0,-12 0,-11 -1,-12 0,0 0,-1 -1,-1 0,0 -1,-1 -1,-1 0,0 -1,0 -14,0l-13 0 0 -12 0 -12 0 0c2,-1 3,-2 3,-4 0,-1 0,-2 -1,-3 0,-1 -1,-1 -2,-1 0,0 -5,0 -5,0l0 0zm27 46l0 5 -11 0 -11 0 0 -5 0 -6 11 0 11 0 0 6z"/>
   <path id="text_7__9" fill="white" fill-rule="nonzero" d="M384 517c-3,1 -6,3 -8,5 0,1 -8,16 -8,17 -1,1 -1,3 -1,5 -1,1 -1,3 0,4 0,1 0,3 1,4 0,1 8,16 8,17 2,3 5,5 8,5 1,0 15,0 16,0 2,0 3,-2 3,-4 0,-1 -1,-2 -2,-3 -1,0 -1,0 -9,0 -7,0 -7,0 -7,0 -1,-1 -2,-1 -2,-2 -1,0 -1,-1 -3,-4 -2,-5 -5,-11 -6,-12 0,0 0,-1 0,-2 0,-1 0,-2 0,-3 0,0 0,-1 0,-2 1,0 4,-6 6,-12 2,-3 2,-4 3,-4 0,-1 1,-1 2,-1 0,0 0,0 7,-1 8,0 8,0 9,0 1,0 2,-2 2,-3 0,-2 -1,-3 -3,-4 -1,0 -2,0 -8,0 -7,0 -7,0 -8,0z"/>
   <path id="1" fill="white" fill-rule="nonzero" d="M425 517c-1,0 -2,1 -2,1 -1,1 -1,1 -1,2 -1,1 -1,51 0,51 0,1 0,1 1,2 0,0 0,1 1,1 1,0 2,0 3,0 1,-1 1,-1 1,-2 1,-1 1,1 1,-13l0 -11 5 -4c3,-2 6,-4 6,-4 1,0 1,0 4,0l3 0 0 0c1,1 2,2 2,3 1,0 1,3 1,14 0,13 1,14 1,14 0,2 1,3 3,3 2,0 3,-1 4,-3 0,0 0,0 0,-1 0,-1 -1,-27 -1,-28 0,-2 -1,-4 -3,-6 -2,-2 -4,-3 -6,-3 -1,0 -6,0 -7,0 -2,0 -3,0 -4,1 -1,0 -2,1 -4,2l-4 3 0 -10c0,-10 0,-9 -1,-10 0,-1 0,-1 -1,-1 0,-1 -1,-1 -1,-1 0,0 -1,0 -1,0l0 0z"/>
   <path id="text_10" fill="white" fill-rule="nonzero" d="M492 1921c-2,0 -4,2 -5,3 0,2 0,4 0,5 1,2 2,3 4,4l1 0 21 0 21 0 0 14 0 14 -18 0c-11,0 -18,0 -18,0 -3,0 -6,1 -8,3 -1,2 -2,4 -3,7l0 0 0 21 0 21 26 0c23,0 27,0 28,0 2,-1 5,-3 5,-6 0,-3 -3,-5 -5,-6 -1,0 -4,0 -22,0l-20 0 0 -14c0,-8 0,-14 0,-14 0,0 8,0 18,0l18 0 1 0c2,-1 4,-2 6,-4 2,-1 3,-4 3,-7 1,-1 1,-30 0,-31 0,-5 -4,-9 -8,-10 -2,0 -1,0 -24,0 -11,0 -21,0 -21,0l0 0z"/>
   <path id="text_11" fill="white" fill-rule="nonzero" d="M771 1918c-2,0 -4,2 -5,3 0,2 0,4 0,5 1,2 2,3 4,4l1 0 21 0 21 0 0 11c0,11 0,12 0,12 -1,3 -2,4 -5,5l0 0 -13 0c-14,0 -13,0 -14,1 -2,0 -3,2 -3,3 0,1 0,1 0,2 0,1 0,1 0,2 0,1 1,2 3,3 1,1 0,1 14,1 14,0 13,0 14,0 2,1 3,2 3,3 1,2 1,0 1,13l0 12 -21 0 -21 0 -1 0c-2,1 -4,3 -4,6 0,3 2,5 4,6l1 0 21 0c15,0 22,0 22,0 3,0 6,-2 8,-4 1,-2 2,-4 2,-6l1 0 0 -13 0 -13 -1 -1c0,-1 0,-2 0,-3 -1,-2 -2,-4 -3,-6 -1,0 -1,0 -1,0l1 -1c2,-2 3,-6 4,-9 0,-1 0,-25 0,-26 -1,-5 -5,-9 -9,-10 -2,0 -1,0 -24,0 -11,0 -21,0 -21,0l0 0z"/>
   <path id="text_12" fill="white" fill-rule="nonzero" d="M1056 1918c-1,0 -2,1 -3,2 -1,0 -1,1 -1,2 -1,1 -1,-1 -1,30l0 28 18 0 17 0 0 12c0,13 0,13 1,14 0,1 1,1 1,2 1,1 2,1 2,2 2,0 4,0 5,-1 1,0 2,-1 3,-2 0,-2 0,0 0,-15l0 -12 1 0c2,0 4,-2 5,-4 0,-1 0,-3 0,-5 -1,-1 -3,-3 -5,-3l-1 0 0 -18 0 -17 0 -1c0,-1 -1,-3 -3,-3 -1,-1 -1,-1 -2,-1 -1,0 -1,0 -2,0 -2,1 -4,2 -4,4l0 1 -1 17 0 18 -11 0 -12 0 0 -23c0,-21 0,-22 0,-23 0,-1 -1,-2 -2,-3 0,0 -1,-1 -2,-1 -1,0 -2,0 -3,0l0 0z"/>
   <path id="text_13" fill="white" fill-rule="nonzero" d="M1322 1946l0 26 17 0 18 0 0 14 0 14 -14 0c-13,0 -14,0 -14,0 -1,0 -3,-1 -6,-2 -2,-1 -5,-2 -5,-2 -3,-1 -6,0 -7,3 -1,1 -1,3 0,5 0,1 1,2 2,2 0,1 11,5 11,5 2,1 3,1 4,1 1,0 2,0 15,0 16,0 15,0 17,0 2,-1 4,-2 6,-4 1,-2 2,-3 3,-5l0 -1 0 -15c0,-11 0,-16 0,-16 -1,-5 -4,-9 -9,-10 -2,-1 -1,-1 -14,-1l-12 0 0 -14 0 -14 14 0c13,0 15,0 16,0 3,-1 5,-3 5,-6 0,-3 -2,-5 -5,-6 -1,0 -4,0 -21,0l-21 0 0 26z"/>
   <path id="text_14" fill="white" fill-rule="nonzero" d="M1597 1918c-1,0 -2,0 -3,1 -1,1 -1,2 -1,3 0,1 0,82 0,83 0,0 0,1 0,2 1,0 2,1 3,2 0,0 1,0 2,0 0,1 6,1 24,1 23,0 25,0 25,-1 1,0 2,0 2,-1 1,0 1,-1 2,-2 0,-1 0,1 0,-17 0,-19 0,-17 0,-18 -1,-1 -1,-2 -2,-2 0,-1 -1,-1 -2,-1 0,0 -2,0 -21,0l-21 0 0 -20 0 -19 0 0c3,0 5,-3 5,-6 0,-1 0,-3 -1,-4 -1,-1 -2,-1 -4,-1 0,-1 -7,-1 -8,0l0 0zm42 71l0 9 -17 0 -17 0 0 -9 0 -10 17 0 17 0 0 10z"/>
   <line fill="none" stroke="white" stroke-width="18.204" x1="374" y1="1953" x2="374" y2= "2301" />
   <line fill="none" stroke="white" stroke-width="18.204" x1="657" y1="1953" x2="657" y2= "2301" />
   <line fill="none" stroke="white" stroke-width="18.204" x1="930" y1="1953" x2="930" y2= "2301" />
   <line fill="none" stroke="white" stroke-width="18.204" x1="1206" y1="1953" x2="1206" y2= "2301" />
   <line fill="none" stroke="white" stroke-width="18.204" x1="1485" y1="1953" x2="1485" y2= "2301" />
   <path id="text_6__15" fill="white" fill-rule="nonzero" d="M114 1332c0,0 -1,0 -1,1 -1,0 -1,1 -1,1 0,1 0,40 0,41 0,1 0,1 1,1 0,1 1,1 1,1 1,0 1,0 2,0 1,0 1,-1 2,-1 0,-1 0,0 0,-10l0 -10 4 -3c3,-1 5,-2 5,-3 0,0 0,0 3,0l2 0 0 0c1,1 2,2 2,3 0,0 0,2 1,11 0,10 0,11 0,11 0,1 1,2 3,2 1,0 2,-1 3,-2 0,0 0,0 0,-1 0,-1 -1,-21 -1,-22 0,-2 -1,-4 -2,-5 -2,-1 -3,-2 -5,-3 -1,0 -5,0 -6,0 -1,1 -2,1 -3,1 0,0 -1,1 -3,2l-3 2 0 -7c0,-8 0,-8 0,-8 -1,-1 -1,-1 -2,-2 0,0 0,0 0,0 -1,0 -1,0 -2,0l0 0z"/>
   <path id="1" fill="white" fill-rule="nonzero" d="M164 1335c-1,0 -2,0 -2,1 -1,1 -1,0 -1,5l0 3 -1 0c-2,0 -2,0 -2,0 -1,1 -2,2 -2,3 0,2 1,3 2,3 0,0 0,0 2,0l1 0 0 10c0,9 0,9 1,10 0,2 1,3 2,5 1,1 3,2 5,2l0 0 4 0c4,0 4,0 5,0 1,0 2,-1 3,-2 2,-1 3,-3 4,-5 0,-2 -1,-3 -3,-3 -1,-1 -2,0 -3,1 0,0 0,0 0,1 0,1 -1,2 -2,2 0,0 0,0 -4,0l-3 0 -1 0c0,0 0,0 -1,0 0,-1 0,-1 -1,-2l0 0 0 -9 0 -10 6 0 6 0 1 0c0,0 1,-1 1,-1 1,-1 1,-1 1,-2 0,0 0,-1 -1,-1 0,-1 -1,-1 -1,-2l-1 0 -6 0 -6 0 0 -3c0,-5 0,-4 0,-5 0,0 -1,-1 -1,-1 0,0 -1,0 -1,0 0,0 -1,0 -1,0l0 0z"/>
   <path id="2" fill="white" fill-rule="nonzero" d="M208 1335c-1,0 -2,0 -2,1 -1,1 -1,0 -1,5l0 3 -1 0c-2,0 -2,0 -2,0 -2,1 -3,2 -3,3 0,2 1,3 3,3 0,0 0,0 2,0l1 0 0 10c0,9 0,9 0,10 1,2 1,3 3,5 1,1 3,2 4,2l1 0 4 0c3,0 3,0 4,0 2,0 3,-1 4,-2 2,-1 3,-3 3,-5 1,-2 -1,-3 -2,-3 -1,-1 -2,0 -3,1 0,0 0,0 -1,1 0,1 0,2 -1,2 -1,0 0,0 -4,0l-4 0 0 0c0,0 -1,0 -1,0 0,-1 -1,-1 -1,-2l0 0 0 -9 0 -10 6 0 6 0 0 0c1,0 2,-1 2,-1 0,-1 0,-1 0,-2 0,0 0,-1 0,-1 0,-1 -1,-1 -2,-2l0 0 -6 0 -6 0 0 -3c0,-5 0,-4 0,-5 -1,0 -1,-1 -2,-1 0,0 0,0 0,0 0,0 -1,0 -1,0l0 0z"/>
   <path id="3" fill="white" fill-rule="nonzero" d="M245 1343c-1,0 -1,1 -2,2l0 1 0 20c0,20 0,21 0,21 0,1 0,1 1,1 0,1 0,1 1,1 0,1 1,1 1,1 1,0 1,0 1,-1 1,0 1,0 2,-1 0,-1 0,0 0,-7l0 -7 1 1c1,1 2,2 2,2 1,1 3,1 4,1 1,1 3,1 3,0 2,0 4,0 5,-1 1,-1 5,-5 6,-6 1,-1 2,-2 2,-4l0 -1 0 -5c0,-5 0,-6 0,-6 0,-2 -1,-4 -2,-5 -1,0 -2,-1 -5,-4 -1,-1 -1,-1 -2,-1 -1,-1 -2,-2 -3,-2 -1,0 -3,0 -4,0 -1,0 -3,1 -4,2 0,0 -1,1 -2,1l-1 2 0 -1c0,-1 0,-1 0,-2 0,-1 -1,-2 -2,-2 -1,0 -1,0 -2,0l0 0zm14 6c0,0 1,0 1,1 0,0 6,4 6,4 0,1 0,1 0,1 0,1 0,1 0,6l0 5 0 0c0,1 0,1 0,1 -1,0 -2,2 -3,3 -3,2 -3,2 -4,3 0,0 0,0 -1,0 -1,0 -1,0 -2,0 0,-1 0,-1 -1,-1 0,0 -5,-6 -5,-6 -1,0 -1,-1 -1,-1 0,0 0,-2 0,-4l0 -4 0 -1c0,0 0,0 1,-1 0,0 5,-5 5,-5 1,-1 1,-1 2,-1 0,0 2,0 2,0z"/>
   <path id="4" fill="white" fill-rule="nonzero" d="M298 1359c-1,0 -1,1 -2,1 0,1 0,1 0,2 0,0 0,5 0,6 0,0 0,1 0,1 1,0 1,1 2,1 0,0 0,0 4,0 3,0 3,0 4,0 0,-1 1,-1 1,-2 0,0 0,0 0,-3 0,-4 0,-4 0,-4 0,-1 -1,-1 -1,-2 -1,0 -1,0 -5,0 -2,0 -3,0 -3,0zm0 -20c-1,1 -1,1 -2,1 0,1 0,1 0,2 0,0 0,5 0,6 0,0 0,1 0,1 1,1 1,1 2,1 0,0 0,0 4,0 3,0 3,0 4,0 0,0 1,-1 1,-1 0,-1 0,-1 0,-4 0,-3 0,-3 0,-4 0,-1 -1,-1 -1,-1 -1,-1 -1,-1 -5,-1 -2,0 -3,0 -3,0z"/>
   <path id="5" fill="white" fill-rule="nonzero" d="M356 1332c-1,0 -1,1 -2,1 0,1 -23,40 -23,40 0,1 0,2 0,2 0,1 1,2 2,2 1,0 3,0 3,-1 1,-1 23,-40 23,-40 1,-1 1,-1 0,-2 0,-1 0,-1 -1,-2 0,0 -1,0 -2,0z"/>
   <path id="6" fill="white" fill-rule="nonzero" d="M400 1332c-1,0 -2,1 -2,1 -1,1 -23,40 -23,40 -1,1 -1,2 -1,2 1,1 2,2 3,2 1,0 2,0 3,-1 0,-1 23,-40 23,-40 0,-1 0,-1 0,-2 0,-1 -1,-1 -1,-2 -1,0 -1,0 -2,0z"/>
   <path id="7" fill="white" fill-rule="nonzero" d="M420 1344c-1,1 -1,1 -1,1 -1,1 -1,1 -1,2 0,0 0,27 0,28 0,1 0,1 1,1 0,1 0,1 1,1 0,0 1,0 2,0 0,0 1,0 1,-1 0,0 0,-1 0,-1 1,0 1,-1 1,-11l0 -10 2 -2c1,-1 2,-2 2,-2 0,0 0,0 0,0 1,0 1,0 1,0 0,0 0,1 1,1l0 0 0 12c0,11 0,12 0,12 0,1 0,1 1,2 0,0 0,0 1,0 0,0 1,0 2,0 0,0 1,0 1,-1 0,0 0,-1 0,-1 0,0 0,-1 1,-11l0 -10 1 -2c1,-1 2,-2 2,-2 0,0 1,0 1,0 0,0 0,0 0,0 0,0 1,1 1,1 0,0 0,3 0,12 0,6 1,12 1,12 0,0 0,1 0,1 0,0 1,1 1,1 1,0 1,0 2,0 0,0 0,0 1,0 0,0 1,-1 1,-1 0,-1 0,-1 0,-1 0,-1 0,-24 0,-24 -1,-2 -1,-4 -3,-5 -1,-1 -2,-1 -3,-2 -2,0 -4,1 -5,2 0,0 0,0 -1,1l-1 0 0 0c0,0 -1,-1 -1,-1 -2,-1 -4,-2 -6,-2 -1,1 -2,1 -3,2 0,0 -1,0 -1,0 0,0 0,0 0,0 0,0 0,-1 -1,-1 -1,-1 -1,-1 -2,-1l0 0z"/>
   <path id="8" fill="white" fill-rule="nonzero" d="M472 1344c-2,1 -3,1 -5,2 0,1 -2,3 -3,3 -1,1 -2,3 -2,5 0,0 0,1 0,7 0,5 0,6 0,7 0,2 1,3 2,5 1,0 3,2 3,2 1,1 3,2 4,2 1,0 1,0 5,0 5,0 5,0 6,0 1,0 2,-1 3,-2 1,0 3,-2 3,-2 2,-1 2,-3 3,-5 0,-1 0,-1 0,-7 0,-6 0,-7 0,-7 -1,-2 -1,-4 -3,-5 0,-1 -2,-2 -3,-3 0,0 -1,-1 -2,-1 0,0 -1,0 -2,-1 0,0 -1,0 -5,0 -3,0 -4,0 -4,0zm9 6c0,0 0,1 1,1 0,0 2,2 2,2 1,0 1,1 1,1 0,0 0,1 0,7l0 6 0 1c0,0 -1,1 -2,2 -1,1 -2,1 -2,1 0,0 0,0 -5,0 -4,0 -4,0 -5,0 0,0 0,0 -1,-1 -2,-1 -2,-1 -2,-2 0,-1 0,0 0,-7l0 -7 0 0c0,-1 0,-1 2,-2l1 -1c0,0 0,-1 1,-1 0,0 0,0 4,0 4,0 4,0 5,0l0 0z"/>
   <path id="9" fill="white" fill-rule="nonzero" d="M508 1344c-1,1 -1,1 -1,1 -1,1 -1,1 -1,2 0,0 0,27 0,28 0,1 0,1 1,1 0,1 0,1 1,1 0,0 1,0 2,0 0,0 1,-1 1,-1 0,-1 0,0 0,-10l0 -10 5 -3c2,-1 4,-2 5,-3 0,0 0,0 2,0l3 0 0 0c1,1 2,2 2,3 0,0 0,2 0,11 1,12 1,11 1,12 0,1 1,1 2,1 2,0 3,-1 3,-2 0,0 0,0 0,-1 0,-1 0,-21 0,-22 -1,-2 -1,-4 -3,-5 -1,-1 -3,-2 -5,-3 0,0 -4,0 -5,0 -1,1 -2,1 -3,1 -1,0 -2,1 -4,2l-3 2 0 -1c0,-1 0,-1 0,-2 0,0 0,-1 -1,-1 -1,-1 -1,-1 -2,-1l0 0z"/>
   <path id="10" fill="white" fill-rule="nonzero" d="M552 1332c-1,0 -1,0 -2,1 0,0 0,1 -1,1 0,1 0,40 0,41 1,1 1,1 1,1 1,1 1,1 1,1 1,0 2,0 3,0 0,0 1,-1 1,-1 0,-1 0,-1 0,-6l0 -4 2 -1 1 -2 0 1c0,0 15,13 16,13 1,1 4,0 4,-2 0,0 0,0 0,-1 0,0 0,-1 -1,-2 0,0 -3,-3 -7,-6 -4,-4 -7,-6 -7,-6 0,0 2,-3 5,-5 4,-3 7,-6 7,-6 1,-1 1,-3 -1,-4 0,0 -1,0 -1,-1 0,0 -1,0 -1,0 -1,1 -1,1 -1,1 0,0 -4,3 -8,7l-8 6 0 -12c0,-11 0,-12 0,-12 0,0 0,-1 -1,-1 0,0 -1,-1 -1,-1 0,0 -1,0 -1,0l0 0z"/>
   <path id="11" fill="white" fill-rule="nonzero" d="M595 1344c-1,1 -1,1 -1,1 -1,1 -1,1 -1,2 0,0 0,27 0,28 0,1 0,1 1,1 0,1 0,1 1,1 0,0 1,0 2,0 0,0 1,0 1,-1 0,0 0,-1 0,-1 0,0 0,-1 0,-11l0 -10 3 -2c1,-1 2,-2 2,-2 0,0 0,0 0,0 1,0 1,0 1,0 0,0 0,1 0,1l1 0 0 12c0,11 0,12 0,12 0,1 0,1 1,2 0,0 0,0 1,0 0,0 1,0 2,0 0,0 1,0 1,-1 0,0 0,-1 0,-1 0,0 0,-1 0,-11l0 -10 2 -2c1,-1 2,-2 2,-2 0,0 1,0 1,0 0,0 0,0 0,0 0,0 1,1 1,1 0,0 0,3 0,12 0,6 1,12 1,12 0,0 0,1 0,1 0,0 1,1 1,1 0,0 1,0 2,0 0,0 0,0 1,0 0,0 1,-1 1,-1 0,-1 0,-1 0,-1 0,-1 0,-24 0,-24 -1,-2 -1,-4 -3,-5 -1,-1 -2,-1 -3,-2 -2,0 -4,1 -5,2 0,0 0,0 -1,1l-1 0 0 0c0,0 -1,-1 -1,-1 -2,-1 -4,-2 -6,-2 -1,1 -2,1 -3,2 -1,0 -1,0 -1,0 0,0 0,0 0,0 0,0 -1,-1 -1,-1 -1,-1 -1,-1 -2,-1l0 0z"/>
   <path id="12" fill="white" fill-rule="nonzero" d="M645 1344c-1,0 -1,1 -2,1 0,1 0,1 0,1 0,1 0,1 0,1 0,1 0,1 0,1 0,1 0,2 1,2 1,0 0,0 7,0l6 0 0 0c1,1 2,2 2,3 0,0 0,0 0,2 0,1 0,2 0,2 0,0 0,0 0,0 0,0 -1,0 -1,0l0 0 -7 0 -6 0 -1 0c-2,0 -3,1 -5,2 -1,2 -2,3 -2,5 0,1 0,1 0,3 0,2 0,2 0,3 0,2 1,3 2,5 1,1 3,2 4,2 1,0 1,0 7,0 4,0 5,0 5,0 0,0 1,0 3,-1 1,-1 2,-2 2,-2 0,1 0,1 0,1 0,0 0,0 0,0 0,2 3,3 5,2 0,-1 1,-2 1,-2 0,0 0,-2 0,-4l-1 -11c0,-4 0,-8 0,-8 0,-3 -3,-6 -7,-7 -1,-1 0,-1 -7,-1 -3,0 -6,0 -6,0l0 0zm13 19c0,0 0,0 1,0 0,1 0,1 0,2 0,0 1,0 1,1 0,1 0,2 0,2 0,0 -2,1 -4,2l-3 1 -4 0c-4,0 -4,0 -4,0 -1,0 -2,-1 -2,-2l0 0 0 -2 0 -2 0 0c0,-1 1,-2 2,-2 0,0 0,0 0,0 0,0 3,0 6,0l6 0 1 0z"/>
   <path id="13" fill="white" fill-rule="nonzero" d="M683 1332c-1,0 -1,0 -2,1 0,0 0,1 0,1 0,1 0,40 0,41 0,1 0,1 0,1 1,1 1,1 2,1 0,0 1,0 2,0 0,0 1,-1 1,-1 0,-1 0,-1 0,-6l0 -4 2 -1 1 -2 0 1c1,0 16,13 16,13 1,1 4,0 4,-2 0,0 0,0 0,-1 0,0 0,-1 -1,-2 0,0 -3,-3 -7,-6 -4,-4 -7,-6 -7,-6 0,0 2,-3 6,-5 3,-3 6,-6 6,-6 1,-1 1,-3 -1,-4 0,0 0,0 -1,-1 0,0 -1,0 -1,0 0,1 -1,1 -1,1 0,0 -4,3 -8,7l-8 6 0 -12c0,-11 0,-12 0,-12 0,0 0,-1 -1,-1 0,0 0,-1 -1,-1 0,0 -1,0 -1,0l0 0z"/>
   <path id="14" fill="white" fill-rule="nonzero" d="M734 1344c-2,1 -3,1 -4,2 -1,1 -3,3 -3,3 -2,1 -2,3 -3,5 0,0 0,1 0,7 0,5 0,6 0,7 1,2 1,3 3,5 0,0 2,2 3,2 1,1 3,2 4,2 1,0 16,0 17,0 1,0 2,-1 2,-3 0,-1 -1,-2 -2,-2 0,-1 1,-1 -8,-1l-8 0 -1 0c0,0 0,0 -2,-1 -1,-1 -1,-1 -2,-2 0,0 0,-1 0,-2l0 -1 10 0c10,0 11,0 11,0 0,0 1,0 1,-1 0,0 1,0 1,-1 0,0 0,0 0,-4 0,-5 0,-5 0,-6 0,-1 -1,-3 -2,-4 -1,0 -2,-2 -3,-3 -1,-1 -2,-1 -4,-1 -1,-1 -1,-1 -5,-1 -3,0 -5,0 -5,0zm9 6c1,0 1,1 2,2 1,0 2,1 2,1 0,0 0,0 0,1 0,0 0,0 0,3l0 2 -8 0 -9 0 0 -2 0 -3 0 0c0,0 1,-1 1,-1 0,0 1,-1 1,-1 1,-1 2,-1 2,-2 1,0 1,0 5,0l4 0 0 0z"/>
   <path id="15" fill="white" fill-rule="nonzero" d="M775 1344c-2,1 -3,2 -5,3 -1,2 -2,4 -1,6 0,1 1,3 2,4 0,0 1,1 2,1 0,0 2,1 5,3 8,3 11,5 11,5 1,0 1,0 1,0 1,1 1,2 1,4 -1,0 -1,1 -2,1l0 0 -6 0c-5,0 -6,0 -7,0 0,0 0,0 -1,0 -1,0 -1,0 -2,-1 -1,-1 -1,-1 -2,-1 -1,0 -2,1 -3,2 0,0 0,1 0,2 1,1 1,1 2,2 1,0 2,1 3,1 1,1 2,1 2,1 1,0 1,0 7,0 7,0 7,0 8,0 3,-1 6,-3 7,-7 0,-1 0,-3 -1,-5 0,-2 -2,-3 -3,-4 -1,0 0,0 -12,-5 -3,-2 -6,-3 -6,-3 0,0 0,0 0,-1 0,0 0,0 0,0 0,-1 0,-1 0,-1 0,0 0,-1 1,-1 0,0 2,0 7,0l6 0 0 0c1,1 2,1 2,1 1,1 1,2 2,2 1,0 2,-1 3,-2 0,0 0,0 0,0 0,-1 0,-1 0,-2 0,-1 0,-1 -1,-2 -2,-1 -3,-2 -6,-3 0,0 -13,0 -14,0z"/>
   <path id="16" fill="white" fill-rule="nonzero" d="M823 1359c-1,0 -1,1 -2,1 0,1 0,1 -1,2 0,0 0,5 0,6 1,0 1,1 1,1 1,0 1,1 1,1 1,0 1,0 4,0 4,0 4,0 4,0 1,-1 1,-1 2,-2 0,0 0,0 0,-3 0,-4 0,-4 0,-4 -1,-1 -1,-1 -2,-2 0,0 0,0 -4,0 -2,0 -3,0 -3,0z"/>
   <path id="17" fill="white" fill-rule="nonzero" d="M868 1344c-1,1 -3,1 -4,2 -1,1 -6,5 -6,5 -1,2 -2,3 -2,5 0,1 0,1 0,5 0,5 0,4 0,5 0,2 1,3 2,5 1,0 6,4 6,5 1,0 3,1 4,1 1,0 14,0 14,0 1,0 2,-1 2,-3 0,-1 0,-2 -1,-2 -1,-1 0,-1 -8,-1 -6,0 -6,0 -7,0 0,0 0,0 0,0 -1,0 -2,-1 -3,-2 -2,-2 -3,-3 -3,-3 0,0 0,-1 -1,-1 0,0 0,0 0,-4l0 -4 0 0c1,-1 1,-1 1,-1 0,-1 1,-1 3,-3 1,-1 2,-2 3,-2 0,0 0,-1 0,-1l1 0 6 0c8,0 7,0 8,0 1,0 1,-2 1,-3 0,-1 -1,-2 -2,-3 0,0 -13,0 -14,0l0 0z"/>
   <path id="18" fill="white" fill-rule="nonzero" d="M909 1344c-2,1 -3,1 -4,2 -1,1 -3,3 -3,3 -2,1 -2,3 -3,5 0,0 0,1 0,7 0,5 0,6 0,7 1,2 1,3 3,5 0,0 2,2 3,2 1,1 2,2 3,2 1,0 1,0 6,0 4,0 4,0 5,0 1,0 3,-1 4,-2 1,0 2,-2 3,-2 1,-1 2,-3 2,-5 0,-1 0,-1 0,-7 0,-6 0,-7 0,-7 0,-2 -1,-4 -2,-5 -1,-1 -2,-2 -3,-3 -1,0 -2,-1 -3,-1 0,0 -1,0 -1,-1 -1,0 -1,0 -5,0 -4,0 -5,0 -5,0zm9 6c0,0 1,1 1,1 0,0 3,2 3,2 0,0 0,1 0,1 0,0 0,1 0,7l0 6 0 1c0,0 0,1 -2,2 -1,1 -1,1 -1,1 -1,0 -1,0 -5,0 -5,0 -5,0 -5,0 -1,0 -1,0 -2,-1 -1,-1 -1,-1 -2,-2 0,-1 0,0 0,-7l0 -7 0 0c1,-1 1,-1 2,-2l1 -1c1,0 1,-1 1,-1 1,0 1,0 5,0 4,0 4,0 4,0l0 0z"/>
   <path id="19" fill="white" fill-rule="nonzero" d="M945 1344c-1,1 -1,1 -2,1 0,1 0,1 0,2 -1,0 -1,27 0,28 0,1 0,1 0,1 1,1 1,1 1,1 1,0 2,0 3,0 0,0 0,0 1,-1 0,0 0,-1 0,-1 0,0 0,-1 0,-11l0 -10 2 -2c2,-1 3,-2 3,-2 0,0 0,0 0,0 1,0 1,0 1,0 0,0 0,1 0,1l0 0 0 12c1,11 1,12 1,12 0,1 0,1 0,2 1,0 1,0 1,0 1,0 2,0 3,0 0,0 0,0 1,-1 0,0 0,-1 0,-1 0,0 0,-1 0,-11l0 -10 2 -2c1,-1 2,-2 2,-2 0,0 0,0 1,0 0,0 0,0 0,0 0,0 1,1 1,1 0,0 0,3 0,12 0,6 0,12 1,12 0,0 0,1 0,1 0,0 1,1 1,1 0,0 1,0 2,0 0,0 0,0 1,0 0,0 1,-1 1,-1 0,-1 0,-1 0,-1 0,-1 0,-24 -1,-24 0,-2 0,-4 -2,-5 -1,-1 -2,-1 -4,-2 -1,0 -3,1 -4,2 -1,0 -1,0 -1,1l-1 0 0 0c0,0 -1,-1 -1,-1 -2,-1 -4,-2 -6,-2 -1,1 -2,1 -3,2 -1,0 -1,0 -1,0 0,0 0,0 0,0 0,0 -1,-1 -1,-1 -1,-1 -1,-1 -2,-1l0 0z"/>
   <path id="text_6__16" fill="white" fill-rule="nonzero" d="M1057 1347c-1,0 -1,0 -2,0 0,1 -1,1 -1,2 0,0 0,0 0,3 0,3 0,3 0,4 1,1 11,23 11,24 0,0 1,0 1,1 0,0 0,0 1,0 0,0 4,0 5,0 0,0 0,0 1,0 0,-1 1,-1 1,-1 0,-1 10,-23 10,-24 0,-1 0,-1 0,-4 0,-3 0,-3 0,-3 0,-1 0,-1 -1,-2 0,0 0,0 -1,0 0,-1 -1,-1 -2,0 0,0 0,0 -1,0 0,1 0,1 -1,2 0,0 0,0 0,3l0 2 -4 10c-3,6 -5,11 -5,11 0,0 -2,-5 -4,-11l-5 -10 0 -2c0,-3 0,-3 0,-3 0,-1 0,-1 0,-1 0,0 -1,-1 -1,-1 -1,0 -2,-1 -2,0l0 0z"/>
   <path id="1" fill="white" fill-rule="nonzero" d="M1103 1334c-1,0 -2,1 -3,1 0,1 0,2 0,3 1,1 1,1 2,2l0 0 5 0 5 0 0 17 0 18 -5 0 -5 0 0 0c-1,0 -2,2 -2,3 0,1 1,3 2,3l1 0 12 0c12,0 13,0 13,0 0,0 0,0 0,0 1,-1 2,-1 2,-2 0,0 0,1 0,-9 0,-6 0,-8 0,-8 0,0 0,-1 0,-1 0,0 -1,-1 -1,-1 -1,0 -2,-1 -2,-1 -1,1 -1,1 -1,1 -1,0 -1,1 -2,1 0,0 0,0 0,0 0,1 0,1 0,8l0 6 -3 0 -3 0 0 -21 0 -20 -8 0c-4,0 -7,0 -7,0l0 0z"/>
   <path id="2" fill="white" fill-rule="nonzero" d="M1157 1362c0,0 -1,0 -1,1 -1,0 -1,1 -1,2 0,0 0,5 0,6 0,0 0,1 1,1 0,1 0,1 1,1 0,0 0,0 4,0 4,0 4,0 4,0 1,0 1,-1 2,-1 0,-1 0,-1 0,-4 0,-4 0,-4 0,-4 -1,-1 -1,-1 -2,-2 0,0 0,0 -4,0 -3,0 -4,0 -4,0z"/>
   <path id="3" fill="white" fill-rule="nonzero" d="M1197 1334c-3,0 -5,2 -5,4 0,1 0,0 0,19 0,20 0,19 0,19 0,1 0,2 1,3 1,1 2,2 4,2l0 0 9 0c7,0 10,0 10,0 2,0 3,-1 4,-2 1,-1 1,-2 2,-3l0 0 0 -18c0,-14 0,-19 0,-19 -1,-2 -2,-5 -5,-5 -1,0 0,0 -10,0 -6,0 -10,0 -10,0zm19 23l0 18 -9 0 -9 0 0 -18 0 -17 9 0 9 0 0 17z"/>
   <path id="4" fill="white" fill-rule="nonzero" d="M1264 1334c-1,0 -1,0 -2,1 0,0 0,0 0,1 0,0 0,1 -1,7l0 8 -1 -1c0,-1 -1,-1 -1,-2 -2,-1 -3,-1 -5,-1 0,0 0,0 -3,0 -3,0 -3,0 -4,0 -1,0 -3,1 -4,1 -1,1 -3,3 -3,3 -1,2 -2,3 -3,6 0,0 0,13 0,14 1,2 2,4 3,5 0,1 3,3 3,3 1,1 3,2 5,2 0,0 6,0 6,0 2,0 4,-1 5,-2 0,0 1,-1 1,-1 1,-1 1,-1 1,-1 0,0 0,0 0,1 0,1 1,1 1,2 1,1 1,1 2,1 0,0 1,0 2,0 1,-1 1,-1 1,-2 0,0 1,0 1,0 0,-1 0,-1 0,-22 0,-20 0,-21 0,-21 -1,-1 -1,-1 -1,-2 -1,0 -1,0 -2,0 0,0 -1,0 -1,0zm-10 19c0,0 1,0 1,0 0,0 6,5 6,5 0,0 0,1 0,1l0 1 0 4 0 4 0 0c0,1 0,1 -1,2l-3 3c-2,1 -2,1 -2,2 -1,0 -1,0 -4,0l-3 0 0 0c-1,0 -1,-1 -2,-2 -2,-1 -2,-1 -2,-2 -1,0 0,0 0,-7 0,-8 -1,-7 0,-8 0,0 0,0 2,-2 1,-1 1,-1 2,-1 0,0 5,0 6,0l0 0z"/>
   <path id="text_6__17" fill="white" fill-rule="nonzero" d="M114 1108c0,1 -1,1 -1,1 -1,1 -1,1 -1,2 0,0 0,40 0,40 0,1 0,1 1,2 0,0 1,0 1,0 1,1 1,1 2,0 1,0 1,0 2,-1 0,-1 0,0 0,-10l0 -9 4 -3c3,-2 5,-3 5,-3 0,0 0,0 3,0l2 0 0 0c1,0 2,1 2,2 0,0 0,3 1,11 0,10 0,11 0,11 0,2 1,3 3,3 1,0 2,-1 3,-3 0,0 0,0 0,0 0,-1 -1,-22 -1,-22 0,-2 -1,-4 -2,-6 -2,-1 -3,-2 -5,-2 -1,0 -5,0 -6,0 -1,0 -2,0 -3,1 0,0 -1,0 -3,2l-3 2 0 -8c0,-8 0,-7 0,-8 -1,-1 -1,-1 -2,-1 0,0 0,0 0,0 -1,-1 -1,-1 -2,-1l0 0z"/>
   <path id="1" fill="white" fill-rule="nonzero" d="M164 1111c-1,0 -2,1 -2,2 -1,0 -1,0 -1,4l0 4 -1 0c-2,0 -2,0 -2,0 -1,0 -2,1 -2,3 0,1 1,2 2,2 0,1 0,1 2,1l1 0 0 9c0,9 0,10 1,10 0,2 1,4 2,5 1,1 3,2 5,3l0 0 4 0c4,0 4,0 5,-1 1,0 2,0 3,-1 2,-2 3,-4 4,-6 0,-1 -1,-3 -3,-3 -1,0 -2,0 -3,1 0,0 0,1 0,2 0,0 -1,1 -2,2 0,0 0,0 -4,0l-3 0 -1 0c0,0 0,-1 -1,-1 0,0 0,-1 -1,-1l0 0 0 -10 0 -9 6 0 6 0 1 -1c0,0 1,0 1,-1 1,-1 1,-1 1,-1 0,-1 0,-1 -1,-2 0,0 -1,-1 -1,-1l-1 0 -6 0 -6 0 0 -4c0,-4 0,-4 0,-4 0,-1 -1,-1 -1,-2 0,0 -1,0 -1,0 0,0 -1,0 -1,0l0 0z"/>
   <path id="2" fill="white" fill-rule="nonzero" d="M208 1111c-1,0 -2,1 -2,2 -1,0 -1,0 -1,4l0 4 -1 0c-2,0 -2,0 -2,0 -2,0 -3,1 -3,3 0,1 1,2 3,2 0,1 0,1 2,1l1 0 0 9c0,9 0,10 0,10 1,2 1,4 3,5 1,1 3,2 4,3l1 0 4 0c3,0 3,0 4,-1 2,0 3,0 4,-1 2,-2 3,-4 3,-6 1,-1 -1,-3 -2,-3 -1,0 -2,0 -3,1 0,0 0,1 -1,2 0,0 0,1 -1,2 -1,0 0,0 -4,0l-4 0 0 0c0,0 -1,-1 -1,-1 0,0 -1,-1 -1,-1l0 0 0 -10 0 -9 6 0 6 0 0 -1c1,0 2,0 2,-1 0,-1 0,-1 0,-1 0,-1 0,-1 0,-2 0,0 -1,-1 -2,-1l0 0 -6 0 -6 0 0 -4c0,-4 0,-4 0,-4 -1,-1 -1,-1 -2,-2 0,0 0,0 0,0 0,0 -1,0 -1,0l0 0z"/>
   <path id="3" fill="white" fill-rule="nonzero" d="M245 1120c-1,0 -1,1 -2,2l0 0 0 21c0,20 0,21 0,21 0,0 0,0 1,0 0,1 0,1 1,2 0,0 1,0 1,0 1,0 1,0 1,0 1,-1 1,-1 2,-2 0,0 0,0 0,-7l0 -7 1 2c1,0 2,1 2,1 1,1 3,2 4,2 1,0 3,0 3,0 2,0 4,-1 5,-2 1,-1 5,-5 6,-5 1,-1 2,-3 2,-5l0 0 0 -6c0,-5 0,-5 0,-6 0,-2 -1,-3 -2,-4 -1,-1 -2,-2 -5,-5 -1,-1 -1,-1 -2,-1 -1,-1 -2,-1 -3,-1 -1,0 -3,-1 -4,0 -1,0 -3,0 -4,1 0,1 -1,1 -2,2l-1 1 0 -1c0,-1 0,-1 0,-1 0,-1 -1,-2 -2,-2 -1,-1 -1,-1 -2,0l0 0zm14 5c0,1 1,1 1,1 0,0 6,5 6,5 0,0 0,1 0,1 0,0 0,0 0,5l0 5 0 1c0,0 0,0 0,1 -1,0 -2,1 -3,2 -3,3 -3,3 -4,3 0,0 0,0 -1,0 -1,0 -1,0 -2,0 0,0 0,0 -1,-1 0,0 -5,-5 -5,-5 -1,-1 -1,-1 -1,-2 0,0 0,-1 0,-4l0 -4 0 0c0,-1 0,-1 1,-1 0,-1 5,-6 5,-6 1,0 1,-1 2,-1 0,0 2,0 2,0z"/>
   <path id="4" fill="white" fill-rule="nonzero" d="M294 1121c-2,0 -4,1 -5,3 -1,1 -2,3 -1,5 0,2 1,3 2,4 0,1 1,1 2,2 0,0 2,1 4,2 9,4 12,5 12,5 0,0 1,0 1,0 1,1 1,3 1,4 -1,1 -1,1 -2,2l-1 0 -5 0c-5,0 -6,0 -7,0 0,0 0,0 -1,-1 -1,0 -1,0 -2,-1 -1,0 -1,-1 -2,-1 -1,0 -2,1 -3,2 0,1 0,2 0,2 0,1 1,1 2,2 1,1 1,1 3,2 1,0 1,0 2,1 1,0 1,0 7,0 7,0 7,0 8,-1 3,0 6,-3 7,-6 0,-2 0,-4 -1,-6 -1,-1 -2,-3 -3,-4 -1,0 0,0 -12,-5 -3,-1 -6,-3 -6,-3 0,0 0,0 -1,0 0,-1 0,-1 0,-1 0,0 0,0 1,0 0,-1 0,-1 1,-1 0,0 2,0 6,0l7 0 0 0c1,0 1,0 2,1 0,1 1,1 2,1 1,0 2,0 3,-2 0,0 0,0 0,0 0,-1 0,-1 0,-2 0,0 0,-1 -1,-2 -2,-1 -4,-2 -6,-2 0,0 -13,0 -14,0z"/>
   <path id="5" fill="white" fill-rule="nonzero" d="M342 1136c-1,0 -1,0 -2,0 0,1 -1,1 -1,2 0,0 0,5 0,6 0,1 1,1 1,1 1,1 1,1 1,1 1,0 1,0 4,0 4,0 4,0 4,0 1,0 1,-1 2,-1 0,-1 0,-1 0,-4 0,-3 0,-3 0,-4 -1,0 -1,-1 -2,-1 0,0 0,0 -4,0 -2,0 -3,0 -3,0zm0 -20c-1,0 -1,0 -2,1 0,0 -1,1 -1,1 0,1 0,6 0,6 0,1 1,1 1,2 1,0 1,0 1,0 1,1 1,1 4,1 4,0 4,0 4,-1 1,0 1,0 2,-1 0,-1 0,0 0,-4 0,-3 0,-3 0,-4 -1,0 -1,-1 -2,-1 0,0 0,0 -4,0 -2,0 -3,0 -3,0z"/>
   <path id="6" fill="white" fill-rule="nonzero" d="M400 1108c-1,1 -2,1 -2,2 -1,1 -23,39 -23,40 -1,0 -1,1 -1,1 1,2 2,3 3,3 1,0 2,-1 3,-2 0,0 23,-39 23,-39 0,-1 0,-2 0,-3 0,0 -1,-1 -1,-1 -1,-1 -1,-1 -2,-1z"/>
   <path id="7" fill="white" fill-rule="nonzero" d="M444 1108c-1,1 -2,1 -2,2 -1,1 -24,39 -24,40 0,0 0,1 0,1 1,2 2,3 3,3 1,0 2,-1 3,-2 0,0 23,-39 23,-39 0,-1 0,-2 0,-3 0,0 -1,-1 -1,-1 -1,-1 -2,-1 -2,-1z"/>
   <path id="8" fill="white" fill-rule="nonzero" d="M472 1121c-2,0 -3,1 -5,2 0,0 -2,2 -3,2 -1,2 -2,3 -2,5 0,1 0,2 0,6 0,6 0,6 0,7 1,1 1,3 2,4 1,0 3,2 3,2 2,1 3,2 5,2 0,0 5,0 6,0 1,0 3,-1 4,-1 0,-1 0,-1 2,-2 0,0 1,-1 1,-1 0,0 0,1 0,5l0 4 0 0c0,1 -1,1 -2,3 -1,1 -2,1 -2,1l-1 0 -6 0 -7 0 0 0c-1,1 -2,2 -2,3 0,1 1,2 2,3l0 0 7 0c4,0 6,0 7,0 1,0 3,-1 4,-2 1,-1 3,-2 3,-3 2,-1 2,-3 3,-4 0,-1 0,-1 0,-17 0,-18 0,-17 0,-17 0,-1 -1,-1 -1,-1 0,0 0,-1 -1,-1 0,0 -1,0 -1,0 -1,0 -1,0 -2,0 0,0 -1,1 -1,2 0,0 0,0 0,1l0 1 -1 -1c-1,-1 -1,-1 -2,-2 -1,0 -2,-1 -4,-1 0,0 -1,0 -3,0 -2,0 -3,0 -3,0l0 0zm6 6c0,0 0,0 1,0 0,0 5,5 5,5 0,0 1,1 1,1l0 0 0 3 0 3 0 0c0,1 -1,1 -2,2l-2 2c-2,2 -2,2 -3,2 0,0 0,0 -3,0l-3 0 0 0c-1,0 -1,0 -2,-1 -2,-1 -2,-2 -2,-2 0,-1 0,0 0,-6 0,-6 0,-5 0,-6 0,-1 0,-1 2,-2 1,-1 1,-1 2,-1 0,0 5,0 6,0l0 0z"/>
   <path id="9" fill="white" fill-rule="nonzero" d="M511 1121c-1,0 -2,1 -2,2 -1,1 0,3 2,3l0 1 3 0 3 0 0 10 0 11 -3 0 -3 0 0 0c-2,0 -2,1 -2,3 0,1 0,2 2,3l0 0 9 0 9 0 0 0c1,-1 2,-1 2,-2 1,0 1,-1 1,-1 0,-1 0,-1 -1,-2 0,0 -1,-1 -2,-1l0 0 -3 0 -3 0 0 -13c0,-11 0,-12 0,-12 0,0 0,-1 -1,-1 0,-1 0,-1 -1,-1 0,0 0,0 -5,0 -3,0 -5,0 -5,0l0 0zm6 -15c-1,0 -1,0 -2,1 0,0 0,0 -1,1 0,0 0,1 0,2 0,2 0,2 0,2 1,1 1,1 1,1 1,1 1,1 1,1 1,0 1,0 3,0 2,0 2,0 2,0 1,0 1,-1 2,-1 0,-1 0,-1 0,-3 0,-2 0,-2 0,-2 -1,-1 -1,-1 -2,-2 0,0 0,0 -2,0 -2,0 -2,0 -2,0z"/>
   <path id="10" fill="white" fill-rule="nonzero" d="M557 1111c0,0 -1,1 -2,2 0,0 0,0 0,4l0 4 -2 0c-1,0 -1,0 -1,0 -2,0 -3,1 -3,3 0,1 1,2 3,2 0,1 0,1 1,1l2 0 0 9c0,9 0,10 0,10 0,2 1,4 3,5 1,1 2,2 4,3l1 0 3 0c4,0 4,0 5,-1 2,0 3,0 4,-1 2,-2 3,-4 3,-6 0,-1 -1,-3 -2,-3 -1,0 -2,0 -3,1 0,0 0,1 -1,2 0,0 0,1 -1,2 -1,0 -1,0 -4,0l-4 0 0 0c0,0 -1,-1 -1,-1 0,0 -1,-1 -1,-1l0 0 0 -10 0 -9 6 0 6 0 0 -1c1,0 2,0 2,-1 0,-1 0,-1 0,-1 0,-1 0,-1 0,-2 0,0 -1,-1 -2,-1l0 0 -6 0 -6 0 0 -4c0,-4 0,-4 0,-4 -1,-1 -1,-1 -2,-2 0,0 0,0 0,0 -1,0 -1,0 -2,0l0 0z"/>
   <path id="11" fill="white" fill-rule="nonzero" d="M595 1108c0,1 -1,1 -1,1 -1,1 -1,1 -1,2 0,0 0,40 0,40 0,1 0,1 1,2 0,0 1,0 1,0 1,1 2,1 2,0 1,0 1,0 2,-1 0,-1 0,0 0,-10l0 -9 4 -3c3,-2 5,-3 5,-3 1,0 1,0 3,0l2 0 0 0c1,0 2,1 2,2 0,0 0,3 1,11 0,10 0,11 0,11 1,2 2,3 3,3 1,0 3,-1 3,-3 0,0 0,0 0,0 0,-1 -1,-22 -1,-22 0,-2 -1,-4 -2,-6 -2,-1 -3,-2 -5,-2 -1,0 -5,0 -6,0 -1,0 -2,0 -3,1 0,0 -1,0 -3,2l-3 2 0 -8c0,-8 0,-7 0,-8 -1,-1 -1,-1 -2,-1 0,0 0,0 0,0 -1,-1 -1,-1 -2,-1l0 0z"/>
   <path id="12" fill="white" fill-rule="nonzero" d="M639 1121c-1,0 -2,1 -2,1 0,1 0,1 0,2 0,1 1,21 1,22 0,2 1,4 2,5 1,1 3,2 5,3 1,0 5,0 5,0 1,0 2,-1 2,-1 1,0 2,0 5,-2l3 -2 0 1c0,1 0,1 0,2 0,0 1,1 1,1 1,1 2,1 3,1 0,-1 1,-1 1,-1 0,-1 1,-1 1,-2 0,0 0,0 0,-14 0,-10 0,-14 0,-14 0,0 -1,-1 -1,-1 0,0 0,-1 -1,-1 0,0 -1,0 -2,0 0,0 0,0 -1,0 0,0 -1,1 -1,1 0,0 0,0 0,1 0,0 0,0 0,10l0 9 -5 3c-2,1 -4,2 -4,3 -1,0 -1,0 -3,0l-2 0 -1 0c-1,-1 -1,-1 -2,-2 0,-1 0,-3 0,-12 0,-10 0,-11 0,-11 -1,-1 -1,-2 -2,-2 -1,0 -1,0 -2,0l0 0z"/>
   <path id="13" fill="white" fill-rule="nonzero" d="M683 1108c-1,1 -1,1 -2,1 0,1 0,1 0,2 0,0 0,40 0,40 0,1 0,1 0,2 1,0 1,0 2,0 0,1 1,1 2,0 0,0 1,0 1,-1 0,0 0,-1 0,-2l0 0 1 0c2,2 2,2 3,3 1,0 2,0 3,1 1,0 6,0 7,0 1,-1 3,-1 4,-2 1,-1 3,-3 3,-3 1,-1 2,-3 2,-5 0,0 0,-1 0,-7 0,-7 0,-7 0,-8 0,-1 -1,-3 -2,-4 0,0 -3,-2 -3,-2 -1,-1 -2,-2 -4,-2 0,0 -1,0 -4,0 -2,0 -3,0 -4,0 0,0 -2,1 -2,1 -1,0 -1,1 -2,2l-2 1 0 -7c0,-8 0,-7 0,-8 0,-1 -1,-1 -1,-1 0,0 -1,0 -1,0 0,-1 -1,-1 -1,-1l0 0zm16 19c1,0 1,0 1,0 0,0 1,1 2,1 0,1 1,1 1,2 0,0 0,0 1,1 0,0 0,0 0,6l0 7 -1 0c0,1 0,1 -1,2 -2,1 -2,2 -3,2l0 0 -3 0c-2,0 -2,0 -3,0 0,0 0,-1 0,-1 0,0 -2,-1 -3,-2 -2,-2 -3,-2 -3,-3 0,0 0,0 0,-1 -1,0 -1,0 -1,-4l0 -4 1 0c0,0 0,-1 0,-1 0,0 1,-1 3,-3 1,-1 3,-2 3,-2 0,0 0,0 1,0 0,0 1,0 3,0 2,0 2,0 2,0l0 0z"/>
   <path id="14" fill="white" fill-rule="nonzero" d="M735 1136c0,0 -1,0 -1,0 -1,1 -1,1 -1,2 0,0 0,5 0,6 0,1 0,1 1,1 0,1 0,1 1,1 0,0 0,0 4,0 4,0 3,0 4,0 0,0 1,-1 1,-1 1,-1 1,-1 1,-4 0,-3 0,-3 -1,-4 0,0 -1,-1 -1,-1 -1,0 0,0 -4,0 -3,0 -3,0 -4,0z"/>
   <path id="15" fill="white" fill-rule="nonzero" d="M781 1121c-2,0 -3,1 -5,1 0,1 -5,5 -6,6 -1,1 -2,3 -2,5 0,0 0,0 0,4 0,5 0,5 0,6 1,1 2,3 3,4 0,0 5,5 6,5 1,1 2,1 4,2 0,0 13,0 14,0 1,-1 2,-2 2,-3 0,-1 -1,-3 -2,-3 0,0 0,0 -7,0 -6,0 -7,0 -7,0 0,0 -1,-1 -1,-1 0,0 -1,-1 -3,-2 -2,-2 -2,-2 -2,-3 -1,0 -1,0 -1,-1 0,0 0,0 0,-4l0 -4 0 0c0,0 0,-1 1,-1 0,0 0,-1 2,-3 2,-1 3,-2 3,-2 0,0 1,0 1,0l0 0 7 0c7,0 7,0 7,-1 1,0 2,-1 2,-2 0,-2 -1,-3 -2,-3 -1,0 -14,0 -14,0l0 0z"/>
   <path id="16" fill="white" fill-rule="nonzero" d="M822 1121c-2,0 -3,1 -5,2 0,0 -2,2 -3,2 -1,2 -2,3 -2,5 0,1 0,1 0,7 0,6 0,7 0,7 0,2 1,4 2,5 0,0 3,2 3,3 1,1 3,1 4,1 1,1 1,1 5,1 5,0 5,0 6,-1 1,0 2,0 3,-1 1,-1 3,-2 3,-3 1,-1 2,-3 3,-5 0,0 0,-1 0,-7 0,-5 0,-6 0,-7 -1,-2 -1,-4 -3,-5 0,0 -2,-2 -3,-2 0,-1 -1,-1 -2,-2 -1,0 -1,0 -2,0 0,0 -1,0 -5,0 -3,0 -4,0 -4,0zm9 6c0,0 0,0 0,0 1,0 3,2 3,2 0,1 1,1 1,2 0,0 0,0 0,6l0 7 0 0c-1,1 -1,1 -2,2 -1,1 -2,1 -2,2 -1,0 0,0 -5,0 -4,0 -4,0 -5,0 0,-1 0,-1 -1,-2 -2,-1 -2,-1 -2,-2 0,0 0,0 0,-7l0 -6 0 -1c0,0 0,-1 2,-2l1 -1c0,0 0,0 1,0 0,0 0,0 4,0 4,0 4,0 5,0l0 0z"/>
   <path id="17" fill="white" fill-rule="nonzero" d="M857 1121c0,0 -1,0 -1,1 -1,0 -1,0 -1,1 0,1 0,28 0,28 0,1 0,1 1,2 0,0 1,0 1,0 1,1 2,1 2,0 1,0 1,0 1,0 0,-1 1,-1 1,-2 0,0 0,0 0,-10l0 -11 2 -1c1,-1 2,-2 2,-2 0,0 0,0 1,0 0,0 0,0 0,0 1,0 1,0 1,0l0 1 0 11c0,11 0,12 0,12 0,1 1,1 1,2 0,0 1,0 1,0 1,1 1,1 2,0 1,0 1,0 1,0 0,-1 1,-1 1,-2 0,0 0,0 0,-10l0 -11 2 -2c1,-1 2,-1 2,-1 0,0 0,0 0,0 0,0 0,0 1,0 0,0 0,0 0,0 0,1 0,3 1,12 0,7 0,12 0,12 0,1 0,1 0,1 1,0 1,1 1,1 1,1 2,1 2,1 1,0 1,0 1,-1 1,0 1,0 2,-1 0,0 0,-1 0,-1 0,0 -1,-24 -1,-24 0,-2 -1,-3 -2,-4 -1,-1 -3,-2 -4,-2 -2,0 -3,0 -5,1 0,0 0,0 -1,1l-1 0 0 0c0,0 0,0 -1,-1 -1,-1 -3,-1 -5,-1 -2,0 -3,1 -4,2 0,0 0,0 0,0 0,0 0,0 0,0 -1,-1 -1,-2 -2,-2 0,0 -1,0 -2,0l0 0z"/>
   <path id="18" fill="white" fill-rule="nonzero" d="M925 1108c-1,1 -2,1 -2,2 -1,1 -23,39 -24,40 0,0 0,1 0,1 1,2 2,3 3,3 1,0 2,-1 3,-2 0,0 23,-39 23,-39 0,-1 0,-2 0,-3 0,0 -1,-1 -1,-1 -1,-1 -2,-1 -2,-1z"/>
   <path id="19" fill="white" fill-rule="nonzero" d="M950 1121c-2,0 -3,1 -5,3 -1,1 -2,3 -1,5 0,2 1,3 2,4 0,1 1,1 2,2 0,0 2,1 5,2 8,4 11,5 11,5 0,0 1,0 1,0 1,1 1,3 1,4 -1,1 -1,1 -2,2l-1 0 -5 0c-5,0 -6,0 -7,0 0,0 0,0 -1,-1 -1,0 -1,0 -2,-1 -1,0 -1,-1 -2,-1 -1,0 -2,1 -3,2 0,1 0,2 0,2 0,1 1,1 2,2 1,1 1,1 3,2 1,0 1,0 2,1 1,0 1,0 7,0 7,0 7,0 8,-1 3,0 6,-3 7,-6 0,-2 0,-4 -1,-6 -1,-1 -2,-3 -3,-4 -1,0 0,0 -12,-5 -3,-1 -6,-3 -6,-3 0,0 0,0 0,0 -1,-1 -1,-1 -1,-1 0,0 0,0 1,0 0,-1 0,-1 1,-1 0,0 2,0 6,0l7 0 0 0c1,0 1,0 2,1 1,1 1,1 2,1 1,0 2,0 3,-2 0,0 0,0 0,0 0,-1 0,-1 0,-2 0,0 0,-1 -1,-2 -2,-1 -3,-2 -6,-2 0,0 -13,0 -14,0z"/>
   <path id="20" fill="white" fill-rule="nonzero" d="M992 1121c-1,0 -2,1 -2,2 -1,1 0,3 2,3l0 1 3 0 3 0 0 10 0 11 -3 0 -3 0 0 0c-2,0 -2,1 -2,3 0,1 0,2 2,3l0 0 9 0 9 0 1 0c0,-1 1,-1 1,-2 1,0 1,-1 1,-1 0,-1 0,-1 -1,-2 0,0 -1,-1 -1,-1l-1 0 -3 0 -3 0 0 -13c0,-11 0,-12 0,-12 0,0 0,-1 -1,-1 0,-1 0,-1 -1,-1 0,0 0,0 -5,0 -3,0 -5,0 -5,0l0 0zm6 -15c-1,0 -1,0 -2,1 0,0 0,0 0,1 -1,0 -1,1 -1,2 0,2 0,2 1,2 0,1 0,1 0,1 1,1 1,1 1,1 1,0 1,0 3,0 2,0 2,0 2,0 1,0 1,-1 2,-1 0,-1 0,-1 0,-3 0,-2 0,-2 0,-2 -1,-1 -1,-1 -2,-2 0,0 0,0 -2,0 -2,0 -2,0 -2,0z"/>
   <path id="21" fill="white" fill-rule="nonzero" d="M1032 1121c0,0 -1,0 -1,1 -1,0 -1,0 -1,1 0,1 0,28 0,28 0,1 0,1 1,2 0,0 1,0 1,0 1,1 1,1 2,0 1,0 1,0 1,0 0,-1 1,-1 1,-2 0,0 0,0 0,-10l0 -11 2 -1c1,-1 2,-2 2,-2 0,0 0,0 1,0 0,0 0,0 0,0 0,0 1,0 1,0l0 1 0 11c0,11 0,12 0,12 0,1 0,1 1,2 0,0 1,0 1,0 1,1 1,1 2,0 1,0 1,0 1,0 0,-1 1,-1 1,-2 0,0 0,0 0,-10l0 -11 2 -2c1,-1 2,-1 2,-1 0,0 0,0 0,0 0,0 0,0 1,0 0,0 0,0 0,0 0,1 0,3 1,12 0,7 0,12 0,12 0,1 0,1 0,1 1,0 1,1 1,1 1,1 2,1 2,1 0,0 1,0 1,-1 1,0 1,0 1,-1 1,0 1,-1 1,-1 0,0 -1,-24 -1,-24 0,-2 -1,-3 -2,-4 -1,-1 -3,-2 -4,-2 -2,0 -3,0 -5,1 0,0 0,0 -1,1l-1 0 0 0c0,0 -1,0 -1,-1 -1,-1 -3,-1 -5,-1 -2,0 -3,1 -4,2 0,0 0,0 0,0 0,0 0,0 0,0 -1,-1 -1,-2 -2,-2 0,0 -1,0 -2,0l0 0z"/>
   <path id="22" fill="white" fill-rule="nonzero" d="M1084 1121c-2,0 -3,1 -4,2 -1,0 -3,2 -3,2 -2,2 -2,3 -3,5 0,1 0,1 0,7 0,6 0,7 0,7 0,2 1,4 3,5 0,0 2,2 3,3 1,1 2,1 3,1 1,1 1,1 6,1 4,0 4,0 5,-1 1,0 3,0 4,-1 1,-1 2,-2 2,-3 2,-1 3,-3 3,-5 0,0 0,-1 0,-7 0,-5 0,-6 0,-7 0,-2 -1,-4 -3,-5 0,0 -1,-2 -2,-2 -1,-1 -2,-1 -3,-2 0,0 -1,0 -1,0 -1,0 -1,0 -5,0 -4,0 -5,0 -5,0zm9 6c0,0 1,0 1,0 0,0 2,2 3,2 0,1 0,1 0,2 0,0 0,0 0,6l0 7 0 0c0,1 0,1 -2,2 -1,1 -1,1 -2,2 0,0 0,0 -4,0 -5,0 -5,0 -5,0 -1,-1 -1,-1 -2,-2 -1,-1 -1,-1 -2,-2 0,0 0,0 0,-7l0 -6 0 -1c0,0 1,-1 2,-2l1 -1c0,0 1,0 1,0 0,0 1,0 5,0 4,0 4,0 4,0l0 0z"/>
   <path id="23" fill="white" fill-rule="nonzero" d="M1120 1121c0,0 -1,0 -1,1 -1,0 -1,0 -1,1 0,1 0,28 0,28 0,1 0,1 1,2 0,0 0,0 1,0 1,1 1,1 2,0 1,0 1,0 1,-1 1,-1 1,0 1,-10l0 -9 4 -3c3,-2 5,-3 5,-3 0,0 0,0 3,0l2 0 0 0c1,0 2,1 2,2 0,0 0,3 1,11 0,12 0,11 0,12 1,1 2,2 3,2 1,0 2,-1 3,-3 0,0 0,0 0,0 0,-1 -1,-22 -1,-22 0,-2 -1,-4 -2,-6 -2,-1 -3,-2 -5,-2 -1,0 -5,0 -6,0 -1,0 -2,0 -3,1 0,0 -1,0 -3,2l-3 2 0 -2c0,-1 0,-1 0,-1 -1,-1 -1,-2 -2,-2 0,0 -1,0 -2,0l0 0z"/>
   <path id="24" fill="white" fill-rule="nonzero" d="M1164 1121c-1,0 -1,0 -2,1 0,0 -1,0 -1,1 0,1 0,28 0,28 0,1 1,1 1,2 0,0 1,0 1,0 1,1 2,1 2,0 1,0 1,0 1,0 1,-1 1,-1 1,-2 0,0 0,0 0,-10l0 -11 2 -1c1,-1 2,-2 2,-2 1,0 1,0 1,0 0,0 0,0 0,0 1,0 1,0 1,0l0 1 0 11c0,11 0,12 0,12 0,1 1,1 1,2 0,0 1,0 1,0 1,1 2,1 2,0 1,0 1,0 1,0 1,-1 1,-1 1,-2 0,0 0,0 0,-10l0 -11 2 -2c1,-1 2,-1 2,-1 0,0 0,0 0,0 0,0 1,0 1,0 0,0 0,0 0,0 0,1 0,3 1,12 0,7 0,12 0,12 0,1 0,1 1,1 0,0 0,1 1,1 0,1 1,1 1,1 1,0 1,0 1,-1 1,0 1,0 2,-1 0,0 0,-1 0,-1 0,0 -1,-24 -1,-24 0,-2 -1,-3 -2,-4 -1,-1 -2,-2 -4,-2 -1,0 -3,0 -4,1 -1,0 -1,0 -2,1l0 0 -1 0c0,0 0,0 -1,-1 -1,-1 -3,-1 -5,-1 -1,0 -3,1 -4,2 0,0 0,0 0,0 0,0 0,0 0,0 0,-1 -1,-2 -1,-2 -1,0 -2,0 -2,0l0 0z"/>
   <path id="25" fill="white" fill-rule="nonzero" d="M1215 1121c-1,0 -3,1 -4,2 -1,0 -3,2 -3,2 -1,2 -2,3 -3,5 0,1 0,1 0,7 0,6 0,7 0,7 1,2 1,4 3,5 0,0 2,2 3,3 1,1 2,1 3,1 1,1 1,1 6,1 4,0 4,0 5,-1 2,0 3,0 4,-1 1,-1 2,-2 3,-3 1,-1 2,-3 2,-5 0,0 0,-1 0,-7 0,-5 0,-6 0,-7 0,-2 -1,-4 -2,-5 -1,0 -2,-2 -3,-2 -1,-1 -2,-1 -3,-2 0,0 -1,0 -1,0 -1,0 -1,0 -5,0 -3,0 -4,0 -5,0zm9 6c1,0 1,0 1,0 0,0 3,2 3,2 0,1 0,1 0,2 0,0 0,0 0,6l0 7 0 0c0,1 0,1 -2,2 -1,1 -1,1 -1,2 -1,0 -1,0 -5,0 -5,0 -4,0 -5,0 0,-1 -1,-1 -2,-2 -1,-1 -1,-1 -1,-2 -1,0 -1,0 -1,-7l0 -6 0 -1c1,0 1,-1 2,-2l1 -1c1,0 1,0 1,0 1,0 1,0 5,0 4,0 4,0 4,0l0 0z"/>
   <path id="26" fill="white" fill-rule="nonzero" d="M1252 1121c-1,0 -1,0 -2,1 0,0 -1,0 -1,1 0,1 0,28 0,28 0,1 1,1 1,2 0,0 1,0 1,0 1,1 2,1 2,0 1,0 1,0 2,-1 0,-1 0,0 0,-10l0 -9 4 -3c3,-2 5,-3 5,-3 1,0 1,0 3,0l2 0 0 0c1,0 2,1 2,2 0,0 0,3 1,11 0,12 0,11 0,12 1,1 2,2 3,2 1,0 3,-1 3,-3 0,0 0,0 0,0 0,-1 -1,-22 -1,-22 0,-2 -1,-4 -2,-6 -2,-1 -3,-2 -5,-2 -1,0 -5,0 -6,0 -1,0 -2,0 -3,1 0,0 -1,0 -3,2l-3 2 0 -2c0,-1 0,-1 0,-1 0,-1 -1,-2 -1,-2 -1,0 -2,0 -2,0l0 0z"/>
   <path id="27" fill="white" fill-rule="nonzero" d="M1295 1108c0,1 -1,1 -1,1 -1,1 -1,1 -1,2 0,0 0,40 0,40 0,1 0,1 1,2 0,0 0,0 1,0 1,1 1,1 2,0 1,0 1,0 1,-1 1,-1 1,0 1,-5l0 -5 1 -1 2 -1 0 0c0,0 15,13 15,13 2,1 4,1 5,-2 0,0 0,0 0,0 0,-1 -1,-2 -1,-2 0,-1 -4,-3 -8,-7 -4,-3 -7,-6 -7,-6 0,0 3,-2 6,-5 3,-3 6,-5 6,-5 1,-2 1,-4 0,-5 0,0 -1,0 -1,0 -1,0 -1,0 -2,0 0,0 -1,0 -1,0 0,0 -3,3 -8,7l-7 7 0 -12c0,-12 0,-12 0,-12 -1,-1 -1,-2 -1,-2 -1,0 -1,0 -1,0 -1,-1 -1,-1 -2,-1l0 0z"/>
   <path id="28" fill="white" fill-rule="nonzero" d="M1362 1108c-1,1 -1,1 -2,2 0,1 -23,39 -23,40 0,0 0,1 0,1 0,2 1,3 2,3 1,0 2,-1 3,-2 0,0 23,-39 23,-39 1,-1 1,-2 0,-3 0,0 0,-1 -1,-1 0,-1 -1,-1 -2,-1z"/>
   <path id="29" fill="white" fill-rule="nonzero" d="M1388 1121c-2,0 -4,1 -5,3 -2,1 -2,3 -2,5 0,2 1,3 2,4 1,1 1,1 2,2 0,0 2,1 5,2 8,4 12,5 12,5 0,0 0,0 0,0 1,1 2,3 1,4 0,1 -1,1 -2,2l0 0 -6 0c-4,0 -6,0 -6,0 -1,0 -1,0 -2,-1 -1,0 -1,0 -2,-1 0,0 -1,-1 -1,-1 -2,0 -3,1 -3,2 -1,1 -1,2 0,2 0,1 0,1 1,2 1,1 2,1 3,2 1,0 2,0 3,1 0,0 0,0 7,0 6,0 6,0 7,-1 4,0 6,-3 7,-6 0,-2 0,-4 -1,-6 0,-1 -1,-3 -3,-4 -1,0 0,0 -12,-5 -3,-1 -5,-3 -5,-3 -1,0 -1,0 -1,0 0,-1 0,-1 0,-1 0,0 0,0 0,0 0,-1 1,-1 1,-1 0,0 2,0 7,0l6 0 1 0c0,0 1,0 1,1 1,1 1,1 2,1 2,0 3,0 3,-2 0,0 0,0 1,0 0,-1 0,-1 0,-2 -1,0 -1,-1 -2,-2 -1,-1 -3,-2 -5,-2 -1,0 -14,0 -14,0z"/>
   <path id="30" fill="white" fill-rule="nonzero" d="M1434 1121c-2,0 -3,1 -5,2 0,0 -2,2 -2,2 -2,2 -3,3 -3,5 0,1 0,1 0,7 0,6 0,7 0,7 0,2 1,4 3,5 0,0 2,2 3,3 1,1 2,1 4,2 1,0 16,0 17,0 1,-1 2,-2 2,-3 0,-1 -1,-3 -2,-3 0,0 0,0 -9,0l-8 0 0 0c0,0 -1,-1 -2,-2 -1,-1 -2,-1 -2,-2 0,0 0,0 0,-1l0 -2 10 0c10,0 11,0 11,0 0,0 1,0 1,0 0,-1 0,-1 1,-1 0,-1 0,-1 0,-5 0,-4 0,-5 0,-6 -1,-1 -1,-3 -2,-4 -1,0 -2,-2 -3,-2 -1,-1 -3,-2 -4,-2 -1,0 -1,0 -6,0 -3,0 -4,0 -4,0zm9 6c1,0 1,0 2,1 1,1 1,1 1,1 1,1 1,1 1,1 0,1 0,0 0,3l0 3 -8 0 -9 0 0 -3 0 -2 0 -1c0,0 0,0 1,-1 0,0 0,0 1,-1 1,-1 2,-1 2,-1 0,0 0,0 5,0l4 0 0 0z"/>
   <path id="31" fill="white" fill-rule="nonzero" d="M1470 1121c0,0 -1,0 -1,1 -1,0 -1,0 -1,1 0,1 0,28 0,28 0,1 0,1 1,2 0,0 0,0 1,0 1,1 1,1 2,0 1,0 1,0 1,-1 1,-1 1,0 1,-9l0 -8 5 -4 4 -4 3 0c3,0 3,0 3,0 1,0 1,0 1,1 0,0 1,0 1,1l0 0 0 1c0,1 0,2 0,2 0,1 1,2 3,2 1,0 2,-1 3,-2 0,-1 0,-3 0,-4 -1,-3 -3,-6 -7,-7 -1,0 -1,0 -5,0 -3,0 -3,0 -3,0 -1,0 -1,0 -1,0 0,0 -2,2 -4,3 -2,2 -3,3 -3,3 0,0 0,-1 0,-2 0,-2 0,-2 0,-2 -1,-1 -1,-1 -1,-1 0,0 0,-1 -1,-1 0,0 -1,0 -2,0l0 0z"/>
   <path id="32" fill="white" fill-rule="nonzero" d="M1514 1121c-1,0 -1,0 -2,1 0,0 0,0 0,1 0,0 0,0 0,3 0,3 0,3 0,4 0,1 10,22 10,22 0,1 0,1 1,1 0,0 0,1 1,1 0,0 4,0 4,0 1,0 1,-1 1,-1 1,0 1,0 1,-1 0,0 10,-21 10,-22 0,-1 0,-1 0,-4 0,-3 0,-3 0,-3 0,-1 0,-1 0,-1 -1,-1 -1,-1 -1,-1 -1,0 -2,0 -2,0 -1,0 -1,0 -2,1 0,0 0,0 0,1 0,0 0,0 0,3l0 2 -5 10c-2,5 -4,10 -4,10 0,0 -2,-5 -4,-10l-5 -10 0 -2c0,-3 0,-3 0,-3 0,-1 0,-1 0,-1 0,0 -1,-1 -1,-1 -1,0 -1,0 -2,0l0 0z"/>
   <path id="33" fill="white" fill-rule="nonzero" d="M1565 1121c-1,0 -3,1 -4,2 -1,0 -3,2 -3,2 -2,2 -2,3 -3,5 0,1 0,1 0,7 0,6 0,7 0,7 1,2 1,4 3,5 0,0 2,2 3,3 1,1 2,1 3,1 1,1 1,1 6,1 4,0 4,0 5,-1 1,0 3,0 4,-1 1,-1 2,-2 3,-3 1,-1 2,-3 2,-5 0,0 0,-1 0,-7 0,-5 0,-6 0,-7 0,-2 -1,-4 -2,-5 -1,0 -2,-2 -3,-2 -1,-1 -2,-1 -3,-2 0,0 -1,0 -1,0 -1,0 -1,0 -5,0 -4,0 -5,0 -5,0zm9 6c0,0 1,0 1,0 0,0 3,2 3,2 0,1 0,1 0,2 0,0 0,0 0,6l0 7 0 0c0,1 0,1 -2,2 -1,1 -1,1 -1,2 -1,0 -1,0 -5,0 -5,0 -5,0 -5,0 0,-1 -1,-1 -2,-2 -1,-1 -1,-1 -2,-2 0,0 0,0 0,-7l0 -6 0 -1c1,0 1,-1 2,-2l1 -1c1,0 1,0 1,0 1,0 1,0 5,0 4,0 4,0 4,0l0 0z"/>
   <path id="34" fill="white" fill-rule="nonzero" d="M1606 1121c-2,0 -3,1 -5,3 -1,1 -2,3 -1,5 0,2 1,3 2,4 0,1 1,1 2,2 0,0 2,1 5,2 8,4 11,5 11,5 1,0 1,0 1,0 1,1 1,3 1,4 -1,1 -1,1 -2,2l0 0 -6 0c-4,0 -6,0 -7,0 0,0 0,0 -1,-1 -1,0 -1,0 -2,-1 -1,0 -1,-1 -2,-1 -1,0 -2,1 -3,2 0,1 0,2 0,2 1,1 1,1 2,2 1,1 2,1 3,2 1,0 2,0 3,1 0,0 0,0 6,0 7,0 7,0 8,-1 3,0 6,-3 7,-6 0,-2 0,-4 -1,-6 0,-1 -2,-3 -3,-4 -1,0 0,0 -12,-5 -3,-1 -6,-3 -6,-3 0,0 0,0 0,0 0,-1 0,-1 0,-1 0,0 0,0 0,0 0,-1 0,-1 1,-1 0,0 2,0 7,0l6 0 0 0c1,0 2,0 2,1 1,1 1,1 2,1 1,0 2,0 3,-2 0,0 0,0 0,0 0,-1 0,-1 0,-2 0,0 0,-1 -1,-2 -2,-1 -3,-2 -5,-2 -1,0 -14,0 -15,0z"/>
   <path id="35" fill="white" fill-rule="nonzero" d="M1648 1121c-1,0 -2,1 -2,2 -1,1 0,3 2,3l0 1 3 0 3 0 0 10 0 11 -3 0 -3 0 0 0c-1,0 -2,1 -2,3 0,1 1,2 2,3l0 0 9 0 9 0 1 0c0,-1 1,-1 1,-2 1,0 1,-1 1,-1 0,-1 0,-1 -1,-2 0,0 -1,-1 -1,-1l-1 0 -3 0 -3 0 0 -13c0,-11 0,-12 0,-12 0,0 0,-1 -1,-1 0,-1 0,-1 -1,-1 0,0 0,0 -5,0 -3,0 -5,0 -5,0l0 0zm6 -15c-1,0 -1,0 -2,1 0,0 0,0 0,1 -1,0 -1,1 -1,2 0,2 0,2 1,2 0,1 0,1 0,1 1,1 1,1 1,1 1,0 1,0 3,0 2,0 2,0 2,0 1,0 2,-1 2,-1 0,-1 0,-1 0,-3 0,-2 0,-2 0,-2 0,-1 -1,-1 -2,-2 0,0 0,0 -2,0 -2,0 -2,0 -2,0z"/>
   <path id="36" fill="white" fill-rule="nonzero" d="M1690 1121c-1,0 -2,1 -3,1 0,1 0,1 0,1 0,1 0,2 0,2 1,0 2,2 5,6 3,3 5,6 5,6 0,0 -2,3 -5,6 -3,3 -5,6 -5,6 -1,1 -1,2 0,3 1,2 3,2 4,1 0,0 3,-3 5,-6l5 -5 0 -1 5 6c2,3 4,6 4,6 1,1 3,1 4,0 2,-1 2,-3 1,-4 0,0 -3,-3 -5,-6 -3,-3 -5,-6 -5,-6 0,0 2,-3 5,-6 3,-4 4,-6 4,-6 1,0 1,-1 1,-2 0,-2 -3,-3 -4,-2 -1,0 -1,0 -1,1 0,0 -2,2 -5,5 -2,3 -4,5 -4,5 0,0 0,0 -4,-5 -3,-3 -5,-5 -5,-5 0,-1 -1,-1 -1,-1 -1,0 -1,0 -1,0l0 0z"/>
   <path id="text_7__18" fill="white" fill-rule="nonzero" d="M1253 648l14 0c1,0 2,1 3,2 0,0 1,1 1,3 0,1 -1,2 -1,3 -1,1 -2,1 -3,1l-14 0c-1,0 -2,1 -3,2l-12 15c-1,1 -1,3 -1,5l0 23c0,2 0,3 1,3 1,1 2,2 3,2l17 0c1,0 2,-1 3,-2 1,0 1,-1 1,-3l0 -9 -9 0c-1,0 -2,0 -3,-1 0,-1 -1,-2 -1,-3 0,-1 1,-2 1,-3 1,-1 2,-1 3,-1l18 0 0 17c0,4 -2,7 -4,9 -3,3 -6,4 -9,4l-17 0c-4,0 -7,-1 -9,-4 -3,-2 -4,-5 -4,-9l0 -23c0,-4 1,-8 3,-10l13 -16c1,-1 2,-2 4,-3 1,-1 3,-2 5,-2z"/>
   <path id="1" fill="white" fill-rule="nonzero" d="M1333 653l0 62 -12 0 -22 -52 0 48c0,1 -1,2 -2,3 0,1 -1,1 -3,1 -1,0 -2,0 -3,-1 0,-1 -1,-2 -1,-3l0 -63 11 0 23 52 0 -47c0,-1 1,-2 1,-3 1,-1 2,-2 3,-2 2,0 3,1 3,2 1,1 2,2 2,3z"/>
   <path id="2" fill="white" fill-rule="nonzero" d="M1356 648l17 0c2,0 4,1 6,3 2,1 4,3 5,5l8 16c2,3 3,7 3,10 0,3 -1,6 -3,9l-8 17c-1,2 -3,4 -5,5 -2,1 -4,2 -7,2l-16 0c-1,0 -2,0 -3,-1 0,-1 -1,-2 -1,-3 0,-1 1,-2 1,-3 1,-1 2,-1 3,-1l5 0 0 -50 -5 0c-1,0 -2,0 -3,-1 0,-1 -1,-2 -1,-3 0,-1 1,-2 1,-3 1,-1 2,-2 3,-2zm13 9l0 50 3 0c2,0 3,-1 4,-3l9 -17c1,-2 1,-4 1,-5 0,-2 0,-4 -1,-5l-9 -17c0,-2 -2,-3 -4,-3l-3 0z"/>
   <polygon id="text_7__19" fill="white" fill-rule="nonzero" points="1470,704 1470,684 1450,684 1450,676 1470,676 1470,656 1479,656 1479,676 1499,676 1499,684 1479,684 1479,704 "/>
   <path id="1" fill="white" fill-rule="nonzero" d="M1533 716l-28 -73 10 0 19 53c2,4 3,8 4,12 1,-4 3,-8 4,-12l20 -53 10 0 -29 73 -10 0z"/>
   <rect fill="black" x="1508" y="847" width="112" height="234" rx="9" ry="32"/>
   <rect fill="black" x="1284" y="1244" width="272" height="234" rx="21" ry="32"/>
   <circle id="hole_6__20" fill="#9A916C" stroke="white" stroke-width="9.10201" cx="1425" cy="1362" r="125"/>
   <path id="text_7__21" fill="white" fill-rule="nonzero" d="M747 1774c-4,0 -8,2 -10,6 -3,4 -3,10 0,15 0,0 11,13 23,30 13,16 23,29 23,29 0,1 0,1 -1,2l0 0 -16 0 -16 0 0 0c-1,-1 -2,-2 -3,-3 0,0 0,-1 0,-1 0,-2 0,-3 -2,-5 -1,-1 -2,-1 -4,-1 -1,0 -1,0 -2,0 -1,0 -2,1 -2,2 -2,1 -2,3 -2,5 0,4 2,8 5,10 2,3 6,5 9,5 1,0 3,0 17,0 18,0 17,0 19,0 7,-2 11,-8 10,-15 0,-2 -1,-4 -2,-6 0,0 -10,-14 -23,-30 -12,-16 -23,-29 -23,-29 0,-1 0,-2 1,-2l0 0 16 0 16 0 0 0c2,0 2,1 3,2 0,1 0,1 0,2 0,2 1,3 2,4 1,1 2,1 3,2 0,0 1,0 1,0 2,0 3,0 5,-2 1,-1 2,-3 1,-6 0,-3 -2,-7 -4,-10 -3,-2 -6,-4 -10,-4 -1,-1 -3,-1 -17,-1 -13,0 -16,1 -17,1l0 0z"/>
   <path id="1" fill="white" fill-rule="nonzero" d="M847 1799c-3,1 -7,2 -9,4 -2,2 -6,5 -6,6 -3,3 -5,6 -5,10 0,1 0,2 0,15 0,11 0,13 0,14 0,4 2,8 5,11 0,1 5,5 6,5 3,2 6,4 9,4 2,0 34,0 35,0 3,0 5,-3 5,-6 0,-2 -1,-5 -4,-6 -1,0 1,0 -18,0l-17 0 0 0c-2,-1 -2,-1 -5,-3 -3,-3 -3,-3 -4,-4 0,-1 0,-1 0,-4l0 -2 21 -1c21,0 22,0 22,0 1,0 2,0 3,-1 1,0 1,-1 1,-2 1,-1 1,-1 1,-10 0,-9 0,-9 0,-11 -1,-4 -3,-7 -5,-9 -1,-1 -4,-4 -6,-6 -2,-1 -5,-3 -8,-3 -2,-1 -2,-1 -11,-1 -7,0 -9,0 -10,0zm19 13c1,0 2,0 4,3 2,1 3,2 3,2 1,1 1,1 1,2 1,1 1,1 1,6l0 5 -18 0 -18 0 0 -5 0 -5 0 -1c0,0 1,-1 1,-2 0,0 2,-1 3,-2 3,-2 3,-3 4,-3 1,0 1,0 10,0l9 0 0 0z"/>
   <path id="2" fill="white" fill-rule="nonzero" d="M923 1799c-1,1 -2,1 -3,2 -1,1 -1,2 -2,3 0,1 0,58 0,59 1,2 1,2 2,3 1,1 1,2 2,2 2,0 3,0 5,0 1,-1 2,-2 3,-3 0,-2 0,0 0,-19l0 -17 11 -9 10 -8 5 0c6,0 6,0 7,0 1,1 2,1 2,2 1,0 1,1 1,2l0 0 0 3c0,3 1,3 1,3 0,3 3,5 6,5 3,0 5,-2 6,-5 0,-1 0,-5 0,-7 -1,-7 -7,-13 -14,-15 -2,-1 -2,-1 -10,-1 -7,0 -8,0 -8,0 -1,1 -1,1 -2,1 0,0 -4,3 -7,7 -4,3 -7,6 -7,6 -1,0 -1,-2 -1,-4 0,-4 0,-5 0,-6 0,0 0,0 0,-1 -1,0 -2,-2 -3,-2 -1,-1 -2,-1 -4,-1l0 0z"/>
   <path id="3" fill="white" fill-rule="nonzero" d="M1015 1799c-1,1 -2,1 -3,2 -1,1 -1,1 -2,2 0,1 0,1 0,8 0,6 0,6 0,7 1,3 21,47 21,47 1,1 2,2 2,2 1,1 1,1 2,1 1,0 9,0 10,0 1,0 1,0 2,-1 1,0 2,-1 2,-2 0,0 20,-44 21,-47 0,-1 0,-1 0,-7 0,-7 0,-7 0,-8 0,-1 -1,-1 -1,-2 -1,-1 -2,-1 -3,-1 -1,-1 -2,-1 -4,0 -1,0 -1,0 -2,1 -1,1 -1,1 -2,2 0,1 0,2 0,7l0 4 -9 21c-5,11 -9,20 -9,20 0,0 -4,-9 -9,-20l-9 -21 0 -4c0,-5 0,-6 0,-7 0,0 -1,0 -1,-1 0,0 -1,-2 -2,-2 -1,-1 -3,-1 -4,-1l0 0z"/>
   <path id="4" fill="white" fill-rule="nonzero" d="M1122 1799c-3,1 -6,2 -9,4 -1,1 -6,5 -6,6 -3,3 -5,6 -5,10 -1,1 -1,2 -1,15 0,11 0,13 1,14 0,4 2,8 5,11 0,1 5,5 6,5 2,2 5,3 7,4 2,0 2,0 12,0 9,0 9,0 11,0 3,-1 6,-2 8,-4 1,-1 5,-4 6,-5 2,-3 4,-6 5,-10 0,-2 0,-2 0,-15 0,-12 0,-14 0,-15 -1,-4 -2,-8 -5,-11 -1,0 -4,-3 -6,-5 -2,-1 -4,-2 -5,-3 -1,0 -3,0 -4,-1 -1,0 -2,0 -10,0 -7,0 -9,0 -10,0zm19 13c0,0 1,0 2,1 0,0 5,4 5,5 1,0 1,1 2,2 0,0 0,1 0,14l0 13 -1 1c0,2 0,2 -3,5 -3,2 -3,2 -4,2 -1,1 -1,1 -10,1 -10,0 -9,0 -11,-1 0,0 -1,0 -3,-2 -3,-3 -3,-3 -4,-4 0,-1 0,0 0,-15l0 -14 0 -1c1,-1 1,-1 4,-4l2 -2c1,-1 2,-1 2,-1 1,0 1,0 10,0 8,0 8,0 9,0l0 0z"/>
   <path id="text_7__22" fill="white" fill-rule="nonzero" d="M150 2059c-2,0 -4,1 -6,2 -1,1 -7,7 -8,7 -1,2 -2,4 -3,7 0,0 0,1 0,6 0,6 0,6 0,7 1,2 2,4 3,5 1,1 8,6 8,7 2,1 4,2 6,2 1,0 17,0 18,0 2,0 3,-2 3,-4 0,-1 -1,-3 -2,-3 -1,0 0,0 -10,0 -8,0 -9,0 -9,-1 0,0 -1,0 -1,0 0,0 -2,-2 -4,-3 -2,-2 -3,-3 -3,-3 -1,-1 -1,-1 -1,-2 0,0 0,-1 0,-5l0 -6 0 0c0,0 0,-1 1,-1 0,0 1,-1 3,-3 2,-2 4,-3 4,-4 0,0 1,0 1,0l0 0 9 0c10,0 9,0 10,-1 1,0 2,-2 2,-3 0,-2 -1,-3 -3,-4 -1,0 -17,0 -18,0l0 0z"/>
   <path id="text_7__23" fill="white" fill-rule="nonzero" d="M222 2054c-1,0 -2,0 -2,1 -1,0 -1,1 -1,1 0,1 0,1 0,7l0 6 -6 0 -6 0 -1 0c-1,0 -3,2 -3,4 0,1 2,3 3,3l1 0 6 0 6 0 0 6c0,6 0,6 0,7 0,1 0,1 1,1 0,1 1,1 1,1 1,1 2,1 3,0 1,0 1,-1 2,-2 0,0 0,0 0,-7l0 -6 6 0c5,0 6,0 6,0 2,0 3,-2 3,-3 0,-2 -1,-4 -3,-4 0,0 -1,0 -6,0l-6 0 0 -6c0,-7 0,-6 0,-7 -1,-1 -1,-2 -2,-2 0,0 0,0 -1,0 0,0 -1,0 -1,0l0 0z"/>
   <path id="text_7__24" fill="white" fill-rule="nonzero" d="M282 2069c-1,0 -2,0 -2,1 -1,0 -1,1 -1,1 -1,1 -1,1 -1,3 0,2 0,2 1,3 0,0 0,1 0,1 0,0 1,1 1,1 1,0 1,1 2,1 0,0 4,0 16,0 14,0 15,0 15,0 1,-1 2,-1 2,-1 0,-1 1,-1 1,-2 0,0 0,0 0,-3 0,-2 0,-2 0,-3 0,-1 -1,-1 -1,-1 0,-1 -1,-1 -2,-1 0,0 -1,0 -16,0 -12,0 -15,0 -15,0l0 0z"/>
   <path id="text_7__25" fill="white" fill-rule="nonzero" d="M436 2059c-2,0 -4,1 -6,2 0,1 -7,7 -8,7 -1,2 -2,4 -3,7 0,0 0,1 0,6 0,6 0,6 1,7 0,2 1,4 3,5 0,1 7,6 7,7 2,1 4,2 6,2 1,0 17,0 18,0 2,0 3,-2 3,-4 0,-1 -1,-3 -2,-3 -1,0 0,0 -10,0 -8,0 -8,0 -9,-1 0,0 -1,0 -1,0 0,0 -2,-2 -4,-3 -2,-2 -3,-3 -3,-3 -1,-1 -1,-1 -1,-2 0,0 0,-1 0,-5l0 -6 0 0c0,0 0,-1 1,-1 0,0 1,-1 3,-3 2,-2 4,-3 4,-4 0,0 1,0 1,0l1 0 8 0c10,0 9,0 10,-1 1,0 2,-2 2,-3 0,-2 -1,-3 -3,-4 -1,0 -17,0 -18,0l0 0z"/>
   <path id="text_7__26" fill="white" fill-rule="nonzero" d="M508 2054c-1,0 -1,0 -2,1 -1,0 -1,1 -1,1 0,1 0,1 0,7l0 6 -6 0 -6 0 -1 0c-1,0 -2,2 -2,4 0,1 1,3 2,3l1 0 6 0 6 0 0 6c0,6 0,6 0,7 0,1 0,1 1,1 0,1 1,1 1,1 1,1 2,1 3,0 1,0 2,-1 2,-2 0,0 0,0 0,-7l0 -6 6 0c5,0 6,0 6,0 2,0 3,-2 3,-3 0,-2 -1,-4 -3,-4 0,0 -1,0 -6,0l-6 0 0 -6c0,-7 0,-6 0,-7 0,-1 -1,-2 -2,-2 0,0 0,0 0,0 -1,0 -2,0 -2,0l0 0z"/>
   <path id="text_7__27" fill="white" fill-rule="nonzero" d="M568 2069c-1,0 -2,0 -2,1 -1,0 -1,1 -1,1 0,1 0,1 0,3 0,2 0,2 0,3 0,0 0,1 0,1 0,0 1,1 1,1 1,0 1,1 2,1 0,0 4,0 16,0 15,0 15,0 16,0 0,-1 1,-1 1,-1 0,-1 1,-1 1,-2 0,0 0,0 0,-3 0,-2 0,-2 0,-3 0,-1 -1,-1 -1,-1 0,-1 -1,-1 -1,-1 -1,0 -1,0 -16,0 -13,0 -16,0 -16,0l0 0z"/>
   <path id="text_7__28" fill="white" fill-rule="nonzero" d="M715 2062c-2,1 -4,1 -5,3 -1,0 -8,6 -8,6 -2,2 -3,4 -3,7 -1,1 -1,1 -1,6 0,6 0,6 1,7 0,2 1,4 3,6 0,0 7,6 8,6 1,1 3,2 5,2 1,1 18,1 18,0 2,0 3,-1 3,-3 0,-2 -1,-3 -2,-4 -1,0 0,0 -10,0 -8,0 -8,0 -9,0 0,0 0,-1 -1,-1 0,0 -2,-1 -3,-3 -3,-2 -4,-3 -4,-3 0,-1 -1,-1 -1,-2 0,0 0,0 0,-5l0 -5 0 -1c0,0 1,-1 1,-1 0,0 1,-1 4,-3 1,-2 3,-3 3,-3 1,-1 1,-1 1,-1l1 0 8 0c10,0 9,0 10,0 1,-1 2,-2 2,-4 0,-2 -1,-3 -3,-4 0,0 -17,0 -18,0l0 0z"/>
   <path id="text_7__29" fill="white" fill-rule="nonzero" d="M787 2057c-1,0 -1,0 -2,1 0,1 -1,1 -1,1 0,1 0,1 0,7l0 6 -6 0 -6 0 0 0c-2,1 -3,2 -3,4 0,2 1,3 3,4l0 0 6 0 6 0 0 5c0,7 0,7 0,7 0,1 1,1 1,2 1,0 1,0 1,1 1,0 2,0 3,-1 1,0 2,-1 2,-1 1,-1 1,-1 1,-7l0 -6 5 0c5,0 6,0 6,0 2,-1 4,-2 4,-4 0,-2 -2,-4 -4,-4 0,0 -1,0 -6,0l-5 0 0 -6c0,-7 0,-6 -1,-7 0,-1 -1,-1 -2,-2 0,0 0,0 0,0 -1,0 -2,0 -2,0l0 0z"/>
   <path id="text_7__30" fill="white" fill-rule="nonzero" d="M847 2072c-1,0 -1,1 -2,1 -1,1 -1,1 -1,2 0,0 0,0 0,2 0,3 0,3 0,3 0,1 0,1 0,1 1,0 1,1 2,1 0,1 1,1 1,1 0,0 4,0 16,0 15,0 15,0 16,0 0,0 1,-1 1,-1 1,0 1,-1 1,-1 1,-1 1,-1 1,-4 0,-2 0,-2 -1,-3 0,0 0,-1 -1,-1 0,0 -1,-1 -1,-1 -1,0 -1,0 -16,0 -13,0 -16,0 -16,0l0 0z"/>
   <path id="text_7__31" fill="white" fill-rule="nonzero" d="M1001 2062c-2,1 -4,1 -5,3 -1,0 -8,6 -8,6 -2,2 -3,4 -3,7 0,1 0,1 0,6 0,6 0,6 0,7 0,2 2,4 3,6 1,0 7,6 8,6 1,1 3,2 5,2 1,1 18,1 18,0 2,0 3,-1 3,-3 0,-2 -1,-3 -2,-4 -1,0 0,0 -9,0 -9,0 -9,0 -9,0 -1,0 -1,-1 -2,-1 0,0 -1,-1 -3,-3 -3,-2 -4,-3 -4,-3 0,-1 0,-1 -1,-2 0,0 0,0 0,-5l0 -5 0 -1c1,0 1,-1 1,-1 0,0 1,-1 4,-3 2,-2 3,-3 3,-3 1,-1 1,-1 2,-1l0 0 9 0c9,0 8,0 9,0 1,-1 2,-2 2,-4 0,-2 -1,-3 -3,-4 0,0 -17,0 -18,0l0 0z"/>
   <path id="text_7__32" fill="white" fill-rule="nonzero" d="M1073 2057c-1,0 -1,0 -2,1 0,1 -1,1 -1,1 0,1 0,1 0,7l0 6 -6 0 -6 0 0 0c-2,1 -3,2 -3,4 0,2 1,3 3,4l0 0 6 0 6 0 0 5c0,7 0,7 0,7 0,1 1,1 1,2 1,0 1,0 2,1 1,0 2,0 3,-1 0,0 1,-1 1,-1 1,-1 1,-1 1,-7l0 -6 6 0c4,0 5,0 6,0 1,-1 3,-2 3,-4 0,-2 -2,-4 -3,-4 -1,0 -2,0 -6,0l-6 0 0 -6c0,-7 0,-6 -1,-7 0,-1 -1,-1 -1,-2 -1,0 -1,0 -1,0 -1,0 -1,0 -2,0l0 0z"/>
   <path id="text_7__33" fill="white" fill-rule="nonzero" d="M1133 2072c-1,0 -1,1 -2,1 0,1 -1,1 -1,2 0,0 0,0 0,2 0,3 0,3 0,3 0,1 0,1 0,1 1,0 1,1 2,1 0,1 1,1 1,1 0,0 4,0 16,0 15,0 16,0 16,0 0,0 1,-1 1,-1 1,0 1,-1 1,-1 1,-1 1,-1 1,-4 0,-2 0,-2 -1,-3 0,0 0,-1 -1,-1 0,0 -1,-1 -1,-1 0,0 -1,0 -16,0 -13,0 -16,0 -16,0l0 0z"/>
   <path id="text_7__34" fill="white" fill-rule="nonzero" d="M1271 2065c-2,0 -4,1 -5,2 -1,1 -8,7 -8,7 -2,2 -3,4 -3,7 0,0 0,1 0,6 0,6 0,6 0,7 1,2 2,4 3,5 1,1 7,7 8,7 1,1 3,2 5,2 1,0 18,0 18,0 2,0 3,-2 3,-4 0,-1 0,-3 -2,-3 -1,0 0,0 -9,0 -9,0 -9,0 -9,-1 -1,0 -1,0 -2,0 0,0 -1,-2 -3,-3 -3,-2 -4,-3 -4,-3 0,-1 0,-1 -1,-2 0,0 0,0 0,-5l0 -6 0 0c1,0 1,-1 1,-1 0,0 1,-1 4,-3 2,-2 3,-3 3,-4 1,0 1,0 2,0l0 0 9 0c9,0 8,0 9,0 2,-1 2,-3 2,-4 0,-2 -1,-3 -3,-4 0,0 -17,0 -18,0l0 0z"/>
   <path id="text_7__35" fill="white" fill-rule="nonzero" d="M1343 2060c-1,0 -1,0 -2,1 0,0 0,1 -1,1 0,1 0,1 0,7l0 6 -6 0 -6 0 0 0c-2,0 -3,2 -3,4 0,1 1,3 3,3l0 0 6 0 6 0 0 6c0,6 0,6 0,7 1,1 1,1 1,1 1,1 1,1 2,1 1,1 2,1 3,0 0,0 1,-1 1,-2 1,0 1,0 1,-7l0 -6 6 0c4,0 5,0 6,0 2,0 3,-2 3,-3 0,-2 -1,-4 -3,-4 -1,0 -2,0 -6,0l-6 0 0 -6c0,-7 0,-6 -1,-7 0,-1 -1,-1 -1,-2 -1,0 -1,0 -1,0 0,0 -1,0 -2,0l0 0z"/>
   <path id="text_7__36" fill="white" fill-rule="nonzero" d="M1403 2075c-1,0 -1,0 -2,1 0,0 -1,1 -1,1 0,1 0,1 0,3 0,2 0,3 0,3 0,0 0,1 1,1 0,0 1,1 1,1 0,0 1,1 1,1 1,0 5,0 16,0 15,0 16,0 16,0 0,-1 1,-1 1,-1 1,-1 1,-1 1,-1 1,-1 1,-1 1,-4 0,-2 0,-2 -1,-3 0,-1 0,-1 -1,-1 0,-1 -1,-1 -1,-1 0,0 -1,0 -16,0 -13,0 -16,0 -16,0l0 0z"/>
   <path id="text_7__37" fill="white" fill-rule="nonzero" d="M1557 2065c-2,0 -4,1 -5,2 -1,1 -8,7 -8,7 -2,2 -3,4 -3,7 0,0 0,1 0,6 0,6 0,6 0,7 1,2 2,4 3,5 1,1 7,7 8,7 2,1 3,2 6,2 0,0 17,0 17,0 2,0 4,-2 4,-4 0,-1 -1,-3 -3,-3 0,0 0,0 -9,0 -8,0 -9,0 -9,-1 -1,0 -1,0 -1,0 0,0 -2,-2 -4,-3 -2,-2 -4,-3 -4,-3 0,-1 0,-1 0,-2 0,0 0,0 0,-5l0 -6 0 0c0,0 0,-1 0,-1 0,0 1,-1 4,-3 2,-2 4,-3 4,-4 0,0 0,0 1,0l0 0 9 0c9,0 9,0 9,0 2,-1 3,-3 3,-4 0,-2 -2,-3 -4,-4 0,0 -17,0 -18,0l0 0z"/>
   <path id="text_7__38" fill="white" fill-rule="nonzero" d="M1629 2060c0,0 -1,0 -2,1 0,0 0,1 0,1 -1,1 -1,1 -1,7l0 6 -6 0 -6 0 0 0c-2,0 -3,2 -3,4 0,1 1,3 3,3l0 0 6 0 6 0 0 6c0,6 0,6 1,7 0,1 0,1 0,1 1,1 1,1 2,1 1,1 2,1 3,0 1,0 1,-1 2,-2 0,0 0,0 0,-7l0 -6 6 0c5,0 6,0 6,0 2,0 3,-2 3,-3 0,-2 -1,-4 -3,-4 0,0 -1,0 -6,0l-6 0 0 -6c0,-7 0,-6 0,-7 -1,-1 -1,-1 -2,-2 0,0 -1,0 -1,0 0,0 -1,0 -2,0l0 0z"/>
   <path id="text_7__39" fill="white" fill-rule="nonzero" d="M1689 2075c-1,0 -1,0 -2,1 0,0 0,1 -1,1 0,1 0,1 0,3 0,2 0,3 0,3 0,0 1,1 1,1 0,0 1,1 1,1 0,0 1,1 1,1 1,0 5,0 16,0 15,0 16,0 16,0 1,-1 1,-1 2,-1 0,-1 0,-1 1,-1 0,-1 0,-1 0,-4 0,-2 0,-2 0,-3 -1,-1 -1,-1 -1,-1 -1,-1 -1,-1 -2,-1 0,0 -1,0 -16,0 -13,0 -15,0 -16,0l0 0z"/>
   <rect fill="black" x="469" y="321" width="91.0215" height="163.837" rx="7" ry="23"/>
   <rect fill="black" x="746" y="321" width="91.0215" height="163.837" rx="7" ry="23"/>
   <rect fill="black" x="838" y="321" width="91.0215" height="163.837" rx="7" ry="23"/>
   <rect fill="black" x="561" y="321" width="91.0215" height="163.837" rx="7" ry="23"/>
   <rect fill="black" x="654" y="321" width="91.0215" height="163.837" rx="7" ry="23"/>
   <rect fill="black" x="101" y="2128" width="91.0215" height="163.837" rx="7" ry="23"/>
   <rect fill="black" x="193" y="2128" width="91.0215" height="163.837" rx="7" ry="23"/>
   <rect fill="black" x="286" y="2128" width="91.0215" height="163.837" rx="7" ry="23"/>
   <rect fill="black" x="378" y="2128" width="91.0215" height="163.837" rx="7" ry="23"/>
   <rect fill="black" x="471" y="2128" width="91.0215" height="163.837" rx="7" ry="23"/>
   <rect fill="black" x="563" y="2128" width="91.0215" height="163.837" rx="7" ry="23"/>
   <rect fill="black" x="656" y="2128" width="91.0215" height="163.837" rx="7" ry="23"/>
   <rect fill="black" x="748" y="2128" width="91.0215" height="163.837" rx="7" ry="23"/>
   <rect fill="black" x="656" y="2128" width="91.0215" height="163.837" rx="7" ry="23"/>
   <rect fill="black" x="748" y="2128" width="91.0215" height="163.837" rx="7" ry="23"/>
   <rect fill="black" x="840" y="2128" width="91.0215" height="163.837" rx="7" ry="23"/>
   <rect fill="black" x="933" y="2128" width="91.0215" height="163.837" rx="7" ry="23"/>
   <rect fill="black" x="1025" y="2128" width="91.0215" height="163.837" rx="7" ry="23"/>
   <rect fill="black" x="1118" y="2128" width="91.0215" height="163.837" rx="7" ry="23"/>
   <rect fill="black" x="1210" y="2128" width="91.0215" height="163.837" rx="7" ry="23"/>
   <rect fill="black" x="1303" y="2128" width="91.0215" height="163.837" rx="7" ry="23"/>
   <rect fill="black" x="1395" y="2128" width="91.0215" height="163.837" rx="7" ry="23"/>
   <rect fill="black" x="1488" y="2128" width="91.0215" height="163.837" rx="7" ry="23"/>
   <rect fill="black" x="1580" y="2128" width="91.0215" height="163.837" rx="7" ry="23"/>
   <rect fill="black" x="1673" y="2128" width="91.0215" height="163.837" rx="7" ry="23"/>
   <rect fill="black" x="931" y="321" width="91.0215" height="163.837" rx="7" ry="23"/>
   <g id="copper1">
    <rect id="connector0pin" fill="#8C8C8C" x="408" width="27.7424" height="374.637" rx="2" ry="52"/>
    <rect id="connector1pin" fill="#8C8C8C" x="500" width="27.7424" height="374.637" rx="2" ry="52"/>
    <rect id="connector4pin" fill="#8C8C8C" x="778" width="27.7424" height="374.637" rx="2" ry="52"/>
    <rect id="connector5pin" fill="#8C8C8C" x="870" width="27.7424" height="374.637" rx="2" ry="52"/>
    <rect id="connector2pin" fill="#8C8C8C" x="593" width="27.7424" height="374.637" rx="2" ry="52"/>
    <rect id="connector3pin" fill="#8C8C8C" x="685" width="27.7424" height="374.637" rx="2" ry="52"/>
    <rect id="connector9pin" fill="#8C8C8C" x="132" y="2245" width="27.7424" height="374.651" rx="2" ry="52"/>
    <rect id="connector10pin" fill="#8C8C8C" x="225" y="2245" width="27.7424" height="374.651" rx="2" ry="52"/>
    <rect id="connector11pin" fill="#8C8C8C" x="317" y="2245" width="27.7424" height="374.651" rx="2" ry="52"/>
    <rect id="connector12pin" fill="#8C8C8C" x="410" y="2245" width="27.7424" height="374.651" rx="2" ry="52"/>
    <rect id="connector13pin" fill="#8C8C8C" x="502" y="2245" width="27.7424" height="374.651" rx="2" ry="52"/>
    <rect id="connector14pin" fill="#8C8C8C" x="595" y="2245" width="27.7424" height="374.651" rx="2" ry="52"/>
    <rect id="connector15pin" fill="#8C8C8C" x="687" y="2245" width="27.7424" height="374.651" rx="2" ry="52"/>
    <rect id="connector16pin" fill="#8C8C8C" x="780" y="2245" width="27.7424" height="374.651" rx="2" ry="52"/>
    <rect id="connector17pin" fill="#8C8C8C" x="872" y="2245" width="27.7424" height="374.651" rx="2" ry="52"/>
    <rect id="connector18pin" fill="#8C8C8C" x="965" y="2245" width="27.7424" height="374.651" rx="2" ry="52"/>
    <rect id="connector19pin" fill="#8C8C8C" x="1057" y="2245" width="27.7424" height="374.651" rx="2" ry="52"/>
    <rect id="connector20pin" fill="#8C8C8C" x="1150" y="2245" width="27.7424" height="374.651" rx="2" ry="52"/>
    <rect id="connector21pin" fill="#8C8C8C" x="1242" y="2245" width="27.7424" height="374.651" rx="2" ry="52"/>
    <rect id="connector22pin" fill="#8C8C8C" x="1334" y="2245" width="27.7424" height="374.651" rx="2" ry="52"/>
    <rect id="connector23pin" fill="#8C8C8C" x="1427" y="2245" width="27.7424" height="374.651" rx="2" ry="52"/>
    <rect id="connector24pin" fill="#8C8C8C" x="1519" y="2245" width="27.7424" height="374.651" rx="2" ry="52"/>
    <rect id="connector25pin" fill="#8C8C8C" x="1612" y="2245" width="27.7424" height="374.651" rx="2" ry="52"/>
    <rect id="connector26pin" fill="#8C8C8C" x="1704" y="2245" width="27.7424" height="374.651" rx="2" ry="52"/>
    <rect id="connector6pin" fill="#8C8C8C" x="963" width="27.7424" height="374.637" rx="2" ry="52"/>
    <circle id="connector7pin" fill="#9A916C" stroke="black" stroke-width="9.10201" cx="1318" cy="473" r="61"/>
    <circle id="connector8pin" fill="#9A916C" stroke="black" stroke-width="9.10201" cx="1479" cy="473" r="61"/>
   </g>
  </g>
 </g>
</svg>
