<?xml version="1.0" encoding="UTF-8"?>
<!DOCTYPE svg PUBLIC "-//W3C//DTD SVG 1.1//EN" "http://www.w3.org/Graphics/SVG/1.1/DTD/svg11.dtd">
<!-- Creator: CorelDRAW Home & Student 2014 -->
<svg xmlns="http://www.w3.org/2000/svg" xml:space="preserve" width="49.9554mm" height="71.9438mm" version="1.1" shape-rendering="geometricPrecision" text-rendering="geometricPrecision" image-rendering="optimizeQuality" fill-rule="evenodd" clip-rule="evenodd"
viewBox="0 0 4996 7194"
 xmlns:xlink="http://www.w3.org/1999/xlink">
 <g id="Layer_x0020_1">
  <metadata id="CorelCorpID_0Corel-Layer"/>
  <g id="breadboard">
   <path fill="#00A63D" d="M132 860l4732 0c73,0 132,59 132,131l0 5199c0,73 -59,132 -132,132l-4732 0c-73,0 -132,-59 -132,-132l0 -5199c0,-72 59,-131 132,-131z"/>
   <circle id="hole_6_" fill="white" stroke="#47CC79" stroke-width="49.99" cx="343" cy="1305" r="168"/>
   <path id="text_7_" fill="white" fill-rule="nonzero" d="M626 1167c-5,3 -11,6 -16,11 -3,0 -6,6 -17,19 -8,11 -14,20 -16,20 -3,5 -6,11 -6,19 0,3 0,58 0,60 0,11 6,19 14,25 3,0 8,3 11,3 3,0 3,0 25,0 22,0 22,0 24,0 9,0 20,-9 22,-17 3,-3 3,-5 3,-11 0,0 0,-2 0,-22l0 -22 -19 0c-22,0 -22,0 -25,0 0,3 0,3 -3,3 0,3 -2,3 -2,6 0,2 0,2 0,5 0,3 2,3 2,3 3,3 3,3 3,3 3,2 3,2 14,2l11 0 0 11c0,11 0,11 0,14 -3,0 -3,3 -6,3 -2,3 0,3 -24,3 -25,0 -22,0 -25,-3 -3,0 -3,-3 -6,-6 0,0 0,-2 0,-30l0 -30 0 0c3,-3 3,-6 6,-8 0,0 5,-9 14,-20 16,-19 13,-19 16,-19 3,0 0,0 19,0 20,0 17,0 20,-3 2,0 5,-5 5,-8 0,-5 -3,-8 -8,-11 0,0 -3,0 -17,0 -16,0 -16,0 -19,0l0 0 0 0z"/>
   <path id="_1" fill="white" fill-rule="nonzero" d="M722 1241c0,80 0,74 0,77 0,0 3,3 3,3 3,3 3,3 6,3 0,0 2,0 5,0 3,-3 6,-3 6,-8 0,0 0,-3 0,-55l0 -58 27 60 27 61 14 0 11 0 0 -74c0,-72 0,-75 0,-75 0,-2 -3,-5 -5,-5 -3,-3 -6,-3 -6,-3 -3,3 -3,3 -5,3 0,3 -3,3 -3,5 0,0 0,6 0,58l0 55 -25 -58 -27 -60 0 -3 -14 0 -14 0 0 74 0 0z"/>
   <path id="_2" fill="white" fill-rule="nonzero" d="M882 1167c-3,0 -6,3 -9,6 0,2 0,5 0,8 3,3 6,5 9,5 0,3 0,3 5,3l6 0 0 58 0 57 -6 0c-5,0 -5,0 -5,0 -6,0 -9,6 -9,11 0,3 3,9 9,9l0 0 22 0c19,0 19,0 22,0 5,0 11,-3 13,-6 3,-3 6,-5 8,-8 0,0 6,-11 11,-22 14,-25 14,-25 14,-30 0,-6 3,-8 3,-11 0,-6 -3,-8 -3,-11 0,-6 0,-6 -14,-30 -5,-14 -11,-22 -11,-25 -5,-6 -13,-11 -21,-14 -3,0 -6,0 -22,0 -11,0 -22,0 -22,0l0 0 0 0zm41 22c3,0 5,0 5,3 3,0 3,3 19,36 3,8 3,8 6,11 0,2 0,5 0,8 0,3 0,5 0,8 -3,0 -3,3 -6,11 -16,30 -16,33 -19,33 0,3 -2,3 -2,3 -3,3 -3,3 -9,3l-2 0 0 -58 0 -58 2 0c6,0 6,0 6,0l0 0z"/>
   <path id="text_6_" fill="white" fill-rule="nonzero" d="M330 3331c-6,3 -14,6 -17,11 -5,11 -5,22 0,30 0,0 19,25 41,55 25,31 44,55 44,55 0,3 0,3 -3,3l0 0 -30 0 -27 0 -3 0c0,0 -3,-3 -3,-3 0,-2 -2,-2 -2,-2 0,-6 0,-9 -3,-9 -3,-2 -6,-5 -8,-5 0,0 0,3 -3,3 -3,0 -3,0 -6,2 -2,3 -2,6 -2,11 0,6 2,14 8,17 5,5 11,8 19,11 3,0 6,0 33,0 33,0 30,0 33,0 14,-6 22,-17 19,-30 0,-3 0,-9 -3,-11 0,0 -19,-25 -44,-55 -21,-31 -41,-55 -41,-55 -2,0 -2,-3 0,-3l0 0 30 0 31 0 0 0c2,0 2,3 5,3 0,3 0,3 0,3 0,5 0,8 3,8 3,3 3,3 5,3 0,2 3,2 3,2 3,0 6,-2 8,-5 3,-3 3,-6 3,-11 0,-6 -3,-14 -8,-17 -6,-5 -11,-8 -19,-11 0,0 -6,0 -30,0 -25,0 -31,0 -33,0l0 0 0 0z"/>
   <path id="_1_0" fill="white" fill-rule="nonzero" d="M519 3381c-8,0 -14,2 -19,8 -3,3 -11,8 -11,8 -6,6 -8,14 -8,19 0,3 0,3 0,28 0,22 0,27 0,27 0,9 2,14 8,20 0,2 11,11 11,11 5,5 11,8 19,8 3,0 63,0 63,0 6,-3 11,-6 11,-11 0,-6 -3,-11 -8,-11 -3,-3 0,0 -33,-3l-33 0 0 0c-3,0 -3,0 -8,-5 -6,-3 -6,-6 -8,-6 0,-3 0,-3 0,-8l0 -6 41 0c38,0 38,0 41,0 0,0 3,0 3,-2 2,0 2,-3 2,-3 3,-3 3,0 3,-19 0,-17 0,-17 0,-22 -3,-6 -5,-11 -11,-17 0,0 -5,-5 -11,-8 -3,-6 -8,-8 -14,-8 -2,0 -2,0 -21,0 -11,0 -17,0 -17,0l0 0zm33 22c3,2 6,2 8,5 3,3 6,6 6,6 2,0 2,2 2,2 0,3 0,3 0,11l0 11 -32 0 -33 0 0 -11 0 -8 0 0c0,-3 2,-3 2,-5 0,0 3,-3 6,-6 5,-3 5,-3 8,-5 0,0 0,0 17,0l16 0 0 0 0 0z"/>
   <path id="_2_1" fill="white" fill-rule="nonzero" d="M659 3381c0,0 -3,0 -5,2 0,3 -3,3 -3,6 0,3 0,110 0,110 0,3 3,5 3,8 2,0 2,0 5,3 3,0 6,0 8,-3 3,0 6,-3 6,-3 0,-2 0,0 0,-35l0 -33 19 -17 19 -16 11 0c11,0 11,0 14,2 0,0 3,0 3,3 0,0 3,0 3,3l0 0 0 5c0,6 0,6 0,9 2,2 5,8 10,8 6,0 11,-6 11,-11 0,0 0,-8 0,-11 0,-14 -11,-28 -24,-30 -6,0 -6,0 -19,0 -14,0 -14,0 -14,0 -3,0 -3,0 -6,0 0,2 -5,8 -13,13 -6,6 -14,11 -14,11 0,0 0,-2 0,-8 0,-8 0,-8 0,-8 0,-3 0,-3 0,-3 0,-3 -3,-3 -6,-5 -2,0 -5,0 -8,0l0 0 0 0z"/>
   <path id="_3" fill="white" fill-rule="nonzero" d="M832 3381c-3,0 -5,0 -5,2 -3,3 -3,3 -3,6 0,0 0,0 0,14 0,11 0,11 0,13 3,3 38,88 38,88 0,0 3,3 3,3 3,0 3,3 6,3 0,0 16,0 16,0 3,0 3,-3 6,-3 0,0 2,-3 2,-3 0,0 39,-85 39,-88 3,-2 3,-2 3,-13 0,-14 0,-14 -3,-14 0,-3 0,-3 0,-6 -3,-2 -3,-2 -6,-2 -2,0 -5,0 -8,0 0,0 -3,0 -3,2 -2,3 -2,3 -2,6 -3,0 -3,0 -3,11l0 8 -17 39c-8,22 -16,38 -16,38 0,0 -8,-16 -17,-38l-16 -39 0 -8c0,-11 0,-11 0,-11 0,-3 -3,-3 -3,-3 0,-3 -3,-3 -3,-5 -2,0 -5,0 -8,0l0 0 0 0z"/>
   <path id="_4" fill="white" fill-rule="nonzero" d="M1033 3381c-6,0 -11,2 -17,5 -3,3 -11,11 -14,11 -2,6 -8,14 -8,19 0,3 0,3 0,28 0,22 0,27 0,27 0,9 6,14 8,20 3,2 11,11 14,11 3,2 8,5 14,8 3,0 3,0 22,0 16,0 16,0 19,0 6,-3 11,-6 17,-8 2,-3 8,-9 11,-9 5,-5 8,-13 8,-22 0,0 0,-2 0,-27 0,-19 0,-25 0,-28 0,-5 -3,-13 -8,-19 -3,0 -9,-5 -11,-11 -3,0 -9,-3 -11,-3 -3,-2 -6,-2 -6,-2 -3,0 -3,0 -19,0 -14,0 -19,0 -19,0l0 0zm35 22c0,0 3,2 3,2 3,0 11,9 11,9 0,2 3,2 3,5 0,0 0,3 0,25l0 27 0 0c-3,3 -3,3 -8,9 -6,5 -6,5 -6,5 -3,0 -3,0 -19,0 -19,0 -19,0 -19,0 -3,0 -3,0 -9,-5 -5,-3 -5,-6 -5,-6 -3,-3 -3,0 -3,-30l0 -25 3 0c0,-3 0,-5 5,-8l6 -6c0,0 3,0 3,-2 2,0 2,0 19,0 14,0 16,0 16,0l0 0 0 0z"/>
   <path id="_5" fill="white" fill-rule="nonzero" d="M1359 3331c-8,3 -13,6 -16,11 -8,11 -8,22 -3,30 3,0 22,25 44,55 25,31 44,55 44,55 0,3 0,3 -3,3l0 0 -30 0 -27 0 -3 0c-3,0 -3,-3 -3,-3 -3,-2 -3,-2 -3,-2 0,-6 0,-9 -2,-9 -3,-2 -6,-5 -9,-5 0,0 -2,3 -2,3 -3,0 -3,0 -6,2 -3,3 -3,6 -3,11 0,6 3,14 9,17 5,5 11,8 19,11 0,0 5,0 30,0 33,0 33,0 36,0 14,-6 22,-17 19,-30 0,-3 -3,-9 -3,-11 0,0 -22,-25 -44,-55 -24,-31 -44,-55 -44,-55 0,0 0,-3 3,-3l0 0 30 0 31 0 0 0c2,0 2,3 5,3 0,3 0,3 0,3 0,5 0,8 3,8 3,3 3,3 5,3 0,2 3,2 3,2 3,0 6,-2 8,-5 3,-3 3,-6 3,-11 0,-6 -3,-14 -8,-17 -6,-5 -11,-8 -19,-11 0,0 -6,0 -31,0 -24,0 -30,0 -33,0l0 0 0 0z"/>
   <path id="_6" fill="white" fill-rule="nonzero" d="M1530 3381c-6,0 -9,2 -9,8 -2,5 0,11 9,14l0 0 11 0 13 0 0 41 0 41 -13 0 -11 3 0 0c-6,0 -9,5 -9,11 0,5 3,8 9,11l0 0 35 0 36 0 0 0c6,-3 8,-3 8,-6 0,-2 3,-2 3,-5 0,-3 -3,-6 -3,-6 0,-2 -2,-5 -8,-5l0 0 -11 -3 -14 0 0 -47c0,-46 0,-49 0,-49 0,-3 0,-3 -2,-6 0,0 -3,0 -3,-2 -3,0 0,0 -22,0 -11,0 -19,0 -19,0l0 0 0 0zm22 -58c-3,0 -3,0 -6,3 -3,0 -3,3 -3,3 0,2 0,2 0,11 0,5 0,5 0,8 0,0 0,3 3,3 3,2 3,2 6,2 0,3 2,3 8,3 8,0 8,0 11,-3 3,0 3,-2 5,-5 0,-3 0,-3 0,-8 0,-9 0,-9 0,-11 -2,-3 -2,-3 -5,-6 -3,0 -3,0 -11,0 -6,0 -8,0 -8,0l0 0z"/>
   <path id="_7" fill="white" fill-rule="nonzero" d="M1692 3381c-3,0 -6,2 -9,5 0,3 0,3 0,6 0,0 0,2 0,5 0,0 6,8 20,25 11,11 19,22 19,22 0,0 -8,11 -19,22 -11,14 -20,25 -20,25 -2,2 -2,8 -2,11 2,8 13,11 19,5 0,0 8,-11 19,-22l17 -22 2 -3 17 22c11,14 19,22 19,22 3,6 11,6 17,3 2,-5 5,-11 0,-16 0,0 -9,-11 -20,-25 -11,-11 -19,-22 -19,-22 0,0 8,-11 19,-22 14,-17 20,-25 20,-25 0,-3 0,-5 0,-5 0,-9 -9,-14 -17,-11 0,0 -3,2 -3,2 0,0 -8,11 -16,22 -11,11 -17,20 -17,20 0,0 -2,0 -19,-20 -8,-11 -16,-22 -16,-22 0,0 -3,-2 -6,-2 0,0 -3,0 -5,0l0 0 0 0z"/>
   <path id="_8" fill="white" fill-rule="nonzero" d="M2024 3422l0 88 36 0c35,0 35,0 38,0 8,-3 17,-6 22,-11 3,0 6,-6 6,-6 5,-8 11,-16 11,-24 0,0 0,-3 0,-9 0,-8 0,-8 0,-11 0,-8 -3,-13 -9,-19 0,-3 -2,-5 -5,-8l0 0 0 -3c8,-8 14,-16 14,-27 0,-3 0,-17 0,-20 0,-5 -3,-13 -9,-19 0,-2 -2,-5 -5,-8 -6,-5 -14,-11 -25,-14l-3 0 -35 0 -36 0 0 91zm71 -66c3,0 3,0 6,0 8,5 11,11 14,16 0,3 0,3 0,9 0,5 0,8 0,11 -3,8 -11,13 -20,16l-2 0 -22 0 -25 0 0 -27 0 -25 25 0 22 0 2 0 0 0zm0 77c3,0 3,0 6,3 8,2 11,8 14,16 0,0 0,0 0,8 0,6 0,6 0,9 -3,2 -3,2 -3,5 -3,6 -8,11 -17,11l-2 0 -22 0 -25 0 0 -25 0 -27 25 0 22 0 2 0 0 0z"/>
   <path id="_9" fill="white" fill-rule="nonzero" d="M2233 3381c-6,0 -11,2 -17,5 0,3 -11,11 -11,11 -5,6 -8,14 -11,19 0,3 0,3 0,28 0,22 0,27 0,27 3,9 6,14 11,20 0,2 9,11 11,11 6,2 9,5 14,8 5,0 5,0 22,0 16,0 19,0 22,0 5,-3 11,-6 14,-8 2,-3 11,-9 11,-9 5,-5 8,-13 11,-22 0,0 0,-2 0,-27 0,-19 0,-25 0,-28 -3,-5 -6,-13 -11,-19 0,0 -9,-5 -11,-11 -3,0 -6,-3 -11,-3 0,-2 -3,-2 -6,-2 0,0 -3,0 -19,0 -14,0 -17,0 -19,0l0 0zm35 22c3,0 3,2 3,2 3,0 11,9 11,9 3,2 3,2 3,5 0,0 0,3 0,25l0 27 0 0c0,3 0,3 -8,9 -3,5 -6,5 -6,5 -3,0 0,0 -19,0 -19,0 -16,0 -19,0 0,0 -3,0 -6,-5 -5,-3 -5,-6 -8,-6 0,-3 0,0 0,-30l0 -25 0 0c0,-3 3,-5 6,-8l5 -6c3,0 3,0 3,-2 3,0 3,0 19,0 16,0 16,0 16,0l0 0 0 0z"/>
   <path id="_10" fill="white" fill-rule="nonzero" d="M2400 3381c-2,0 -5,2 -8,2 0,3 -3,3 -3,6 0,0 0,0 0,3 0,2 0,2 0,2 3,3 3,6 6,9 3,0 0,0 27,0l22 0 3 0c3,2 5,5 8,8 0,3 0,5 0,11 0,5 0,8 0,8 0,0 0,0 -3,0 0,0 0,0 -2,0l-3 -3 -25 0 -24 0 -3 3c-6,0 -14,3 -19,8 -6,6 -9,14 -9,20 0,2 0,2 0,11 0,8 0,8 0,11 0,8 3,13 9,19 5,5 11,8 16,8 6,3 3,3 25,3 19,0 19,0 22,0 0,0 2,-3 11,-6 2,-2 8,-5 8,-5 0,0 0,0 0,0 0,0 0,0 0,3 3,8 11,11 19,5 0,-3 3,-5 3,-8 0,0 0,-6 0,-14l-3 -44c0,-16 0,-30 0,-30 -3,-14 -11,-28 -25,-30 -5,0 -2,0 -30,0 -11,0 -22,0 -22,0l0 0 0 0zm47 71c3,0 3,0 5,3 0,0 3,3 3,5 0,0 0,0 0,6 0,3 0,5 0,5 0,0 -5,3 -11,9l-14 5 -16 0c-14,0 -16,0 -16,0 -3,0 -6,-3 -9,-5l0 -3 0 -8 0 -9 0 0c3,-5 6,-8 9,-8 0,0 0,0 2,0 0,0 11,0 22,0l25 0 0 0 0 0z"/>
   <path id="_11" fill="white" fill-rule="nonzero" d="M2549 3381c-3,0 -6,0 -6,2 -3,3 -3,3 -5,6 0,3 0,110 0,110 2,3 2,5 5,8 0,0 3,0 3,3 3,0 5,0 8,-3 3,0 6,-3 6,-3 2,-2 2,0 2,-35l0 -33 20 -17 16 -16 11 0c11,0 11,0 14,2 2,0 2,0 2,3 3,0 3,0 3,3l0 0 0 5c0,6 0,6 0,9 3,2 8,8 11,8 6,0 11,-6 14,-11 0,0 0,-8 0,-11 -3,-14 -14,-28 -27,-30 -3,0 -3,0 -20,0 -11,0 -13,0 -13,0 -3,0 -3,0 -3,0 -3,2 -8,8 -14,13 -8,6 -14,11 -14,11 0,0 0,-2 0,-8 0,-8 0,-8 -2,-8 0,-3 0,-3 0,-3 0,-3 -3,-3 -3,-5 -3,0 -6,0 -8,0l0 0 0 0z"/>
   <path id="_12" fill="white" fill-rule="nonzero" d="M2809 3331c-2,0 -2,3 -5,3 -3,3 -3,6 -3,6 0,2 0,5 0,30l0 24 -5 -2c-3,-3 -6,-3 -6,-6 -5,-3 -11,-5 -16,-5 -3,0 -3,0 -14,0 -11,0 -11,0 -14,0 -5,0 -11,2 -13,5 -3,3 -11,11 -14,11 -6,6 -8,14 -8,19 0,3 0,53 0,55 0,9 2,14 8,20 3,2 11,11 14,11 2,5 11,8 16,8 3,0 22,0 25,0 5,-3 11,-3 16,-8 0,0 3,-3 6,-3 3,-3 5,-6 5,-6 0,0 0,3 0,3 0,6 0,8 3,11 3,0 3,0 5,3 3,0 6,0 9,-3 2,0 2,-3 5,-3 0,-2 0,-2 0,-2 0,-3 0,-6 0,-80 0,-77 0,-80 0,-82 0,0 -3,-3 -3,-6 -2,0 -5,-3 -5,-3 0,0 -3,0 -6,0l0 0zm-38 72c3,0 3,2 6,2 0,0 19,17 21,20 0,0 0,2 3,2l0 3 0 14 0 16 0 3c-3,3 -3,3 -8,6l-8 8c-8,8 -8,8 -11,8 -3,0 0,0 -14,0l-8 0 -3 0c-3,0 -3,0 -8,-5 -6,-3 -6,-6 -6,-6 -2,-3 -2,0 -2,-30 0,-28 0,-25 2,-28 0,-2 0,-2 6,-8 5,-3 8,-5 8,-5 3,0 22,0 22,0l0 0 0 0z"/>
   <path id="text" fill="white" fill-rule="nonzero" d="M623 5276c-5,0 -8,5 -11,8 -2,5 -2,11 0,14 3,5 6,8 11,11l0 0 28 0 25 0 0 93 0 93 -25 0 -28 0 0 0c-8,3 -13,9 -13,17 0,8 5,14 13,16l0 0 69 0c63,0 66,0 69,0 0,0 2,-2 2,-2 3,0 6,-3 9,-6 0,-5 0,0 0,-49 0,-31 0,-44 0,-44 0,-3 0,-6 -3,-6 0,-3 -3,-5 -6,-5 -2,-3 -5,-3 -8,-3 -3,0 -5,0 -8,3 0,0 -5,2 -5,5 0,0 0,3 0,3 -3,3 -3,0 -3,38l0 33 -14 0 -16 0 0 -109 0 -110 -42 0c-22,0 -41,0 -44,0l0 0 0 0z"/>
   <circle id="hole_6__0" fill="white" stroke="#47CC79" stroke-width="49.99" cx="4666" cy="1285" r="168"/>
   <circle id="hole_6__1" fill="white" stroke="#47CC79" stroke-width="49.99" cx="343" cy="4515" r="168"/>
   <circle id="hole_6__2" fill="white" stroke="#47CC79" stroke-width="49.99" cx="4663" cy="4498" r="168"/>
   <rect fill="#47CC79" x="3382" y="1024" width="1055" height="692"/>
   <rect fill="#00A63D" x="3382" y="1060" width="1055" height="464"/>
   <path fill="black" d="M1052 882l211 0c11,0 20,28 20,63l0 323c0,35 -9,64 -20,64l-211 0c-11,0 -19,-29 -19,-64l0 -323c0,-35 8,-63 19,-63z"/>
   <path id="text_7__3" fill="white" fill-rule="nonzero" d="M1387 1414c-6,0 -8,3 -8,6 -3,3 -3,5 0,8 0,3 2,6 5,6l0 2 17 0 16 0 0 61 0 57 -16 0 -17 0 0 3c-5,0 -8,6 -8,8 0,6 3,9 8,11l3 0 41 0c41,0 44,0 44,0 0,0 3,0 3,0 3,-2 3,-2 5,-5 0,-3 0,0 0,-30 0,-22 0,-28 0,-31 0,0 0,-2 0,-2 -2,0 -2,-3 -5,-3 0,-3 -3,-3 -6,-3 -2,0 -2,0 -5,3 0,0 -3,3 -3,3 0,0 0,0 0,2 -3,0 -3,0 -3,25l0 19 -8 0 -11 0 0 -68 0 -72 -27 0c-14,0 -25,0 -25,0l0 0 0 0z"/>
   <path id="text_7__4" fill="white" fill-rule="nonzero" d="M1659 1414c-3,0 -6,3 -8,6 0,3 0,5 0,8 2,3 2,6 8,6l0 2 35 0 39 0 0 25 0 25 -30 0c-22,0 -33,0 -33,0 -6,0 -11,3 -14,5 -3,3 -5,6 -5,11l0 0 0 39 0 35 46 0c39,0 47,0 47,0 5,0 8,-5 8,-11 0,-5 -3,-8 -8,-8 0,-3 -6,-3 -36,-3l-38 0 0 -24c0,-14 0,-25 0,-25 0,0 16,0 33,0l33 0 2 0c3,0 6,-3 9,-6 2,-2 5,-8 5,-11 3,-2 3,-54 0,-54 0,-11 -5,-17 -14,-20 -2,0 -2,0 -41,0 -22,0 -38,0 -38,0l0 0 0 0z"/>
   <path id="text_7__5" fill="white" fill-rule="nonzero" d="M1881 1414c-3,0 -5,3 -8,6 0,3 0,5 0,8 3,3 5,6 8,6l0 2 39 0 35 0 0 20c0,19 0,19 0,22 0,2 -2,5 -8,5l0 3 -22 0c-25,0 -25,0 -25,0 -2,3 -5,3 -5,5 -3,3 -3,3 -3,3 0,3 0,3 3,5 0,3 3,3 5,6 0,0 0,0 25,0 25,0 22,0 25,3 3,0 3,2 5,5 0,0 0,0 0,22l0 19 -35 0 -39 0 0 3c-5,0 -8,6 -8,8 0,6 3,9 8,11l0 0 39 0c27,0 38,0 38,0 6,0 11,-2 14,-8 3,-3 3,-5 5,-8l0 -3 0 -22 0 -22 0 -3c-2,0 -2,-2 -2,-5 0,-3 -3,-6 -6,-8 0,0 0,-3 0,-3l0 0c6,-6 6,-11 8,-16 0,-3 0,-44 0,-44 -2,-11 -8,-17 -16,-20 -3,0 0,0 -41,0 -22,0 -39,0 -39,0l0 0 0 0z"/>
   <path id="text_7__6" fill="white" fill-rule="nonzero" d="M2159 1414c-3,0 -3,0 -6,3 0,3 0,3 -3,3 0,3 0,0 0,55l0 49 31 0 33 0 0 22c0,22 0,22 0,25 0,0 0,0 2,3 0,0 3,2 3,2 3,0 6,0 8,0 3,-2 6,-2 6,-5 0,-3 0,0 0,-25l0 -22 3 0c2,0 5,-3 8,-5 0,-3 0,-9 0,-11 -3,-3 -6,-6 -8,-6l-3 0 0 -30 0 -30 0 -3c0,-3 -3,-5 -6,-5 0,-3 -2,-3 -2,-3 -3,0 -3,0 -3,0 -6,3 -8,5 -8,8l0 3 0 30 0 30 -22 0 -20 0 0 -38c0,-39 0,-41 0,-41 0,-3 -2,-6 -5,-6 0,-3 -3,-3 -3,-3 0,0 -3,0 -5,0l0 0 0 0z"/>
   <path id="text_7__7" fill="white" fill-rule="nonzero" d="M2389 1461l0 44 31 0 32 0 0 25 0 24 -24 0c-25,0 -25,0 -28,0 0,0 -2,0 -8,-2 -5,-3 -8,-6 -11,-6 -3,0 -8,3 -11,6 -3,2 -3,8 0,11 0,0 3,2 3,2 3,3 19,9 22,11 0,0 3,0 5,0 3,0 3,0 28,0 27,0 27,0 27,0 6,-2 8,-2 14,-8 0,-3 3,-5 3,-8l0 -3 0 -25c0,-19 0,-27 0,-30 0,-8 -6,-13 -17,-16 0,0 0,0 -25,0l-19 0 0 -25 0 -25 25 0c22,0 27,0 27,-2 6,0 9,-3 9,-9 0,-5 -3,-11 -9,-11 0,0 -5,0 -38,0l-36 0 0 47 0 0z"/>
   <path id="text_7__8" fill="white" fill-rule="nonzero" d="M2650 1414c-3,0 -3,0 -5,3 -3,3 -3,3 -3,6 0,2 0,142 0,145 0,0 0,3 0,3 3,3 3,3 5,5 0,0 3,0 3,0 0,0 11,0 44,0 41,0 44,0 44,0 0,0 3,0 3,-2 3,0 3,-3 3,-3 2,-3 2,0 2,-30 0,-33 0,-31 -2,-33 0,0 0,-3 -3,-3 0,0 -3,-3 -3,-3 0,0 -3,0 -38,0l-36 0 0 -33 0 -33 0 0c5,-2 8,-5 8,-11 0,-2 0,-5 -3,-8 0,-3 -2,-3 -5,-3 0,0 -14,0 -14,0l0 0 0 0zm74 127l0 13 -30 0 -30 0 0 -13 0 -17 30 0 30 0 0 17z"/>
   <path id="text_7__9" fill="white" fill-rule="nonzero" d="M1055 1420c-9,3 -17,8 -22,14 0,2 -22,44 -22,46 -3,3 -3,9 -3,14 -3,3 -3,8 0,11 0,3 0,8 3,11 0,3 22,44 22,47 5,8 13,13 22,13 2,0 41,0 44,0 5,0 8,-5 8,-11 0,-2 -3,-5 -6,-8 -2,0 -2,0 -24,0 -20,0 -20,0 -20,0 -2,-3 -5,-3 -5,-5 -3,0 -3,-3 -8,-11 -6,-14 -14,-31 -17,-33 0,0 0,-3 0,-6 0,-3 0,-5 0,-8 0,0 0,-3 0,-5 3,0 11,-17 17,-33 5,-9 5,-11 8,-11 0,-3 3,-3 5,-3 0,0 0,0 20,-3 22,0 22,0 24,0 3,0 6,-5 6,-8 0,-6 -3,-8 -8,-11 -3,0 -6,0 -22,0 -20,0 -20,0 -22,0l0 0z"/>
   <path id="_1_2" fill="white" fill-rule="nonzero" d="M1167 1420c-3,0 -5,3 -5,3 -3,2 -3,2 -3,5 -3,3 -3,140 0,140 0,3 0,3 3,6 0,0 0,2 2,2 3,0 6,0 9,0 2,-2 2,-2 2,-5 3,-3 3,3 3,-36l0 -30 14 -11c8,-5 16,-11 16,-11 3,0 3,0 11,0l9 0 0 0c2,3 5,6 5,8 3,0 3,8 3,39 0,35 3,38 3,38 0,6 2,8 8,8 5,0 8,-2 11,-8 0,0 0,0 0,-3 0,-2 -3,-74 -3,-76 0,-6 -3,-11 -8,-17 -6,-5 -11,-8 -17,-8 -2,0 -16,0 -19,0 -5,0 -8,0 -11,3 -3,0 -5,2 -11,5l-11 8 0 -27c0,-28 0,-25 -3,-28 0,-2 0,-2 -2,-2 0,-3 -3,-3 -3,-3 0,0 -3,0 -3,0l0 0 0 0z"/>
   <path id="text_10" fill="white" fill-rule="nonzero" d="M1351 5276c-5,0 -11,5 -14,8 0,5 0,11 0,14 3,5 6,8 11,11l3 0 58 0 58 0 0 38 0 39 -50 0c-30,0 -49,0 -49,0 -9,0 -17,2 -22,8 -3,5 -6,11 -9,19l0 0 0 58 0 57 72 0c63,0 74,0 77,0 5,-2 14,-8 14,-16 0,-8 -9,-14 -14,-17 -3,0 -11,0 -61,0l-55 0 0 -38c0,-22 0,-39 0,-39 0,0 22,0 50,0l49 0 3 0c6,-2 11,-5 17,-11 5,-2 8,-11 8,-19 3,-2 3,-82 0,-85 0,-14 -11,-25 -22,-27 -6,0 -3,0 -66,0 -30,0 -58,0 -58,0l0 0 0 0z"/>
   <path id="text_11" fill="white" fill-rule="nonzero" d="M2117 5267c-5,0 -11,6 -13,9 0,5 0,11 0,13 2,6 5,9 11,11l2 0 58 0 58 0 0 31c0,30 0,33 0,33 -3,8 -6,11 -14,13l0 0 -36 0c-38,0 -35,0 -38,3 -6,0 -8,6 -8,8 0,3 0,3 0,6 0,3 0,3 0,5 0,3 2,6 8,9 3,2 0,2 38,2 39,0 36,0 39,0 5,3 8,6 8,8 3,6 3,0 3,36l0 33 -58 0 -58 0 -2 0c-6,3 -11,8 -11,17 0,8 5,13 11,16l2 0 58 0c41,0 61,0 61,0 8,0 16,-5 21,-11 3,-5 6,-11 6,-16l3 0 0 -36 0 -36 -3 -3c0,-2 0,-5 0,-8 -3,-5 -6,-11 -8,-16 -3,0 -3,0 -3,0l3 -3c5,-5 8,-16 11,-25 0,-2 0,-68 0,-71 -3,-14 -14,-25 -25,-28 -5,0 -3,0 -66,0 -30,0 -58,0 -58,0l0 0 0 0z"/>
   <path id="text_12" fill="white" fill-rule="nonzero" d="M2900 5267c-3,0 -5,3 -8,6 -3,0 -3,3 -3,5 -3,3 -3,-2 -3,83l0 77 50 0 46 0 0 33c0,35 0,35 3,38 0,3 3,3 3,6 3,2 5,2 5,5 6,0 11,0 14,-3 3,0 6,-2 8,-5 0,-6 0,0 0,-41l0 -33 3 0c6,0 11,-6 14,-11 0,-3 0,-9 0,-14 -3,-3 -8,-8 -14,-8l-3 0 0 -50 0 -46 0 -3c0,-3 -2,-8 -8,-8 -3,-3 -3,-3 -5,-3 -3,0 -3,0 -6,0 -5,3 -11,5 -11,11l0 3 -3 46 0 50 -30 0 -33 0 0 -63c0,-58 0,-61 0,-64 0,-2 -2,-5 -5,-8 0,0 -3,-3 -6,-3 -2,0 -5,0 -8,0l0 0 0 0z"/>
   <path id="text_13" fill="white" fill-rule="nonzero" d="M3631 5344l0 72 46 0 50 0 0 38 0 39 -39 0c-35,0 -38,0 -38,0 -3,0 -8,-3 -17,-6 -5,-3 -13,-5 -13,-5 -9,-3 -17,0 -20,8 -2,3 -2,8 0,14 0,2 3,5 6,5 0,3 30,14 30,14 6,3 8,3 11,3 3,0 6,0 41,0 44,0 41,0 47,0 5,-3 11,-6 16,-11 3,-6 6,-9 9,-14l0 -3 0 -41c0,-30 0,-44 0,-44 -3,-14 -11,-25 -25,-27 -6,-3 -3,-3 -38,-3l-33 0 0 -39 0 -38 38 0c36,0 41,0 44,0 8,-3 14,-8 14,-17 0,-8 -6,-13 -14,-16 -3,0 -11,0 -58,0l-57 0 0 71 0 0z"/>
   <path id="text_14" fill="white" fill-rule="nonzero" d="M4386 5267c-3,0 -6,0 -8,3 -3,3 -3,6 -3,8 0,3 0,226 0,228 0,0 0,3 0,6 3,0 5,3 8,5 0,0 3,0 6,0 0,3 16,3 66,3 63,0 68,0 68,-3 3,0 6,0 6,-2 2,0 2,-3 5,-6 0,-3 0,3 0,-47 0,-52 0,-46 0,-49 -3,-3 -3,-6 -5,-6 0,-2 -3,-2 -6,-2 0,0 -5,0 -57,0l-58 0 0 -55 0 -52 0 0c8,0 14,-9 14,-17 0,-3 0,-8 -3,-11 -3,-3 -6,-3 -11,-3 0,-2 -19,-2 -22,0l0 0 0 0zm115 195l0 25 -46 0 -47 0 0 -25 0 -27 47 0 46 0 0 27z"/>
   <line fill="none" fill-rule="nonzero" stroke="white" stroke-width="49.99" x1="1027" y1="5364" x2="1027" y2= "6319" />
   <line fill="none" fill-rule="nonzero" stroke="white" stroke-width="49.99" x1="1804" y1="5364" x2="1804" y2= "6319" />
   <line fill="none" fill-rule="nonzero" stroke="white" stroke-width="49.99" x1="2554" y1="5364" x2="2554" y2= "6319" />
   <line fill="none" fill-rule="nonzero" stroke="white" stroke-width="49.99" x1="3312" y1="5364" x2="3312" y2= "6319" />
   <line fill="none" fill-rule="nonzero" stroke="white" stroke-width="49.99" x1="4078" y1="5364" x2="4078" y2= "6319" />
   <path id="text_6__15" fill="white" fill-rule="nonzero" d="M313 3658c0,0 -3,0 -3,3 -2,0 -2,3 -2,3 0,2 0,109 0,112 0,3 0,3 2,3 0,3 3,3 3,3 3,0 3,0 6,0 2,0 2,-3 5,-3 0,-3 0,0 0,-28l0 -27 11 -8c8,-3 14,-6 14,-8 0,0 0,0 8,0l6 0 0 0c2,2 5,5 5,8 0,0 0,5 3,30 0,27 0,30 0,30 0,3 3,6 8,6 3,0 5,-3 8,-6 0,0 0,0 0,-3 0,-2 -3,-57 -3,-60 0,-5 -2,-11 -5,-14 -5,-2 -8,-5 -14,-8 -2,0 -13,0 -16,0 -3,3 -6,3 -8,3 0,0 -3,3 -9,5l-8 6 0 -19c0,-22 0,-22 0,-22 -3,-3 -3,-3 -5,-6 0,0 0,0 0,0 -3,0 -3,0 -6,0l0 0 0 0z"/>
   <path id="_1_3" fill="white" fill-rule="nonzero" d="M450 3666c-2,0 -5,0 -5,3 -3,3 -3,0 -3,14l0 8 -3 0c-5,0 -5,0 -5,0 -3,3 -6,6 -6,8 0,6 3,9 6,9 0,0 0,0 5,0l3 0 0 27c0,25 0,25 3,27 0,6 3,9 5,14 3,3 9,6 14,6l0 0 11 0c11,0 11,0 14,0 3,0 5,-3 8,-6 6,-3 8,-8 11,-14 0,-5 -3,-8 -8,-8 -3,-3 -6,0 -8,3 0,0 0,0 0,3 0,2 -3,5 -6,5 0,0 0,0 -11,0l-8 0 -3 0c0,0 0,0 -3,0 0,-3 0,-3 -2,-5l0 0 0 -25 0 -27 16 0 17 0 2 0c0,0 3,-3 3,-3 3,-3 3,-3 3,-6 0,0 0,-2 -3,-2 0,-3 -3,-3 -3,-6l-2 0 -17 0 -16 0 0 -8c0,-14 0,-11 0,-14 0,0 -3,-3 -3,-3 0,0 -3,0 -3,0 0,0 -3,0 -3,0l0 0 0 0z"/>
   <path id="_2_4" fill="white" fill-rule="nonzero" d="M571 3666c-3,0 -5,0 -5,3 -3,3 -3,0 -3,14l0 8 -3 0c-5,0 -5,0 -5,0 -6,3 -8,6 -8,8 0,6 2,9 8,9 0,0 0,0 5,0l3 0 0 27c0,25 0,25 0,27 3,6 3,9 8,14 3,3 8,6 11,6l3 0 11 0c8,0 8,0 11,0 5,0 8,-3 11,-6 5,-3 8,-8 8,-14 3,-5 -3,-8 -5,-8 -3,-3 -6,0 -9,3 0,0 0,0 -2,3 0,2 0,5 -3,5 -3,0 0,0 -11,0l-11 0 0 0c0,0 -3,0 -3,0 0,-3 -3,-3 -3,-5l0 0 0 -25 0 -27 17 0 16 0 0 0c3,0 6,-3 6,-3 0,-3 0,-3 0,-6 0,0 0,-2 0,-2 0,-3 -3,-3 -6,-6l0 0 -16 0 -17 0 0 -8c0,-14 0,-11 0,-14 -2,0 -2,-3 -5,-3 0,0 0,0 0,0 0,0 -3,0 -3,0l0 0z"/>
   <path id="_3_5" fill="white" fill-rule="nonzero" d="M673 3688c-3,0 -3,3 -6,6l0 3 0 54c0,55 0,58 0,58 0,3 0,3 3,3 0,3 0,3 3,3 0,2 3,2 3,2 2,0 2,0 2,-2 3,0 3,0 6,-3 0,-3 0,0 0,-19l0 -20 3 3c2,3 5,6 5,6 3,2 8,2 11,2 3,3 8,3 8,0 6,0 11,0 14,-2 3,-3 14,-14 17,-17 2,-3 5,-5 5,-11l0 -3 0 -13c0,-14 0,-17 0,-17 0,-5 -3,-11 -5,-13 -3,0 -6,-3 -14,-11 -3,-3 -3,-3 -6,-3 -2,-3 -5,-6 -8,-6 -3,0 -8,0 -11,0 -3,0 -8,3 -11,6 0,0 -3,3 -5,3l-3 5 0 -3c0,-2 0,-2 0,-5 0,-3 -3,-6 -6,-6 -2,0 -2,0 -5,0l0 0 0 0zm38 17c0,0 3,0 3,3 0,0 17,11 17,11 0,2 0,2 0,2 0,3 0,3 0,17l0 13 0 0c0,3 0,3 0,3 -3,0 -6,6 -9,8 -8,6 -8,6 -11,9 0,0 0,0 -2,0 -3,0 -3,0 -6,0 0,-3 0,-3 -3,-3 0,0 -13,-17 -13,-17 -3,0 -3,-2 -3,-2 0,0 0,-6 0,-11l0 -11 0 -3c0,0 0,0 3,-3 0,0 13,-13 13,-13 3,-3 3,-3 6,-3 0,0 5,0 5,0l0 0z"/>
   <path id="_4_6" fill="white" fill-rule="nonzero" d="M818 3732c-2,0 -2,3 -5,3 0,3 0,3 0,5 0,0 0,14 0,17 0,0 0,3 0,3 3,0 3,2 5,2 0,0 0,0 11,0 9,0 9,0 11,0 0,-2 3,-2 3,-5 0,0 0,0 0,-8 0,-11 0,-11 0,-11 0,-3 -3,-3 -3,-6 -2,0 -2,0 -13,0 -6,0 -9,0 -9,0l0 0zm0 -55c-2,3 -2,3 -5,3 0,3 0,3 0,6 0,0 0,13 0,16 0,0 0,3 0,3 3,3 3,3 5,3 0,0 0,0 11,0 9,0 9,0 11,0 0,0 3,-3 3,-3 0,-3 0,-3 0,-11 0,-8 0,-8 0,-11 0,-3 -3,-3 -3,-3 -2,-3 -2,-3 -13,-3 -6,0 -9,0 -9,0l0 0z"/>
   <path id="_5_7" fill="white" fill-rule="nonzero" d="M978 3658c-3,0 -3,3 -6,3 0,3 -63,110 -63,110 0,2 0,5 0,5 0,3 3,6 6,6 2,0 8,0 8,-3 3,-3 63,-110 63,-110 3,-3 3,-3 0,-5 0,-3 0,-3 -3,-6 0,0 -3,0 -5,0z"/>
   <path id="_6_8" fill="white" fill-rule="nonzero" d="M1099 3658c-3,0 -6,3 -6,3 -3,3 -63,110 -63,110 -3,2 -3,5 -3,5 3,3 6,6 8,6 3,0 6,0 9,-3 0,-3 63,-110 63,-110 0,-3 0,-3 0,-5 0,-3 -3,-3 -3,-6 -3,0 -3,0 -5,0z"/>
   <path id="_7_9" fill="white" fill-rule="nonzero" d="M1153 3691c-2,3 -2,3 -2,3 -3,3 -3,3 -3,5 0,0 0,74 0,77 0,3 0,3 3,3 0,3 0,3 2,3 0,0 3,0 6,0 0,0 3,0 3,-3 0,0 0,-3 0,-3 2,0 2,-3 2,-30l0 -27 6 -6c3,-3 5,-5 5,-5 0,0 0,0 0,0 3,0 3,0 3,0 0,0 0,2 3,2l0 0 0 33c0,30 0,33 0,33 0,3 0,3 3,6 0,0 0,0 2,0 0,0 3,0 6,0 0,0 3,0 3,-3 0,0 0,-3 0,-3 0,0 0,-3 2,-30l0 -27 3 -6c3,-3 6,-5 6,-5 0,0 2,0 2,0 0,0 0,0 0,0 0,0 3,2 3,2 0,0 0,9 0,33 0,17 3,33 3,33 0,0 0,3 0,3 0,0 3,3 3,3 2,0 2,0 5,0 0,0 0,0 3,0 0,0 3,-3 3,-3 0,-3 0,-3 0,-3 0,-3 0,-66 0,-66 -3,-5 -3,-11 -9,-13 -2,-3 -5,-3 -8,-6 -5,0 -11,3 -14,6 0,0 0,0 -2,2l-3 0 0 0c0,0 -3,-2 -3,-2 -5,-3 -11,-6 -16,-6 -3,3 -6,3 -9,6 0,0 -2,0 -2,0 0,0 0,0 0,0 0,0 0,-3 -3,-3 -3,-3 -3,-3 -6,-3l0 0 0 0z"/>
   <path id="_8_10" fill="white" fill-rule="nonzero" d="M1296 3691c-5,3 -8,3 -13,6 0,2 -6,8 -9,8 -2,3 -5,8 -5,14 0,0 0,2 0,19 0,13 0,16 0,19 0,5 3,8 5,14 3,0 9,5 9,5 2,3 8,6 11,6 2,0 2,0 13,0 14,0 14,0 17,0 2,0 5,-3 8,-6 3,0 8,-5 8,-5 6,-3 6,-9 8,-14 0,-3 0,-3 0,-19 0,-17 0,-19 0,-19 -2,-6 -2,-11 -8,-14 0,-3 -5,-6 -8,-8 0,0 -3,-3 -6,-3 0,0 -2,0 -5,-3 0,0 -3,0 -14,0 -8,0 -11,0 -11,0l0 0zm25 17c0,0 0,2 3,2 0,0 5,6 5,6 3,0 3,3 3,3 0,0 0,2 0,19l0 16 0 3c0,0 -3,3 -6,5 -2,3 -5,3 -5,3 0,0 0,0 -14,0 -11,0 -11,0 -13,0 0,0 0,0 -3,-3 -6,-2 -6,-2 -6,-5 0,-3 0,0 0,-19l0 -19 0 0c0,-3 0,-3 6,-6l3 -3c0,0 0,-2 2,-2 0,0 0,0 11,0 11,0 11,0 14,0l0 0 0 0z"/>
   <path id="_9_11" fill="white" fill-rule="nonzero" d="M1395 3691c-3,3 -3,3 -3,3 -2,3 -2,3 -2,5 0,0 0,74 0,77 0,3 0,3 2,3 0,3 0,3 3,3 0,0 3,0 6,0 0,0 2,-3 2,-3 0,-3 0,0 0,-28l0 -27 14 -8c6,-3 11,-6 14,-8 0,0 0,0 5,0l9 0 0 0c2,2 5,5 5,8 0,0 0,5 0,30 3,33 3,30 3,33 0,3 3,3 5,3 6,0 9,-3 9,-6 0,0 0,0 0,-3 0,-2 0,-57 0,-60 -3,-5 -3,-11 -9,-14 -2,-2 -8,-5 -13,-8 0,0 -11,0 -14,0 -3,3 -6,3 -8,3 -3,0 -6,3 -11,5l-9 6 0 -3c0,-3 0,-3 0,-5 0,0 0,-3 -2,-3 -3,-3 -3,-3 -6,-3l0 0 0 0z"/>
   <path id="_10_12" fill="white" fill-rule="nonzero" d="M1516 3658c-3,0 -3,0 -6,3 0,0 0,3 -2,3 0,2 0,109 0,112 2,3 2,3 2,3 3,3 3,3 3,3 3,0 6,0 8,0 0,0 3,-3 3,-3 0,-3 0,-3 0,-17l0 -11 6 -2 2 -6 0 3c0,0 42,36 44,36 3,2 11,0 11,-6 0,0 0,0 0,-3 0,0 0,-2 -2,-5 0,0 -9,-8 -20,-17 -11,-11 -19,-16 -19,-16 0,0 6,-8 14,-14 11,-8 19,-16 19,-16 3,-3 3,-8 -3,-11 0,0 -2,0 -2,-3 0,0 -3,0 -3,0 -3,3 -3,3 -3,3 0,0 -11,8 -22,19l-22 16 0 -32c0,-31 0,-33 0,-33 0,0 0,-3 -3,-3 0,0 -2,-3 -2,-3 0,0 -3,0 -3,0l0 0 0 0z"/>
   <path id="_11_13" fill="white" fill-rule="nonzero" d="M1634 3691c-3,3 -3,3 -3,3 -2,3 -2,3 -2,5 0,0 0,74 0,77 0,3 0,3 2,3 0,3 0,3 3,3 0,0 3,0 6,0 0,0 2,0 2,-3 0,0 0,-3 0,-3 0,0 0,-3 0,-30l0 -27 9 -6c2,-3 5,-5 5,-5 0,0 0,0 0,0 3,0 3,0 3,0 0,0 0,2 0,2l3 0 0 33c0,30 0,33 0,33 0,3 0,3 2,6 0,0 0,0 3,0 0,0 3,0 6,0 0,0 2,0 2,-3 0,0 0,-3 0,-3 0,0 0,-3 0,-30l0 -27 6 -6c3,-3 5,-5 5,-5 0,0 3,0 3,0 0,0 0,0 0,0 0,0 3,2 3,2 0,0 0,9 0,33 0,17 3,33 3,33 0,0 0,3 0,3 0,0 2,3 2,3 0,0 3,0 6,0 0,0 0,0 2,0 0,0 3,-3 3,-3 0,-3 0,-3 0,-3 0,-3 0,-66 0,-66 -3,-5 -3,-11 -8,-13 -3,-3 -5,-3 -8,-6 -6,0 -11,3 -14,6 0,0 0,0 -3,2l-2 0 0 0c0,0 -3,-2 -3,-2 -6,-3 -11,-6 -17,-6 -2,3 -5,3 -8,6 -3,0 -3,0 -3,0 0,0 0,0 0,0 0,0 -2,-3 -2,-3 -3,-3 -3,-3 -6,-3l0 0 0 0z"/>
   <path id="_12_14" fill="white" fill-rule="nonzero" d="M1771 3691c-2,0 -2,3 -5,3 0,3 0,3 0,3 0,2 0,2 0,2 0,3 0,3 0,3 0,3 0,6 3,6 2,0 0,0 19,0l16 0 0 0c3,2 6,5 6,8 0,0 0,0 0,5 0,3 0,6 0,6 0,0 0,0 0,0 0,0 -3,0 -3,0l0 0 -19 0 -17 0 -2 0c-6,0 -9,3 -14,5 -3,6 -6,8 -6,14 0,3 0,3 0,8 0,6 0,6 0,8 0,6 3,9 6,14 3,3 8,6 11,6 3,0 3,0 19,0 11,0 14,0 14,0 0,0 3,0 8,-3 3,-3 6,-6 6,-6 0,3 0,3 0,3 0,0 0,0 0,0 0,6 8,8 13,6 0,-3 3,-6 3,-6 0,0 0,-5 0,-11l-3 -30c0,-11 0,-22 0,-22 0,-8 -8,-16 -19,-19 -3,-3 0,-3 -19,-3 -8,0 -17,0 -17,0l0 0zm36 52c0,0 0,0 3,0 0,3 0,3 0,6 0,0 3,0 3,2 0,3 0,6 0,6 0,0 -6,3 -11,5l-9 3 -11 0c-11,0 -11,0 -11,0 -2,0 -5,-3 -5,-5l0 0 0 -6 0 -5 0 0c0,-3 3,-6 5,-6 0,0 0,0 0,0 0,0 9,0 17,0l16 0 3 0 0 0z"/>
   <path id="_13" fill="white" fill-rule="nonzero" d="M1876 3658c-3,0 -3,0 -6,3 0,0 0,3 0,3 0,2 0,109 0,112 0,3 0,3 0,3 3,3 3,3 6,3 0,0 2,0 5,0 0,0 3,-3 3,-3 0,-3 0,-3 0,-17l0 -11 5 -2 3 -6 0 3c3,0 44,36 44,36 3,2 11,0 11,-6 0,0 0,0 0,-3 0,0 0,-2 -3,-5 0,0 -8,-8 -19,-17 -11,-11 -19,-16 -19,-16 0,0 5,-8 16,-14 9,-8 17,-16 17,-16 3,-3 3,-8 -3,-11 0,0 0,0 -3,-3 0,0 -2,0 -2,0 0,3 -3,3 -3,3 0,0 -11,8 -22,19l-22 16 0 -32c0,-31 0,-33 0,-33 0,0 0,-3 -3,-3 0,0 0,-3 -3,-3 0,0 -2,0 -2,0l0 0 0 0z"/>
   <path id="_14" fill="white" fill-rule="nonzero" d="M2016 3691c-6,3 -8,3 -11,6 -3,2 -8,8 -8,8 -6,3 -6,8 -9,14 0,0 0,2 0,19 0,13 0,16 0,19 3,5 3,8 9,14 0,0 5,5 8,5 3,3 8,6 11,6 3,0 44,0 46,0 3,0 6,-3 6,-9 0,-2 -3,-5 -6,-5 0,-3 3,-3 -21,-3l-22 0 -3 0c0,0 0,0 -6,-3 -2,-2 -2,-2 -5,-5 0,0 0,-3 0,-6l0 -2 27 0c28,0 30,0 30,0 0,0 3,0 3,-3 0,0 3,0 3,-3 0,0 0,0 0,-11 0,-14 0,-14 0,-16 0,-3 -3,-9 -6,-11 -2,0 -5,-6 -8,-9 -2,-2 -5,-2 -11,-2 -2,-3 -2,-3 -13,-3 -9,0 -14,0 -14,0l0 0zm25 17c2,0 2,2 5,5 3,0 5,3 5,3 0,0 0,0 0,3 0,0 0,0 0,8l0 5 -21 0 -25 0 0 -5 0 -8 0 0c0,0 3,-3 3,-3 0,0 2,-3 2,-3 3,-3 6,-3 6,-5 3,0 3,0 14,0l11 0 0 0z"/>
   <path id="_15" fill="white" fill-rule="nonzero" d="M2128 3691c-5,3 -8,6 -13,8 -3,6 -6,11 -3,17 0,3 3,8 5,11 0,0 3,3 6,3 0,0 5,2 14,8 22,8 30,13 30,13 3,0 3,0 3,0 2,3 2,6 2,11 -2,0 -2,3 -5,3l0 0 -17 0c-13,0 -16,0 -19,0 0,0 0,0 -3,0 -2,0 -2,0 -5,-3 -3,-2 -3,-2 -6,-2 -2,0 -5,2 -8,5 0,0 0,3 0,6 3,2 3,2 6,5 2,0 5,3 8,3 3,3 5,3 5,3 3,0 3,0 20,0 19,0 19,0 22,0 8,-3 16,-9 19,-20 0,-2 0,-8 -3,-13 0,-6 -5,-9 -8,-11 -3,0 0,0 -33,-14 -8,-5 -17,-8 -17,-8 0,0 0,0 0,-3 0,0 0,0 0,0 0,-3 0,-3 0,-3 0,0 0,-2 3,-2 0,0 6,0 19,0l17 0 0 0c3,2 5,2 5,2 3,3 3,6 6,6 3,0 5,-3 8,-6 0,0 0,0 0,0 0,-2 0,-2 0,-5 0,-3 0,-3 -3,-6 -5,-2 -8,-5 -16,-8 0,0 -36,0 -39,0l0 0z"/>
   <path id="_16" fill="white" fill-rule="nonzero" d="M2260 3732c-3,0 -3,3 -5,3 0,3 0,3 -3,5 0,0 0,14 0,17 3,0 3,3 3,3 2,0 2,2 2,2 3,0 3,0 11,0 11,0 11,0 11,0 3,-2 3,-2 6,-5 0,0 0,0 0,-8 0,-11 0,-11 0,-11 -3,-3 -3,-3 -6,-6 0,0 0,0 -11,0 -5,0 -8,0 -8,0l0 0z"/>
   <path id="_17" fill="white" fill-rule="nonzero" d="M2384 3691c-3,3 -8,3 -11,6 -3,2 -17,13 -17,13 -2,6 -5,9 -5,14 0,3 0,3 0,14 0,13 0,11 0,13 0,6 3,9 5,14 3,0 17,11 17,14 3,0 8,3 11,3 3,0 38,0 38,0 3,0 6,-3 6,-9 0,-2 0,-5 -3,-5 -3,-3 0,-3 -22,-3 -16,0 -16,0 -19,0 0,0 0,0 0,0 -3,0 -6,-3 -8,-5 -6,-6 -9,-9 -9,-9 0,0 0,-2 -2,-2 0,0 0,0 0,-11l0 -11 0 0c2,-3 2,-3 2,-3 0,-3 3,-3 9,-8 2,-3 5,-6 8,-6 0,0 0,-3 0,-3l3 0 16 0c22,0 19,0 22,0 3,0 3,-5 3,-8 0,-2 -3,-5 -6,-8 0,0 -35,0 -38,0l0 0 0 0z"/>
   <path id="_18" fill="white" fill-rule="nonzero" d="M2496 3691c-5,3 -8,3 -11,6 -2,2 -8,8 -8,8 -5,3 -5,8 -8,14 0,0 0,2 0,19 0,13 0,16 0,19 3,5 3,8 8,14 0,0 6,5 8,5 3,3 6,6 9,6 2,0 2,0 16,0 11,0 11,0 14,0 3,0 8,-3 11,-6 3,0 5,-5 8,-5 3,-3 6,-9 6,-14 0,-3 0,-3 0,-19 0,-17 0,-19 0,-19 0,-6 -3,-11 -6,-14 -3,-3 -5,-6 -8,-8 -3,0 -6,-3 -8,-3 0,0 -3,0 -3,-3 -3,0 -3,0 -14,0 -11,0 -14,0 -14,0l0 0zm25 17c0,0 3,2 3,2 0,0 8,6 8,6 0,0 0,3 0,3 0,0 0,2 0,19l0 16 0 3c0,0 0,3 -5,5 -3,3 -3,3 -3,3 -3,0 -3,0 -14,0 -14,0 -14,0 -14,0 -2,0 -2,0 -5,-3 -3,-2 -3,-2 -6,-5 0,-3 0,0 0,-19l0 -19 0 0c3,-3 3,-3 6,-6l3 -3c2,0 2,-2 2,-2 3,0 3,0 14,0 11,0 11,0 11,0l0 0 0 0z"/>
   <path id="_19" fill="white" fill-rule="nonzero" d="M2595 3691c-2,3 -2,3 -5,3 0,3 0,3 0,5 -3,0 -3,74 0,77 0,3 0,3 0,3 3,3 3,3 3,3 2,0 5,0 8,0 0,0 0,0 3,-3 0,0 0,-3 0,-3 0,0 0,-3 0,-30l0 -27 5 -6c5,-3 8,-5 8,-5 0,0 0,0 0,0 3,0 3,0 3,0 0,0 0,2 0,2l0 0 0 33c3,30 3,33 3,33 0,3 0,3 0,6 2,0 2,0 2,0 3,0 6,0 9,0 0,0 0,0 2,-3 0,0 0,-3 0,-3 0,0 0,-3 0,-30l0 -27 6 -6c3,-3 5,-5 5,-5 0,0 0,0 3,0 0,0 0,0 0,0 0,0 3,2 3,2 0,0 0,9 0,33 0,17 0,33 3,33 0,0 0,3 0,3 0,0 2,3 2,3 0,0 3,0 6,0 0,0 0,0 3,0 0,0 2,-3 2,-3 0,-3 0,-3 0,-3 0,-3 0,-66 -2,-66 0,-5 0,-11 -6,-13 -3,-3 -5,-3 -11,-6 -3,0 -8,3 -11,6 -3,0 -3,0 -3,2l-2 0 0 0c0,0 -3,-2 -3,-2 -6,-3 -11,-6 -16,-6 -3,3 -6,3 -9,6 -2,0 -2,0 -2,0 0,0 0,0 0,0 0,0 -3,-3 -3,-3 -3,-3 -3,-3 -6,-3l0 0 0 0z"/>
   <path id="text_6__16" fill="white" fill-rule="nonzero" d="M2903 3699c-3,0 -3,0 -6,0 0,3 -2,3 -2,6 0,0 0,0 0,8 0,8 0,8 0,11 2,3 30,63 30,66 0,0 3,0 3,3 0,0 0,0 2,0 0,0 11,0 14,0 0,0 0,0 3,0 0,-3 3,-3 3,-3 0,-3 27,-63 27,-66 0,-3 0,-3 0,-11 0,-8 0,-8 0,-8 0,-3 0,-3 -3,-6 0,0 0,0 -2,0 0,-2 -3,-2 -6,0 0,0 0,0 -3,0 0,3 0,3 -2,6 0,0 0,0 0,8l0 6 -11 27c-9,16 -14,30 -14,30 0,0 -6,-14 -11,-30l-14 -27 0 -6c0,-8 0,-8 0,-8 0,-3 0,-3 0,-3 0,0 -3,-3 -3,-3 -2,0 -5,-2 -5,0l0 0 0 0z"/>
   <path id="_1_15" fill="white" fill-rule="nonzero" d="M3029 3664c-3,0 -5,2 -8,2 0,3 0,6 0,9 3,2 3,2 5,5l0 0 14 0 14 0 0 47 0 49 -14 0 -14 0 0 0c-2,0 -5,6 -5,8 0,3 3,9 5,9l3 0 33 0c33,0 36,0 36,0 0,0 0,0 0,0 3,-3 5,-3 5,-6 0,0 0,3 0,-25 0,-16 0,-22 0,-22 0,0 0,-2 0,-2 0,0 -2,-3 -2,-3 -3,0 -6,-3 -6,-3 -3,3 -3,3 -3,3 -2,0 -2,3 -5,3 0,0 0,0 0,0 0,2 0,2 0,22l0 16 -8 0 -9 0 0 -57 0 -55 -22 0c-11,0 -19,0 -19,0l0 0z"/>
   <path id="_2_16" fill="white" fill-rule="nonzero" d="M3177 3740c0,0 -2,0 -2,3 -3,0 -3,3 -3,6 0,0 0,13 0,16 0,0 0,3 3,3 0,3 0,3 2,3 0,0 0,0 11,0 11,0 11,0 11,0 3,0 3,-3 6,-3 0,-3 0,-3 0,-11 0,-11 0,-11 0,-11 -3,-3 -3,-3 -6,-6 0,0 0,0 -11,0 -8,0 -11,0 -11,0z"/>
   <path id="_3_17" fill="white" fill-rule="nonzero" d="M3287 3664c-8,0 -13,5 -13,11 0,2 0,0 0,52 0,55 0,52 0,52 0,3 0,5 2,8 3,3 6,6 11,6l0 0 25 0c19,0 28,0 28,0 5,0 8,-3 11,-6 2,-3 2,-5 5,-8l0 0 0 -49c0,-39 0,-53 0,-53 -3,-5 -5,-13 -14,-13 -2,0 0,0 -27,0 -17,0 -28,0 -28,0l0 0zm53 63l0 49 -25 0 -25 0 0 -49 0 -47 25 0 25 0 0 47z"/>
   <path id="_4_18" fill="white" fill-rule="nonzero" d="M3471 3664c-2,0 -2,0 -5,2 0,0 0,0 0,3 0,0 0,3 -3,19l0 22 -3 -2c0,-3 -2,-3 -2,-6 -6,-3 -9,-3 -14,-3 0,0 0,0 -8,0 -9,0 -9,0 -11,0 -3,0 -9,3 -11,3 -3,3 -9,8 -9,8 -2,6 -5,9 -8,17 0,0 0,35 0,38 3,6 6,11 8,14 0,3 9,8 9,8 2,3 8,6 13,6 0,0 17,0 17,0 5,0 11,-3 14,-6 0,0 2,-3 2,-3 3,-2 3,-2 3,-2 0,0 0,0 0,2 0,3 3,3 3,6 3,3 3,3 5,3 0,0 3,0 6,0 3,-3 3,-3 3,-6 0,0 2,0 2,0 0,-3 0,-3 0,-60 0,-55 0,-58 0,-58 -2,-3 -2,-3 -2,-5 -3,0 -3,0 -6,0 0,0 -3,0 -3,0l0 0zm-27 52c0,0 3,0 3,0 0,0 16,13 16,13 0,0 0,3 0,3l0 3 0 11 0 11 0 0c0,3 0,3 -3,5l-8 9c-5,2 -5,2 -5,5 -3,0 -3,0 -11,0l-9 0 0 0c-2,0 -2,-3 -5,-5 -6,-3 -6,-3 -6,-6 -2,0 0,0 0,-19 0,-22 -2,-19 0,-22 0,0 0,0 6,-5 3,-3 3,-3 5,-3 0,0 14,0 17,0l0 0 0 0z"/>
   <path id="text_6__17" fill="white" fill-rule="nonzero" d="M313 3043c0,3 -3,3 -3,3 -2,2 -2,2 -2,5 0,0 0,110 0,110 0,3 0,3 2,6 0,0 3,0 3,0 3,2 3,2 6,0 2,0 2,0 5,-3 0,-3 0,0 0,-28l0 -24 11 -9c8,-5 14,-8 14,-8 0,0 0,0 8,0l6 0 0 0c2,0 5,3 5,6 0,0 0,8 3,30 0,27 0,30 0,30 0,5 3,8 8,8 3,0 5,-3 8,-8 0,0 0,0 0,0 0,-3 -3,-60 -3,-60 0,-6 -2,-11 -5,-17 -5,-3 -8,-5 -14,-5 -2,0 -13,0 -16,0 -3,0 -6,0 -8,2 0,0 -3,0 -9,6l-8 5 0 -22c0,-22 0,-19 0,-22 -3,-2 -3,-2 -5,-2 0,0 0,0 0,0 -3,-3 -3,-3 -6,-3l0 0 0 0z"/>
   <path id="_1_19" fill="white" fill-rule="nonzero" d="M450 3051c-2,0 -5,3 -5,6 -3,0 -3,0 -3,11l0 11 -3 0c-5,0 -5,0 -5,0 -3,0 -6,2 -6,8 0,3 3,5 6,5 0,3 0,3 5,3l3 0 0 25c0,25 0,27 3,27 0,6 3,11 5,14 3,3 9,6 14,8l0 0 11 0c11,0 11,0 14,-2 3,0 5,0 8,-3 6,-6 8,-11 11,-17 0,-2 -3,-8 -8,-8 -3,0 -6,0 -8,3 0,0 0,3 0,5 0,0 -3,3 -6,6 0,0 0,0 -11,0l-8 0 -3 0c0,0 0,-3 -3,-3 0,0 0,-3 -2,-3l0 0 0 -27 0 -25 16 0 17 0 2 -3c0,0 3,0 3,-2 3,-3 3,-3 3,-3 0,-3 0,-3 -3,-6 0,0 -3,-2 -3,-2l-2 0 -17 0 -16 0 0 -11c0,-11 0,-11 0,-11 0,-3 -3,-3 -3,-6 0,0 -3,0 -3,0 0,0 -3,0 -3,0l0 0 0 0z"/>
   <path id="_2_20" fill="white" fill-rule="nonzero" d="M571 3051c-3,0 -5,3 -5,6 -3,0 -3,0 -3,11l0 11 -3 0c-5,0 -5,0 -5,0 -6,0 -8,2 -8,8 0,3 2,5 8,5 0,3 0,3 5,3l3 0 0 25c0,25 0,27 0,27 3,6 3,11 8,14 3,3 8,6 11,8l3 0 11 0c8,0 8,0 11,-2 5,0 8,0 11,-3 5,-6 8,-11 8,-17 3,-2 -3,-8 -5,-8 -3,0 -6,0 -9,3 0,0 0,3 -2,5 0,0 0,3 -3,6 -3,0 0,0 -11,0l-11 0 0 0c0,0 -3,-3 -3,-3 0,0 -3,-3 -3,-3l0 0 0 -27 0 -25 17 0 16 0 0 -3c3,0 6,0 6,-2 0,-3 0,-3 0,-3 0,-3 0,-3 0,-6 0,0 -3,-2 -6,-2l0 0 -16 0 -17 0 0 -11c0,-11 0,-11 0,-11 -2,-3 -2,-3 -5,-6 0,0 0,0 0,0 0,0 -3,0 -3,0l0 0 0 0z"/>
   <path id="_3_21" fill="white" fill-rule="nonzero" d="M673 3076c-3,0 -3,3 -6,5l0 0 0 58c0,55 0,58 0,58 0,0 0,0 3,0 0,2 0,2 3,5 0,0 3,0 3,0 2,0 2,0 2,0 3,-3 3,-3 6,-5 0,0 0,0 0,-20l0 -19 3 6c2,0 5,3 5,3 3,2 8,5 11,5 3,0 8,0 8,0 6,0 11,-3 14,-5 3,-3 14,-14 17,-14 2,-3 5,-8 5,-14l0 0 0 -16c0,-14 0,-14 0,-17 0,-5 -3,-8 -5,-11 -3,-3 -6,-5 -14,-14 -3,-2 -3,-2 -6,-2 -2,-3 -5,-3 -8,-3 -3,0 -8,-3 -11,0 -3,0 -8,0 -11,3 0,2 -3,2 -5,5l-3 3 0 -3c0,-3 0,-3 0,-3 0,-2 -3,-5 -6,-5 -2,-3 -2,-3 -5,0l0 0 0 0zm38 14c0,2 3,2 3,2 0,0 17,14 17,14 0,0 0,3 0,3 0,0 0,0 0,14l0 13 0 3c0,0 0,0 0,3 -3,0 -6,3 -9,5 -8,9 -8,9 -11,9 0,0 0,0 -2,0 -3,0 -3,0 -6,0 0,0 0,0 -3,-3 0,0 -13,-14 -13,-14 -3,-3 -3,-3 -3,-5 0,0 0,-3 0,-11l0 -11 0 0c0,-3 0,-3 3,-3 0,-3 13,-17 13,-17 3,0 3,-2 6,-2 0,0 5,0 5,0l0 0z"/>
   <path id="_4_22" fill="white" fill-rule="nonzero" d="M807 3079c-5,0 -11,2 -13,8 -3,3 -6,8 -3,14 0,5 3,8 5,11 0,2 3,2 6,5 0,0 5,3 11,6 25,11 33,13 33,13 0,0 3,0 3,0 2,3 2,9 2,11 -2,3 -2,3 -5,6l-3 0 -14 0c-13,0 -16,0 -19,0 0,0 0,0 -3,-3 -2,0 -2,0 -5,-3 -3,0 -3,-2 -6,-2 -2,0 -5,2 -8,5 0,3 0,6 0,6 0,2 3,2 6,5 2,3 2,3 8,5 3,0 3,0 5,3 3,0 3,0 20,0 19,0 19,0 22,-3 8,0 16,-8 19,-16 0,-5 0,-11 -3,-16 -3,-3 -5,-9 -8,-11 -3,0 0,0 -33,-14 -8,-3 -17,-8 -17,-8 0,0 0,0 -2,0 0,-3 0,-3 0,-3 0,0 0,0 2,0 0,-3 0,-3 3,-3 0,0 6,0 17,0l19 0 0 0c3,0 3,0 5,3 0,3 3,3 6,3 3,0 5,0 8,-6 0,0 0,0 0,0 0,-3 0,-3 0,-5 0,0 0,-3 -3,-6 -5,-3 -11,-5 -16,-5 0,0 -36,0 -39,0l0 0z"/>
   <path id="_5_23" fill="white" fill-rule="nonzero" d="M939 3120c-3,0 -3,0 -5,0 0,3 -3,3 -3,5 0,0 0,14 0,17 0,3 3,3 3,3 3,2 3,2 3,2 2,0 2,0 10,0 11,0 11,0 11,0 3,0 3,-2 6,-2 0,-3 0,-3 0,-11 0,-9 0,-9 0,-11 -3,0 -3,-3 -6,-3 0,0 0,0 -11,0 -5,0 -8,0 -8,0l0 0zm0 -55c-3,0 -3,0 -5,3 0,0 -3,2 -3,2 0,3 0,17 0,17 0,3 3,3 3,5 3,0 3,0 3,0 2,3 2,3 10,3 11,0 11,0 11,-3 3,0 3,0 6,-2 0,-3 0,0 0,-11 0,-9 0,-9 0,-11 -3,0 -3,-3 -6,-3 0,0 0,0 -11,0 -5,0 -8,0 -8,0l0 0z"/>
   <path id="_6_24" fill="white" fill-rule="nonzero" d="M1099 3043c-3,3 -6,3 -6,5 -3,3 -63,108 -63,110 -3,0 -3,3 -3,3 3,6 6,8 8,8 3,0 6,-2 9,-5 0,0 63,-107 63,-107 0,-3 0,-6 0,-9 0,0 -3,-2 -3,-2 -3,-3 -3,-3 -5,-3l0 0z"/>
   <path id="_7_25" fill="white" fill-rule="nonzero" d="M1219 3043c-2,3 -5,3 -5,5 -3,3 -66,108 -66,110 0,0 0,3 0,3 3,6 5,8 8,8 3,0 6,-2 8,-5 0,0 64,-107 64,-107 0,-3 0,-6 0,-9 0,0 -3,-2 -3,-2 -3,-3 -6,-3 -6,-3l0 0z"/>
   <path id="_8_26" fill="white" fill-rule="nonzero" d="M1296 3079c-5,0 -8,2 -13,5 0,0 -6,6 -9,6 -2,5 -5,8 -5,13 0,3 0,6 0,17 0,16 0,16 0,19 3,3 3,8 5,11 3,0 9,6 9,6 5,2 8,5 13,5 0,0 14,0 17,0 2,0 8,-3 11,-3 0,-2 0,-2 5,-5 0,0 3,-3 3,-3 0,0 0,3 0,14l0 11 0 0c0,2 -3,2 -6,8 -2,3 -5,3 -5,3l-3 0 -16 0 -19 0 0 0c-3,2 -6,5 -6,8 0,3 3,5 6,8l0 0 19 0c11,0 16,0 19,0 3,0 8,-3 11,-5 3,-3 8,-6 8,-9 6,-2 6,-8 8,-11 0,-2 0,-2 0,-46 0,-50 0,-47 0,-47 0,-3 -2,-3 -2,-3 0,0 0,-2 -3,-2 0,0 -3,0 -3,0 -3,0 -3,0 -5,0 0,0 -3,2 -3,5 0,0 0,0 0,3l0 3 -3 -3c-3,-3 -3,-3 -5,-6 -3,0 -6,-2 -11,-2 0,0 -3,0 -9,0 -5,0 -8,0 -8,0l0 0 0 0zm17 16c0,0 0,0 2,0 0,0 14,14 14,14 0,0 3,3 3,3l0 0 0 8 0 8 0 0c0,3 -3,3 -6,6l-5 5c-5,6 -5,6 -8,6 0,0 0,0 -8,0l-9 0 0 0c-2,0 -2,0 -5,-3 -6,-3 -6,-6 -6,-6 0,-2 0,0 0,-16 0,-17 0,-14 0,-17 0,-2 0,-2 6,-5 3,-3 3,-3 5,-3 0,0 14,0 17,0l0 0 0 0z"/>
   <path id="_9_27" fill="white" fill-rule="nonzero" d="M1403 3079c-2,0 -5,2 -5,5 -3,3 0,8 5,8l0 3 9 0 8 0 0 28 0 30 -8 0 -9 0 0 0c-5,0 -5,3 -5,8 0,3 0,6 5,8l0 0 25 0 25 0 0 0c3,-2 5,-2 5,-5 3,0 3,-3 3,-3 0,-3 0,-3 -3,-5 0,0 -2,-3 -5,-3l0 0 -8 0 -9 0 0 -36c0,-30 0,-33 0,-33 0,0 0,-3 -2,-3 0,-2 0,-2 -3,-2 0,0 0,0 -14,0 -8,0 -14,0 -14,0l0 0 0 0zm17 -42c-3,0 -3,0 -6,3 0,0 0,0 -2,3 0,0 0,3 0,5 0,6 0,6 0,6 2,3 2,3 2,3 3,2 3,2 3,2 3,0 3,0 8,0 6,0 6,0 6,0 3,0 3,-2 5,-2 0,-3 0,-3 0,-9 0,-5 0,-5 0,-5 -2,-3 -2,-3 -5,-6 0,0 0,0 -6,0 -5,0 -5,0 -5,0l0 0z"/>
   <path id="_10_28" fill="white" fill-rule="nonzero" d="M1530 3051c0,0 -3,3 -6,6 0,0 0,0 0,11l0 11 -5 0c-3,0 -3,0 -3,0 -6,0 -8,2 -8,8 0,3 2,5 8,5 0,3 0,3 3,3l5 0 0 25c0,25 0,27 0,27 0,6 3,11 8,14 3,3 6,6 11,8l3 0 8 0c11,0 11,0 14,-2 6,0 8,0 11,-3 6,-6 8,-11 8,-17 0,-2 -2,-8 -5,-8 -3,0 -6,0 -8,3 0,0 0,3 -3,5 0,0 0,3 -3,6 -3,0 -3,0 -11,0l-11 0 0 0c0,0 -3,-3 -3,-3 0,0 -2,-3 -2,-3l0 0 0 -27 0 -25 16 0 17 0 0 -3c2,0 5,0 5,-2 0,-3 0,-3 0,-3 0,-3 0,-3 0,-6 0,0 -3,-2 -5,-2l0 0 -17 0 -16 0 0 -11c0,-11 0,-11 0,-11 -3,-3 -3,-3 -6,-6 0,0 0,0 0,0 -3,0 -3,0 -5,0l0 0 0 0z"/>
   <path id="_11_29" fill="white" fill-rule="nonzero" d="M1634 3043c0,3 -3,3 -3,3 -2,2 -2,2 -2,5 0,0 0,110 0,110 0,3 0,3 2,6 0,0 3,0 3,0 3,2 6,2 6,0 2,0 2,0 5,-3 0,-3 0,0 0,-28l0 -24 11 -9c8,-5 14,-8 14,-8 3,0 3,0 8,0l5 0 0 0c3,0 6,3 6,6 0,0 0,8 3,30 0,27 0,30 0,30 2,5 5,8 8,8 3,0 8,-3 8,-8 0,0 0,0 0,0 0,-3 -3,-60 -3,-60 0,-6 -2,-11 -5,-17 -6,-3 -8,-5 -14,-5 -3,0 -13,0 -16,0 -3,0 -6,0 -8,2 0,0 -3,0 -9,6l-8 5 0 -22c0,-22 0,-19 0,-22 -3,-2 -3,-2 -5,-2 0,0 0,0 0,0 -3,-3 -3,-3 -6,-3l0 0 0 0z"/>
   <path id="_12_30" fill="white" fill-rule="nonzero" d="M1755 3079c-3,0 -6,2 -6,2 0,3 0,3 0,6 0,3 3,58 3,60 0,6 3,11 6,14 2,3 8,6 13,8 3,0 14,0 14,0 3,0 6,-2 6,-2 2,0 5,0 13,-6l9 -5 0 2c0,3 0,3 0,6 0,0 2,3 2,3 3,2 6,2 9,2 0,-2 2,-2 2,-2 0,-3 3,-3 3,-6 0,0 0,0 0,-38 0,-28 0,-39 0,-39 0,0 -3,-3 -3,-3 0,0 0,-2 -2,-2 0,0 -3,0 -6,0 0,0 0,0 -3,0 0,0 -2,2 -2,2 0,0 0,0 0,3 0,0 0,0 0,28l0 24 -14 9c-6,2 -11,5 -11,8 -3,0 -3,0 -8,0l-6 0 -3 0c-2,-3 -2,-3 -5,-6 0,-2 0,-8 0,-33 0,-27 0,-30 0,-30 -3,-3 -3,-5 -6,-5 -2,0 -2,0 -5,0l0 0 0 0z"/>
   <path id="_13_31" fill="white" fill-rule="nonzero" d="M1876 3043c-3,3 -3,3 -6,3 0,2 0,2 0,5 0,0 0,110 0,110 0,3 0,3 0,6 3,0 3,0 6,0 0,2 2,2 5,0 0,0 3,0 3,-3 0,0 0,-3 0,-6l0 0 3 0c5,6 5,6 8,9 3,0 5,0 8,2 3,0 17,0 19,0 3,-2 9,-2 11,-5 3,-3 9,-8 9,-8 2,-3 5,-9 5,-14 0,0 0,-3 0,-19 0,-20 0,-20 0,-22 0,-3 -3,-9 -5,-11 0,0 -9,-6 -9,-6 -2,-3 -5,-5 -11,-5 0,0 -2,0 -11,0 -5,0 -8,0 -11,0 0,0 -5,2 -5,2 -3,0 -3,3 -6,6l-5 3 0 -20c0,-22 0,-19 0,-22 0,-2 -3,-2 -3,-2 0,0 -3,0 -3,0 0,-3 -2,-3 -2,-3l0 0 0 0zm44 52c2,0 2,0 2,0 0,0 3,3 6,3 0,3 3,3 3,5 0,0 0,0 2,3 0,0 0,0 0,17l0 19 -2 0c0,3 0,3 -3,5 -6,3 -6,6 -8,6l0 0 -9 0c-5,0 -5,0 -8,0 0,0 0,-3 0,-3 0,0 -5,-3 -8,-5 -6,-6 -8,-6 -8,-9 0,0 0,0 0,-2 -3,0 -3,0 -3,-11l0 -11 3 0c0,0 0,-3 0,-3 0,0 2,-3 8,-8 3,-3 8,-6 8,-6 0,0 0,0 3,0 0,0 3,0 8,0 6,0 6,0 6,0l0 0 0 0z"/>
   <path id="_14_32" fill="white" fill-rule="nonzero" d="M2019 3120c0,0 -3,0 -3,0 -3,3 -3,3 -3,5 0,0 0,14 0,17 0,3 0,3 3,3 0,2 0,2 3,2 0,0 0,0 11,0 11,0 8,0 11,0 0,0 2,-2 2,-2 3,-3 3,-3 3,-11 0,-9 0,-9 -3,-11 0,0 -2,-3 -2,-3 -3,0 0,0 -11,0 -9,0 -9,0 -11,0l0 0z"/>
   <path id="_15_33" fill="white" fill-rule="nonzero" d="M2145 3079c-6,0 -8,2 -14,2 0,3 -14,14 -16,17 -3,3 -6,8 -6,14 0,0 0,0 0,11 0,13 0,13 0,16 3,3 6,8 8,11 0,0 14,14 17,14 3,3 5,3 11,5 0,0 36,0 38,0 3,-2 6,-5 6,-8 0,-3 -3,-8 -6,-8 0,0 0,0 -19,0 -16,0 -19,0 -19,0 0,0 -3,-3 -3,-3 0,0 -3,-3 -8,-5 -6,-6 -6,-6 -6,-9 -2,0 -2,0 -2,-2 0,0 0,0 0,-11l0 -11 0 0c0,0 0,-3 2,-3 0,0 0,-3 6,-8 5,-3 8,-6 8,-6 0,0 3,0 3,0l0 0 19 0c19,0 19,0 19,-3 3,0 6,-2 6,-5 0,-6 -3,-8 -6,-8 -2,0 -38,0 -38,0l0 0 0 0z"/>
   <path id="_16_34" fill="white" fill-rule="nonzero" d="M2257 3079c-5,0 -8,2 -13,5 0,0 -6,6 -8,6 -3,5 -6,8 -6,13 0,3 0,3 0,20 0,16 0,19 0,19 0,5 3,11 6,14 0,0 8,5 8,8 2,2 8,2 11,2 2,3 2,3 13,3 14,0 14,0 17,-3 3,0 5,0 8,-2 3,-3 8,-6 8,-8 3,-3 6,-9 9,-14 0,0 0,-3 0,-19 0,-14 0,-17 0,-20 -3,-5 -3,-11 -9,-13 0,0 -5,-6 -8,-6 0,-3 -3,-3 -5,-5 -3,0 -3,0 -6,0 0,0 -3,0 -14,0 -8,0 -11,0 -11,0l0 0zm25 16c0,0 0,0 0,0 3,0 8,6 8,6 0,2 3,2 3,5 0,0 0,0 0,17l0 19 0 0c-3,3 -3,3 -5,5 -3,3 -6,3 -6,6 -3,0 0,0 -14,0 -11,0 -11,0 -13,0 0,-3 0,-3 -3,-6 -6,-2 -6,-2 -6,-5 0,0 0,0 0,-19l0 -17 0 -3c0,0 0,-2 6,-5l3 -3c0,0 0,0 2,0 0,0 0,0 11,0 11,0 11,0 14,0l0 0 0 0z"/>
   <path id="_17_35" fill="white" fill-rule="nonzero" d="M2354 3079c0,0 -3,0 -3,2 -3,0 -3,0 -3,3 0,3 0,77 0,77 0,3 0,3 3,6 0,0 3,0 3,0 2,2 5,2 5,0 3,0 3,0 3,0 0,-3 3,-3 3,-6 0,0 0,0 0,-27l0 -31 5 -2c3,-3 6,-6 6,-6 0,0 0,0 2,0 0,0 0,0 0,0 3,0 3,0 3,0l0 3 0 30c0,30 0,33 0,33 0,3 3,3 3,6 0,0 3,0 3,0 2,2 2,2 5,0 3,0 3,0 3,0 0,-3 3,-3 3,-6 0,0 0,0 0,-27l0 -31 5 -5c3,-3 6,-3 6,-3 0,0 0,0 0,0 0,0 0,0 2,0 0,0 0,0 0,0 0,3 0,8 3,33 0,19 0,33 0,33 0,3 0,3 0,3 3,0 3,3 3,3 3,2 5,2 5,2 3,0 3,0 3,-2 3,0 3,0 6,-3 0,0 0,-3 0,-3 0,0 -3,-66 -3,-66 0,-5 -3,-8 -6,-11 -2,-3 -8,-5 -11,-5 -5,0 -8,0 -13,2 0,0 0,0 -3,3l-3 0 0 0c0,0 0,0 -3,-3 -2,-2 -8,-2 -13,-2 -6,0 -9,2 -11,5 0,0 0,0 0,0 0,0 0,0 0,0 -3,-3 -3,-5 -6,-5 0,0 -3,0 -5,0l0 0 0 0z"/>
   <path id="_18_36" fill="white" fill-rule="nonzero" d="M2540 3043c-2,3 -5,3 -5,5 -3,3 -63,108 -66,110 0,0 0,3 0,3 3,6 5,8 8,8 3,0 6,-2 8,-5 0,0 64,-107 64,-107 0,-3 0,-6 0,-9 0,0 -3,-2 -3,-2 -3,-3 -6,-3 -6,-3l0 0z"/>
   <path id="_19_37" fill="white" fill-rule="nonzero" d="M2609 3079c-5,0 -8,2 -14,8 -2,3 -5,8 -2,14 0,5 2,8 5,11 0,2 3,2 6,5 0,0 5,3 13,6 22,11 30,13 30,13 0,0 3,0 3,0 3,3 3,9 3,11 -3,3 -3,3 -6,6l-2 0 -14 0c-14,0 -17,0 -19,0 0,0 0,0 -3,-3 -3,0 -3,0 -5,-3 -3,0 -3,-2 -6,-2 -3,0 -5,2 -8,5 0,3 0,6 0,6 0,2 3,2 5,5 3,3 3,3 9,5 2,0 2,0 5,3 3,0 3,0 19,0 19,0 19,0 22,-3 8,0 17,-8 19,-16 0,-5 0,-11 -2,-16 -3,-3 -6,-9 -9,-11 -2,0 0,0 -33,-14 -8,-3 -16,-8 -16,-8 0,0 0,0 0,0 -3,-3 -3,-3 -3,-3 0,0 0,0 3,0 0,-3 0,-3 3,-3 0,0 5,0 16,0l19 0 0 0c3,0 3,0 6,3 3,3 3,3 5,3 3,0 6,0 9,-6 0,0 0,0 0,0 0,-3 0,-3 0,-5 0,0 0,-3 -3,-6 -6,-3 -8,-5 -17,-5 0,0 -35,0 -38,0l0 0z"/>
   <path id="_20" fill="white" fill-rule="nonzero" d="M2724 3079c-2,0 -5,2 -5,5 -3,3 0,8 5,8l0 3 9 0 8 0 0 28 0 30 -8 0 -9 0 0 0c-5,0 -5,3 -5,8 0,3 0,6 5,8l0 0 25 0 25 0 3 0c0,-2 2,-2 2,-5 3,0 3,-3 3,-3 0,-3 0,-3 -3,-5 0,0 -2,-3 -2,-3l-3 0 -8 0 -9 0 0 -36c0,-30 0,-33 0,-33 0,0 0,-3 -2,-3 0,-2 0,-2 -3,-2 0,0 0,0 -14,0 -8,0 -14,0 -14,0l0 0 0 0zm17 -42c-3,0 -3,0 -6,3 0,0 0,0 0,3 -2,0 -2,3 -2,5 0,6 0,6 2,6 0,3 0,3 0,3 3,2 3,2 3,2 3,0 3,0 8,0 6,0 6,0 6,0 3,0 3,-2 5,-2 0,-3 0,-3 0,-9 0,-5 0,-5 0,-5 -2,-3 -2,-3 -5,-6 0,0 0,0 -6,0 -5,0 -5,0 -5,0l0 0z"/>
   <path id="_21" fill="white" fill-rule="nonzero" d="M2834 3079c0,0 -3,0 -3,2 -2,0 -2,0 -2,3 0,3 0,77 0,77 0,3 0,3 2,6 0,0 3,0 3,0 3,2 3,2 6,0 2,0 2,0 2,0 0,-3 3,-3 3,-6 0,0 0,0 0,-27l0 -31 6 -2c2,-3 5,-6 5,-6 0,0 0,0 3,0 0,0 0,0 0,0 0,0 3,0 3,0l0 3 0 30c0,30 0,33 0,33 0,3 0,3 2,6 0,0 3,0 3,0 3,2 3,2 6,0 2,0 2,0 2,0 0,-3 3,-3 3,-6 0,0 0,0 0,-27l0 -31 6 -5c2,-3 5,-3 5,-3 0,0 0,0 0,0 0,0 0,0 3,0 0,0 0,0 0,0 0,3 0,8 3,33 0,19 0,33 0,33 0,3 0,3 0,3 2,0 2,3 2,3 3,2 6,2 6,2 0,0 3,0 3,-2 2,0 2,0 2,-3 3,0 3,-3 3,-3 0,0 -3,-66 -3,-66 0,-5 -2,-8 -5,-11 -3,-3 -8,-5 -11,-5 -6,0 -8,0 -14,2 0,0 0,0 -3,3l-2 0 0 0c0,0 -3,0 -3,-3 -3,-2 -8,-2 -14,-2 -5,0 -8,2 -11,5 0,0 0,0 0,0 0,0 0,0 0,0 -3,-3 -3,-5 -5,-5 0,0 -3,0 -6,0l0 0 0 0z"/>
   <path id="_22" fill="white" fill-rule="nonzero" d="M2977 3079c-5,0 -8,2 -11,5 -3,0 -8,6 -8,6 -6,5 -6,8 -8,13 0,3 0,3 0,20 0,16 0,19 0,19 0,5 2,11 8,14 0,0 5,5 8,8 3,2 6,2 8,2 3,3 3,3 17,3 11,0 11,0 13,-3 3,0 9,0 11,-2 3,-3 6,-6 6,-8 5,-3 8,-9 8,-14 0,0 0,-3 0,-19 0,-14 0,-17 0,-20 0,-5 -3,-11 -8,-13 0,0 -3,-6 -6,-6 -2,-3 -5,-3 -8,-5 0,0 -3,0 -3,0 -2,0 -2,0 -13,0 -11,0 -14,0 -14,0zm25 16c0,0 2,0 2,0 0,0 6,6 9,6 0,2 0,2 0,5 0,0 0,0 0,17l0 19 0 0c0,3 0,3 -6,5 -3,3 -3,3 -5,6 0,0 0,0 -11,0 -14,0 -14,0 -14,0 -3,-3 -3,-3 -5,-6 -3,-2 -3,-2 -6,-5 0,0 0,0 0,-19l0 -17 0 -3c0,0 3,-2 6,-5l2 -3c0,0 3,0 3,0 0,0 3,0 14,0 11,0 11,0 11,0l0 0 0 0z"/>
   <path id="_23" fill="white" fill-rule="nonzero" d="M3076 3079c0,0 -3,0 -3,2 -3,0 -3,0 -3,3 0,3 0,77 0,77 0,3 0,3 3,6 0,0 0,0 3,0 3,2 3,2 5,0 3,0 3,0 3,-3 3,-3 3,0 3,-28l0 -24 11 -9c8,-5 14,-8 14,-8 0,0 0,0 8,0l5 0 0 0c3,0 6,3 6,6 0,0 0,8 3,30 0,33 0,30 0,33 2,3 5,5 8,5 3,0 5,-2 8,-8 0,0 0,0 0,0 0,-3 -3,-60 -3,-60 0,-6 -2,-11 -5,-17 -6,-3 -8,-5 -14,-5 -3,0 -14,0 -16,0 -3,0 -6,0 -9,2 0,0 -2,0 -8,6l-8 5 0 -5c0,-3 0,-3 0,-3 -3,-3 -3,-5 -6,-5 0,0 -2,0 -5,0l0 0 0 0z"/>
   <path id="_24" fill="white" fill-rule="nonzero" d="M3197 3079c-3,0 -3,0 -6,2 0,0 -3,0 -3,3 0,3 0,77 0,77 0,3 3,3 3,6 0,0 3,0 3,0 3,2 5,2 5,0 3,0 3,0 3,0 3,-3 3,-3 3,-6 0,0 0,0 0,-27l0 -31 5 -2c3,-3 6,-6 6,-6 3,0 3,0 3,0 0,0 0,0 0,0 2,0 2,0 2,0l0 3 0 30c0,30 0,33 0,33 0,3 3,3 3,6 0,0 3,0 3,0 3,2 5,2 5,0 3,0 3,0 3,0 3,-3 3,-3 3,-6 0,0 0,0 0,-27l0 -31 5 -5c3,-3 6,-3 6,-3 0,0 0,0 0,0 0,0 3,0 3,0 0,0 0,0 0,0 0,3 0,8 2,33 0,19 0,33 0,33 0,3 0,3 3,3 0,0 0,3 3,3 0,2 3,2 3,2 2,0 2,0 2,-2 3,0 3,0 6,-3 0,0 0,-3 0,-3 0,0 -3,-66 -3,-66 0,-5 -3,-8 -5,-11 -3,-3 -6,-5 -11,-5 -3,0 -9,0 -11,2 -3,0 -3,0 -6,3l0 0 -3 0c0,0 0,0 -2,-3 -3,-2 -9,-2 -14,-2 -3,0 -8,2 -11,5 0,0 0,0 0,0 0,0 0,0 0,0 0,-3 -3,-5 -3,-5 -3,0 -5,0 -5,0l0 0 0 0z"/>
   <path id="_25" fill="white" fill-rule="nonzero" d="M3337 3079c-3,0 -8,2 -11,5 -3,0 -8,6 -8,6 -3,5 -6,8 -9,13 0,3 0,3 0,20 0,16 0,19 0,19 3,5 3,11 9,14 0,0 5,5 8,8 3,2 5,2 8,2 3,3 3,3 17,3 10,0 10,0 13,-3 6,0 8,0 11,-2 3,-3 6,-6 8,-8 3,-3 6,-9 6,-14 0,0 0,-3 0,-19 0,-14 0,-17 0,-20 0,-5 -3,-11 -6,-13 -2,0 -5,-6 -8,-6 -3,-3 -5,-3 -8,-5 0,0 -3,0 -3,0 -3,0 -3,0 -13,0 -9,0 -11,0 -14,0zm24 16c3,0 3,0 3,0 0,0 8,6 8,6 0,2 0,2 0,5 0,0 0,0 0,17l0 19 0 0c0,3 0,3 -5,5 -3,3 -3,3 -3,6 -3,0 -3,0 -13,0 -14,0 -11,0 -14,0 0,-3 -3,-3 -6,-6 -2,-2 -2,-2 -2,-5 -3,0 -3,0 -3,-19l0 -17 0 -3c3,0 3,-2 5,-5l3 -3c3,0 3,0 3,0 3,0 3,0 14,0 10,0 10,0 10,0l0 0 0 0z"/>
   <path id="_26" fill="white" fill-rule="nonzero" d="M3438 3079c-2,0 -2,0 -5,2 0,0 -3,0 -3,3 0,3 0,77 0,77 0,3 3,3 3,6 0,0 3,0 3,0 2,2 5,2 5,0 3,0 3,0 6,-3 0,-3 0,0 0,-28l0 -24 11 -9c8,-5 13,-8 13,-8 3,0 3,0 9,0l5 0 0 0c3,0 6,3 6,6 0,0 0,8 2,30 0,33 0,30 0,33 3,3 6,5 9,5 2,0 8,-2 8,-8 0,0 0,0 0,0 0,-3 -3,-60 -3,-60 0,-6 -3,-11 -5,-17 -6,-3 -9,-5 -14,-5 -3,0 -14,0 -17,0 -2,0 -5,0 -8,2 0,0 -3,0 -8,6l-8 5 0 -5c0,-3 0,-3 0,-3 0,-3 -3,-5 -3,-5 -3,0 -6,0 -6,0l0 0z"/>
   <path id="_27" fill="white" fill-rule="nonzero" d="M3556 3043c0,3 -2,3 -2,3 -3,2 -3,2 -3,5 0,0 0,110 0,110 0,3 0,3 3,6 0,0 0,0 2,0 3,2 3,2 6,0 3,0 3,0 3,-3 2,-3 2,0 2,-14l0 -14 3 -2 6 -3 0 0c0,0 41,35 41,35 5,3 11,3 14,-5 0,0 0,0 0,0 0,-3 -3,-5 -3,-5 0,-3 -11,-9 -22,-20 -11,-8 -19,-16 -19,-16 0,0 8,-6 16,-14 8,-8 17,-14 17,-14 2,-5 2,-11 0,-13 0,0 -3,0 -3,0 -3,0 -3,0 -6,0 0,0 -2,0 -2,0 0,0 -9,8 -22,19l-20 19 0 -33c0,-33 0,-33 0,-33 -2,-3 -2,-5 -2,-5 -3,0 -3,0 -3,0 -3,-3 -3,-3 -6,-3l0 0 0 0z"/>
   <path id="_28" fill="white" fill-rule="nonzero" d="M3740 3043c-2,3 -2,3 -5,5 0,3 -63,108 -63,110 0,0 0,3 0,3 0,6 3,8 5,8 3,0 6,-2 9,-5 0,0 63,-107 63,-107 2,-3 2,-6 0,-9 0,0 0,-2 -3,-2 0,-3 -3,-3 -6,-3l0 0z"/>
   <path id="_29" fill="white" fill-rule="nonzero" d="M3812 3079c-6,0 -11,2 -14,8 -5,3 -5,8 -5,14 0,5 2,8 5,11 3,2 3,2 6,5 0,0 5,3 13,6 22,11 33,13 33,13 0,0 0,0 0,0 3,3 6,9 3,11 0,3 -3,3 -5,6l0 0 -17 0c-11,0 -16,0 -16,0 -3,0 -3,0 -6,-3 -3,0 -3,0 -5,-3 0,0 -3,-2 -3,-2 -6,0 -8,2 -8,5 -3,3 -3,6 0,6 0,2 0,2 2,5 3,3 6,3 9,5 2,0 5,0 8,3 0,0 0,0 19,0 17,0 17,0 19,-3 11,0 17,-8 20,-16 0,-5 0,-11 -3,-16 0,-3 -3,-9 -8,-11 -3,0 0,0 -33,-14 -9,-3 -14,-8 -14,-8 -3,0 -3,0 -3,0 0,-3 0,-3 0,-3 0,0 0,0 0,0 0,-3 3,-3 3,-3 0,0 5,0 19,0l17 0 2 0c0,0 3,0 3,3 3,3 3,3 6,3 5,0 8,0 8,-6 0,0 0,0 3,0 0,-3 0,-3 0,-5 -3,0 -3,-3 -6,-6 -3,-3 -8,-5 -14,-5 -2,0 -38,0 -38,0l0 0z"/>
   <path id="_30" fill="white" fill-rule="nonzero" d="M3938 3079c-5,0 -8,2 -14,5 0,0 -5,6 -5,6 -5,5 -8,8 -8,13 0,3 0,3 0,20 0,16 0,19 0,19 0,5 3,11 8,14 0,0 5,5 8,8 3,2 6,2 11,5 3,0 44,0 47,0 3,-3 5,-5 5,-8 0,-3 -2,-8 -5,-8 0,0 0,0 -25,0l-22 0 0 0c0,0 -3,-3 -5,-6 -3,-2 -6,-2 -6,-5 0,0 0,0 0,-3l0 -5 28 0c27,0 30,0 30,0 0,0 3,0 3,0 0,-3 0,-3 2,-3 0,-3 0,-3 0,-14 0,-11 0,-14 0,-16 -2,-3 -2,-9 -5,-11 -3,0 -6,-6 -8,-6 -3,-3 -9,-5 -11,-5 -3,0 -3,0 -17,0 -8,0 -11,0 -11,0l0 0zm25 16c3,0 3,0 5,3 3,3 3,3 3,3 3,2 3,2 3,2 0,3 0,0 0,9l0 8 -22 0 -25 0 0 -8 0 -6 0 -3c0,0 0,0 3,-2 0,0 0,0 3,-3 2,-3 5,-3 5,-3 0,0 0,0 14,0l11 0 0 0 0 0z"/>
   <path id="_31" fill="white" fill-rule="nonzero" d="M4037 3079c0,0 -3,0 -3,2 -2,0 -2,0 -2,3 0,3 0,77 0,77 0,3 0,3 2,6 0,0 0,0 3,0 3,2 3,2 6,0 2,0 2,0 2,-3 3,-3 3,0 3,-25l0 -22 14 -11 11 -11 8 0c8,0 8,0 8,0 3,0 3,0 3,3 0,0 3,0 3,3l0 0 0 2c0,3 0,6 0,6 0,3 3,5 8,5 3,0 6,-2 8,-5 0,-3 0,-8 0,-11 -2,-8 -8,-17 -19,-19 -3,0 -3,0 -14,0 -8,0 -8,0 -8,0 -3,0 -3,0 -3,0 0,0 -5,5 -11,8 -5,5 -8,8 -8,8 0,0 0,-3 0,-5 0,-6 0,-6 0,-6 -3,-3 -3,-3 -3,-3 0,0 0,-2 -2,-2 0,0 -3,0 -6,0l0 0 0 0z"/>
   <path id="_32" fill="white" fill-rule="nonzero" d="M4158 3079c-3,0 -3,0 -6,2 0,0 0,0 0,3 0,0 0,0 0,8 0,9 0,9 0,11 0,3 28,61 28,61 0,3 0,3 3,3 0,0 0,2 2,2 0,0 11,0 11,0 3,0 3,-2 3,-2 3,0 3,0 3,-3 0,0 27,-58 27,-61 0,-2 0,-2 0,-11 0,-8 0,-8 0,-8 0,-3 0,-3 0,-3 -2,-2 -2,-2 -2,-2 -3,0 -6,0 -6,0 -3,0 -3,0 -5,2 0,0 0,0 0,3 0,0 0,0 0,8l0 6 -14 27c-6,14 -11,28 -11,28 0,0 -6,-14 -11,-28l-14 -27 0 -6c0,-8 0,-8 0,-8 0,-3 0,-3 0,-3 0,0 -3,-2 -3,-2 -2,0 -2,0 -5,0l0 0 0 0z"/>
   <path id="_33" fill="white" fill-rule="nonzero" d="M4298 3079c-3,0 -8,2 -11,5 -3,0 -8,6 -8,6 -6,5 -6,8 -8,13 0,3 0,3 0,20 0,16 0,19 0,19 2,5 2,11 8,14 0,0 5,5 8,8 3,2 5,2 8,2 3,3 3,3 17,3 11,0 11,0 13,-3 3,0 9,0 11,-2 3,-3 6,-6 9,-8 2,-3 5,-9 5,-14 0,0 0,-3 0,-19 0,-14 0,-17 0,-20 0,-5 -3,-11 -5,-13 -3,0 -6,-6 -9,-6 -2,-3 -5,-3 -8,-5 0,0 -3,0 -3,0 -2,0 -2,0 -13,0 -11,0 -14,0 -14,0zm25 16c0,0 2,0 2,0 0,0 9,6 9,6 0,2 0,2 0,5 0,0 0,0 0,17l0 19 0 0c0,3 0,3 -6,5 -3,3 -3,3 -3,6 -2,0 -2,0 -13,0 -14,0 -14,0 -14,0 0,-3 -3,-3 -6,-6 -2,-2 -2,-2 -5,-5 0,0 0,0 0,-19l0 -17 0 -3c3,0 3,-2 5,-5l3 -3c3,0 3,0 3,0 3,0 3,0 14,0 11,0 11,0 11,0l0 0 0 0z"/>
   <path id="_34" fill="white" fill-rule="nonzero" d="M4411 3079c-6,0 -9,2 -14,8 -3,3 -6,8 -3,14 0,5 3,8 6,11 0,2 2,2 5,5 0,0 6,3 14,6 22,11 30,13 30,13 3,0 3,0 3,0 3,3 3,9 3,11 -3,3 -3,3 -6,6l0 0 -16 0c-11,0 -17,0 -20,0 0,0 0,0 -2,-3 -3,0 -3,0 -6,-3 -3,0 -3,-2 -5,-2 -3,0 -6,2 -9,5 0,3 0,6 0,6 3,2 3,2 6,5 3,3 5,3 8,5 3,0 6,0 8,3 0,0 0,0 17,0 19,0 19,0 22,-3 8,0 16,-8 19,-16 0,-5 0,-11 -3,-16 0,-3 -5,-9 -8,-11 -3,0 0,0 -33,-14 -8,-3 -16,-8 -16,-8 0,0 0,0 0,0 0,-3 0,-3 0,-3 0,0 0,0 0,0 0,-3 0,-3 2,-3 0,0 6,0 20,0l16 0 0 0c3,0 6,0 6,3 2,3 2,3 5,3 3,0 5,0 8,-6 0,0 0,0 0,0 0,-3 0,-3 0,-5 0,0 0,-3 -3,-6 -5,-3 -8,-5 -13,-5 -3,0 -39,0 -41,0l0 0z"/>
   <path id="_35" fill="white" fill-rule="nonzero" d="M4526 3079c-3,0 -6,2 -6,5 -2,3 0,8 6,8l0 3 8 0 8 0 0 28 0 30 -8 0 -8 0 0 0c-3,0 -6,3 -6,8 0,3 3,6 6,8l0 0 25 0 24 0 3 0c0,-2 3,-2 3,-5 3,0 3,-3 3,-3 0,-3 0,-3 -3,-5 0,0 -3,-3 -3,-3l-3 0 -8 0 -8 0 0 -36c0,-30 0,-33 0,-33 0,0 0,-3 -3,-3 0,-2 0,-2 -3,-2 0,0 0,0 -13,0 -9,0 -14,0 -14,0l0 0 0 0zm16 -42c-2,0 -2,0 -5,3 0,0 0,0 0,3 -3,0 -3,3 -3,5 0,6 0,6 3,6 0,3 0,3 0,3 3,2 3,2 3,2 2,0 2,0 8,0 5,0 5,0 5,0 3,0 6,-2 6,-2 0,-3 0,-3 0,-9 0,-5 0,-5 0,-5 0,-3 -3,-3 -6,-6 0,0 0,0 -5,0 -6,0 -6,0 -6,0l0 0z"/>
   <path id="_36" fill="white" fill-rule="nonzero" d="M4641 3079c-2,0 -5,2 -8,2 0,3 0,3 0,3 0,3 0,6 0,6 3,0 6,5 14,16 8,8 13,17 13,17 0,0 -5,8 -13,16 -8,8 -14,17 -14,17 -3,2 -3,5 0,8 3,5 8,5 11,3 0,0 8,-9 14,-17l13 -14 0 -2 14 16c6,8 11,17 11,17 3,2 8,2 11,0 6,-3 6,-9 3,-11 0,0 -8,-9 -14,-17 -8,-8 -14,-16 -14,-16 0,0 6,-9 14,-17 8,-11 11,-16 11,-16 3,0 3,-3 3,-6 0,-5 -8,-8 -11,-5 -3,0 -3,0 -3,2 0,0 -5,6 -14,14 -5,8 -11,14 -11,14 0,0 0,0 -10,-14 -9,-8 -14,-14 -14,-14 0,-2 -3,-2 -3,-2 -3,0 -3,0 -3,0l0 0 0 0z"/>
   <path id="text_7__18" fill="white" fill-rule="nonzero" d="M3441 1780l39 0c2,0 5,2 8,5 0,0 3,3 3,8 0,3 -3,6 -3,9 -3,2 -6,2 -8,2l-39 0c-3,0 -5,3 -8,6l-33 41c-3,3 -3,8 -3,14l0 63c0,5 0,8 3,8 3,3 5,6 8,6l47 0c3,0 5,-3 8,-6 3,0 3,-3 3,-8l0 -25 -25 0c-3,0 -5,0 -8,-3 0,-2 -3,-5 -3,-8 0,-3 3,-5 3,-8 3,-3 5,-3 8,-3l50 0 0 47c0,11 -6,19 -11,25 -9,8 -17,11 -25,11l-47 0c-11,0 -19,-3 -25,-11 -8,-6 -11,-14 -11,-25l0 -63c0,-11 3,-22 9,-28l35 -44c3,-2 6,-5 11,-8 3,-3 9,-5 14,-5l0 0z"/>
   <path id="_1_38" fill="white" fill-rule="nonzero" d="M3661 1793l0 171 -33 0 -61 -143 0 132c0,2 -2,5 -5,8 0,3 -3,3 -8,3 -3,0 -6,0 -9,-3 0,-3 -2,-6 -2,-8l0 -173 30 0 63 142 0 -129c0,-2 3,-5 3,-8 3,-3 5,-5 8,-5 6,0 8,2 8,5 3,3 6,6 6,8l0 0z"/>
   <path id="_2_39" fill="white" fill-rule="nonzero" d="M3724 1780l47 0c5,0 11,2 16,8 6,3 11,8 14,14l22 44c5,8 8,19 8,27 0,8 -3,16 -8,25l-22 46c-3,6 -8,11 -14,14 -5,3 -11,6 -19,6l-44 0c-3,0 -5,0 -8,-3 0,-3 -3,-6 -3,-8 0,-3 3,-6 3,-9 3,-2 5,-2 8,-2l14 0 0 -138 -14 0c-3,0 -5,0 -8,-2 0,-3 -3,-6 -3,-9 0,-2 3,-5 3,-8 3,-3 5,-5 8,-5l0 0zm36 24l0 138 8 0c5,0 8,-3 11,-9l25 -46c2,-6 2,-11 2,-14 0,-5 0,-11 -2,-14l-25 -46c0,-6 -6,-9 -11,-9l-8 0z"/>
   <polygon id="text_7__19" fill="white" fill-rule="nonzero" points="4067,1933 4067,1878 4012,1878 4012,1857 4067,1857 4067,1802 4092,1802 4092,1857 4147,1857 4147,1878 4092,1878 4092,1933 "/>
   <path id="_1_40" fill="white" fill-rule="nonzero" d="M4270 1966l-77 -200 28 0 52 145c5,11 8,22 11,33 3,-11 8,-22 11,-33l55 -145 27 0 -79 200 -28 0 0 0z"/>
   <path fill="black" d="M4166 2326l258 0c14,0 25,39 25,88l0 467c0,48 -11,88 -25,88l-258 0c-13,0 -25,-40 -25,-88l0 -467c0,-49 12,-88 25,-88z"/>
   <path fill="black" d="M3584 3416l632 0c31,0 57,40 57,88l0 467c0,49 -26,88 -57,88l-632 0c-32,0 -58,-39 -58,-88l0 -467c0,-48 26,-88 58,-88z"/>
   <circle id="hole_6__20" fill="#9A916C" stroke="white" stroke-width="25" cx="3913" cy="3740" r="343"/>
   <path id="text_7__21" fill="white" fill-rule="nonzero" d="M2051 4872c-10,0 -21,5 -27,16 -8,11 -8,28 0,42 0,0 30,35 63,82 36,44 63,80 63,80 0,2 0,2 -2,5l0 0 -44 0 -44 0 0 0c-3,-3 -6,-5 -8,-8 0,0 0,-3 0,-3 0,-5 0,-8 -6,-14 -3,-2 -5,-2 -11,-2 -3,0 -3,0 -5,0 -3,0 -6,2 -6,5 -5,3 -5,8 -5,14 0,11 5,22 13,27 6,9 17,14 25,14 3,0 8,0 47,0 49,0 46,0 52,0 19,-5 30,-22 27,-41 0,-6 -2,-11 -5,-17 0,0 -28,-38 -63,-82 -33,-44 -63,-80 -63,-80 0,-2 0,-5 2,-5l0 0 44 0 44 0 0 0c6,0 6,3 8,5 0,3 0,3 0,6 0,5 3,8 6,11 3,3 5,3 8,5 0,0 3,0 3,0 5,0 8,0 14,-5 2,-3 5,-8 2,-17 0,-8 -5,-19 -11,-27 -8,-6 -16,-11 -27,-11 -3,-3 -8,-3 -47,-3 -36,0 -44,3 -46,3l0 0 -1 0z"/>
   <path id="_1_41" fill="white" fill-rule="nonzero" d="M2326 4941c-8,2 -19,5 -25,11 -5,5 -16,13 -16,16 -8,8 -14,17 -14,28 0,2 0,5 0,41 0,30 0,35 0,38 0,11 6,22 14,30 0,3 14,14 16,14 9,6 17,11 25,11 6,0 94,0 96,0 8,0 14,-8 14,-16 0,-6 -3,-14 -11,-17 -3,0 3,0 -49,0l-47 0 0 0c-6,-3 -6,-3 -14,-8 -8,-8 -8,-8 -11,-11 0,-3 0,-3 0,-11l0 -6 58 -2c57,0 60,0 60,0 3,0 6,0 8,-3 3,0 3,-3 3,-6 3,-2 3,-2 3,-27 0,-25 0,-25 0,-30 -3,-11 -8,-19 -14,-25 -2,-3 -11,-11 -16,-16 -6,-3 -14,-9 -22,-9 -6,-2 -6,-2 -30,-2 -20,0 -25,0 -28,0l0 0zm52 35c3,0 6,0 11,9 6,2 9,5 9,5 2,3 2,3 2,6 3,2 3,2 3,16l0 14 -49 0 -50 0 0 -14 0 -14 0 -2c0,0 3,-3 3,-6 0,0 5,-3 8,-5 8,-6 8,-9 11,-9 3,0 3,0 28,0l24 0 0 0 0 0z"/>
   <path id="_2_42" fill="white" fill-rule="nonzero" d="M2535 4941c-3,2 -6,2 -8,5 -3,3 -3,6 -6,8 0,3 0,160 0,162 3,6 3,6 6,9 2,2 2,5 5,5 6,0 8,0 14,0 3,-3 5,-5 8,-8 0,-6 0,0 0,-52l0 -47 30 -25 28 -22 13 0c17,0 17,0 20,0 2,3 5,3 5,6 3,0 3,3 3,5l0 0 0 9c0,8 3,8 3,8 0,8 8,14 16,14 8,0 14,-6 17,-14 0,-3 0,-14 0,-19 -3,-20 -20,-36 -39,-42 -5,-2 -5,-2 -27,-2 -19,0 -22,0 -22,0 -3,2 -3,2 -6,2 0,0 -11,9 -19,20 -11,8 -19,16 -19,16 -3,0 -3,-5 -3,-11 0,-11 0,-14 0,-16 0,0 0,0 0,-3 -3,0 -5,-6 -8,-6 -3,-2 -6,-2 -11,-2l0 0 0 0z"/>
   <path id="_3_43" fill="white" fill-rule="nonzero" d="M2788 4941c-3,2 -6,2 -9,5 -2,3 -2,3 -5,6 0,2 0,2 0,22 0,16 0,16 0,19 3,8 57,129 57,129 3,3 6,5 6,5 3,3 3,3 5,3 3,0 25,0 28,0 3,0 3,0 5,-3 3,0 6,-2 6,-5 0,0 55,-121 58,-129 0,-3 0,-3 0,-19 0,-20 0,-20 0,-22 0,-3 -3,-3 -3,-6 -3,-3 -6,-3 -8,-3 -3,-2 -6,-2 -11,0 -3,0 -3,0 -6,3 -3,3 -3,3 -5,6 0,2 0,5 0,19l0 11 -25 57c-14,31 -25,55 -25,55 0,0 -11,-24 -25,-55l-24 -57 0 -11c0,-14 0,-17 0,-19 0,0 -3,0 -3,-3 0,0 -3,-6 -6,-6 -2,-2 -8,-2 -11,-2l0 0 1 0z"/>
   <path id="_4_44" fill="white" fill-rule="nonzero" d="M3081 4941c-8,2 -16,5 -24,11 -3,2 -17,13 -17,16 -8,8 -14,17 -14,28 -2,2 -2,5 -2,41 0,30 0,35 2,38 0,11 6,22 14,30 0,3 14,14 17,14 5,6 13,8 19,11 5,0 5,0 33,0 25,0 25,0 30,0 8,-3 17,-5 22,-11 3,-3 14,-11 16,-14 6,-8 11,-16 14,-27 0,-6 0,-6 0,-41 0,-33 0,-39 0,-41 -3,-11 -5,-22 -14,-31 -2,0 -11,-8 -16,-13 -5,-3 -11,-6 -14,-9 -2,0 -8,0 -11,-2 -2,0 -5,0 -27,0 -19,0 -25,0 -28,0l0 0zm53 35c0,0 2,0 5,3 0,0 14,11 14,14 3,0 3,3 5,5 0,0 0,3 0,39l0 35 -2 3c0,6 0,6 -9,14 -8,5 -8,5 -11,5 -2,3 -2,3 -27,3 -28,0 -25,0 -30,-3 0,0 -3,0 -9,-5 -8,-8 -8,-8 -11,-11 0,-3 0,0 0,-41l0 -39 0 -2c3,-3 3,-3 11,-11l6 -6c3,-3 5,-3 5,-3 3,0 3,0 28,0 22,0 22,0 25,0l0 0 0 0z"/>
   <path id="text_7__22" fill="white" fill-rule="nonzero" d="M412 5655c-6,0 -11,2 -17,5 -2,3 -19,19 -21,19 -3,6 -6,11 -9,20 0,0 0,2 0,16 0,17 0,17 0,19 3,6 6,11 9,14 2,3 21,17 21,19 6,3 11,6 17,6 3,0 47,0 49,0 6,0 9,-6 9,-11 0,-3 -3,-8 -6,-8 -3,0 0,0 -27,0 -22,0 -25,0 -25,-3 0,0 -3,0 -3,0 0,0 -5,-6 -11,-8 -5,-6 -8,-9 -8,-9 -3,-2 -3,-2 -3,-5 0,0 0,-3 0,-14l0 -16 0 0c0,0 0,-3 3,-3 0,0 3,-3 8,-8 6,-6 11,-9 11,-11 0,0 3,0 3,0l0 0 25 0c27,0 24,0 27,-3 3,0 6,-6 6,-8 0,-6 -3,-9 -9,-11 -2,0 -46,0 -49,0l0 0 0 0z"/>
   <path id="text_7__23" fill="white" fill-rule="nonzero" d="M610 5641c-3,0 -6,0 -6,3 -3,0 -3,2 -3,2 0,3 0,3 0,20l0 16 -16 0 -17 0 -2 0c-3,0 -9,6 -9,11 0,3 6,8 9,8l2 0 17 0 16 0 0 17c0,16 0,16 0,19 0,3 0,3 3,3 0,3 3,3 3,3 3,2 5,2 8,0 3,0 3,-3 6,-6 0,0 0,0 0,-19l0 -17 16 0c14,0 17,0 17,0 5,0 8,-5 8,-8 0,-5 -3,-11 -8,-11 0,0 -3,0 -17,0l-16 0 0 -16c0,-20 0,-17 0,-20 -3,-2 -3,-5 -6,-5 0,0 0,0 -3,0 0,0 -2,0 -2,0l0 0 0 0z"/>
   <path id="text_7__24" fill="white" fill-rule="nonzero" d="M774 5682c-2,0 -5,0 -5,3 -3,0 -3,3 -3,3 -3,2 -3,2 -3,8 0,5 0,5 3,8 0,0 0,3 0,3 0,0 3,3 3,3 3,0 3,2 5,2 0,0 11,0 44,0 39,0 42,0 42,0 2,-2 5,-2 5,-2 0,-3 3,-3 3,-6 0,0 0,0 0,-8 0,-6 0,-6 0,-8 0,-3 -3,-3 -3,-3 0,-3 -3,-3 -5,-3 0,0 -3,0 -44,0 -33,0 -42,0 -42,0l0 0 0 0z"/>
   <path id="text_7__25" fill="white" fill-rule="nonzero" d="M1197 5655c-5,0 -11,2 -16,5 0,3 -19,19 -22,19 -3,6 -6,11 -8,20 0,0 0,2 0,16 0,17 0,17 2,19 0,6 3,11 9,14 0,3 19,17 19,19 5,3 11,6 16,6 3,0 47,0 50,0 5,0 8,-6 8,-11 0,-3 -3,-8 -5,-8 -3,0 0,0 -28,0 -22,0 -22,0 -25,-3 0,0 -2,0 -2,0 0,0 -6,-6 -11,-8 -6,-6 -9,-9 -9,-9 -2,-2 -2,-2 -2,-5 0,0 0,-3 0,-14l0 -16 0 0c0,0 0,-3 2,-3 0,0 3,-3 9,-8 5,-6 11,-9 11,-11 0,0 2,0 2,0l3 0 22 0c28,0 25,0 28,-3 2,0 5,-6 5,-8 0,-6 -3,-9 -8,-11 -3,0 -47,0 -50,0l0 0 0 0z"/>
   <path id="text_7__26" fill="white" fill-rule="nonzero" d="M1395 5641c-3,0 -3,0 -5,3 -3,0 -3,2 -3,2 0,3 0,3 0,20l0 16 -17 0 -16 0 -3 0c-3,0 -5,6 -5,11 0,3 2,8 5,8l3 0 16 0 17 0 0 17c0,16 0,16 0,19 0,3 0,3 3,3 0,3 2,3 2,3 3,2 6,2 9,0 2,0 5,-3 5,-6 0,0 0,0 0,-19l0 -17 17 0c13,0 16,0 16,0 6,0 8,-5 8,-8 0,-5 -2,-11 -8,-11 0,0 -3,0 -16,0l-17 0 0 -16c0,-20 0,-17 0,-20 0,-2 -3,-5 -5,-5 0,0 0,0 0,0 -3,0 -6,0 -6,0l0 0 0 0z"/>
   <path id="text_7__27" fill="white" fill-rule="nonzero" d="M1560 5682c-3,0 -6,0 -6,3 -2,0 -2,3 -2,3 0,2 0,2 0,8 0,5 0,5 0,8 0,0 0,3 0,3 0,0 2,3 2,3 3,0 3,2 6,2 0,0 11,0 44,0 41,0 41,0 44,0 0,-2 3,-2 3,-2 0,-3 2,-3 2,-6 0,0 0,0 0,-8 0,-6 0,-6 0,-8 0,-3 -2,-3 -2,-3 0,-3 -3,-3 -3,-3 -3,0 -3,0 -44,0 -36,0 -44,0 -44,0l0 0 0 0z"/>
   <path id="text_7__28" fill="white" fill-rule="nonzero" d="M1964 5663c-6,3 -11,3 -14,8 -3,0 -22,17 -22,17 -6,5 -8,11 -8,19 -3,3 -3,3 -3,16 0,17 0,17 3,20 0,5 2,11 8,16 0,0 19,17 22,17 3,2 8,5 14,5 2,3 49,3 49,0 6,0 8,-3 8,-8 0,-6 -2,-8 -5,-11 -3,0 0,0 -28,0 -22,0 -22,0 -24,0 0,0 0,-3 -3,-3 0,0 -6,-3 -8,-8 -9,-6 -11,-8 -11,-8 0,-3 -3,-3 -3,-6 0,0 0,0 0,-14l0 -13 0 -3c0,0 3,-3 3,-3 0,0 2,-3 11,-8 2,-6 8,-8 8,-8 3,-3 3,-3 3,-3l2 0 22 0c28,0 25,0 28,0 3,-3 5,-6 5,-11 0,-6 -2,-8 -8,-11 0,0 -47,0 -49,0l0 0 0 0z"/>
   <path id="text_7__29" fill="white" fill-rule="nonzero" d="M2161 5649c-2,0 -2,0 -5,3 0,3 -3,3 -3,3 0,2 0,2 0,19l0 16 -16 0 -17 0 0 0c-5,3 -8,6 -8,11 0,6 3,9 8,11l0 0 17 0 16 0 0 14c0,19 0,19 0,19 0,3 3,3 3,6 3,0 3,0 3,3 2,0 5,0 8,-3 3,0 5,-3 5,-3 3,-3 3,-3 3,-19l0 -17 14 0c14,0 16,0 16,0 6,-2 11,-5 11,-11 0,-5 -5,-11 -11,-11 0,0 -2,0 -16,0l-14 0 0 -16c0,-19 0,-17 -3,-19 0,-3 -2,-3 -5,-6 0,0 0,0 0,0 -3,0 -6,0 -6,0l0 0 0 0z"/>
   <path id="text_7__30" fill="white" fill-rule="nonzero" d="M2326 5690c-3,0 -3,3 -5,3 -3,3 -3,3 -3,6 0,0 0,0 0,5 0,8 0,8 0,8 0,3 0,3 0,3 3,0 3,3 5,3 0,3 3,3 3,3 0,0 11,0 44,0 41,0 41,0 44,0 0,0 3,-3 3,-3 3,0 3,-3 3,-3 2,-3 2,-3 2,-11 0,-5 0,-5 -2,-8 0,0 0,-3 -3,-3 0,0 -3,-3 -3,-3 -3,0 -3,0 -44,0 -36,0 -44,0 -44,0l0 0 0 0z"/>
   <path id="text_7__31" fill="white" fill-rule="nonzero" d="M2749 5663c-5,3 -11,3 -14,8 -2,0 -22,17 -22,17 -5,5 -8,11 -8,19 0,3 0,3 0,16 0,17 0,17 0,20 0,5 6,11 8,16 3,0 20,17 22,17 3,2 9,5 14,5 3,3 49,3 49,0 6,0 9,-3 9,-8 0,-6 -3,-8 -6,-11 -3,0 0,0 -24,0 -25,0 -25,0 -25,0 -3,0 -3,-3 -6,-3 0,0 -2,-3 -8,-8 -8,-6 -11,-8 -11,-8 0,-3 0,-3 -3,-6 0,0 0,0 0,-14l0 -13 0 -3c3,0 3,-3 3,-3 0,0 3,-3 11,-8 6,-6 8,-8 8,-8 3,-3 3,-3 6,-3l0 0 25 0c24,0 21,0 24,0 3,-3 6,-6 6,-11 0,-6 -3,-8 -9,-11 0,0 -46,0 -49,0l0 0 0 0z"/>
   <path id="text_7__32" fill="white" fill-rule="nonzero" d="M2947 5649c-3,0 -3,0 -6,3 0,3 -2,3 -2,3 0,2 0,2 0,19l0 16 -17 0 -16 0 0 0c-6,3 -9,6 -9,11 0,6 3,9 9,11l0 0 16 0 17 0 0 14c0,19 0,19 0,19 0,3 2,3 2,6 3,0 3,0 6,3 3,0 5,0 8,-3 0,0 3,-3 3,-3 3,-3 3,-3 3,-19l0 -17 16 0c11,0 14,0 16,0 3,-2 9,-5 9,-11 0,-5 -6,-11 -9,-11 -2,0 -5,0 -16,0l-16 0 0 -16c0,-19 0,-17 -3,-19 0,-3 -3,-3 -3,-6 -3,0 -3,0 -3,0 -2,0 -2,0 -5,0l0 0z"/>
   <path id="text_7__33" fill="white" fill-rule="nonzero" d="M3112 5690c-3,0 -3,3 -6,3 0,3 -3,3 -3,6 0,0 0,0 0,5 0,8 0,8 0,8 0,3 0,3 0,3 3,0 3,3 6,3 0,3 3,3 3,3 0,0 11,0 44,0 41,0 43,0 43,0 0,0 3,-3 3,-3 3,0 3,-3 3,-3 3,-3 3,-3 3,-11 0,-5 0,-5 -3,-8 0,0 0,-3 -3,-3 0,0 -3,-3 -3,-3 0,0 -2,0 -43,0 -36,0 -44,0 -44,0l0 0 0 0z"/>
   <path id="text_7__34" fill="white" fill-rule="nonzero" d="M3491 5671c-6,0 -11,3 -14,6 -3,2 -22,19 -22,19 -6,5 -8,11 -8,19 0,0 0,3 0,17 0,16 0,16 0,19 2,5 5,11 8,13 3,3 19,20 22,20 3,2 8,5 14,5 2,0 49,0 49,0 5,0 8,-5 8,-11 0,-3 0,-8 -5,-8 -3,0 0,0 -25,0 -25,0 -25,0 -25,-3 -2,0 -2,0 -5,0 0,0 -3,-5 -8,-8 -9,-6 -11,-8 -11,-8 0,-3 0,-3 -3,-6 0,0 0,0 0,-13l0 -17 0 0c3,0 3,-3 3,-3 0,0 2,-2 11,-8 5,-5 8,-8 8,-11 3,0 3,0 5,0l0 0 25 0c25,0 22,0 25,0 5,-3 5,-8 5,-11 0,-5 -3,-8 -8,-11 0,0 -47,0 -49,0l0 0 0 0z"/>
   <path id="text_7__35" fill="white" fill-rule="nonzero" d="M3688 5657c-2,0 -2,0 -5,3 0,0 0,3 -3,3 0,3 0,3 0,19l0 17 -16 0 -17 0 0 0c-5,0 -8,5 -8,11 0,2 3,8 8,8l0 0 17 0 16 0 0 16c0,17 0,17 0,20 3,2 3,2 3,2 3,3 3,3 5,3 3,3 6,3 9,0 0,0 2,-3 2,-5 3,0 3,0 3,-20l0 -16 17 0c11,0 13,0 16,0 5,0 8,-6 8,-8 0,-6 -3,-11 -8,-11 -3,0 -5,0 -16,0l-17 0 0 -17c0,-19 0,-16 -3,-19 0,-3 -2,-3 -2,-6 -3,0 -3,0 -3,0 0,0 -3,0 -6,0l0 0 0 0z"/>
   <path id="text_7__36" fill="white" fill-rule="nonzero" d="M3853 5699c-3,0 -3,0 -5,2 0,0 -3,3 -3,3 0,3 0,3 0,8 0,6 0,9 0,9 0,0 0,2 3,2 0,0 2,3 2,3 0,0 3,3 3,3 3,0 14,0 44,0 41,0 44,0 44,0 0,-3 3,-3 3,-3 2,-3 2,-3 2,-3 3,-2 3,-2 3,-11 0,-5 0,-5 -3,-8 0,-3 0,-3 -2,-3 0,-2 -3,-2 -3,-2 0,0 -3,0 -44,0 -36,0 -44,0 -44,0l0 0 0 0z"/>
   <path id="text_7__37" fill="white" fill-rule="nonzero" d="M4276 5671c-5,0 -11,3 -14,6 -2,2 -22,19 -22,19 -5,5 -8,11 -8,19 0,0 0,3 0,17 0,16 0,16 0,19 3,5 6,11 8,13 3,3 20,20 22,20 6,2 9,5 17,5 0,0 46,0 46,0 6,0 11,-5 11,-11 0,-3 -2,-8 -8,-8 0,0 0,0 -25,0 -21,0 -24,0 -24,-3 -3,0 -3,0 -3,0 0,0 -5,-5 -11,-8 -5,-6 -11,-8 -11,-8 0,-3 0,-3 0,-6 0,0 0,0 0,-13l0 -17 0 0c0,0 0,-3 0,-3 0,0 3,-2 11,-8 6,-5 11,-8 11,-11 0,0 0,0 3,0l0 0 24 0c25,0 25,0 25,0 6,-3 8,-8 8,-11 0,-5 -5,-8 -11,-11 0,0 -46,0 -49,0l0 0 0 0z"/>
   <path id="text_7__38" fill="white" fill-rule="nonzero" d="M4474 5657c0,0 -3,0 -6,3 0,0 0,3 0,3 -2,3 -2,3 -2,19l0 17 -17 0 -16 0 0 0c-6,0 -9,5 -9,11 0,2 3,8 9,8l0 0 16 0 17 0 0 16c0,17 0,17 2,20 0,2 0,2 0,2 3,3 3,3 6,3 2,3 5,3 8,0 3,0 3,-3 5,-5 0,0 0,0 0,-20l0 -16 17 0c14,0 16,0 16,0 6,0 9,-6 9,-8 0,-6 -3,-11 -9,-11 0,0 -2,0 -16,0l-17 0 0 -17c0,-19 0,-16 0,-19 -2,-3 -2,-3 -5,-6 0,0 -3,0 -3,0 0,0 -3,0 -5,0l0 0 0 0z"/>
   <path id="text_7__39" fill="white" fill-rule="nonzero" d="M4639 5699c-3,0 -3,0 -6,2 0,0 0,3 -3,3 0,3 0,3 0,8 0,6 0,9 0,9 0,0 3,2 3,2 0,0 3,3 3,3 0,0 3,3 3,3 2,0 13,0 43,0 42,0 44,0 44,0 3,-3 3,-3 6,-3 0,-3 0,-3 3,-3 0,-2 0,-2 0,-11 0,-5 0,-5 0,-8 -3,-3 -3,-3 -3,-3 -3,-2 -3,-2 -6,-2 0,0 -2,0 -44,0 -35,0 -41,0 -43,0l0 0 0 0z"/>
   <path fill="black" d="M1307 882l212 0c10,0 19,28 19,63l0 323c0,35 -9,64 -19,64l-212 0c-10,0 -19,-29 -19,-64l0 -323c0,-35 9,-63 19,-63z"/>
   <path fill="black" d="M2068 882l212 0c10,0 19,28 19,63l0 323c0,35 -9,64 -19,64l-212 0c-11,0 -19,-29 -19,-64l0 -323c0,-35 8,-63 19,-63z"/>
   <path fill="black" d="M2321 882l211 0c11,0 19,28 19,63l0 323c0,35 -8,64 -19,64l-211 0c-11,0 -20,-29 -20,-64l0 -323c0,-35 9,-63 20,-63z"/>
   <path fill="black" d="M1560 882l211 0c11,0 20,28 20,63l0 323c0,35 -9,64 -20,64l-211 0c-11,0 -19,-29 -19,-64l0 -323c0,-35 8,-63 19,-63z"/>
   <path fill="black" d="M1815 882l212 0c10,0 19,28 19,63l0 323c0,35 -9,64 -19,64l-212 0c-10,0 -19,-29 -19,-64l0 -323c0,-35 9,-63 19,-63z"/>
   <path fill="black" d="M297 5844l211 0c11,0 19,28 19,63l0 324c0,35 -8,63 -19,63l-211 0c-11,0 -20,-28 -20,-63l0 -324c0,-35 9,-63 20,-63z"/>
   <path fill="black" d="M549 5844l212 0c10,0 19,28 19,63l0 324c0,35 -9,63 -19,63l-212 0c-10,0 -19,-28 -19,-63l0 -324c0,-35 9,-63 19,-63z"/>
   <path fill="black" d="M805 5844l211 0c11,0 19,28 19,63l0 324c0,35 -8,63 -19,63l-211 0c-11,0 -20,-28 -20,-63l0 -324c0,-35 9,-63 20,-63z"/>
   <path fill="black" d="M1057 5844l212 0c10,0 19,28 19,63l0 324c0,35 -9,63 -19,63l-212 0c-10,0 -19,-28 -19,-63l0 -324c0,-35 9,-63 19,-63z"/>
   <path fill="black" d="M1313 5844l211 0c11,0 19,28 19,63l0 324c0,35 -8,63 -19,63l-211 0c-11,0 -19,-28 -19,-63l0 -324c0,-35 8,-63 19,-63z"/>
   <path fill="black" d="M1565 5844l212 0c11,0 19,28 19,63l0 324c0,35 -8,63 -19,63l-212 0c-10,0 -19,-28 -19,-63l0 -324c0,-35 9,-63 19,-63z"/>
   <path fill="black" d="M1821 5844l211 0c11,0 20,28 20,63l0 324c0,35 -9,63 -20,63l-211 0c-11,0 -19,-28 -19,-63l0 -324c0,-35 8,-63 19,-63z"/>
   <path fill="black" d="M2073 5844l212 0c11,0 19,28 19,63l0 324c0,35 -8,63 -19,63l-212 0c-10,0 -19,-28 -19,-63l0 -324c0,-35 9,-63 19,-63z"/>
   <path fill="black" d="M1821 5844l211 0c11,0 20,28 20,63l0 324c0,35 -9,63 -20,63l-211 0c-11,0 -19,-28 -19,-63l0 -324c0,-35 8,-63 19,-63z"/>
   <path fill="black" d="M2326 5844l212 0c10,0 19,28 19,63l0 324c0,35 -9,63 -19,63l-212 0c-10,0 -19,-28 -19,-63l0 -324c0,-35 9,-63 19,-63z"/>
   <path fill="black" d="M2582 5844l211 0c11,0 19,28 19,63l0 324c0,35 -8,63 -19,63l-211 0c-11,0 -20,-28 -20,-63l0 -324c0,-35 9,-63 20,-63z"/>
   <path fill="black" d="M2834 5844l212 0c10,0 19,28 19,63l0 324c0,35 -9,63 -19,63l-212 0c-10,0 -19,-28 -19,-63l0 -324c0,-35 9,-63 19,-63z"/>
   <path fill="black" d="M3090 5844l211 0c11,0 19,28 19,63l0 324c0,35 -8,63 -19,63l-211 0c-11,0 -20,-28 -20,-63l0 -324c0,-35 9,-63 20,-63z"/>
   <path fill="black" d="M3342 5844l212 0c10,0 19,28 19,63l0 324c0,35 -9,63 -19,63l-212 0c-10,0 -19,-28 -19,-63l0 -324c0,-35 9,-63 19,-63z"/>
   <path fill="black" d="M3598 5844l211 0c11,0 19,28 19,63l0 324c0,35 -8,63 -19,63l-211 0c-11,0 -20,-28 -20,-63l0 -324c0,-35 9,-63 20,-63z"/>
   <path fill="black" d="M3850 5844l212 0c10,0 19,28 19,63l0 324c0,35 -9,63 -19,63l-212 0c-10,0 -19,-28 -19,-63l0 -324c0,-35 9,-63 19,-63z"/>
   <path fill="black" d="M4106 5844l211 0c11,0 19,28 19,63l0 324c0,35 -8,63 -19,63l-211 0c-11,0 -19,-28 -19,-63l0 -324c0,-35 8,-63 19,-63z"/>
   <path fill="black" d="M4358 5844l212 0c11,0 19,28 19,63l0 324c0,35 -8,63 -19,63l-212 0c-10,0 -19,-28 -19,-63l0 -324c0,-35 9,-63 19,-63z"/>
   <path fill="black" d="M4614 5844l211 0c11,0 20,28 20,63l0 324c0,35 -9,63 -20,63l-211 0c-11,0 -19,-28 -19,-63l0 -324c0,-35 8,-63 19,-63z"/>
   <path fill="black" d="M2576 882l212 0c10,0 19,28 19,63l0 323c0,35 -9,64 -19,64l-212 0c-11,0 -19,-29 -19,-64l0 -323c0,-35 8,-63 19,-63z"/>
   <g id="copper1">
    <path id="connector0pin" fill="#8C8C8C" d="M1126 0l65 0c3,0 6,64 6,143l0 743c0,79 -3,143 -6,143l-65 0c-3,0 -5,-64 -5,-143l-1 -743c1,-79 3,-143 6,-143z"/>
    <path id="connector1pin" fill="#8C8C8C" d="M1379 0l65 0c3,0 5,64 5,143l0 743c0,79 -2,143 -5,143l-65 0c-3,0 -6,-64 -6,-143l0 -743c0,-79 3,-143 6,-143z"/>
    <path id="connector4pin" fill="#8C8C8C" d="M2142 0l65 0c3,0 6,64 6,143l0 743c0,79 -3,143 -6,143l-65 0c-3,0 -5,-64 -5,-143l0 -743c0,-79 2,-143 5,-143z"/>
    <path id="connector5pin" fill="#8C8C8C" d="M2395 0l65 0c3,0 5,64 5,143l0 743c0,79 -2,143 -5,143l-65 0c-3,0 -6,-64 -6,-143l0 -743c0,-79 3,-143 6,-143z"/>
    <path id="connector2pin" fill="#8C8C8C" d="M1634 0l65 0c3,0 6,64 6,143l0 743c0,79 -3,143 -6,143l-65 0c-3,0 -5,-64 -5,-143l0 -743c0,-79 2,-143 5,-143z"/>
    <path id="connector3pin" fill="#8C8C8C" d="M1887 0l65 0c3,0 5,64 5,143l0 743c0,79 -2,143 -5,143l-65 0c-3,0 -6,-64 -6,-143l0 -743c0,-79 3,-143 6,-143z"/>
    <path id="connector9pin" fill="#8C8C8C" d="M368 6165l65 0c3,0 6,64 6,143l0 744c0,78 -3,142 -6,142l-65 0c-3,0 -5,-64 -5,-142l0 -744c0,-79 2,-143 5,-143z"/>
    <path id="connector10pin" fill="#8C8C8C" d="M623 6165l66 0c3,0 5,64 5,143l0 744c0,78 -2,142 -5,142l-66 0c-3,0 -5,-64 -5,-142l0 -744c0,-79 2,-143 5,-143z"/>
    <path id="connector11pin" fill="#8C8C8C" d="M876 6165l65 0c3,0 6,64 6,143l0 744c0,78 -3,142 -6,142l-65 0c-3,0 -5,-64 -5,-142l0 -744c0,-79 2,-143 5,-143z"/>
    <path id="connector12pin" fill="#8C8C8C" d="M1131 6165l66 0c3,0 5,64 5,143l0 744c0,78 -2,142 -5,142l-66 0c-3,0 -5,-64 -5,-142l0 -744c0,-79 2,-143 5,-143z"/>
    <path id="connector13pin" fill="#8C8C8C" d="M1384 6165l65 0c3,0 6,64 6,143l0 744c0,78 -3,142 -6,142l-65 0c-3,0 -5,-64 -5,-142l0 -744c0,-79 2,-143 5,-143z"/>
    <path id="connector14pin" fill="#8C8C8C" d="M1640 6165l65 0c3,0 5,64 5,143l0 744c0,78 -2,142 -5,142l-65 0c-3,0 -6,-64 -6,-142l0 -744c0,-79 3,-143 6,-143z"/>
    <path id="connector15pin" fill="#8C8C8C" d="M1892 6165l65 0c3,0 6,64 6,143l0 744c0,78 -3,142 -6,142l-65 0c-3,0 -5,-64 -5,-142l0 -744c0,-79 2,-143 5,-143z"/>
    <path id="connector16pin" fill="#8C8C8C" d="M2148 6165l65 0c3,0 5,64 5,143l0 744c0,78 -2,142 -5,142l-65 0c-3,0 -6,-64 -6,-142l0 -744c0,-79 3,-143 6,-143z"/>
    <path id="connector17pin" fill="#8C8C8C" d="M2400 6165l65 0c4,0 6,64 6,143l0 744c0,78 -2,142 -6,142l-65 0c-3,0 -5,-64 -5,-142l0 -744c0,-79 2,-143 5,-143z"/>
    <path id="connector18pin" fill="#8C8C8C" d="M2656 6165l65 0c3,0 5,64 5,143l0 744c0,78 -2,142 -5,142l-65 0c-3,0 -6,-64 -6,-142l0 -744c0,-79 3,-143 6,-143z"/>
    <path id="connector19pin" fill="#8C8C8C" d="M2908 6165l66 0c3,0 5,64 5,143l0 744c0,78 -2,142 -5,142l-66 0c-3,0 -5,-64 -5,-142l0 -744c0,-79 2,-143 5,-143z"/>
    <path id="connector20pin" fill="#8C8C8C" d="M3164 6165l65 0c3,0 5,64 5,143l0 744c0,78 -2,142 -5,142l-65 0c-3,0 -6,-64 -6,-142l0 -744c0,-79 3,-143 6,-143z"/>
    <path id="connector21pin" fill="#8C8C8C" d="M3416 6165l66 0c3,0 5,64 5,143l0 744c0,78 -2,142 -5,142l-66 0c-3,0 -5,-64 -5,-142l0 -744c0,-79 2,-143 5,-143z"/>
    <path id="connector22pin" fill="#8C8C8C" d="M3669 6165l65 0c3,0 6,64 6,143l0 744c0,78 -3,142 -6,142l-65 0c-3,0 -5,-64 -5,-142l0 -744c0,-79 2,-143 5,-143z"/>
    <path id="connector23pin" fill="#8C8C8C" d="M3924 6165l66 0c3,0 5,64 5,143l0 744c0,78 -2,142 -5,142l-66 0c-3,0 -5,-64 -5,-142l0 -744c0,-79 2,-143 5,-143z"/>
    <path id="connector24pin" fill="#8C8C8C" d="M4177 6165l65 0c3,0 6,64 6,143l0 744c0,78 -3,142 -6,142l-65 0c-3,0 -5,-64 -5,-142l0 -744c0,-79 2,-143 5,-143z"/>
    <path id="connector25pin" fill="#8C8C8C" d="M4433 6165l65 0c3,0 5,64 5,143l0 744c0,78 -2,142 -5,142l-65 0c-3,0 -6,-64 -6,-142l0 -744c0,-79 3,-143 6,-143z"/>
    <path id="connector26pin" fill="#8C8C8C" d="M4685 6165l65 0c3,0 6,64 6,143l0 744c0,78 -3,142 -6,142l-65 0c-3,0 -5,-64 -5,-142l0 -744c0,-79 2,-143 5,-143z"/>
    <path id="connector6pin" fill="#8C8C8C" d="M2650 0l65 0c3,0 6,64 6,143l0 743c0,79 -3,143 -6,143l-65 0c-3,0 -5,-64 -5,-143l0 -743c0,-79 2,-143 5,-143z"/>
    <circle id="connector7pin" fill="#9A916C" stroke="black" stroke-width="25" cx="3702" cy="1299" r="168"/>
    <circle id="connector8pin" fill="#9A916C" stroke="black" stroke-width="25" cx="4210" cy="1299" r="168"/>
   </g>
  </g>
 </g>
</svg>
