<?xml version="1.0" encoding="UTF-8"?>
<!DOCTYPE svg PUBLIC "-//W3C//DTD SVG 1.1//EN" "http://www.w3.org/Graphics/SVG/1.1/DTD/svg11.dtd">
<!-- Creator: CorelDRAW Home & Student 2014 -->
<svg xmlns="http://www.w3.org/2000/svg" xml:space="preserve" width="66mm" height="66mm" version="1.1" shape-rendering="geometricPrecision" text-rendering="geometricPrecision" image-rendering="optimizeQuality" fill-rule="evenodd" clip-rule="evenodd"
viewBox="0 0 4548 4548"
 xmlns:xlink="http://www.w3.org/1999/xlink">
 <g id="Layer_x0020_1">
  <metadata id="CorelCorpID_0Corel-Layer"/>
  <path fill="#00A63D" d="M120 0l4308 0c67,0 120,49 120,110l0 4329c0,60 -53,109 -120,109l-4308 0c-66,0 -120,-49 -120,-109l0 -4329c0,-61 54,-110 120,-110z"/>
  <rect fill="#47CC79" x="1120" y="4039" width="3382" height="477"/>
  <rect fill="#00A63D" x="1120" y="4069" width="3382" height="320"/>
  <path fill="black" d="M3016 1056l409 0c21,0 39,31 39,70l0 369c0,39 -18,70 -39,70l-409 0c-22,0 -39,-31 -39,-70l0 -369c0,-39 17,-70 39,-70z"/>
  <path fill="black" d="M3631 2042l592 0c29,0 54,37 54,82l0 437c0,46 -25,83 -54,83l-592 0c-29,0 -54,-37 -54,-83l0 -437c0,-45 25,-82 54,-82z"/>
  <circle id="hole_6__20" fill="#9A916C" stroke="white" stroke-width="17.2283" cx="3940" cy="2346" r="321"/>
  <path fill="black" d="M1175 3005l608 0c31,0 56,38 56,85l0 449c0,47 -25,84 -56,84l-608 0c-30,0 -55,-37 -55,-84l0 -449c0,-47 25,-85 55,-85z"/>
  <circle id="hole_6__20_0" fill="#9A916C" stroke="white" stroke-width="17.2283" cx="1492" cy="3317" r="330"/>
  <path fill="black" d="M4177 2921l266 0c14,0 25,35 25,79l0 415c0,43 -11,78 -25,78l-266 0c-14,0 -26,-35 -26,-78l0 -415c0,-44 12,-79 26,-79z"/>
  <path fill="black" d="M2636 3644l0 -659c0,-35 58,-64 131,-64l696 0c72,0 131,29 131,64l0 659c0,35 -59,63 -131,63l-696 0c-73,0 -131,-28 -131,-63z"/>
  <path fill="white" fill-rule="nonzero" d="M1075 1316c0,98 0,92 1,94 0,2 1,3 3,5 1,1 2,2 4,3 3,1 7,1 10,-1 1,-1 3,-2 4,-3 1,-1 2,-4 2,-5 1,-1 1,-3 1,-48l0 -48 8 0 9 0 28 49 29 49c1,1 2,3 2,3 5,5 13,6 18,1 4,-4 5,-9 3,-14 0,0 -12,-20 -26,-44l-25 -44 9 0c10,0 11,0 15,-1 13,-3 23,-14 27,-27 1,-4 1,-4 1,-15 0,-7 0,-9 0,-11 -2,-16 -13,-29 -28,-32 -5,-2 -1,-2 -51,-2l-44 0 0 91zm89 -65c3,1 6,3 8,6 1,3 1,3 1,12 0,10 0,10 -1,12 -2,3 -4,5 -6,6 -3,1 0,1 -35,1l-31 0 0 -19 0 -19 31 0c30,0 32,0 33,1z"/>
  <path id="1" fill="white" fill-rule="nonzero" d="M1296 1278c-2,0 -6,2 -8,5 0,1 -1,2 -2,4 0,1 0,1 0,3 0,2 0,3 0,4 1,3 4,6 7,8 3,1 0,1 28,1l25 0 2 0c4,2 7,5 8,10 0,1 0,4 0,10 1,5 1,9 1,9 0,0 -1,0 -2,0 -1,-1 -2,-1 -3,-1l-2 -1 -28 0 -27 0 -2 1c-9,1 -16,5 -21,11 -6,5 -9,13 -10,21 -1,2 -1,3 -1,11 0,8 0,10 1,12 1,8 4,15 10,21 5,5 10,8 17,10 5,1 3,1 27,1 20,0 21,0 22,0 2,-1 3,-1 12,-7 5,-2 9,-5 9,-5 0,0 0,1 0,1 0,0 1,1 1,2 2,9 13,12 20,6 2,-2 4,-5 4,-8 0,0 0,-6 0,-16l-2 -46c0,-18 -1,-33 -1,-34 -2,-15 -13,-28 -28,-32 -4,-1 -2,-1 -31,-1 -14,0 -25,0 -26,0l0 0zm54 78c1,1 2,1 4,2 1,2 3,4 3,6 1,1 1,2 1,8 0,3 0,6 0,6 0,0 -6,3 -13,8l-13 7 -18 0c-17,0 -18,0 -19,0 -4,-1 -7,-4 -8,-8l-1 -2 0 -9 0 -9 1 -1c1,-4 3,-7 7,-8 1,0 2,0 2,-1 1,0 12,0 27,0l25 0 2 1z"/>
  <path id="2" fill="white" fill-rule="nonzero" d="M1479 1278c-9,1 -16,5 -22,12 -5,6 -8,15 -7,23 1,7 4,13 9,18 3,3 6,5 9,7 0,0 10,4 20,9 35,15 50,22 51,22 0,0 1,1 2,1 4,4 6,11 3,16 -1,3 -4,6 -8,7l-1 0 -25 0c-18,0 -25,0 -27,0 -1,0 -3,-1 -6,-2 -3,-1 -4,-2 -8,-4 -3,-3 -5,-4 -8,-4 -5,-1 -10,2 -12,7 -2,3 -2,7 0,10 1,3 2,4 6,7 4,3 8,5 13,7 5,2 7,3 11,4 2,0 3,0 29,0 29,0 29,0 33,-1 14,-3 25,-14 29,-28 2,-8 1,-16 -3,-24 -2,-6 -7,-12 -14,-16 -2,-2 0,-1 -51,-24 -13,-5 -23,-10 -24,-10 -1,-1 -2,-2 -2,-3 -1,-1 -1,-2 -1,-3 0,-1 0,-1 1,-2 1,-2 3,-4 5,-4 0,0 9,0 28,0l28 0 1 0c3,1 5,3 7,5 3,3 6,5 9,5 5,1 10,-2 13,-7 0,0 0,-1 1,-2 0,-2 0,-4 0,-6 -1,-3 -3,-5 -6,-9 -6,-6 -14,-10 -23,-11 -3,0 -58,0 -60,0z"/>
  <path id="3" fill="white" fill-rule="nonzero" d="M1634 1316c0,98 0,92 1,94 1,2 1,3 3,5 2,1 3,2 4,3 4,1 7,1 10,-1 3,-1 5,-3 6,-6 1,-3 1,1 1,-35l0 -31 32 0c30,0 31,0 33,-1 18,-2 31,-15 33,-33 0,-3 0,-49 0,-52 -2,-16 -13,-29 -28,-32 -5,-2 0,-2 -50,-2l-45 0 0 91zm89 -65c4,1 8,4 9,9l0 1 0 24c0,27 0,25 -1,28 -1,2 -3,4 -6,6 -3,1 1,1 -34,1l-32 0 0 -35 0 -35 32 0c29,0 31,0 32,1z"/>
  <path id="4" fill="white" fill-rule="nonzero" d="M1843 1278c-5,1 -9,5 -10,9 -1,7 2,13 9,15l1 1 13 0 14 0 0 45 0 45 -14 0 -13 0 -1 1c-6,1 -9,6 -9,12 0,5 4,10 9,12l1 0 39 0 39 0 1 0c4,-1 7,-4 8,-7 1,-2 1,-3 1,-5 0,-3 0,-4 -1,-6 -1,-3 -4,-5 -8,-6l-1 -1 -13 0 -13 0 0 -52c-1,-50 -1,-53 -1,-54 0,-1 -1,-3 -2,-5 -1,-1 -3,-2 -4,-3 -3,-1 -1,-1 -24,-1 -11,0 -20,0 -21,0l0 0zm25 -63c-3,1 -5,2 -7,4 -2,1 -2,2 -3,4 -1,2 -1,3 -1,10 0,6 0,7 1,9 1,2 1,3 3,5 2,1 3,2 5,3 2,0 3,0 11,0 8,0 8,0 11,-1 2,-1 4,-3 5,-6 2,-2 1,-2 1,-10 0,-9 1,-9 -1,-11 -1,-3 -3,-5 -5,-6 -3,-1 -3,-1 -12,-1 -6,0 -8,0 -8,0z"/>
  <path id="5" fill="white" fill-rule="nonzero" d="M2007 1316c0,98 0,92 1,94 0,2 1,3 3,5 1,1 3,2 4,3 4,1 7,1 10,-1 2,-1 3,-2 4,-3 1,-1 2,-4 3,-5 0,-1 0,-3 0,-48l0 -48 9 0 8 0 28 49 29 49c1,1 2,3 2,3 5,5 13,6 18,1 4,-4 5,-9 3,-14 0,0 -12,-20 -26,-44l-25 -44 9 0c10,0 11,0 15,-1 13,-3 24,-14 27,-27 1,-4 1,-4 1,-15 0,-7 0,-9 0,-11 -2,-16 -13,-29 -28,-32 -5,-2 0,-2 -50,-2l-45 0 0 91zm89 -65c3,1 6,3 8,6 1,3 1,3 1,12 0,10 0,10 -1,12 -1,3 -3,5 -6,6 -3,1 1,1 -35,1l-31 0 0 -19 0 -19 31 0c30,0 32,0 33,1z"/>
  <path id="6" fill="white" fill-rule="nonzero" d="M2235 1278c-6,1 -13,4 -18,8 -2,1 -12,10 -13,11 -6,6 -9,13 -10,21 0,2 0,4 0,30 0,23 0,28 0,30 1,8 4,15 10,21 1,1 10,10 13,12 4,3 10,5 15,6 4,1 4,1 23,1 19,0 20,0 23,-1 6,-1 12,-4 16,-7 3,-3 10,-9 12,-10 6,-6 9,-13 10,-22 1,-2 1,-3 1,-30 0,-23 0,-28 -1,-29 -1,-9 -4,-17 -10,-23 -2,-1 -9,-7 -12,-10 -3,-2 -7,-5 -11,-6 -2,-1 -5,-1 -7,-2 -2,0 -3,0 -20,0 -15,0 -19,0 -21,0zm39 25c1,1 2,1 3,2 2,1 11,9 12,10 1,1 2,3 2,5 1,1 1,2 1,28l0 28 -1 1c-1,3 -2,4 -8,9 -5,5 -6,6 -7,6 -3,1 -2,1 -21,1 -20,0 -18,0 -21,-1 -1,-1 -2,-1 -7,-5 -6,-5 -6,-6 -7,-8 -2,-3 -1,0 -1,-31l0 -28 0 -1c1,-3 2,-4 7,-9l6 -5c1,0 2,-1 4,-1 1,-1 1,-1 19,-1 17,0 18,0 19,0l0 0z"/>
  <path id="7" fill="white" fill-rule="nonzero" d="M2390 1226c-3,0 -4,1 -6,3 -2,2 -3,4 -4,7 0,1 0,170 0,172 1,3 2,4 4,7 1,1 2,2 4,3 4,1 7,1 10,-1 3,-1 4,-3 6,-6 1,-2 1,-3 1,-6l0 -3 3 2c9,7 10,9 14,10 4,2 8,4 12,4 3,0 24,0 27,0 7,-1 14,-4 19,-8 4,-3 12,-10 13,-11 5,-6 9,-13 10,-21 0,-2 0,-3 0,-31 0,-31 0,-29 -1,-33 -2,-7 -5,-12 -9,-17 -2,-1 -11,-10 -13,-11 -5,-4 -11,-6 -15,-7 -4,-1 -5,-1 -17,-1 -13,0 -14,0 -17,1 -4,1 -9,2 -12,4 -2,2 -4,3 -9,7l-5 5 0 -30c0,-33 0,-30 -1,-33 -2,-2 -3,-4 -6,-5 -1,-1 -2,-1 -2,-1 -2,-1 -5,-1 -6,0l0 0zm70 77c1,1 3,2 4,2 1,1 3,3 6,5 3,3 5,5 6,5 1,2 1,3 2,5 0,1 0,2 0,28l0 28 0 1c-2,3 -2,4 -9,10 -5,5 -6,5 -9,6l-1 0 -11 0c-12,0 -12,0 -13,0 -1,-1 -2,-1 -4,-2 0,0 -5,-5 -12,-10 -8,-7 -11,-10 -12,-11 0,-1 -1,-3 -2,-4 0,-1 0,-2 0,-18l0 -17 0 -1c1,-2 2,-3 2,-4 1,-1 4,-4 12,-11 7,-5 12,-10 12,-10 2,-1 3,-2 5,-2 1,0 6,0 12,0 10,0 11,0 12,0l0 0z"/>
  <path id="8" fill="white" fill-rule="nonzero" d="M2608 1278c-7,1 -13,4 -18,8 -2,1 -12,10 -13,11 -6,6 -9,13 -10,21 -1,2 -1,4 -1,30 0,23 0,28 1,30 1,8 4,15 10,21 1,1 10,10 13,12 4,3 10,5 15,6 4,1 4,1 23,1 19,0 20,0 23,-1 6,-1 12,-4 16,-7 3,-3 10,-9 11,-10 6,-6 10,-13 11,-22 1,-2 1,-3 1,-30 0,-23 0,-28 -1,-29 -1,-9 -4,-17 -11,-23 -1,-1 -8,-7 -11,-10 -3,-2 -7,-5 -11,-6 -2,-1 -5,-1 -7,-2 -2,0 -3,0 -20,0 -15,0 -19,0 -21,0zm39 25c1,1 2,1 3,2 2,1 11,9 12,10 1,1 2,3 2,5 1,1 1,2 1,28l0 28 -1 1c-1,3 -2,4 -8,9 -5,5 -6,6 -7,6 -3,1 -2,1 -21,1 -20,0 -18,0 -21,-1 -1,-1 -2,-1 -7,-5 -6,-5 -6,-6 -7,-8 -2,-3 -2,0 -2,-31l0 -28 1 -1c1,-3 2,-4 7,-9l6 -5c1,0 2,-1 3,-1 2,-1 2,-1 20,-1 17,0 18,0 19,0l0 0z"/>
  <path id="9" fill="white" fill-rule="nonzero" d="M2787 1236c-3,1 -7,3 -8,7 -2,3 -2,1 -2,19l0 16 -7 0c-7,0 -7,0 -8,0 -6,2 -9,7 -9,12 0,6 3,11 9,12 1,1 1,1 8,1l7 0 0 40c0,39 0,40 1,43 1,8 4,15 10,21 5,6 12,9 20,11l2 0 16 0c16,0 16,0 20,0 6,-1 12,-4 16,-8 7,-6 12,-14 14,-23 1,-7 -4,-14 -11,-15 -4,0 -8,2 -11,5 -1,2 -2,3 -3,7 -1,3 -3,6 -7,8 -2,1 -1,1 -17,1l-15 0 -1 0c-2,-1 -3,-1 -4,-2 -2,-2 -3,-4 -4,-6l-1 -2 0 -40 0 -40 26 0 25 0 2 -1c3,-1 6,-3 7,-6 1,-2 2,-3 2,-6 0,-2 -1,-3 -2,-5 -1,-3 -4,-6 -7,-7l-2 0 -25 0 -26 0 0 -16c0,-18 0,-16 -1,-19 -1,-3 -3,-4 -6,-6 0,0 -1,-1 -2,-1 -1,0 -4,0 -6,0l0 0z"/>
  <path id="10" fill="white" fill-rule="nonzero" d="M2390 1551c-3,1 -4,2 -6,4 -2,1 -3,2 -3,4 -1,2 -1,2 -1,26l0 23 1 2 25 64c13,34 24,62 24,63 4,7 14,9 20,3 1,-1 2,-2 3,-3 0,0 11,-30 25,-65l25 -64 0 -24c0,-26 0,-23 -1,-26 -1,-3 -3,-5 -6,-6 -3,-1 -6,-2 -10,0 -1,0 -2,1 -4,3 -2,1 -2,2 -3,4 -1,2 -1,2 -1,24l0 20 -18 47c-10,25 -18,46 -18,47 0,0 -9,-21 -19,-47l-18 -47 0 -21c0,-23 0,-21 -1,-24 -2,-3 -3,-5 -6,-6 -1,0 -2,-1 -2,-1 -2,0 -5,0 -6,0l0 0z"/>
  <path id="11" fill="white" fill-rule="nonzero" d="M2577 1551c-4,1 -8,3 -9,7 -2,3 -2,7 0,10 1,4 4,6 8,7l1 1 44 0 44 0 0 24c0,23 -1,25 -1,25 -1,5 -4,8 -8,9l-2 1 -26 0c-30,0 -27,0 -30,1 -3,2 -6,4 -7,8 0,1 0,1 0,3 0,2 0,3 0,4 1,3 4,6 7,7 3,2 0,2 30,2 29,0 27,0 29,1 3,1 5,3 6,6 2,2 2,0 2,27l0 25 -44 0 -44 0 -1 0c-6,2 -10,7 -10,12 0,6 4,11 10,12l1 1 44 0c32,0 45,0 46,0 7,-1 13,-4 17,-9 2,-3 4,-7 5,-11l1 -2 0 -27 0 -26 -1 -2c0,-3 -1,-6 -2,-8 -1,-3 -4,-8 -6,-11 -1,0 -1,-1 -1,-1l1 -1c5,-6 8,-13 8,-20 1,-3 1,-51 0,-53 -1,-11 -8,-19 -18,-21 -3,-1 -1,-1 -49,-1 -24,0 -45,0 -45,0l0 0z"/>
  <path id="12" fill="white" fill-rule="nonzero" d="M2824 1551c-7,1 -14,3 -20,7 -5,3 -11,8 -14,14 -3,5 -5,10 -6,16 0,2 -1,4 -1,9l0 6 -7 0c-8,0 -8,0 -10,2 -3,1 -6,4 -7,8 0,1 0,4 0,6 1,4 4,6 7,8 2,1 2,1 10,1l7 0 0 52c0,57 0,53 1,56 1,1 2,2 3,4 2,2 3,2 5,3 3,1 6,1 9,-1 2,0 3,-1 5,-3 0,-1 2,-3 2,-5 0,0 0,-3 0,-53l0 -53 13 0c10,0 13,0 14,0 6,-1 10,-6 10,-12 0,-6 -4,-11 -10,-12 -1,-1 -4,-1 -14,-1l-13 0 0 -5c0,-6 1,-7 1,-9 3,-7 9,-12 16,-13 1,0 7,0 17,0 18,0 17,0 20,-1 1,-1 2,-1 4,-3 2,-2 3,-4 4,-7 0,-2 0,-2 0,-3 -1,-3 -2,-6 -4,-8 -2,-1 -3,-2 -4,-2 -3,-1 -2,-1 -21,-1 -9,0 -17,0 -17,0l0 0z"/>
  <path fill="black" d="M287 4267l146 0c7,0 13,11 13,24l0 124c0,13 -6,24 -13,24l-146 0c-7,0 -13,-11 -13,-24l0 -124c0,-13 6,-24 13,-24z"/>
  <path fill="black" d="M462 4267l146 0c7,0 13,11 13,24l0 124c0,13 -6,24 -13,24l-146 0c-7,0 -13,-11 -13,-24l0 -124c0,-13 6,-24 13,-24z"/>
  <path fill="black" d="M637 4267l146 0c7,0 13,11 13,24l0 124c0,13 -6,24 -13,24l-146 0c-7,0 -13,-11 -13,-24l0 -124c0,-13 6,-24 13,-24z"/>
  <path fill="black" d="M812 4267l146 0c7,0 13,11 13,24l0 124c0,13 -6,24 -13,24l-146 0c-7,0 -13,-11 -13,-24l0 -124c0,-13 6,-24 13,-24z"/>
  <path fill="black" d="M974 2851l0 -146c0,-7 11,-13 24,-13l124 0c14,0 24,6 24,13l0 146c0,7 -10,13 -24,13l-124 0c-13,0 -24,-6 -24,-13z"/>
  <path fill="black" d="M974 2676l0 -146c0,-7 11,-13 24,-13l124 0c14,0 24,6 24,13l0 146c0,7 -10,13 -24,13l-124 0c-13,0 -24,-6 -24,-13z"/>
  <path fill="black" d="M974 2326l0 -146c0,-8 11,-13 24,-13l124 0c14,0 24,5 24,13l0 146c0,7 -10,13 -24,13l-124 0c-13,0 -24,-6 -24,-13z"/>
  <path fill="black" d="M974 2501l0 -146c0,-7 11,-13 24,-13l124 0c14,0 24,6 24,13l0 146c0,7 -10,13 -24,13l-124 0c-13,0 -24,-6 -24,-13z"/>
  <path fill="black" d="M1338 241l145 0c8,0 14,11 14,24l0 124c0,14 -6,24 -14,24l-145 0c-8,0 -14,-10 -14,-24l0 -124c0,-13 6,-24 14,-24z"/>
  <path fill="black" d="M1513 241l145 0c8,0 14,11 14,24l0 124c0,14 -6,24 -14,24l-145 0c-8,0 -14,-10 -14,-24l0 -124c0,-13 6,-24 14,-24z"/>
  <path fill="black" d="M1688 241l145 0c8,0 14,11 14,24l0 124c0,14 -6,24 -14,24l-145 0c-8,0 -14,-10 -14,-24l0 -124c0,-13 6,-24 14,-24z"/>
  <path fill="black" d="M1863 241l145 0c8,0 14,11 14,24l0 124c0,14 -6,24 -14,24l-145 0c-8,0 -14,-10 -14,-24l0 -124c0,-13 6,-24 14,-24z"/>
  <path fill="#9A916C" d="M449 2851l0 -146c0,-7 11,-13 24,-13l124 0c14,0 24,6 24,13l0 146c0,7 -10,13 -24,13l-124 0c-13,0 -24,-6 -24,-13z"/>
  <path fill="#9A916C" d="M449 2676l0 -146c0,-7 11,-13 24,-13l124 0c14,0 24,6 24,13l0 146c0,7 -10,13 -24,13l-124 0c-13,0 -24,-6 -24,-13z"/>
  <path fill="#9A916C" d="M449 2501l0 -146c0,-7 11,-13 24,-13l124 0c14,0 24,6 24,13l0 146c0,7 -10,13 -24,13l-124 0c-13,0 -24,-6 -24,-13z"/>
  <path fill="#9A916C" d="M449 2326l0 -146c0,-8 11,-13 24,-13l124 0c14,0 24,5 24,13l0 146c0,7 -10,13 -24,13l-124 0c-13,0 -24,-6 -24,-13z"/>
  <path fill="#9A916C" d="M274 2851l0 -146c0,-7 11,-13 24,-13l124 0c13,0 24,6 24,13l0 146c0,7 -11,13 -24,13l-124 0c-13,0 -24,-6 -24,-13z"/>
  <path fill="#9A916C" d="M274 2676l0 -146c0,-7 11,-13 24,-13l124 0c13,0 24,6 24,13l0 146c0,7 -11,13 -24,13l-124 0c-13,0 -24,-6 -24,-13z"/>
  <path fill="#9A916C" d="M274 2501l0 -146c0,-7 11,-13 24,-13l124 0c13,0 24,6 24,13l0 146c0,7 -11,13 -24,13l-124 0c-13,0 -24,-6 -24,-13z"/>
  <path fill="#9A916C" d="M274 2326l0 -146c0,-8 11,-13 24,-13l124 0c13,0 24,5 24,13l0 146c0,7 -11,13 -24,13l-124 0c-13,0 -24,-6 -24,-13z"/>
  <path fill="#9A916C" d="M449 2151l0 -146c0,-8 11,-13 24,-13l124 0c14,0 24,5 24,13l0 146c0,7 -10,13 -24,13l-124 0c-13,0 -24,-6 -24,-13z"/>
  <path fill="#9A916C" d="M449 1975l0 -145c0,-8 11,-14 24,-14l124 0c14,0 24,6 24,14l0 145c0,8 -10,14 -24,14l-124 0c-13,0 -24,-6 -24,-14z"/>
  <path fill="#9A916C" d="M449 1800l0 -145c0,-8 11,-14 24,-14l124 0c14,0 24,6 24,14l0 145c0,8 -10,14 -24,14l-124 0c-13,0 -24,-6 -24,-14z"/>
  <path fill="#9A916C" d="M449 1625l0 -145c0,-8 11,-14 24,-14l124 0c14,0 24,6 24,14l0 145c0,8 -10,14 -24,14l-124 0c-13,0 -24,-6 -24,-14z"/>
  <path fill="#9A916C" d="M274 2151l0 -146c0,-8 11,-13 24,-13l124 0c13,0 24,5 24,13l0 146c0,7 -11,13 -24,13l-124 0c-13,0 -24,-6 -24,-13z"/>
  <path fill="#9A916C" d="M274 1975l0 -145c0,-8 11,-14 24,-14l124 0c13,0 24,6 24,14l0 145c0,8 -11,14 -24,14l-124 0c-13,0 -24,-6 -24,-14z"/>
  <path fill="#9A916C" d="M274 1800l0 -145c0,-8 11,-14 24,-14l124 0c13,0 24,6 24,14l0 145c0,8 -11,14 -24,14l-124 0c-13,0 -24,-6 -24,-14z"/>
  <path fill="#9A916C" d="M274 1625l0 -145c0,-8 11,-14 24,-14l124 0c13,0 24,6 24,14l0 145c0,8 -11,14 -24,14l-124 0c-13,0 -24,-6 -24,-14z"/>
  <path fill="#9A916C" d="M449 1450l0 -145c0,-8 11,-14 24,-14l124 0c14,0 24,6 24,14l0 145c0,8 -10,14 -24,14l-124 0c-13,0 -24,-6 -24,-14z"/>
  <path fill="#9A916C" d="M449 1275l0 -145c0,-8 11,-14 24,-14l124 0c14,0 24,6 24,14l0 145c0,8 -10,14 -24,14l-124 0c-13,0 -24,-6 -24,-14z"/>
  <path fill="#9A916C" d="M449 1100l0 -145c0,-8 11,-14 24,-14l124 0c14,0 24,6 24,14l0 145c0,8 -10,14 -24,14l-124 0c-13,0 -24,-6 -24,-14z"/>
  <path fill="#9A916C" d="M449 925l0 -146c0,-7 11,-13 24,-13l124 0c14,0 24,6 24,13l0 146c0,8 -10,13 -24,13l-124 0c-13,0 -24,-5 -24,-13z"/>
  <path fill="#9A916C" d="M274 1450l0 -145c0,-8 11,-14 24,-14l124 0c13,0 24,6 24,14l0 145c0,8 -11,14 -24,14l-124 0c-13,0 -24,-6 -24,-14z"/>
  <path fill="#9A916C" d="M274 1275l0 -145c0,-8 11,-14 24,-14l124 0c13,0 24,6 24,14l0 145c0,8 -11,14 -24,14l-124 0c-13,0 -24,-6 -24,-14z"/>
  <path fill="#9A916C" d="M274 1100l0 -145c0,-8 11,-14 24,-14l124 0c13,0 24,6 24,14l0 145c0,8 -11,14 -24,14l-124 0c-13,0 -24,-6 -24,-14z"/>
  <path fill="#9A916C" d="M274 925l0 -146c0,-7 11,-13 24,-13l124 0c13,0 24,6 24,13l0 146c0,8 -11,13 -24,13l-124 0c-13,0 -24,-5 -24,-13z"/>
  <path fill="#9A916C" d="M449 3026l0 -146c0,-7 11,-13 24,-13l124 0c14,0 24,6 24,13l0 146c0,7 -10,13 -24,13l-124 0c-13,0 -24,-6 -24,-13z"/>
  <path fill="#9A916C" d="M274 3026l0 -146c0,-7 11,-13 24,-13l124 0c13,0 24,6 24,13l0 146c0,7 -11,13 -24,13l-124 0c-13,0 -24,-6 -24,-13z"/>
  <g id="copper1">
   <circle id="connector46pin" fill="#9A916C" stroke="black" stroke-width="17.2283" cx="4036" cy="4234" r="115"/>
   <circle id="connector47pin" fill="#9A916C" stroke="black" stroke-width="17.2283" cx="4386" cy="4234" r="115"/>
   <circle id="connector44pin" fill="#9A916C" stroke="black" stroke-width="17.2283" cx="3336" cy="4234" r="115"/>
   <circle id="connector45pin" fill="#9A916C" stroke="black" stroke-width="17.2283" cx="3686" cy="4234" r="115"/>
   <circle id="connector43pin" fill="#9A916C" stroke="black" stroke-width="17.2283" cx="2986" cy="4234" r="115"/>
   <circle id="connector42pin" fill="#9A916C" stroke="black" stroke-width="17.2283" cx="2636" cy="4234" r="115"/>
   <circle id="connector41pin" fill="#9A916C" stroke="black" stroke-width="17.2283" cx="2286" cy="4234" r="115"/>
   <circle id="connector40pin" fill="#9A916C" stroke="black" stroke-width="17.2283" cx="1936" cy="4234" r="115"/>
   <circle id="connector39pin" fill="#9A916C" stroke="black" stroke-width="17.2283" cx="1585" cy="4234" r="115"/>
   <circle id="connector38pin" fill="#9A916C" stroke="black" stroke-width="17.2283" cx="1235" cy="4234" r="115"/>
   <path id="connector34pin" fill="#9A916C" d="M338 4327l44 0c3,0 4,3 4,7l0 38c0,4 -1,7 -4,7l-44 0c-2,0 -4,-3 -4,-7l0 -38c0,-4 2,-7 4,-7z"/>
   <path id="connector35pin" fill="#9A916C" d="M513 4327l44 0c3,0 4,3 4,7l0 38c0,4 -1,7 -4,7l-44 0c-2,0 -4,-3 -4,-7l0 -38c0,-4 2,-7 4,-7z"/>
   <path id="connector36pin" fill="#9A916C" d="M688 4327l44 0c3,0 4,3 4,7l0 38c0,4 -1,7 -4,7l-44 0c-2,0 -4,-3 -4,-7l0 -38c0,-4 2,-7 4,-7z"/>
   <path id="connector37pin" fill="#9A916C" d="M863 4327l44 0c3,0 5,3 5,7l0 38c0,4 -2,7 -5,7l-44 0c-2,0 -4,-3 -4,-7l0 -38c0,-4 2,-7 4,-7z"/>
   <path id="connector0pin" fill="#8C8C8C" d="M1388 301l45 0c2,0 4,3 4,7l0 38c0,4 -2,7 -4,7l-45 0c-2,0 -4,-3 -4,-7l0 -38c0,-4 2,-7 4,-7z"/>
   <path id="connector1pin" fill="#8C8C8C" d="M1563 301l45 0c2,0 4,3 4,7l0 38c0,4 -2,7 -4,7l-45 0c-2,0 -4,-3 -4,-7l0 -38c0,-4 2,-7 4,-7z"/>
   <path id="connector2pin" fill="#8C8C8C" d="M1738 301l45 0c2,0 4,3 4,7l0 38c0,4 -2,7 -4,7l-45 0c-2,0 -4,-3 -4,-7l0 -38c0,-4 2,-7 4,-7z"/>
   <path id="connector3pin" fill="#8C8C8C" d="M1913 301l45 0c2,0 4,3 4,7l0 38c0,4 -2,7 -4,7l-45 0c-2,0 -4,-3 -4,-7l0 -38c0,-4 2,-7 4,-7z"/>
   <path id="connector33pin" fill="#9A916C" d="M1034 2800l0 -44c0,-3 3,-4 7,-4l38 0c4,0 8,1 8,4l0 44c0,2 -4,4 -8,4l-38 0c-4,0 -7,-2 -7,-4z"/>
   <path id="connector32pin" fill="#9A916C" d="M1034 2625l0 -44c0,-3 3,-4 7,-4l38 0c4,0 8,1 8,4l0 44c0,2 -4,4 -8,4l-38 0c-4,0 -7,-2 -7,-4z"/>
   <path id="connector31pin" fill="#9A916C" d="M1034 2450l0 -44c0,-3 3,-5 7,-5l38 0c4,0 8,2 8,5l0 44c0,2 -4,4 -8,4l-38 0c-4,0 -7,-2 -7,-4z"/>
   <path id="connector15pin" fill="#8C8C8C" d="M334 2800l0 -44c0,-3 3,-4 7,-4l38 0c4,0 7,1 7,4l0 44c0,2 -3,4 -7,4l-38 0c-4,0 -7,-2 -7,-4z"/>
   <path id="connector14pin" fill="#8C8C8C" d="M334 2625l0 -44c0,-3 3,-4 7,-4l38 0c4,0 7,1 7,4l0 44c0,2 -3,4 -7,4l-38 0c-4,0 -7,-2 -7,-4z"/>
   <path id="connector13pin" fill="#8C8C8C" d="M334 2450l0 -44c0,-3 3,-5 7,-5l38 0c4,0 7,2 7,5l0 44c0,2 -3,4 -7,4l-38 0c-4,0 -7,-2 -7,-4z"/>
   <path id="connector12pin" fill="#8C8C8C" d="M334 2275l0 -45c0,-2 3,-4 7,-4l38 0c4,0 7,2 7,4l0 45c0,2 -3,4 -7,4l-38 0c-4,0 -7,-2 -7,-4z"/>
   <path id="connector11pin" fill="#8C8C8C" d="M334 2100l0 -45c0,-2 3,-4 7,-4l38 0c4,0 7,2 7,4l0 45c0,2 -3,4 -7,4l-38 0c-4,0 -7,-2 -7,-4z"/>
   <path id="connector10pin" fill="#8C8C8C" d="M334 1925l0 -45c0,-2 3,-4 7,-4l38 0c4,0 7,2 7,4l0 45c0,2 -3,4 -7,4l-38 0c-4,0 -7,-2 -7,-4z"/>
   <path id="connector9pin" fill="#8C8C8C" d="M334 1750l0 -45c0,-2 3,-4 7,-4l38 0c4,0 7,2 7,4l0 45c0,2 -3,4 -7,4l-38 0c-4,0 -7,-2 -7,-4z"/>
   <path id="connector8pin" fill="#8C8C8C" d="M334 1575l0 -45c0,-2 3,-4 7,-4l38 0c4,0 7,2 7,4l0 45c0,2 -3,4 -7,4l-38 0c-4,0 -7,-2 -7,-4z"/>
   <path id="connector7pin" fill="#8C8C8C" d="M334 1400l0 -45c0,-2 3,-4 7,-4l38 0c4,0 7,2 7,4l0 45c0,2 -3,4 -7,4l-38 0c-4,0 -7,-2 -7,-4z"/>
   <path id="connector6pin" fill="#8C8C8C" d="M334 1225l0 -45c0,-2 3,-4 7,-4l38 0c4,0 7,2 7,4l0 45c0,2 -3,4 -7,4l-38 0c-4,0 -7,-2 -7,-4z"/>
   <path id="connector5pin" fill="#8C8C8C" d="M334 1050l0 -45c0,-2 3,-4 7,-4l38 0c4,0 7,2 7,4l0 45c0,2 -3,4 -7,4l-38 0c-4,0 -7,-2 -7,-4z"/>
   <path id="connector4pin" fill="#8C8C8C" d="M334 875l0 -45c0,-2 3,-4 7,-4l38 0c4,0 7,2 7,4l0 45c0,2 -3,4 -7,4l-38 0c-4,0 -7,-2 -7,-4z"/>
   <path id="connector16pin" fill="#8C8C8C" d="M334 2975l0 -44c0,-3 3,-4 7,-4l38 0c4,0 7,1 7,4l0 44c0,2 -3,4 -7,4l-38 0c-4,0 -7,-2 -7,-4z"/>
   <path id="connector28pin" fill="#8C8C8C" d="M509 2800l0 -44c0,-3 3,-4 7,-4l38 0c4,0 7,1 7,4l0 44c0,2 -3,4 -7,4l-38 0c-4,0 -7,-2 -7,-4z"/>
   <path id="connector27pin" fill="#8C8C8C" d="M509 2625l0 -44c0,-3 3,-4 7,-4l38 0c4,0 7,1 7,4l0 44c0,2 -3,4 -7,4l-38 0c-4,0 -7,-2 -7,-4z"/>
   <path id="connector26pin" fill="#8C8C8C" d="M509 2450l0 -44c0,-3 3,-5 7,-5l38 0c4,0 7,2 7,5l0 44c0,2 -3,4 -7,4l-38 0c-4,0 -7,-2 -7,-4z"/>
   <path id="connector25pin" fill="#8C8C8C" d="M509 2275l0 -45c0,-2 3,-4 7,-4l38 0c4,0 7,2 7,4l0 45c0,2 -3,4 -7,4l-38 0c-4,0 -7,-2 -7,-4z"/>
   <path id="connector24pin" fill="#8C8C8C" d="M509 2100l0 -45c0,-2 3,-4 7,-4l38 0c4,0 7,2 7,4l0 45c0,2 -3,4 -7,4l-38 0c-4,0 -7,-2 -7,-4z"/>
   <path id="connector23pin" fill="#8C8C8C" d="M509 1925l0 -45c0,-2 3,-4 7,-4l38 0c4,0 7,2 7,4l0 45c0,2 -3,4 -7,4l-38 0c-4,0 -7,-2 -7,-4z"/>
   <path id="connector22pin" fill="#8C8C8C" d="M509 1750l0 -45c0,-2 3,-4 7,-4l38 0c4,0 7,2 7,4l0 45c0,2 -3,4 -7,4l-38 0c-4,0 -7,-2 -7,-4z"/>
   <path id="connector21pin" fill="#8C8C8C" d="M509 1575l0 -45c0,-2 3,-4 7,-4l38 0c4,0 7,2 7,4l0 45c0,2 -3,4 -7,4l-38 0c-4,0 -7,-2 -7,-4z"/>
   <path id="connector20pin" fill="#8C8C8C" d="M509 1400l0 -45c0,-2 3,-4 7,-4l38 0c4,0 7,2 7,4l0 45c0,2 -3,4 -7,4l-38 0c-4,0 -7,-2 -7,-4z"/>
   <path id="connector19pin" fill="#8C8C8C" d="M509 1225l0 -45c0,-2 3,-4 7,-4l38 0c4,0 7,2 7,4l0 45c0,2 -3,4 -7,4l-38 0c-4,0 -7,-2 -7,-4z"/>
   <path id="connector18pin" fill="#8C8C8C" d="M509 1050l0 -45c0,-2 3,-4 7,-4l38 0c4,0 7,2 7,4l0 45c0,2 -3,4 -7,4l-38 0c-4,0 -7,-2 -7,-4z"/>
   <path id="connector17pin" fill="#8C8C8C" d="M509 875l0 -45c0,-2 3,-4 7,-4l38 0c4,0 7,2 7,4l0 45c0,2 -3,4 -7,4l-38 0c-4,0 -7,-2 -7,-4z"/>
   <path id="connector29pin" fill="#8C8C8C" d="M509 2975l0 -44c0,-3 3,-4 7,-4l38 0c4,0 7,1 7,4l0 44c0,2 -3,4 -7,4l-38 0c-4,0 -7,-2 -7,-4z"/>
   <path id="connector30pin" fill="#9A916C" d="M1034 2275l0 -45c0,-2 3,-4 7,-4l38 0c4,0 8,2 8,4l0 45c0,2 -4,4 -8,4l-38 0c-4,0 -7,-2 -7,-4z"/>
  </g>
  <path fill="white" fill-rule="nonzero" d="M1542 1859c0,55 0,51 0,52 1,1 1,2 2,3 1,1 2,1 3,1 1,1 3,1 5,0 2,-1 3,-2 4,-4 0,-1 0,-3 0,-42l0 -42 7 10 6 9 0 3c0,2 0,3 1,4 0,1 2,2 3,3 0,1 2,1 3,1 1,0 3,0 4,-1 1,-1 2,-2 2,-2 1,-2 1,-3 1,-5l0 -3 7 -9 7 -10 0 42c0,38 0,41 0,41 1,2 1,3 2,4 1,1 2,1 2,1 2,1 4,1 6,0 2,-1 3,-2 4,-4 0,-1 0,-3 0,-52l0 -51 -9 0 -9 0 -8 12 -9 12 0 0 -8 -11 -8 -12 -1 -1 -8 0 -9 0 0 51z"/>
  <path id="1" fill="white" fill-rule="nonzero" d="M1670 1837c-4,1 -8,2 -11,5 -1,0 -6,5 -7,6 -3,3 -5,7 -6,12 0,1 0,2 0,16 0,13 0,16 0,17 1,5 3,9 6,12 1,1 6,5 7,6 3,2 6,4 9,4 2,1 2,1 13,1 10,0 11,0 13,-1 3,0 6,-2 8,-4 2,-1 6,-5 7,-5 3,-4 5,-8 6,-13 0,-1 0,-2 0,-16 0,-13 0,-16 0,-17 -1,-5 -3,-9 -6,-12 -1,-1 -5,-4 -7,-6 -1,-1 -4,-3 -6,-3 -1,-1 -2,-1 -4,-2 0,0 -1,0 -11,0 -8,0 -11,0 -11,0zm21 14c1,1 2,1 2,1 1,1 6,6 7,6 0,1 1,2 1,3 0,0 0,1 0,16l0 15 0 1c-1,2 -1,2 -5,5 -3,3 -3,3 -4,3 -1,1 0,1 -11,1 -11,0 -11,0 -12,-1 -1,0 -1,-1 -4,-3 -3,-3 -4,-3 -4,-4 -1,-2 -1,0 -1,-18l0 -15 1 -1c0,-2 0,-2 4,-5l3 -2c0,-1 1,-1 2,-1 1,-1 1,-1 11,-1 9,0 10,0 10,0l0 0z"/>
  <path id="2" fill="white" fill-rule="nonzero" d="M1756 1837c-1,1 -2,1 -3,2 -2,2 -2,2 -2,4 -1,1 -1,66 0,67 0,2 0,3 2,4 1,1 1,1 2,1 2,1 4,1 6,0 1,-1 2,-2 3,-3 0,-2 0,1 0,-24l1 -22 10 -7c6,-4 11,-7 11,-7 1,-1 1,-1 7,-1l5 0 1 1c2,0 4,2 4,5 1,0 1,6 2,27 1,28 0,26 1,28 1,2 3,4 6,4 3,0 6,-2 7,-6 0,0 0,0 0,-1 0,-3 -1,-52 -2,-53 0,-5 -2,-9 -5,-12 -3,-4 -7,-6 -12,-7 -1,0 -12,0 -13,0 -3,1 -5,1 -7,2 -1,1 -4,2 -9,6l-6 4 -1 -3c0,-3 0,-3 0,-4 0,-2 -2,-3 -3,-4 -1,-1 -3,-1 -5,-1l0 0z"/>
  <path id="3" fill="white" fill-rule="nonzero" d="M1861 1808c-2,0 -3,1 -4,2 -1,1 -2,2 -2,4 0,1 0,95 0,96 0,2 1,3 2,4 1,1 1,1 2,1 2,1 4,1 6,0 1,-1 2,-2 3,-3 1,-2 1,-1 1,-13l0 -11 3 -2 4 -3 0 0c0,1 36,31 36,31 4,3 10,1 11,-4 1,0 1,0 1,-1 0,-2 -1,-4 -3,-5 0,-1 -8,-8 -17,-16 -10,-8 -18,-14 -18,-14 0,0 7,-6 14,-13 8,-6 15,-12 15,-12 3,-3 2,-8 -1,-10 0,-1 -2,-1 -3,-2 0,0 -2,0 -3,0 -1,1 -2,1 -2,2 -1,0 -9,7 -19,16l-18 15 0 -28c0,-27 0,-28 0,-29 -1,-1 -2,-3 -3,-4 0,0 -2,-1 -2,-1 -1,0 -3,0 -3,0l0 0z"/>
  <path id="4" fill="white" fill-rule="nonzero" d="M1959 1859c0,55 0,51 1,52 0,1 0,2 1,3 1,1 2,1 3,1 2,1 3,1 5,0 2,-1 3,-2 4,-4 0,-1 0,-3 0,-42l0 -42 7 10 6 9 1 3c0,2 0,3 0,4 0,1 2,2 3,3 1,1 2,1 3,1 1,0 3,0 4,-1 1,-1 2,-2 3,-2 0,-2 0,-3 0,-5l0 -3 7 -9 7 -10 0 42c0,38 0,41 0,41 1,2 1,3 2,4 1,1 2,1 3,1 2,1 3,1 5,0 2,-1 3,-2 4,-4 0,-1 0,-3 0,-52l0 -51 -9 0 -9 0 -8 12 -8 12 -1 0 -7 -11 -9 -12 0 -1 -9 0 -9 0 0 51z"/>
  <path id="5" fill="white" fill-rule="nonzero" d="M2083 1837c-2,1 -3,2 -4,3 -1,1 -1,1 -2,2 0,1 0,1 0,2 0,1 0,2 0,2 1,2 2,4 4,4 2,1 0,1 16,1l14 0 1 1c2,0 4,2 4,5 0,0 1,2 1,5 0,3 0,5 0,5 0,0 -1,0 -1,0 -1,0 -1,0 -2,0l-1 0 -16 0 -15 0 -1 0c-5,1 -9,3 -12,6 -3,3 -5,7 -5,12 -1,1 -1,2 -1,6 0,5 0,5 1,7 0,4 2,8 5,11 3,3 6,5 10,6 3,1 2,1 15,1 11,0 12,0 12,0 1,-1 2,-1 7,-4 3,-2 5,-3 5,-3 0,0 0,0 0,0 0,1 0,1 0,1 2,6 8,8 12,4 1,-1 2,-3 2,-4 0,-1 0,-4 0,-9l-1 -26c0,-10 -1,-19 -1,-19 -1,-9 -7,-16 -15,-18 -3,-1 -2,-1 -17,-1 -8,0 -15,0 -15,0l0 0zm30 44c1,0 1,0 2,1 1,1 2,2 2,4 0,0 0,1 1,4 0,2 0,3 0,3 0,0 -4,2 -8,5l-7 4 -10 0c-9,0 -10,0 -11,0 -2,-1 -4,-3 -4,-5l-1 -1 0 -5 0 -5 1 -1c0,-2 2,-3 4,-4 0,0 1,0 1,0 0,0 7,0 15,0l14 0 1 0z"/>
  <path id="6" fill="white" fill-rule="nonzero" d="M2173 1808c-1,0 -2,1 -3,2 -1,1 -2,2 -2,4 0,1 0,95 0,96 0,2 1,3 2,4 1,1 1,1 2,1 2,1 4,1 6,0 1,-1 2,-2 3,-3 1,-2 1,-1 1,-13l0 -11 3 -2 3 -3 1 0c0,1 36,31 36,31 4,3 10,1 11,-4 0,0 1,0 1,-1 0,-2 -1,-4 -3,-5 0,-1 -8,-8 -18,-16 -9,-8 -17,-14 -17,-14 0,0 7,-6 14,-13 8,-6 15,-12 15,-12 3,-3 2,-8 -1,-10 -1,-1 -2,-1 -3,-2 -1,0 -2,0 -3,0 -1,1 -2,1 -2,2 -1,0 -9,7 -19,16l-18 15 0 -28c0,-27 0,-28 -1,-29 0,-1 -1,-3 -2,-4 -1,0 -2,-1 -3,-1 0,0 -2,0 -3,0l0 0z"/>
  <path id="7" fill="white" fill-rule="nonzero" d="M2295 1837c-4,1 -7,2 -10,5 -2,2 -7,5 -7,6 -3,3 -5,7 -6,12 0,1 0,2 0,16 0,13 0,16 0,17 1,5 3,9 6,12 0,1 6,5 7,6 3,3 7,4 11,5 1,0 38,0 39,0 3,-1 6,-4 6,-7 0,-3 -2,-6 -4,-7 -2,0 0,0 -21,0l-19 0 -1 0c-1,-1 -2,-1 -5,-4 -3,-3 -4,-3 -4,-4 -1,-2 -1,-2 -1,-5l0 -3 25 0c23,0 24,0 25,0 0,0 2,-1 2,-1 1,-1 2,-2 2,-2 1,-2 1,-1 1,-12 0,-10 0,-11 -1,-13 0,-4 -2,-7 -5,-10 -1,-1 -5,-4 -7,-6 -2,-2 -5,-4 -8,-4 -3,-1 -3,-1 -14,-1 -7,0 -10,0 -11,0zm22 14c1,1 2,1 5,4 2,1 3,3 3,3 1,0 1,1 1,1 1,2 1,1 1,8l0 5 -21 0 -20 0 0 -5 0 -6 0 -1c1,-1 1,-1 2,-2 0,0 1,-2 3,-3 3,-3 3,-3 4,-3 1,-1 2,-1 12,-1l9 0 1 0z"/>
  <path id="8" fill="white" fill-rule="nonzero" d="M2394 1837c-5,1 -9,3 -12,7 -3,4 -5,8 -4,13 0,4 2,7 5,10 1,2 3,3 4,4 1,0 6,2 12,5 20,8 28,12 28,12 0,0 1,1 1,1 3,2 4,6 2,9 -1,2 -2,3 -4,4l-1 0 -14 0c-10,0 -14,0 -15,0 -1,0 -2,-1 -3,-1 -2,-1 -3,-1 -5,-3 -1,-1 -2,-2 -4,-2 -3,0 -6,1 -7,4 -1,2 -1,4 0,6 0,1 1,2 3,3 3,2 5,4 8,5 2,1 4,1 6,2 1,0 1,0 16,0 16,0 16,0 18,-1 8,-1 15,-8 16,-15 2,-5 1,-10 -1,-14 -1,-3 -4,-7 -8,-9 -1,-1 0,-1 -28,-13 -8,-3 -13,-6 -14,-6 0,0 -1,-1 -1,-2 0,0 0,-1 0,-1 0,-1 0,-1 0,-1 1,-2 2,-2 3,-3 0,0 5,0 16,0l15 0 1 0c2,1 3,2 4,3 1,2 3,3 5,3 3,0 6,-1 7,-4 0,0 0,-1 0,-1 1,-1 1,-3 0,-3 0,-2 -1,-3 -3,-5 -3,-4 -8,-6 -13,-7 -1,0 -32,0 -33,0z"/>
  <path id="9" fill="white" fill-rule="nonzero" d="M2507 1873c-2,0 -3,0 -4,2 -1,1 -1,2 -2,3 0,1 0,13 0,14 1,2 1,3 2,4 1,1 2,1 3,2 1,0 1,0 9,0 9,0 8,0 10,-1 1,0 2,-1 3,-3 1,-1 1,-1 1,-9 0,-8 0,-7 -1,-9 -1,-1 -2,-2 -3,-3 -2,-1 -1,0 -10,-1 -6,0 -8,1 -8,1z"/>
  <path id="10" fill="white" fill-rule="nonzero" d="M2615 1837c-4,1 -7,2 -10,4 -1,2 -14,12 -14,13 -3,3 -5,7 -6,12 0,1 0,1 0,11 0,11 0,10 0,13 1,4 3,7 6,10 1,1 13,11 14,12 3,2 7,3 10,4 2,0 32,0 33,0 3,-1 6,-4 6,-7 0,-3 -2,-6 -5,-7 -1,0 0,0 -17,0 -15,0 -16,0 -16,0 -1,-1 -2,-1 -2,-1 -1,-1 -4,-3 -7,-6 -5,-4 -6,-6 -7,-6 0,-1 -1,-2 -1,-2 0,-1 0,-2 0,-11l0 -9 0 -1c0,-1 1,-1 1,-2 1,0 2,-2 7,-6 3,-3 6,-5 7,-6 0,0 1,0 2,-1l0 0 16 0c17,0 16,0 17,0 3,-1 5,-4 5,-7 0,-3 -3,-6 -6,-7 -1,0 -31,0 -33,0l0 0z"/>
  <path id="11" fill="white" fill-rule="nonzero" d="M2713 1837c-4,1 -8,2 -11,5 -1,0 -6,5 -7,6 -3,3 -5,7 -6,12 0,1 0,2 0,16 0,13 0,16 0,17 1,5 3,9 6,12 1,1 6,5 7,6 3,2 6,4 9,4 2,1 2,1 13,1 10,0 11,0 13,-1 3,0 6,-2 8,-4 2,-1 6,-5 7,-5 3,-4 5,-8 6,-13 0,-1 0,-2 0,-16 0,-13 0,-16 0,-17 -1,-5 -3,-9 -6,-12 -1,-1 -5,-4 -7,-6 -1,-1 -4,-3 -6,-3 -1,-1 -2,-1 -4,-2 -1,0 -2,0 -11,0 -8,0 -11,0 -11,0zm21 14c1,1 2,1 2,1 1,1 6,6 7,6 0,1 1,2 1,3 0,0 0,1 0,16l0 15 0 1c-1,2 -1,2 -5,5 -3,3 -3,3 -4,3 -1,1 -1,1 -11,1 -11,0 -11,0 -12,-1 -1,0 -1,-1 -4,-3 -3,-3 -4,-3 -4,-4 -1,-2 -1,0 -1,-18l0 -15 0 -1c1,-2 1,-2 5,-5l3 -2c0,-1 1,-1 2,-1 1,-1 1,-1 11,-1 9,0 10,0 10,0l0 0z"/>
  <path id="12" fill="white" fill-rule="nonzero" d="M2798 1837c-1,1 -2,1 -4,2 -1,2 -1,2 -2,4 0,1 0,66 0,67 1,2 1,3 2,4 1,1 2,1 3,1 2,1 4,1 5,0 1,0 2,-1 3,-2 0,0 1,-2 1,-2 0,-1 0,-2 0,-26l0 -25 5 -4c3,-3 5,-4 6,-4 0,-1 0,-1 1,-1 1,0 1,0 1,0 1,1 1,1 2,2l0 0 0 29c0,26 0,28 0,28 1,2 1,3 2,4 1,1 2,1 2,1 2,1 4,1 6,0 1,0 2,-1 2,-2 1,0 1,-2 2,-2 0,-1 0,-2 0,-26l0 -26 4 -4c3,-2 5,-3 5,-4 0,0 1,0 1,0 0,0 1,0 1,0 1,1 1,1 1,2 0,0 1,7 1,28 1,16 1,29 2,29 0,1 0,2 0,2 1,1 2,2 3,3 1,1 3,1 4,1 1,0 2,0 2,-1 2,-1 3,-2 4,-3 0,-1 0,-2 0,-3 0,-1 -1,-56 -2,-57 0,-4 -2,-7 -5,-10 -2,-3 -5,-4 -9,-5 -4,0 -8,1 -11,3 -1,1 -1,1 -3,3l-2 1 0 -1c0,0 -2,-1 -2,-2 -4,-3 -9,-4 -13,-4 -4,1 -7,2 -9,4 -1,1 -1,1 -1,1 0,0 0,0 0,0 -1,-2 -2,-3 -3,-4 -2,-1 -3,-1 -5,-1l0 0z"/>
  <path fill="#FEFEFE" fill-rule="nonzero" d="M1253 3932c-1,0 -2,1 -3,2 -1,1 -2,2 -2,3 -1,1 -1,1 -1,12l0 10 -10 0 -11 0 -1 1c-3,1 -5,3 -5,6 0,4 2,6 5,7l1 0 11 0 10 0 0 11c0,11 0,11 1,12 0,1 1,2 2,3 0,1 1,1 2,1 2,1 4,1 6,0 1,-1 2,-2 3,-3 0,-2 0,0 0,-13l0 -11 11 0c9,0 11,0 11,0 4,0 6,-3 6,-7 0,-3 -2,-6 -6,-6 0,-1 -2,-1 -11,-1l-11 0 0 -10c0,-13 0,-12 0,-13 -1,-2 -2,-3 -3,-3 -1,0 -1,-1 -2,-1 -1,0 -2,0 -3,0l0 0z"/>
  <path id="1" fill="#FEFEFE" fill-rule="nonzero" d="M1461 3913c-1,0 -2,0 -4,0 -4,2 -7,4 -9,8 -1,1 -16,32 -17,34 -1,2 -2,5 -2,8 0,2 0,5 0,7 0,3 1,6 2,8 1,2 16,33 17,34 2,3 4,5 7,7 7,3 16,2 21,-4 1,-1 2,-2 3,-4 0,0 4,-7 8,-16 8,-16 9,-17 9,-20 2,-6 2,-13 -1,-20 0,-1 -2,-5 -8,-17 -4,-9 -8,-16 -8,-17 -4,-5 -10,-9 -16,-8 -1,0 -2,0 -2,0zm3 14c1,0 1,0 2,1 0,0 1,1 5,9l8 16c3,6 3,7 4,8 0,1 0,2 0,4 1,3 0,5 0,7 -1,1 -1,2 -4,8l-8 16c-4,8 -5,9 -5,9 -1,1 -2,2 -4,1 -1,0 -1,0 -2,-1 0,0 -1,-1 -8,-16 -4,-8 -8,-16 -8,-16 -1,-1 -1,-3 -1,-4 0,-1 0,-4 0,-5 0,-1 0,-3 1,-4 0,0 4,-8 8,-16 7,-15 8,-16 8,-16 1,-1 3,-2 4,-1l0 0z"/>
  <path id="2" fill="#FEFEFE" fill-rule="nonzero" d="M1566 3913c-6,1 -11,4 -15,10 0,1 -15,29 -16,31 -1,3 -1,6 -2,9 0,2 0,5 0,7 1,3 1,6 2,9 1,1 16,30 16,31 4,6 9,10 16,10 1,0 28,0 29,0 3,0 6,-3 6,-7 0,-2 -2,-5 -4,-6 -2,-1 -1,-1 -16,-1 -13,0 -14,0 -15,0 -1,0 -3,-1 -3,-2 -1,-1 -2,-3 -5,-9 -5,-9 -10,-21 -11,-22 0,-1 -1,-3 -1,-4 0,-1 0,-4 0,-5 0,-2 1,-3 1,-4 1,-1 6,-13 11,-22 3,-6 4,-8 5,-9 0,-1 2,-2 3,-2 1,0 2,0 15,-1 15,0 14,0 16,0 2,-1 4,-4 4,-6 0,-4 -3,-7 -6,-7 -1,0 -3,0 -14,0 -13,0 -14,0 -16,0z"/>
  <path id="3" fill="#FEFEFE" fill-rule="nonzero" d="M1643 3913c-2,0 -4,2 -5,4 -1,1 -1,4 0,5 1,2 2,4 4,4l1 0 11 0 11 1 0 39 0 40 -11 0 -11 0 -1 1c-3,1 -5,3 -5,6 0,4 2,6 5,7l1 0 29 0c27,0 28,0 29,0 0,0 1,0 1,0 2,-1 3,-2 3,-4 1,-1 1,1 1,-20 0,-13 0,-18 0,-19 0,-1 0,-2 -1,-2 0,-1 -1,-2 -2,-3 -1,-1 -3,-1 -5,-1 -1,0 -2,1 -2,1 -1,1 -2,2 -3,3 0,0 0,0 0,1 -1,1 -1,0 -1,16l0 14 -7 0 -6 0 0 -47 0 -46 -18 0c-10,0 -18,0 -18,0l0 0z"/>
  <path fill="#FEFEFE" fill-rule="nonzero" d="M1963 3932c-2,0 -2,1 -4,2 -1,1 -1,2 -1,3 -1,1 -1,1 -1,12l0 10 -11 0 -10 0 -1 1c-3,1 -5,3 -5,6 0,4 2,6 5,7l1 0 10 0 11 0 0 11c0,11 0,11 1,12 0,1 0,2 1,3 1,1 2,1 3,1 2,1 4,1 5,0 2,-1 3,-2 3,-3 1,-2 1,0 1,-13l0 -11 11 0c9,0 10,0 11,0 3,0 6,-3 6,-7 0,-3 -3,-6 -6,-6 -1,-1 -2,-1 -11,-1l-11 0 0 -10c0,-13 0,-12 -1,-13 0,-2 -1,-3 -3,-3 0,0 -1,-1 -1,-1 -1,0 -2,0 -3,0l0 0z"/>
  <path id="1" fill="#FEFEFE" fill-rule="nonzero" d="M2171 3913c-2,0 -3,0 -4,0 -4,2 -7,4 -10,8 0,1 -16,32 -16,34 -1,2 -2,5 -2,8 -1,2 -1,5 0,7 0,3 1,6 2,8 0,2 16,33 16,34 2,3 5,5 8,7 7,3 15,2 21,-4 1,-1 2,-2 2,-4 1,0 4,-7 9,-16 8,-16 8,-17 9,-20 2,-6 2,-13 -1,-20 0,-1 -2,-5 -8,-17 -5,-9 -8,-16 -9,-17 -3,-5 -9,-9 -15,-8 -1,0 -2,0 -2,0zm3 14c1,0 1,0 2,1 0,0 1,1 5,9l8 16c3,6 3,7 3,8 1,1 1,2 1,4 0,3 0,5 -1,7 0,1 0,2 -3,8l-8 16c-4,8 -5,9 -5,9 -1,1 -3,2 -4,1 -1,0 -2,0 -2,-1 -1,0 -1,-1 -8,-16 -5,-8 -8,-16 -8,-16 -1,-1 -1,-3 -1,-4 -1,-1 -1,-4 0,-5 0,-1 0,-3 1,-4 0,0 3,-8 8,-16 7,-15 7,-16 8,-16 1,-1 2,-2 4,-1l0 0z"/>
  <path id="2" fill="#FEFEFE" fill-rule="nonzero" d="M2276 3913c-6,1 -12,4 -15,10 -1,1 -15,29 -16,31 -1,3 -2,6 -2,9 0,2 0,5 0,7 0,3 1,6 2,9 1,1 15,30 16,31 3,6 9,10 16,10 1,0 28,0 29,0 3,0 6,-3 6,-7 0,-2 -2,-5 -5,-6 -1,-1 0,-1 -15,-1 -13,0 -14,0 -15,0 -1,0 -3,-1 -4,-2 0,-1 -1,-3 -4,-9 -5,-9 -11,-21 -11,-22 0,-1 -1,-3 -1,-4 0,-1 0,-4 0,-5 0,-2 1,-3 1,-4 0,-1 6,-13 11,-22 3,-6 4,-8 4,-9 1,-1 3,-2 4,-2 1,0 2,0 15,-1 15,0 14,0 15,0 3,-1 5,-4 5,-6 0,-4 -3,-7 -6,-7 -1,0 -3,0 -15,0 -13,0 -14,0 -15,0z"/>
  <path id="3" fill="#FEFEFE" fill-rule="nonzero" d="M2353 3913c-2,0 -4,2 -5,4 -1,1 -1,4 0,5 0,2 2,4 4,4l1 0 24 0 25 0 0 17 0 16 -20 0c-14,0 -21,0 -22,1 -3,0 -6,1 -9,3 -2,2 -3,5 -4,8l0 1 0 24 0 24 31 0c27,0 32,0 32,0 3,0 6,-3 6,-7 0,-3 -3,-6 -6,-6 0,-1 -4,-1 -25,-1l-24 0 0 -16c0,-9 0,-17 0,-17 0,0 10,0 22,0l21 0 1 0c3,-1 5,-2 7,-3 2,-3 3,-6 4,-9 0,-1 0,-35 0,-36 -1,-6 -5,-11 -11,-12 -1,0 0,0 -27,0 -14,0 -25,0 -25,0l0 0z"/>
  <path fill="#FEFEFE" fill-rule="nonzero" d="M2804 3913c-2,0 -3,0 -4,2 -1,1 -1,1 -1,2 -1,1 -1,-2 -1,53l0 50 31 0c27,0 32,0 32,0 4,0 6,-3 6,-7 0,-3 -2,-6 -6,-6 0,-1 -4,-1 -25,-1l-24 0 0 -44c0,-42 0,-44 0,-44 0,-2 -1,-3 -2,-4 -1,0 -2,-1 -3,-1 -1,0 -2,-1 -3,0l0 0z"/>
  <path fill="#FEFEFE" fill-rule="nonzero" d="M3480 3963c0,55 0,52 1,53 0,1 1,1 2,2 0,1 1,2 2,2 2,1 4,1 5,0 1,-1 2,-1 3,-2 0,-1 1,-2 1,-3 0,0 0,-2 0,-27l0 -26 5 0 5 0 16 27 16 28c0,0 1,1 1,1 3,3 7,3 10,1 2,-2 3,-5 2,-8 0,0 -7,-12 -15,-25l-14 -24 5 0c6,0 6,0 8,-1 8,-2 14,-8 16,-15 0,-2 0,-3 0,-8 0,-5 0,-6 0,-7 -1,-9 -7,-16 -16,-18 -2,0 0,0 -28,0l-25 0 0 50zm50 -36c2,0 4,2 5,3 0,2 0,2 0,7 0,5 0,5 0,7 -1,1 -2,2 -4,3 -1,1 1,1 -19,1l-18 0 0 -11 0 -11 18 1c17,0 18,0 18,0z"/>
  <path fill="#FEFEFE" fill-rule="nonzero" d="M3939 3913c-4,0 -9,2 -12,6 -1,1 -4,5 -11,14 -5,7 -10,13 -10,13 -3,4 -5,9 -5,13 0,2 0,41 0,43 1,6 4,12 10,15 2,1 4,2 6,3 3,0 2,0 18,0 14,0 15,0 16,0 7,-1 13,-5 16,-11 2,-3 2,-5 2,-7 1,-1 1,-2 1,-16l0 -15 -14 0c-16,0 -15,0 -16,1 -1,0 -2,0 -3,1 -1,1 -1,2 -2,3 0,1 0,3 0,4 1,2 1,2 2,3 1,1 2,1 3,2 1,0 1,0 9,0l7 0 0 8c0,9 0,8 -1,9 -1,2 -2,3 -3,4 -2,0 0,0 -17,0 -16,0 -15,0 -16,0 -2,-1 -3,-3 -4,-5 0,0 0,-1 0,-21l0 -20 0 -1c0,-2 1,-4 2,-5 0,0 5,-6 10,-13 11,-14 10,-13 12,-14 1,-1 0,0 13,-1 13,0 12,0 13,0 3,-1 5,-4 5,-6 0,-4 -3,-7 -6,-7 -1,0 -3,0 -12,0 -10,0 -12,0 -13,0l0 0z"/>
  <path id="1" fill="#FEFEFE" fill-rule="nonzero" d="M4005 3963c0,55 0,52 1,53 0,1 0,1 1,2 1,1 2,2 3,2 2,1 3,1 5,0 2,-1 3,-3 4,-5 0,0 0,-2 0,-39l0 -39 18 42 18 41 10 0 9 0 0 -51c0,-49 0,-51 0,-51 -1,-2 -2,-4 -4,-5 -2,-1 -4,-1 -5,0 -1,0 -2,1 -3,1 -1,1 -1,2 -2,4 0,0 0,3 0,39l0 39 -17 -40 -19 -41 -1 -2 -9 0 -9 0 0 50z"/>
  <path id="2" fill="#FEFEFE" fill-rule="nonzero" d="M4115 3913c-2,0 -4,2 -5,4 -1,1 -1,4 0,5 1,2 2,4 4,4 1,0 1,0 5,0l4 1 0 39 0 40 -4 0c-4,0 -4,1 -5,1 -3,1 -5,3 -5,6 0,4 2,6 5,7l1 0 14 0c14,0 14,0 16,0 3,0 7,-2 10,-4 2,-2 4,-4 5,-6 0,0 4,-7 8,-15 8,-17 8,-17 9,-21 1,-3 1,-5 1,-8 0,-3 0,-4 -1,-7 -1,-4 -1,-4 -9,-21 -4,-8 -8,-15 -8,-16 -4,-5 -9,-9 -16,-9 -1,0 -3,0 -15,0 -7,0 -14,0 -14,0l0 0zm29 14c1,0 3,1 3,2 1,1 2,2 13,24 2,6 3,7 3,8 1,2 1,4 1,7 0,1 0,3 -1,4 0,1 -1,2 -3,8 -11,21 -12,23 -13,24 0,1 -1,1 -2,2 -1,0 -1,0 -5,0l-3 0 0 -40 0 -40 3 1c3,0 3,0 4,0z"/>
  <path id="3" fill="#FEFEFE" fill-rule="nonzero" d="M4351 3932c-1,0 -2,1 -4,2 0,1 -1,2 -1,3 -1,1 -1,1 -1,12l0 10 -10 0 -11 0 -1 1c-3,1 -5,3 -5,6 0,4 2,6 5,7l1 0 11 0 10 0 0 11c0,11 0,11 1,12 0,1 1,2 1,3 1,1 2,1 3,1 2,1 4,1 5,0 2,-1 3,-2 4,-3 0,-2 0,0 0,-13l0 -11 11 0c9,0 11,0 11,0 3,0 6,-3 6,-7 0,-3 -3,-6 -6,-6 0,-1 -2,-1 -11,-1l-11 0 0 -10c0,-13 0,-12 0,-13 -1,-2 -2,-3 -4,-3 0,0 -1,-1 -1,-1 -1,0 -2,0 -3,0l0 0z"/>
  <path id="4" fill="#FEFEFE" fill-rule="nonzero" d="M4428 3913c-2,0 -2,0 -4,2 -1,1 -1,1 -1,2 -1,1 -1,1 -1,15l0 12 1 1 14 36c7,19 13,35 13,35 2,5 8,6 11,3 1,-1 2,-2 2,-2 0,-1 6,-17 14,-37l14 -36 0 -13c0,-14 0,-13 -1,-15 0,-1 -1,-2 -3,-3 -2,-1 -3,-1 -5,0 -1,0 -2,1 -3,2 -1,1 -1,1 -1,2 -1,1 -1,1 -1,13l0 12 -10 26c-6,14 -10,26 -10,26 0,0 -5,-12 -11,-26l-10 -26 0 -12c0,-13 0,-12 -1,-14 0,-1 -1,-2 -3,-3 0,0 -1,0 -1,0 -1,0 -2,-1 -3,0l0 0z"/>
  <path fill="#FEFEFE" fill-rule="nonzero" d="M4024 3644c-2,0 -3,1 -4,2 -1,1 -2,2 -2,4 0,0 0,36 0,37 0,2 1,3 2,4 1,1 2,1 2,1 2,1 0,1 27,1l24 0 0 22 0 23 -1 0c-2,0 -4,1 -5,4 -1,1 -1,3 -1,4 1,2 1,3 2,4 1,0 2,1 3,1 1,1 1,1 6,1 5,0 4,0 6,-1 1,-1 2,-2 3,-3 0,-1 1,-1 1,-2 0,0 0,-2 0,-48 0,-46 0,-48 0,-49 -1,-1 -2,-3 -3,-4 0,0 -2,-1 -2,-1 -1,0 -2,0 -29,0 -24,0 -29,0 -29,0l0 0zm49 24l0 11 -21 0 -20 0 0 -11 0 -10 20 0 21 0 0 10z"/>
  <path id="1" fill="#FEFEFE" fill-rule="nonzero" d="M4128 3691c-2,0 -3,1 -4,2 -1,1 -1,1 -1,2 -1,1 -1,2 -1,6 0,3 0,4 1,5 0,0 0,1 0,1 1,1 2,2 3,3 0,0 1,0 2,0 1,1 8,1 29,1 27,-1 28,-1 29,-1 1,0 2,-1 3,-1 0,-1 1,-1 1,-2 1,-2 1,-2 1,-6 0,-5 0,-5 -1,-6 0,-1 -1,-2 -1,-3 -1,0 -2,-1 -3,-1 -1,0 -2,0 -29,0 -23,0 -29,0 -29,0l0 0z"/>
  <path id="2" fill="#FEFEFE" fill-rule="nonzero" d="M4232 3644c-2,0 -4,2 -5,4 -1,2 -1,4 0,6 1,1 3,3 5,3l0 1 11 0 11 0 0 40 0 40 -11 0 -11 0 0 0c-4,1 -5,4 -5,7 0,3 2,6 5,6l0 1 29 0c27,0 29,0 29,-1 0,0 1,0 2,0 1,-1 2,-2 3,-3 0,-2 0,0 0,-21 0,-13 0,-18 0,-19 0,0 0,-1 -1,-2 0,-1 -1,-2 -2,-2 -1,-1 -3,-2 -4,-1 -1,0 -2,0 -3,0 -1,1 -2,2 -3,3 0,0 0,1 0,1 -1,1 -1,1 -1,16l0 15 -6 0 -7 0 0 -47 0 -47 -18 0c-9,0 -17,0 -18,0l0 0z"/>
  <path id="3" fill="#FEFEFE" fill-rule="nonzero" d="M4337 3644c-3,0 -5,2 -6,4 0,2 0,4 0,6 1,1 3,3 5,3l1 1 24 0 25 0 0 16 0 17 -21 0c-13,0 -21,0 -21,0 -4,0 -6,1 -9,4 -2,2 -3,4 -4,7l0 1 0 24 0 25 31 0c27,0 31,0 32,0 3,-1 6,-4 6,-7 0,-4 -3,-7 -6,-7 -1,0 -4,0 -25,0l-24 0 0 -17c0,-9 0,-16 0,-16 0,0 10,0 21,0l22 0 1 -1c2,0 5,-1 6,-3 3,-2 4,-5 5,-9 0,-1 0,-35 0,-36 -1,-6 -5,-10 -11,-12 -2,0 0,0 -27,0 -14,0 -25,0 -25,0l0 0z"/>
  <path id="4" fill="#FEFEFE" fill-rule="nonzero" d="M4441 3644c-2,0 -3,1 -4,2 -1,1 -1,1 -1,2 -1,2 -1,1 -1,15l0 13 1 1 13 35c8,19 14,35 14,36 2,4 8,5 11,2 1,-1 1,-2 2,-2 0,0 6,-17 14,-37l14 -36 0 -12c0,-15 0,-14 -1,-15 0,-2 -1,-3 -3,-4 -2,0 -3,0 -5,0 -1,1 -2,1 -3,2 -1,1 -1,1 -2,2 0,2 0,1 0,14l0 11 -10 26c-6,14 -10,26 -10,26 0,0 -5,-11 -11,-26l-10 -26 0 -12c0,-13 0,-12 -1,-13 0,-2 -1,-3 -3,-4 0,0 -1,0 -1,0 -1,0 -2,0 -3,0l0 0z"/>
  <path fill="#FEFEFE" fill-rule="nonzero" d="M267 4169l0 25 17 0 17 0 0 14 0 14 -13 0c-13,0 -14,0 -14,0 -1,0 -3,-1 -6,-3 -2,-1 -5,-2 -5,-2 -3,-1 -6,1 -7,3 -1,2 -1,4 0,5 0,1 1,2 2,3 1,0 11,4 12,5 1,0 2,0 3,0 1,0 2,0 15,0 15,0 15,0 16,0 3,-1 5,-2 6,-4 1,-1 2,-3 3,-5l0 -1 0 -15c0,-10 0,-14 0,-15 -1,-5 -4,-9 -9,-10 -1,0 -1,0 -14,0l-11 0 0 -14 0 -14 14 0c12,0 15,0 15,0 3,0 5,-3 5,-6 0,-2 -2,-5 -5,-5 0,0 -4,0 -21,0l-20 0 0 25z"/>
  <path id="1" fill="#FEFEFE" fill-rule="nonzero" d="M347 4144c-1,0 -2,0 -3,1 -1,1 -1,2 -1,2 -1,1 -1,1 -1,12l0 11 1 1 11 30c7,16 12,29 12,29 2,4 6,5 9,2 1,-1 1,-1 1,-2 0,0 6,-14 12,-30l12 -30 0 -11c0,-12 0,-11 -1,-12 0,-1 -1,-2 -2,-3 -2,-1 -3,-1 -5,0 -1,0 -1,0 -2,1 -1,1 -1,2 -1,2 -1,1 -1,1 -1,11l0 10 -8 22c-5,12 -9,21 -9,21 0,0 -4,-9 -8,-21l-9 -22 0 -10c0,-11 0,-10 -1,-11 0,-1 -1,-2 -2,-3 -1,0 -1,0 -1,0 -1,0 -2,-1 -3,0l0 0z"/>
  <path id="2" fill="#FEFEFE" fill-rule="nonzero" d="M516 4152c0,8 0,8 1,9 0,2 1,3 2,3 1,1 2,1 3,1 1,0 1,0 2,-1 2,0 3,-1 3,-3 1,-1 1,-1 1,-4l0 -2 5 0 6 0 0 37c0,39 0,37 0,38 1,0 1,1 2,2 1,0 1,1 2,1 1,1 3,1 4,0 2,-1 3,-2 4,-4 0,0 0,-2 0,-37l0 -37 5 0 6 0 0 2c0,3 0,3 0,4 1,2 2,3 3,3 1,1 2,1 3,1 1,0 1,0 2,-1 1,0 3,-1 3,-3 1,-1 1,-1 1,-9l0 -8 -29 0 -29 0 0 8z"/>
  <path id="3" fill="#FEFEFE" fill-rule="nonzero" d="M690 4188l0 45 26 0c22,0 26,0 27,0 2,0 4,-3 4,-5 0,-3 -2,-6 -4,-6 -1,0 -4,0 -21,0l-20 0 0 -14 0 -14 9 0c10,0 9,0 10,0 1,-1 2,-2 3,-3 0,-1 0,-1 0,-3 0,-1 0,-1 0,-2 -1,-1 -2,-2 -3,-3 -1,0 0,0 -10,0l-9 0 0 -14 0 -14 20 0c17,0 20,0 21,0 2,0 4,-3 4,-6 0,-2 -2,-5 -4,-5 -1,0 -5,0 -27,0l-26 0 0 44z"/>
  <path id="4" fill="#FEFEFE" fill-rule="nonzero" d="M896 4144c-4,0 -8,2 -10,5 -1,0 -4,4 -9,11 -5,6 -9,11 -9,12 -2,3 -4,7 -4,10 0,2 0,34 0,36 1,5 4,10 8,13 2,1 4,2 6,2 2,0 1,0 15,0 11,0 12,0 13,0 6,0 11,-4 13,-9 1,-2 2,-4 2,-6 0,-1 0,-2 0,-13l0 -13 -11 0c-13,0 -13,0 -14,1 -1,0 -1,0 -2,1 -1,1 -1,1 -1,2 -1,2 -1,3 0,4 0,1 0,2 1,2 1,1 1,1 2,2 1,0 1,0 8,0l6 0 0 7c0,7 0,6 -1,7 -1,2 -1,3 -3,3 -1,1 0,1 -13,1 -14,0 -13,0 -14,-1 -2,-1 -3,-2 -3,-4 0,0 0,-1 0,-17l0 -17 0 -1c0,-1 1,-3 2,-4 0,0 4,-5 8,-11 9,-11 8,-11 10,-11 1,-1 0,-1 11,-1 10,0 10,0 11,0 2,-1 3,-3 3,-6 0,-2 -2,-5 -5,-5 0,0 -2,0 -10,0 -8,0 -9,0 -10,0l0 0z"/>
  <path id="5" fill="#FEFEFE" fill-rule="nonzero" d="M951 4186c0,46 0,43 0,44 0,0 1,1 2,2 0,0 1,1 2,1 1,1 3,1 4,0 2,-1 3,-2 3,-4 0,0 0,-2 0,-33l0 -32 16 35 15 34 7 0 8 0 0 -42c0,-41 0,-43 0,-43 0,-2 -2,-3 -3,-4 -2,-1 -3,-1 -5,0 0,0 -1,0 -2,1 0,1 -1,2 -1,3 0,0 0,3 0,33l0 32 -15 -33 -15 -35 -1 -1 -8 0 -7 0 0 42z"/>
  <path id="6" fill="#FEFEFE" fill-rule="nonzero" d="M1043 4144c-2,0 -4,1 -5,3 0,1 0,3 0,5 1,1 2,2 4,3 0,0 1,0 4,0l3 0 0 33 0 34 -3 0c-3,0 -4,0 -4,0 -3,1 -4,3 -4,6 0,2 1,4 4,5l1 0 11 0c11,0 12,0 13,0 3,0 6,-1 9,-3 1,-2 3,-3 4,-5 0,0 3,-6 6,-13 7,-14 8,-14 8,-17 1,-2 1,-4 1,-7 0,-2 0,-4 -1,-6 0,-3 -1,-3 -8,-17 -3,-7 -6,-13 -6,-13 -3,-5 -8,-8 -13,-8 -1,0 -3,0 -13,0 -6,0 -11,0 -11,0l0 0zm23 11c2,1 3,1 3,2 1,1 2,2 11,20 2,5 2,6 3,7 0,2 1,4 0,6 0,1 0,2 0,3 -1,1 -1,2 -3,7 -9,18 -10,19 -11,20 0,0 -1,1 -2,1 -1,1 -1,1 -4,1l-2 0 0 -34 0 -33 2 0c2,0 3,0 3,0z"/>
  <path fill="#FEFEFE" fill-rule="nonzero" d="M157 3930c-4,0 -8,3 -11,7 -3,5 -3,12 0,17 0,0 12,15 26,34 14,18 26,33 26,33 1,1 0,2 -1,2l0 1 -18 0 -18 0 0 -1c-2,0 -3,-1 -3,-3 0,0 -1,0 -1,-1 0,-2 0,-4 -2,-5 -1,-2 -3,-2 -5,-2 0,0 -1,0 -1,0 -2,1 -3,1 -4,2 -1,2 -2,4 -1,7 0,4 2,8 5,11 3,3 7,5 11,5 1,1 3,1 19,1 20,0 19,0 22,-1 7,-2 12,-9 11,-17 0,-3 -1,-5 -2,-7 -1,0 -12,-15 -27,-34 -14,-18 -25,-33 -25,-33 -1,-1 -1,-2 0,-2l1 0 18 0 18 0 0 0c1,0 3,1 3,3 0,0 0,1 0,1 0,3 1,4 2,5 1,1 2,2 3,2 1,0 1,0 2,0 2,0 4,0 5,-2 2,-1 3,-3 2,-6 0,-5 -2,-9 -5,-12 -3,-3 -7,-5 -11,-5 -1,0 -4,0 -20,0 -15,0 -18,0 -19,0l0 0z"/>
  <path id="1" fill="#FEFEFE" fill-rule="nonzero" d="M280 3930c-1,0 -2,0 -4,1 -4,1 -7,4 -9,7 -1,1 -16,32 -17,34 -1,2 -2,5 -2,8 0,2 0,6 0,7 0,3 1,6 2,8 1,2 16,33 17,34 2,3 4,5 7,7 7,3 16,2 21,-4 1,-1 2,-2 3,-3 0,-1 4,-8 8,-17 8,-16 9,-17 9,-19 2,-7 2,-14 -1,-21 0,-1 -2,-5 -8,-17 -4,-8 -8,-16 -8,-16 -4,-6 -10,-9 -16,-9 -1,0 -2,0 -2,0zm3 14c1,0 1,0 2,1 1,0 1,1 5,9l8 16c3,6 3,7 4,8 0,2 0,3 1,4 0,3 -1,5 -1,7 -1,1 -1,2 -4,8l-8 16c-4,8 -4,9 -5,9 -1,1 -2,2 -4,1 -1,0 -1,0 -2,-1 0,0 -1,0 -8,-16 -4,-8 -8,-16 -8,-16 -1,-1 -1,-2 -1,-4 0,-1 0,-4 0,-5 0,-1 0,-3 1,-4 0,0 4,-8 8,-16 7,-15 8,-16 8,-16 1,-1 3,-2 4,-1l0 0z"/>
  <path id="2" fill="#FEFEFE" fill-rule="nonzero" d="M352 3980c0,55 0,52 0,53 1,1 1,2 2,2 1,1 2,2 3,2 1,1 3,1 5,0 2,-1 3,-3 4,-5 0,0 0,-2 0,-39l0 -38 18 41 18 42 10 0 9 0 0 -52c0,-48 0,-51 0,-51 -1,-2 -2,-4 -4,-5 -2,0 -4,-1 -5,0 -1,0 -2,1 -3,2 -1,1 -1,1 -2,3 0,0 0,3 0,39l0 39 -17 -40 -19 -41 -1 -2 -9 0 -9 0 0 50z"/>
  <path id="3" fill="#FEFEFE" fill-rule="nonzero" d="M489 3930c-1,0 -2,1 -3,2 -1,1 -1,1 -2,2 0,1 -27,94 -28,95 0,1 0,2 0,3 2,5 7,7 11,4 1,0 2,-2 3,-3 0,0 1,-4 3,-10l2 -9 16 0 15 0 3 9c1,5 3,10 3,10 0,2 2,4 4,4 5,2 9,-2 9,-6 0,-1 0,-2 0,-2 0,0 -6,-21 -14,-47 -11,-39 -14,-48 -14,-48 -1,-2 -2,-3 -3,-4 -1,0 -1,0 -2,0 0,0 -2,0 -3,0l0 0zm7 51l6 19 -6 0c-3,0 -8,0 -11,0l-6 0 6 -19c3,-11 6,-19 6,-19 0,0 2,8 5,19z"/>
  <path id="4" fill="#FEFEFE" fill-rule="nonzero" d="M561 3980c0,55 0,52 0,53 0,1 1,2 2,2 1,1 1,2 2,2 2,1 4,1 6,0 1,-1 1,-1 2,-2 0,-1 1,-2 1,-3 0,0 1,-1 1,-27l0 -26 4 0 5 0 16 27 16 28c0,0 1,1 1,1 3,3 7,3 10,1 2,-2 3,-5 2,-8 0,0 -7,-11 -14,-25l-15 -24 5 0c6,0 6,0 9,-1 7,-2 13,-8 15,-15 0,-2 0,-2 0,-8 0,-5 0,-6 0,-7 -1,-8 -7,-16 -15,-18 -3,0 0,0 -28,0l-25 0 0 50zm49 -36c2,0 4,2 5,4 0,1 0,1 0,6 0,6 0,6 0,7 -1,1 -2,3 -4,3 -1,1 1,1 -19,1l-17 0 0 -11 0 -10 17 0c17,0 18,0 18,0z"/>
  <path fill="#FEFEFE" fill-rule="nonzero" d="M1230 2222l0 30 21 0 20 0 0 17 0 16 -16 0c-15,0 -16,0 -17,0 0,0 -3,-1 -6,-3 -3,-1 -6,-2 -6,-2 -4,-2 -7,0 -9,3 -1,2 -1,4 0,6 1,1 2,3 3,3 1,1 12,6 13,6 2,0 3,1 5,1 1,0 1,0 18,0 18,0 17,0 19,0 3,-1 5,-3 7,-5 2,-2 3,-4 3,-6l0 -1 0 -18c0,-13 0,-18 0,-18 0,-6 -4,-11 -10,-12 -2,-1 -2,-1 -17,-1l-14 0 0 -16 0 -17 18 0c14,0 17,0 18,0 3,-1 5,-3 5,-7 0,-3 -2,-6 -5,-7 -1,0 -5,0 -25,0l-25 0 0 31z"/>
  <path id="1" fill="#FEFEFE" fill-rule="nonzero" d="M1327 2191c-2,1 -3,1 -4,2 -1,1 -1,2 -2,3 0,1 0,1 0,14l0 13 0 1 14 36c8,19 14,35 14,35 2,4 8,5 11,2 1,0 1,-1 1,-2 1,0 7,-16 15,-36l14 -36 0 -13c0,-15 0,-13 -1,-15 -1,-1 -2,-2 -3,-3 -2,-1 -4,-1 -6,0 -1,0 -1,0 -2,1 -1,1 -1,2 -2,3 0,1 0,1 0,13l0 11 -10 26c-6,15 -11,27 -11,27 0,0 -4,-12 -10,-26l-10 -27 0 -11c0,-14 0,-12 -1,-14 -1,-1 -2,-2 -3,-3 -1,0 -1,-1 -1,-1 -1,0 -3,0 -3,0l0 0z"/>
  <path id="2" fill="#FEFEFE" fill-rule="nonzero" d="M1255 2373c-5,1 -9,3 -12,7 -1,0 -4,4 -11,13 -6,7 -10,14 -11,14 -2,4 -4,8 -4,13 -1,2 -1,41 0,42 0,7 4,13 10,16 1,1 4,2 6,3 2,0 2,0 18,0 14,0 15,0 16,0 7,-1 13,-5 16,-12 1,-2 2,-4 2,-6 0,-2 0,-2 0,-16l0 -15 -14 0c-15,0 -14,0 -16,0 -1,1 -1,1 -2,2 -1,1 -1,1 -2,3 0,1 0,3 0,4 1,1 1,2 2,3 1,1 1,1 2,1 2,1 2,1 9,1l7 0 0 8c0,8 0,8 0,9 -1,2 -2,3 -4,3 -1,1 0,1 -16,1 -16,0 -15,0 -16,-1 -2,0 -4,-2 -4,-4 0,-1 0,-2 0,-21l0 -20 0 -1c0,-2 1,-4 2,-5 0,-1 5,-7 10,-13 11,-14 10,-13 12,-14 1,-1 0,-1 13,-1 13,0 12,0 13,0 3,-1 4,-4 4,-7 0,-3 -2,-6 -5,-7 -1,0 -3,0 -12,0 -11,0 -12,0 -13,0l0 0z"/>
  <path id="3" fill="#FEFEFE" fill-rule="nonzero" d="M1321 2424c0,55 0,51 0,53 1,0 1,1 2,2 1,1 1,1 2,2 2,0 4,0 6,-1 2,-1 3,-2 4,-4 0,-1 0,-2 0,-39l0 -39 18 42 18 41 9 0 10 0 0 -51c0,-49 0,-51 0,-52 -1,-2 -2,-3 -4,-4 -2,-1 -4,-1 -6,0 -1,0 -1,0 -2,1 -1,1 -2,2 -2,4 0,0 0,3 0,39l0 38 -18 -39 -18 -42 -1 -2 -9 0 -9 0 0 51z"/>
  <path id="4" fill="#FEFEFE" fill-rule="nonzero" d="M1431 2373c-2,1 -4,2 -5,4 -1,2 -1,4 0,6 1,2 2,3 4,4 1,0 1,0 5,0l4 0 0 40 0 40 -4 0c-4,0 -4,0 -5,0 -3,1 -5,4 -5,7 0,3 2,6 5,7l1 0 14 0c13,0 14,0 15,0 4,-1 8,-2 11,-5 2,-1 3,-3 5,-5 0,0 3,-7 8,-16 8,-17 8,-17 9,-20 1,-3 1,-5 1,-8 0,-3 0,-5 -1,-7 -1,-4 -1,-4 -9,-21 -5,-8 -8,-15 -8,-16 -4,-5 -10,-9 -16,-10 -1,0 -3,0 -15,0 -7,0 -14,0 -14,0l0 0zm29 14c1,1 2,2 3,3 1,0 2,2 12,24 3,5 4,6 4,7 1,3 1,5 1,7 0,2 0,3 -1,5 0,1 -1,2 -4,8 -10,21 -11,23 -12,23 0,1 -1,2 -2,2 -2,1 -2,1 -5,1l-3 0 0 -40 0 -40 3 0c2,0 3,0 4,0z"/>
  <path id="5" fill="#FEFEFE" fill-rule="nonzero" d="M1222 2555c-2,1 -4,2 -5,4 -1,2 -1,4 0,6 1,2 3,3 5,4 0,0 0,0 4,0l4 0 0 40 0 40 -4 0c-4,0 -4,0 -4,0 -3,1 -5,4 -5,7 0,3 2,6 5,7l0 0 14 0c14,0 14,0 16,0 4,-1 7,-2 10,-5 2,-1 4,-3 5,-5 0,0 4,-7 8,-16 9,-16 9,-17 10,-20 0,-3 0,-5 0,-8 0,-3 0,-5 0,-7 -1,-4 -1,-4 -10,-21 -4,-8 -8,-15 -8,-16 -3,-5 -9,-9 -16,-10 -1,0 -3,0 -14,0 -8,0 -14,0 -15,0l0 0zm29 14c1,1 3,2 4,3 0,0 1,2 12,24 3,5 3,6 4,8 0,2 1,4 0,7 0,1 0,2 0,4 -1,1 -1,2 -4,8 -11,21 -12,23 -12,24 -1,0 -2,1 -3,1 -1,1 -1,1 -5,1l-3 0 0 -40 0 -40 3 0c3,0 4,0 4,0z"/>
  <path id="6" fill="#FEFEFE" fill-rule="nonzero" d="M1250 2737c-6,1 -12,5 -15,10 -1,1 -15,30 -16,32 -1,3 -2,5 -2,9 0,1 0,5 0,7 0,3 1,6 2,9 1,1 15,30 16,31 3,6 9,9 15,10 2,0 29,0 30,0 3,-1 5,-3 5,-7 0,-3 -1,-5 -4,-6 -1,-1 0,-1 -15,-1 -14,0 -15,0 -15,0 -1,0 -3,-1 -4,-2 0,-1 -1,-3 -4,-9 -5,-10 -11,-21 -11,-22 -1,-1 -1,-3 -1,-4 0,-1 0,-4 0,-6 0,-1 0,-2 1,-3 0,-1 6,-13 11,-23 3,-6 4,-8 4,-8 1,-1 3,-2 4,-3 0,0 1,0 15,0 15,0 14,0 15,0 3,-1 4,-4 4,-7 0,-3 -2,-6 -5,-7 -1,0 -3,0 -15,0 -13,0 -14,0 -15,0z"/>
  <path fill="#FEFEFE" fill-rule="nonzero" d="M978 1942c-2,0 -4,2 -5,4 -1,2 -1,4 0,6 1,2 2,3 4,4l1 0 11 0 11 0 0 40 0 40 -11 0 -11 0 -1 0c-3,1 -5,4 -5,7 0,3 2,6 5,7l1 0 28 0c21,0 29,0 29,0 5,-1 7,-6 5,-10 0,-2 -2,-3 -3,-4 -2,0 -1,0 -13,0l-10 0 0 -40 0 -40 10 0c9,0 11,0 11,0 4,-1 6,-4 6,-7 0,-4 -2,-6 -6,-7 0,0 -5,0 -28,0 -16,0 -29,0 -29,0l0 0z"/>
  <path id="1" fill="#FEFEFE" fill-rule="nonzero" d="M1082 1942c-2,0 -4,2 -5,4 -1,2 -1,4 0,6 1,2 3,3 5,4l0 0 25 0 24 0 0 16 0 17 -20 0c-13,0 -21,0 -22,0 -3,0 -6,1 -8,4 -2,2 -4,4 -4,7l0 1 0 24 0 25 31 0c26,0 31,0 32,0 3,-1 5,-4 5,-7 0,-4 -2,-6 -5,-7 -1,0 -5,0 -25,0l-25 0 0 -17c0,-9 1,-16 1,-16 0,0 9,0 21,0l22 0 0 -1c3,0 5,-1 7,-3 2,-2 4,-5 4,-8 0,-2 0,-36 0,-37 -1,-6 -5,-10 -10,-12 -2,0 -1,0 -27,0 -14,0 -25,0 -26,0l0 0z"/>
  <path id="2" fill="#FEFEFE" fill-rule="nonzero" d="M1214 1942c-6,1 -11,4 -15,10 0,1 -15,30 -16,31 -1,3 -2,6 -2,9 0,2 0,6 0,7 0,4 1,7 2,9 1,2 16,31 16,32 4,5 9,9 16,10 1,0 28,0 29,0 3,-1 6,-4 6,-7 0,-3 -2,-6 -5,-7 -1,0 0,0 -15,0 -13,0 -14,0 -15,0 -1,-1 -3,-2 -3,-3 -1,0 -2,-2 -5,-8 -5,-10 -11,-22 -11,-23 0,-1 -1,-2 -1,-3 0,-2 0,-5 0,-6 0,-1 1,-3 1,-4 0,-1 6,-12 11,-22 3,-6 4,-8 5,-9 0,-1 2,-2 3,-2 1,0 2,0 15,0 15,0 14,0 15,-1 3,-1 5,-3 5,-6 0,-4 -3,-6 -6,-7 -1,0 -3,0 -15,0 -13,0 -13,0 -15,0z"/>
  <path fill="#FEFEFE" fill-rule="nonzero" d="M1352 472c-4,1 -8,4 -11,7 -3,5 -3,12 0,18 0,0 12,15 26,33 15,19 26,34 26,34 1,1 0,2 -1,2l0 0 -18 0 -18 0 0 0c-2,-1 -3,-2 -3,-3 0,0 0,-1 -1,-2 0,-2 0,-3 -2,-5 -1,-1 -3,-2 -5,-2 0,0 -1,1 -1,1 -2,0 -3,1 -4,2 -1,1 -2,3 -1,6 0,5 2,8 5,11 3,4 7,5 11,6 1,0 3,0 19,0 20,0 20,0 22,0 7,-2 12,-10 11,-18 0,-2 -1,-4 -2,-6 0,-1 -12,-16 -26,-34 -15,-18 -26,-33 -26,-33 -1,-1 0,-2 0,-2l1 -1 18 0 18 0 0 0c2,1 3,2 3,3 0,1 0,1 0,2 1,2 1,3 2,5 1,1 2,1 4,2 0,0 1,0 1,0 2,0 4,-1 5,-2 2,-2 3,-4 2,-7 0,-4 -2,-8 -5,-11 -3,-3 -7,-5 -11,-6 -1,0 -4,0 -20,0 -14,0 -18,0 -19,0l0 0z"/>
  <path id="1" fill="#FEFEFE" fill-rule="nonzero" d="M1449 472c-2,1 -3,1 -4,2 -1,1 -1,2 -2,3 0,1 0,-2 0,44l0 42 4 7c2,3 4,7 4,7 0,1 2,2 2,2 1,1 2,1 3,1 0,0 2,0 8,0 8,0 8,0 8,0 2,-1 4,-2 5,-4 0,0 0,-1 0,-1 0,0 1,1 1,1 1,2 2,3 4,4 1,0 1,0 9,0 5,0 7,0 8,0 1,0 2,0 2,-1 1,0 2,-1 3,-2 0,0 2,-4 4,-7l4 -7 0 -42c0,-41 0,-43 0,-44 -1,-2 -2,-3 -4,-4 -2,-1 -4,-1 -6,0 -1,0 -1,0 -2,1 -1,1 -1,2 -2,3 0,1 0,-2 0,42l0 40 -2 4 -2 3 -3 0 -3 0 -2 -3 -2 -3 0 -24c0,-26 0,-23 -1,-25 0,-1 -1,-2 -3,-3 -1,0 -1,0 -3,0 -1,0 -1,0 -2,0 -2,0 -3,2 -4,3 -1,2 -1,-1 -1,25l0 24 -2 3 -2 3 -2 0 -3 0 -2 -3 -2 -3 0 -41c0,-39 0,-41 0,-42 -1,-1 -2,-2 -3,-3 0,-1 -2,-1 -2,-2 -1,0 -3,0 -3,0l0 0z"/>
  <path id="2" fill="#FEFEFE" fill-rule="nonzero" d="M1553 472c-2,1 -4,2 -5,4 -1,2 -1,4 0,6 1,2 2,3 4,4l1 0 11 0 11 0 0 40 0 40 -11 0 -11 0 -1 0c-3,1 -5,4 -5,7 0,3 2,6 5,7l1 0 29 0c27,0 28,0 29,0 0,0 1,0 1,-1 2,0 3,-1 3,-3 1,-1 1,1 1,-20 0,-14 0,-19 0,-19 0,-1 -1,-2 -1,-3 0,0 -1,-1 -2,-2 -2,-1 -3,-1 -5,-1 -1,0 -2,0 -3,1 0,0 -2,2 -2,2 0,1 0,1 0,1 -1,2 -1,1 -1,17l0 14 -7 0 -6 0 0 -47 0 -47 -18 0c-10,0 -18,0 -18,0l0 0z"/>
  <path id="3" fill="#FEFEFE" fill-rule="nonzero" d="M1769 472c-4,1 -8,4 -11,7 -3,5 -3,12 0,18 0,0 12,15 27,33 14,19 25,34 26,34 0,1 -1,2 -1,2l-1 0 -18 0 -18 0 0 0c-2,-1 -3,-2 -3,-3 0,0 0,-1 0,-2 0,-2 -1,-3 -3,-5 -1,-1 -2,-2 -4,-2 -1,0 -2,1 -2,1 -1,0 -2,1 -3,2 -2,1 -3,3 -2,6 0,5 2,8 5,11 3,4 7,5 11,6 1,0 4,0 20,0 20,0 19,0 21,0 7,-2 12,-10 11,-18 0,-2 -1,-4 -2,-6 0,-1 -12,-16 -26,-34 -14,-18 -26,-33 -26,-33 -1,-1 0,-2 0,-2l1 -1 18 0 18 0 0 0c2,1 3,2 3,3 0,1 1,1 1,2 0,2 0,3 2,5 0,1 1,1 3,2 0,0 1,0 2,0 1,0 3,-1 4,-2 2,-2 3,-4 3,-7 -1,-4 -3,-8 -6,-11 -3,-3 -7,-5 -11,-6 -1,0 -3,0 -19,0 -15,0 -19,0 -20,0l0 0z"/>
  <path id="4" fill="#FEFEFE" fill-rule="nonzero" d="M1866 472c-2,1 -3,1 -4,2 -1,1 -1,2 -2,3 0,1 0,-2 0,44l0 42 4 7c2,3 4,7 4,7 0,1 2,2 2,2 1,1 2,1 3,1 0,0 3,0 8,0 8,0 8,0 8,0 2,-1 4,-2 5,-4 0,0 0,-1 0,-1 0,0 1,1 1,1 1,2 3,3 4,4 1,0 1,0 9,0 5,0 8,0 8,0 1,0 2,0 3,-1 0,0 1,-1 2,-2 0,0 2,-4 4,-7l4 -7 0 -42c0,-41 0,-43 0,-44 -1,-2 -2,-3 -4,-4 -2,-1 -4,-1 -5,0 -1,0 -2,0 -3,1 -1,1 -1,2 -2,3 0,1 0,-2 0,42l0 40 -2 4 -2 3 -3 0 -3 0 -2 -3 -2 -3 0 -24c0,-26 0,-23 0,-25 -1,-1 -2,-2 -4,-3 -1,0 -1,0 -3,0 -1,0 -1,0 -1,0 -2,0 -4,2 -5,3 -1,2 -1,-1 -1,25l0 24 -1 3 -2 3 -3 0 -3 0 -2 -3 -2 -3 0 -41c0,-39 0,-41 0,-42 -1,-1 -2,-2 -3,-3 0,-1 -1,-1 -2,-2 -1,0 -3,0 -3,0l0 0z"/>
  <path id="5" fill="#FEFEFE" fill-rule="nonzero" d="M1970 472c-2,1 -4,2 -5,4 -1,2 -1,4 0,6 1,2 2,3 4,4l1 0 25 0 24 0 0 17 0 16 -20 0c-14,0 -21,0 -22,0 -3,1 -6,2 -8,4 -2,2 -4,5 -4,8l-1 0 0 25 0 24 32 0c26,0 31,0 31,0 4,-1 6,-3 6,-7 0,-3 -2,-6 -6,-7 0,0 -4,0 -24,0l-25 0 0 -16c0,-9 0,-17 0,-17 0,0 10,0 22,0l21 0 1 0c3,-1 5,-2 7,-4 2,-2 4,-5 4,-8 0,-1 0,-35 0,-37 -1,-5 -5,-10 -10,-11 -2,-1 -1,-1 -28,-1 -13,0 -25,0 -25,0l0 0z"/>
  <path fill="#FEFEFE" fill-rule="nonzero" d="M756 790c-5,0 -9,2 -12,6 -1,1 -4,5 -11,14 -6,7 -10,13 -11,13 -2,4 -4,8 -4,13 -1,2 -1,41 0,43 0,6 4,12 9,15 2,1 5,2 7,3 2,0 2,0 18,0 14,0 15,0 16,0 7,-1 13,-5 16,-11 1,-3 2,-5 2,-7 0,-1 0,-2 0,-16l0 -15 -14 0c-15,0 -14,0 -16,1 -1,0 -1,0 -2,1 -1,1 -1,2 -2,3 0,1 0,3 0,4 1,1 1,2 2,3 1,1 1,1 2,2 2,0 2,0 9,0l7 0 0 8c0,8 0,8 0,9 -1,2 -2,3 -4,4 -1,0 0,0 -16,0 -17,0 -15,0 -17,0 -1,-1 -3,-3 -3,-5 -1,-1 -1,-1 -1,-21l0 -20 1 -1c0,-2 1,-4 2,-5 0,0 5,-6 10,-13 10,-14 10,-13 12,-14 1,-1 0,-1 13,-1 13,0 12,0 13,0 3,-1 4,-4 4,-7 0,-3 -2,-6 -5,-6 -1,-1 -3,-1 -12,-1 -11,0 -12,0 -13,1l0 0z"/>
  <path id="1" fill="#FEFEFE" fill-rule="nonzero" d="M671 971c-2,1 -4,2 -5,5 -1,1 -1,3 0,5 1,2 2,4 4,4l1 0 11 0 11 0 0 40 0 40 -11 0 -11 0 -1 1c-3,1 -5,3 -5,6 0,4 2,6 5,7l1 0 29 0c27,0 28,0 29,0 0,0 1,0 1,0 2,-1 3,-2 3,-4 1,-1 1,1 1,-20 0,-14 0,-18 0,-19 0,-1 0,-2 -1,-2 0,-1 -1,-2 -2,-3 -1,-1 -3,-1 -5,-1 0,0 -2,1 -2,1 -1,0 -2,2 -3,3 0,0 0,0 0,1 -1,1 -1,0 -1,16l0 14 -7 0 -6 0 0 -47 0 -47 -18 0c-10,0 -18,0 -18,0l0 0z"/>
  <path id="2" fill="#FEFEFE" fill-rule="nonzero" d="M775 971c-2,1 -4,2 -5,5 -1,1 -1,3 0,5 1,2 3,4 5,4l0 0 11 0 11 0 0 40 0 40 -11 0 -11 0 0 1c-3,1 -5,3 -5,6 0,4 2,6 5,7l0 0 29 0c27,0 29,0 29,0 1,0 1,0 2,0 1,-1 2,-2 3,-4 0,-1 0,1 0,-20 0,-14 0,-18 0,-19 0,-1 0,-2 0,-2 -1,-1 -2,-2 -3,-3 -1,-1 -3,-1 -4,-1 -1,0 -2,1 -3,1 -1,0 -2,2 -3,3 0,0 0,0 0,1 -1,1 0,0 0,16l0 14 -7 0 -7 0 0 -47 0 -47 -18 0c-9,0 -17,0 -18,0l0 0z"/>
  <path id="3" fill="#FEFEFE" fill-rule="nonzero" d="M723 1154c-1,0 -2,0 -3,2 -2,1 -2,2 -2,3 -1,1 -1,37 0,38 0,1 0,2 2,4 0,0 1,1 2,1 1,1 0,1 26,1l24 0 0 22 0 22 0 0c-3,1 -5,2 -6,4 -1,2 -1,4 0,5 0,2 1,3 2,3 0,1 1,2 2,2 1,0 2,0 6,0 5,0 5,0 6,0 2,-1 3,-2 4,-4 0,0 0,-1 0,-1 0,0 0,-2 0,-49 0,-46 0,-48 0,-48 0,-2 -1,-3 -2,-4 -1,0 -2,-1 -3,-1 0,0 -2,-1 -29,-1 -23,0 -28,0 -29,1l0 0zm49 24l0 11 -20 0 -21 0 0 -11 0 -11 21 0 20 0 0 11z"/>
  <path id="4" fill="#FEFEFE" fill-rule="nonzero" d="M671 1336c-2,0 -4,1 -5,4 -1,1 -1,4 0,5 1,2 2,4 4,4l1 0 11 0 11 0 0 40 0 40 -11 0 -11 0 -1 1c-3,1 -5,3 -5,6 0,4 2,6 5,7l1 0 29 0c27,0 28,0 29,0 0,0 1,0 1,0 2,-1 3,-2 3,-4 1,-1 1,1 1,-20 0,-14 0,-18 0,-19 0,-1 0,-2 -1,-2 0,-1 -1,-2 -2,-3 -1,-1 -3,-1 -5,-1 0,0 -2,1 -2,1 -1,1 -2,2 -3,3 0,0 0,0 0,1 -1,1 -1,0 -1,16l0 14 -7 0 -6 0 0 -47 0 -47 -18 0c-10,0 -18,1 -18,1l0 0z"/>
  <path id="5" fill="#FEFEFE" fill-rule="nonzero" d="M782 1336c-6,0 -11,4 -12,10 0,2 0,-1 0,43 0,44 0,42 0,44 1,2 1,4 3,5 2,3 4,4 8,5l1 0 21 0c16,0 22,0 23,0 4,0 7,-2 9,-5 2,-1 3,-3 3,-6l0 -1 0 -41c0,-30 0,-41 0,-42 0,-6 -4,-11 -10,-12 -2,-1 -1,-1 -24,-1 -12,0 -22,1 -22,1zm43 53l0 40 -21 0 -20 0 0 -40 0 -40 20 0 21 0 0 40z"/>
  <path fill="#FEFEFE" fill-rule="nonzero" d="M117 790c-2,0 -3,0 -4,1 -1,1 -1,2 -2,3 0,1 0,2 0,5 0,4 0,5 0,6 1,1 1,1 2,2 1,1 3,2 4,2 2,0 3,0 5,-1 0,0 2,-1 2,-2 0,-1 1,-2 1,-2l0 -1 20 0 21 0 0 13 0 12 -13 11c-6,6 -12,11 -13,11 0,1 -1,2 -1,3 -1,1 -1,0 -1,20 0,19 0,18 1,20 0,1 1,1 2,2 0,1 1,1 2,2 2,1 4,0 5,0 2,-1 3,-2 4,-4 0,-1 0,1 0,-18l0 -17 13 -10c7,-6 13,-11 13,-12 1,0 1,-1 1,-2 1,-1 1,0 1,-23l0 -22 -31 0c-26,0 -32,0 -32,1l0 0z"/>
  <path id="1" fill="#FEFEFE" fill-rule="nonzero" d="M130 972c-1,0 -2,0 -3,2 -1,0 -1,1 -2,2 0,1 0,0 0,22l0 20 -1 0c-6,1 -11,5 -13,11 0,2 0,1 0,20 0,19 0,18 0,20 1,2 2,4 3,5 2,3 5,4 8,5l1 0 22 0c16,0 22,0 22,0 4,0 7,-2 10,-5 1,-2 2,-4 3,-6l0 -1 0 -18c0,-18 0,-18 0,-20 -2,-5 -6,-9 -11,-10 0,0 -2,-1 -3,-1l0 0 0 -20c0,-23 0,-21 -1,-23 0,-1 -1,-2 -3,-3 -1,-1 0,-1 -16,-1 -12,0 -15,0 -16,1l0 0zm22 30l0 16 -7 0 -6 0 0 -16 0 -17 6 0 7 0 0 17zm14 47l0 16 -21 0 -20 0 0 -16 0 -17 20 0 21 0 0 17z"/>
  <path id="2" fill="#FEFEFE" fill-rule="nonzero" d="M65 1154c-3,0 -5,1 -6,4 0,1 0,4 0,5 1,2 3,4 5,4l1 0 24 0 25 0 0 17 0 16 -21 0c-13,0 -20,0 -21,0 -3,1 -6,2 -9,4 -2,2 -3,5 -4,8l0 1 0 24 0 24 31 0c27,0 31,0 32,0 3,0 6,-3 6,-7 0,-3 -3,-6 -6,-7 -1,0 -4,0 -25,0l-24 0 0 -16c0,-9 0,-17 0,-17 0,0 10,0 21,0l22 0 1 0c2,-1 5,-2 6,-4 3,-2 4,-5 5,-8 0,-1 0,-35 0,-36 -1,-6 -5,-11 -11,-12 -2,-1 0,-1 -27,-1 -14,0 -25,0 -25,1l0 0z"/>
  <path id="3" fill="#FEFEFE" fill-rule="nonzero" d="M177 1184l0 30 20 0 21 0 0 17 0 16 -16 0c-16,0 -17,0 -17,0 0,0 -3,-1 -6,-2 -4,-2 -6,-3 -7,-3 -3,-1 -7,0 -8,3 -1,2 -1,5 0,6 0,2 1,3 2,3 1,1 13,6 14,6 1,1 3,1 4,1 1,0 2,0 18,0 18,0 18,0 20,0 2,-1 5,-2 7,-5 1,-1 2,-4 3,-6l0 -1 0 -18c0,-12 0,-18 0,-18 -1,-6 -5,-11 -10,-12 -2,-1 -2,-1 -17,-1l-14 0 0 -16 0 -17 17 0c15,0 18,0 18,0 4,0 6,-3 6,-7 0,-3 -2,-6 -6,-6 0,-1 -4,-1 -25,-1l-24 0 0 31z"/>
  <path id="4" fill="#FEFEFE" fill-rule="nonzero" d="M150 1336c-5,0 -10,2 -13,6 -1,1 -4,5 -11,14 -5,7 -10,13 -10,13 -3,4 -4,9 -5,13 0,2 0,41 0,43 1,6 5,12 10,15 2,1 4,2 7,3 2,0 2,0 17,0 15,0 15,0 16,0 8,-1 14,-5 17,-11 1,-3 1,-5 2,-7 0,-1 0,-2 0,-16l0 -15 -14 0c-15,0 -15,0 -16,1 -1,0 -2,0 -3,1 -1,1 -1,2 -1,3 -1,1 -1,3 0,4 0,2 0,2 1,3 1,1 2,1 3,2 1,0 1,0 9,0l7 0 0 8c0,9 0,8 -1,9 0,2 -2,3 -3,4 -2,0 0,0 -17,0 -16,0 -15,0 -16,0 -2,-1 -3,-3 -4,-5 0,0 0,-1 0,-21l0 -20 0 -1c1,-2 1,-4 2,-5 1,0 5,-6 10,-13 11,-14 11,-13 12,-14 2,-1 1,-1 13,-1 13,0 12,0 14,0 2,-1 4,-4 4,-7 0,-3 -3,-6 -6,-6 0,-1 -2,-1 -12,-1 -10,0 -11,1 -12,1l0 0z"/>
  <path fill="black" d="M3704 1127l102 0c5,0 10,13 10,28l0 147c0,16 -5,28 -10,28l-102 0c-5,0 -9,-12 -9,-28l0 -147c0,-15 4,-28 9,-28z"/>
  <path fill="black" d="M2000 3493l102 0c5,0 10,12 10,28l0 147c0,16 -5,28 -10,28l-102 0c-5,0 -10,-12 -10,-28l0 -147c0,-16 5,-28 10,-28z"/>
  <path fill="black" d="M2317 3493l102 0c5,0 10,12 10,28l0 147c0,16 -5,28 -10,28l-102 0c-5,0 -10,-12 -10,-28l0 -147c0,-16 5,-28 10,-28z"/>
  <line fill="none" stroke="#47CC79" stroke-width="13.7827" x1="1765" y1="4069" x2="1765" y2= "4389" />
  <line fill="none" stroke="#47CC79" stroke-width="13.7827" x1="2465" y1="4068" x2="2465" y2= "4388" />
  <line fill="none" stroke="#47CC79" stroke-width="13.7827" x1="3170" y1="4068" x2="3170" y2= "4388" />
  <line fill="none" stroke="#47CC79" stroke-width="13.7827" x1="3863" y1="4068" x2="3863" y2= "4388" />
  <path fill="#FEFEFE" fill-rule="nonzero" d="M65 1506c-3,1 -5,2 -6,4 0,2 0,4 0,6 1,2 3,3 5,4l1 0 24 0 25 0 0 17 0 16 -21 0c-13,0 -20,0 -21,0 -3,0 -6,2 -9,4 -2,2 -3,4 -4,7l0 1 0 25 0 24 31 0c27,0 31,0 32,0 3,-1 6,-4 6,-7 0,-3 -3,-6 -6,-7 -1,0 -4,0 -25,0l-24 0 0 -16c0,-10 0,-17 0,-17 0,0 10,0 21,0l22 0 1 0c2,-1 5,-2 6,-4 3,-2 4,-5 5,-8 0,-2 0,-35 0,-37 -1,-6 -5,-10 -11,-11 -2,-1 0,-1 -27,-1 -14,0 -25,0 -25,0l0 0z"/>
  <path id="1" fill="#FEFEFE" fill-rule="nonzero" d="M172 1506c-1,1 -2,1 -3,2 -1,1 -2,2 -2,3 0,1 0,-1 0,35l0 33 20 0 21 0 0 14c0,16 0,15 0,16 1,1 1,2 2,3 1,1 1,1 2,2 2,0 4,0 6,-1 1,0 2,-2 3,-3 1,-1 1,0 1,-17l0 -14 0 0c3,-1 5,-2 6,-4 1,-2 1,-4 0,-6 -1,-2 -3,-4 -6,-4l0 0 0 -21 0 -20 -1 -1c0,-2 -2,-4 -3,-4 -1,-1 -2,-1 -3,-1 -1,0 -1,0 -2,0 -2,1 -4,2 -5,5l0 1 0 20 0 21 -14 0 -13 0 0 -27c0,-25 -1,-26 -1,-27 0,-1 -1,-2 -2,-3 -1,-1 -2,-1 -3,-2 0,0 -2,0 -3,0l0 0z"/>
  <path id="2" fill="#FEFEFE" fill-rule="nonzero" d="M65 1688c-3,1 -5,2 -6,4 0,2 0,4 0,6 1,2 3,3 5,4l1 0 24 0 25 0 0 17 0 16 -21 0c-13,0 -20,0 -21,0 -3,0 -6,2 -9,4 -2,2 -3,4 -4,7l0 1 0 25 0 24 31 0c27,0 31,0 32,0 3,-1 6,-4 6,-7 0,-3 -3,-6 -6,-7 -1,0 -4,0 -25,0l-24 0 0 -16c0,-9 0,-17 0,-17 0,0 10,0 21,0l22 0 1 0c2,-1 5,-2 6,-4 3,-2 4,-5 5,-8 0,-1 0,-35 0,-37 -1,-5 -5,-10 -11,-11 -2,-1 0,-1 -27,-1 -14,0 -25,0 -25,0l0 0z"/>
  <path id="3" fill="#FEFEFE" fill-rule="nonzero" d="M169 1688c-2,1 -4,2 -5,4 -1,2 -1,4 0,6 1,2 2,3 4,4l1 0 24 0 25 0 0 14c0,13 0,13 0,14 -1,2 -3,4 -5,5l-1 0 -15 0c-16,0 -15,0 -16,1 -2,1 -3,2 -4,4 0,1 0,1 0,2 0,1 0,1 0,2 1,2 2,3 4,4 1,1 0,1 16,1 17,0 16,0 17,1 2,0 3,2 3,3 1,1 1,0 1,15l0 14 -25 0 -24 0 -1 0c-3,1 -5,4 -5,7 0,3 2,6 5,7l1 0 25 0c18,0 25,0 26,0 3,-1 7,-2 9,-5 1,-2 2,-4 3,-6l0 -1 0 -15 0 -15 0 -1c0,-2 -1,-3 -1,-4 -1,-2 -2,-5 -4,-6 0,-1 0,-1 0,-1l0 -1c3,-3 4,-7 5,-11 0,-1 0,-28 0,-30 -1,-5 -5,-10 -11,-11 -1,-1 0,-1 -27,-1 -13,0 -25,0 -25,0l0 0z"/>
  <path id="4" fill="#FEFEFE" fill-rule="nonzero" d="M150 1870c-5,1 -10,3 -13,7 -1,0 -4,4 -11,13 -5,7 -10,13 -10,14 -3,4 -4,8 -5,13 0,2 0,41 0,42 1,7 5,13 10,16 2,1 4,2 7,3 2,0 2,0 17,0 15,0 15,0 16,0 8,-1 14,-5 17,-12 1,-2 1,-4 2,-6 0,-2 0,-2 0,-16l0 -15 -14 0c-15,0 -15,0 -16,0 -1,1 -2,1 -3,2 -1,1 -1,1 -1,3 -1,1 -1,3 0,4 0,1 0,2 1,3 1,1 2,1 3,1 1,1 1,1 9,1l7 0 0 8c0,8 0,8 -1,9 0,2 -2,3 -3,3 -2,1 0,1 -17,1 -16,0 -15,0 -16,-1 -2,-1 -3,-2 -4,-4 0,-1 0,-2 0,-21l0 -20 0 -1c1,-2 1,-4 2,-5 1,-1 5,-7 10,-13 11,-14 11,-13 12,-14 2,-1 1,-1 13,-1 13,0 12,0 14,0 2,-1 4,-4 4,-7 0,-3 -3,-6 -6,-7 0,0 -2,0 -12,0 -10,0 -11,0 -12,0l0 0z"/>
  <path id="5" fill="#FEFEFE" fill-rule="nonzero" d="M65 2052c-3,1 -5,2 -6,4 0,2 0,4 0,6 1,2 3,3 5,4l1 0 10 0 11 0 0 40 0 40 -11 0 -10 0 -1 0c-3,1 -5,4 -5,7 0,3 2,6 5,7l1 0 28 0c28,0 29,0 29,0 1,0 1,0 2,-1 1,0 2,-1 3,-3 1,-1 1,1 1,-20 0,-14 0,-19 0,-19 0,-1 -1,-2 -1,-3 -1,0 -2,-1 -2,-2 -2,-1 -4,-1 -5,-1 -1,0 -2,0 -3,1 0,0 -2,2 -2,2 0,1 -1,1 -1,1 0,2 0,1 0,17l0 14 -7 0 -7 0 0 -47 0 -47 -17 0c-10,0 -18,0 -18,0l0 0z"/>
  <path id="6" fill="#FEFEFE" fill-rule="nonzero" d="M183 2052c-2,1 -3,1 -4,2 -1,1 -1,2 -2,3 0,1 0,0 0,22l0 20 -1 0c-6,1 -11,5 -12,11 -1,1 -1,1 -1,20 0,18 0,18 1,20 0,2 1,3 2,5 2,2 5,4 8,5l1 0 22 0c16,0 22,0 23,0 3,0 7,-2 9,-5 1,-2 2,-4 3,-6l0 -1 0 -18c0,-18 0,-18 0,-20 -2,-5 -5,-9 -10,-10 -1,-1 -3,-1 -3,-1l-1 0 0 -20c0,-24 0,-21 -1,-23 0,-1 -1,-2 -3,-3 -1,-1 0,-1 -16,-1 -12,0 -15,0 -15,0l0 0zm21 31l0 16 -6 0 -7 0 0 -16 0 -17 7 0 6 0 0 17zm14 47l0 16 -20 0 -21 0 0 -16 0 -17 21 0 20 0 0 17z"/>
  <path fill="#FEFEFE" fill-rule="nonzero" d="M65 2202c-3,1 -5,2 -6,4 0,2 0,4 0,6 1,2 3,3 5,4l1 0 10 0 11 0 0 40 0 40 -11 0 -10 0 -1 0c-3,1 -5,4 -5,7 0,3 2,6 5,7l1 0 28 0c28,0 29,0 29,0 1,0 1,-1 2,-1 1,0 2,-1 3,-3 1,-1 1,1 1,-20 0,-14 0,-19 0,-19 0,-1 -1,-2 -1,-3 -1,0 -2,-2 -2,-2 -2,-1 -4,-1 -5,-1 -1,0 -2,0 -3,1 0,0 -2,2 -2,2 0,1 -1,1 -1,1 0,2 0,1 0,17l0 14 -7 0 -7 0 0 -47 0 -47 -17 0c-10,0 -18,0 -18,0l0 0z"/>
  <path id="1" fill="#FEFEFE" fill-rule="nonzero" d="M177 2233l0 30 20 0 21 0 0 17 0 16 -16 0c-16,0 -17,0 -17,0 0,0 -3,-1 -6,-3 -4,-1 -6,-2 -7,-2 -3,-2 -7,0 -8,3 -1,2 -1,4 0,6 0,1 1,2 2,3 1,0 13,6 14,6 1,0 3,1 4,1 1,0 2,0 18,0 18,0 18,0 20,0 2,-1 5,-3 7,-5 1,-2 2,-4 3,-6l0 -1 0 -18c0,-13 0,-18 0,-18 -1,-6 -5,-11 -10,-13 -2,0 -2,0 -17,0l-14 0 0 -16 0 -17 17 0c15,0 18,0 18,0 4,-1 6,-4 6,-7 0,-3 -2,-6 -6,-7 0,0 -4,0 -25,0l-24 0 0 31z"/>
  <path id="2" fill="#FEFEFE" fill-rule="nonzero" d="M65 2384c-3,1 -5,2 -6,4 0,2 0,4 0,6 1,2 3,3 5,4l1 0 10 0 11 0 0 40 0 40 -11 0 -10 0 -1 0c-3,1 -5,4 -5,7 0,3 2,6 5,7l1 0 28 0c28,0 29,0 29,0 1,0 1,0 2,-1 1,0 2,-1 3,-3 1,-1 1,1 1,-20 0,-14 0,-19 0,-19 0,-1 -1,-2 -1,-3 -1,0 -2,-2 -2,-2 -2,-1 -4,-1 -5,-1 -1,0 -2,0 -3,1 0,0 -2,2 -2,2 0,1 -1,1 -1,1 0,2 0,1 0,17l0 14 -7 0 -7 0 0 -47 0 -47 -17 0c-10,0 -18,0 -18,0l0 0z"/>
  <path id="3" fill="#FEFEFE" fill-rule="nonzero" d="M172 2384c-1,1 -2,1 -3,2 -1,1 -2,2 -2,3 0,1 0,-1 0,35l0 33 20 0 21 0 0 14c0,16 0,15 0,16 1,1 1,2 2,3 1,1 1,1 2,2 2,0 4,0 6,-1 1,0 2,-1 3,-3 1,-1 1,0 1,-16l0 -15 0 0c3,0 5,-2 6,-4 1,-2 1,-4 0,-6 -1,-2 -3,-4 -6,-4l0 0 0 -21 0 -20 -1 -1c0,-2 -2,-4 -3,-4 -1,-1 -2,-1 -3,-1 -1,0 -1,0 -2,0 -2,1 -4,3 -5,5l0 1 0 20 0 21 -14 0 -13 0 0 -27c0,-25 -1,-26 -1,-27 0,-1 -1,-2 -2,-3 -1,-1 -2,-1 -3,-2 0,0 -2,0 -3,0l0 0z"/>
  <path id="4" fill="#FEFEFE" fill-rule="nonzero" d="M150 2566c-5,1 -10,3 -13,7 -1,0 -4,4 -11,13 -5,7 -10,13 -10,14 -3,4 -4,8 -5,13 0,2 0,41 0,42 1,7 5,13 10,16 2,1 4,2 7,3 2,0 2,0 17,0 15,0 15,0 16,0 8,-1 14,-5 17,-12 1,-2 1,-4 2,-6 0,-2 0,-2 0,-16l0 -15 -14 0c-15,0 -15,0 -16,0 -1,1 -2,1 -3,2 -1,1 -1,1 -1,3 -1,1 -1,3 0,4 0,1 0,2 1,3 1,1 2,1 3,1 1,1 1,1 9,1l7 0 0 8c0,8 0,8 -1,9 0,2 -2,3 -3,3 -2,1 0,1 -17,1 -16,0 -15,0 -16,-1 -2,0 -3,-2 -4,-4 0,-1 0,-2 0,-21l0 -20 0 -1c1,-2 1,-4 2,-5 1,-1 5,-7 10,-13 11,-14 11,-13 12,-14 2,-1 1,-1 13,-1 13,0 12,0 14,0 2,-1 4,-4 4,-7 0,-3 -3,-6 -6,-7 0,0 -2,0 -12,0 -10,0 -11,0 -12,0l0 0z"/>
  <path id="5" fill="#FEFEFE" fill-rule="nonzero" d="M73 2779l0 30 20 0 21 0 0 17 0 16 -17 0c-15,0 -16,0 -16,0 -1,0 -3,-1 -7,-3 -3,-1 -6,-2 -6,-2 -3,-1 -7,0 -8,3 -1,2 -1,4 -1,6 1,1 2,3 3,3 1,1 13,6 14,6 1,0 2,1 4,1 1,0 2,0 18,0 18,0 17,0 19,0 3,-1 6,-3 8,-5 1,-2 2,-4 2,-6l1 -1 0 -18c0,-13 0,-18 0,-18 -1,-6 -5,-11 -11,-12 -2,-1 -1,-1 -16,-1l-14 0 0 -16 0 -17 17 0c15,0 17,0 18,0 3,-1 6,-3 6,-7 0,-3 -3,-6 -6,-7 -1,0 -4,0 -25,0l-24 0 0 31z"/>
  <path id="6" fill="#FEFEFE" fill-rule="nonzero" d="M169 2748c-2,1 -3,1 -4,2 -1,1 -1,2 -1,3 -1,1 -1,1 -1,14l0 13 1 1 14 36c7,19 13,35 13,35 2,4 8,5 11,2 1,0 2,-1 2,-2 0,0 6,-16 14,-36l14 -36 0 -13c0,-15 0,-13 -1,-15 0,-1 -1,-2 -3,-3 -2,-1 -3,-1 -5,0 -1,0 -2,0 -3,1 -1,1 -1,2 -1,3 -1,1 -1,1 -1,13l0 11 -10 26c-6,15 -10,27 -10,27 0,0 -5,-12 -11,-26l-10 -26 0 -12c0,-14 0,-12 -1,-14 0,-1 -1,-2 -3,-3 0,0 -1,0 -1,-1 -1,0 -2,0 -3,0l0 0z"/>
  <path id="7" fill="#FEFEFE" fill-rule="nonzero" d="M73 2961l0 30 20 0 21 0 0 17 0 16 -17 0c-15,0 -16,0 -16,0 -1,0 -3,-1 -7,-3 -3,-1 -6,-2 -6,-2 -3,-1 -7,0 -8,3 -1,2 -1,4 -1,6 1,1 2,3 3,3 1,1 13,6 14,6 1,1 2,1 4,1 1,0 2,0 18,0 18,0 17,0 19,0 3,-1 6,-3 8,-5 1,-2 2,-4 2,-6l1 -1 0 -18c0,-13 0,-18 0,-18 -1,-6 -5,-11 -11,-12 -2,-1 -1,-1 -16,-1l-14 0 0 -16 0 -17 17 0c15,0 17,0 18,0 3,-1 6,-3 6,-7 0,-3 -3,-6 -6,-7 -1,0 -4,0 -25,0l-24 0 0 31z"/>
  <path id="8" fill="#FEFEFE" fill-rule="nonzero" d="M169 2930c-2,1 -3,1 -4,2 -1,1 -1,2 -1,3 -1,1 -1,1 -1,14l0 13 1 1 14 36c7,19 13,35 13,35 2,4 8,5 11,2 1,0 2,-1 2,-2 0,0 6,-16 14,-36l14 -36 0 -13c0,-15 0,-13 -1,-15 0,-1 -1,-2 -3,-3 -2,-1 -3,-1 -5,0 -1,0 -2,0 -3,1 -1,1 -1,2 -1,3 -1,1 -1,1 -1,13l0 11 -10 27c-6,14 -10,26 -10,26 0,0 -5,-12 -11,-26l-10 -26 0 -12c0,-13 0,-12 -1,-14 0,-1 -1,-2 -3,-3 0,0 -1,0 -1,-1 -1,0 -2,0 -3,0l0 0z"/>
  <path fill="#FEFEFE" fill-rule="nonzero" d="M671 1506c-2,1 -4,2 -5,4 -1,2 -1,4 0,6 1,2 2,3 4,4l1 0 25 0 24 0 0 14c0,12 0,13 0,14 -1,2 -2,4 -5,5l-1 0 -14 0c-17,0 -16,0 -17,1 -2,1 -3,2 -4,4 0,1 0,1 0,2 0,1 0,1 0,2 1,2 2,3 4,4 1,1 0,1 17,1 16,0 15,0 16,1 2,0 3,2 4,3 0,1 0,0 0,15l0 14 -24 0 -25 0 -1 0c-3,1 -5,4 -5,7 0,3 2,6 5,7l1 0 25 0c18,0 25,0 26,0 3,-1 7,-2 9,-5 1,-2 2,-4 3,-6l0 -1 0 -15 0 -15 0 -1c0,-2 -1,-3 -1,-4 -1,-2 -2,-5 -4,-6 0,-1 0,-1 0,-1l1 -1c2,-3 4,-7 4,-11 0,-1 0,-28 0,-30 -1,-6 -5,-10 -10,-11 -2,-1 -1,-1 -28,-1 -13,0 -25,0 -25,0l0 0z"/>
  <path id="1" fill="#FEFEFE" fill-rule="nonzero" d="M775 1506c-1,1 -2,1 -3,2 -1,1 -2,2 -2,3 0,1 0,1 0,14l0 13 0 1 14 36c7,19 14,35 14,35 2,4 7,5 11,2 0,0 1,-1 1,-2 0,0 7,-16 14,-36l14 -36 0 -13c0,-15 0,-13 0,-15 -1,-1 -2,-2 -3,-3 -2,-1 -4,-1 -6,0 -1,0 -1,0 -2,1 -1,1 -2,2 -2,3 -1,1 0,1 0,13l0 11 -11 26c-5,15 -10,27 -10,27 0,0 -5,-12 -10,-26l-10 -27 0 -11c0,-14 0,-12 -1,-14 -1,-1 -2,-2 -3,-3 -1,0 -1,-1 -2,-1 0,0 -2,0 -3,0l0 0z"/>
  <path id="2" fill="#FEFEFE" fill-rule="nonzero" d="M671 1688c-2,1 -4,2 -5,4 -1,2 -1,4 0,6 1,2 2,3 4,4l1 0 25 0 24 0 0 17 0 16 -20 0c-14,0 -21,0 -22,0 -3,0 -6,2 -8,4 -2,2 -4,4 -4,7l-1 1 0 25 0 24 32 0c26,0 31,0 31,0 4,-1 6,-4 6,-7 0,-3 -2,-6 -6,-7 0,0 -4,0 -24,0l-25 0 0 -16c0,-9 0,-17 0,-17 0,0 10,0 22,0l21 0 1 0c3,-1 5,-2 7,-4 2,-2 4,-5 4,-8 0,-1 0,-35 0,-37 -1,-5 -5,-10 -10,-11 -2,-1 -1,-1 -28,-1 -13,0 -25,0 -25,0l0 0z"/>
  <path id="3" fill="#FEFEFE" fill-rule="nonzero" d="M775 1688c-2,1 -4,2 -5,4 -1,2 -1,4 0,6 1,2 3,3 5,4l0 0 25 0 25 0 0 17 0 16 -21 0c-13,0 -21,0 -21,0 -4,0 -7,2 -9,4 -2,2 -3,4 -4,7l0 1 0 25 0 24 31 0c26,0 31,0 32,0 3,-1 5,-4 5,-7 0,-3 -2,-6 -5,-7 -1,0 -5,0 -25,0l-24 0 0 -16c0,-9 0,-17 0,-17 0,0 9,0 21,0l22 0 1 0c2,-1 4,-2 6,-4 2,-2 4,-5 4,-8 1,-1 1,-35 0,-37 0,-5 -5,-10 -10,-11 -2,-1 -1,-1 -27,-1 -14,0 -25,0 -26,0l0 0z"/>
  <path id="4" fill="#FEFEFE" fill-rule="nonzero" d="M671 1870c-2,1 -4,2 -5,4 -1,2 -1,4 0,6 1,2 2,3 4,4l1 0 25 0 24 0 0 17 0 16 -20 0c-14,0 -21,0 -22,0 -3,0 -6,2 -8,4 -2,2 -4,4 -4,7l-1 1 0 25 0 24 32 0c26,0 31,0 31,0 4,-1 6,-4 6,-7 0,-3 -2,-6 -6,-7 0,0 -4,0 -24,0l-25 0 0 -16c0,-9 0,-17 0,-17 0,0 10,0 22,0l21 0 1 0c3,-1 5,-2 7,-4 2,-2 4,-5 4,-8 0,-1 0,-35 0,-37 -1,-5 -5,-10 -10,-11 -2,-1 -1,-1 -28,-1 -13,0 -25,0 -25,0l0 0z"/>
  <path id="5" fill="#FEFEFE" fill-rule="nonzero" d="M775 1870c-1,1 -2,1 -3,2 -1,1 -2,2 -2,3 0,1 0,1 0,5 0,4 0,4 0,5 0,1 1,2 2,3 1,1 2,2 4,2 1,0 3,0 4,-1 1,-1 2,-2 3,-3 0,0 0,-1 0,-2l0 0 21 0 21 0 0 13 0 12 -13 11c-7,6 -13,11 -13,11 -1,1 -1,2 -2,2 0,2 0,1 0,20 0,20 0,19 0,21 1,0 1,1 2,2 1,1 2,1 3,2 2,0 3,0 5,-1 1,0 3,-1 3,-3 1,-1 1,0 1,-18l0 -17 12 -11c7,-6 13,-11 14,-11 0,-1 1,-1 1,-2 0,-2 0,0 0,-23l0 -22 -31 0c-25,0 -31,0 -32,0l0 0z"/>
  <path id="6" fill="#FEFEFE" fill-rule="nonzero" d="M671 2052c-2,1 -4,2 -5,4 -1,2 -1,4 0,6 1,2 2,3 4,4l1 0 11 0 11 0 0 40 0 40 -11 0 -11 0 -1 0c-3,1 -5,4 -5,7 0,3 2,6 5,7l1 0 29 0c27,0 28,0 29,0 0,0 1,0 1,-1 2,0 3,-1 3,-3 1,-1 1,1 1,-20 0,-14 0,-19 0,-19 0,-1 0,-2 -1,-3 0,0 -1,-1 -2,-2 -1,-1 -3,-1 -5,-1 0,0 -2,0 -2,1 -1,0 -2,2 -3,2 0,1 0,1 0,1 -1,2 -1,1 -1,17l0 14 -7 0 -6 0 0 -47 0 -47 -18 0c-10,0 -18,0 -18,0l0 0z"/>
  <path id="7" fill="#FEFEFE" fill-rule="nonzero" d="M775 2052c-1,1 -2,1 -3,2 -1,1 -2,2 -2,3 0,1 0,1 0,5 0,4 0,4 0,5 0,1 1,2 2,3 1,1 2,2 4,2 1,0 3,0 4,-1 1,-1 2,-2 3,-2 0,-1 0,-2 0,-3l0 0 21 0 21 0 0 13 0 12 -13 11c-7,6 -13,11 -13,11 -1,1 -1,2 -2,2 0,2 0,1 0,20 0,20 0,19 0,21 1,0 1,1 2,2 1,1 2,1 3,2 2,0 3,0 5,-1 1,0 3,-1 3,-3 1,-1 1,0 1,-18l0 -17 12 -11c7,-5 13,-11 14,-11 0,-1 1,-1 1,-2 0,-2 0,0 0,-23l0 -22 -31 0c-25,0 -31,0 -32,0l0 0z"/>
  <path fill="#FEFEFE" fill-rule="nonzero" d="M756 2202c-5,1 -9,3 -12,7 -1,0 -4,4 -11,13 -6,7 -10,13 -11,14 -2,4 -4,8 -4,13 -1,2 -1,41 0,42 0,7 4,12 9,16 2,1 5,2 7,3 2,0 2,0 18,0 14,0 15,0 16,0 7,-1 13,-5 16,-12 1,-2 2,-4 2,-6 0,-2 0,-2 0,-16l0 -15 -14 0c-15,0 -14,0 -16,0 -1,1 -1,1 -2,2 -1,1 -1,1 -2,2 0,2 0,4 0,5 1,1 1,2 2,3 1,1 1,1 2,1 2,1 2,1 9,1l7 0 0 8c0,8 0,8 0,9 -1,1 -2,3 -4,3 -1,1 0,1 -16,1 -17,0 -15,0 -17,-1 -1,-1 -3,-2 -3,-4 -1,-1 -1,-2 -1,-21l0 -20 1 -1c0,-2 1,-4 2,-5 0,-1 5,-7 10,-13 10,-14 10,-13 12,-14 1,-1 0,-1 13,-1 13,0 12,0 13,0 3,-2 4,-4 4,-7 0,-3 -2,-6 -5,-7 -1,0 -3,0 -12,0 -11,0 -12,0 -13,0l0 0z"/>
  <path id="1" fill="#FEFEFE" fill-rule="nonzero" d="M727 2384c-2,1 -3,1 -4,2 -1,1 -1,2 -2,3 0,1 0,-1 0,35l0 33 20 0 21 0 0 14c0,16 0,15 0,16 1,1 1,2 2,3 1,1 2,1 3,2 2,0 3,0 5,-1 1,0 3,-1 3,-3 1,-1 1,0 1,-16l0 -15 1 0c2,0 4,-2 5,-4 1,-2 1,-4 0,-6 -1,-2 -3,-4 -5,-4l-1 0 0 -21 0 -20 0 -1c-1,-2 -2,-4 -4,-4 -1,-1 -2,-1 -3,-1 -1,0 -1,0 -2,0 -2,1 -4,3 -5,5l0 1 0 20 0 21 -14 0 -13 0 0 -27c0,-25 0,-26 0,-27 -1,-1 -2,-2 -3,-3 0,-1 -2,-1 -2,-2 -1,0 -3,0 -3,0l0 0z"/>
  <path id="2" fill="#FEFEFE" fill-rule="nonzero" d="M723 2566c-2,1 -4,2 -5,4 -1,2 -1,4 0,6 1,2 3,3 5,4l0 0 25 0 24 0 0 14c0,13 0,13 0,14 -1,2 -2,4 -5,5l0 0 -15 0c-17,0 -15,0 -17,1 -2,1 -3,2 -4,4 0,1 0,1 0,2 0,1 0,1 0,2 1,2 2,3 4,4 2,1 0,1 17,1 16,0 15,0 16,1 2,0 3,2 4,3 0,2 0,0 0,15l0 14 -24 0 -25 0 0 0c-4,1 -6,4 -6,7 0,3 2,6 6,7l0 0 25 0c18,0 25,0 26,0 4,0 7,-2 9,-5 2,-2 3,-4 3,-6l0 -1 0 -15 0 -15 0 -1c0,-2 -1,-3 -1,-4 -1,-2 -2,-5 -3,-6 -1,-1 -1,-1 -1,-1l1 -1c2,-3 4,-7 4,-11 0,-1 0,-28 0,-30 -1,-5 -5,-10 -10,-11 -2,-1 -1,-1 -28,-1 -13,0 -24,0 -25,0l0 0z"/>
  <path id="3" fill="#FEFEFE" fill-rule="nonzero" d="M723 2748c-2,1 -4,2 -5,4 -1,2 -1,4 0,6 1,2 3,3 5,4l0 0 25 0 24 0 0 17 0 16 -20 0c-13,0 -21,0 -22,0 -3,1 -6,2 -8,4 -2,2 -4,5 -4,8l-1 0 0 25 0 24 32 0c26,0 31,0 32,0 3,-1 5,-4 5,-7 0,-3 -2,-6 -5,-7 -1,0 -5,0 -25,0l-25 0 0 -16c0,-9 0,-17 0,-17 0,0 10,0 22,0l21 0 1 0c3,-1 5,-2 7,-4 2,-2 4,-5 4,-8 0,-1 0,-35 0,-37 -1,-5 -5,-10 -10,-11 -2,-1 -1,-1 -28,-1 -13,0 -24,0 -25,0l0 0z"/>
  <path id="4" fill="#FEFEFE" fill-rule="nonzero" d="M671 2930c-2,1 -4,2 -5,4 -1,2 -1,4 0,6 1,2 2,3 4,4l1 0 25 0 24 0 0 14c0,13 0,13 0,14 -1,2 -2,4 -5,5l-1 0 -14 0c-17,0 -16,0 -17,1 -2,1 -3,2 -4,4 0,1 0,1 0,2 0,1 0,1 0,2 1,2 2,4 4,4 1,1 0,1 17,1 16,0 15,0 16,1 2,1 3,2 4,3 0,2 0,0 0,16l0 13 -24 0 -25 0 -1 0c-3,1 -5,4 -5,7 0,3 2,6 5,7l1 0 25 0c18,0 25,0 26,0 3,0 7,-2 9,-5 1,-2 2,-4 3,-6l0 -1 0 -15 0 -15 0 -1c0,-1 -1,-3 -1,-4 -1,-2 -2,-4 -4,-6 0,-1 0,-1 0,-1l1 -1c2,-3 4,-7 4,-11 0,-1 0,-28 0,-30 -1,-5 -5,-10 -10,-11 -2,-1 -1,-1 -28,-1 -13,0 -25,0 -25,0l0 0z"/>
  <path id="5" fill="#FEFEFE" fill-rule="nonzero" d="M775 2930c-1,1 -2,1 -3,2 -1,1 -2,2 -2,3 0,1 0,1 0,14l0 13 0 1 14 36c7,19 14,35 14,35 2,4 7,5 11,2 0,0 1,-1 1,-2 0,0 7,-16 14,-36l14 -36 0 -13c0,-15 0,-13 0,-15 -1,-1 -2,-2 -3,-3 -2,-1 -4,-1 -6,0 -1,0 -1,0 -2,1 -1,1 -2,2 -2,3 -1,1 0,1 0,13l0 11 -11 27c-5,14 -10,26 -10,26 0,0 -5,-12 -10,-26l-10 -26 0 -12c0,-13 0,-12 -1,-14 -1,-1 -2,-2 -3,-3 -1,0 -1,0 -2,-1 0,0 -2,0 -3,0l0 0z"/>
  <path fill="#9A916C" d="M214 303l0 -102c0,-5 13,-10 28,-10l148 0c15,0 27,5 27,10l0 102c0,5 -12,10 -27,10l-148 0c-15,0 -28,-5 -28,-10z"/>
  <path fill="#9A916C" d="M4094 303l0 -102c0,-5 13,-10 28,-10l148 0c15,0 27,5 27,10l0 102c0,5 -12,10 -27,10l-148 0c-15,0 -28,-5 -28,-10z"/>
  <path fill="#FEFEFE" fill-rule="nonzero" d="M156 56c-2,0 -3,1 -4,2 -1,1 -1,1 -1,2 -1,2 -1,-2 -1,53l0 51 31 0c27,0 32,0 32,0 4,-1 6,-4 6,-7 0,-4 -2,-6 -6,-7 0,0 -4,0 -25,0l-24 0 0 -44c0,-42 0,-44 0,-45 0,-1 -1,-3 -2,-4 -1,0 -2,-1 -3,-1 -1,0 -2,0 -3,0l0 0z"/>
  <path id="1" fill="#FEFEFE" fill-rule="nonzero" d="M255 110l0 54 31 0c26,0 31,0 32,0 3,-1 5,-4 5,-7 0,-4 -2,-6 -5,-7 -1,0 -5,0 -25,0l-25 0 0 -17 0 -16 11 0c12,0 11,0 13,-1 1,-1 2,-2 3,-3 1,-1 1,-2 1,-3 0,-2 0,-2 -1,-3 -1,-2 -2,-3 -3,-3 -2,-1 -1,-1 -13,-1l-11 0 0 -17 0 -16 25 0c20,0 24,0 25,0 3,-1 5,-4 5,-7 0,-4 -2,-6 -5,-7 -1,0 -6,0 -32,0l-31 0 0 54z"/>
  <path id="2" fill="#FEFEFE" fill-rule="nonzero" d="M365 56c-3,0 -5,2 -6,4 0,2 0,4 0,6 1,2 3,3 5,4 1,0 1,0 5,0l4 0 0 40 0 40 -4 0c-4,0 -4,0 -5,0 -3,1 -5,4 -5,7 0,3 2,6 5,7l1 0 14 0c13,0 14,0 15,0 4,-1 8,-2 11,-5 1,-1 3,-3 4,-5 1,-1 4,-8 8,-16 9,-17 9,-17 10,-21 0,-2 1,-4 1,-7 0,-3 -1,-5 -1,-8 -1,-3 -1,-4 -10,-20 -4,-9 -7,-16 -8,-16 -3,-6 -9,-9 -15,-10 -1,0 -3,0 -15,0 -8,0 -14,0 -14,0l0 0zm28 14c2,0 3,1 4,3 0,0 1,2 12,23 3,6 3,7 4,8 1,3 1,5 1,7 0,2 -1,3 -1,5 -1,1 -1,2 -4,7 -11,22 -12,24 -12,24 -1,1 -2,2 -3,2 -1,1 -1,1 -4,1l-4 0 0 -40 0 -40 4 0c2,0 3,0 3,0z"/>
  <path id="3" fill="#FEFEFE" fill-rule="nonzero" d="M469 56c-2,0 -4,2 -5,4 -1,2 -1,4 0,6 1,2 2,3 4,4l1 0 24 0 25 0 0 16 0 17 -20 0c-14,0 -21,0 -22,0 -3,0 -6,2 -9,4 -2,2 -3,4 -4,7l0 1 0 24 0 25 31 0c27,0 32,0 32,0 4,-1 6,-4 6,-7 0,-4 -2,-6 -6,-7 0,0 -4,0 -25,0l-24 0 0 -17c0,-9 0,-16 0,-16 0,0 10,0 22,0l21 0 1 0c3,-1 5,-2 7,-4 2,-2 3,-5 4,-8 0,-2 0,-36 0,-37 -1,-6 -5,-10 -11,-12 -1,0 0,0 -27,0 -13,0 -25,0 -25,0l0 0z"/>
  <path fill="#FEFEFE" fill-rule="nonzero" d="M4028 56c-1,0 -2,1 -3,2 -1,1 -2,1 -2,2 0,2 0,-2 0,53l0 51 31 0c26,0 31,0 32,0 3,-1 5,-4 5,-7 0,-4 -2,-6 -5,-7 -1,0 -5,0 -25,0l-24 0 0 -44c0,-42 -1,-44 -1,-45 0,-1 -1,-3 -2,-4 -1,0 -2,-1 -3,-1 0,0 -2,0 -3,0l0 0z"/>
  <path id="1" fill="#FEFEFE" fill-rule="nonzero" d="M4127 110l0 54 31 0c27,0 31,0 32,0 3,-1 6,-4 6,-7 0,-4 -3,-6 -6,-7 -1,0 -4,0 -25,0l-24 0 0 -17 0 -16 11 0c12,0 11,0 12,-1 2,-1 3,-2 3,-3 1,-1 1,-2 1,-3 0,-2 0,-2 -1,-3 0,-2 -1,-3 -3,-3 -1,-1 0,-1 -12,-1l-11 0 0 -17 0 -16 24 0c21,0 24,0 25,0 3,-1 6,-4 6,-7 0,-4 -3,-6 -6,-7 -1,0 -5,0 -32,0l-31 0 0 54z"/>
  <path id="2" fill="#FEFEFE" fill-rule="nonzero" d="M4237 56c-2,0 -4,2 -5,4 -1,2 -1,4 0,6 1,2 2,3 4,4 1,0 1,0 5,0l4 0 0 40 0 40 -4 0c-4,0 -4,0 -5,0 -3,1 -5,4 -5,7 0,3 2,6 5,7l1 0 14 0c13,0 14,0 15,0 4,-1 8,-2 11,-5 2,-1 3,-3 5,-5 0,-1 3,-8 8,-16 8,-17 8,-17 9,-21 1,-2 1,-4 1,-7 0,-3 0,-5 -1,-8 -1,-3 -1,-4 -9,-20 -5,-9 -8,-16 -8,-16 -4,-6 -10,-9 -16,-10 -1,0 -3,0 -15,0 -7,0 -14,0 -14,0l0 0zm29 14c1,0 2,1 3,3 1,0 2,2 12,23 3,6 4,7 4,8 1,3 1,5 1,7 0,2 0,3 -1,5 0,1 -1,2 -4,7 -10,22 -11,24 -12,24 0,1 -1,2 -2,2 -2,1 -2,1 -5,1l-3 0 0 -40 0 -40 3 0c3,0 3,0 4,0z"/>
  <path id="3" fill="#FEFEFE" fill-rule="nonzero" d="M4341 56c-2,0 -4,2 -5,4 -1,2 -1,4 0,6 1,2 3,3 5,4l0 0 11 0 11 0 0 40 0 40 -11 0 -11 0 0 0c-4,1 -6,4 -6,7 0,3 2,6 6,7l0 0 29 0c27,0 29,0 29,0 0,0 1,-1 1,-1 2,-1 3,-2 4,-3 0,-2 0,0 0,-20 0,-14 0,-19 0,-19 0,-1 0,-2 -1,-3 0,-1 -1,-2 -2,-2 -1,-1 -3,-2 -4,-1 -1,0 -2,0 -3,1 -1,0 -2,1 -3,2 0,0 0,1 0,1 -1,1 -1,1 -1,16l0 15 -6 0 -7 0 0 -47 0 -47 -18 0c-9,0 -17,0 -18,0l0 0z"/>
  <path fill="white" d="M2702 2924l0 -102c0,-6 2,-10 5,-10l25 0c2,0 4,4 4,10l0 102c0,5 -2,9 -4,9l-25 0c-3,0 -5,-4 -5,-9z"/>
  <path fill="white" d="M2798 2924l0 -102c0,-6 3,-10 5,-10l25 0c3,0 5,4 5,10l0 102c0,5 -2,9 -5,9l-25 0c-2,0 -5,-4 -5,-9z"/>
  <path fill="white" d="M2895 2924l0 -102c0,-6 2,-10 5,-10l25 0c2,0 4,4 4,10l0 102c0,5 -2,9 -4,9l-25 0c-3,0 -5,-4 -5,-9z"/>
  <path fill="white" d="M2991 2924l0 -102c0,-6 2,-10 5,-10l25 0c3,0 5,4 5,10l0 102c0,5 -2,9 -5,9l-25 0c-3,0 -5,-4 -5,-9z"/>
  <path fill="white" d="M3088 2924l0 -102c0,-6 2,-10 5,-10l25 0c2,0 4,4 4,10l0 102c0,5 -2,9 -4,9l-25 0c-3,0 -5,-4 -5,-9z"/>
  <path fill="white" d="M3184 2924l0 -102c0,-6 2,-10 5,-10l25 0c3,0 5,4 5,10l0 102c0,5 -2,9 -5,9l-25 0c-3,0 -5,-4 -5,-9z"/>
  <path fill="white" d="M3281 2924l0 -102c0,-6 2,-10 5,-10l25 0c2,0 4,4 4,10l0 102c0,5 -2,9 -4,9l-25 0c-3,0 -5,-4 -5,-9z"/>
  <path fill="white" d="M3377 2924l0 -102c0,-6 2,-10 5,-10l25 0c3,0 5,4 5,10l0 102c0,5 -2,9 -5,9l-25 0c-3,0 -5,-4 -5,-9z"/>
  <path fill="white" d="M3474 2924l0 -102c0,-6 2,-10 4,-10l26 0c2,0 4,4 4,10l0 102c0,5 -2,9 -4,9l-26 0c-2,0 -4,-4 -4,-9z"/>
  <path fill="white" d="M2702 3792l0 -102c0,-5 2,-10 5,-10l25 0c2,0 4,5 4,10l0 102c0,5 -2,10 -4,10l-25 0c-3,0 -5,-5 -5,-10z"/>
  <path fill="white" d="M2798 3792l0 -102c0,-5 3,-10 5,-10l25 0c3,0 5,5 5,10l0 102c0,5 -2,10 -5,10l-25 0c-2,0 -5,-5 -5,-10z"/>
  <path fill="white" d="M2895 3792l0 -102c0,-5 2,-10 5,-10l25 0c2,0 4,5 4,10l0 102c0,5 -2,10 -4,10l-25 0c-3,0 -5,-5 -5,-10z"/>
  <path fill="white" d="M2991 3792l0 -102c0,-5 2,-10 5,-10l25 0c3,0 5,5 5,10l0 102c0,5 -2,10 -5,10l-25 0c-3,0 -5,-5 -5,-10z"/>
  <path fill="white" d="M3088 3792l0 -102c0,-5 2,-10 5,-10l25 0c2,0 4,5 4,10l0 102c0,5 -2,10 -4,10l-25 0c-3,0 -5,-5 -5,-10z"/>
  <path fill="white" d="M3184 3792l0 -102c0,-5 2,-10 5,-10l25 0c3,0 5,5 5,10l0 102c0,5 -2,10 -5,10l-25 0c-3,0 -5,-5 -5,-10z"/>
  <path fill="white" d="M3281 3792l0 -102c0,-5 2,-10 5,-10l25 0c2,0 4,5 4,10l0 102c0,5 -2,10 -4,10l-25 0c-3,0 -5,-5 -5,-10z"/>
  <path fill="white" d="M3377 3792l0 -102c0,-5 2,-10 5,-10l25 0c3,0 5,5 5,10l0 102c0,5 -2,10 -5,10l-25 0c-3,0 -5,-5 -5,-10z"/>
  <path fill="white" d="M3474 3792l0 -102c0,-5 2,-10 4,-10l26 0c2,0 4,5 4,10l0 102c0,5 -2,10 -4,10l-26 0c-2,0 -4,-5 -4,-10z"/>
  <path fill="white" d="M3641 1144l58 0c3,0 5,2 5,5l0 25c0,2 -2,4 -5,4l-58 0c-3,0 -6,-2 -6,-4l0 -25c0,-3 3,-5 6,-5z"/>
  <path fill="white" d="M3641 1206l58 0c3,0 5,2 5,5l0 25c0,2 -2,4 -5,4l-58 0c-3,0 -6,-2 -6,-4l0 -25c0,-3 3,-5 6,-5z"/>
  <path fill="white" d="M3641 1275l58 0c3,0 5,2 5,5l0 25c0,2 -2,4 -5,4l-58 0c-3,0 -6,-2 -6,-4l0 -25c0,-3 3,-5 6,-5z"/>
  <path fill="white" d="M3827 1144l58 0c3,0 5,2 5,5l0 25c0,2 -2,4 -5,4l-58 0c-3,0 -6,-2 -6,-4l0 -25c0,-3 3,-5 6,-5z"/>
  <path fill="white" d="M3827 1206l58 0c3,0 5,2 5,5l0 25c0,2 -2,4 -5,4l-58 0c-3,0 -6,-2 -6,-4l0 -25c0,-3 3,-5 6,-5z"/>
  <path fill="white" d="M3827 1275l58 0c3,0 5,2 5,5l0 25c0,2 -2,4 -5,4l-58 0c-3,0 -6,-2 -6,-4l0 -25c0,-3 3,-5 6,-5z"/>
  <path fill="white" d="M4264 2887l102 0c5,0 10,2 10,5l0 25c0,3 -5,5 -10,5l-102 0c-5,0 -10,-2 -10,-5l0 -25c0,-3 5,-5 10,-5z"/>
  <path fill="white" d="M4264 3494l102 0c5,0 10,2 10,5l0 25c0,2 -5,4 -10,4l-102 0c-5,0 -10,-2 -10,-4l0 -25c0,-3 5,-5 10,-5z"/>
  <path fill="black" d="M613 3887l0 -266c0,-14 35,-25 78,-25l416 0c43,0 78,11 78,25l0 266c0,14 -35,26 -78,26l-416 -1c-43,1 -78,-11 -78,-25z"/>
  <path fill="white" d="M579 3800l0 -102c0,-5 2,-10 5,-10l25 0c3,0 5,5 5,10l0 102c0,5 -2,10 -5,10l-25 0c-3,0 -5,-5 -5,-10z"/>
  <path fill="white" d="M1186 3800l0 -102c0,-5 2,-10 4,-10l25 0c3,0 5,5 5,10l0 102c0,5 -2,10 -5,10l-25 0c-2,0 -4,-5 -4,-10z"/>
 </g>
</svg>
