<?xml version="1.0" encoding="UTF-8"?>
<!DOCTYPE svg PUBLIC "-//W3C//DTD SVG 1.1//EN" "http://www.w3.org/Graphics/SVG/1.1/DTD/svg11.dtd">
<!-- Creator: CorelDRAW Home & Student 2014 -->
<svg xmlns="http://www.w3.org/2000/svg" xml:space="preserve" width="50.8mm" height="50.8001mm" version="1.1" shape-rendering="geometricPrecision" text-rendering="geometricPrecision" image-rendering="optimizeQuality" fill-rule="evenodd" clip-rule="evenodd"
viewBox="0 0 4244 4244"
 xmlns:xlink="http://www.w3.org/1999/xlink">
 <g id="Layer_x0020_1">
  <metadata id="CorelCorpID_0Corel-Layer"/>
  <path fill="#534745" fill-rule="nonzero" d="M399 1696l24 0 0 36c-2,0 -3,1 -5,1 -2,1 -4,1 -6,2 -2,0 -4,0 -6,0 -3,1 -5,1 -7,1 -6,0 -10,-1 -14,-3 -4,-2 -8,-4 -11,-8 -2,-3 -5,-7 -6,-11 -1,-5 -2,-10 -2,-16 0,-6 1,-11 2,-16 2,-5 4,-9 7,-12 3,-3 7,-6 11,-7 5,-2 10,-3 16,-3 4,0 7,0 11,1 3,1 6,2 9,3l-3 8c-2,0 -3,-1 -4,-1 -2,-1 -3,-1 -5,-2 -1,0 -3,0 -4,0 -2,-1 -3,-1 -5,-1 -4,0 -8,1 -11,2 -3,2 -6,4 -8,6 -2,3 -3,6 -5,9 -1,4 -1,8 -1,13 0,4 0,8 1,12 1,3 3,7 5,9 2,3 4,5 7,6 4,2 7,2 12,2 1,0 3,0 4,0 1,0 2,0 3,0 1,0 2,0 3,-1 1,0 2,0 3,0l0 -22 -15 0 0 -8z"/>
  <path id="1" fill="#534745" fill-rule="nonzero" d="M485 1683c0,3 -1,6 -2,8 0,3 -2,6 -4,8 -2,2 -5,4 -8,5 -4,1 -8,2 -13,2l-8 0 0 29 -9 0 0 -74 18 0c4,0 8,0 12,1 3,1 6,3 8,5 2,1 3,4 4,6 1,3 2,6 2,10zm-35 15l7 0c3,0 5,0 8,-1 2,0 4,-1 5,-2 2,-2 3,-3 4,-5 1,-2 1,-4 1,-7 0,-5 -1,-8 -4,-11 -3,-2 -7,-3 -13,-3l-8 0 0 29z"/>
  <polygon id="2" fill="#534745" fill-rule="nonzero" points="521,1735 494,1735 494,1729 503,1727 503,1668 494,1666 494,1661 521,1661 521,1666 512,1668 512,1727 521,1729 "/>
  <path id="3" fill="#534745" fill-rule="nonzero" d="M594 1698c0,5 0,11 -2,15 -1,5 -3,9 -6,12 -3,4 -6,6 -10,8 -4,2 -8,3 -14,3 -5,0 -10,-1 -14,-3 -4,-2 -7,-4 -10,-8 -2,-3 -4,-7 -6,-12 -1,-4 -2,-10 -2,-15 0,-6 1,-11 2,-16 2,-5 4,-9 6,-12 3,-3 6,-6 10,-7 4,-2 9,-3 14,-3 6,0 10,1 14,3 4,1 7,4 10,7 3,4 5,7 6,12 2,5 2,10 2,16zm-54 0c0,4 1,8 2,12 1,4 2,7 4,9 1,3 4,5 6,6 3,2 7,2 10,2 4,0 8,0 10,-2 3,-1 5,-3 7,-6 2,-2 3,-5 4,-9 1,-4 1,-8 1,-12 0,-5 0,-9 -1,-13 -1,-3 -2,-6 -4,-9 -2,-3 -4,-5 -7,-6 -2,-1 -6,-2 -10,-2 -3,0 -7,1 -9,2 -3,1 -6,3 -7,6 -2,3 -3,6 -4,9 -1,4 -2,8 -2,13z"/>
  <polygon id="4" fill="#534745" fill-rule="nonzero" points="605,1711 605,1703 630,1703 630,1711 "/>
  <polygon id="5" fill="#534745" fill-rule="nonzero" points="648,1735 676,1669 638,1669 638,1661 686,1661 686,1668 658,1735 "/>
  <path fill="#534745" fill-rule="nonzero" d="M3613 1696l24 0 0 36c-1,1 -3,1 -5,2 -2,0 -4,0 -6,1 -2,0 -4,0 -6,0 -2,1 -5,1 -7,1 -6,0 -10,-1 -14,-3 -4,-2 -8,-4 -11,-7 -2,-4 -5,-8 -6,-12 -1,-5 -2,-10 -2,-16 0,-6 1,-11 2,-16 2,-5 4,-9 7,-12 3,-3 7,-6 12,-7 4,-2 9,-3 15,-3 4,0 7,0 11,1 3,1 6,2 9,3l-3 8c-2,0 -3,-1 -4,-1 -2,-1 -3,-1 -5,-1 -1,-1 -3,-1 -4,-1 -2,-1 -3,-1 -5,-1 -4,0 -8,1 -11,2 -3,2 -6,4 -8,6 -2,3 -3,6 -5,9 -1,4 -1,8 -1,13 0,4 0,8 1,12 1,3 3,7 5,9 2,3 4,5 7,6 4,2 7,2 12,2 1,0 3,0 4,0 1,0 2,0 3,0 1,0 2,0 3,0 1,-1 2,-1 3,-1l0 -22 -15 0 0 -8z"/>
  <path id="1" fill="#534745" fill-rule="nonzero" d="M3699 1683c0,3 -1,6 -1,8 -1,3 -3,6 -5,8 -2,2 -5,4 -8,5 -4,1 -8,2 -13,2l-8 0 0 29 -9 0 0 -74 18 0c5,0 8,1 12,1 3,1 6,3 8,5 2,1 3,4 4,6 1,3 2,6 2,10zm-35 15l7 0c3,0 5,0 8,-1 2,0 4,-1 5,-2 2,-2 3,-3 4,-5 1,-2 1,-4 1,-7 0,-5 -1,-8 -4,-11 -3,-2 -7,-3 -13,-3l-8 0 0 29z"/>
  <polygon id="2" fill="#534745" fill-rule="nonzero" points="3735,1735 3708,1735 3708,1730 3717,1727 3717,1668 3708,1666 3708,1661 3735,1661 3735,1666 3726,1668 3726,1727 3735,1730 "/>
  <path id="3" fill="#534745" fill-rule="nonzero" d="M3808 1698c0,5 0,11 -2,15 -1,5 -3,9 -6,12 -2,4 -6,6 -10,8 -4,2 -8,3 -14,3 -5,0 -10,-1 -14,-3 -4,-2 -7,-4 -10,-8 -2,-3 -4,-7 -6,-12 -1,-4 -2,-10 -2,-15 0,-6 1,-11 2,-16 2,-5 4,-8 6,-12 3,-3 6,-6 10,-7 4,-2 9,-3 15,-3 5,0 9,1 13,3 4,1 8,4 10,7 3,4 5,8 6,12 2,5 2,10 2,16zm-54 0c0,4 1,8 2,12 1,4 2,7 4,10 1,2 4,4 7,5 2,2 6,2 9,2 4,0 8,0 10,-2 3,-1 5,-3 7,-5 2,-3 3,-6 4,-10 1,-4 1,-8 1,-12 0,-5 0,-9 -1,-13 -1,-3 -2,-6 -4,-9 -2,-3 -4,-4 -7,-6 -2,-1 -6,-2 -9,-2 -4,0 -8,1 -10,2 -3,2 -5,3 -7,6 -2,3 -3,6 -4,9 -1,4 -2,8 -2,13z"/>
  <polygon id="4" fill="#534745" fill-rule="nonzero" points="3819,1711 3819,1703 3844,1703 3844,1711 "/>
  <path id="5" fill="#534745" fill-rule="nonzero" d="M3884 1735l-9 0 0 -46c0,-2 0,-3 0,-5 0,-2 0,-3 0,-5 0,-2 0,-3 0,-5 0,-1 0,-2 0,-4 0,1 -1,2 -1,2 -1,0 -1,1 -2,1 0,1 -1,1 -1,2 0,0 -1,1 -2,1l-7 6 -5 -6 19 -15 8 0 0 74z"/>
  <path id="6" fill="#534745" fill-rule="nonzero" d="M3941 1735l-9 0 0 -46c0,-2 0,-3 0,-5 0,-2 0,-3 0,-5 0,-2 0,-3 0,-5 0,-1 0,-2 0,-4 0,1 -1,2 -1,2 -1,0 -1,1 -2,1 0,1 -1,1 -1,2 -1,0 -1,1 -2,1l-7 6 -5 -6 19 -15 8 0 0 74z"/>
  <rect fill="none" fill-rule="nonzero" stroke="#2B2A29" stroke-width="20.6291" x="212" y="212" width="3820" height="3820"/>
  <path fill="#534745" fill-rule="nonzero" d="M399 1908l24 0 0 36c-2,1 -3,1 -5,2 -2,0 -4,1 -6,1 -2,0 -4,0 -6,1 -3,0 -5,0 -7,0 -6,0 -10,-1 -14,-3 -4,-2 -8,-4 -11,-7 -2,-4 -5,-8 -6,-12 -1,-5 -2,-10 -2,-16 0,-6 1,-11 2,-16 2,-4 4,-8 7,-12 3,-3 7,-5 11,-7 5,-2 10,-3 16,-3 4,0 7,1 11,1 3,1 6,2 9,3l-3 9c-2,-1 -3,-1 -4,-2 -2,0 -3,-1 -5,-1 -1,-1 -3,-1 -4,-1 -2,0 -3,-1 -5,-1 -4,0 -8,1 -11,2 -3,2 -6,4 -8,6 -2,3 -3,6 -5,10 -1,3 -1,7 -1,12 0,4 0,8 1,12 1,4 3,7 5,9 2,3 4,5 7,6 4,2 7,3 12,3 1,0 3,0 4,-1 1,0 2,0 3,0 1,0 2,0 3,0 1,0 2,-1 3,-1l0 -22 -15 0 0 -8z"/>
  <path id="1" fill="#534745" fill-rule="nonzero" d="M485 1895c0,3 -1,6 -2,9 0,2 -2,5 -4,7 -2,2 -5,4 -8,5 -4,2 -8,2 -13,2l-8 0 0 29 -9 0 0 -74 18 0c4,0 8,1 12,2 3,1 6,2 8,4 2,2 3,4 4,7 1,2 2,5 2,9zm-35 15l7 0c3,0 5,0 8,-1 2,0 4,-1 5,-2 2,-1 3,-3 4,-5 1,-2 1,-4 1,-7 0,-5 -1,-8 -4,-10 -3,-3 -7,-4 -13,-4l-8 0 0 29z"/>
  <polygon id="2" fill="#534745" fill-rule="nonzero" points="521,1947 494,1947 494,1942 503,1940 503,1880 494,1878 494,1873 521,1873 521,1878 512,1880 512,1940 521,1942 "/>
  <path id="3" fill="#534745" fill-rule="nonzero" d="M594 1910c0,6 0,11 -2,15 -1,5 -3,9 -6,12 -3,4 -6,6 -10,8 -4,2 -8,3 -14,3 -5,0 -10,-1 -14,-3 -4,-2 -7,-4 -10,-8 -2,-3 -4,-7 -6,-12 -1,-4 -2,-9 -2,-15 0,-6 1,-11 2,-16 2,-4 4,-8 6,-12 3,-3 6,-5 10,-7 4,-2 9,-3 14,-3 6,0 10,1 14,3 4,2 7,4 10,7 3,4 5,8 6,12 2,5 2,10 2,16zm-54 0c0,5 1,9 2,12 1,4 2,7 4,10 1,2 4,4 6,6 3,1 7,2 10,2 4,0 8,-1 10,-2 3,-2 5,-4 7,-6 2,-3 3,-6 4,-10 1,-3 1,-7 1,-12 0,-5 0,-9 -1,-13 -1,-3 -2,-6 -4,-9 -2,-2 -4,-4 -7,-6 -2,-1 -6,-2 -10,-2 -3,0 -7,1 -9,2 -3,2 -6,4 -7,6 -2,3 -3,6 -4,9 -1,4 -2,8 -2,13z"/>
  <polygon id="4" fill="#534745" fill-rule="nonzero" points="605,1923 605,1915 630,1915 630,1923 "/>
  <path id="5" fill="#534745" fill-rule="nonzero" d="M662 1872c3,0 6,0 8,1 3,1 5,2 7,3 2,2 3,4 4,6 2,2 2,5 2,8 0,2 0,4 -1,6 -1,2 -2,3 -3,5 -1,1 -2,2 -4,4 -2,1 -3,2 -5,3 2,1 4,2 6,3 1,2 3,3 5,5 1,1 2,3 3,5 1,2 1,4 1,7 0,3 0,6 -1,8 -1,3 -3,5 -5,6 -2,2 -4,4 -7,4 -3,1 -6,2 -10,2 -3,0 -7,-1 -9,-1 -3,-1 -6,-3 -8,-4 -2,-2 -3,-4 -4,-7 -1,-2 -2,-5 -2,-8 0,-3 1,-5 1,-7 1,-2 2,-4 3,-5 2,-2 3,-3 5,-5 2,-1 4,-2 5,-3 -1,-1 -3,-2 -4,-3 -2,-1 -3,-3 -4,-4 -1,-2 -2,-3 -2,-5 -1,-2 -1,-4 -1,-6 0,-3 0,-6 1,-8 1,-2 3,-4 5,-6 2,-1 4,-2 6,-3 3,-1 6,-1 8,-1zm-14 56c0,2 0,3 1,5 0,1 1,3 2,4 2,1 3,2 5,2 2,1 4,1 6,1 3,0 5,0 6,-1 2,0 4,-1 5,-2 1,-1 2,-3 3,-4 0,-2 1,-4 1,-5 0,-2 -1,-4 -1,-5 -1,-2 -2,-3 -3,-4 -1,-1 -3,-2 -5,-3 -1,-2 -3,-3 -5,-4l-2 0c-4,2 -7,4 -10,7 -2,2 -3,5 -3,9zm14 -48c-3,0 -6,1 -8,3 -2,1 -4,4 -4,7 0,2 1,4 1,5 1,1 2,3 3,4 1,1 2,2 4,3 1,0 3,1 4,2 2,-1 4,-1 5,-2 1,-1 3,-2 4,-3 1,-1 2,-3 2,-4 1,-1 1,-3 1,-5 0,-3 -1,-6 -3,-7 -2,-2 -5,-3 -9,-3z"/>
  <path fill="#534745" fill-rule="nonzero" d="M3613 1908l24 0 0 36c-1,1 -3,1 -5,2 -2,0 -4,1 -6,1 -2,0 -4,1 -6,1 -2,0 -5,0 -7,0 -6,0 -10,-1 -14,-3 -4,-1 -8,-4 -11,-7 -2,-4 -5,-8 -6,-12 -1,-5 -2,-10 -2,-16 0,-6 1,-11 2,-16 2,-4 4,-8 7,-12 3,-3 7,-5 12,-7 4,-2 9,-3 15,-3 4,0 7,1 11,1 3,1 6,2 9,4l-3 8c-2,-1 -3,-1 -4,-2 -2,0 -3,-1 -5,-1 -1,-1 -3,-1 -4,-1 -2,0 -3,-1 -5,-1 -4,0 -8,1 -11,3 -3,1 -6,3 -8,5 -2,3 -3,6 -5,10 -1,3 -1,7 -1,12 0,4 0,8 1,12 1,4 3,7 5,9 2,3 4,5 7,7 4,1 7,2 12,2 1,0 3,0 4,0 1,-1 2,-1 3,-1 1,0 2,0 3,0 1,0 2,-1 3,-1l0 -22 -15 0 0 -8z"/>
  <path id="1" fill="#534745" fill-rule="nonzero" d="M3699 1895c0,3 -1,6 -1,9 -1,2 -3,5 -5,7 -2,2 -5,4 -8,5 -4,2 -8,2 -13,2l-8 0 0 29 -9 0 0 -74 18 0c5,0 8,1 12,2 3,1 6,2 8,4 2,2 3,4 4,7 1,2 2,5 2,9zm-35 15l7 0c3,0 5,0 8,-1 2,0 4,-1 5,-2 2,-1 3,-3 4,-5 1,-2 1,-4 1,-7 0,-4 -1,-8 -4,-10 -3,-3 -7,-4 -13,-4l-8 0 0 29z"/>
  <polygon id="2" fill="#534745" fill-rule="nonzero" points="3735,1947 3708,1947 3708,1942 3717,1940 3717,1880 3708,1878 3708,1873 3735,1873 3735,1878 3726,1880 3726,1940 3735,1942 "/>
  <path id="3" fill="#534745" fill-rule="nonzero" d="M3808 1910c0,6 0,11 -2,16 -1,4 -3,8 -6,11 -2,4 -6,6 -10,8 -4,2 -8,3 -14,3 -5,0 -10,-1 -14,-3 -4,-2 -7,-4 -10,-8 -2,-3 -4,-7 -6,-12 -1,-4 -2,-9 -2,-15 0,-6 1,-11 2,-16 2,-4 4,-8 6,-12 3,-3 6,-5 10,-7 4,-2 9,-3 15,-3 5,0 9,1 13,3 4,2 8,4 10,7 3,4 5,8 6,12 2,5 2,10 2,16zm-54 0c0,5 1,9 2,12 1,4 2,7 4,10 1,2 4,4 7,6 2,1 6,2 9,2 4,0 8,-1 10,-2 3,-2 5,-4 7,-6 2,-3 3,-6 4,-10 1,-3 1,-7 1,-12 0,-5 0,-9 -1,-12 -1,-4 -2,-7 -4,-10 -2,-2 -4,-4 -7,-6 -2,-1 -6,-2 -9,-2 -4,0 -8,1 -10,2 -3,2 -5,4 -7,6 -2,3 -3,6 -4,10 -1,3 -2,7 -2,12z"/>
  <polygon id="4" fill="#534745" fill-rule="nonzero" points="3819,1923 3819,1915 3844,1915 3844,1923 "/>
  <path id="5" fill="#534745" fill-rule="nonzero" d="M3900 1905c0,3 0,7 -1,10 0,4 -1,7 -2,10 -1,4 -2,6 -3,9 -2,3 -4,5 -6,7 -3,2 -5,4 -9,5 -3,1 -7,2 -11,2 -1,0 -2,0 -3,0 0,0 -1,0 -2,0 -1,0 -1,0 -2,-1 -1,0 -2,0 -2,0l0 -8c1,1 2,1 4,1 1,1 3,1 4,1 5,0 9,-1 11,-3 3,-1 6,-3 7,-6 2,-3 3,-6 4,-10 1,-3 1,-7 1,-11l0 0c-1,1 -2,2 -3,3 -1,1 -2,2 -3,3 -1,1 -3,1 -4,2 -2,0 -4,0 -6,0 -3,0 -6,0 -8,-1 -3,-1 -5,-3 -7,-4 -2,-2 -3,-5 -4,-8 -1,-2 -2,-5 -2,-9 0,-4 1,-7 2,-10 1,-3 2,-6 4,-8 2,-2 5,-4 7,-5 3,-1 6,-2 10,-2 3,0 6,1 9,2 3,1 6,3 8,6 2,3 4,6 5,10 1,4 2,9 2,15zm-24 -25c-2,0 -4,0 -6,1 -1,1 -3,2 -4,3 -1,2 -2,3 -3,5 0,3 -1,5 -1,8 0,2 0,4 1,6 1,2 1,4 3,5 1,1 2,2 4,3 1,1 3,1 6,1 2,0 4,0 6,-1 2,-1 3,-2 4,-3 2,-1 3,-3 4,-4 0,-2 1,-4 1,-5 0,-2 -1,-5 -1,-7 -1,-2 -2,-4 -3,-6 -1,-2 -3,-3 -5,-4 -2,-1 -4,-2 -6,-2z"/>
  <path fill="#534745" fill-rule="nonzero" d="M3613 2120l24 0 0 36c-1,1 -3,2 -5,2 -2,0 -4,1 -6,1 -2,0 -4,1 -6,1 -2,0 -5,0 -7,0 -6,0 -10,-1 -14,-2 -4,-2 -8,-5 -11,-8 -2,-3 -5,-7 -6,-12 -1,-5 -2,-10 -2,-16 0,-6 1,-11 2,-15 2,-5 4,-9 7,-12 3,-4 7,-6 12,-8 4,-2 9,-3 15,-3 4,0 7,1 11,2 3,0 6,1 9,3l-3 8c-2,-1 -3,-1 -4,-2 -2,0 -3,-1 -5,-1 -1,0 -3,-1 -4,-1 -2,0 -3,0 -5,0 -4,0 -8,0 -11,2 -3,1 -6,3 -8,6 -2,2 -3,5 -5,9 -1,4 -1,8 -1,12 0,5 0,9 1,12 1,4 3,7 5,10 2,2 4,4 7,6 4,1 7,2 12,2 1,0 3,0 4,0 1,0 2,0 3,-1 1,0 2,0 3,0 1,0 2,0 3,-1l0 -22 -15 0 0 -8z"/>
  <path id="1" fill="#534745" fill-rule="nonzero" d="M3699 2107c0,3 -1,6 -1,9 -1,3 -3,5 -5,7 -2,2 -5,4 -8,6 -4,1 -8,1 -13,1l-8 0 0 29 -9 0 0 -74 18 0c5,0 8,1 12,2 3,1 6,2 8,4 2,2 3,4 4,7 1,3 2,6 2,9zm-35 15l7 0c3,0 5,0 8,0 2,-1 4,-2 5,-3 2,-1 3,-3 4,-5 1,-1 1,-4 1,-6 0,-5 -1,-9 -4,-11 -3,-2 -7,-4 -13,-4l-8 0 0 29z"/>
  <polygon id="2" fill="#534745" fill-rule="nonzero" points="3735,2159 3708,2159 3708,2154 3717,2152 3717,2093 3708,2091 3708,2085 3735,2085 3735,2091 3726,2093 3726,2152 3735,2154 "/>
  <path id="3" fill="#534745" fill-rule="nonzero" d="M3808 2122c0,6 0,11 -2,16 -1,4 -3,8 -6,12 -2,3 -6,6 -10,7 -4,2 -8,3 -14,3 -5,0 -10,-1 -14,-3 -4,-1 -7,-4 -10,-7 -2,-4 -4,-8 -6,-12 -1,-5 -2,-10 -2,-16 0,-6 1,-11 2,-15 2,-5 4,-9 6,-12 3,-4 6,-6 10,-8 4,-2 9,-3 15,-3 5,0 9,1 13,3 4,2 8,4 10,8 3,3 5,7 6,12 2,4 2,9 2,15zm-54 0c0,5 1,9 2,13 1,3 2,6 4,9 1,3 4,4 7,6 2,1 6,2 9,2 4,0 8,-1 10,-2 3,-2 5,-3 7,-6 2,-3 3,-6 4,-9 1,-4 1,-8 1,-13 0,-4 0,-9 -1,-12 -1,-4 -2,-7 -4,-10 -2,-2 -4,-4 -7,-5 -2,-2 -6,-2 -9,-2 -4,0 -8,0 -10,2 -3,1 -5,3 -7,5 -2,3 -3,6 -4,10 -1,3 -2,8 -2,12z"/>
  <polygon id="4" fill="#534745" fill-rule="nonzero" points="3819,2136 3819,2127 3844,2127 3844,2136 "/>
  <path id="5" fill="#534745" fill-rule="nonzero" d="M3884 2159l-9 0 0 -46c0,-1 0,-3 0,-5 0,-1 0,-3 0,-4 0,-2 0,-4 0,-5 0,-2 0,-3 0,-4 0,1 -1,1 -1,1 -1,1 -1,1 -2,2 0,0 -1,1 -1,1 0,0 -1,1 -2,2l-7 6 -5 -6 19 -16 8 0 0 74z"/>
  <path id="6" fill="#534745" fill-rule="nonzero" d="M3957 2122c0,6 -1,11 -2,16 0,5 -2,9 -4,12 -2,3 -4,6 -7,8 -3,1 -7,2 -11,2 -4,0 -7,-1 -10,-2 -3,-2 -6,-5 -8,-8 -1,-3 -3,-7 -4,-12 -1,-5 -1,-10 -1,-16 0,-6 0,-11 1,-16 1,-4 2,-8 4,-12 2,-3 4,-5 7,-7 3,-2 7,-3 11,-3 4,0 8,1 11,3 3,2 5,4 7,7 2,4 3,7 4,12 1,5 2,10 2,16zm-38 0c0,5 0,10 1,13 0,4 1,7 2,10 1,2 3,4 5,5 1,2 4,2 6,2 3,0 5,0 7,-2 2,-1 3,-3 4,-5 1,-3 2,-6 3,-10 0,-3 0,-8 0,-13 0,-5 0,-9 0,-13 -1,-4 -2,-7 -3,-9 -1,-3 -2,-5 -4,-6 -2,-1 -4,-2 -7,-2 -2,0 -5,1 -6,2 -2,1 -4,3 -5,6 -1,2 -2,5 -2,9 -1,4 -1,8 -1,13z"/>
  <path fill="#534745" fill-rule="nonzero" d="M399 2121l24 0 0 36c-2,0 -3,1 -5,1 -2,1 -4,1 -6,2 -2,0 -4,0 -6,0 -3,1 -5,1 -7,1 -6,0 -10,-1 -14,-3 -4,-2 -8,-4 -11,-8 -2,-3 -5,-7 -6,-12 -1,-4 -2,-9 -2,-15 0,-6 1,-11 2,-16 2,-5 4,-9 7,-12 3,-3 7,-6 11,-7 5,-2 10,-3 16,-3 4,0 7,0 11,1 3,1 6,2 9,3l-3 8c-2,0 -3,-1 -4,-1 -2,-1 -3,-1 -5,-2 -1,0 -3,0 -4,0 -2,-1 -3,-1 -5,-1 -4,0 -8,1 -11,2 -3,2 -6,4 -8,6 -2,3 -3,6 -5,9 -1,4 -1,8 -1,13 0,4 0,8 1,12 1,3 3,6 5,9 2,3 4,5 7,6 4,2 7,2 12,2 1,0 3,0 4,0 1,0 2,0 3,0 1,0 2,0 3,-1 1,0 2,0 3,0l0 -22 -15 0 0 -8z"/>
  <path id="1" fill="#534745" fill-rule="nonzero" d="M485 2107c0,4 -1,6 -2,9 0,3 -2,6 -4,8 -2,2 -5,4 -8,5 -4,1 -8,2 -13,2l-8 0 0 29 -9 0 0 -74 18 0c4,0 8,0 12,1 3,1 6,3 8,5 2,1 3,4 4,6 1,3 2,6 2,9zm-35 16l7 0c3,0 5,0 8,-1 2,0 4,-1 5,-2 2,-2 3,-3 4,-5 1,-2 1,-4 1,-7 0,-5 -1,-8 -4,-11 -3,-2 -7,-3 -13,-3l-8 0 0 29z"/>
  <polygon id="2" fill="#534745" fill-rule="nonzero" points="521,2160 494,2160 494,2154 503,2152 503,2093 494,2091 494,2086 521,2086 521,2091 512,2093 512,2152 521,2154 "/>
  <path id="3" fill="#534745" fill-rule="nonzero" d="M594 2123c0,5 0,11 -2,15 -1,5 -3,9 -6,12 -3,4 -6,6 -10,8 -4,2 -8,3 -14,3 -5,0 -10,-1 -14,-3 -4,-2 -7,-4 -10,-8 -2,-3 -4,-7 -6,-12 -1,-5 -2,-10 -2,-15 0,-6 1,-11 2,-16 2,-5 4,-9 6,-12 3,-3 6,-6 10,-8 4,-1 9,-2 14,-2 6,0 10,1 14,2 4,2 7,5 10,8 3,3 5,7 6,12 2,5 2,10 2,16zm-54 0c0,4 1,8 2,12 1,4 2,7 4,9 1,3 4,5 6,6 3,2 7,2 10,2 4,0 8,0 10,-2 3,-1 5,-3 7,-6 2,-2 3,-5 4,-9 1,-4 1,-8 1,-12 0,-5 0,-9 -1,-13 -1,-3 -2,-7 -4,-9 -2,-3 -4,-5 -7,-6 -2,-1 -6,-2 -10,-2 -3,0 -7,1 -9,2 -3,1 -6,3 -7,6 -2,2 -3,6 -4,9 -1,4 -2,8 -2,13z"/>
  <polygon id="4" fill="#534745" fill-rule="nonzero" points="605,2136 605,2128 630,2128 630,2136 "/>
  <path id="5" fill="#534745" fill-rule="nonzero" d="M685 2160l-46 0 0 -8 17 -19c3,-3 5,-6 7,-8 2,-2 4,-4 5,-7 2,-2 3,-4 3,-6 1,-2 1,-5 1,-7 0,-2 0,-4 0,-5 -1,-2 -2,-3 -3,-4 -1,-1 -2,-2 -4,-2 -1,-1 -3,-1 -4,-1 -4,0 -7,0 -9,2 -3,1 -5,3 -7,5l-6 -6c2,-2 3,-3 5,-4 1,-1 3,-2 5,-3 2,0 3,-1 5,-1 2,-1 4,-1 7,-1 3,0 6,0 8,1 3,1 5,2 7,4 2,2 3,4 4,6 1,3 2,6 2,9 0,2 -1,5 -2,8 0,2 -2,5 -3,7 -2,3 -4,5 -6,8 -2,2 -4,5 -7,8l-14 15 0 0 35 0 0 9z"/>
  <path id="6" fill="#534745" fill-rule="nonzero" d="M718 2114c3,0 7,1 9,2 3,1 6,2 8,4 2,2 4,4 5,7 1,2 2,5 2,9 0,4 -1,7 -2,10 -1,3 -3,6 -5,8 -2,2 -5,4 -8,5 -4,1 -7,2 -12,2 -1,0 -3,0 -5,-1 -1,0 -3,0 -5,0 -1,-1 -3,-1 -4,-2 -1,0 -3,-1 -4,-1l0 -9c1,1 3,1 4,2 2,1 3,1 5,2 2,0 3,0 5,0 2,1 3,1 5,1 2,0 5,-1 7,-1 2,-1 3,-2 5,-3 1,-1 3,-3 3,-5 1,-2 1,-4 1,-7 0,-5 -1,-8 -4,-11 -3,-3 -7,-4 -13,-4 -1,0 -2,0 -3,0 -1,0 -2,1 -3,1 -1,0 -2,0 -3,0 -1,0 -2,0 -3,1l-4 -3 3 -35 34 0 0 8 -26 0 -2 21c1,0 2,0 4,0 2,0 4,-1 6,-1z"/>
  <path fill="#534745" fill-rule="nonzero" d="M399 2332l24 0 0 37c-2,0 -3,1 -5,1 -2,1 -4,1 -6,1 -2,1 -4,1 -6,1 -3,0 -5,0 -7,0 -6,0 -10,-1 -14,-2 -4,-2 -8,-5 -11,-8 -2,-3 -5,-7 -6,-12 -1,-4 -2,-10 -2,-16 0,-5 1,-11 2,-15 2,-5 4,-9 7,-12 3,-3 7,-6 11,-8 5,-2 10,-2 16,-2 4,0 7,0 11,1 3,0 6,2 9,3l-3 8c-2,0 -3,-1 -4,-2 -2,0 -3,0 -5,-1 -1,0 -3,-1 -4,-1 -2,0 -3,0 -5,0 -4,0 -8,1 -11,2 -3,1 -6,3 -8,6 -2,2 -3,5 -5,9 -1,4 -1,8 -1,12 0,5 0,9 1,12 1,4 3,7 5,10 2,2 4,4 7,6 4,1 7,2 12,2 1,0 3,0 4,0 1,0 2,0 3,0 1,-1 2,-1 3,-1 1,0 2,0 3,0l0 -22 -15 0 0 -9z"/>
  <path id="1" fill="#534745" fill-rule="nonzero" d="M485 2319c0,3 -1,6 -2,9 0,3 -2,5 -4,7 -2,3 -5,4 -8,6 -4,1 -8,2 -13,2l-8 0 0 28 -9 0 0 -73 18 0c4,0 8,0 12,1 3,1 6,2 8,4 2,2 3,4 4,7 1,3 2,6 2,9zm-35 16l7 0c3,0 5,-1 8,-1 2,-1 4,-2 5,-3 2,-1 3,-3 4,-4 1,-2 1,-5 1,-7 0,-5 -1,-9 -4,-11 -3,-2 -7,-3 -13,-3l-8 0 0 29z"/>
  <polygon id="2" fill="#534745" fill-rule="nonzero" points="521,2371 494,2371 494,2366 503,2364 503,2305 494,2303 494,2298 521,2298 521,2303 512,2305 512,2364 521,2366 "/>
  <path id="3" fill="#534745" fill-rule="nonzero" d="M594 2334c0,6 0,11 -2,16 -1,5 -3,9 -6,12 -3,3 -6,6 -10,8 -4,1 -8,2 -14,2 -5,0 -10,-1 -14,-2 -4,-2 -7,-5 -10,-8 -2,-3 -4,-7 -6,-12 -1,-5 -2,-10 -2,-16 0,-5 1,-11 2,-15 2,-5 4,-9 6,-12 3,-3 6,-6 10,-8 4,-2 9,-2 14,-2 6,0 10,0 14,2 4,2 7,5 10,8 3,3 5,7 6,12 2,4 2,10 2,15zm-54 0c0,5 1,9 2,13 1,3 2,7 4,9 1,3 4,5 6,6 3,1 7,2 10,2 4,0 8,-1 10,-2 3,-1 5,-3 7,-6 2,-2 3,-6 4,-9 1,-4 1,-8 1,-13 0,-4 0,-8 -1,-12 -1,-4 -2,-7 -4,-9 -2,-3 -4,-5 -7,-6 -2,-2 -6,-2 -10,-2 -3,0 -7,0 -9,2 -3,1 -6,3 -7,6 -2,2 -3,5 -4,9 -1,4 -2,8 -2,12z"/>
  <polygon id="4" fill="#534745" fill-rule="nonzero" points="605,2348 605,2339 630,2339 630,2348 "/>
  <path id="5" fill="#534745" fill-rule="nonzero" d="M685 2371l-46 0 0 -8 17 -19c3,-2 5,-5 7,-7 2,-2 4,-5 5,-7 2,-2 3,-4 3,-6 1,-2 1,-5 1,-7 0,-2 0,-4 0,-6 -1,-1 -2,-2 -3,-3 -1,-1 -2,-2 -4,-3 -1,0 -3,-1 -4,-1 -4,0 -7,1 -9,2 -3,2 -5,3 -7,5l-6 -6c2,-1 3,-2 5,-3 1,-1 3,-2 5,-3 2,-1 3,-1 5,-2 2,0 4,0 7,0 3,0 6,0 8,1 3,1 5,2 7,4 2,2 3,4 4,6 1,3 2,5 2,8 0,3 -1,6 -2,8 0,3 -2,6 -3,8 -2,3 -4,5 -6,8 -2,2 -4,5 -7,7l-14 16 0 0 35 0 0 8z"/>
  <path id="6" fill="#534745" fill-rule="nonzero" d="M745 2355l-10 0 0 16 -9 0 0 -16 -34 0 0 -8 33 -50 10 0 0 49 10 0 0 9zm-19 -9l0 -18c0,-1 0,-3 0,-5 0,-3 0,-5 0,-6 0,-2 0,-4 0,-6 0,-2 0,-3 1,-4l-1 0c0,0 0,1 -1,2 0,1 -1,2 -1,2 0,1 -1,2 -1,3 -1,1 -1,1 -1,2l-21 30 25 0z"/>
  <path fill="#534745" fill-rule="nonzero" d="M3613 2332l24 0 0 37c-1,0 -3,1 -5,1 -2,1 -4,1 -6,1 -2,1 -4,1 -6,1 -2,0 -5,0 -7,0 -6,0 -10,-1 -14,-2 -4,-2 -8,-5 -11,-8 -2,-3 -5,-7 -6,-12 -1,-4 -2,-10 -2,-16 0,-5 1,-11 2,-15 2,-5 4,-9 7,-12 3,-3 7,-6 12,-8 4,-1 9,-2 15,-2 4,0 7,0 11,1 3,0 6,2 9,3l-3 8c-2,0 -3,-1 -4,-1 -2,-1 -3,-1 -5,-2 -1,0 -3,0 -4,-1 -2,0 -3,0 -5,0 -4,0 -8,1 -11,2 -3,1 -6,3 -8,6 -2,2 -3,5 -5,9 -1,4 -1,8 -1,13 0,4 0,8 1,11 1,4 3,7 5,10 2,2 4,5 7,6 4,1 7,2 12,2 1,0 3,0 4,0 1,0 2,0 3,0 1,0 2,-1 3,-1 1,0 2,0 3,0l0 -22 -15 0 0 -9z"/>
  <path id="1" fill="#534745" fill-rule="nonzero" d="M3699 2319c0,3 -1,6 -1,9 -1,3 -3,5 -5,8 -2,2 -5,3 -8,5 -4,1 -8,2 -13,2l-8 0 0 28 -9 0 0 -73 18 0c5,0 8,0 12,1 3,1 6,2 8,4 2,2 3,4 4,7 1,3 2,6 2,9zm-35 16l7 0c3,0 5,-1 8,-1 2,-1 4,-2 5,-3 2,-1 3,-2 4,-4 1,-2 1,-5 1,-7 0,-5 -1,-9 -4,-11 -3,-2 -7,-3 -13,-3l-8 0 0 29z"/>
  <polygon id="2" fill="#534745" fill-rule="nonzero" points="3735,2371 3708,2371 3708,2366 3717,2364 3717,2305 3708,2303 3708,2298 3735,2298 3735,2303 3726,2305 3726,2364 3735,2366 "/>
  <path id="3" fill="#534745" fill-rule="nonzero" d="M3808 2334c0,6 0,11 -2,16 -1,5 -3,9 -6,12 -2,3 -6,6 -10,8 -4,1 -8,2 -14,2 -5,0 -10,-1 -14,-2 -4,-2 -7,-5 -10,-8 -2,-3 -4,-7 -6,-12 -1,-5 -2,-10 -2,-16 0,-5 1,-11 2,-15 2,-5 4,-9 6,-12 3,-3 6,-6 10,-8 4,-2 9,-2 15,-2 5,0 9,0 13,2 4,2 8,5 10,8 3,3 5,7 6,12 2,4 2,10 2,15zm-54 0c0,5 1,9 2,13 1,4 2,7 4,9 1,3 4,5 7,6 2,1 6,2 9,2 4,0 8,-1 10,-2 3,-1 5,-3 7,-6 2,-2 3,-5 4,-9 1,-4 1,-8 1,-13 0,-4 0,-8 -1,-12 -1,-4 -2,-7 -4,-9 -2,-3 -4,-5 -7,-6 -2,-2 -6,-2 -9,-2 -4,0 -8,0 -10,2 -3,1 -5,3 -7,6 -2,2 -3,5 -4,9 -1,4 -2,8 -2,12z"/>
  <polygon id="4" fill="#534745" fill-rule="nonzero" points="3819,2348 3819,2339 3844,2339 3844,2348 "/>
  <path id="5" fill="#534745" fill-rule="nonzero" d="M3899 2371l-46 0 0 -8 17 -19c3,-2 5,-5 7,-7 2,-2 4,-5 5,-7 2,-2 3,-4 3,-6 1,-2 1,-5 1,-7 0,-2 0,-4 0,-6 -1,-1 -2,-2 -3,-3 -1,-1 -2,-2 -4,-3 -1,0 -3,-1 -4,-1 -4,0 -6,1 -9,2 -3,2 -5,3 -7,5l-5 -6c1,-1 2,-2 4,-3 1,-1 3,-2 5,-3 2,-1 4,-1 5,-2 2,0 5,0 7,0 3,0 6,0 8,1 3,1 5,2 7,4 2,2 3,4 4,6 1,3 2,5 2,8 0,3 -1,6 -2,9 0,2 -2,5 -3,7 -2,3 -4,5 -6,8 -2,2 -4,5 -7,8l-14 15 0 0 35 0 0 8z"/>
  <path id="6" fill="#534745" fill-rule="nonzero" d="M3956 2371l-46 0 0 -8 17 -19c3,-2 5,-5 7,-7 2,-2 4,-5 5,-7 1,-2 2,-4 3,-6 1,-2 1,-5 1,-7 0,-2 0,-4 -1,-6 0,-1 -1,-2 -2,-3 -1,-1 -2,-2 -4,-3 -1,0 -3,-1 -5,-1 -3,0 -6,1 -8,2 -3,2 -5,3 -8,5l-5 -6c2,-1 3,-2 5,-3 1,-1 3,-2 5,-3 1,-1 3,-1 5,-2 2,0 4,0 7,0 3,0 6,0 8,1 3,1 5,2 7,4 2,2 3,4 4,6 1,3 2,5 2,8 0,3 -1,6 -2,9 -1,2 -2,5 -3,7 -2,3 -4,5 -6,8 -2,2 -4,5 -7,8l-14 15 0 0 35 0 0 8z"/>
  <path fill="#534745" fill-rule="nonzero" d="M399 2544l24 0 0 36c-2,1 -3,1 -5,2 -2,0 -4,1 -6,1 -2,0 -4,1 -6,1 -3,0 -5,0 -7,0 -6,0 -10,-1 -14,-3 -4,-1 -8,-4 -11,-7 -2,-3 -5,-7 -6,-12 -1,-5 -2,-10 -2,-16 0,-6 1,-11 2,-16 2,-4 4,-8 7,-11 3,-4 7,-6 11,-8 5,-2 10,-3 16,-3 4,0 7,1 11,1 3,1 6,2 9,4l-3 8c-2,-1 -3,-1 -4,-2 -2,0 -3,-1 -5,-1 -1,-1 -3,-1 -4,-1 -2,0 -3,0 -5,0 -4,0 -8,0 -11,2 -3,1 -6,3 -8,5 -2,3 -3,6 -5,10 -1,3 -1,8 -1,12 0,5 0,9 1,12 1,4 3,7 5,10 2,2 4,4 7,6 4,1 7,2 12,2 1,0 3,0 4,0 1,0 2,-1 3,-1 1,0 2,0 3,0 1,0 2,-1 3,-1l0 -22 -15 0 0 -8z"/>
  <path id="1" fill="#534745" fill-rule="nonzero" d="M485 2531c0,3 -1,6 -2,9 0,3 -2,5 -4,7 -2,2 -5,4 -8,5 -4,2 -8,2 -13,2l-8 0 0 29 -9 0 0 -74 18 0c4,0 8,1 12,2 3,1 6,2 8,4 2,2 3,4 4,7 1,2 2,5 2,9zm-35 15l7 0c3,0 5,0 8,0 2,-1 4,-2 5,-3 2,-1 3,-3 4,-5 1,-2 1,-4 1,-7 0,-4 -1,-8 -4,-10 -3,-2 -7,-4 -13,-4l-8 0 0 29z"/>
  <polygon id="2" fill="#534745" fill-rule="nonzero" points="521,2583 494,2583 494,2578 503,2576 503,2517 494,2514 494,2509 521,2509 521,2514 512,2517 512,2576 521,2578 "/>
  <path id="3" fill="#534745" fill-rule="nonzero" d="M594 2546c0,6 0,11 -2,16 -1,4 -3,8 -6,12 -3,3 -6,6 -10,7 -4,2 -8,3 -14,3 -5,0 -10,-1 -14,-3 -4,-1 -7,-4 -10,-7 -2,-4 -4,-8 -6,-12 -1,-5 -2,-10 -2,-16 0,-6 1,-11 2,-16 2,-4 4,-8 6,-11 3,-4 6,-6 10,-8 4,-2 9,-3 14,-3 6,0 10,1 14,3 4,2 7,4 10,8 3,3 5,7 6,12 2,4 2,9 2,15zm-54 0c0,5 1,9 2,12 1,4 2,7 4,10 1,2 4,4 6,6 3,1 7,2 10,2 4,0 8,-1 10,-2 3,-2 5,-4 7,-6 2,-3 3,-6 4,-10 1,-3 1,-7 1,-12 0,-5 0,-9 -1,-12 -1,-4 -2,-7 -4,-10 -2,-2 -4,-4 -7,-5 -2,-2 -6,-3 -10,-3 -3,0 -7,1 -9,3 -3,1 -6,3 -7,5 -2,3 -3,6 -4,10 -1,3 -2,7 -2,12z"/>
  <polygon id="4" fill="#534745" fill-rule="nonzero" points="605,2560 605,2551 630,2551 630,2560 "/>
  <path id="5" fill="#534745" fill-rule="nonzero" d="M685 2583l-46 0 0 -8 17 -19c3,-3 5,-5 7,-7 2,-3 4,-5 5,-7 2,-2 3,-4 3,-7 1,-2 1,-4 1,-7 0,-2 0,-3 0,-5 -1,-1 -2,-3 -3,-4 -1,-1 -2,-2 -4,-2 -1,-1 -3,-1 -4,-1 -4,0 -7,1 -9,2 -3,1 -5,3 -7,5l-6 -6c2,-1 3,-2 5,-3 1,-1 3,-2 5,-3 2,-1 3,-2 5,-2 2,0 4,-1 7,-1 3,0 6,1 8,2 3,1 5,2 7,4 2,1 3,3 4,6 1,2 2,5 2,8 0,3 -1,6 -2,8 0,3 -2,5 -3,8 -2,2 -4,5 -6,7 -2,3 -4,5 -7,8l-14 15 0 1 35 0 0 8z"/>
  <path id="6" fill="#534745" fill-rule="nonzero" d="M739 2527c0,2 0,4 -1,6 -1,2 -2,4 -3,6 -2,1 -3,2 -5,3 -2,1 -4,2 -7,2l0 1c6,0 11,2 14,5 3,3 4,7 4,12 0,3 0,6 -1,9 -1,3 -3,5 -5,7 -2,2 -5,3 -9,4 -3,2 -7,2 -12,2 -3,0 -7,0 -10,-1 -3,0 -6,-1 -9,-3l0 -8c3,1 6,2 9,3 4,1 7,1 10,1 3,0 6,0 8,-1 2,0 4,-1 6,-3 1,-1 2,-2 3,-4 1,-2 1,-4 1,-6 0,-2 0,-4 -1,-6 -1,-2 -2,-3 -4,-4 -2,-1 -4,-2 -6,-2 -3,-1 -5,-1 -8,-1l-7 0 0 -8 7 0c3,0 5,0 7,-1 2,-1 4,-2 5,-3 2,-1 3,-2 4,-4 0,-2 1,-4 1,-6 0,-2 -1,-3 -1,-4 -1,-2 -2,-3 -3,-4 -1,-1 -2,-2 -4,-2 -1,-1 -3,-1 -5,-1 -3,0 -7,1 -9,2 -3,1 -6,2 -8,4l-5 -6c1,-1 3,-2 4,-3 2,-1 4,-2 6,-2 1,-1 3,-2 5,-2 3,0 5,-1 7,-1 4,0 7,1 10,2 2,1 5,2 7,3 1,2 3,4 4,6 1,3 1,5 1,8z"/>
  <path fill="#534745" fill-rule="nonzero" d="M3613 2545l24 0 0 36c-1,0 -3,1 -5,1 -2,1 -4,1 -6,2 -2,0 -4,0 -6,0 -2,1 -5,1 -7,1 -6,0 -10,-1 -14,-3 -4,-2 -8,-4 -11,-8 -2,-3 -5,-7 -6,-12 -1,-4 -2,-9 -2,-15 0,-6 1,-11 2,-16 2,-5 4,-9 7,-12 3,-3 7,-6 12,-7 4,-2 9,-3 15,-3 4,0 7,0 11,1 3,1 6,2 9,3l-3 8c-2,0 -3,-1 -4,-1 -2,-1 -3,-1 -5,-2 -1,0 -3,0 -4,0 -2,-1 -3,-1 -5,-1 -4,0 -8,1 -11,2 -3,2 -6,4 -8,6 -2,3 -3,6 -5,9 -1,4 -1,8 -1,13 0,4 0,8 1,12 1,3 3,6 5,9 2,3 4,5 7,6 4,2 7,2 12,2 1,0 3,0 4,0 1,0 2,0 3,0 1,0 2,0 3,-1 1,0 2,0 3,0l0 -22 -15 0 0 -8z"/>
  <path id="1" fill="#534745" fill-rule="nonzero" d="M3699 2531c0,4 -1,6 -1,9 -1,3 -3,6 -5,8 -2,2 -5,4 -8,5 -4,1 -8,2 -13,2l-8 0 0 29 -9 0 0 -74 18 0c5,0 8,0 12,1 3,1 6,3 8,5 2,1 3,4 4,6 1,3 2,6 2,9zm-35 16l7 0c3,0 5,0 8,-1 2,0 4,-1 5,-2 2,-2 3,-3 4,-5 1,-2 1,-4 1,-7 0,-5 -1,-8 -4,-11 -3,-2 -7,-3 -13,-3l-8 0 0 29z"/>
  <polygon id="2" fill="#534745" fill-rule="nonzero" points="3735,2584 3708,2584 3708,2578 3717,2576 3717,2517 3708,2515 3708,2510 3735,2510 3735,2515 3726,2517 3726,2576 3735,2578 "/>
  <path id="3" fill="#534745" fill-rule="nonzero" d="M3808 2547c0,5 0,11 -2,15 -1,5 -3,9 -6,12 -2,4 -6,6 -10,8 -4,2 -8,3 -14,3 -5,0 -10,-1 -14,-3 -4,-2 -7,-4 -10,-8 -2,-3 -4,-7 -6,-12 -1,-5 -2,-10 -2,-15 0,-6 1,-11 2,-16 2,-5 4,-9 6,-12 3,-3 6,-6 10,-8 4,-1 9,-2 15,-2 5,0 9,1 13,2 4,2 8,5 10,8 3,3 5,7 6,12 2,5 2,10 2,16zm-54 0c0,4 1,8 2,12 1,4 2,7 4,9 1,3 4,5 7,6 2,2 6,2 9,2 4,0 8,0 10,-2 3,-1 5,-3 7,-6 2,-2 3,-5 4,-9 1,-4 1,-8 1,-12 0,-5 0,-9 -1,-13 -1,-3 -2,-7 -4,-9 -2,-3 -4,-5 -7,-6 -2,-1 -6,-2 -9,-2 -4,0 -8,1 -10,2 -3,1 -5,3 -7,6 -2,2 -3,6 -4,9 -1,4 -2,8 -2,13z"/>
  <polygon id="4" fill="#534745" fill-rule="nonzero" points="3819,2560 3819,2552 3844,2552 3844,2560 "/>
  <path id="5" fill="#534745" fill-rule="nonzero" d="M3899 2584l-46 0 0 -8 17 -19c3,-3 5,-6 7,-8 2,-2 4,-4 5,-7 2,-2 3,-4 3,-6 1,-2 1,-5 1,-7 0,-2 0,-4 0,-5 -1,-2 -2,-3 -3,-4 -1,-1 -2,-2 -4,-2 -1,-1 -3,-1 -4,-1 -4,0 -6,0 -9,2 -3,1 -5,3 -7,5l-5 -6c1,-2 2,-3 4,-4 1,-1 3,-2 5,-3 2,0 4,-1 5,-1 2,-1 5,-1 7,-1 3,0 6,0 8,1 3,1 5,2 7,4 2,2 3,4 4,6 1,3 2,6 2,9 0,2 -1,5 -2,8 0,2 -2,5 -3,7 -2,3 -4,5 -6,8 -2,2 -4,5 -7,8l-14 15 0 0 35 0 0 9z"/>
  <polygon id="6" fill="#534745" fill-rule="nonzero" points="3919,2584 3947,2518 3909,2518 3909,2510 3957,2510 3957,2517 3929,2584 "/>
  <path fill="#534745" fill-rule="nonzero" d="M399 2757l24 0 0 36c-2,1 -3,1 -5,2 -2,0 -4,0 -6,1 -2,0 -4,0 -6,1 -3,0 -5,0 -7,0 -6,0 -10,-1 -14,-3 -4,-2 -8,-4 -11,-7 -2,-4 -5,-8 -6,-12 -1,-5 -2,-10 -2,-16 0,-6 1,-11 2,-16 2,-4 4,-8 7,-12 3,-3 7,-6 11,-7 5,-2 10,-3 16,-3 4,0 7,0 11,1 3,1 6,2 9,3l-3 9c-2,-1 -3,-2 -4,-2 -2,-1 -3,-1 -5,-1 -1,-1 -3,-1 -4,-1 -2,-1 -3,-1 -5,-1 -4,0 -8,1 -11,2 -3,2 -6,4 -8,6 -2,3 -3,6 -5,10 -1,3 -1,7 -1,12 0,4 0,8 1,12 1,4 3,7 5,9 2,3 4,5 7,6 4,2 7,3 12,3 1,0 3,-1 4,-1 1,0 2,0 3,0 1,0 2,0 3,0 1,-1 2,-1 3,-1l0 -22 -15 0 0 -8z"/>
  <path id="1" fill="#534745" fill-rule="nonzero" d="M485 2744c0,3 -1,6 -2,8 0,3 -2,6 -4,8 -2,2 -5,4 -8,5 -4,1 -8,2 -13,2l-8 0 0 29 -9 0 0 -74 18 0c4,0 8,1 12,2 3,0 6,2 8,4 2,2 3,4 4,6 1,3 2,6 2,10zm-35 15l7 0c3,0 5,0 8,-1 2,0 4,-1 5,-2 2,-2 3,-3 4,-5 1,-2 1,-4 1,-7 0,-5 -1,-8 -4,-10 -3,-3 -7,-4 -13,-4l-8 0 0 29z"/>
  <polygon id="2" fill="#534745" fill-rule="nonzero" points="521,2796 494,2796 494,2791 503,2789 503,2729 494,2727 494,2722 521,2722 521,2727 512,2729 512,2789 521,2791 "/>
  <path id="3" fill="#534745" fill-rule="nonzero" d="M594 2759c0,6 0,11 -2,15 -1,5 -3,9 -6,12 -3,4 -6,6 -10,8 -4,2 -8,3 -14,3 -5,0 -10,-1 -14,-3 -4,-2 -7,-4 -10,-8 -2,-3 -4,-7 -6,-12 -1,-4 -2,-10 -2,-15 0,-6 1,-11 2,-16 2,-4 4,-8 6,-12 3,-3 6,-6 10,-7 4,-2 9,-3 14,-3 6,0 10,1 14,3 4,1 7,4 10,7 3,4 5,8 6,12 2,5 2,10 2,16zm-54 0c0,4 1,9 2,12 1,4 2,7 4,10 1,2 4,4 6,5 3,2 7,3 10,3 4,0 8,-1 10,-3 3,-1 5,-3 7,-5 2,-3 3,-6 4,-10 1,-3 1,-8 1,-12 0,-5 0,-9 -1,-13 -1,-3 -2,-6 -4,-9 -2,-2 -4,-4 -7,-6 -2,-1 -6,-2 -10,-2 -3,0 -7,1 -9,2 -3,2 -6,4 -7,6 -2,3 -3,6 -4,9 -1,4 -2,8 -2,13z"/>
  <polygon id="4" fill="#534745" fill-rule="nonzero" points="605,2772 605,2764 630,2764 630,2772 "/>
  <path id="5" fill="#534745" fill-rule="nonzero" d="M670 2796l-9 0 0 -46c0,-2 0,-3 0,-5 0,-2 0,-3 0,-5 0,-1 0,-3 0,-5 0,-1 0,-2 0,-3 0,0 -1,1 -1,1 -1,1 -1,1 -2,1 0,1 -1,1 -1,2 -1,0 -1,1 -2,1l-7 6 -5 -6 19 -15 8 0 0 74z"/>
  <path id="6" fill="#534745" fill-rule="nonzero" d="M719 2721c3,0 6,0 8,1 3,1 5,2 7,3 2,2 3,4 4,6 1,2 2,5 2,8 0,2 0,4 -1,6 -1,2 -2,3 -3,5 -1,1 -2,2 -4,4 -2,1 -3,2 -5,3 2,1 4,2 5,3 2,1 4,3 5,4 2,2 3,4 4,6 1,2 1,4 1,7 0,3 0,5 -1,8 -2,2 -3,5 -5,6 -2,2 -5,3 -7,4 -3,1 -6,2 -10,2 -4,0 -7,-1 -10,-2 -3,0 -5,-2 -7,-3 -2,-2 -3,-4 -4,-7 -1,-2 -2,-5 -2,-8 0,-3 0,-5 1,-7 1,-2 2,-4 3,-5 2,-2 3,-3 5,-5 2,-1 3,-2 5,-3 -1,-1 -3,-2 -4,-3 -2,-2 -3,-3 -4,-4 -1,-2 -2,-4 -3,-5 0,-2 -1,-4 -1,-6 0,-3 1,-6 2,-8 1,-2 3,-4 5,-6 2,-1 4,-2 6,-3 3,-1 5,-1 8,-1zm-14 56c0,2 0,3 1,5 0,1 1,3 2,4 1,1 3,2 5,2 1,1 4,1 6,1 2,0 4,0 6,-1 2,0 4,-1 5,-2 1,-2 2,-3 3,-4 0,-2 0,-4 0,-5 0,-2 0,-4 -1,-5 0,-2 -1,-3 -2,-4 -2,-1 -3,-2 -5,-4 -2,-1 -4,-2 -6,-3l-1 0c-4,2 -8,4 -10,6 -2,3 -3,6 -3,10zm14 -48c-4,0 -6,1 -9,2 -2,2 -3,5 -3,8 0,2 1,4 1,5 1,1 2,3 3,4 1,1 2,2 3,2 2,1 4,2 5,3 2,-1 3,-2 5,-2 1,-1 3,-2 4,-3 1,-1 2,-3 2,-4 1,-2 1,-3 1,-5 0,-3 -1,-6 -3,-8 -2,-1 -5,-2 -9,-2z"/>
  <path fill="#534745" fill-rule="nonzero" d="M3613 2757l24 0 0 36c-1,1 -3,1 -5,2 -2,0 -4,1 -6,1 -2,0 -4,0 -6,1 -2,0 -5,0 -7,0 -6,0 -10,-1 -14,-3 -4,-2 -8,-4 -11,-7 -2,-4 -5,-8 -6,-12 -1,-5 -2,-10 -2,-16 0,-6 1,-11 2,-16 2,-4 4,-8 7,-12 3,-3 7,-5 12,-7 4,-2 9,-3 15,-3 4,0 7,0 11,1 3,1 6,2 9,3l-3 9c-2,-1 -3,-2 -4,-2 -2,-1 -3,-1 -5,-1 -1,-1 -3,-1 -4,-1 -2,-1 -3,-1 -5,-1 -4,0 -8,1 -11,2 -3,2 -6,4 -8,6 -2,3 -3,6 -5,10 -1,3 -1,7 -1,12 0,4 0,8 1,12 1,4 3,7 5,9 2,3 4,5 7,6 4,2 7,3 12,3 1,0 3,0 4,-1 1,0 2,0 3,0 1,0 2,0 3,0 1,-1 2,-1 3,-1l0 -22 -15 0 0 -8z"/>
  <path id="1" fill="#534745" fill-rule="nonzero" d="M3699 2744c0,3 -1,6 -1,9 -1,2 -3,5 -5,7 -2,2 -5,4 -8,5 -4,1 -8,2 -13,2l-8 0 0 29 -9 0 0 -74 18 0c5,0 8,1 12,2 3,1 6,2 8,4 2,2 3,4 4,7 1,2 2,5 2,9zm-35 15l7 0c3,0 5,0 8,-1 2,0 4,-1 5,-2 2,-1 3,-3 4,-5 1,-2 1,-4 1,-7 0,-5 -1,-8 -4,-10 -3,-3 -7,-4 -13,-4l-8 0 0 29z"/>
  <polygon id="2" fill="#534745" fill-rule="nonzero" points="3735,2796 3708,2796 3708,2791 3717,2789 3717,2729 3708,2727 3708,2722 3735,2722 3735,2727 3726,2729 3726,2789 3735,2791 "/>
  <path id="3" fill="#534745" fill-rule="nonzero" d="M3808 2759c0,6 0,11 -2,15 -1,5 -3,9 -6,12 -2,4 -6,6 -10,8 -4,2 -8,3 -14,3 -5,0 -10,-1 -14,-3 -4,-2 -7,-4 -10,-8 -2,-3 -4,-7 -6,-12 -1,-4 -2,-9 -2,-15 0,-6 1,-11 2,-16 2,-4 4,-8 6,-12 3,-3 6,-5 10,-7 4,-2 9,-3 15,-3 5,0 9,1 13,3 4,2 8,4 10,7 3,4 5,8 6,12 2,5 2,10 2,16zm-54 0c0,4 1,9 2,12 1,4 2,7 4,10 1,2 4,4 7,6 2,1 6,2 9,2 4,0 8,-1 10,-2 3,-2 5,-4 7,-6 2,-3 3,-6 4,-10 1,-3 1,-8 1,-12 0,-5 0,-9 -1,-13 -1,-3 -2,-6 -4,-9 -2,-2 -4,-4 -7,-6 -2,-1 -6,-2 -9,-2 -4,0 -8,1 -10,2 -3,2 -5,4 -7,6 -2,3 -3,6 -4,9 -1,4 -2,8 -2,13z"/>
  <polygon id="4" fill="#534745" fill-rule="nonzero" points="3819,2772 3819,2764 3844,2764 3844,2772 "/>
  <path id="5" fill="#534745" fill-rule="nonzero" d="M3884 2796l-9 0 0 -46c0,-2 0,-3 0,-5 0,-1 0,-3 0,-5 0,-1 0,-3 0,-4 0,-2 0,-3 0,-4 0,0 -1,1 -1,1 -1,1 -1,1 -2,1 0,1 -1,1 -1,2 0,0 -1,1 -2,1l-7 6 -5 -6 19 -15 8 0 0 74z"/>
  <polygon id="6" fill="#534745" fill-rule="nonzero" points="3919,2796 3947,2731 3909,2731 3909,2722 3957,2722 3957,2729 3929,2796 "/>
  <path fill="#534745" fill-rule="nonzero" d="M1675 2101l-28 -83 0 0c0,3 0,6 0,9 0,3 1,6 1,9 0,3 0,6 0,8l0 57 -12 0 0 -95 19 0 25 77 1 0 27 -77 17 0 0 95 -12 0 0 -58c0,-2 0,-5 0,-7 1,-3 1,-6 1,-9 0,-3 0,-6 0,-9l0 0 -29 83 -10 0z"/>
  <path id="1" fill="#534745" fill-rule="nonzero" d="M1808 2065c0,6 -1,11 -3,16 -1,4 -3,8 -6,11 -3,4 -6,6 -10,8 -4,1 -8,2 -13,2 -4,0 -8,-1 -12,-2 -4,-2 -7,-4 -10,-8 -2,-3 -5,-7 -6,-11 -2,-5 -2,-10 -2,-16 0,-6 0,-11 2,-16 1,-4 3,-8 6,-11 3,-3 6,-6 10,-7 4,-2 8,-3 13,-3 4,0 8,1 12,3 4,1 7,4 10,7 3,3 5,7 6,11 2,5 3,10 3,16zm-50 0c0,9 1,16 4,20 3,5 8,7 15,7 6,0 11,-2 14,-7 3,-4 4,-11 4,-20 0,-9 -1,-16 -4,-20 -3,-5 -8,-7 -15,-7 -6,0 -11,2 -14,7 -3,4 -4,11 -4,20z"/>
  <path id="2" fill="#534745" fill-rule="nonzero" d="M1871 2101l0 -46c0,-6 -2,-10 -4,-13 -2,-3 -6,-4 -10,-4 -4,0 -7,1 -9,2 -3,1 -5,3 -6,5 -1,2 -3,5 -3,8 -1,3 -1,7 -1,11l0 37 -12 0 0 -71 10 0 1 9 1 0c1,-2 2,-3 4,-5 1,-1 3,-2 5,-3 2,-1 3,-2 5,-2 2,-1 4,-1 7,-1 7,0 13,2 17,6 4,5 6,11 6,20l0 47 -11 0z"/>
  <polygon id="3" fill="#534745" fill-rule="nonzero" points="1915,2064 1924,2053 1943,2030 1956,2030 1931,2060 1958,2101 1945,2101 1923,2068 1916,2073 1916,2101 1904,2101 1904,2000 1916,2000 1916,2046 1915,2064 "/>
  <path id="4" fill="#534745" fill-rule="nonzero" d="M2045 2101l-28 -83 0 0c0,3 0,6 1,9 0,3 0,6 0,9 0,3 0,6 0,8l0 57 -12 0 0 -95 19 0 26 77 0 0 27 -77 18 0 0 95 -12 0 0 -58c0,-2 0,-5 0,-7 0,-3 0,-6 0,-9 0,-3 0,-6 1,-9l-1 0 -29 83 -10 0z"/>
  <path id="5" fill="#534745" fill-rule="nonzero" d="M2160 2101l-2 -10 -1 0c-1,2 -3,3 -4,5 -2,1 -3,2 -5,3 -2,1 -3,2 -6,2 -2,1 -4,1 -7,1 -3,0 -5,0 -8,-1 -2,-1 -5,-2 -6,-4 -2,-2 -4,-4 -5,-7 -1,-2 -1,-6 -1,-9 0,-7 2,-13 7,-17 5,-3 13,-5 23,-6l12 0 0 -5c0,-3 -1,-5 -1,-7 -1,-2 -2,-3 -3,-5 -1,-1 -2,-2 -4,-2 -2,-1 -4,-1 -6,-1 -4,0 -7,1 -10,2 -3,1 -6,2 -9,3l-4 -9c3,-1 7,-3 10,-4 4,-1 9,-2 13,-2 4,0 8,1 11,2 3,0 6,2 8,4 2,2 4,4 5,7 1,3 1,7 1,11l0 49 -8 0zm-22 -9c3,0 5,0 8,-1 2,-1 4,-2 5,-4 2,-1 3,-3 4,-6 1,-2 2,-5 2,-9l0 -6 -10 0c-3,0 -7,1 -9,2 -3,0 -5,1 -7,2 -1,2 -2,3 -3,5 -1,2 -1,4 -1,6 0,4 1,7 3,8 2,2 5,3 8,3z"/>
  <polygon id="6" fill="#534745" fill-rule="nonzero" points="2201,2064 2210,2053 2229,2030 2243,2030 2217,2060 2244,2101 2231,2101 2209,2068 2202,2073 2202,2101 2190,2101 2190,2000 2202,2000 2202,2046 2201,2064 "/>
  <path id="7" fill="#534745" fill-rule="nonzero" d="M2284 2102c-5,0 -9,-1 -13,-2 -4,-2 -7,-4 -10,-7 -3,-3 -5,-7 -6,-12 -2,-4 -3,-10 -3,-15 0,-6 1,-11 2,-16 2,-5 4,-9 6,-12 3,-3 6,-6 10,-7 3,-2 7,-3 12,-3 4,0 8,1 11,3 4,1 6,3 9,6 2,3 4,6 5,10 2,4 2,8 2,13l0 8 -45 0c1,8 2,14 6,18 3,4 8,6 14,6 3,0 5,0 6,-1 2,0 4,0 6,-1 2,0 3,0 5,-1 2,-1 3,-1 5,-2l0 10c-2,1 -3,2 -5,2 -2,1 -3,2 -5,2 -2,0 -4,1 -6,1 -2,0 -4,0 -6,0zm-2 -64c-5,0 -9,2 -12,5 -3,3 -5,8 -5,15l32 0c0,-3 0,-6 -1,-8 0,-3 -1,-5 -3,-7 -1,-1 -2,-3 -4,-4 -2,0 -5,-1 -7,-1z"/>
  <path id="8" fill="#534745" fill-rule="nonzero" d="M2370 2081c0,4 -1,7 -2,9 -1,3 -3,5 -6,7 -2,2 -5,3 -8,4 -3,1 -7,1 -11,1 -5,0 -9,0 -12,-1 -4,-1 -7,-2 -9,-3l0 -11c1,0 3,1 4,2 2,0 3,1 5,1 2,1 4,1 6,2 2,0 4,0 6,0 2,0 5,0 7,0 2,-1 3,-2 4,-2 2,-1 3,-2 3,-4 1,-1 1,-2 1,-4 0,-1 0,-2 -1,-4 0,-1 -1,-2 -2,-3 -1,-1 -3,-2 -5,-3 -2,-1 -4,-2 -7,-4 -3,-1 -6,-2 -9,-3 -2,-2 -4,-3 -6,-5 -2,-1 -3,-3 -4,-5 -1,-2 -1,-5 -1,-8 0,-3 0,-6 2,-8 1,-2 2,-4 5,-6 2,-1 4,-3 7,-3 3,-1 7,-2 10,-2 5,0 8,1 12,2 3,1 7,2 10,3l-4 10c-3,-2 -6,-3 -9,-4 -3,0 -6,-1 -9,-1 -4,0 -7,1 -9,2 -2,2 -3,4 -3,6 0,2 0,3 0,4 1,1 2,3 3,4 1,1 3,2 5,3 2,1 4,2 7,3 3,1 6,3 8,4 3,1 5,3 6,4 2,2 3,4 4,6 1,2 2,4 2,7z"/>
  <path id="9" fill="#534745" fill-rule="nonzero" d="M1648 2216l0 39 -12 0 0 -95 23 0c11,0 20,3 25,7 6,4 9,11 9,20 0,4 -1,7 -2,10 -1,3 -3,5 -4,7 -2,2 -4,4 -6,5 -3,2 -5,3 -7,4l26 42 -15 0 -22 -39 -15 0zm0 -10l10 0c4,0 7,-1 10,-1 3,-1 5,-2 7,-4 2,-1 3,-3 4,-5 0,-3 1,-5 1,-8 0,-3 -1,-6 -2,-8 0,-2 -2,-4 -4,-5 -1,-2 -4,-3 -6,-3 -3,-1 -6,-1 -10,-1l-10 0 0 35z"/>
  <path id="10" fill="#534745" fill-rule="nonzero" d="M1752 2255l-2 -10 -1 0c-1,2 -2,4 -4,5 -1,2 -3,3 -4,4 -2,1 -4,1 -6,2 -2,0 -5,0 -7,0 -3,0 -6,0 -8,-1 -3,-1 -5,-2 -7,-4 -2,-2 -3,-4 -4,-6 -1,-3 -2,-6 -2,-10 0,-7 3,-12 8,-16 5,-4 12,-6 22,-6l12 -1 0 -4c0,-3 0,-6 -1,-8 0,-1 -1,-3 -2,-4 -2,-1 -3,-2 -5,-3 -2,0 -3,-1 -6,-1 -3,0 -7,1 -10,2 -3,1 -6,2 -9,4l-4 -9c3,-2 7,-3 11,-5 4,-1 8,-1 12,-1 5,0 9,0 12,1 3,1 6,2 8,4 2,2 3,5 4,8 1,3 2,6 2,10l0 49 -9 0zm-21 -8c2,0 5,-1 7,-2 2,0 4,-2 6,-3 2,-2 3,-4 4,-7 1,-2 1,-5 1,-8l0 -7 -9 1c-4,0 -7,0 -10,1 -2,1 -5,2 -6,3 -2,1 -3,3 -4,4 0,2 -1,4 -1,6 0,4 1,7 4,9 2,2 4,3 8,3z"/>
  <path id="11" fill="#534745" fill-rule="nonzero" d="M1825 2236c0,3 0,6 -2,9 -1,2 -3,4 -5,6 -2,2 -5,3 -8,4 -4,1 -7,1 -12,1 -4,0 -8,0 -12,-1 -3,0 -6,-2 -9,-3l0 -11c2,1 3,1 5,2 1,1 3,1 5,2 2,0 4,1 6,1 1,0 3,1 5,1 3,0 5,-1 7,-1 2,-1 4,-1 5,-2 1,-1 2,-2 3,-3 0,-2 1,-3 1,-4 0,-2 -1,-3 -1,-4 -1,-1 -1,-2 -2,-3 -2,-1 -3,-2 -5,-4 -2,-1 -5,-2 -8,-3 -3,-1 -6,-3 -8,-4 -2,-1 -5,-3 -6,-4 -2,-2 -3,-4 -4,-6 -1,-2 -2,-5 -2,-7 0,-4 1,-6 2,-9 1,-2 3,-4 5,-5 2,-2 5,-3 8,-4 3,-1 6,-1 10,-1 4,0 8,0 12,1 3,1 6,2 9,4l-4 9c-2,-1 -5,-2 -8,-3 -3,-1 -6,-2 -9,-2 -4,0 -8,1 -10,3 -2,1 -3,3 -3,6 0,1 0,3 1,4 0,1 1,2 2,3 2,1 3,2 5,3 2,1 5,2 8,3 3,2 6,3 8,4 2,2 4,3 6,5 2,1 3,3 4,5 1,2 1,5 1,8z"/>
  <path id="12" fill="#534745" fill-rule="nonzero" d="M1901 2188c0,4 -1,8 -2,11 -1,4 -3,7 -6,10 -2,3 -6,5 -10,7 -5,1 -10,2 -17,2l-10 0 0 37 -12 0 0 -95 24 0c5,0 10,1 15,2 4,1 7,3 10,6 3,2 5,5 6,8 1,4 2,8 2,12zm-45 20l9 0c4,0 7,0 10,-1 3,-1 5,-2 7,-3 2,-2 4,-4 5,-6 1,-3 1,-6 1,-9 0,-6 -2,-11 -5,-14 -4,-3 -9,-4 -16,-4l-11 0 0 37z"/>
  <path id="13" fill="#534745" fill-rule="nonzero" d="M1931 2255l-12 0 0 -71 12 0 0 71zm-13 -90c0,-3 1,-5 2,-6 1,-1 3,-2 5,-2 1,0 2,0 3,1 1,0 1,0 2,1 1,1 1,1 1,2 1,1 1,2 1,4 0,2 -1,4 -2,5 -1,2 -3,2 -5,2 -2,0 -4,0 -5,-2 -1,-1 -2,-3 -2,-5z"/>
  <path id="14" fill="#534745" fill-rule="nonzero" d="M1967 2216l0 39 -12 0 0 -95 23 0c12,0 20,3 26,7 5,4 8,11 8,20 0,4 -1,7 -2,10 -1,3 -2,5 -4,7 -2,2 -4,4 -6,5 -2,2 -5,3 -7,4l26 42 -14 0 -23 -39 -15 0zm0 -10l11 0c3,0 7,-1 9,-1 3,-1 5,-2 7,-4 2,-1 3,-3 4,-5 1,-3 1,-5 1,-8 0,-3 0,-6 -1,-8 -1,-2 -3,-4 -4,-5 -2,-2 -4,-3 -7,-3 -3,-1 -6,-1 -10,-1l-10 0 0 35z"/>
  <path id="15" fill="#534745" fill-rule="nonzero" d="M2090 2219c0,6 -1,12 -3,16 -1,5 -3,9 -6,12 -3,3 -6,5 -10,7 -3,2 -8,2 -13,2 -4,0 -8,0 -12,-2 -4,-2 -7,-4 -10,-7 -2,-3 -5,-7 -6,-12 -2,-4 -2,-10 -2,-16 0,-5 0,-11 2,-15 1,-5 3,-9 6,-12 3,-3 6,-5 10,-7 4,-2 8,-2 13,-2 4,0 8,0 12,2 4,2 7,4 10,7 3,3 5,7 6,12 2,4 3,10 3,15zm-50 0c0,9 1,16 4,21 3,4 8,7 15,7 6,0 11,-3 14,-7 3,-5 4,-12 4,-21 0,-9 -1,-15 -4,-20 -3,-4 -8,-7 -14,-7 -7,0 -12,3 -15,7 -3,5 -4,11 -4,20z"/>
  <path id="16" fill="#534745" fill-rule="nonzero" d="M2140 2183c4,0 8,0 11,2 4,2 7,4 9,7 2,3 4,7 5,11 2,5 2,10 2,16 0,7 0,12 -2,16 -1,5 -3,9 -5,12 -2,3 -5,5 -9,7 -3,2 -7,2 -11,2 -2,0 -5,0 -7,0 -2,-1 -4,-2 -5,-3 -2,-1 -3,-2 -5,-3 -1,-1 -2,-3 -3,-4l-1 0 -2 9 -9 0 0 -101 12 0 0 25c0,1 0,3 0,4 0,2 0,4 0,5 0,2 0,4 -1,5l1 0c1,-1 2,-3 3,-4 2,-1 3,-2 5,-3 1,-1 3,-2 5,-3 2,0 5,0 7,0zm-2 9c-3,0 -6,1 -9,2 -2,1 -4,3 -5,5 -2,2 -3,5 -3,9 -1,3 -1,7 -1,11 0,5 0,9 1,12 0,3 1,6 3,9 1,2 3,4 5,5 3,1 6,2 9,2 6,0 10,-3 13,-7 3,-5 4,-12 4,-21 0,-9 -1,-15 -4,-20 -3,-4 -7,-7 -13,-7z"/>
  <path id="17" fill="#534745" fill-rule="nonzero" d="M2244 2219c0,6 -1,12 -2,16 -2,5 -4,9 -7,12 -2,3 -6,5 -9,7 -4,2 -9,2 -13,2 -5,0 -9,0 -13,-2 -3,-2 -7,-4 -9,-7 -3,-3 -5,-7 -7,-12 -1,-4 -2,-10 -2,-16 0,-5 1,-11 2,-15 2,-5 4,-9 6,-12 3,-3 6,-5 10,-7 4,-2 8,-2 13,-2 5,0 9,0 12,2 4,2 7,4 10,7 3,3 5,7 7,12 1,4 2,10 2,15zm-50 0c0,9 2,16 5,21 2,4 7,7 14,7 7,0 11,-3 14,-7 3,-5 5,-12 5,-21 0,-9 -2,-15 -5,-20 -3,-4 -8,-7 -14,-7 -7,0 -12,3 -15,7 -2,5 -4,11 -4,20z"/>
  <path id="18" fill="#534745" fill-rule="nonzero" d="M2284 2247c1,0 2,0 3,0 1,-1 1,-1 2,-1 1,0 2,0 3,0 1,0 1,-1 2,-1l0 9c-1,1 -2,1 -3,1 0,0 -1,1 -2,1 -1,0 -2,0 -4,0 -1,0 -2,0 -3,0 -3,0 -5,0 -7,-1 -3,0 -5,-2 -6,-3 -2,-2 -3,-4 -4,-7 -1,-3 -2,-7 -2,-11l0 -42 -10 0 0 -5 10 -4 5 -15 7 0 0 16 18 0 0 8 -18 0 0 42c0,4 1,7 2,9 2,3 4,4 7,4z"/>
  <path id="19" fill="#534745" fill-rule="nonzero" d="M2393 2160l13 0 -32 95 -12 0 -31 -95 12 0 19 60c2,4 3,8 4,12 1,3 1,7 2,10 1,-3 2,-7 3,-10 1,-4 2,-8 3,-12l19 -60z"/>
  <path id="20" fill="#534745" fill-rule="nonzero" d="M2468 2183c0,3 0,6 -1,8 -1,3 -3,5 -5,7 -1,2 -4,3 -6,5 -3,1 -5,2 -8,2l0 1c7,1 13,3 17,7 4,4 6,9 6,15 0,4 -1,8 -2,12 -1,3 -4,6 -6,9 -3,2 -7,4 -11,5 -5,2 -10,2 -16,2 -4,0 -9,0 -13,-1 -4,0 -8,-2 -12,-4l0 -11c4,2 8,4 12,5 5,1 9,1 13,1 4,0 7,0 10,-1 3,-1 6,-2 8,-4 1,-1 3,-3 4,-5 1,-3 1,-5 1,-8 0,-3 -1,-6 -2,-8 -1,-2 -2,-3 -5,-5 -2,-1 -4,-2 -7,-3 -3,0 -7,-1 -11,-1l-8 0 0 -10 8 0c4,0 7,0 10,-1 2,-1 5,-2 7,-4 1,-1 3,-3 4,-5 1,-3 1,-5 1,-8 0,-2 0,-4 -1,-6 -1,-1 -2,-3 -3,-4 -2,-1 -3,-2 -5,-3 -2,-1 -5,-1 -7,-1 -5,0 -9,1 -12,2 -4,2 -7,4 -10,6l-6 -8c1,-2 3,-3 5,-4 2,-1 4,-2 7,-3 2,-1 5,-2 7,-2 3,-1 6,-1 9,-1 4,0 9,1 12,2 4,1 7,3 9,5 2,2 4,4 5,7 2,3 2,6 2,10z"/>
  <path id="21" fill="#534745" fill-rule="nonzero" d="M2521 2192l-16 0 0 63 -12 0 0 -63 -12 0 0 -4 12 -4 0 -7c0,-4 1,-8 2,-11 1,-3 2,-6 4,-7 2,-2 4,-4 7,-4 3,-1 6,-1 9,-1 2,0 5,0 7,0 2,1 4,1 6,2l-3 9c-2,0 -3,-1 -5,-1 -1,0 -3,-1 -5,-1 -1,0 -3,1 -4,1 -1,0 -3,1 -3,2 -1,1 -2,3 -2,4 -1,2 -1,4 -1,7l0 7 16 0 0 8z"/>
  <path fill="#534745" fill-rule="nonzero" d="M2156 330l10 0 -25 74 -9 0 -25 -74 10 0 15 47c1,3 2,6 2,9 1,3 2,5 2,8 1,-3 1,-5 2,-8 1,-3 2,-6 3,-9l15 -47z"/>
  <path id="1" fill="#534745" fill-rule="nonzero" d="M2192 405c-3,0 -6,-1 -9,-2 -3,-1 -6,-2 -8,-5 -2,-2 -4,-5 -5,-8 -1,-4 -2,-8 -2,-13 0,-6 1,-10 2,-14 1,-4 3,-7 5,-9 3,-2 5,-4 8,-5 3,-1 6,-1 10,-1 2,0 5,0 7,0 3,1 5,2 7,3l-3 7c-1,0 -2,0 -3,-1 0,0 -1,0 -2,-1 -1,0 -2,0 -3,0 -1,0 -2,0 -3,0 -5,0 -9,1 -12,5 -2,3 -3,8 -3,15 0,8 1,13 3,16 3,3 6,5 11,5 3,0 6,0 8,-1 2,-1 4,-1 6,-2l0 8c-2,1 -4,2 -6,2 -2,1 -5,1 -8,1z"/>
  <path id="2" fill="#534745" fill-rule="nonzero" d="M2240 405c-3,0 -6,-1 -9,-2 -3,-1 -6,-2 -8,-5 -2,-2 -4,-5 -5,-8 -1,-4 -2,-8 -2,-13 0,-6 1,-10 2,-14 1,-4 3,-7 5,-9 2,-2 5,-4 8,-5 3,-1 6,-1 10,-1 2,0 5,0 7,0 3,1 5,2 7,3l-3 7c-1,0 -2,0 -3,-1 -1,0 -2,0 -3,-1 -1,0 -2,0 -3,0 -1,0 -2,0 -2,0 -6,0 -10,1 -12,5 -2,3 -4,8 -4,15 0,8 2,13 4,16 2,3 6,5 11,5 3,0 5,0 8,-1 2,-1 4,-1 6,-2l0 8c-2,1 -4,2 -6,2 -2,1 -5,1 -8,1z"/>
  <path fill="#534745" fill-rule="nonzero" d="M2053 3875l25 0 0 36c-2,1 -4,1 -6,2 -2,0 -4,0 -6,1 -2,0 -4,0 -6,0 -2,1 -5,1 -7,1 -5,0 -10,-1 -14,-3 -4,-2 -8,-4 -10,-7 -3,-4 -5,-8 -7,-12 -1,-5 -2,-10 -2,-16 0,-6 1,-11 2,-16 2,-5 4,-9 7,-12 3,-3 7,-6 12,-7 4,-2 9,-3 15,-3 4,0 7,0 11,1 3,1 6,2 9,3l-3 8c-1,0 -3,-1 -4,-1 -2,-1 -3,-1 -4,-1 -2,-1 -3,-1 -5,-1 -2,-1 -3,-1 -5,-1 -4,0 -7,1 -11,2 -3,2 -5,4 -8,6 -2,3 -3,6 -4,9 -1,4 -2,8 -2,13 0,4 0,8 1,12 1,3 3,7 5,9 2,3 4,5 8,6 3,2 7,2 11,2 2,0 3,0 4,0 1,0 2,0 4,0 1,0 2,0 2,0 1,-1 2,-1 3,-1l0 -22 -15 0 0 -8z"/>
  <path id="1" fill="#534745" fill-rule="nonzero" d="M2150 3914l-11 0 -35 -61 -1 0c1,2 1,5 1,7 0,3 0,5 0,7 0,3 0,5 0,7l0 40 -9 0 0 -74 11 0 35 61 1 0c-1,-3 -1,-5 -1,-8 0,-1 0,-2 0,-3 0,-1 0,-2 0,-4 0,-1 0,-2 0,-3 0,-1 0,-2 0,-3l0 -40 9 0 0 74z"/>
  <path id="2" fill="#534745" fill-rule="nonzero" d="M2224 3876c0,6 0,12 -2,16 -2,5 -4,9 -7,12 -3,3 -7,6 -11,7 -5,2 -10,3 -15,3l-19 0 0 -74 21 0c5,0 9,1 14,2 4,2 7,4 10,7 3,3 5,7 7,12 2,4 2,9 2,15zm-10 0c0,-4 0,-9 -1,-12 -1,-4 -3,-7 -5,-9 -2,-2 -5,-4 -8,-5 -3,-1 -6,-2 -10,-2l-10 0 0 58 8 0c9,0 15,-3 20,-8 4,-5 6,-12 6,-22z"/>
  <path fill="#534745" fill-rule="nonzero" d="M1614 348c0,2 0,4 -1,6 -1,2 -2,4 -3,6 -2,1 -4,2 -5,3 -2,1 -5,2 -7,2l0 1c6,0 10,2 14,5 3,3 4,7 4,12 0,3 0,6 -1,9 -2,3 -3,5 -5,7 -3,2 -5,3 -9,4 -3,1 -7,2 -12,2 -3,0 -7,0 -10,-1 -3,0 -6,-1 -9,-3l0 -9c3,2 6,3 9,4 4,1 7,1 10,1 3,0 6,0 8,-1 2,0 4,-1 6,-3 1,-1 2,-2 3,-4 1,-2 1,-4 1,-6 0,-3 -1,-4 -1,-6 -1,-2 -3,-3 -4,-4 -2,-1 -4,-2 -6,-2 -3,-1 -5,-1 -8,-1l-7 0 0 -8 7 0c2,0 5,0 7,-1 2,-1 4,-2 5,-3 2,-1 3,-3 4,-4 0,-2 1,-4 1,-6 0,-2 -1,-3 -1,-4 -1,-2 -2,-3 -3,-4 -1,-1 -2,-2 -4,-2 -1,-1 -3,-1 -5,-1 -4,0 -7,1 -10,2 -2,1 -5,2 -7,4l-5 -6c1,-1 3,-2 4,-3 2,-1 3,-2 5,-3 2,0 4,-1 6,-1 2,-1 5,-1 7,-1 4,0 7,1 9,2 3,1 6,2 7,3 2,2 4,4 5,6 0,2 1,5 1,8z"/>
  <path id="1" fill="#534745" fill-rule="nonzero" d="M1630 398c0,-1 0,-2 0,-3 1,-1 1,-2 2,-2 0,-1 1,-1 2,-1 0,-1 1,-1 2,-1 1,0 2,0 3,1 0,0 1,0 2,1 0,0 1,1 1,2 0,1 1,2 1,3 0,2 -1,3 -1,4 0,0 -1,1 -1,2 -1,0 -2,1 -2,1 -1,0 -2,0 -3,0 -1,0 -2,0 -2,0 -1,0 -2,-1 -2,-1 -1,-1 -1,-2 -2,-2 0,-1 0,-2 0,-4z"/>
  <path id="2" fill="#534745" fill-rule="nonzero" d="M1698 348c0,2 0,4 -1,6 -1,2 -2,4 -3,6 -1,1 -3,2 -5,3 -2,1 -4,2 -7,2l0 1c6,0 11,2 14,5 3,3 5,7 5,12 0,3 -1,6 -2,9 -1,3 -3,5 -5,7 -2,2 -5,3 -8,4 -4,1 -8,2 -12,2 -4,0 -7,0 -11,-1 -3,0 -6,-1 -9,-3l0 -9c3,2 6,3 10,4 3,1 6,1 9,1 4,0 6,0 9,-1 2,0 4,-1 5,-3 2,-1 3,-2 3,-4 1,-2 1,-4 1,-6 0,-3 0,-4 -1,-6 -1,-2 -2,-3 -4,-4 -1,-1 -3,-2 -6,-2 -2,-1 -5,-1 -8,-1l-7 0 0 -8 7 0c3,0 5,0 7,-1 3,-1 4,-2 6,-3 1,-1 2,-3 3,-4 1,-2 1,-4 1,-6 0,-2 0,-3 -1,-4 0,-2 -1,-3 -2,-4 -2,-1 -3,-2 -4,-2 -2,-1 -4,-1 -6,-1 -3,0 -6,1 -9,2 -3,1 -5,2 -8,4l-5 -6c2,-1 3,-2 5,-3 1,-1 3,-2 5,-3 2,0 4,-1 6,-1 2,-1 4,-1 6,-1 4,0 7,1 10,2 3,1 5,2 7,3 2,2 3,4 4,6 1,2 1,5 1,8z"/>
  <path id="3" fill="#534745" fill-rule="nonzero" d="M1755 330l10 0 -24 74 -10 0 -24 -74 10 0 15 47c1,3 1,6 2,9 1,3 2,5 2,8 1,-3 1,-5 2,-8 1,-3 2,-6 3,-9l14 -47z"/>
  <path fill="#534745" fill-rule="nonzero" d="M1876 360c4,0 7,0 10,1 3,1 5,2 7,4 2,2 4,4 5,7 1,3 2,6 2,9 0,4 -1,8 -2,11 -1,3 -3,5 -5,7 -2,3 -5,4 -8,5 -3,1 -7,2 -11,2 -2,0 -4,0 -6,0 -1,0 -3,-1 -4,-1 -2,0 -3,-1 -5,-1 -1,-1 -2,-1 -3,-2l0 -9c1,1 2,2 4,2 1,1 3,2 4,2 2,0 4,1 5,1 2,0 3,0 5,0 2,0 5,0 7,-1 2,0 4,-1 5,-3 2,-1 3,-3 4,-5 0,-2 1,-4 1,-7 0,-4 -2,-8 -5,-11 -3,-2 -7,-3 -13,-3 -1,0 -2,0 -3,0 -1,0 -2,0 -3,0 -1,0 -2,0 -3,0 -1,1 -2,1 -2,1l-5 -3 3 -35 35 0 0 9 -27 0 -2 21c1,0 2,-1 4,-1 2,0 4,0 6,0z"/>
  <path id="1" fill="#534745" fill-rule="nonzero" d="M1954 331l10 0 -24 74 -10 0 -24 -74 10 0 15 47c1,3 1,6 2,9 1,3 1,5 2,8 1,-3 1,-5 2,-8 1,-3 2,-6 3,-9l14 -47z"/>
  <g id="copper1">
   <line id="connector47pin" fill="none" fill-rule="nonzero" stroke="#2B2A29" stroke-width="16.7105" x1="2122" y1="212" x2="2122" y2= "0" />
   <line id="connector15pin" fill="none" fill-rule="nonzero" stroke="#2B2A29" stroke-width="16.7105" x1="1910" y1="212" x2="1910" y2= "0" />
   <line id="connector29pin" fill="none" fill-rule="nonzero" stroke="#2B2A29" stroke-width="16.7105" x1="1698" y1="212" x2="1698" y2= "0" />
   <line id="connector16pin" fill="none" fill-rule="nonzero" stroke="#2B2A29" stroke-width="16.7105" x1="1910" y1="212" x2="1910" y2= "0" />
   <line id="connector30pin" fill="none" fill-rule="nonzero" stroke="#2B2A29" stroke-width="16.7105" x1="1910" y1="212" x2="1910" y2= "0" />
   <line id="connector34pin" fill="none" fill-rule="nonzero" stroke="#2B2A29" stroke-width="16.7105" x1="1910" y1="212" x2="1910" y2= "0" />
   <line id="connector46pin" fill="none" fill-rule="nonzero" stroke="#2B2A29" stroke-width="16.7105" x1="2122" y1="4244" x2="2122" y2= "4032" />
   <line id="connector37pin" fill="none" fill-rule="nonzero" stroke="#2B2A29" stroke-width="16.7105" x1="2122" y1="4244" x2="2122" y2= "4032" />
   <line id="connector7pin" fill="none" fill-rule="nonzero" stroke="#2B2A29" stroke-width="16.7105" x1="2122" y1="4244" x2="2122" y2= "4032" />
   <line id="connector14pin" fill="none" fill-rule="nonzero" stroke="#2B2A29" stroke-width="16.7105" x1="2122" y1="4244" x2="2122" y2= "4032" />
   <line id="connector10pin" fill="none" fill-rule="nonzero" stroke="#2B2A29" stroke-width="16.7105" x1="2122" y1="4244" x2="2122" y2= "4032" />
   <line id="connector25pin" fill="none" fill-rule="nonzero" stroke="#2B2A29" stroke-width="16.7105" x1="2122" y1="4244" x2="2122" y2= "4032" />
   <line id="connector17pin" fill="none" fill-rule="nonzero" stroke="#2B2A29" stroke-width="16.7105" x1="2122" y1="4244" x2="2122" y2= "4032" />
   <line id="connector0pin" fill="none" fill-rule="nonzero" stroke="#2B2A29" stroke-width="16.7105" x1="2759" y1="212" x2="2759" y2= "0" />
   <line id="connector1pin" fill="none" fill-rule="nonzero" stroke="#2B2A29" stroke-width="16.7105" x1="2971" y1="212" x2="2971" y2= "0" />
   <line id="connector2pin" fill="none" fill-rule="nonzero" stroke="#2B2A29" stroke-width="16.7105" x1="3183" y1="212" x2="3183" y2= "0" />
   <line id="connector3pin" fill="none" fill-rule="nonzero" stroke="#2B2A29" stroke-width="16.7105" x1="3396" y1="212" x2="3396" y2= "0" />
   <line id="connector33pin" fill="none" fill-rule="nonzero" stroke="#2B2A29" stroke-width="16.7105" x1="1273" y1="212" x2="1273" y2= "0" />
   <line id="connector32pin" fill="none" fill-rule="nonzero" stroke="#2B2A29" stroke-width="16.7105" x1="1061" y1="212" x2="1061" y2= "0" />
   <line id="connector35pin" fill="none" fill-rule="nonzero" stroke="#2B2A29" stroke-width="16.7105" x1="424" y1="4244" x2="424" y2= "4032" />
   <line id="connector36pin" fill="none" fill-rule="nonzero" stroke="#2B2A29" stroke-width="16.7105" x1="637" y1="4244" x2="637" y2= "4032" />
   <line id="connector21pin" fill="none" fill-rule="nonzero" stroke="#2B2A29" stroke-width="16.7105" x1="1698" y1="212" x2="1698" y2= "0" />
   <line id="connector5pin" fill="none" fill-rule="nonzero" stroke="#2B2A29" stroke-width="16.7105" x1="0" y1="1910" x2="212" y2= "1910" />
   <line id="connector4pin" fill="none" fill-rule="nonzero" stroke="#2B2A29" stroke-width="16.7105" x1="0" y1="1698" x2="212" y2= "1698" />
   <line id="connector6pin" fill="none" fill-rule="nonzero" stroke="#2B2A29" stroke-width="16.7105" x1="0" y1="2122" x2="212" y2= "2122" />
   <line id="connector9pin" fill="none" fill-rule="nonzero" stroke="#2B2A29" stroke-width="16.7105" x1="0" y1="2547" x2="212" y2= "2547" />
   <line id="connector8pin" fill="none" fill-rule="nonzero" stroke="#2B2A29" stroke-width="16.7105" x1="0" y1="2334" x2="212" y2= "2334" />
   <line id="connector12pin" fill="none" fill-rule="nonzero" stroke="#2B2A29" stroke-width="16.7105" x1="0" y1="2971" x2="212" y2= "2971" />
   <line id="connector13pin" fill="none" fill-rule="nonzero" stroke="#2B2A29" stroke-width="16.7105" x1="0" y1="3183" x2="212" y2= "3183" />
   <line id="connector11pin" fill="none" fill-rule="nonzero" stroke="#2B2A29" stroke-width="16.7105" x1="0" y1="2759" x2="212" y2= "2759" />
   <line id="connector26pin" fill="none" fill-rule="nonzero" stroke="#2B2A29" stroke-width="16.7105" x1="4032" y1="2971" x2="4244" y2= "2971" />
   <line id="connector27pin" fill="none" fill-rule="nonzero" stroke="#2B2A29" stroke-width="16.7105" x1="4032" y1="3183" x2="4244" y2= "3183" />
   <line id="connector19pin" fill="none" fill-rule="nonzero" stroke="#2B2A29" stroke-width="16.7105" x1="4032" y1="1910" x2="4244" y2= "1910" />
   <line id="connector18pin" fill="none" fill-rule="nonzero" stroke="#2B2A29" stroke-width="16.7105" x1="4032" y1="1698" x2="4244" y2= "1698" />
   <line id="connector20pin" fill="none" fill-rule="nonzero" stroke="#2B2A29" stroke-width="16.7105" x1="4032" y1="2122" x2="4244" y2= "2122" />
   <line id="connector23pin" fill="none" fill-rule="nonzero" stroke="#2B2A29" stroke-width="16.7105" x1="4032" y1="2547" x2="4244" y2= "2547" />
   <line id="connector22pin" fill="none" fill-rule="nonzero" stroke="#2B2A29" stroke-width="16.7105" x1="4032" y1="2334" x2="4244" y2= "2334" />
   <line id="connector24pin" fill="none" fill-rule="nonzero" stroke="#2B2A29" stroke-width="16.7105" x1="4032" y1="2777" x2="4244" y2= "2777" />
   <line id="connector28pin" fill="none" fill-rule="nonzero" stroke="#2B2A29" stroke-width="16.7105" x1="4032" y1="3396" x2="4244" y2= "3396" />
   <line id="connector39pin" fill="none" fill-rule="nonzero" stroke="#2B2A29" stroke-width="16.7105" x1="0" y1="1273" x2="212" y2= "1273" />
   <line id="connector41pin" fill="none" fill-rule="nonzero" stroke="#2B2A29" stroke-width="16.7105" x1="4032" y1="1273" x2="4244" y2= "1273" />
   <line id="connector38pin" fill="none" fill-rule="nonzero" stroke="#2B2A29" stroke-width="16.7105" x1="0" y1="1061" x2="212" y2= "1061" />
   <line id="connector40pin" fill="none" fill-rule="nonzero" stroke="#2B2A29" stroke-width="16.7105" x1="4032" y1="1061" x2="4244" y2= "1061" />
   <line id="connector42pin" fill="none" fill-rule="nonzero" stroke="#2B2A29" stroke-width="16.7105" x1="2759" y1="4244" x2="2759" y2= "4032" />
   <line id="connector43pin" fill="none" fill-rule="nonzero" stroke="#2B2A29" stroke-width="16.7105" x1="2971" y1="4244" x2="2971" y2= "4032" />
   <line id="connector45pin" fill="none" fill-rule="nonzero" stroke="#2B2A29" stroke-width="16.7105" x1="3608" y1="4244" x2="3608" y2= "4032" />
   <line id="connector44pin" fill="none" fill-rule="nonzero" stroke="#2B2A29" stroke-width="16.7105" x1="3396" y1="4244" x2="3396" y2= "4032" />
   <line id="connector31pin" fill="none" fill-rule="nonzero" stroke="#2B2A29" stroke-width="16.7105" x1="2122" y1="4244" x2="2122" y2= "4032" />
  </g>
  <path fill="#534745" fill-rule="nonzero" d="M2770 405l-8 -23 -27 0 -9 23 -9 0 27 -74 9 0 27 74 -10 0zm-11 -31l-7 -22c-1,0 -1,-1 -1,-2 0,-1 -1,-2 -1,-3 0,-1 -1,-2 -1,-3 0,-1 -1,-2 -1,-3 0,1 0,2 -1,3 0,1 0,2 0,4 -1,1 -1,1 -1,2 -1,1 -1,2 -1,2l-7 22 21 0z"/>
  <path fill="#534745" fill-rule="nonzero" d="M2950 332l20 0c4,0 8,1 11,1 4,1 6,2 8,4 3,1 4,3 5,5 2,3 2,6 2,9 0,2 0,4 -1,6 -1,2 -1,3 -3,5 -1,1 -2,2 -4,3 -2,1 -4,2 -6,2l0 0c2,1 4,1 6,2 2,1 4,2 5,3 2,2 3,3 4,5 1,2 1,5 1,8 0,3 0,6 -1,9 -2,2 -3,5 -5,6 -2,2 -5,4 -8,5 -3,1 -6,1 -10,1l-24 0 0 -74zm9 32l13 0c2,0 5,-1 7,-1 2,-1 3,-1 4,-2 2,-1 2,-3 3,-4 0,-2 1,-3 1,-5 0,-4 -2,-7 -4,-9 -3,-2 -7,-3 -13,-3l-11 0 0 24zm0 8l0 26 14 0c2,0 5,0 7,-1 2,-1 4,-2 5,-3 1,-1 2,-2 2,-4 1,-2 1,-4 1,-6 0,-2 0,-3 -1,-5 0,-1 -1,-3 -2,-4 -2,-1 -3,-2 -5,-2 -2,-1 -5,-1 -8,-1l-13 0z"/>
  <path fill="#534745" fill-rule="nonzero" d="M3230 405l-8 -23 -28 0 -8 23 -10 0 28 -74 8 0 27 74 -9 0zm-11 -31l-8 -22c0,0 0,-1 -1,-2 0,-1 0,-2 0,-3 -1,-1 -1,-2 -1,-3 -1,-1 -1,-2 -1,-3 0,1 -1,2 -1,3 0,1 -1,2 -1,4 0,1 -1,1 -1,2 0,1 0,2 -1,2l-7 22 22 0z"/>
  <path fill="#534745" fill-rule="nonzero" d="M3409 332l20 0c5,0 9,1 12,1 3,1 6,2 8,4 2,1 4,3 5,5 1,3 2,6 2,9 0,2 -1,4 -1,6 -1,2 -2,3 -3,5 -1,1 -3,2 -5,3 -2,1 -4,2 -6,2l0 0c2,1 5,1 7,2 2,1 3,2 5,3 1,2 3,3 3,5 1,2 2,5 2,8 0,3 -1,6 -2,9 -1,2 -3,5 -5,6 -2,2 -4,4 -7,5 -3,1 -7,1 -10,1l-25 0 0 -74zm10 32l12 0c3,0 5,-1 7,-1 2,-1 4,-1 5,-2 1,-1 2,-3 2,-4 1,-2 1,-3 1,-5 0,-4 -1,-7 -4,-9 -2,-2 -6,-3 -12,-3l-11 0 0 24zm0 8l0 26 13 0c3,0 5,0 7,-1 2,-1 4,-2 5,-3 2,-1 2,-2 3,-4 0,-2 1,-4 1,-6 0,-2 -1,-3 -1,-5 -1,-1 -2,-3 -3,-4 -1,-1 -3,-2 -5,-2 -2,-1 -4,-1 -8,-1l-12 0z"/>
  <path fill="#999999" fill-rule="nonzero" d="M2849 546c0,3 -1,6 -2,8 -1,3 -3,5 -5,7 -2,2 -5,3 -8,4 -3,1 -6,1 -10,1 -4,0 -7,0 -11,-1 -3,0 -6,-1 -8,-2l0 -9c1,0 3,1 4,1 2,1 3,1 5,2 1,0 3,1 5,1 1,0 3,0 5,0 5,0 9,-1 12,-3 2,-2 3,-5 3,-9 0,-1 0,-3 0,-4 -1,-2 -2,-3 -3,-4 -1,-1 -3,-2 -5,-3 -2,-1 -4,-3 -8,-4 -2,-1 -5,-2 -7,-4 -2,-1 -4,-3 -6,-4 -1,-2 -2,-4 -3,-6 -1,-2 -1,-5 -1,-8 0,-3 1,-5 2,-8 1,-2 2,-4 4,-6 2,-1 5,-2 7,-3 3,-1 6,-2 9,-2 4,0 8,1 11,2 3,0 6,1 8,3l-3 7c-2,-1 -4,-1 -7,-2 -3,-1 -6,-1 -9,-1 -4,0 -7,1 -9,3 -2,1 -4,4 -4,7 0,2 1,4 1,5 1,2 2,3 3,4 1,1 2,2 4,3 2,1 5,2 7,3 3,2 6,3 8,4 3,1 5,3 6,4 2,2 3,4 4,6 0,2 1,5 1,8z"/>
  <path id="1" fill="#999999" fill-rule="nonzero" d="M2894 492l10 0 12 43c0,2 1,3 1,5 1,2 1,4 2,6 0,2 0,3 1,5 0,1 0,3 0,4 1,-1 1,-3 1,-4 0,-2 0,-3 1,-5 0,-2 0,-3 1,-5 0,-2 0,-3 1,-5l10 -44 10 0 -19 73 -9 0 -13 -47c-1,-2 -1,-4 -1,-5 -1,-2 -1,-4 -2,-5 0,-2 0,-4 -1,-6 0,2 -1,4 -1,5 0,2 -1,4 -1,6 0,2 -1,3 -1,5l-13 47 -9 0 -20 -73 10 0 12 44c0,2 0,3 1,5 0,2 0,3 1,5 0,2 0,3 0,5 1,1 1,3 1,4 0,-1 0,-3 1,-4 0,-2 0,-4 1,-5 0,-2 0,-4 1,-6 0,-2 0,-4 1,-5l11 -43z"/>
  <path id="2" fill="#999999" fill-rule="nonzero" d="M2980 565l-8 0 0 -46c0,-1 0,-3 0,-4 0,-2 0,-4 0,-5 0,-2 0,-4 0,-5 0,-2 0,-3 0,-4 -1,1 -1,1 -2,2 0,0 0,0 -1,1 0,0 -1,1 -1,1 -1,1 -1,1 -2,2l-8 6 -4 -6 19 -15 7 0 0 73z"/>
  <path fill="#999999" fill-rule="nonzero" d="M3266 546c0,3 0,6 -1,8 -1,3 -3,5 -5,7 -2,2 -5,3 -8,4 -3,1 -7,1 -10,1 -4,0 -8,0 -11,-1 -3,0 -6,-1 -8,-2l0 -9c1,0 2,1 4,1 1,1 3,1 4,2 2,0 4,1 5,1 2,0 4,0 5,0 6,0 10,-1 12,-3 3,-2 4,-5 4,-9 0,-1 0,-3 -1,-4 0,-2 -1,-3 -2,-4 -1,-1 -3,-2 -5,-3 -2,-1 -5,-3 -8,-4 -3,-1 -5,-2 -8,-4 -2,-1 -3,-3 -5,-4 -1,-2 -2,-4 -3,-6 -1,-2 -1,-5 -1,-8 0,-3 0,-5 2,-8 1,-2 2,-4 4,-6 2,-1 4,-2 7,-3 3,-1 6,-2 9,-2 4,0 8,1 11,2 3,0 6,1 8,3l-3 7c-2,-1 -5,-1 -7,-2 -3,-1 -6,-1 -9,-1 -4,0 -7,1 -9,3 -3,1 -4,4 -4,7 0,2 1,4 1,5 1,2 1,3 3,4 1,1 2,2 4,3 2,1 4,2 7,3 3,2 6,3 8,4 2,1 4,3 6,4 1,2 3,4 3,6 1,2 1,5 1,8z"/>
  <path id="1" fill="#999999" fill-rule="nonzero" d="M3312 492l10 0 11 43c1,2 1,3 2,5 0,2 1,4 1,6 1,2 1,3 1,5 1,1 1,3 1,4 0,-1 1,-3 1,-4 0,-2 0,-3 0,-5 1,-2 1,-3 1,-5 1,-2 1,-3 1,-5l10 -44 10 0 -18 73 -10 0 -12 -47c-1,-2 -1,-4 -2,-5 0,-2 -1,-4 -1,-5 0,-2 -1,-4 -1,-6 0,2 -1,4 -1,5 0,2 -1,4 -1,6 -1,2 -1,3 -2,5l-12 47 -9 0 -20 -73 10 0 11 44c1,2 1,3 2,5 0,2 0,3 0,5 1,2 1,3 1,5 0,1 1,3 1,4 0,-1 0,-3 0,-4 1,-2 1,-4 1,-5 1,-2 1,-4 1,-6 1,-2 1,-4 2,-5l11 -43z"/>
  <path id="2" fill="#999999" fill-rule="nonzero" d="M3413 565l-46 0 0 -8 18 -19c2,-3 5,-5 7,-7 2,-3 3,-5 5,-7 1,-2 2,-4 3,-6 1,-3 1,-5 1,-7 0,-2 0,-4 -1,-6 0,-1 -1,-2 -2,-4 -1,-1 -3,-1 -4,-2 -2,0 -3,-1 -5,-1 -3,0 -6,1 -9,2 -2,2 -5,3 -7,5l-5 -6c1,-1 3,-2 4,-3 2,-1 4,-2 5,-3 2,-1 4,-1 6,-2 2,0 4,-1 6,-1 3,0 6,1 9,2 3,1 5,2 7,4 1,1 3,4 4,6 1,2 1,5 1,8 0,3 0,6 -1,8 -1,3 -2,5 -4,8 -1,2 -3,5 -5,7 -2,3 -5,6 -7,8l-14 15 0 1 34 0 0 8z"/>
  <path fill="#534745" fill-rule="nonzero" d="M921 367c0,6 -1,11 -3,16 -1,5 -4,9 -7,12 -3,3 -6,5 -11,7 -4,1 -9,2 -15,2l-18 0 0 -74 20 0c5,0 10,1 14,3 4,1 8,4 11,7 3,3 5,7 6,11 2,4 3,10 3,16zm-10 0c0,-5 -1,-9 -2,-13 -1,-3 -3,-6 -5,-9 -2,-2 -4,-4 -7,-5 -4,-1 -7,-1 -11,-1l-10 0 0 57 8 0c9,0 16,-2 20,-7 5,-5 7,-12 7,-22z"/>
  <path id="1" fill="#534745" fill-rule="nonzero" d="M979 404l-8 -23 -27 0 -8 23 -10 0 27 -74 9 0 27 74 -10 0zm-11 -31l-7 -21c0,-1 -1,-2 -1,-3 0,0 -1,-1 -1,-2 0,-1 0,-2 -1,-4 0,-1 0,-2 -1,-3 0,1 0,2 0,3 -1,2 -1,3 -1,4 -1,1 -1,2 -1,2 0,1 -1,2 -1,3l-7 21 21 0z"/>
  <polygon id="2" fill="#534745" fill-rule="nonzero" points="1014,404 1005,404 1005,339 984,339 984,330 1035,330 1035,339 1014,339 "/>
  <path id="3" fill="#534745" fill-rule="nonzero" d="M1083 404l-8 -23 -27 0 -9 23 -9 0 27 -74 9 0 27 74 -10 0zm-11 -31l-7 -21c-1,-1 -1,-2 -1,-3 0,0 -1,-1 -1,-2 0,-1 -1,-2 -1,-4 0,-1 0,-2 -1,-3 0,1 0,2 -1,3 0,2 0,3 0,4 -1,1 -1,2 -1,2 -1,1 -1,2 -1,3l-7 21 21 0z"/>
  <path fill="#534745" fill-rule="nonzero" d="M1212 337c-4,0 -7,0 -10,2 -3,1 -5,3 -7,6 -2,2 -4,5 -5,9 -1,4 -2,8 -2,12 0,5 1,9 2,13 1,4 2,7 4,9 2,3 5,5 8,6 2,1 6,2 10,2 3,0 6,0 8,-1 3,-1 6,-1 8,-2l0 8c-1,1 -2,1 -4,2 -1,0 -2,0 -4,0 -1,1 -3,1 -4,1 -2,0 -4,0 -6,0 -5,0 -10,-1 -14,-3 -4,-1 -7,-4 -10,-7 -3,-4 -5,-8 -6,-12 -1,-5 -2,-10 -2,-16 0,-5 1,-10 2,-15 2,-5 4,-9 7,-12 3,-3 6,-6 10,-8 5,-2 9,-3 15,-3 3,0 7,1 10,2 4,0 6,1 9,3l-4 8c-2,-1 -4,-2 -7,-3 -2,-1 -5,-1 -8,-1z"/>
  <polygon id="1" fill="#534745" fill-rule="nonzero" points="1244,403 1244,329 1254,329 1254,395 1282,395 1282,403 "/>
  <path id="2" fill="#534745" fill-rule="nonzero" d="M1354 366c0,6 -1,11 -2,16 -1,4 -3,8 -6,12 -3,3 -6,6 -10,7 -4,2 -9,3 -14,3 -5,0 -10,-1 -14,-3 -4,-1 -7,-4 -10,-7 -3,-4 -5,-8 -6,-12 -1,-5 -2,-10 -2,-16 0,-6 1,-11 2,-15 1,-5 3,-9 6,-12 3,-4 6,-6 10,-8 4,-2 9,-3 14,-3 5,0 10,1 14,3 4,2 7,4 10,8 3,3 5,7 6,12 1,4 2,9 2,15zm-54 0c0,5 0,9 1,13 1,3 3,6 4,9 2,3 4,4 7,6 3,1 6,2 10,2 4,0 7,-1 10,-2 3,-2 5,-3 7,-6 2,-3 3,-6 4,-9 1,-4 1,-8 1,-13 0,-4 0,-9 -1,-12 -1,-4 -2,-7 -4,-10 -2,-2 -4,-4 -7,-5 -3,-2 -6,-2 -10,-2 -4,0 -7,0 -10,2 -3,1 -5,3 -7,5 -1,3 -3,6 -4,10 -1,3 -1,8 -1,12z"/>
  <path id="3" fill="#534745" fill-rule="nonzero" d="M1400 337c-3,0 -7,0 -9,2 -3,1 -6,3 -8,6 -2,2 -4,5 -5,9 -1,4 -1,8 -1,12 0,5 0,9 1,13 1,4 3,7 5,9 2,3 4,5 7,6 3,1 6,2 10,2 3,0 6,0 9,-1 3,-1 5,-1 8,-2l0 8c-2,1 -3,1 -4,2 -1,0 -3,0 -4,0 -2,1 -3,1 -5,1 -1,0 -3,0 -5,0 -6,0 -11,-1 -15,-3 -4,-1 -7,-4 -10,-7 -2,-4 -4,-8 -5,-12 -2,-5 -2,-10 -2,-16 0,-5 0,-10 2,-15 1,-5 3,-9 6,-12 3,-3 7,-6 11,-8 4,-2 9,-3 14,-3 4,0 7,1 11,2 3,0 6,1 9,3l-4 8c-2,-1 -5,-2 -7,-3 -3,-1 -6,-1 -9,-1z"/>
  <polygon id="4" fill="#534745" fill-rule="nonzero" points="1482,403 1472,403 1449,368 1442,374 1442,403 1433,403 1433,329 1442,329 1442,366 1448,358 1471,329 1481,329 1455,362 "/>
  <polygon fill="#999999" fill-rule="nonzero" points="1133,555 1107,555 1107,550 1115,548 1115,489 1107,486 1107,481 1133,481 1133,486 1125,489 1125,548 1133,550 "/>
  <path id="1" fill="#999999" fill-rule="nonzero" d="M1188 555l-46 0 0 -8 18 -19c2,-3 5,-5 7,-8 2,-2 3,-4 5,-6 1,-2 2,-4 3,-7 1,-2 1,-4 1,-7 0,-2 0,-3 -1,-5 0,-1 -1,-3 -2,-4 -1,-1 -3,-2 -4,-2 -2,-1 -3,-1 -5,-1 -3,0 -6,1 -9,2 -2,1 -5,3 -7,5l-5 -6c1,-1 3,-2 4,-3 2,-2 4,-2 5,-3 2,-1 4,-2 6,-2 2,0 4,-1 6,-1 3,0 6,1 9,2 3,1 5,2 7,4 1,1 3,3 4,6 1,2 1,5 1,8 0,3 0,6 -1,8 -1,3 -2,5 -4,8 -1,2 -3,5 -5,7 -3,3 -5,5 -7,8l-15 15 0 1 35 0 0 8z"/>
  <path id="2" fill="#999999" fill-rule="nonzero" d="M1234 489c-3,0 -7,0 -10,2 -3,1 -5,3 -7,5 -2,3 -4,6 -5,10 -1,3 -2,8 -2,12 0,5 1,9 2,13 1,3 2,7 4,9 2,3 5,4 8,6 3,1 6,2 10,2 3,0 6,-1 9,-1 2,-1 5,-1 8,-2l0 8c-2,1 -3,1 -4,1 -2,1 -3,1 -4,1 -2,1 -3,1 -5,1 -2,0 -3,0 -5,0 -6,0 -11,-1 -15,-3 -4,-2 -7,-4 -10,-7 -2,-4 -4,-8 -6,-12 -1,-5 -1,-10 -1,-16 0,-6 0,-11 2,-15 1,-5 3,-9 6,-12 3,-4 6,-6 11,-8 4,-2 9,-3 14,-3 4,0 7,1 11,1 3,1 6,2 8,4l-3 7c-3,-1 -5,-2 -7,-2 -3,-1 -6,-1 -9,-1z"/>
  <polygon fill="#534745" fill-rule="nonzero" points="305,3965 296,3965 296,3900 275,3900 275,3891 326,3891 326,3900 305,3900 "/>
  <path id="1" fill="#534745" fill-rule="nonzero" d="M347 3935l0 30 -9 0 0 -74 17 0c9,0 16,2 20,5 5,4 7,9 7,16 0,3 -1,6 -2,8 0,2 -1,4 -3,5 -1,2 -3,3 -4,4 -2,1 -4,2 -6,3l20 33 -11 0 -18 -30 -11 0zm0 -8l8 0c3,0 6,-1 8,-1 2,-1 4,-2 5,-3 1,-1 2,-3 3,-4 0,-2 1,-4 1,-6 0,-3 -1,-5 -1,-7 -1,-1 -2,-3 -3,-4 -2,-1 -3,-1 -6,-2 -2,0 -4,-1 -7,-1l-8 0 0 28z"/>
  <polygon id="2" fill="#534745" fill-rule="nonzero" points="419,3965 393,3965 393,3960 401,3958 401,3898 393,3896 393,3891 419,3891 419,3896 411,3898 411,3958 419,3960 "/>
  <path id="3" fill="#534745" fill-rule="nonzero" d="M462 3926l24 0 0 36c-2,1 -4,1 -5,2 -2,0 -4,1 -6,1 -2,0 -4,1 -7,1 -2,0 -4,0 -7,0 -5,0 -10,-1 -14,-3 -4,-1 -7,-4 -10,-7 -3,-4 -5,-7 -6,-12 -2,-5 -2,-10 -2,-16 0,-6 0,-11 2,-16 2,-4 4,-8 7,-12 3,-3 7,-5 11,-7 5,-2 10,-3 16,-3 3,0 7,1 10,1 4,1 7,2 10,4l-4 8c-1,-1 -2,-1 -4,-2 -1,0 -2,-1 -4,-1 -1,-1 -3,-1 -4,-1 -2,0 -4,0 -5,0 -4,0 -8,0 -11,2 -3,1 -6,3 -8,5 -2,3 -4,6 -5,10 -1,3 -1,8 -1,12 0,4 0,8 1,12 1,4 2,7 4,9 2,3 5,5 8,7 3,1 7,2 12,2 1,0 2,0 4,0 1,0 2,-1 3,-1 1,0 2,0 3,0 1,0 2,-1 3,-1l0 -22 -15 0 0 -8z"/>
  <polygon fill="#534745" fill-rule="nonzero" points="638,3964 600,3964 600,3890 638,3890 638,3899 609,3899 609,3921 636,3921 636,3930 609,3930 609,3956 638,3956 "/>
  <path id="1" fill="#534745" fill-rule="nonzero" d="M684 3897c-4,0 -7,1 -10,3 -3,1 -5,3 -7,5 -2,3 -4,6 -5,10 -1,3 -2,8 -2,12 0,5 1,9 2,13 1,3 2,6 4,9 2,3 5,4 8,6 3,1 6,2 10,2 3,0 6,-1 8,-1 3,-1 6,-1 8,-2l0 8c-1,0 -2,1 -4,1 -1,1 -2,1 -4,1 -1,0 -3,1 -4,1 -2,0 -4,0 -6,0 -5,0 -10,-1 -14,-3 -4,-2 -7,-4 -10,-7 -3,-4 -5,-8 -6,-12 -1,-5 -2,-10 -2,-16 0,-6 1,-11 2,-15 2,-5 4,-9 7,-12 3,-4 6,-6 10,-8 5,-2 9,-3 15,-3 4,0 7,1 10,1 4,1 7,2 9,4l-4 7c-2,-1 -4,-2 -7,-2 -2,-1 -5,-2 -8,-2z"/>
  <polygon id="2" fill="#534745" fill-rule="nonzero" points="769,3964 759,3964 759,3930 726,3930 726,3964 716,3964 716,3890 726,3890 726,3921 759,3921 759,3890 769,3890 "/>
  <path id="3" fill="#534745" fill-rule="nonzero" d="M849 3927c0,6 -1,11 -2,16 -2,4 -4,8 -6,12 -3,3 -6,5 -10,7 -4,2 -9,3 -14,3 -6,0 -10,-1 -14,-3 -4,-2 -8,-4 -10,-7 -3,-4 -5,-8 -6,-12 -2,-5 -2,-10 -2,-16 0,-6 0,-11 2,-16 1,-4 3,-8 6,-12 2,-3 6,-5 10,-7 4,-2 8,-3 14,-3 5,0 10,1 14,3 4,2 7,4 10,7 2,4 4,8 6,12 1,5 2,10 2,16zm-54 0c0,5 0,9 1,12 1,4 2,7 4,10 2,2 4,4 7,6 3,1 6,2 10,2 4,0 7,-1 10,-2 2,-2 5,-4 7,-6 1,-3 3,-6 3,-10 1,-3 2,-7 2,-12 0,-5 -1,-9 -2,-12 0,-4 -2,-7 -3,-10 -2,-2 -4,-4 -7,-6 -3,-1 -6,-2 -10,-2 -4,0 -7,1 -10,2 -3,2 -5,4 -7,6 -2,3 -3,6 -4,10 -1,3 -1,7 -1,12z"/>
  <polygon fill="#999999" fill-rule="nonzero" points="551,3815 524,3815 524,3810 533,3808 533,3749 524,3746 524,3741 551,3741 551,3746 542,3749 542,3808 551,3810 "/>
  <path id="1" fill="#999999" fill-rule="nonzero" d="M606 3815l-46 0 0 -8 17 -19c3,-3 5,-5 7,-8 2,-2 4,-4 5,-6 2,-2 3,-4 3,-7 1,-2 2,-4 2,-7 0,-2 -1,-3 -1,-5 -1,-1 -2,-3 -3,-4 -1,-1 -2,-2 -4,-2 -1,-1 -3,-1 -4,-1 -4,0 -6,1 -9,2 -3,1 -5,3 -7,5l-5 -6c1,-1 2,-2 4,-3 1,-2 3,-2 5,-3 2,-1 4,-2 6,-2 2,0 4,-1 6,-1 3,0 6,1 9,2 2,1 4,2 6,4 2,1 3,3 4,6 1,2 2,5 2,8 0,3 -1,6 -1,8 -1,3 -3,5 -4,8 -2,2 -4,5 -6,7 -2,3 -4,5 -7,8l-14 15 0 1 35 0 0 8z"/>
  <path id="2" fill="#999999" fill-rule="nonzero" d="M652 3749c-4,0 -7,0 -10,2 -3,1 -5,3 -8,5 -2,3 -3,6 -4,10 -1,3 -2,8 -2,12 0,5 1,9 2,13 0,3 2,7 4,9 2,3 4,4 7,6 3,1 7,2 11,2 3,0 6,-1 8,-1 3,-1 6,-1 8,-2l0 8c-1,1 -2,1 -4,1 -1,1 -2,1 -4,1 -1,1 -3,1 -4,1 -2,0 -4,0 -6,0 -5,0 -10,-1 -14,-3 -4,-2 -7,-4 -10,-7 -3,-4 -5,-8 -6,-12 -1,-5 -2,-10 -2,-16 0,-6 1,-11 2,-15 2,-5 4,-9 7,-12 3,-4 6,-6 10,-8 4,-2 9,-3 15,-3 3,0 7,1 10,1 3,1 6,2 9,4l-4 7c-2,-1 -4,-2 -7,-2 -2,-1 -5,-1 -8,-1z"/>
  <path fill="#534745" fill-rule="nonzero" d="M399 2962l24 0 0 36c-2,1 -3,1 -5,2 -2,0 -4,1 -6,1 -2,0 -4,0 -6,1 -3,0 -5,0 -7,0 -6,0 -10,-1 -14,-3 -4,-2 -8,-4 -11,-7 -2,-4 -5,-8 -6,-12 -1,-5 -2,-10 -2,-16 0,-6 1,-11 2,-16 2,-4 4,-8 7,-12 3,-3 7,-6 11,-7 5,-2 10,-3 16,-3 4,0 7,0 11,1 3,1 6,2 9,3l-3 9c-2,-1 -3,-2 -4,-2 -2,-1 -3,-1 -5,-1 -1,-1 -3,-1 -4,-1 -2,-1 -3,-1 -5,-1 -4,0 -8,1 -11,2 -3,2 -6,4 -8,6 -2,3 -3,6 -5,10 -1,3 -1,7 -1,12 0,4 0,8 1,12 1,4 3,7 5,9 2,3 4,5 7,6 4,2 7,3 12,3 1,0 3,0 4,-1 1,0 2,0 3,0 1,0 2,0 3,0 1,-1 2,-1 3,-1l0 -22 -15 0 0 -8z"/>
  <path id="1" fill="#534745" fill-rule="nonzero" d="M485 2949c0,3 -1,6 -2,8 0,3 -2,6 -4,8 -2,2 -5,4 -8,5 -4,1 -8,2 -13,2l-8 0 0 29 -9 0 0 -74 18 0c4,0 8,1 12,2 3,1 6,2 8,4 2,2 3,4 4,7 1,2 2,5 2,9zm-35 15l7 0c3,0 5,0 8,-1 2,0 4,-1 5,-2 2,-1 3,-3 4,-5 1,-2 1,-4 1,-7 0,-5 -1,-8 -4,-10 -3,-3 -7,-4 -13,-4l-8 0 0 29z"/>
  <polygon id="2" fill="#534745" fill-rule="nonzero" points="521,3001 494,3001 494,2996 503,2994 503,2934 494,2932 494,2927 521,2927 521,2932 512,2934 512,2994 521,2996 "/>
  <path id="3" fill="#534745" fill-rule="nonzero" d="M594 2964c0,6 0,11 -2,15 -1,5 -3,9 -6,12 -3,4 -6,6 -10,8 -4,2 -8,3 -14,3 -5,0 -10,-1 -14,-3 -4,-2 -7,-4 -10,-8 -2,-3 -4,-7 -6,-12 -1,-4 -2,-10 -2,-15 0,-6 1,-11 2,-16 2,-4 4,-8 6,-12 3,-3 6,-6 10,-7 4,-2 9,-3 14,-3 6,0 10,1 14,3 4,1 7,4 10,7 3,4 5,8 6,12 2,5 2,10 2,16zm-54 0c0,4 1,9 2,12 1,4 2,7 4,10 1,2 4,4 6,6 3,1 7,2 10,2 4,0 8,-1 10,-2 3,-2 5,-4 7,-6 2,-3 3,-6 4,-10 1,-3 1,-8 1,-12 0,-5 0,-9 -1,-13 -1,-3 -2,-6 -4,-9 -2,-2 -4,-4 -7,-6 -2,-1 -6,-2 -10,-2 -3,0 -7,1 -9,2 -3,2 -6,4 -7,6 -2,3 -3,6 -4,9 -1,4 -2,8 -2,13z"/>
  <polygon id="4" fill="#534745" fill-rule="nonzero" points="605,2977 605,2969 630,2969 630,2977 "/>
  <path id="5" fill="#534745" fill-rule="nonzero" d="M670 3001l-9 0 0 -46c0,-2 0,-3 0,-5 0,-2 0,-3 0,-5 0,-1 0,-3 0,-4 0,-2 0,-3 0,-4 0,0 -1,1 -1,1 -1,1 -1,1 -2,1 0,1 -1,1 -1,2 -1,0 -1,1 -2,1l-7 6 -5 -6 19 -15 8 0 0 74z"/>
  <path id="6" fill="#534745" fill-rule="nonzero" d="M718 2956c3,0 7,0 9,1 3,1 6,2 8,4 2,2 4,4 5,7 1,3 2,6 2,9 0,4 -1,7 -2,10 -1,4 -3,6 -5,8 -2,2 -5,4 -8,5 -4,1 -7,2 -12,2 -1,0 -3,0 -5,0 -1,-1 -3,-1 -5,-1 -1,0 -3,-1 -4,-1 -1,-1 -3,-1 -4,-2l0 -9c1,1 3,2 4,2 2,1 3,1 5,2 2,0 3,0 5,1 2,0 3,0 5,0 2,0 5,0 7,-1 2,-1 3,-2 5,-3 1,-1 3,-3 3,-5 1,-2 1,-4 1,-7 0,-5 -1,-8 -4,-11 -3,-2 -7,-4 -13,-4 -1,0 -2,0 -3,1 -1,0 -2,0 -3,0 -1,0 -2,0 -3,0 -1,0 -2,1 -3,1l-4 -3 3 -35 34 0 0 8 -26 0 -2 22c1,-1 2,-1 4,-1 2,0 4,0 6,0z"/>
  <path fill="#534745" fill-rule="nonzero" d="M3613 2962l24 0 0 37c-1,0 -3,1 -5,1 -2,1 -4,1 -6,1 -2,1 -4,1 -6,1 -2,0 -5,0 -7,0 -6,0 -10,0 -14,-2 -4,-2 -8,-5 -11,-8 -2,-3 -5,-7 -6,-12 -1,-4 -2,-10 -2,-16 0,-5 1,-11 2,-15 2,-5 4,-9 7,-12 3,-3 7,-6 12,-8 4,-1 9,-2 15,-2 4,0 7,0 11,1 3,0 6,2 9,3l-3 8c-2,0 -3,-1 -4,-1 -2,-1 -3,-1 -5,-2 -1,0 -3,0 -4,-1 -2,0 -3,0 -5,0 -4,0 -8,1 -11,2 -3,1 -6,3 -8,6 -2,2 -3,5 -5,9 -1,4 -1,8 -1,13 0,4 0,8 1,11 1,4 3,7 5,10 2,2 4,5 7,6 4,1 7,2 12,2 1,0 3,0 4,0 1,0 2,0 3,0 1,0 2,-1 3,-1 1,0 2,0 3,0l0 -22 -15 0 0 -9z"/>
  <path id="1" fill="#534745" fill-rule="nonzero" d="M3699 2949c0,3 -1,6 -1,9 -1,3 -3,5 -5,8 -2,2 -5,3 -8,5 -4,1 -8,2 -13,2l-8 0 0 28 -9 0 0 -73 18 0c5,0 8,0 12,1 3,1 6,2 8,4 2,2 3,4 4,7 1,3 2,6 2,9zm-35 16l7 0c3,0 5,-1 8,-1 2,-1 4,-2 5,-3 2,-1 3,-2 4,-4 1,-2 1,-5 1,-7 0,-5 -1,-9 -4,-11 -3,-2 -7,-3 -13,-3l-8 0 0 29z"/>
  <polygon id="2" fill="#534745" fill-rule="nonzero" points="3735,3001 3708,3001 3708,2996 3717,2994 3717,2935 3708,2933 3708,2928 3735,2928 3735,2933 3726,2935 3726,2994 3735,2996 "/>
  <path id="3" fill="#534745" fill-rule="nonzero" d="M3808 2964c0,6 0,11 -2,16 -1,5 -3,9 -6,12 -2,3 -6,6 -10,8 -4,1 -8,2 -14,2 -5,0 -10,-1 -14,-2 -4,-2 -7,-5 -10,-8 -2,-3 -4,-7 -6,-12 -1,-5 -2,-10 -2,-16 0,-5 1,-11 2,-15 2,-5 4,-9 6,-12 3,-3 6,-6 10,-8 4,-2 9,-2 15,-2 5,0 9,0 13,2 4,2 8,5 10,8 3,3 5,7 6,12 2,4 2,10 2,15zm-54 0c0,5 1,9 2,13 1,4 2,7 4,9 1,3 4,5 7,6 2,1 6,2 9,2 4,0 8,-1 10,-2 3,-1 5,-3 7,-6 2,-2 3,-5 4,-9 1,-4 1,-8 1,-13 0,-4 0,-8 -1,-12 -1,-4 -2,-7 -4,-9 -2,-3 -4,-5 -7,-6 -2,-2 -6,-2 -9,-2 -4,0 -8,0 -10,2 -3,1 -5,3 -7,6 -2,2 -3,5 -4,9 -1,4 -2,8 -2,12z"/>
  <polygon id="4" fill="#534745" fill-rule="nonzero" points="3819,2978 3819,2969 3844,2969 3844,2978 "/>
  <path id="5" fill="#534745" fill-rule="nonzero" d="M3903 2985l-11 0 0 16 -9 0 0 -16 -34 0 0 -8 34 -50 9 0 0 49 11 0 0 9zm-20 -9l0 -17c0,-2 0,-4 0,-6 0,-2 0,-4 0,-6 0,-2 1,-4 1,-6 0,-2 0,-3 0,-4l-1 0c0,0 0,1 -1,2 0,1 0,2 -1,2 0,1 -1,2 -1,3 0,1 -1,1 -1,2l-21 30 25 0z"/>
  <path fill="#534745" fill-rule="nonzero" d="M399 3175l24 0 0 36c-2,0 -3,1 -5,1 -2,1 -4,1 -6,2 -2,0 -4,0 -6,0 -3,0 -5,1 -7,1 -6,0 -10,-1 -14,-3 -4,-2 -8,-4 -11,-8 -2,-3 -5,-7 -6,-12 -1,-4 -2,-10 -2,-15 0,-6 1,-11 2,-16 2,-5 4,-9 7,-12 3,-3 7,-6 11,-8 5,-1 10,-2 16,-2 4,0 7,0 11,1 3,1 6,2 9,3l-3 8c-2,0 -3,-1 -4,-1 -2,-1 -3,-1 -5,-2 -1,0 -3,0 -4,-1 -2,0 -3,0 -5,0 -4,0 -8,1 -11,2 -3,1 -6,3 -8,6 -2,3 -3,6 -5,9 -1,4 -1,8 -1,13 0,4 0,8 1,12 1,3 3,6 5,9 2,3 4,5 7,6 4,2 7,2 12,2 1,0 3,0 4,0 1,0 2,0 3,0 1,0 2,0 3,-1 1,0 2,0 3,0l0 -22 -15 0 0 -8z"/>
  <path id="1" fill="#534745" fill-rule="nonzero" d="M485 3161c0,3 -1,6 -2,9 0,3 -2,6 -4,8 -2,2 -5,4 -8,5 -4,1 -8,2 -13,2l-8 0 0 29 -9 0 0 -74 18 0c4,0 8,0 12,1 3,1 6,3 8,4 2,2 3,5 4,7 1,3 2,6 2,9zm-35 16l7 0c3,0 5,0 8,-1 2,-1 4,-1 5,-3 2,-1 3,-2 4,-4 1,-2 1,-4 1,-7 0,-5 -1,-8 -4,-11 -3,-2 -7,-3 -13,-3l-8 0 0 29z"/>
  <polygon id="2" fill="#534745" fill-rule="nonzero" points="521,3214 494,3214 494,3208 503,3206 503,3147 494,3145 494,3140 521,3140 521,3145 512,3147 512,3206 521,3208 "/>
  <path id="3" fill="#534745" fill-rule="nonzero" d="M594 3177c0,5 0,10 -2,15 -1,5 -3,9 -6,12 -3,3 -6,6 -10,8 -4,2 -8,3 -14,3 -5,0 -10,-1 -14,-3 -4,-2 -7,-5 -10,-8 -2,-3 -4,-7 -6,-12 -1,-5 -2,-10 -2,-15 0,-6 1,-11 2,-16 2,-5 4,-9 6,-12 3,-3 6,-6 10,-8 4,-1 9,-2 14,-2 6,0 10,1 14,2 4,2 7,5 10,8 3,3 5,7 6,12 2,5 2,10 2,16zm-54 0c0,4 1,8 2,12 1,4 2,7 4,9 1,3 4,5 6,6 3,2 7,2 10,2 4,0 8,0 10,-2 3,-1 5,-3 7,-6 2,-2 3,-5 4,-9 1,-4 1,-8 1,-12 0,-5 0,-9 -1,-13 -1,-4 -2,-7 -4,-9 -2,-3 -4,-5 -7,-6 -2,-1 -6,-2 -10,-2 -3,0 -7,1 -9,2 -3,1 -6,3 -7,6 -2,2 -3,5 -4,9 -1,4 -2,8 -2,13z"/>
  <polygon id="4" fill="#534745" fill-rule="nonzero" points="605,3190 605,3182 630,3182 630,3190 "/>
  <path id="5" fill="#534745" fill-rule="nonzero" d="M670 3214l-9 0 0 -47c0,-1 0,-2 0,-4 0,-2 0,-3 0,-5 0,-2 0,-3 0,-5 0,-1 0,-3 0,-4 0,1 -1,1 -1,2 -1,0 -1,1 -2,1 0,1 -1,1 -1,1 -1,1 -1,1 -2,2l-7 6 -5 -6 19 -15 8 0 0 74z"/>
  <path id="6" fill="#534745" fill-rule="nonzero" d="M745 3197l-10 0 0 17 -9 0 0 -17 -34 0 0 -8 33 -50 10 0 0 50 10 0 0 8zm-19 -8l0 -18c0,-2 0,-4 0,-6 0,-2 0,-4 0,-6 0,-2 0,-4 0,-6 0,-2 0,-3 1,-4l-1 0c0,1 0,1 -1,2 0,1 -1,2 -1,3 0,0 -1,1 -1,2 -1,1 -1,1 -1,2l-21 31 25 0z"/>
  <path fill="#534745" fill-rule="nonzero" d="M3613 3175l24 0 0 36c-1,0 -3,1 -5,1 -2,1 -4,1 -6,2 -2,0 -4,0 -6,0 -2,1 -5,1 -7,1 -6,0 -10,-1 -14,-3 -4,-2 -8,-4 -11,-8 -2,-3 -5,-7 -6,-12 -1,-4 -2,-10 -2,-15 0,-6 1,-11 2,-16 2,-5 4,-9 7,-12 3,-3 7,-6 12,-7 4,-2 9,-3 15,-3 4,0 7,0 11,1 3,1 6,2 9,3l-3 8c-2,0 -3,-1 -4,-1 -2,-1 -3,-1 -5,-2 -1,0 -3,0 -4,-1 -2,0 -3,0 -5,0 -4,0 -8,1 -11,2 -3,2 -6,3 -8,6 -2,3 -3,6 -5,9 -1,4 -1,8 -1,13 0,4 0,8 1,12 1,3 3,6 5,9 2,3 4,5 7,6 4,2 7,2 12,2 1,0 3,0 4,0 1,0 2,0 3,0 1,0 2,0 3,-1 1,0 2,0 3,0l0 -22 -15 0 0 -8z"/>
  <path id="1" fill="#534745" fill-rule="nonzero" d="M3699 3161c0,4 -1,6 -1,9 -1,3 -3,6 -5,8 -2,2 -5,4 -8,5 -4,1 -8,2 -13,2l-8 0 0 29 -9 0 0 -74 18 0c5,0 8,0 12,1 3,1 6,3 8,5 2,1 3,4 4,6 1,3 2,6 2,9zm-35 16l7 0c3,0 5,0 8,-1 2,0 4,-1 5,-3 2,-1 3,-2 4,-4 1,-2 1,-4 1,-7 0,-5 -1,-8 -4,-11 -3,-2 -7,-3 -13,-3l-8 0 0 29z"/>
  <polygon id="2" fill="#534745" fill-rule="nonzero" points="3735,3214 3708,3214 3708,3208 3717,3206 3717,3147 3708,3145 3708,3140 3735,3140 3735,3145 3726,3147 3726,3206 3735,3208 "/>
  <path id="3" fill="#534745" fill-rule="nonzero" d="M3808 3177c0,5 0,11 -2,15 -1,5 -3,9 -6,12 -2,4 -6,6 -10,8 -4,2 -8,3 -14,3 -5,0 -10,-1 -14,-3 -4,-2 -7,-4 -10,-8 -2,-3 -4,-7 -6,-12 -1,-5 -2,-10 -2,-15 0,-6 1,-11 2,-16 2,-5 4,-9 6,-12 3,-3 6,-6 10,-8 4,-1 9,-2 15,-2 5,0 9,1 13,2 4,2 8,5 10,8 3,3 5,7 6,12 2,5 2,10 2,16zm-54 0c0,4 1,8 2,12 1,4 2,7 4,9 1,3 4,5 7,6 2,2 6,2 9,2 4,0 8,0 10,-2 3,-1 5,-3 7,-6 2,-2 3,-5 4,-9 1,-4 1,-8 1,-12 0,-5 0,-9 -1,-13 -1,-3 -2,-7 -4,-9 -2,-3 -4,-5 -7,-6 -2,-1 -6,-2 -9,-2 -4,0 -8,1 -10,2 -3,1 -5,3 -7,6 -2,2 -3,6 -4,9 -1,4 -2,8 -2,13z"/>
  <polygon id="4" fill="#534745" fill-rule="nonzero" points="3819,3190 3819,3182 3844,3182 3844,3190 "/>
  <path id="5" fill="#534745" fill-rule="nonzero" d="M3896 3157c0,3 0,5 -1,7 -1,2 -2,4 -3,5 -1,2 -3,3 -5,4 -2,1 -4,1 -7,2l0 0c6,1 11,3 14,6 3,3 5,7 5,12 0,3 -1,6 -2,9 -1,2 -3,5 -5,6 -2,2 -5,4 -8,5 -4,1 -8,2 -12,2 -4,0 -8,-1 -11,-1 -3,-1 -6,-2 -9,-3l0 -9c3,2 6,3 10,4 3,0 6,1 9,1 4,0 6,-1 8,-1 3,-1 5,-2 6,-3 1,-1 3,-3 3,-5 1,-1 1,-3 1,-6 0,-2 0,-4 -1,-5 -1,-2 -2,-3 -4,-4 -2,-1 -4,-2 -6,-3 -2,0 -5,-1 -8,-1l-7 0 0 -7 7 0c3,0 5,-1 7,-1 2,-1 4,-2 6,-3 1,-1 2,-3 3,-5 1,-1 1,-3 1,-5 0,-2 0,-4 -1,-5 -1,-1 -1,-2 -2,-3 -2,-1 -3,-2 -4,-3 -2,0 -4,0 -6,0 -3,0 -6,0 -9,1 -3,1 -5,3 -8,5l-5 -7c2,-1 3,-2 5,-2 1,-1 3,-2 5,-3 2,-1 4,-1 6,-2 2,0 4,0 6,0 4,0 7,0 10,1 3,1 5,2 7,4 2,2 3,4 4,6 1,2 1,5 1,7z"/>
  <path fill="#534745" fill-rule="nonzero" d="M3613 3392l24 0 0 36c-1,1 -3,1 -5,2 -2,0 -4,1 -6,1 -2,0 -4,0 -6,1 -2,0 -5,0 -7,0 -6,0 -10,-1 -14,-3 -4,-2 -8,-4 -11,-7 -2,-4 -5,-8 -6,-12 -1,-5 -2,-10 -2,-16 0,-6 1,-11 2,-16 2,-4 4,-8 7,-12 3,-3 7,-5 12,-7 4,-2 9,-3 15,-3 4,0 7,0 11,1 3,1 6,2 9,3l-3 9c-2,-1 -3,-2 -4,-2 -2,-1 -3,-1 -5,-1 -1,-1 -3,-1 -4,-1 -2,-1 -3,-1 -5,-1 -4,0 -8,1 -11,2 -3,2 -6,4 -8,6 -2,3 -3,6 -5,10 -1,3 -1,7 -1,12 0,4 0,8 1,12 1,4 3,7 5,9 2,3 4,5 7,6 4,2 7,3 12,3 1,0 3,0 4,-1 1,0 2,0 3,0 1,0 2,0 3,0 1,-1 2,-1 3,-1l0 -22 -15 0 0 -8z"/>
  <path id="1" fill="#534745" fill-rule="nonzero" d="M3699 3379c0,3 -1,6 -1,9 -1,2 -3,5 -5,7 -2,2 -5,4 -8,5 -4,1 -8,2 -13,2l-8 0 0 29 -9 0 0 -74 18 0c5,0 8,1 12,2 3,1 6,2 8,4 2,2 3,4 4,7 1,2 2,5 2,9zm-35 15l7 0c3,0 5,0 8,-1 2,0 4,-1 5,-2 2,-1 3,-3 4,-5 1,-2 1,-4 1,-7 0,-5 -1,-8 -4,-10 -3,-3 -7,-4 -13,-4l-8 0 0 29z"/>
  <polygon id="2" fill="#534745" fill-rule="nonzero" points="3735,3431 3708,3431 3708,3426 3717,3424 3717,3364 3708,3362 3708,3357 3735,3357 3735,3362 3726,3364 3726,3424 3735,3426 "/>
  <path id="3" fill="#534745" fill-rule="nonzero" d="M3808 3394c0,6 0,11 -2,15 -1,5 -3,9 -6,12 -2,4 -6,6 -10,8 -4,2 -8,3 -14,3 -5,0 -10,-1 -14,-3 -4,-2 -7,-4 -10,-8 -2,-3 -4,-7 -6,-12 -1,-4 -2,-9 -2,-15 0,-6 1,-11 2,-16 2,-4 4,-8 6,-12 3,-3 6,-5 10,-7 4,-2 9,-3 15,-3 5,0 9,1 13,3 4,2 8,4 10,7 3,4 5,8 6,12 2,5 2,10 2,16zm-54 0c0,4 1,9 2,12 1,4 2,7 4,10 1,2 4,4 7,6 2,1 6,2 9,2 4,0 8,-1 10,-2 3,-2 5,-4 7,-6 2,-3 3,-6 4,-10 1,-3 1,-8 1,-12 0,-5 0,-9 -1,-13 -1,-3 -2,-6 -4,-9 -2,-2 -4,-4 -7,-6 -2,-1 -6,-2 -9,-2 -4,0 -8,1 -10,2 -3,2 -5,4 -7,6 -2,3 -3,6 -4,9 -1,4 -2,8 -2,13z"/>
  <polygon id="4" fill="#534745" fill-rule="nonzero" points="3819,3407 3819,3399 3844,3399 3844,3407 "/>
  <path id="5" fill="#534745" fill-rule="nonzero" d="M3899 3431l-46 0 0 -8 17 -19c3,-3 5,-5 7,-8 2,-2 4,-4 5,-6 2,-2 3,-5 3,-7 1,-2 1,-4 1,-7 0,-2 0,-4 0,-5 -1,-2 -2,-3 -3,-4 -1,-1 -2,-2 -4,-2 -1,-1 -3,-1 -4,-1 -4,0 -6,1 -9,2 -3,1 -5,3 -7,5l-5 -6c1,-1 2,-3 4,-4 1,-1 3,-2 5,-2 2,-1 4,-2 5,-2 2,-1 5,-1 7,-1 3,0 6,1 8,1 3,1 5,3 7,4 2,2 3,4 4,7 1,2 2,5 2,8 0,3 -1,5 -2,8 0,3 -2,5 -3,8 -2,2 -4,5 -6,7 -2,3 -4,5 -7,8l-14 15 0 0 35 0 0 9z"/>
  <path fill="#534745" fill-rule="nonzero" d="M378 973c-5,0 -11,-1 -15,-2 -5,-2 -9,-4 -12,-6 -4,-3 -6,-6 -8,-10 -2,-4 -3,-9 -3,-14 0,-5 1,-10 3,-14 2,-4 4,-8 8,-10 3,-3 7,-5 12,-6 5,-1 10,-2 15,-2 6,0 11,1 16,2 5,1 9,3 12,6 3,2 6,6 7,10 2,4 3,9 3,14 0,5 -1,10 -3,14 -1,4 -4,7 -7,10 -3,2 -7,4 -12,6 -5,1 -10,2 -16,2zm0 -54c-4,0 -8,0 -12,1 -4,1 -7,2 -9,4 -3,2 -5,4 -6,7 -2,3 -2,6 -2,10 0,4 0,7 2,10 1,3 3,5 6,7 2,2 5,3 9,4 4,1 8,1 12,1 5,0 9,0 13,-1 3,-1 7,-2 9,-4 3,-2 5,-4 6,-7 1,-3 2,-6 2,-10 0,-4 -1,-7 -2,-10 -1,-3 -3,-5 -6,-7 -2,-2 -6,-3 -9,-4 -4,-1 -8,-1 -13,-1z"/>
  <path id="1" fill="#534745" fill-rule="nonzero" d="M408 1019c0,-3 -1,-7 -2,-10 -2,-2 -4,-5 -6,-7 -3,-2 -6,-4 -9,-5 -4,-1 -8,-1 -13,-1 -4,0 -9,0 -12,1 -4,1 -7,2 -10,4 -2,2 -4,5 -5,8 -2,3 -2,6 -2,10 0,3 0,6 1,9 0,2 1,5 1,8l-8 0c0,-2 -1,-3 -1,-4 0,-2 -1,-3 -1,-4 0,-2 0,-3 0,-5 -1,-2 -1,-3 -1,-5 0,-6 1,-11 3,-15 2,-4 4,-7 8,-10 3,-2 7,-4 12,-5 4,-2 10,-2 15,-2 6,0 11,0 16,2 4,1 8,3 12,6 3,3 5,7 7,11 2,4 3,9 3,14 0,4 0,7 -1,11 -1,3 -2,6 -3,9l-8 -4c1,-3 2,-5 3,-7 0,-3 1,-6 1,-9z"/>
  <path id="2" fill="#534745" fill-rule="nonzero" d="M341 1077l0 -9 46 0c2,0 3,0 5,0 2,0 3,1 5,1 2,0 3,0 5,0 1,0 2,0 4,0 -1,-1 -2,-1 -2,-2 0,0 -1,-1 -1,-1 -1,0 -1,-1 -2,-1 0,-1 0,-2 -1,-2l-6 -8 6 -5 15 20 0 7 -74 0z"/>
  <polygon id="3" fill="#534745" fill-rule="nonzero" points="374,1123 374,1103 382,1103 382,1123 401,1123 401,1131 382,1131 382,1150 374,1150 374,1131 355,1131 355,1123 "/>
  <path fill="#534745" fill-rule="nonzero" d="M379 1288c-5,0 -11,0 -15,-2 -5,-1 -9,-3 -12,-6 -4,-2 -6,-6 -8,-10 -2,-4 -3,-8 -3,-13 0,-6 1,-11 3,-15 2,-4 4,-7 8,-10 3,-2 7,-4 12,-6 5,-1 10,-1 15,-1 6,0 11,0 16,1 5,2 9,4 12,6 3,3 6,6 8,10 1,4 2,9 2,15 0,5 -1,9 -2,13 -2,4 -5,8 -8,10 -3,3 -7,5 -12,6 -5,2 -10,2 -16,2zm0 -53c-4,0 -8,0 -12,1 -4,1 -7,2 -9,4 -3,2 -5,4 -6,7 -2,2 -2,6 -2,10 0,3 0,7 2,9 1,3 3,6 6,7 2,2 5,3 9,4 4,1 8,2 12,2 5,0 9,-1 13,-2 3,-1 7,-2 9,-4 3,-1 5,-4 6,-6 1,-3 2,-7 2,-10 0,-4 -1,-7 -2,-10 -1,-3 -3,-5 -6,-7 -2,-2 -6,-3 -9,-4 -4,-1 -8,-1 -13,-1z"/>
  <path id="1" fill="#534745" fill-rule="nonzero" d="M409 1335c0,-4 -1,-7 -2,-10 -2,-3 -3,-5 -6,-7 -3,-3 -6,-4 -9,-5 -4,-1 -8,-2 -13,-2 -4,0 -9,1 -12,2 -4,1 -7,2 -10,4 -2,2 -4,4 -5,7 -2,3 -2,7 -2,11 0,3 0,6 1,8 0,3 1,6 2,8l-9 0c0,-1 -1,-2 -1,-4 0,-1 -1,-2 -1,-4 0,-1 0,-3 0,-4 -1,-2 -1,-4 -1,-6 0,-5 1,-10 3,-14 2,-4 4,-7 8,-10 3,-3 7,-5 12,-6 4,-1 10,-2 15,-2 6,0 11,1 16,2 4,2 8,4 12,7 3,3 5,6 7,10 2,5 3,9 3,15 0,3 0,7 -1,10 -1,3 -2,6 -3,9l-8 -4c1,-2 2,-4 3,-7 0,-2 1,-5 1,-8z"/>
  <path id="2" fill="#534745" fill-rule="nonzero" d="M342 1393l0 -9 46 0c2,0 3,0 5,0 2,0 3,0 5,0 2,0 3,0 5,0 1,0 2,0 4,0 -1,0 -2,-1 -2,-1 0,-1 -1,-1 -1,-1 -1,-1 -1,-1 -1,-2 -1,0 -1,-1 -2,-2l-6 -7 6 -5 15 19 0 8 -74 0z"/>
  <path fill="#999999" fill-rule="nonzero" d="M528 1144c-5,0 -11,-1 -15,-2 -5,-2 -9,-4 -12,-6 -4,-3 -6,-6 -8,-10 -2,-4 -3,-9 -3,-14 0,-6 1,-10 3,-14 2,-4 4,-8 8,-10 3,-3 7,-5 12,-6 4,-1 10,-2 15,-2 6,0 11,1 16,2 5,1 9,3 12,6 3,2 6,6 7,10 2,4 3,8 3,14 0,5 -1,10 -3,14 -1,4 -4,7 -7,10 -3,2 -7,4 -12,6 -5,1 -10,2 -16,2zm0 -54c-4,0 -8,0 -12,1 -4,1 -7,2 -9,4 -3,2 -5,4 -6,7 -2,3 -2,6 -2,10 0,4 0,7 2,10 1,3 3,5 6,7 2,1 5,3 9,4 4,0 8,1 12,1 5,0 9,-1 13,-1 3,-1 7,-3 9,-4 3,-2 5,-4 6,-7 1,-3 2,-6 2,-10 0,-4 -1,-7 -2,-10 -1,-3 -3,-5 -6,-7 -2,-2 -6,-3 -9,-4 -4,-1 -8,-1 -13,-1z"/>
  <path id="1" fill="#999999" fill-rule="nonzero" d="M558 1190c0,-4 -1,-7 -2,-10 -2,-3 -4,-5 -6,-7 -3,-2 -6,-4 -9,-5 -4,-1 -8,-2 -13,-2 -5,0 -9,1 -12,2 -4,1 -7,2 -10,4 -2,2 -4,5 -5,8 -2,3 -2,6 -2,10 0,3 0,6 0,9 1,2 2,5 2,8l-8 0c0,-2 -1,-3 -1,-4 0,-2 -1,-3 -1,-4 0,-2 0,-3 0,-5 -1,-2 -1,-3 -1,-5 0,-6 1,-11 3,-15 2,-4 4,-7 8,-10 3,-2 7,-4 12,-6 4,-1 10,-2 15,-2 6,0 11,1 16,3 4,1 8,3 12,6 3,3 5,6 7,11 2,4 3,9 3,14 0,4 0,7 -1,10 -1,4 -2,7 -3,9l-8 -4c1,-2 2,-4 3,-6 0,-3 1,-6 1,-9z"/>
  <path id="2" fill="#999999" fill-rule="nonzero" d="M491 1248l0 -9 46 0c2,0 3,0 5,0 2,0 3,0 5,0 2,0 3,1 5,1 1,0 2,0 4,0 -1,-1 -2,-1 -2,-2 0,0 -1,-1 -1,-1 -1,-1 -1,-1 -2,-2 0,0 -1,-1 -1,-1l-6 -8 6 -5 15 20 0 7 -74 0z"/>
  <path fill="#534745" fill-rule="nonzero" d="M3869 1355c6,0 11,0 16,2 5,1 8,3 12,6 3,2 6,6 8,10 1,4 2,8 2,13 0,6 -1,11 -2,15 -2,4 -5,7 -8,10 -4,2 -8,4 -12,6 -5,1 -10,1 -16,1 -6,0 -11,0 -15,-1 -5,-2 -9,-4 -12,-6 -4,-3 -6,-6 -8,-10 -2,-4 -3,-9 -3,-15 0,-5 1,-9 3,-13 2,-4 4,-8 8,-10 3,-3 7,-5 12,-6 4,-2 10,-2 15,-2zm0 54c5,0 9,-1 13,-2 3,-1 6,-2 9,-4 3,-2 5,-4 6,-7 1,-2 2,-6 2,-10 0,-3 -1,-7 -2,-9 -1,-3 -3,-5 -6,-7 -3,-2 -6,-3 -9,-4 -4,-1 -8,-1 -13,-1 -4,0 -8,0 -12,1 -4,1 -7,2 -9,4 -3,1 -5,4 -6,7 -2,2 -2,6 -2,9 0,4 0,8 2,10 1,3 3,5 6,7 2,2 5,3 9,4 4,1 8,2 12,2z"/>
  <path id="1" fill="#534745" fill-rule="nonzero" d="M3840 1308c0,4 0,7 2,10 1,3 3,5 6,8 2,2 5,3 9,4 4,1 8,2 12,2 5,0 9,-1 13,-2 4,-1 7,-2 9,-4 3,-2 5,-4 6,-7 1,-3 2,-7 2,-11 0,-3 0,-6 -1,-8 0,-3 -1,-6 -2,-8l8 0c1,1 1,2 2,4 0,1 0,2 1,4 0,1 0,3 0,4 0,2 0,4 0,6 0,5 -1,10 -2,14 -2,4 -5,7 -8,10 -4,3 -7,5 -12,6 -5,1 -10,2 -16,2 -5,0 -10,-1 -15,-2 -5,-2 -9,-4 -12,-7 -3,-3 -6,-6 -8,-10 -2,-4 -2,-9 -2,-15 0,-3 0,-7 1,-10 0,-3 1,-6 3,-9l8 4c-1,2 -2,4 -3,7 -1,2 -1,5 -1,8z"/>
  <path id="2" fill="#534745" fill-rule="nonzero" d="M3906 1235l0 46 -8 0 -19 -17c-3,-3 -5,-5 -7,-7 -3,-2 -5,-4 -7,-5 -2,-2 -4,-3 -6,-3 -3,-1 -5,-2 -7,-2 -2,0 -4,1 -6,1 -1,1 -2,2 -3,3 -2,1 -2,2 -3,3 0,2 -1,4 -1,5 0,3 1,6 2,9 2,3 3,5 5,7l-6 5c-1,-1 -2,-2 -3,-4 -1,-1 -2,-3 -3,-5 -1,-2 -1,-4 -2,-6 0,-2 0,-4 0,-6 0,-3 0,-6 1,-9 1,-2 2,-4 4,-6 1,-2 4,-3 6,-4 2,-1 5,-2 8,-2 3,0 6,1 8,1 3,1 6,3 8,4 3,2 5,4 8,6 2,2 5,4 7,7l15 14 1 0 0 -35 8 0z"/>
  <path fill="#534745" fill-rule="nonzero" d="M3869 1055c6,0 11,1 16,2 5,2 8,4 12,6 3,3 6,6 8,10 1,4 2,9 2,14 0,6 -1,10 -2,14 -2,4 -5,8 -8,10 -4,3 -8,5 -12,6 -5,1 -10,2 -16,2 -6,0 -11,-1 -15,-2 -5,-1 -9,-3 -12,-6 -4,-2 -6,-6 -8,-10 -2,-4 -3,-9 -3,-14 0,-5 1,-10 3,-14 2,-4 4,-7 8,-10 3,-2 7,-4 12,-6 4,-1 10,-2 15,-2zm0 54c5,0 9,0 13,-1 3,-1 6,-2 9,-4 3,-2 5,-4 6,-7 1,-3 2,-6 2,-10 0,-4 -1,-7 -2,-10 -1,-3 -3,-5 -6,-7 -3,-1 -6,-3 -9,-4 -4,0 -8,-1 -13,-1 -4,0 -8,1 -12,1 -4,1 -7,3 -9,4 -3,2 -5,4 -6,7 -2,3 -2,6 -2,10 0,4 0,7 2,10 1,3 3,5 6,7 2,2 5,3 9,4 4,1 8,1 12,1z"/>
  <path id="1" fill="#534745" fill-rule="nonzero" d="M3840 1009c0,3 0,7 2,10 1,3 3,5 6,7 2,2 5,4 9,5 4,1 8,2 12,2 5,0 9,-1 13,-2 4,-1 7,-2 9,-4 3,-2 5,-5 6,-8 1,-3 2,-6 2,-10 0,-3 0,-6 -1,-9 0,-2 -1,-5 -2,-8l8 0c1,2 1,3 2,4 0,2 0,3 1,4 0,2 0,3 0,5 0,2 0,3 0,5 0,6 -1,11 -2,15 -2,4 -5,7 -8,10 -4,2 -7,4 -12,6 -5,1 -10,2 -16,2 -5,0 -10,-1 -15,-3 -5,-1 -9,-3 -12,-6 -3,-3 -6,-6 -8,-11 -2,-4 -2,-9 -2,-14 0,-4 0,-7 1,-10 0,-4 1,-7 3,-9l8 4c-1,2 -2,4 -3,6 -1,3 -1,6 -1,9z"/>
  <path id="2" fill="#534745" fill-rule="nonzero" d="M3906 936l0 46 -8 0 -19 -18c-3,-2 -5,-5 -7,-7 -3,-2 -5,-3 -7,-5 -2,-1 -4,-2 -6,-3 -3,-1 -5,-1 -7,-1 -2,0 -4,0 -6,1 -1,0 -2,1 -3,2 -2,1 -2,3 -3,4 0,2 -1,3 -1,5 0,3 1,6 2,9 2,2 3,5 5,7l-6 5c-1,-1 -2,-3 -3,-4 -1,-2 -2,-4 -3,-5 -1,-2 -1,-4 -2,-6 0,-2 0,-4 0,-6 0,-3 0,-6 1,-9 1,-3 2,-5 4,-7 1,-1 4,-3 6,-4 2,-1 5,-1 8,-1 3,0 6,0 8,1 3,1 6,2 8,4 3,1 5,3 8,5 2,3 5,5 7,7l15 15 1 0 0 -35 8 0z"/>
  <polygon id="3" fill="#534745" fill-rule="nonzero" points="3874,905 3874,925 3866,925 3866,905 3846,905 3846,898 3866,898 3866,878 3874,878 3874,898 3893,898 3893,905 "/>
  <path fill="#999999" fill-rule="nonzero" d="M3720 1140c6,0 11,1 16,2 5,1 9,3 12,6 3,3 6,6 8,10 1,4 2,9 2,14 0,5 -1,10 -2,14 -2,4 -5,7 -8,10 -3,3 -7,5 -12,6 -5,1 -10,2 -16,2 -5,0 -11,-1 -15,-2 -5,-1 -9,-3 -12,-6 -3,-3 -6,-6 -8,-10 -2,-4 -3,-9 -3,-14 0,-6 1,-10 3,-14 2,-4 5,-7 8,-10 3,-3 7,-5 12,-6 4,-1 10,-2 15,-2zm0 54c5,0 9,-1 13,-1 3,-1 7,-3 9,-4 3,-2 5,-5 6,-7 1,-3 2,-6 2,-10 0,-4 -1,-7 -2,-10 -1,-3 -3,-5 -6,-7 -2,-2 -6,-3 -9,-4 -4,-1 -8,-1 -13,-1 -4,0 -8,0 -12,1 -4,1 -7,2 -9,4 -3,2 -5,4 -6,7 -2,3 -2,6 -2,10 0,4 0,7 2,10 1,2 3,5 6,6 2,2 5,4 9,5 4,0 8,1 12,1z"/>
  <path id="1" fill="#999999" fill-rule="nonzero" d="M3691 1094c0,3 1,6 2,9 1,3 3,6 6,8 2,2 5,3 9,5 4,1 8,1 12,1 5,0 9,0 13,-1 4,-1 7,-3 9,-5 3,-2 5,-4 6,-7 1,-3 2,-6 2,-10 0,-3 0,-6 -1,-9 0,-3 -1,-5 -2,-8l8 0c1,1 1,3 2,4 0,1 0,3 1,4 0,2 0,3 0,5 0,1 0,3 0,5 0,6 -1,10 -2,14 -2,4 -5,8 -8,10 -3,3 -7,5 -12,6 -5,2 -10,2 -16,2 -5,0 -10,-1 -15,-2 -5,-1 -9,-4 -12,-6 -3,-3 -6,-7 -8,-11 -1,-4 -2,-9 -2,-14 0,-4 0,-8 1,-11 0,-3 1,-6 3,-9l8 4c-1,2 -2,5 -3,7 -1,3 -1,5 -1,9z"/>
  <path id="2" fill="#999999" fill-rule="nonzero" d="M3757 1020l0 46 -8 0 -19 -17c-2,-3 -5,-5 -7,-7 -2,-2 -5,-4 -7,-5 -2,-1 -4,-2 -6,-3 -2,-1 -5,-1 -7,-1 -2,0 -4,0 -6,1 -1,0 -2,1 -3,2 -1,1 -2,2 -3,4 0,1 -1,3 -1,5 0,3 1,6 2,8 2,3 3,5 5,8l-6 5c-1,-2 -2,-3 -3,-5 -1,-1 -2,-3 -3,-5 -1,-1 -1,-3 -2,-5 0,-2 0,-4 0,-7 0,-3 0,-6 1,-8 1,-3 2,-5 4,-7 2,-2 4,-3 6,-4 2,-1 5,-2 8,-2 3,0 6,1 8,2 3,1 6,2 8,3 3,2 5,4 8,6 2,2 5,5 7,7l15 14 1 0 0 -35 8 0z"/>
  <path fill="#534745" fill-rule="nonzero" d="M2790 3965l-8 -23 -28 0 -8 23 -9 0 27 -74 8 0 28 74 -10 0zm-11 -31l-8 -22c0,0 0,-1 0,-2 -1,-1 -1,-2 -1,-3 0,-1 -1,-2 -1,-3 0,-1 -1,-2 -1,-3 0,1 0,2 -1,3 0,1 0,2 -1,3 0,2 0,2 -1,3 0,1 0,2 0,2l-8 22 22 0z"/>
  <path fill="#534745" fill-rule="nonzero" d="M2954 3890l20 0c4,0 8,1 11,1 3,1 6,2 8,3 3,2 4,4 5,6 1,3 2,5 2,9 0,2 0,4 -1,6 -1,2 -2,3 -3,5 -1,1 -3,2 -4,3 -2,1 -4,2 -6,2l0 0c2,1 4,1 6,2 2,1 4,2 5,3 2,2 3,3 4,5 1,2 1,5 1,8 0,3 0,6 -2,9 -1,2 -2,4 -4,6 -2,2 -5,3 -8,4 -3,1 -6,2 -10,2l-24 0 0 -74zm9 32l12 0c3,0 6,-1 8,-1 2,-1 3,-1 4,-2 1,-1 2,-3 3,-4 0,-2 1,-3 1,-5 0,-4 -2,-7 -4,-9 -3,-2 -7,-3 -13,-3l-11 0 0 24zm0 8l0 26 13 0c3,0 6,0 8,-1 2,-1 3,-2 5,-3 1,-1 2,-3 2,-4 1,-2 1,-4 1,-6 0,-2 0,-3 -1,-5 0,-1 -1,-3 -2,-4 -2,-1 -3,-2 -5,-3 -2,0 -5,0 -8,0l-13 0z"/>
  <polygon fill="#999999" fill-rule="nonzero" points="2792,3815 2792,3741 2802,3741 2802,3807 2830,3807 2830,3815 "/>
  <polygon id="1" fill="#999999" fill-rule="nonzero" points="2881,3815 2843,3815 2843,3741 2881,3741 2881,3750 2852,3750 2852,3772 2879,3772 2879,3781 2852,3781 2852,3807 2881,3807 "/>
  <polygon id="2" fill="#999999" fill-rule="nonzero" points="2907,3815 2897,3815 2897,3741 2936,3741 2936,3750 2907,3750 2907,3776 2934,3776 2934,3784 2907,3784 "/>
  <polygon id="3" fill="#999999" fill-rule="nonzero" points="2969,3815 2960,3815 2960,3750 2939,3750 2939,3741 2990,3741 2990,3750 2969,3750 "/>
  <path fill="#534745" fill-rule="nonzero" d="M3442 3965l-8 -23 -28 0 -8 23 -10 0 28 -74 8 0 27 74 -9 0zm-11 -31l-8 -22c0,0 0,-1 -1,-2 0,-1 0,-2 0,-3 -1,-1 -1,-2 -1,-3 -1,-1 -1,-2 -1,-3 0,1 -1,2 -1,3 0,1 -1,2 -1,3 0,2 -1,2 -1,3 0,1 0,2 -1,2l-7 22 22 0z"/>
  <path fill="#534745" fill-rule="nonzero" d="M3605 3890l21 0c4,0 8,1 11,1 3,1 6,2 8,3 2,2 4,4 5,6 1,3 2,5 2,9 0,2 -1,4 -1,6 -1,2 -2,3 -3,5 -1,1 -3,2 -5,3 -1,1 -3,2 -6,2l0 0c3,1 5,1 7,2 2,1 3,2 5,3 1,2 3,3 3,5 1,2 2,5 2,8 0,3 -1,6 -2,9 -1,2 -3,4 -5,6 -2,2 -4,3 -7,4 -3,1 -6,2 -10,2l-25 0 0 -74zm10 32l12 0c3,0 5,-1 7,-1 2,-1 4,-1 5,-2 1,-1 2,-3 3,-4 0,-2 0,-3 0,-5 0,-4 -1,-7 -4,-9 -2,-2 -6,-3 -12,-3l-11 0 0 24zm0 8l0 26 13 0c3,0 6,0 8,-1 2,-1 3,-2 4,-3 2,-1 3,-3 3,-4 1,-2 1,-4 1,-6 0,-2 0,-3 -1,-5 -1,-1 -1,-3 -3,-4 -1,-1 -3,-2 -5,-3 -2,0 -4,0 -7,0l-13 0z"/>
  <path fill="#999999" fill-rule="nonzero" d="M3403 3785l0 30 -9 0 0 -74 18 0c9,0 15,2 20,6 4,3 6,8 6,15 0,3 0,6 -1,8 -1,2 -2,4 -4,5 -1,2 -2,3 -4,4 -2,1 -4,2 -6,3l21 33 -12 0 -17 -30 -12 0zm0 -8l8 0c3,0 6,-1 8,-1 2,-1 4,-2 5,-3 2,-1 3,-3 3,-4 1,-2 1,-4 1,-6 0,-3 0,-5 -1,-6 -1,-2 -2,-4 -3,-5 -1,-1 -3,-1 -5,-2 -2,0 -5,-1 -8,-1l-8 0 0 28z"/>
  <polygon id="1" fill="#999999" fill-rule="nonzero" points="3476,3815 3449,3815 3449,3810 3457,3808 3457,3749 3449,3746 3449,3741 3476,3741 3476,3746 3467,3749 3467,3808 3476,3810 "/>
  <path id="2" fill="#999999" fill-rule="nonzero" d="M3518 3776l24 0 0 36c-1,1 -3,1 -5,2 -2,0 -4,1 -6,1 -2,0 -4,1 -6,1 -2,0 -5,0 -7,0 -6,0 -10,-1 -14,-3 -4,-1 -8,-4 -11,-7 -2,-3 -4,-7 -6,-12 -1,-5 -2,-10 -2,-16 0,-6 1,-11 2,-16 2,-4 4,-8 7,-12 3,-3 7,-5 12,-7 4,-2 9,-3 15,-3 4,0 7,1 11,1 3,1 6,2 9,4l-3 8c-2,-1 -3,-1 -4,-2 -2,0 -3,-1 -5,-1 -1,-1 -3,-1 -4,-1 -2,0 -3,0 -5,0 -4,0 -8,0 -11,2 -3,1 -5,3 -8,5 -2,3 -3,6 -4,10 -2,3 -2,8 -2,12 0,5 0,8 1,12 1,4 3,7 5,9 2,3 4,5 7,7 4,1 7,2 12,2 1,0 3,0 4,0 1,0 2,-1 3,-1 1,0 2,0 3,0 1,0 2,-1 3,-1l0 -22 -15 0 0 -8z"/>
  <polygon id="3" fill="#999999" fill-rule="nonzero" points="3612,3815 3603,3815 3603,3781 3569,3781 3569,3815 3560,3815 3560,3741 3569,3741 3569,3772 3603,3772 3603,3741 3612,3741 "/>
  <polygon id="4" fill="#999999" fill-rule="nonzero" points="3654,3815 3644,3815 3644,3750 3623,3750 3623,3741 3675,3741 3675,3750 3654,3750 "/>
 </g>
</svg>
