<?xml version="1.0" encoding="UTF-8"?>
<!DOCTYPE svg PUBLIC "-//W3C//DTD SVG 1.1//EN" "http://www.w3.org/Graphics/SVG/1.1/DTD/svg11.dtd">
<!-- Creator: CorelDRAW Home & Student 2014 -->
<svg xmlns="http://www.w3.org/2000/svg" xml:space="preserve" width="210mm" height="297mm" version="1.1" shape-rendering="geometricPrecision" text-rendering="geometricPrecision" image-rendering="optimizeQuality" fill-rule="evenodd" clip-rule="evenodd"
viewBox="0 0 21000 29700"
 xmlns:xlink="http://www.w3.org/1999/xlink">
 <g id="Layer_x0020_1">
  <metadata id="CorelCorpID_0Corel-Layer"/>
  <path fill="#534745" fill-rule="nonzero" d="M7937 14190l30 0 0 43c-3,1 -5,1 -7,2 -2,0 -5,1 -7,1 -2,1 -5,1 -7,1 -3,0 -6,0 -9,0 -6,0 -12,-1 -17,-3 -5,-2 -9,-5 -12,-9 -3,-4 -6,-9 -8,-14 -1,-6 -2,-12 -2,-19 0,-7 1,-13 3,-19 2,-5 4,-10 8,-14 4,-4 8,-7 14,-9 5,-2 11,-3 18,-3 4,0 9,0 13,1 4,1 8,2 11,4l-4 10c-2,-1 -3,-2 -5,-2 -1,-1 -3,-1 -5,-2 -2,0 -4,-1 -5,-1 -2,0 -4,0 -6,0 -5,0 -9,0 -13,2 -4,2 -7,4 -9,7 -3,3 -5,7 -6,11 -2,5 -2,10 -2,15 0,5 0,10 1,14 1,5 3,8 6,12 2,3 5,5 9,7 4,2 8,2 14,2 2,0 3,0 5,0 1,0 2,0 4,0 1,0 2,0 3,-1 1,0 2,0 3,0l0 -27 -18 0 0 -9z"/>
  <path id="1" fill="#534745" fill-rule="nonzero" d="M8040 14174c0,3 0,7 -1,10 -1,4 -3,7 -6,9 -2,3 -6,5 -10,6 -4,2 -9,3 -15,3l-9 0 0 34 -12 0 0 -88 22 0c6,0 10,1 14,2 4,1 7,2 10,5 2,2 4,5 6,8 1,3 1,7 1,11zm-41 18l7 0c4,0 7,0 10,-1 3,0 5,-1 7,-3 2,-1 3,-3 4,-5 1,-3 1,-5 1,-9 0,-5 -1,-10 -4,-12 -4,-3 -9,-4 -16,-4l-9 0 0 34z"/>
  <polygon id="2" fill="#534745" fill-rule="nonzero" points="8084,14236 8052,14236 8052,14230 8062,14227 8062,14157 8052,14154 8052,14148 8084,14148 8084,14154 8073,14157 8073,14227 8084,14230 "/>
  <path id="3" fill="#534745" fill-rule="nonzero" d="M8171 14192c0,7 -1,13 -2,18 -2,6 -4,11 -7,15 -4,4 -8,7 -12,9 -5,2 -11,3 -17,3 -6,0 -12,-1 -17,-3 -5,-2 -9,-5 -12,-9 -3,-4 -5,-9 -7,-15 -1,-5 -2,-11 -2,-18 0,-7 1,-13 2,-19 2,-5 4,-10 7,-14 3,-4 7,-7 12,-9 5,-2 11,-3 17,-3 6,0 12,1 17,3 4,2 8,5 12,9 3,4 5,9 7,14 1,6 2,12 2,19zm-64 0c0,5 0,10 1,15 1,4 3,8 5,11 2,3 5,5 8,7 4,2 8,2 12,2 5,0 9,0 12,-2 3,-2 6,-4 8,-7 2,-3 4,-7 5,-11 1,-5 1,-10 1,-15 0,-6 0,-11 -1,-15 -1,-4 -3,-8 -5,-11 -2,-3 -5,-5 -8,-7 -3,-2 -7,-3 -12,-3 -4,0 -8,1 -12,3 -3,2 -6,4 -8,7 -2,3 -4,7 -5,11 -1,4 -1,9 -1,15z"/>
  <polygon id="4" fill="#534745" fill-rule="nonzero" points="8184,14208 8184,14198 8214,14198 8214,14208 "/>
  <polygon id="5" fill="#534745" fill-rule="nonzero" points="8236,14236 8270,14158 8224,14158 8224,14148 8281,14148 8281,14157 8247,14236 "/>
  <path fill="#534745" fill-rule="nonzero" d="M11784 14190l29 0 0 43c-2,1 -4,1 -6,2 -3,0 -5,1 -7,1 -3,1 -5,1 -8,1 -2,0 -5,0 -8,0 -6,0 -12,-1 -17,-3 -5,-2 -9,-5 -12,-9 -4,-4 -6,-9 -8,-14 -2,-6 -2,-12 -2,-19 0,-7 1,-13 2,-19 2,-5 5,-10 9,-14 3,-4 8,-7 13,-9 6,-2 12,-3 19,-3 4,0 8,0 13,1 4,1 7,2 11,4l-4 10c-2,-1 -3,-2 -5,-2 -2,-1 -3,-1 -5,-2 -2,0 -4,-1 -6,-1 -2,0 -3,0 -5,0 -5,0 -9,0 -13,2 -4,2 -7,4 -10,7 -2,3 -4,7 -6,11 -1,5 -2,10 -2,15 0,5 1,10 2,14 1,5 3,8 5,12 3,3 6,5 10,7 4,2 8,3 14,3 1,0 3,-1 4,-1 2,0 3,0 4,0 2,0 3,0 4,-1 1,0 2,0 3,0l0 -27 -18 0 0 -9z"/>
  <path id="1" fill="#534745" fill-rule="nonzero" d="M11887 14174c0,3 0,7 -2,10 -1,4 -3,7 -5,9 -3,3 -6,5 -10,6 -4,2 -9,3 -15,3l-10 0 0 34 -11 0 0 -88 22 0c5,0 10,1 14,2 4,1 7,3 10,5 2,2 4,5 5,8 1,3 2,7 2,11zm-42 18l8 0c4,0 7,0 10,-1 3,0 5,-1 7,-3 2,-1 3,-3 4,-5 1,-3 1,-5 1,-9 0,-5 -1,-10 -5,-12 -3,-3 -8,-4 -15,-4l-10 0 0 34z"/>
  <polygon id="2" fill="#534745" fill-rule="nonzero" points="11930,14236 11898,14236 11898,14230 11909,14228 11909,14157 11898,14154 11898,14148 11930,14148 11930,14154 11920,14157 11920,14228 11930,14230 "/>
  <path id="3" fill="#534745" fill-rule="nonzero" d="M12018 14192c0,7 -1,13 -2,19 -2,5 -4,10 -8,14 -3,4 -7,7 -12,9 -4,2 -10,3 -16,3 -7,0 -12,-1 -17,-3 -5,-2 -9,-5 -12,-9 -3,-4 -6,-9 -7,-14 -2,-6 -2,-12 -2,-19 0,-7 0,-13 2,-19 1,-5 4,-10 7,-14 3,-4 7,-7 12,-9 5,-2 10,-3 17,-3 6,0 12,1 16,3 5,2 9,5 12,9 4,4 6,9 8,14 1,6 2,12 2,19zm-65 0c0,5 1,10 2,15 1,4 3,8 5,11 2,3 5,5 8,7 3,2 7,3 12,3 4,0 8,-1 12,-3 3,-2 6,-4 8,-7 2,-3 4,-7 5,-11 1,-5 1,-10 1,-15 0,-6 0,-11 -1,-15 -1,-4 -3,-8 -5,-11 -2,-3 -5,-5 -8,-7 -4,-2 -7,-2 -12,-2 -5,0 -9,0 -12,2 -3,2 -6,4 -8,7 -2,3 -4,7 -5,11 -1,4 -2,9 -2,15z"/>
  <polygon id="4" fill="#534745" fill-rule="nonzero" points="12031,14208 12031,14198 12060,14198 12060,14208 "/>
  <path id="5" fill="#534745" fill-rule="nonzero" d="M12108 14236l-10 0 0 -55c0,-2 0,-4 0,-5 0,-2 0,-4 0,-6 0,-2 0,-4 0,-6 0,-2 0,-3 0,-5 -1,1 -1,2 -2,2 0,1 -1,1 -1,2 -1,0 -1,1 -2,1 -1,1 -1,1 -2,2l-9 7 -6 -7 23 -18 9 0 0 88z"/>
  <path id="6" fill="#534745" fill-rule="nonzero" d="M12176 14236l-10 0 0 -55c0,-2 0,-4 0,-5 0,-2 0,-4 0,-6 0,-2 0,-4 0,-6 0,-2 0,-3 0,-5 -1,1 -1,2 -2,2 0,1 -1,1 -1,2 -1,0 -1,1 -2,1 -1,1 -1,1 -2,2l-9 7 -6 -7 23 -18 9 0 0 88z"/>
  <rect fill="none" fill-rule="nonzero" stroke="#2B2A29" stroke-width="24.69" x="7714" y="12414" width="4572" height="4572"/>
  <path fill="#534745" fill-rule="nonzero" d="M7937 14444l30 0 0 43c-3,1 -5,1 -7,2 -2,0 -5,1 -7,1 -2,1 -5,1 -7,1 -3,0 -6,0 -9,0 -6,0 -12,-1 -17,-3 -5,-2 -9,-5 -12,-9 -3,-4 -6,-9 -8,-14 -1,-6 -2,-12 -2,-19 0,-7 1,-13 3,-19 2,-5 4,-10 8,-14 4,-4 8,-7 14,-9 5,-2 11,-3 18,-3 4,0 9,0 13,1 4,1 8,2 11,4l-4 10c-2,-1 -3,-2 -5,-2 -1,-1 -3,-1 -5,-2 -2,0 -4,-1 -5,-1 -2,0 -4,0 -6,0 -5,0 -9,0 -13,2 -4,2 -7,4 -9,7 -3,3 -5,7 -6,11 -2,5 -2,10 -2,15 0,5 0,10 1,14 1,5 3,8 6,12 2,3 5,5 9,7 4,2 8,2 14,2 2,0 3,0 5,0 1,0 2,0 4,0 1,0 2,0 3,-1 1,0 2,0 3,0l0 -27 -18 0 0 -9z"/>
  <path id="1" fill="#534745" fill-rule="nonzero" d="M8040 14428c0,3 0,7 -1,10 -1,4 -3,7 -6,9 -2,3 -6,5 -10,6 -4,2 -9,3 -15,3l-9 0 0 34 -12 0 0 -88 22 0c6,0 10,1 14,2 4,1 7,2 10,5 2,2 4,5 6,8 1,3 1,7 1,11zm-41 18l7 0c4,0 7,0 10,-1 3,0 5,-1 7,-3 2,-1 3,-3 4,-5 1,-3 1,-5 1,-9 0,-5 -1,-10 -4,-12 -4,-3 -9,-4 -16,-4l-9 0 0 34z"/>
  <polygon id="2" fill="#534745" fill-rule="nonzero" points="8084,14490 8052,14490 8052,14484 8062,14481 8062,14411 8052,14408 8052,14402 8084,14402 8084,14408 8073,14411 8073,14481 8084,14484 "/>
  <path id="3" fill="#534745" fill-rule="nonzero" d="M8171 14446c0,7 -1,13 -2,18 -2,6 -4,11 -7,15 -4,4 -8,7 -12,9 -5,2 -11,3 -17,3 -6,0 -12,-1 -17,-3 -5,-2 -9,-5 -12,-9 -3,-4 -5,-9 -7,-15 -1,-5 -2,-11 -2,-18 0,-7 1,-13 2,-19 2,-5 4,-10 7,-14 3,-4 7,-7 12,-9 5,-2 11,-3 17,-3 6,0 12,1 17,3 4,2 8,5 12,9 3,4 5,9 7,14 1,6 2,12 2,19zm-64 0c0,5 0,10 1,15 1,4 3,8 5,11 2,3 5,5 8,7 4,2 8,2 12,2 5,0 9,0 12,-2 3,-2 6,-4 8,-7 2,-3 4,-7 5,-11 1,-5 1,-10 1,-15 0,-6 0,-11 -1,-15 -1,-4 -3,-8 -5,-11 -2,-3 -5,-5 -8,-7 -3,-2 -7,-3 -12,-3 -4,0 -8,1 -12,3 -3,2 -6,4 -8,7 -2,3 -4,7 -5,11 -1,4 -1,9 -1,15z"/>
  <polygon id="4" fill="#534745" fill-rule="nonzero" points="8184,14462 8184,14452 8214,14452 8214,14462 "/>
  <path id="5" fill="#534745" fill-rule="nonzero" d="M8253 14401c3,0 6,0 9,1 3,1 6,2 8,4 2,2 4,4 6,6 1,3 2,6 2,10 0,2 -1,5 -2,7 0,2 -2,4 -3,6 -1,2 -3,3 -5,5 -2,1 -4,2 -6,3 2,2 4,3 7,4 2,2 4,4 6,6 1,2 3,4 4,6 1,2 1,5 1,8 0,4 0,7 -2,10 -1,3 -3,6 -5,8 -3,2 -6,4 -9,5 -3,1 -7,1 -11,1 -5,0 -9,0 -12,-1 -3,-1 -6,-3 -9,-5 -2,-2 -4,-5 -5,-7 -1,-3 -2,-7 -2,-10 0,-3 1,-6 1,-9 1,-2 3,-4 4,-6 2,-2 3,-4 6,-5 2,-2 4,-3 6,-4 -2,-1 -4,-3 -5,-4 -2,-2 -4,-3 -5,-5 -1,-2 -2,-4 -3,-6 -1,-2 -1,-5 -1,-7 0,-4 1,-7 2,-10 1,-2 3,-4 5,-6 3,-2 5,-3 8,-4 3,-1 6,-1 10,-1zm-17 67c0,2 0,4 1,5 0,2 1,4 3,5 1,1 3,2 5,3 2,1 5,1 7,1 3,0 6,0 8,-1 2,-1 4,-2 5,-3 2,-1 3,-3 4,-5 0,-2 1,-4 1,-6 0,-2 -1,-4 -1,-6 -1,-1 -2,-3 -4,-4 -1,-2 -3,-3 -5,-4 -2,-2 -4,-3 -7,-4l-2 -1c-5,2 -9,5 -11,8 -3,3 -4,7 -4,12zm17 -58c-5,0 -8,1 -11,3 -2,2 -3,5 -3,9 0,3 0,4 1,6 0,2 1,3 3,4 1,2 2,3 4,4 2,1 4,2 6,3 2,-1 4,-2 5,-3 2,-1 4,-2 5,-4 1,-1 2,-2 3,-4 1,-2 1,-4 1,-6 0,-4 -1,-7 -4,-9 -2,-2 -6,-3 -10,-3z"/>
  <path fill="#534745" fill-rule="nonzero" d="M11784 14444l29 0 0 43c-2,1 -4,1 -6,2 -3,0 -5,1 -7,1 -3,1 -5,1 -8,1 -2,0 -5,0 -8,0 -6,0 -12,-1 -17,-3 -5,-2 -9,-5 -12,-9 -4,-4 -6,-9 -8,-14 -2,-6 -2,-12 -2,-19 0,-7 1,-13 2,-19 2,-5 5,-10 9,-14 3,-4 8,-7 13,-9 6,-2 12,-3 19,-3 4,0 8,0 13,1 4,1 7,2 11,4l-4 10c-2,-1 -3,-2 -5,-2 -2,-1 -3,-1 -5,-2 -2,0 -4,-1 -6,-1 -2,0 -3,0 -5,0 -5,0 -9,0 -13,2 -4,2 -7,4 -10,7 -2,3 -4,7 -6,11 -1,5 -2,10 -2,15 0,5 1,10 2,14 1,5 3,8 5,12 3,3 6,5 10,7 4,2 8,3 14,3 1,0 3,-1 4,-1 2,0 3,0 4,0 2,0 3,0 4,-1 1,0 2,0 3,0l0 -27 -18 0 0 -9z"/>
  <path id="1" fill="#534745" fill-rule="nonzero" d="M11887 14428c0,3 0,7 -2,10 -1,4 -3,7 -5,9 -3,3 -6,5 -10,6 -4,2 -9,3 -15,3l-10 0 0 34 -11 0 0 -88 22 0c5,0 10,1 14,2 4,1 7,3 10,5 2,2 4,5 5,8 1,3 2,7 2,11zm-42 18l8 0c4,0 7,0 10,-1 3,0 5,-1 7,-3 2,-1 3,-3 4,-5 1,-3 1,-5 1,-9 0,-5 -1,-10 -5,-12 -3,-3 -8,-4 -15,-4l-10 0 0 34z"/>
  <polygon id="2" fill="#534745" fill-rule="nonzero" points="11930,14490 11898,14490 11898,14484 11909,14482 11909,14411 11898,14408 11898,14402 11930,14402 11930,14408 11920,14411 11920,14482 11930,14484 "/>
  <path id="3" fill="#534745" fill-rule="nonzero" d="M12018 14446c0,7 -1,13 -2,19 -2,5 -4,10 -8,14 -3,4 -7,7 -12,9 -4,2 -10,3 -16,3 -7,0 -12,-1 -17,-3 -5,-2 -9,-5 -12,-9 -3,-4 -6,-9 -7,-14 -2,-6 -2,-12 -2,-19 0,-7 0,-13 2,-19 1,-5 4,-10 7,-14 3,-4 7,-7 12,-9 5,-2 10,-3 17,-3 6,0 12,1 16,3 5,2 9,5 12,9 4,4 6,9 8,14 1,6 2,12 2,19zm-65 0c0,5 1,10 2,15 1,4 3,8 5,11 2,3 5,5 8,7 3,2 7,3 12,3 4,0 8,-1 12,-3 3,-2 6,-4 8,-7 2,-3 4,-7 5,-11 1,-5 1,-10 1,-15 0,-6 0,-11 -1,-15 -1,-4 -3,-8 -5,-11 -2,-3 -5,-5 -8,-7 -4,-2 -7,-2 -12,-2 -5,0 -9,0 -12,2 -3,2 -6,4 -8,7 -2,3 -4,7 -5,11 -1,4 -2,9 -2,15z"/>
  <polygon id="4" fill="#534745" fill-rule="nonzero" points="12031,14462 12031,14452 12060,14452 12060,14462 "/>
  <path id="5" fill="#534745" fill-rule="nonzero" d="M12127 14440c0,4 0,8 0,12 -1,4 -1,8 -2,12 -2,4 -3,8 -5,11 -2,3 -4,6 -7,9 -3,2 -6,4 -10,5 -4,2 -9,2 -14,2 -1,0 -2,0 -3,0 -1,0 -1,0 -2,0 -1,0 -2,0 -3,0 -1,0 -2,0 -2,-1l0 -9c1,1 3,1 4,1 2,1 4,1 6,1 5,0 9,-1 13,-3 3,-2 6,-5 8,-8 2,-3 4,-7 5,-11 1,-5 1,-9 1,-14l-1 0c0,1 -1,3 -2,4 -2,1 -3,2 -4,3 -2,1 -4,2 -6,2 -2,1 -4,1 -6,1 -4,0 -7,0 -10,-2 -4,-1 -6,-3 -8,-5 -3,-2 -4,-5 -5,-8 -2,-4 -2,-7 -2,-12 0,-4 0,-8 2,-12 1,-4 3,-7 5,-9 2,-3 5,-5 9,-6 3,-2 7,-2 11,-2 4,0 7,1 11,2 3,2 7,4 9,7 3,3 5,8 6,12 2,5 2,11 2,18zm-28 -30c-3,0 -5,1 -7,1 -2,1 -4,2 -5,4 -1,2 -3,4 -3,6 -1,3 -2,6 -2,9 0,3 1,6 1,8 1,2 2,4 3,6 2,1 3,2 5,3 2,1 5,2 7,2 3,0 6,-1 8,-2 2,-1 4,-2 6,-4 1,-1 2,-3 3,-5 1,-2 1,-4 1,-5 0,-3 0,-6 -1,-8 0,-3 -1,-6 -3,-8 -1,-2 -3,-4 -5,-5 -3,-1 -5,-2 -8,-2z"/>
  <path fill="#534745" fill-rule="nonzero" d="M11784 14698l29 0 0 43c-2,1 -4,1 -6,2 -3,0 -5,1 -7,1 -3,1 -5,1 -8,1 -2,0 -5,0 -8,0 -6,0 -12,-1 -17,-3 -5,-2 -9,-5 -12,-9 -4,-4 -6,-9 -8,-14 -2,-6 -2,-12 -2,-19 0,-7 1,-13 2,-19 2,-5 5,-10 9,-14 3,-4 8,-7 13,-9 6,-2 12,-3 19,-3 4,0 8,0 13,1 4,1 7,2 11,4l-4 10c-2,-1 -3,-2 -5,-2 -2,-1 -3,-1 -5,-2 -2,0 -4,-1 -6,-1 -2,0 -3,0 -5,0 -5,0 -9,0 -13,2 -4,2 -7,4 -10,7 -2,3 -4,7 -6,11 -1,5 -2,10 -2,15 0,5 1,10 2,14 1,5 3,8 5,12 3,3 6,5 10,7 4,2 8,3 14,3 1,0 3,-1 4,-1 2,0 3,0 4,0 2,0 3,0 4,-1 1,0 2,0 3,0l0 -27 -18 0 0 -9z"/>
  <path id="1" fill="#534745" fill-rule="nonzero" d="M11887 14682c0,3 0,7 -2,10 -1,4 -3,7 -5,9 -3,3 -6,5 -10,6 -4,2 -9,3 -15,3l-10 0 0 34 -11 0 0 -88 22 0c5,0 10,1 14,2 4,1 7,3 10,5 2,2 4,5 5,8 1,3 2,7 2,11zm-42 18l8 0c4,0 7,0 10,-1 3,0 5,-1 7,-3 2,-1 3,-3 4,-5 1,-3 1,-5 1,-9 0,-5 -1,-10 -5,-12 -3,-3 -8,-4 -15,-4l-10 0 0 34z"/>
  <polygon id="2" fill="#534745" fill-rule="nonzero" points="11930,14744 11898,14744 11898,14738 11909,14736 11909,14665 11898,14662 11898,14656 11930,14656 11930,14662 11920,14665 11920,14736 11930,14738 "/>
  <path id="3" fill="#534745" fill-rule="nonzero" d="M12018 14700c0,7 -1,13 -2,19 -2,5 -4,10 -8,14 -3,4 -7,7 -12,9 -4,2 -10,3 -16,3 -7,0 -12,-1 -17,-3 -5,-2 -9,-5 -12,-9 -3,-4 -6,-9 -7,-14 -2,-6 -2,-12 -2,-19 0,-7 0,-13 2,-19 1,-5 4,-10 7,-14 3,-4 7,-7 12,-9 5,-2 10,-3 17,-3 6,0 12,1 16,3 5,2 9,5 12,9 4,4 6,9 8,14 1,6 2,12 2,19zm-65 0c0,5 1,10 2,15 1,4 3,8 5,11 2,3 5,5 8,7 3,2 7,3 12,3 4,0 8,-1 12,-3 3,-2 6,-4 8,-7 2,-3 4,-7 5,-11 1,-5 1,-10 1,-15 0,-6 0,-11 -1,-15 -1,-4 -3,-8 -5,-11 -2,-3 -5,-5 -8,-7 -4,-2 -7,-2 -12,-2 -5,0 -9,0 -12,2 -3,2 -6,4 -8,7 -2,3 -4,7 -5,11 -1,4 -2,9 -2,15z"/>
  <polygon id="4" fill="#534745" fill-rule="nonzero" points="12031,14716 12031,14706 12060,14706 12060,14716 "/>
  <path id="5" fill="#534745" fill-rule="nonzero" d="M12108 14744l-10 0 0 -55c0,-2 0,-4 0,-5 0,-2 0,-4 0,-6 0,-2 0,-4 0,-6 0,-2 0,-3 0,-5 -1,1 -1,2 -2,2 0,1 -1,1 -1,2 -1,0 -1,1 -2,1 -1,1 -1,1 -2,2l-9 7 -6 -7 23 -18 9 0 0 88z"/>
  <path id="6" fill="#534745" fill-rule="nonzero" d="M12196 14700c0,7 -1,13 -2,19 -1,6 -3,10 -5,14 -2,4 -5,7 -9,9 -3,2 -8,3 -13,3 -4,0 -8,-1 -12,-3 -4,-2 -6,-5 -9,-9 -2,-4 -4,-8 -5,-14 -1,-6 -2,-12 -2,-19 0,-7 1,-14 2,-19 1,-6 3,-11 5,-14 2,-4 5,-7 8,-9 4,-2 8,-3 13,-3 5,0 9,1 13,3 3,2 6,5 9,9 2,3 4,8 5,14 1,5 2,12 2,19zm-45 0c0,6 0,11 0,16 1,4 2,8 3,11 2,3 3,5 5,7 3,1 5,2 8,2 3,0 6,-1 8,-2 2,-2 4,-4 6,-7 1,-3 2,-7 3,-11 0,-5 1,-10 1,-16 0,-6 -1,-11 -1,-16 -1,-4 -2,-8 -3,-11 -2,-3 -4,-5 -6,-7 -2,-1 -5,-2 -8,-2 -3,0 -5,1 -8,2 -2,2 -3,4 -5,7 -1,3 -2,7 -3,11 0,5 0,10 0,16z"/>
  <path fill="#534745" fill-rule="nonzero" d="M7937 14698l30 0 0 43c-3,1 -5,2 -7,2 -2,1 -5,1 -7,2 -2,0 -5,0 -7,1 -3,0 -6,0 -9,0 -6,0 -12,-1 -17,-3 -5,-2 -9,-5 -12,-9 -3,-4 -6,-9 -8,-15 -1,-5 -2,-11 -2,-18 0,-7 1,-14 3,-19 2,-6 4,-11 8,-14 4,-4 8,-7 14,-10 5,-2 11,-3 18,-3 4,0 9,1 13,2 4,1 8,2 11,3l-4 10c-2,0 -3,-1 -5,-2 -1,0 -3,-1 -5,-1 -2,-1 -4,-1 -5,-1 -2,-1 -4,-1 -6,-1 -5,0 -9,1 -13,3 -4,1 -7,4 -9,7 -3,3 -5,6 -6,11 -2,4 -2,9 -2,15 0,5 0,10 1,14 1,4 3,8 6,11 2,3 5,6 9,7 4,2 8,3 14,3 2,0 3,0 5,0 1,0 2,0 4,-1 1,0 2,0 3,0 1,0 2,-1 3,-1l0 -26 -18 0 0 -10z"/>
  <path id="1" fill="#534745" fill-rule="nonzero" d="M8040 14682c0,4 0,8 -1,11 -1,3 -3,6 -6,9 -2,2 -6,5 -10,6 -4,2 -9,2 -15,2l-9 0 0 35 -12 0 0 -88 22 0c6,0 10,0 14,1 4,1 7,3 10,5 2,2 4,5 6,8 1,4 1,7 1,11zm-41 19l7 0c4,0 7,-1 10,-1 3,-1 5,-2 7,-3 2,-2 3,-4 4,-6 1,-2 1,-5 1,-8 0,-6 -1,-10 -4,-13 -4,-2 -9,-4 -16,-4l-9 0 0 35z"/>
  <polygon id="2" fill="#534745" fill-rule="nonzero" points="8084,14745 8052,14745 8052,14739 8062,14736 8062,14665 8052,14663 8052,14657 8084,14657 8084,14663 8073,14665 8073,14736 8084,14739 "/>
  <path id="3" fill="#534745" fill-rule="nonzero" d="M8171 14701c0,6 -1,13 -2,18 -2,6 -4,10 -7,14 -4,4 -8,7 -12,10 -5,2 -11,3 -17,3 -6,0 -12,-1 -17,-3 -5,-3 -9,-6 -12,-10 -3,-4 -5,-8 -7,-14 -1,-6 -2,-12 -2,-19 0,-6 1,-13 2,-18 2,-6 4,-11 7,-14 3,-4 7,-7 12,-10 5,-2 11,-3 17,-3 6,0 12,1 17,3 4,3 8,6 12,10 3,4 5,8 7,14 1,5 2,12 2,19zm-64 -1c0,6 0,11 1,15 1,5 3,8 5,12 2,3 5,5 8,7 4,1 8,2 12,2 5,0 9,-1 12,-2 3,-2 6,-4 8,-7 2,-4 4,-7 5,-12 1,-4 1,-9 1,-15 0,-5 0,-10 -1,-14 -1,-5 -3,-8 -5,-11 -2,-4 -5,-6 -8,-7 -3,-2 -7,-3 -12,-3 -4,0 -8,1 -12,3 -3,1 -6,3 -8,7 -2,3 -4,6 -5,11 -1,4 -1,9 -1,14z"/>
  <polygon id="4" fill="#534745" fill-rule="nonzero" points="8184,14717 8184,14707 8214,14707 8214,14717 "/>
  <path id="5" fill="#534745" fill-rule="nonzero" d="M8279 14745l-55 0 0 -10 22 -23c3,-3 5,-6 8,-9 2,-2 4,-5 6,-7 1,-3 3,-6 3,-8 1,-3 2,-6 2,-9 0,-2 -1,-4 -1,-6 -1,-2 -2,-3 -3,-5 -1,-1 -3,-2 -5,-2 -1,-1 -3,-1 -5,-1 -4,0 -8,0 -11,2 -3,1 -6,3 -9,6l-6 -7c2,-2 4,-3 6,-4 1,-2 3,-3 5,-4 3,-1 5,-1 7,-2 3,0 5,-1 8,-1 4,0 7,1 10,2 3,1 6,3 8,5 2,2 4,4 5,7 1,3 2,6 2,10 0,3 -1,7 -2,10 -1,3 -2,6 -4,9 -2,3 -4,6 -7,9 -2,3 -5,6 -8,9l-17 18 0 1 41 0 0 10z"/>
  <path id="6" fill="#534745" fill-rule="nonzero" d="M8320 14691c3,0 7,0 11,1 3,1 6,3 9,5 2,2 4,5 6,8 1,3 2,7 2,11 0,5 -1,9 -2,13 -2,3 -4,7 -6,9 -3,3 -6,5 -10,6 -4,1 -9,2 -14,2 -2,0 -4,0 -6,0 -2,-1 -4,-1 -6,-1 -2,-1 -3,-1 -5,-2 -2,0 -3,-1 -4,-2l0 -10c1,1 2,2 4,2 2,1 4,2 6,2 2,1 4,1 6,1 2,0 4,1 5,1 4,0 6,-1 9,-2 2,0 5,-1 6,-3 2,-2 3,-4 4,-6 1,-2 2,-5 2,-8 0,-6 -2,-10 -6,-13 -3,-4 -8,-5 -15,-5 -1,0 -2,0 -4,0 -1,0 -2,0 -4,0 -1,1 -2,1 -3,1 -1,0 -2,0 -3,1l-6 -4 4 -41 41 0 0 10 -32 0 -2 25c1,0 3,-1 5,-1 2,0 5,0 8,0z"/>
  <path fill="#534745" fill-rule="nonzero" d="M7937 14952l30 0 0 43c-3,1 -5,1 -7,2 -2,0 -5,1 -7,1 -2,1 -5,1 -7,1 -3,0 -6,0 -9,0 -6,0 -12,-1 -17,-3 -5,-2 -9,-5 -12,-9 -3,-4 -6,-9 -8,-14 -1,-6 -2,-12 -2,-19 0,-7 1,-13 3,-19 2,-5 4,-10 8,-14 4,-4 8,-7 14,-9 5,-2 11,-3 18,-3 4,0 9,0 13,1 4,1 8,2 11,4l-4 10c-2,-1 -3,-2 -5,-2 -1,-1 -3,-1 -5,-2 -2,0 -4,-1 -5,-1 -2,0 -4,0 -6,0 -5,0 -9,0 -13,2 -4,2 -7,4 -9,7 -3,3 -5,7 -6,11 -2,5 -2,10 -2,15 0,5 0,10 1,14 1,5 3,8 6,12 2,3 5,5 9,7 4,2 8,2 14,2 2,0 3,0 5,0 1,0 2,0 4,0 1,0 2,0 3,-1 1,0 2,0 3,0l0 -27 -18 0 0 -9z"/>
  <path id="1" fill="#534745" fill-rule="nonzero" d="M8040 14936c0,3 0,7 -1,10 -1,4 -3,7 -6,9 -2,3 -6,5 -10,6 -4,2 -9,3 -15,3l-9 0 0 34 -12 0 0 -88 22 0c6,0 10,1 14,2 4,1 7,2 10,5 2,2 4,5 6,8 1,3 1,7 1,11zm-41 18l7 0c4,0 7,0 10,-1 3,0 5,-1 7,-3 2,-1 3,-3 4,-5 1,-3 1,-5 1,-9 0,-5 -1,-10 -4,-12 -4,-3 -9,-4 -16,-4l-9 0 0 34z"/>
  <polygon id="2" fill="#534745" fill-rule="nonzero" points="8084,14998 8052,14998 8052,14992 8062,14989 8062,14919 8052,14916 8052,14910 8084,14910 8084,14916 8073,14919 8073,14989 8084,14992 "/>
  <path id="3" fill="#534745" fill-rule="nonzero" d="M8171 14954c0,7 -1,13 -2,18 -2,6 -4,11 -7,15 -4,4 -8,7 -12,9 -5,2 -11,3 -17,3 -6,0 -12,-1 -17,-3 -5,-2 -9,-5 -12,-9 -3,-4 -5,-9 -7,-15 -1,-5 -2,-11 -2,-18 0,-7 1,-13 2,-19 2,-5 4,-10 7,-14 3,-4 7,-7 12,-9 5,-2 11,-3 17,-3 6,0 12,1 17,3 4,2 8,5 12,9 3,4 5,9 7,14 1,6 2,12 2,19zm-64 0c0,5 0,10 1,15 1,4 3,8 5,11 2,3 5,5 8,7 4,2 8,2 12,2 5,0 9,0 12,-2 3,-2 6,-4 8,-7 2,-3 4,-7 5,-11 1,-5 1,-10 1,-15 0,-6 0,-11 -1,-15 -1,-4 -3,-8 -5,-11 -2,-3 -5,-5 -8,-7 -3,-2 -7,-3 -12,-3 -4,0 -8,1 -12,3 -3,2 -6,4 -8,7 -2,3 -4,7 -5,11 -1,4 -1,9 -1,15z"/>
  <polygon id="4" fill="#534745" fill-rule="nonzero" points="8184,14970 8184,14960 8214,14960 8214,14970 "/>
  <path id="5" fill="#534745" fill-rule="nonzero" d="M8279 14998l-55 0 0 -9 22 -23c3,-4 5,-7 8,-9 2,-3 4,-6 6,-8 1,-3 3,-5 3,-8 1,-2 2,-5 2,-8 0,-3 -1,-5 -1,-7 -1,-1 -2,-3 -3,-4 -1,-1 -3,-2 -5,-3 -1,-1 -3,-1 -5,-1 -4,0 -8,1 -11,2 -3,2 -6,4 -9,6l-6 -7c2,-1 4,-3 6,-4 1,-1 3,-2 5,-3 3,-1 5,-2 7,-2 3,-1 5,-1 8,-1 4,0 7,0 10,1 3,1 6,3 8,5 2,2 4,4 5,7 1,3 2,7 2,10 0,4 -1,7 -2,10 -1,3 -2,6 -4,9 -2,3 -4,6 -7,9 -2,3 -5,6 -8,10l-17 18 0 0 41 0 0 10z"/>
  <path id="6" fill="#534745" fill-rule="nonzero" d="M8352 14978l-13 0 0 20 -10 0 0 -20 -41 0 0 -9 40 -60 11 0 0 59 13 0 0 10zm-23 -10l0 -21c0,-2 0,-5 0,-7 0,-3 0,-5 0,-7 0,-3 0,-5 0,-7 0,-2 1,-4 1,-5l-1 0c0,1 -1,1 -1,2 0,1 -1,2 -1,3 -1,1 -1,2 -2,3 0,1 -1,2 -1,3l-25 36 30 0z"/>
  <path fill="#534745" fill-rule="nonzero" d="M11784 14952l29 0 0 43c-2,1 -4,1 -6,2 -3,0 -5,1 -7,1 -3,1 -5,1 -8,1 -2,0 -5,0 -8,0 -6,0 -12,-1 -17,-3 -5,-2 -9,-5 -12,-9 -4,-4 -6,-9 -8,-14 -2,-6 -2,-12 -2,-19 0,-7 1,-13 2,-19 2,-5 5,-10 9,-14 3,-4 8,-7 13,-9 6,-2 12,-3 19,-3 4,0 8,0 13,1 4,1 7,2 11,4l-4 10c-2,-1 -3,-2 -5,-2 -2,-1 -3,-1 -5,-2 -2,0 -4,-1 -6,-1 -2,0 -3,0 -5,0 -5,0 -9,0 -13,2 -4,2 -7,4 -10,7 -2,3 -4,7 -6,11 -1,5 -2,10 -2,15 0,5 1,10 2,14 1,5 3,8 5,12 3,3 6,5 10,7 4,2 8,2 14,2 1,0 3,0 4,0 2,0 3,0 4,0 2,0 3,0 4,-1 1,0 2,0 3,0l0 -27 -18 0 0 -9z"/>
  <path id="1" fill="#534745" fill-rule="nonzero" d="M11887 14936c0,3 0,7 -2,10 -1,4 -3,7 -5,9 -3,3 -6,5 -10,6 -4,2 -9,3 -15,3l-10 0 0 34 -11 0 0 -88 22 0c5,0 10,1 14,2 4,1 7,3 10,5 2,2 4,5 5,8 1,3 2,7 2,11zm-42 18l8 0c4,0 7,0 10,-1 3,0 5,-1 7,-3 2,-1 3,-3 4,-5 1,-3 1,-5 1,-9 0,-5 -1,-10 -5,-12 -3,-3 -8,-4 -15,-4l-10 0 0 34z"/>
  <polygon id="2" fill="#534745" fill-rule="nonzero" points="11930,14998 11898,14998 11898,14992 11909,14990 11909,14919 11898,14916 11898,14910 11930,14910 11930,14916 11920,14919 11920,14990 11930,14992 "/>
  <path id="3" fill="#534745" fill-rule="nonzero" d="M12018 14954c0,7 -1,13 -2,19 -2,5 -4,10 -8,14 -3,4 -7,7 -12,9 -4,2 -10,3 -16,3 -7,0 -12,-1 -17,-3 -5,-2 -9,-5 -12,-9 -3,-4 -6,-9 -7,-14 -2,-6 -2,-12 -2,-19 0,-7 0,-13 2,-19 1,-5 4,-10 7,-14 3,-4 7,-7 12,-9 5,-2 10,-3 17,-3 6,0 12,1 16,3 5,2 9,5 12,9 4,4 6,9 8,14 1,6 2,12 2,19zm-65 0c0,5 1,10 2,15 1,4 3,8 5,11 2,3 5,5 8,7 3,2 7,2 12,2 4,0 8,0 12,-2 3,-2 6,-4 8,-7 2,-3 4,-7 5,-11 1,-5 1,-10 1,-15 0,-6 0,-11 -1,-15 -1,-4 -3,-8 -5,-11 -2,-3 -5,-5 -8,-7 -4,-2 -7,-3 -12,-3 -5,0 -9,1 -12,3 -3,2 -6,4 -8,7 -2,3 -4,7 -5,11 -1,4 -2,9 -2,15z"/>
  <polygon id="4" fill="#534745" fill-rule="nonzero" points="12031,14970 12031,14960 12060,14960 12060,14970 "/>
  <path id="5" fill="#534745" fill-rule="nonzero" d="M12126 14998l-55 0 0 -9 21 -23c3,-3 6,-6 8,-9 3,-3 5,-5 6,-8 2,-3 3,-5 4,-8 1,-2 2,-5 2,-8 0,-3 -1,-5 -1,-7 -1,-1 -2,-3 -3,-4 -2,-1 -3,-2 -5,-3 -2,-1 -4,-1 -6,-1 -3,0 -7,1 -10,2 -3,2 -6,4 -9,6l-6 -7c2,-1 3,-3 5,-4 2,-1 4,-2 6,-3 2,-1 5,-2 7,-2 2,-1 5,-1 7,-1 4,0 8,0 11,1 3,1 6,3 8,5 2,2 4,5 5,7 1,3 2,7 2,10 0,4 -1,7 -2,10 -1,3 -2,6 -4,9 -2,3 -4,6 -7,9 -3,3 -5,6 -8,10l-17 18 0 0 41 0 0 10z"/>
  <path id="6" fill="#534745" fill-rule="nonzero" d="M12194 14998l-55 0 0 -9 21 -23c3,-3 6,-6 8,-9 3,-3 5,-5 6,-8 2,-3 3,-5 4,-8 1,-2 2,-5 2,-8 0,-3 -1,-5 -1,-7 -1,-1 -2,-3 -3,-4 -2,-1 -3,-2 -5,-3 -2,-1 -4,-1 -6,-1 -3,0 -7,1 -10,2 -3,2 -6,4 -9,6l-6 -7c2,-1 3,-3 5,-4 2,-1 4,-2 6,-3 2,-1 5,-2 7,-2 2,-1 5,-1 7,-1 4,0 8,0 11,1 3,1 6,3 8,5 2,2 4,5 5,7 1,3 2,7 2,10 0,4 -1,7 -2,10 -1,3 -2,6 -4,9 -2,3 -4,6 -7,9 -3,3 -5,6 -8,10l-17 18 0 0 41 0 0 10z"/>
  <path fill="#534745" fill-rule="nonzero" d="M7937 15205l30 0 0 43c-3,1 -5,2 -7,2 -2,1 -5,1 -7,2 -2,0 -5,0 -7,0 -3,1 -6,1 -9,1 -6,0 -12,-1 -17,-3 -5,-3 -9,-6 -12,-9 -3,-4 -6,-9 -8,-15 -1,-5 -2,-12 -2,-19 0,-7 1,-13 3,-18 2,-6 4,-11 8,-15 4,-4 8,-7 14,-9 5,-2 11,-3 18,-3 4,0 9,1 13,1 4,1 8,3 11,4l-4 10c-2,-1 -3,-1 -5,-2 -1,-1 -3,-1 -5,-1 -2,-1 -4,-1 -5,-2 -2,0 -4,0 -6,0 -5,0 -9,1 -13,2 -4,2 -7,4 -9,7 -3,3 -5,7 -6,12 -2,4 -2,9 -2,14 0,6 0,10 1,15 1,4 3,8 6,11 2,3 5,6 9,7 4,2 8,3 14,3 2,0 3,0 5,0 1,0 2,-1 4,-1 1,0 2,0 3,0 1,-1 2,-1 3,-1l0 -26 -18 0 0 -10z"/>
  <path id="1" fill="#534745" fill-rule="nonzero" d="M8040 15189c0,4 0,7 -1,11 -1,3 -3,6 -6,9 -2,2 -6,4 -10,6 -4,1 -9,2 -15,2l-9 0 0 34 -12 0 0 -88 22 0c6,0 10,1 14,2 4,1 7,3 10,5 2,2 4,5 6,8 1,3 1,7 1,11zm-41 19l7 0c4,0 7,-1 10,-1 3,-1 5,-2 7,-3 2,-2 3,-4 4,-6 1,-2 1,-5 1,-8 0,-6 -1,-10 -4,-13 -4,-3 -9,-4 -16,-4l-9 0 0 35z"/>
  <polygon id="2" fill="#534745" fill-rule="nonzero" points="8084,15251 8052,15251 8052,15245 8062,15243 8062,15172 8052,15169 8052,15163 8084,15163 8084,15169 8073,15172 8073,15243 8084,15245 "/>
  <path id="3" fill="#534745" fill-rule="nonzero" d="M8171 15207c0,7 -1,13 -2,19 -2,5 -4,10 -7,14 -4,4 -8,7 -12,9 -5,3 -11,4 -17,4 -6,0 -12,-1 -17,-4 -5,-2 -9,-5 -12,-9 -3,-4 -5,-9 -7,-14 -1,-6 -2,-12 -2,-19 0,-7 1,-13 2,-18 2,-6 4,-11 7,-15 3,-4 7,-7 12,-9 5,-2 11,-3 17,-3 6,0 12,1 17,3 4,2 8,5 12,9 3,4 5,9 7,15 1,5 2,11 2,18zm-64 0c0,6 0,11 1,15 1,5 3,8 5,11 2,3 5,6 8,7 4,2 8,3 12,3 5,0 9,-1 12,-3 3,-1 6,-4 8,-7 2,-3 4,-6 5,-11 1,-4 1,-9 1,-15 0,-5 0,-10 -1,-15 -1,-4 -3,-8 -5,-11 -2,-3 -5,-5 -8,-7 -3,-1 -7,-2 -12,-2 -4,0 -8,1 -12,2 -3,2 -6,4 -8,7 -2,3 -4,7 -5,11 -1,5 -1,10 -1,15z"/>
  <polygon id="4" fill="#534745" fill-rule="nonzero" points="8184,15223 8184,15213 8214,15213 8214,15223 "/>
  <path id="5" fill="#534745" fill-rule="nonzero" d="M8279 15251l-55 0 0 -9 22 -23c3,-3 5,-6 8,-9 2,-3 4,-5 6,-8 1,-2 3,-5 3,-7 1,-3 2,-6 2,-9 0,-2 -1,-4 -1,-6 -1,-2 -2,-3 -3,-5 -1,-1 -3,-2 -5,-3 -1,0 -3,-1 -5,-1 -4,0 -8,1 -11,3 -3,1 -6,3 -9,6l-6 -8c2,-1 4,-2 6,-4 1,-1 3,-2 5,-3 3,-1 5,-2 7,-2 3,-1 5,-1 8,-1 4,0 7,1 10,2 3,1 6,2 8,4 2,2 4,5 5,8 1,3 2,6 2,10 0,3 -1,6 -2,9 -1,4 -2,7 -4,10 -2,3 -4,6 -7,9 -2,3 -5,6 -8,9l-17 18 0 0 41 0 0 10z"/>
  <path id="6" fill="#534745" fill-rule="nonzero" d="M8345 15184c0,3 -1,6 -2,8 -1,2 -2,5 -4,6 -1,2 -3,4 -6,5 -2,1 -5,2 -7,2l0 0c7,1 12,4 16,7 3,4 5,9 5,14 0,4 0,8 -2,11 -1,3 -3,6 -6,8 -2,3 -6,4 -10,6 -4,1 -9,2 -14,2 -4,0 -9,-1 -12,-1 -4,-1 -8,-2 -11,-4l0 -10c3,1 7,3 11,4 4,1 8,1 12,1 3,0 7,0 9,-1 3,-1 5,-2 7,-3 2,-2 3,-4 4,-6 1,-2 1,-4 1,-7 0,-3 0,-5 -1,-7 -2,-2 -3,-3 -5,-5 -2,-1 -4,-2 -7,-2 -3,-1 -6,-1 -10,-1l-8 0 0 -10 8 0c3,0 6,0 9,-1 2,-1 4,-2 6,-3 2,-2 3,-4 4,-6 1,-2 1,-4 1,-6 0,-2 0,-4 -1,-6 0,-2 -1,-3 -3,-4 -1,-1 -3,-2 -5,-3 -1,0 -3,-1 -6,-1 -4,0 -8,1 -11,2 -3,2 -6,4 -9,6l-6 -8c2,-1 3,-2 5,-3 2,-1 4,-2 6,-3 2,-1 5,-2 7,-2 3,-1 5,-1 8,-1 5,0 8,1 12,2 3,1 6,2 8,4 2,2 4,5 5,7 1,3 2,6 2,9z"/>
  <path fill="#534745" fill-rule="nonzero" d="M11784 15206l29 0 0 43c-2,1 -4,1 -6,2 -3,0 -5,1 -7,1 -3,1 -5,1 -8,1 -2,0 -5,0 -8,0 -6,0 -12,-1 -17,-3 -5,-2 -9,-5 -12,-9 -4,-4 -6,-8 -8,-14 -2,-6 -2,-12 -2,-19 0,-7 1,-13 2,-19 2,-5 5,-10 9,-14 3,-4 8,-7 13,-9 6,-2 12,-3 19,-3 4,0 8,0 13,1 4,1 7,2 11,4l-4 10c-2,-1 -3,-2 -5,-2 -2,-1 -3,-1 -5,-2 -2,0 -4,-1 -6,-1 -2,0 -3,0 -5,0 -5,0 -9,0 -13,2 -4,2 -7,4 -10,7 -2,3 -4,7 -6,11 -1,5 -2,10 -2,15 0,5 1,10 2,14 1,5 3,8 5,12 3,3 6,5 10,7 4,2 8,3 14,3 1,0 3,-1 4,-1 2,0 3,0 4,0 2,0 3,0 4,-1 1,0 2,0 3,0l0 -27 -18 0 0 -9z"/>
  <path id="1" fill="#534745" fill-rule="nonzero" d="M11887 15190c0,3 0,7 -2,10 -1,4 -3,7 -5,9 -3,3 -6,5 -10,7 -4,1 -9,2 -15,2l-10 0 0 34 -11 0 0 -88 22 0c5,0 10,1 14,2 4,1 7,3 10,5 2,2 4,5 5,8 1,3 2,7 2,11zm-42 18l8 0c4,0 7,0 10,-1 3,0 5,-1 7,-3 2,-1 3,-3 4,-5 1,-3 1,-5 1,-9 0,-5 -1,-10 -5,-12 -3,-3 -8,-4 -15,-4l-10 0 0 34z"/>
  <polygon id="2" fill="#534745" fill-rule="nonzero" points="11930,15252 11898,15252 11898,15246 11909,15244 11909,15173 11898,15170 11898,15164 11930,15164 11930,15170 11920,15173 11920,15244 11930,15246 "/>
  <path id="3" fill="#534745" fill-rule="nonzero" d="M12018 15208c0,7 -1,13 -2,19 -2,5 -4,10 -8,14 -3,4 -7,7 -12,9 -4,2 -10,3 -16,3 -7,0 -12,-1 -17,-3 -5,-2 -9,-5 -12,-9 -3,-4 -6,-9 -7,-14 -2,-6 -2,-12 -2,-19 0,-7 0,-13 2,-19 1,-5 4,-10 7,-14 3,-4 7,-7 12,-9 5,-2 10,-3 17,-3 6,0 12,1 16,3 5,2 9,5 12,9 4,4 6,9 8,14 1,6 2,12 2,19zm-65 0c0,5 1,10 2,15 1,4 3,8 5,11 2,3 5,5 8,7 3,2 7,3 12,3 4,0 8,-1 12,-3 3,-2 6,-4 8,-7 2,-3 4,-7 5,-11 1,-5 1,-10 1,-15 0,-6 0,-11 -1,-15 -1,-4 -3,-8 -5,-11 -2,-3 -5,-5 -8,-7 -4,-2 -7,-2 -12,-2 -5,0 -9,0 -12,2 -3,2 -6,4 -8,7 -2,3 -4,7 -5,11 -1,4 -2,9 -2,15z"/>
  <polygon id="4" fill="#534745" fill-rule="nonzero" points="12031,15224 12031,15214 12060,15214 12060,15224 "/>
  <path id="5" fill="#534745" fill-rule="nonzero" d="M12126 15252l-55 0 0 -9 21 -23c3,-3 6,-6 8,-9 3,-3 5,-5 6,-8 2,-3 3,-5 4,-8 1,-2 2,-5 2,-8 0,-3 -1,-5 -1,-6 -1,-2 -2,-4 -3,-5 -2,-1 -3,-2 -5,-3 -2,-1 -4,-1 -6,-1 -3,0 -7,1 -10,2 -3,2 -6,4 -9,6l-6 -7c2,-1 3,-3 5,-4 2,-1 4,-2 6,-3 2,-1 5,-2 7,-2 2,-1 5,-1 7,-1 4,0 8,0 11,1 3,1 6,3 8,5 2,2 4,5 5,7 1,3 2,7 2,10 0,4 -1,7 -2,10 -1,3 -2,6 -4,9 -2,3 -4,6 -7,9 -3,3 -5,6 -8,10l-17 18 0 0 41 0 0 10z"/>
  <polygon id="6" fill="#534745" fill-rule="nonzero" points="12150,15252 12184,15174 12139,15174 12139,15164 12196,15164 12196,15173 12162,15252 "/>
  <path fill="#534745" fill-rule="nonzero" d="M7937 15460l30 0 0 43c-3,1 -5,1 -7,2 -2,0 -5,1 -7,1 -2,1 -5,1 -7,1 -3,0 -6,0 -9,0 -6,0 -12,-1 -17,-3 -5,-2 -9,-5 -12,-9 -3,-4 -6,-9 -8,-14 -1,-6 -2,-12 -2,-19 0,-7 1,-13 3,-19 2,-5 4,-10 8,-14 4,-4 8,-7 14,-9 5,-2 11,-3 18,-3 4,0 9,0 13,1 4,1 8,2 11,4l-4 10c-2,-1 -3,-2 -5,-2 -1,-1 -3,-1 -5,-2 -2,0 -4,-1 -5,-1 -2,0 -4,0 -6,0 -5,0 -9,0 -13,2 -4,2 -7,4 -9,7 -3,3 -5,7 -6,11 -2,5 -2,10 -2,15 0,5 0,10 1,14 1,5 3,8 6,12 2,3 5,5 9,7 4,2 8,2 14,2 2,0 3,0 5,0 1,0 2,0 4,0 1,0 2,0 3,-1 1,0 2,0 3,0l0 -27 -18 0 0 -9z"/>
  <path id="1" fill="#534745" fill-rule="nonzero" d="M8040 15444c0,3 0,7 -1,10 -1,4 -3,7 -6,9 -2,3 -6,5 -10,6 -4,2 -9,3 -15,3l-9 0 0 34 -12 0 0 -88 22 0c6,0 10,1 14,2 4,1 7,2 10,5 2,2 4,5 6,8 1,3 1,7 1,11zm-41 18l7 0c4,0 7,0 10,-1 3,0 5,-1 7,-3 2,-1 3,-3 4,-5 1,-3 1,-5 1,-9 0,-5 -1,-10 -4,-12 -4,-3 -9,-4 -16,-4l-9 0 0 34z"/>
  <polygon id="2" fill="#534745" fill-rule="nonzero" points="8084,15506 8052,15506 8052,15500 8062,15497 8062,15427 8052,15424 8052,15418 8084,15418 8084,15424 8073,15427 8073,15497 8084,15500 "/>
  <path id="3" fill="#534745" fill-rule="nonzero" d="M8171 15462c0,7 -1,13 -2,18 -2,6 -4,11 -7,15 -4,4 -8,7 -12,9 -5,2 -11,3 -17,3 -6,0 -12,-1 -17,-3 -5,-2 -9,-5 -12,-9 -3,-4 -5,-9 -7,-15 -1,-5 -2,-11 -2,-18 0,-7 1,-13 2,-19 2,-5 4,-10 7,-14 3,-4 7,-7 12,-9 5,-2 11,-3 17,-3 6,0 12,1 17,3 4,2 8,5 12,9 3,4 5,9 7,14 1,6 2,12 2,19zm-64 0c0,5 0,10 1,15 1,4 3,8 5,11 2,3 5,5 8,7 4,2 8,2 12,2 5,0 9,0 12,-2 3,-2 6,-4 8,-7 2,-3 4,-7 5,-11 1,-5 1,-10 1,-15 0,-6 0,-11 -1,-15 -1,-4 -3,-8 -5,-11 -2,-3 -5,-5 -8,-7 -3,-2 -7,-3 -12,-3 -4,0 -8,1 -12,3 -3,2 -6,4 -8,7 -2,3 -4,7 -5,11 -1,4 -1,9 -1,15z"/>
  <polygon id="4" fill="#534745" fill-rule="nonzero" points="8184,15478 8184,15468 8214,15468 8214,15478 "/>
  <path id="5" fill="#534745" fill-rule="nonzero" d="M8262 15506l-11 0 0 -55c0,-2 0,-4 0,-6 0,-1 0,-3 0,-5 0,-2 0,-4 0,-6 0,-2 0,-3 0,-5 0,1 -1,2 -1,2 -1,1 -1,1 -2,2 -1,0 -1,1 -2,1 0,1 -1,1 -2,2l-9 7 -6 -7 23 -18 10 0 0 88z"/>
  <path id="6" fill="#534745" fill-rule="nonzero" d="M8321 15417c3,0 6,0 9,1 3,1 6,2 8,4 2,2 4,4 6,6 1,3 2,6 2,10 0,2 -1,5 -2,7 0,2 -2,4 -3,6 -1,2 -3,3 -5,5 -2,1 -4,2 -6,3 2,2 4,3 7,4 2,2 4,4 6,6 1,2 3,4 4,6 1,2 1,5 1,8 0,4 0,7 -2,10 -1,3 -3,6 -5,8 -3,2 -6,4 -9,5 -3,1 -7,1 -11,1 -5,0 -9,0 -12,-1 -3,-1 -6,-3 -9,-5 -2,-2 -4,-5 -5,-7 -1,-3 -2,-7 -2,-10 0,-3 1,-6 1,-9 1,-2 3,-4 4,-6 2,-2 3,-4 6,-5 2,-2 4,-3 6,-4 -2,-1 -4,-3 -5,-4 -2,-2 -4,-3 -5,-5 -1,-2 -2,-4 -3,-6 -1,-2 -1,-5 -1,-7 0,-4 1,-7 2,-10 1,-2 3,-4 5,-6 3,-2 5,-3 8,-4 3,-1 6,-1 10,-1zm-17 67c0,2 0,4 1,5 0,2 1,4 3,5 1,1 3,2 5,3 2,1 5,1 7,1 3,0 6,0 8,-1 2,-1 4,-2 5,-3 2,-1 3,-3 4,-5 0,-2 1,-4 1,-6 0,-2 -1,-4 -1,-6 -1,-1 -2,-3 -4,-4 -1,-2 -3,-3 -5,-4 -2,-2 -4,-3 -7,-4l-2 -1c-5,2 -9,5 -11,8 -3,3 -4,7 -4,12zm17 -58c-5,0 -8,1 -11,3 -2,2 -3,5 -3,9 0,3 0,4 1,6 0,2 1,3 3,4 1,2 2,3 4,4 2,1 4,2 6,3 2,-1 4,-2 5,-3 2,-1 4,-2 5,-4 1,-1 2,-2 3,-4 1,-2 1,-4 1,-6 0,-4 -1,-7 -4,-9 -2,-2 -6,-3 -10,-3z"/>
  <path fill="#534745" fill-rule="nonzero" d="M11784 15460l29 0 0 43c-2,1 -4,1 -6,2 -3,0 -5,1 -7,1 -3,1 -5,1 -8,1 -2,0 -5,0 -8,0 -6,0 -12,-1 -17,-3 -5,-2 -9,-5 -12,-9 -4,-4 -6,-8 -8,-14 -2,-6 -2,-12 -2,-19 0,-7 1,-13 2,-19 2,-5 5,-10 9,-14 3,-4 8,-7 13,-9 6,-2 12,-3 19,-3 4,0 8,0 13,1 4,1 7,2 11,4l-4 10c-2,-1 -3,-2 -5,-2 -2,-1 -3,-1 -5,-2 -2,0 -4,-1 -6,-1 -2,0 -3,0 -5,0 -5,0 -9,0 -13,2 -4,2 -7,4 -10,7 -2,3 -4,7 -6,11 -1,5 -2,10 -2,15 0,5 1,10 2,14 1,5 3,8 5,12 3,3 6,5 10,7 4,2 8,3 14,3 1,0 3,-1 4,-1 2,0 3,0 4,0 2,0 3,0 4,-1 1,0 2,0 3,0l0 -27 -18 0 0 -9z"/>
  <path id="1" fill="#534745" fill-rule="nonzero" d="M11887 15444c0,3 0,7 -2,10 -1,4 -3,7 -5,9 -3,3 -6,5 -10,7 -4,1 -9,2 -15,2l-10 0 0 34 -11 0 0 -88 22 0c5,0 10,1 14,2 4,1 7,3 10,5 2,2 4,5 5,8 1,3 2,7 2,11zm-42 18l8 0c4,0 7,0 10,-1 3,0 5,-1 7,-3 2,-1 3,-3 4,-5 1,-3 1,-5 1,-9 0,-5 -1,-10 -5,-12 -3,-3 -8,-4 -15,-4l-10 0 0 34z"/>
  <polygon id="2" fill="#534745" fill-rule="nonzero" points="11930,15506 11898,15506 11898,15500 11909,15498 11909,15427 11898,15424 11898,15418 11930,15418 11930,15424 11920,15427 11920,15498 11930,15500 "/>
  <path id="3" fill="#534745" fill-rule="nonzero" d="M12018 15462c0,7 -1,13 -2,19 -2,5 -4,10 -8,14 -3,4 -7,7 -12,9 -4,2 -10,3 -16,3 -7,0 -12,-1 -17,-3 -5,-2 -9,-5 -12,-9 -3,-4 -6,-9 -7,-14 -2,-6 -2,-12 -2,-19 0,-7 0,-13 2,-19 1,-5 4,-10 7,-14 3,-4 7,-7 12,-9 5,-2 10,-3 17,-3 6,0 12,1 16,3 5,2 9,5 12,9 4,4 6,9 8,14 1,6 2,12 2,19zm-65 0c0,5 1,10 2,15 1,4 3,8 5,11 2,3 5,5 8,7 3,2 7,3 12,3 4,0 8,-1 12,-3 3,-2 6,-4 8,-7 2,-3 4,-7 5,-11 1,-5 1,-10 1,-15 0,-6 0,-11 -1,-15 -1,-4 -3,-8 -5,-11 -2,-3 -5,-5 -8,-7 -4,-2 -7,-2 -12,-2 -5,0 -9,0 -12,2 -3,2 -6,4 -8,7 -2,3 -4,7 -5,11 -1,4 -2,9 -2,15z"/>
  <polygon id="4" fill="#534745" fill-rule="nonzero" points="12031,15478 12031,15468 12060,15468 12060,15478 "/>
  <path id="5" fill="#534745" fill-rule="nonzero" d="M12108 15506l-10 0 0 -55c0,-2 0,-3 0,-5 0,-2 0,-4 0,-6 0,-2 0,-4 0,-6 0,-2 0,-3 0,-5 -1,1 -1,2 -2,2 0,1 -1,1 -1,2 -1,0 -1,1 -2,1 -1,1 -1,1 -2,2l-9 7 -6 -7 23 -18 9 0 0 88z"/>
  <polygon id="6" fill="#534745" fill-rule="nonzero" points="12150,15506 12184,15428 12139,15428 12139,15418 12196,15418 12196,15427 12162,15506 "/>
  <path fill="#534745" fill-rule="nonzero" d="M9465 14674l-34 -99 0 0c0,4 0,8 0,11 1,4 1,7 1,11 0,3 0,7 0,9l0 68 -14 0 0 -113 22 0 31 92 1 0 32 -92 21 0 0 113 -14 0 0 -69c0,-2 0,-5 0,-9 0,-3 0,-7 0,-10 0,-3 1,-7 1,-11l-1 0 -35 99 -11 0z"/>
  <path id="1" fill="#534745" fill-rule="nonzero" d="M9623 14632c0,7 -1,13 -2,18 -2,6 -4,11 -8,14 -3,4 -7,7 -11,9 -5,2 -10,3 -16,3 -5,0 -10,-1 -15,-3 -4,-2 -8,-5 -11,-9 -4,-3 -6,-8 -8,-14 -2,-5 -3,-11 -3,-18 0,-8 1,-14 3,-19 2,-6 4,-10 7,-14 3,-4 7,-7 12,-9 5,-1 10,-2 16,-2 5,0 10,1 14,2 5,2 9,5 12,9 3,4 6,8 8,14 1,5 2,11 2,19zm-59 0c0,10 2,18 5,24 4,5 9,8 17,8 8,0 14,-3 18,-8 3,-6 5,-14 5,-24 0,-11 -2,-19 -6,-25 -3,-5 -9,-8 -17,-8 -8,0 -13,3 -17,8 -3,6 -5,14 -5,25z"/>
  <path id="2" fill="#534745" fill-rule="nonzero" d="M9699 14674l0 -55c0,-6 -2,-11 -4,-15 -3,-3 -7,-5 -13,-5 -4,0 -8,1 -11,2 -2,2 -5,4 -6,6 -2,3 -3,6 -4,10 -1,4 -1,8 -1,13l0 44 -14 0 0 -85 11 0 2 12 1 0c1,-3 3,-5 4,-6 2,-2 4,-3 6,-4 2,-1 5,-2 7,-3 2,0 5,0 7,0 10,0 17,2 22,7 5,5 7,13 7,24l0 55 -14 0z"/>
  <polygon id="3" fill="#534745" fill-rule="nonzero" points="9752,14630 9763,14617 9785,14589 9802,14589 9771,14626 9804,14674 9788,14674 9762,14635 9753,14642 9753,14674 9739,14674 9739,14554 9753,14554 9753,14609 9752,14630 "/>
  <path id="4" fill="#534745" fill-rule="nonzero" d="M9908 14674l-33 -99 -1 0c0,4 1,8 1,11 0,4 0,7 0,11 0,3 0,7 0,9l0 68 -14 0 0 -113 22 0 31 92 1 0 32 -92 21 0 0 113 -14 0 0 -69c0,-2 0,-5 0,-9 0,-3 0,-7 0,-10 1,-3 1,-7 1,-11l-1 0 -34 99 -12 0z"/>
  <path id="5" fill="#534745" fill-rule="nonzero" d="M10045 14674l-3 -12 0 0c-2,3 -4,5 -5,6 -2,2 -4,4 -6,5 -2,1 -4,1 -7,2 -2,1 -5,1 -8,1 -4,0 -7,-1 -10,-2 -3,-1 -6,-2 -8,-4 -2,-2 -4,-5 -5,-8 -1,-4 -2,-7 -2,-12 0,-8 3,-15 9,-19 6,-5 15,-7 27,-8l14 0 0 -6c0,-3 0,-6 -1,-8 0,-3 -2,-4 -3,-6 -1,-1 -3,-2 -5,-3 -2,0 -5,-1 -7,-1 -5,0 -9,1 -12,2 -4,1 -8,3 -11,5l-5 -11c4,-2 8,-4 13,-5 5,-2 9,-2 15,-2 5,0 9,0 13,1 4,1 7,3 10,5 2,2 4,5 5,9 2,4 2,8 2,13l0 58 -10 0zm-26 -10c3,0 6,0 9,-1 3,-1 5,-3 7,-5 2,-2 3,-4 5,-7 1,-3 1,-7 1,-11l0 -8 -11 1c-4,0 -8,1 -12,2 -3,0 -5,2 -7,3 -2,1 -3,3 -4,5 -1,2 -1,5 -1,7 0,5 1,9 3,11 3,2 6,3 10,3z"/>
  <polygon id="6" fill="#534745" fill-rule="nonzero" points="10095,14630 10105,14617 10128,14589 10144,14589 10113,14626 10146,14674 10130,14674 10104,14635 10096,14642 10096,14674 10081,14674 10081,14554 10096,14554 10096,14609 10094,14630 "/>
  <path id="7" fill="#534745" fill-rule="nonzero" d="M10194 14676c-6,0 -11,-1 -16,-3 -4,-2 -8,-5 -12,-8 -3,-4 -6,-9 -8,-14 -2,-6 -3,-12 -3,-19 0,-7 1,-13 3,-19 2,-5 4,-10 7,-14 3,-4 7,-6 11,-8 5,-2 10,-3 15,-3 5,0 9,0 14,2 4,2 7,5 10,8 3,3 5,7 6,12 2,5 3,10 3,16l0 9 -54 0c0,10 2,17 6,21 4,5 10,7 18,7 3,0 5,0 7,0 3,0 5,-1 7,-1 2,-1 4,-1 6,-2 2,-1 4,-1 6,-2l0 12c-2,1 -4,2 -6,3 -2,0 -4,1 -6,1 -2,1 -5,1 -7,1 -2,1 -4,1 -7,1zm-3 -77c-6,0 -11,2 -14,6 -4,4 -6,10 -7,18l39 0c0,-4 0,-7 -1,-10 -1,-3 -2,-5 -3,-7 -2,-2 -4,-4 -6,-5 -2,-1 -5,-2 -8,-2z"/>
  <path id="8" fill="#534745" fill-rule="nonzero" d="M10296 14651c0,4 -1,8 -2,11 -2,3 -4,5 -7,8 -2,2 -6,3 -10,4 -4,1 -8,2 -13,2 -6,0 -11,-1 -15,-2 -4,0 -7,-2 -10,-4l0 -13c1,1 3,2 5,3 2,1 4,1 6,2 2,1 5,1 7,2 2,0 4,0 7,0 3,0 6,0 8,-1 3,0 4,-1 6,-2 1,-1 2,-2 3,-4 1,-2 1,-3 1,-5 0,-2 0,-3 -1,-4 0,-2 -1,-3 -2,-4 -2,-1 -4,-3 -6,-4 -2,-1 -5,-3 -9,-4 -4,-2 -7,-4 -10,-5 -3,-2 -6,-3 -8,-5 -2,-2 -3,-4 -4,-7 -1,-2 -2,-5 -2,-9 0,-4 1,-7 2,-10 2,-2 4,-5 6,-7 3,-2 6,-3 9,-4 4,-1 8,-1 13,-1 5,0 9,0 13,1 4,1 8,3 12,4l-5 12c-3,-2 -6,-3 -10,-4 -3,-1 -7,-2 -11,-2 -5,0 -9,1 -11,3 -3,2 -4,4 -4,7 0,2 0,4 1,5 1,1 2,3 3,4 1,1 3,2 6,3 2,2 5,3 9,4 3,2 7,4 10,5 2,2 5,3 7,5 2,2 4,4 5,7 1,2 1,5 1,9z"/>
  <path id="9" fill="#534745" fill-rule="nonzero" d="M9432 14812l0 47 -14 0 0 -113 27 0c14,0 24,2 31,8 6,5 10,13 10,24 0,4 -1,8 -2,12 -1,3 -3,6 -5,8 -2,3 -5,5 -7,6 -3,2 -6,3 -9,4l31 51 -17 0 -27 -47 -18 0zm0 -12l13 0c4,0 8,-1 12,-2 3,0 5,-2 7,-4 3,-1 4,-4 5,-6 1,-3 1,-6 1,-10 0,-3 0,-6 -1,-9 -1,-3 -3,-5 -5,-6 -2,-2 -5,-3 -8,-4 -3,-1 -7,-1 -12,-1l-12 0 0 42z"/>
  <path id="10" fill="#534745" fill-rule="nonzero" d="M9557 14859l-3 -12 0 0c-2,3 -4,5 -5,6 -2,2 -4,3 -6,4 -2,1 -4,2 -7,3 -2,0 -5,1 -8,1 -4,0 -7,-1 -10,-2 -3,-1 -6,-2 -8,-5 -2,-2 -4,-4 -5,-8 -1,-3 -2,-6 -2,-11 0,-8 3,-15 9,-19 6,-5 15,-7 27,-8l15 0 0 -6c0,-3 -1,-6 -1,-8 -1,-3 -2,-5 -4,-6 -1,-1 -3,-2 -5,-3 -2,-1 -4,-1 -7,-1 -4,0 -8,1 -12,2 -4,1 -7,3 -11,4l-5 -10c4,-2 8,-4 13,-6 5,-1 10,-2 15,-2 5,0 10,1 14,2 3,1 7,3 9,5 3,2 4,5 6,9 1,3 2,8 2,13l0 58 -11 0zm-26 -10c4,0 7,-1 9,-2 3,-1 5,-2 7,-4 2,-2 4,-5 5,-8 1,-3 1,-6 1,-10l0 -8 -11 1c-4,0 -8,1 -11,1 -3,1 -6,2 -8,4 -2,1 -3,3 -4,5 -1,2 -1,5 -1,7 0,5 1,8 4,11 2,2 5,3 9,3z"/>
  <path id="11" fill="#534745" fill-rule="nonzero" d="M9645 14836c0,4 -1,7 -3,11 -1,3 -3,5 -6,7 -3,2 -6,4 -10,5 -4,1 -9,2 -14,2 -5,0 -10,-1 -14,-2 -4,-1 -8,-2 -11,-4l0 -13c2,1 4,2 6,3 2,0 4,1 6,2 2,0 4,1 6,1 3,1 5,1 7,1 4,0 6,0 9,-1 2,-1 4,-1 5,-2 2,-1 3,-3 4,-4 0,-2 1,-3 1,-5 0,-2 -1,-3 -1,-5 -1,-1 -2,-2 -3,-3 -1,-2 -3,-3 -6,-4 -2,-2 -5,-3 -9,-5 -3,-1 -7,-3 -10,-4 -3,-2 -5,-4 -7,-6 -2,-1 -4,-4 -5,-6 -1,-3 -1,-6 -1,-9 0,-4 0,-7 2,-10 1,-3 3,-5 6,-7 2,-2 5,-3 9,-4 4,-1 8,-2 12,-2 5,0 10,1 14,2 4,1 8,2 12,4l-5 12c-4,-2 -7,-3 -10,-4 -4,-1 -7,-2 -11,-2 -5,0 -9,1 -12,3 -2,1 -3,4 -3,7 0,2 0,3 1,5 0,1 1,2 3,4 1,1 3,2 5,3 3,1 6,3 9,4 4,2 7,3 10,5 3,1 5,3 7,5 2,2 4,4 5,7 1,2 2,5 2,9z"/>
  <path id="12" fill="#534745" fill-rule="nonzero" d="M9735 14779c0,5 -1,9 -2,13 -1,5 -4,9 -7,12 -3,3 -8,6 -13,8 -5,2 -12,3 -20,3l-11 0 0 44 -15 0 0 -113 28 0c7,0 13,0 18,2 5,1 9,3 13,6 3,3 5,7 7,11 1,4 2,9 2,14zm-53 24l10 0c4,0 9,-1 12,-2 4,-1 7,-2 9,-4 2,-2 4,-4 5,-7 1,-3 2,-6 2,-10 0,-8 -2,-13 -6,-17 -5,-3 -11,-5 -20,-5l-12 0 0 45z"/>
  <path id="13" fill="#534745" fill-rule="nonzero" d="M9771 14859l-14 0 0 -85 14 0 0 85zm-15 -108c0,-3 1,-6 2,-7 2,-1 4,-2 6,-2 1,0 2,0 3,0 1,1 2,1 3,2 1,1 1,2 2,3 0,1 0,2 0,4 0,3 -1,5 -2,7 -2,1 -4,2 -6,2 -2,0 -4,-1 -6,-2 -1,-2 -2,-4 -2,-7z"/>
  <path id="14" fill="#534745" fill-rule="nonzero" d="M9814 14812l0 47 -14 0 0 -113 27 0c14,0 24,2 31,8 6,5 10,13 10,24 0,4 -1,8 -2,12 -1,3 -3,6 -5,8 -2,3 -5,5 -7,6 -3,2 -6,3 -9,4l31 51 -17 0 -27 -47 -18 0zm0 -12l13 0c4,0 8,-1 12,-2 3,0 5,-2 8,-4 2,-1 3,-4 4,-6 1,-3 1,-6 1,-10 0,-3 0,-6 -1,-9 -1,-3 -3,-5 -5,-6 -2,-2 -5,-3 -8,-4 -3,-1 -7,-1 -11,-1l-13 0 0 42z"/>
  <path id="15" fill="#534745" fill-rule="nonzero" d="M9961 14816c0,7 -1,14 -3,19 -1,6 -4,10 -7,14 -3,4 -7,7 -12,9 -4,2 -10,3 -15,3 -6,0 -11,-1 -15,-3 -5,-2 -9,-5 -12,-9 -3,-4 -6,-8 -7,-14 -2,-5 -3,-12 -3,-19 0,-7 1,-13 2,-18 2,-6 5,-10 8,-14 3,-4 7,-7 12,-9 4,-2 9,-3 15,-3 5,0 10,1 15,3 4,2 8,5 11,9 4,4 6,8 8,14 2,5 3,11 3,18zm-60 0c0,11 2,19 6,25 3,5 9,8 17,8 8,0 14,-3 17,-8 4,-6 5,-14 5,-25 0,-11 -1,-19 -5,-24 -3,-5 -9,-8 -17,-8 -8,0 -14,3 -17,8 -4,5 -6,13 -6,24z"/>
  <path id="16" fill="#534745" fill-rule="nonzero" d="M10022 14772c4,0 9,1 13,3 4,2 7,5 10,8 3,4 5,9 7,14 1,6 2,12 2,19 0,8 -1,14 -2,19 -2,6 -4,11 -7,14 -3,4 -6,7 -10,9 -4,2 -9,3 -13,3 -3,0 -6,-1 -9,-1 -2,-1 -4,-2 -6,-3 -2,-1 -4,-3 -6,-4 -1,-2 -3,-3 -4,-5l-1 0 -3 11 -10 0 0 -121 14 0 0 30c0,1 0,3 0,5 0,2 0,4 0,6 0,2 0,4 0,6l0 0c1,-2 3,-3 4,-5 2,-2 4,-3 6,-4 2,-1 4,-2 6,-3 3,0 6,-1 9,-1zm-3 12c-4,0 -8,1 -10,2 -3,1 -5,3 -7,6 -2,3 -3,6 -4,10 0,4 -1,9 -1,14 0,6 1,10 1,14 1,4 2,8 4,10 2,3 4,5 7,7 2,1 6,2 10,2 7,0 12,-3 15,-9 4,-5 5,-13 5,-24 0,-11 -1,-19 -5,-24 -3,-5 -8,-8 -15,-8z"/>
  <path id="17" fill="#534745" fill-rule="nonzero" d="M10146 14816c0,7 -1,14 -3,19 -2,6 -4,10 -7,14 -4,4 -8,7 -12,9 -5,2 -10,3 -16,3 -5,0 -10,-1 -14,-3 -5,-2 -9,-5 -12,-9 -3,-4 -6,-8 -8,-14 -2,-5 -3,-12 -3,-19 0,-7 1,-13 3,-18 2,-6 4,-10 7,-14 4,-4 8,-7 12,-9 5,-2 10,-3 16,-3 5,0 10,1 14,3 5,2 9,5 12,9 3,4 6,8 8,14 2,5 3,11 3,18zm-60 0c0,11 2,19 5,25 4,5 10,8 18,8 8,0 13,-3 17,-8 3,-6 5,-14 5,-25 0,-11 -2,-19 -5,-24 -4,-5 -10,-8 -18,-8 -8,0 -13,3 -17,8 -3,5 -5,13 -5,24z"/>
  <path id="18" fill="#534745" fill-rule="nonzero" d="M10194 14849c0,0 2,0 3,0 1,0 2,-1 3,-1 1,0 2,0 3,0 1,0 2,-1 2,-1l0 11c-1,0 -1,1 -2,1 -1,0 -3,1 -4,1 -1,0 -2,0 -4,0 -1,1 -2,1 -4,1 -3,0 -6,-1 -9,-2 -2,-1 -5,-2 -7,-4 -2,-2 -3,-5 -4,-8 -2,-4 -2,-8 -2,-13l0 -50 -12 0 0 -6 12 -6 6 -18 8 0 0 20 22 0 0 10 -22 0 0 50c0,5 1,9 3,11 1,3 4,4 8,4z"/>
  <path id="19" fill="#534745" fill-rule="nonzero" d="M10324 14746l16 0 -38 113 -15 0 -38 -113 16 0 23 72c1,4 2,9 3,13 2,4 3,9 3,12 1,-3 2,-8 3,-12 2,-4 3,-9 5,-14l22 -71z"/>
  <path id="20" fill="#534745" fill-rule="nonzero" d="M10414 14772c0,4 -1,7 -2,11 -1,3 -3,5 -5,8 -2,2 -5,4 -8,5 -3,2 -6,3 -10,3l0 1c10,1 17,4 21,9 5,4 7,10 7,18 0,5 0,9 -2,13 -2,5 -4,8 -8,11 -3,3 -7,5 -13,7 -5,2 -11,3 -18,3 -6,0 -11,-1 -16,-2 -5,-1 -10,-2 -14,-5l0 -13c4,3 9,4 15,6 5,1 10,2 15,2 4,0 8,-1 12,-2 3,-1 6,-2 9,-4 2,-2 3,-5 5,-7 1,-3 1,-6 1,-10 0,-3 -1,-6 -2,-9 -1,-2 -3,-4 -6,-6 -2,-1 -5,-3 -9,-3 -4,-1 -8,-1 -12,-1l-11 0 0 -12 11 0c4,0 7,-1 11,-2 3,-1 6,-3 8,-4 2,-2 4,-5 5,-7 1,-3 2,-6 2,-9 0,-3 -1,-5 -2,-7 -1,-2 -2,-4 -4,-5 -1,-2 -3,-3 -6,-4 -2,-1 -5,-1 -8,-1 -5,0 -10,1 -14,3 -5,1 -9,4 -13,6l-7 -9c2,-2 4,-3 7,-5 2,-1 5,-2 8,-4 3,-1 6,-1 9,-2 3,-1 6,-1 10,-1 6,0 11,1 15,2 4,2 8,4 10,6 3,3 5,6 7,9 1,3 2,7 2,11z"/>
  <path id="21" fill="#534745" fill-rule="nonzero" d="M10477 14784l-19 0 0 75 -14 0 0 -75 -15 0 0 -6 15 -5 0 -7c0,-6 1,-10 2,-14 1,-3 3,-6 5,-8 2,-3 5,-4 8,-5 3,-1 7,-1 11,-1 3,0 6,0 8,0 3,1 5,2 7,2l-3 11c-2,0 -4,-1 -6,-1 -2,-1 -4,-1 -6,-1 -2,0 -3,1 -5,1 -1,0 -3,1 -4,3 -1,1 -1,2 -2,5 0,2 -1,5 -1,8l0 8 19 0 0 10z"/>
  <path fill="#534745" fill-rule="nonzero" d="M10040 12555l12 0 -30 88 -11 0 -29 -88 12 0 17 56c2,4 3,7 3,11 1,3 2,6 3,9 0,-3 1,-6 2,-9 1,-4 2,-7 3,-11l18 -56z"/>
  <path id="1" fill="#534745" fill-rule="nonzero" d="M10084 12645c-4,0 -8,-1 -11,-2 -4,-1 -7,-3 -10,-6 -2,-3 -4,-6 -6,-11 -1,-4 -2,-9 -2,-15 0,-7 1,-12 2,-16 2,-5 4,-8 7,-11 2,-3 5,-5 9,-6 4,-1 7,-2 11,-2 4,0 7,0 10,1 3,1 5,2 7,3l-3 9c-1,-1 -2,-1 -3,-1 -1,-1 -2,-1 -4,-1 -1,-1 -2,-1 -3,-1 -1,0 -3,0 -4,0 -6,0 -10,2 -13,6 -3,4 -5,10 -5,19 0,8 2,14 5,18 3,4 7,6 13,6 3,0 6,0 9,-1 2,-1 5,-2 7,-3l0 10c-2,1 -4,2 -7,3 -2,0 -5,1 -9,1z"/>
  <path id="2" fill="#534745" fill-rule="nonzero" d="M10141 12645c-4,0 -8,-1 -11,-2 -4,-1 -7,-3 -9,-6 -3,-3 -5,-6 -7,-11 -1,-4 -2,-9 -2,-15 0,-7 1,-12 2,-16 2,-5 4,-8 7,-11 2,-3 6,-5 9,-6 4,-1 7,-2 12,-2 3,0 6,0 9,1 3,1 5,2 7,3l-3 9c-1,-1 -2,-1 -3,-1 -1,-1 -2,-1 -4,-1 -1,-1 -2,-1 -3,-1 -1,0 -2,0 -3,0 -7,0 -11,2 -14,6 -3,4 -5,10 -5,19 0,8 2,14 5,18 3,4 7,6 13,6 3,0 6,0 9,-1 3,-1 5,-2 7,-3l0 10c-2,1 -4,2 -7,3 -2,0 -5,1 -9,1z"/>
  <path fill="#534745" fill-rule="nonzero" d="M9917 16798l29 0 0 43c-2,1 -4,1 -6,2 -2,0 -5,1 -7,1 -3,1 -5,1 -8,1 -2,0 -5,0 -8,0 -6,0 -12,-1 -17,-3 -5,-2 -9,-5 -12,-9 -3,-4 -6,-9 -8,-14 -1,-6 -2,-12 -2,-19 0,-7 1,-13 3,-19 1,-5 4,-10 8,-14 4,-4 8,-7 13,-9 6,-2 12,-3 19,-3 4,0 9,0 13,1 4,1 8,2 11,4l-4 10c-2,-1 -3,-2 -5,-2 -2,-1 -3,-1 -5,-2 -2,0 -4,-1 -6,-1 -1,0 -3,0 -5,0 -5,0 -9,0 -13,2 -4,2 -7,4 -10,7 -2,3 -4,7 -5,11 -2,5 -2,10 -2,15 0,5 0,10 1,14 1,5 3,8 6,12 2,3 5,5 9,7 4,2 8,2 14,2 1,0 3,0 4,0 2,0 3,0 5,0 1,0 2,0 3,-1 1,0 2,0 3,0l0 -27 -18 0 0 -9z"/>
  <path id="1" fill="#534745" fill-rule="nonzero" d="M10033 16844l-13 0 -42 -73 -1 0c1,3 1,6 1,9 0,3 0,6 0,9 1,2 1,5 1,7l0 48 -12 0 0 -88 14 0 42 73 0 0c0,-4 0,-7 0,-10 0,-1 0,-2 0,-3 -1,-2 -1,-3 -1,-5 0,-1 0,-2 0,-3 0,-2 0,-3 0,-4l0 -48 11 0 0 88z"/>
  <path id="2" fill="#534745" fill-rule="nonzero" d="M10122 16799c0,8 -1,14 -3,20 -2,5 -4,10 -8,14 -4,4 -8,6 -13,8 -6,2 -12,3 -19,3l-22 0 0 -88 25 0c6,0 12,1 17,3 5,2 9,4 12,8 4,4 7,8 8,13 2,6 3,12 3,19zm-12 1c0,-6 0,-11 -2,-16 -1,-4 -3,-7 -5,-10 -3,-3 -6,-5 -10,-6 -3,-2 -8,-2 -12,-2l-12 0 0 68 9 0c11,0 19,-2 24,-8 6,-6 8,-15 8,-26z"/>
  <path fill="#534745" fill-rule="nonzero" d="M9392 12576c0,3 -1,6 -2,8 -1,2 -2,5 -4,6 -1,2 -3,4 -6,5 -2,1 -5,2 -7,2l0 0c7,1 12,4 16,7 4,4 5,9 5,14 0,4 0,8 -2,11 -1,3 -3,6 -6,8 -2,3 -6,4 -10,6 -4,1 -8,2 -14,2 -4,0 -9,-1 -12,-1 -4,-1 -8,-2 -11,-4l0 -10c3,1 7,3 11,4 4,1 8,1 12,1 4,0 7,0 9,-1 3,-1 5,-2 7,-3 2,-2 3,-4 4,-6 1,-2 1,-4 1,-7 0,-3 0,-5 -1,-7 -1,-2 -3,-3 -5,-5 -2,-1 -4,-2 -7,-2 -3,-1 -6,-1 -10,-1l-8 0 0 -10 8 0c3,0 6,0 9,-1 2,-1 5,-2 6,-3 2,-2 3,-4 4,-6 1,-2 1,-4 1,-6 0,-2 0,-4 -1,-6 0,-2 -1,-3 -3,-4 -1,-1 -3,-2 -4,-3 -2,0 -4,-1 -7,-1 -4,0 -8,1 -11,2 -3,2 -6,3 -9,6l-6 -8c2,-1 3,-2 5,-3 2,-1 4,-2 6,-3 2,-1 5,-2 7,-2 3,-1 6,-1 8,-1 5,0 8,1 12,2 3,1 6,2 8,4 2,2 4,5 5,7 1,3 2,6 2,9z"/>
  <path id="1" fill="#534745" fill-rule="nonzero" d="M9411 12637c0,-2 0,-3 0,-4 1,-1 1,-2 2,-3 1,0 1,-1 2,-1 1,0 2,-1 3,-1 1,0 2,1 3,1 1,0 2,1 3,1 0,1 1,2 1,3 1,1 1,2 1,4 0,1 0,3 -1,4 0,1 -1,2 -1,2 -1,1 -2,1 -3,2 -1,0 -2,0 -3,0 -1,0 -2,0 -3,0 -1,-1 -1,-1 -2,-2 -1,0 -1,-1 -2,-2 0,-1 0,-3 0,-4z"/>
  <path id="2" fill="#534745" fill-rule="nonzero" d="M9493 12576c0,3 -1,6 -2,8 -1,2 -2,5 -4,6 -1,2 -3,4 -6,5 -2,1 -4,2 -7,2l0 0c7,1 12,4 16,7 4,4 5,9 5,14 0,4 0,8 -1,11 -2,3 -4,6 -6,8 -3,3 -6,4 -11,6 -4,1 -8,2 -14,2 -4,0 -8,-1 -12,-1 -4,-1 -8,-2 -11,-4l0 -10c3,1 7,3 11,4 4,1 8,1 12,1 4,0 7,0 10,-1 2,-1 4,-2 6,-3 2,-2 3,-4 4,-6 1,-2 1,-4 1,-7 0,-3 0,-5 -1,-7 -1,-2 -3,-3 -5,-5 -2,-1 -4,-2 -7,-2 -3,-1 -6,-1 -10,-1l-8 0 0 -10 8 0c4,0 6,0 9,-1 3,-1 5,-2 6,-3 2,-2 3,-4 4,-6 1,-2 2,-4 2,-6 0,-2 -1,-4 -2,-6 0,-2 -1,-3 -3,-4 -1,-1 -2,-2 -4,-3 -2,0 -4,-1 -7,-1 -4,0 -8,1 -11,2 -3,2 -6,3 -9,6l-6 -8c2,-1 3,-2 5,-3 2,-1 4,-2 6,-3 3,-1 5,-2 7,-2 3,-1 6,-1 8,-1 5,0 9,1 12,2 3,1 6,2 8,4 2,2 4,5 5,7 1,3 2,6 2,9z"/>
  <path id="3" fill="#534745" fill-rule="nonzero" d="M9561 12555l12 0 -29 88 -12 0 -29 -88 12 0 18 56c1,4 2,7 3,11 0,3 1,6 2,9 0,-3 1,-6 2,-9 1,-4 2,-7 3,-11l18 -56z"/>
  <path fill="#534745" fill-rule="nonzero" d="M9706 12591c4,0 8,0 11,1 3,1 6,3 9,5 2,2 4,5 6,8 1,3 2,7 2,11 0,5 -1,9 -2,13 -1,3 -3,7 -6,9 -3,3 -6,5 -10,6 -4,1 -9,2 -14,2 -2,0 -4,0 -6,0 -2,-1 -4,-1 -5,-1 -2,-1 -4,-1 -6,-2 -1,0 -3,-1 -4,-2l0 -10c1,1 3,2 5,2 1,1 3,2 5,2 2,1 4,1 6,1 2,0 4,1 6,1 3,0 6,-1 8,-2 3,0 5,-1 7,-3 1,-2 3,-4 4,-6 0,-2 1,-5 1,-8 0,-6 -2,-10 -5,-13 -4,-4 -9,-5 -16,-5 -1,0 -2,0 -3,0 -2,0 -3,0 -4,0 -1,1 -3,1 -4,1 -1,0 -2,0 -3,1l-5 -4 3 -41 42 0 0 10 -32 0 -3 25c1,0 3,-1 5,-1 2,0 5,0 8,0z"/>
  <path id="1" fill="#534745" fill-rule="nonzero" d="M9799 12557l12 0 -29 88 -12 0 -29 -88 12 0 18 55c1,4 2,8 3,11 1,3 1,7 2,10 1,-3 1,-7 2,-10 1,-3 2,-7 4,-11l17 -55z"/>
  <g id="copper1">
   <line id="connector47pin" fill="none" fill-rule="nonzero" stroke="#2B2A29" stroke-width="20" x1="10000" y1="12414" x2="10000" y2= "12160" />
   <line id="connector15pin" fill="none" fill-rule="nonzero" stroke="#2B2A29" stroke-width="20" x1="9746" y1="12414" x2="9746" y2= "12160" />
   <line id="connector29pin" fill="none" fill-rule="nonzero" stroke="#2B2A29" stroke-width="20" x1="9492" y1="12414" x2="9492" y2= "12160" />
   <line id="connector16pin" fill="none" fill-rule="nonzero" stroke="#2B2A29" stroke-width="20" x1="9746" y1="12414" x2="9746" y2= "12160" />
   <line id="connector30pin" fill="none" fill-rule="nonzero" stroke="#2B2A29" stroke-width="20" x1="9746" y1="12414" x2="9746" y2= "12160" />
   <line id="connector34pin" fill="none" fill-rule="nonzero" stroke="#2B2A29" stroke-width="20" x1="9746" y1="12414" x2="9746" y2= "12160" />
   <line id="connector46pin" fill="none" fill-rule="nonzero" stroke="#2B2A29" stroke-width="20" x1="10000" y1="17240" x2="10000" y2= "16986" />
   <line id="connector37pin" fill="none" fill-rule="nonzero" stroke="#2B2A29" stroke-width="20" x1="10000" y1="17240" x2="10000" y2= "16986" />
   <line id="connector7pin" fill="none" fill-rule="nonzero" stroke="#2B2A29" stroke-width="20" x1="10000" y1="17240" x2="10000" y2= "16986" />
   <line id="connector14pin" fill="none" fill-rule="nonzero" stroke="#2B2A29" stroke-width="20" x1="10000" y1="17240" x2="10000" y2= "16986" />
   <line id="connector10pin" fill="none" fill-rule="nonzero" stroke="#2B2A29" stroke-width="20" x1="10000" y1="17240" x2="10000" y2= "16986" />
   <line id="connector25pin" fill="none" fill-rule="nonzero" stroke="#2B2A29" stroke-width="20" x1="10000" y1="17240" x2="10000" y2= "16986" />
   <line id="connector17pin" fill="none" fill-rule="nonzero" stroke="#2B2A29" stroke-width="20" x1="10000" y1="17240" x2="10000" y2= "16986" />
   <line id="connector0pin" fill="none" fill-rule="nonzero" stroke="#2B2A29" stroke-width="20" x1="10762" y1="12414" x2="10762" y2= "12160" />
   <line id="connector1pin" fill="none" fill-rule="nonzero" stroke="#2B2A29" stroke-width="20" x1="11016" y1="12414" x2="11016" y2= "12160" />
   <line id="connector2pin" fill="none" fill-rule="nonzero" stroke="#2B2A29" stroke-width="20" x1="11270" y1="12414" x2="11270" y2= "12160" />
   <line id="connector3pin" fill="none" fill-rule="nonzero" stroke="#2B2A29" stroke-width="20" x1="11524" y1="12414" x2="11524" y2= "12160" />
   <line id="connector33pin" fill="none" fill-rule="nonzero" stroke="#2B2A29" stroke-width="20" x1="8984" y1="12414" x2="8984" y2= "12160" />
   <line id="connector32pin" fill="none" fill-rule="nonzero" stroke="#2B2A29" stroke-width="20" x1="8730" y1="12414" x2="8730" y2= "12160" />
   <line id="connector35pin" fill="none" fill-rule="nonzero" stroke="#2B2A29" stroke-width="20" x1="7968" y1="17240" x2="7968" y2= "16986" />
   <line id="connector36pin" fill="none" fill-rule="nonzero" stroke="#2B2A29" stroke-width="20" x1="8222" y1="17240" x2="8222" y2= "16986" />
   <line id="connector21pin" fill="none" fill-rule="nonzero" stroke="#2B2A29" stroke-width="20" x1="9492" y1="12414" x2="9492" y2= "12160" />
   <line id="connector5pin" fill="none" fill-rule="nonzero" stroke="#2B2A29" stroke-width="20" x1="7460" y1="14446" x2="7714" y2= "14446" />
   <line id="connector4pin" fill="none" fill-rule="nonzero" stroke="#2B2A29" stroke-width="20" x1="7460" y1="14192" x2="7714" y2= "14192" />
   <line id="connector6pin" fill="none" fill-rule="nonzero" stroke="#2B2A29" stroke-width="20" x1="7460" y1="14700" x2="7714" y2= "14700" />
   <line id="connector9pin" fill="none" fill-rule="nonzero" stroke="#2B2A29" stroke-width="20" x1="7460" y1="15208" x2="7714" y2= "15208" />
   <line id="connector8pin" fill="none" fill-rule="nonzero" stroke="#2B2A29" stroke-width="20" x1="7460" y1="14954" x2="7714" y2= "14954" />
   <line id="connector12pin" fill="none" fill-rule="nonzero" stroke="#2B2A29" stroke-width="20" x1="7460" y1="15716" x2="7714" y2= "15716" />
   <line id="connector13pin" fill="none" fill-rule="nonzero" stroke="#2B2A29" stroke-width="20" x1="7460" y1="15970" x2="7714" y2= "15970" />
   <line id="connector11pin" fill="none" fill-rule="nonzero" stroke="#2B2A29" stroke-width="20" x1="7460" y1="15462" x2="7714" y2= "15462" />
   <line id="connector26pin" fill="none" fill-rule="nonzero" stroke="#2B2A29" stroke-width="20" x1="12286" y1="15716" x2="12540" y2= "15716" />
   <line id="connector27pin" fill="none" fill-rule="nonzero" stroke="#2B2A29" stroke-width="20" x1="12286" y1="15970" x2="12540" y2= "15970" />
   <line id="connector19pin" fill="none" fill-rule="nonzero" stroke="#2B2A29" stroke-width="20" x1="12286" y1="14446" x2="12540" y2= "14446" />
   <line id="connector18pin" fill="none" fill-rule="nonzero" stroke="#2B2A29" stroke-width="20" x1="12286" y1="14192" x2="12540" y2= "14192" />
   <line id="connector20pin" fill="none" fill-rule="nonzero" stroke="#2B2A29" stroke-width="20" x1="12286" y1="14700" x2="12540" y2= "14700" />
   <line id="connector23pin" fill="none" fill-rule="nonzero" stroke="#2B2A29" stroke-width="20" x1="12286" y1="15208" x2="12540" y2= "15208" />
   <line id="connector22pin" fill="none" fill-rule="nonzero" stroke="#2B2A29" stroke-width="20" x1="12286" y1="14954" x2="12540" y2= "14954" />
   <line id="connector24pin" fill="none" fill-rule="nonzero" stroke="#2B2A29" stroke-width="20" x1="12286" y1="15483" x2="12540" y2= "15483" />
   <line id="connector28pin" fill="none" fill-rule="nonzero" stroke="#2B2A29" stroke-width="20" x1="12286" y1="16224" x2="12540" y2= "16224" />
   <line id="connector39pin" fill="none" fill-rule="nonzero" stroke="#2B2A29" stroke-width="20" x1="7460" y1="13684" x2="7714" y2= "13684" />
   <line id="connector41pin" fill="none" fill-rule="nonzero" stroke="#2B2A29" stroke-width="20" x1="12286" y1="13684" x2="12540" y2= "13684" />
   <line id="connector38pin" fill="none" fill-rule="nonzero" stroke="#2B2A29" stroke-width="20" x1="7460" y1="13430" x2="7714" y2= "13430" />
   <line id="connector40pin" fill="none" fill-rule="nonzero" stroke="#2B2A29" stroke-width="20" x1="12286" y1="13430" x2="12540" y2= "13430" />
   <line id="connector42pin" fill="none" fill-rule="nonzero" stroke="#2B2A29" stroke-width="20" x1="10762" y1="17240" x2="10762" y2= "16986" />
   <line id="connector43pin" fill="none" fill-rule="nonzero" stroke="#2B2A29" stroke-width="20" x1="11016" y1="17240" x2="11016" y2= "16986" />
   <line id="connector45pin" fill="none" fill-rule="nonzero" stroke="#2B2A29" stroke-width="20" x1="11778" y1="17240" x2="11778" y2= "16986" />
   <line id="connector44pin" fill="none" fill-rule="nonzero" stroke="#2B2A29" stroke-width="20" x1="11524" y1="17240" x2="11524" y2= "16986" />
   <line id="connector31pin" fill="none" fill-rule="nonzero" stroke="#2B2A29" stroke-width="20" x1="10000" y1="17240" x2="10000" y2= "16986" />
  </g>
  <path fill="#534745" fill-rule="nonzero" d="M10775 12645l-9 -28 -33 0 -10 28 -11 0 32 -89 10 0 33 89 -12 0zm-13 -38l-9 -25c0,-1 0,-2 -1,-3 0,-1 0,-2 -1,-3 0,-1 0,-3 -1,-4 0,-1 0,-3 -1,-4 0,1 0,3 -1,4 0,1 0,3 -1,4 0,1 -1,2 -1,3 0,1 -1,2 -1,3l-9 25 26 0z"/>
  <path fill="#534745" fill-rule="nonzero" d="M10990 12558l25 0c5,0 9,0 13,1 4,1 7,2 10,4 3,2 5,4 6,7 1,2 2,6 2,10 0,3 -1,5 -1,7 -1,2 -2,4 -4,6 -1,2 -3,3 -5,4 -2,1 -5,2 -7,2l0 1c2,0 5,1 7,2 3,1 5,2 7,4 1,1 3,3 4,6 1,2 1,5 1,8 0,4 0,8 -2,11 -1,3 -3,6 -5,8 -3,2 -6,4 -9,5 -4,1 -8,2 -12,2l-30 0 0 -88zm12 37l14 0c4,0 7,0 9,-1 2,0 4,-1 6,-2 1,-2 2,-3 3,-5 0,-2 1,-4 1,-6 0,-5 -2,-8 -5,-11 -3,-2 -8,-3 -15,-3l-13 0 0 28zm0 10l0 31 16 0c3,0 6,0 9,-1 2,-1 4,-2 5,-3 2,-2 3,-3 3,-5 1,-2 1,-5 1,-7 0,-2 0,-4 -1,-6 0,-2 -1,-4 -3,-5 -1,-1 -3,-2 -6,-3 -2,-1 -5,-1 -9,-1l-15 0z"/>
  <path fill="#534745" fill-rule="nonzero" d="M11325 12645l-9 -28 -33 0 -10 28 -11 0 32 -89 10 0 33 89 -12 0zm-13 -38l-9 -25c0,-1 0,-2 -1,-3 0,-1 0,-2 -1,-3 0,-1 0,-3 -1,-4 0,-1 0,-3 -1,-4 0,1 0,3 -1,4 0,1 0,3 -1,4 0,1 -1,2 -1,3 0,1 -1,2 -1,3l-9 25 26 0z"/>
  <path fill="#534745" fill-rule="nonzero" d="M11540 12558l25 0c5,0 9,0 13,1 4,1 7,2 10,4 3,2 5,4 6,7 1,2 2,6 2,10 0,3 -1,5 -1,7 -1,2 -2,4 -4,6 -1,2 -3,3 -5,4 -2,1 -5,2 -7,2l0 1c2,0 5,1 7,2 3,1 5,2 7,4 1,1 3,3 4,6 1,2 1,5 1,8 0,4 0,8 -2,11 -1,3 -3,6 -5,8 -3,2 -6,4 -9,5 -4,1 -8,2 -12,2l-30 0 0 -88zm12 37l14 0c4,0 7,0 9,-1 2,0 4,-1 6,-2 1,-2 2,-3 3,-5 0,-2 1,-4 1,-6 0,-5 -2,-8 -5,-11 -3,-2 -8,-3 -15,-3l-13 0 0 28zm0 10l0 31 16 0c3,0 6,0 9,-1 2,-1 4,-2 5,-3 2,-2 3,-3 3,-5 1,-2 1,-5 1,-7 0,-2 0,-4 -1,-6 0,-2 -1,-4 -3,-5 -1,-1 -3,-2 -6,-3 -2,-1 -5,-1 -9,-1l-15 0z"/>
  <path fill="#999999" fill-rule="nonzero" d="M10870 12813c0,4 -1,7 -3,10 -1,3 -3,6 -6,8 -2,2 -5,4 -9,5 -4,1 -8,2 -12,2 -5,0 -9,-1 -13,-1 -4,-1 -7,-2 -10,-3l0 -11c2,0 3,1 5,2 2,0 4,1 6,1 1,1 3,1 5,2 3,0 5,0 7,0 6,0 11,-1 14,-4 3,-2 4,-5 4,-10 0,-2 0,-4 -1,-6 0,-1 -1,-3 -3,-4 -1,-1 -3,-3 -5,-4 -3,-1 -6,-3 -10,-4 -3,-2 -6,-3 -9,-5 -3,-1 -5,-3 -6,-5 -2,-3 -3,-5 -4,-8 -1,-2 -1,-5 -1,-9 0,-3 0,-6 1,-9 2,-3 4,-5 6,-7 2,-2 5,-3 8,-4 3,-1 7,-2 11,-2 5,0 9,0 13,1 4,1 7,2 10,4l-4 9c-3,-1 -6,-2 -9,-3 -3,-1 -6,-1 -10,-1 -5,0 -9,1 -11,3 -3,3 -4,6 -4,10 0,2 0,4 1,5 0,2 1,4 3,5 1,1 3,3 5,4 2,1 5,2 9,4 3,1 6,2 9,4 3,2 5,3 7,5 2,2 3,4 4,7 1,2 2,5 2,9z"/>
  <path id="1" fill="#999999" fill-rule="nonzero" d="M10924 12748l12 0 14 52c0,2 1,4 1,7 1,2 2,4 2,6 1,2 1,4 1,6 1,2 1,4 1,5 0,-1 1,-3 1,-5 0,-2 0,-3 1,-5 0,-2 0,-4 1,-6 0,-3 1,-5 1,-7l12 -53 12 0 -22 88 -11 0 -16 -56c0,-2 -1,-4 -1,-6 -1,-3 -1,-5 -2,-7 0,-2 -1,-4 -1,-6 -1,2 -1,4 -1,6 -1,2 -1,4 -2,7 0,2 -1,4 -1,6l-15 56 -11 0 -24 -88 12 0 14 54c0,2 1,4 1,6 0,2 1,4 1,6 0,2 1,3 1,5 0,2 1,4 1,5 0,-1 0,-3 1,-5 0,-2 0,-4 1,-6 0,-2 0,-4 1,-7 0,-2 1,-4 1,-6l14 -52z"/>
  <path id="2" fill="#999999" fill-rule="nonzero" d="M11027 12836l-10 0 0 -55c0,-1 0,-3 0,-5 0,-2 0,-4 0,-6 0,-2 0,-4 0,-6 0,-1 0,-3 0,-4 -1,0 -1,1 -2,1 0,1 -1,1 -1,2 -1,0 -1,1 -2,2 -1,0 -1,1 -2,1l-9 8 -6 -8 23 -18 9 0 0 88z"/>
  <path fill="#999999" fill-rule="nonzero" d="M11370 12813c0,4 -1,7 -3,10 -1,3 -3,6 -6,8 -2,2 -5,4 -9,5 -4,1 -8,2 -12,2 -5,0 -9,-1 -13,-1 -4,-1 -7,-2 -10,-3l0 -11c2,0 3,1 5,2 2,0 4,1 6,1 1,1 3,1 5,2 3,0 5,0 7,0 6,0 11,-1 14,-4 3,-2 4,-5 4,-10 0,-2 0,-4 -1,-6 0,-1 -1,-3 -3,-4 -1,-1 -3,-3 -5,-4 -3,-1 -6,-3 -10,-4 -3,-2 -6,-3 -9,-5 -3,-1 -5,-3 -6,-5 -2,-3 -3,-5 -4,-8 -1,-2 -1,-5 -1,-9 0,-3 0,-6 1,-9 2,-3 4,-5 6,-7 2,-2 5,-3 8,-4 3,-1 7,-2 11,-2 5,0 9,0 13,1 4,1 7,2 10,4l-4 9c-3,-1 -6,-2 -9,-3 -3,-1 -6,-1 -10,-1 -5,0 -9,1 -11,3 -3,3 -4,6 -4,10 0,2 0,4 1,5 0,2 1,4 3,5 1,1 3,3 5,4 2,1 5,2 9,4 3,1 6,2 9,4 3,2 5,3 7,5 2,2 3,4 4,7 1,2 2,5 2,9z"/>
  <path id="1" fill="#999999" fill-rule="nonzero" d="M11424 12748l12 0 14 52c0,2 1,4 1,7 1,2 2,4 2,6 1,2 1,4 1,6 1,2 1,4 1,5 0,-1 1,-3 1,-5 0,-2 0,-3 1,-5 0,-2 0,-4 1,-6 0,-3 1,-5 1,-7l12 -53 12 0 -22 88 -11 0 -16 -56c0,-2 -1,-4 -1,-6 -1,-3 -1,-5 -2,-7 0,-2 -1,-4 -1,-6 -1,2 -1,4 -1,6 -1,2 -1,4 -2,7 0,2 -1,4 -1,6l-15 56 -11 0 -24 -88 12 0 14 54c0,2 1,4 1,6 0,2 1,4 1,6 0,2 1,3 1,5 0,2 1,4 1,5 0,-1 0,-3 1,-5 0,-2 0,-4 1,-6 0,-2 0,-4 1,-7 0,-2 1,-4 1,-6l14 -52z"/>
  <path id="2" fill="#999999" fill-rule="nonzero" d="M11545 12836l-55 0 0 -9 21 -23c3,-3 6,-6 8,-9 3,-3 5,-5 6,-8 2,-2 3,-5 4,-8 1,-2 1,-5 1,-8 0,-2 0,-4 -1,-6 0,-2 -1,-4 -2,-5 -2,-1 -3,-2 -5,-3 -2,0 -4,-1 -6,-1 -4,0 -7,1 -10,3 -3,1 -6,3 -9,6l-6 -8c2,-1 3,-2 5,-4 2,-1 4,-2 6,-3 2,-1 5,-2 7,-2 2,-1 5,-1 7,-1 4,0 8,1 11,2 3,1 6,2 8,4 2,2 4,5 5,8 1,3 2,6 2,10 0,3 -1,6 -2,9 -1,3 -3,7 -4,10 -2,2 -4,5 -7,8 -3,4 -5,7 -8,10l-17 18 0 0 41 0 0 10z"/>
  <path fill="#534745" fill-rule="nonzero" d="M8562 12599c0,7 -1,14 -3,19 -2,6 -5,11 -8,14 -4,4 -8,7 -14,9 -5,2 -11,3 -18,3l-22 0 0 -88 25 0c6,0 11,0 16,2 5,2 10,5 13,9 4,3 6,8 8,13 2,5 3,12 3,19zm-12 0c0,-6 0,-11 -2,-15 -1,-4 -3,-8 -6,-11 -2,-2 -5,-4 -9,-6 -4,-1 -8,-2 -13,-2l-12 0 0 69 10 0c11,0 19,-3 24,-9 5,-6 8,-14 8,-26z"/>
  <path id="1" fill="#534745" fill-rule="nonzero" d="M8632 12644l-10 -28 -33 0 -9 28 -12 0 33 -89 10 0 32 89 -11 0zm-13 -38l-9 -25c0,-1 -1,-2 -1,-3 0,-1 -1,-2 -1,-3 0,-1 -1,-3 -1,-4 0,-1 -1,-3 -1,-4 0,1 -1,3 -1,4 0,1 -1,3 -1,4 -1,1 -1,2 -1,3 -1,1 -1,2 -1,3l-9 25 26 0z"/>
  <polygon id="2" fill="#534745" fill-rule="nonzero" points="8674,12644 8662,12644 8662,12565 8637,12565 8637,12556 8699,12556 8699,12565 8674,12565 "/>
  <path id="3" fill="#534745" fill-rule="nonzero" d="M8756 12644l-9 -28 -33 0 -10 28 -11 0 32 -89 10 0 33 89 -12 0zm-13 -38l-9 -25c0,-1 0,-2 -1,-3 0,-1 0,-2 -1,-3 0,-1 0,-3 -1,-4 0,-1 -1,-3 -1,-4 0,1 0,3 -1,4 0,1 -1,3 -1,4 0,1 -1,2 -1,3 0,1 -1,2 -1,3l-9 25 26 0z"/>
  <path fill="#534745" fill-rule="nonzero" d="M8910 12563c-4,0 -8,1 -11,2 -4,2 -7,4 -9,7 -3,3 -5,7 -6,12 -1,4 -2,9 -2,14 0,6 1,11 2,15 1,5 3,9 5,12 3,3 5,5 9,6 4,2 8,3 12,3 4,0 7,-1 11,-1 3,-1 6,-2 9,-3l0 10c-1,1 -3,1 -5,2 -1,0 -3,1 -4,1 -2,0 -4,0 -6,1 -2,0 -4,0 -6,0 -7,0 -13,-1 -18,-4 -4,-2 -8,-5 -12,-9 -3,-4 -5,-9 -7,-14 -1,-6 -2,-12 -2,-19 0,-6 1,-12 3,-18 2,-6 4,-10 7,-14 4,-4 8,-7 13,-10 5,-2 11,-3 17,-3 5,0 9,1 13,1 4,1 7,3 11,4l-5 10c-3,-2 -5,-3 -8,-4 -3,-1 -7,-1 -11,-1z"/>
  <polygon id="1" fill="#534745" fill-rule="nonzero" points="8949,12642 8949,12554 8960,12554 8960,12633 8995,12633 8995,12642 "/>
  <path id="2" fill="#534745" fill-rule="nonzero" d="M9080 12598c0,7 0,13 -2,19 -2,5 -4,10 -7,14 -3,4 -7,7 -12,9 -5,3 -10,4 -17,4 -6,0 -12,-1 -17,-4 -4,-2 -8,-5 -12,-9 -3,-4 -5,-9 -7,-14 -1,-6 -2,-12 -2,-19 0,-7 1,-13 2,-18 2,-6 4,-11 7,-15 4,-4 8,-7 12,-9 5,-2 11,-3 17,-3 7,0 12,1 17,3 5,2 9,5 12,9 3,4 5,9 7,15 2,5 2,11 2,18zm-64 0c0,6 0,11 2,15 1,5 2,8 4,11 2,3 5,6 8,7 4,2 8,3 12,3 5,0 9,-1 12,-3 4,-1 6,-4 8,-7 3,-3 4,-6 5,-11 1,-4 2,-9 2,-15 0,-5 -1,-10 -2,-15 -1,-4 -2,-8 -5,-11 -2,-3 -4,-5 -8,-7 -3,-1 -7,-2 -12,-2 -4,0 -8,1 -11,2 -4,2 -6,4 -9,7 -2,3 -3,7 -4,11 -2,5 -2,10 -2,15z"/>
  <path id="3" fill="#534745" fill-rule="nonzero" d="M9136 12563c-4,0 -8,1 -12,2 -3,2 -6,4 -9,7 -2,3 -4,7 -5,12 -2,4 -2,9 -2,14 0,6 0,11 1,15 2,5 3,9 6,12 2,3 5,5 9,6 3,2 7,3 12,3 4,0 7,-1 10,-1 3,-1 7,-2 10,-3l0 10c-2,1 -3,1 -5,2 -2,0 -3,1 -5,1 -2,0 -3,0 -5,1 -2,0 -5,0 -7,0 -6,0 -12,-1 -17,-4 -5,-2 -9,-5 -12,-9 -3,-4 -5,-9 -7,-14 -2,-6 -2,-12 -2,-19 0,-6 1,-12 2,-18 2,-6 5,-10 8,-14 3,-4 8,-7 13,-10 5,-2 10,-3 17,-3 4,0 8,1 12,1 4,1 8,3 11,4l-5 10c-2,-2 -5,-3 -8,-4 -3,-1 -6,-1 -10,-1z"/>
  <polygon id="4" fill="#534745" fill-rule="nonzero" points="9234,12642 9221,12642 9194,12600 9186,12607 9186,12642 9175,12642 9175,12554 9186,12554 9186,12598 9193,12588 9220,12554 9233,12554 9202,12593 "/>
  <polygon fill="#999999" fill-rule="nonzero" points="8816,12824 8784,12824 8784,12818 8795,12816 8795,12745 8784,12742 8784,12736 8816,12736 8816,12742 8806,12745 8806,12816 8816,12818 "/>
  <path id="1" fill="#999999" fill-rule="nonzero" d="M8882 12824l-55 0 0 -9 21 -23c3,-3 6,-6 8,-9 3,-3 5,-5 6,-8 2,-3 3,-5 4,-8 1,-2 1,-5 1,-8 0,-3 0,-5 -1,-6 0,-2 -1,-4 -3,-5 -1,-1 -2,-2 -4,-3 -2,-1 -4,-1 -6,-1 -4,0 -7,1 -10,2 -3,2 -6,4 -9,6l-6 -7c2,-1 3,-3 5,-4 2,-1 4,-2 6,-3 2,-1 5,-2 7,-2 2,-1 5,-1 7,-1 4,0 8,0 11,1 3,2 6,3 8,5 2,2 4,5 5,8 1,2 2,6 2,9 0,4 -1,7 -2,10 -1,3 -3,6 -4,9 -2,3 -5,6 -7,9 -3,3 -6,6 -9,10l-16 18 0 0 41 0 0 10z"/>
  <path id="2" fill="#999999" fill-rule="nonzero" d="M8937 12745c-4,0 -8,1 -12,2 -3,2 -6,4 -9,7 -2,3 -4,7 -5,11 -2,5 -2,10 -2,15 0,6 0,11 1,15 2,5 3,8 6,11 2,3 5,6 9,7 3,2 7,3 12,3 4,0 7,-1 10,-1 4,-1 7,-2 10,-3l0 10c-2,0 -3,1 -5,1 -1,1 -3,1 -5,2 -1,0 -3,0 -5,0 -2,0 -4,0 -7,0 -6,0 -12,-1 -17,-3 -5,-2 -9,-5 -12,-9 -3,-4 -5,-9 -7,-14 -1,-6 -2,-12 -2,-19 0,-7 1,-13 2,-18 2,-6 5,-11 8,-15 4,-4 8,-7 13,-9 5,-2 11,-3 17,-3 4,0 9,0 13,1 3,1 7,2 10,4l-5 9c-2,-1 -5,-2 -8,-3 -3,-1 -6,-1 -10,-1z"/>
  <polygon fill="#534745" fill-rule="nonzero" points="7826,16905 7814,16905 7814,16827 7789,16827 7789,16817 7851,16817 7851,16827 7826,16827 "/>
  <path id="1" fill="#534745" fill-rule="nonzero" d="M7875 16869l0 36 -11 0 0 -88 21 0c11,0 19,2 24,7 5,4 8,10 8,18 0,4 -1,7 -2,9 -1,3 -2,5 -4,7 -1,2 -3,4 -5,5 -2,1 -4,2 -7,3l24 39 -13 0 -21 -36 -14 0zm0 -10l10 0c4,0 7,0 9,-1 3,0 5,-1 6,-3 2,-1 3,-3 4,-5 1,-2 1,-4 1,-7 0,-3 0,-6 -1,-8 -1,-2 -2,-3 -4,-4 -2,-2 -4,-3 -6,-3 -3,-1 -6,-1 -9,-1l-10 0 0 32z"/>
  <polygon id="2" fill="#534745" fill-rule="nonzero" points="7962,16905 7930,16905 7930,16899 7940,16897 7940,16826 7930,16823 7930,16817 7962,16817 7962,16823 7951,16826 7951,16897 7962,16899 "/>
  <path id="3" fill="#534745" fill-rule="nonzero" d="M8013 16859l29 0 0 43c-2,1 -5,2 -7,2 -2,1 -4,1 -7,2 -2,0 -5,0 -7,0 -3,1 -6,1 -9,1 -6,0 -12,-1 -17,-3 -4,-3 -8,-6 -12,-10 -3,-3 -6,-8 -7,-14 -2,-5 -3,-12 -3,-19 0,-7 1,-13 3,-18 2,-6 5,-11 8,-15 4,-4 8,-7 14,-9 5,-2 11,-3 18,-3 5,0 9,0 13,1 4,1 8,3 11,4l-4 10c-1,-1 -3,-1 -5,-2 -1,-1 -3,-1 -5,-2 -2,0 -3,0 -5,-1 -2,0 -4,0 -6,0 -5,0 -9,1 -13,2 -4,2 -7,4 -9,7 -3,3 -5,7 -6,12 -1,4 -2,9 -2,14 0,6 0,10 2,15 1,4 2,8 5,11 2,3 5,5 9,7 4,2 9,3 14,3 2,0 3,0 5,0 1,0 3,-1 4,-1 1,0 2,0 3,0 1,-1 3,-1 4,-1l0 -26 -18 0 0 -10z"/>
  <polygon fill="#534745" fill-rule="nonzero" points="8223,16904 8178,16904 8178,16816 8223,16816 8223,16826 8189,16826 8189,16853 8221,16853 8221,16863 8189,16863 8189,16894 8223,16894 "/>
  <path id="1" fill="#534745" fill-rule="nonzero" d="M8279 16825c-5,0 -9,1 -12,2 -4,2 -7,4 -9,7 -3,3 -4,7 -6,11 -1,5 -2,10 -2,15 0,6 1,11 2,15 1,5 3,8 5,11 3,3 6,6 9,7 4,2 8,3 13,3 3,0 7,-1 10,-1 3,-1 6,-2 9,-3l0 10c-1,0 -3,1 -4,1 -2,1 -4,1 -5,2 -2,0 -4,0 -6,0 -2,0 -4,0 -6,0 -7,0 -13,-1 -17,-3 -5,-2 -9,-5 -12,-9 -4,-4 -6,-9 -7,-14 -2,-6 -3,-12 -3,-19 0,-7 1,-13 3,-18 2,-6 4,-11 8,-15 3,-4 7,-7 12,-9 5,-2 11,-3 18,-3 4,0 8,0 12,1 4,1 7,2 11,4l-5 9c-3,-1 -5,-2 -8,-3 -3,-1 -7,-1 -10,-1z"/>
  <polygon id="2" fill="#534745" fill-rule="nonzero" points="8380,16904 8369,16904 8369,16863 8328,16863 8328,16904 8317,16904 8317,16816 8328,16816 8328,16853 8369,16853 8369,16816 8380,16816 "/>
  <path id="3" fill="#534745" fill-rule="nonzero" d="M8476 16860c0,7 -1,13 -3,19 -1,5 -4,10 -7,14 -3,4 -7,7 -12,9 -5,2 -10,3 -16,3 -7,0 -13,-1 -17,-3 -5,-2 -9,-5 -12,-9 -4,-4 -6,-9 -7,-14 -2,-6 -3,-12 -3,-19 0,-7 1,-13 3,-19 1,-5 3,-10 7,-14 3,-4 7,-7 12,-9 4,-2 10,-3 17,-3 6,0 11,1 16,3 5,2 9,5 12,9 3,4 6,9 7,14 2,6 3,12 3,19zm-65 0c0,6 1,10 2,15 1,4 2,8 5,11 2,3 4,5 8,7 3,2 7,3 12,3 4,0 8,-1 11,-3 4,-2 6,-4 9,-7 2,-3 3,-7 4,-11 1,-5 2,-9 2,-15 0,-6 -1,-10 -2,-15 -1,-4 -2,-8 -4,-11 -2,-3 -5,-5 -8,-7 -4,-2 -8,-2 -12,-2 -5,0 -9,0 -12,2 -4,2 -6,4 -8,7 -3,3 -4,7 -5,11 -1,5 -2,9 -2,15z"/>
  <path fill="#999999" fill-rule="nonzero" d="M8011 16702c0,4 -1,8 -2,11 -2,3 -4,6 -6,8 -3,2 -6,3 -10,5 -3,1 -7,1 -12,1 -5,0 -9,0 -13,-1 -3,-1 -7,-2 -9,-3l0 -11c1,1 3,2 4,2 2,1 4,1 6,2 2,0 4,1 6,1 2,0 4,1 6,1 6,0 11,-2 14,-4 3,-2 5,-6 5,-11 0,-2 -1,-4 -1,-5 -1,-2 -2,-3 -3,-5 -2,-1 -4,-2 -6,-4 -3,-1 -6,-2 -9,-4 -4,-1 -7,-3 -10,-4 -2,-2 -4,-4 -6,-6 -2,-2 -3,-4 -4,-7 -1,-3 -1,-6 -1,-9 0,-4 0,-7 2,-10 1,-2 3,-5 5,-7 2,-1 5,-3 9,-4 3,-1 6,-1 10,-1 5,0 9,0 13,1 4,1 7,2 10,3l-4 10c-2,-1 -5,-2 -9,-3 -3,-1 -6,-2 -10,-2 -5,0 -8,2 -11,4 -3,2 -4,5 -4,9 0,2 0,4 1,6 1,2 2,3 3,4 1,2 3,3 5,4 3,1 6,3 9,4 4,2 7,3 9,5 3,1 5,3 7,5 2,2 3,4 4,6 1,3 2,6 2,9z"/>
  <path id="1" fill="#999999" fill-rule="nonzero" d="M8100 16682c0,7 0,13 -2,18 -2,6 -4,11 -7,15 -3,4 -7,7 -12,9 -5,2 -10,3 -17,3 -6,0 -12,-1 -17,-3 -5,-2 -9,-5 -12,-9 -3,-4 -5,-9 -7,-15 -1,-5 -2,-12 -2,-18 0,-7 1,-13 2,-19 2,-6 4,-10 7,-14 4,-4 8,-7 12,-9 5,-3 11,-4 17,-4 7,0 12,1 17,4 5,2 9,5 12,9 3,4 5,9 7,14 2,6 2,12 2,19zm-64 0c0,5 0,10 1,15 1,4 3,8 5,11 2,3 5,5 8,7 4,1 8,2 12,2 5,0 9,-1 12,-2 3,-2 6,-4 8,-7 2,-3 4,-7 5,-11 1,-5 2,-10 2,-15 0,-6 -1,-11 -2,-15 -1,-5 -3,-8 -5,-11 -2,-3 -4,-6 -8,-7 -3,-2 -7,-3 -12,-3 -4,0 -8,1 -11,3 -4,1 -7,4 -9,7 -2,3 -4,6 -5,11 -1,4 -1,9 -1,15z"/>
  <path id="2" fill="#999999" fill-rule="nonzero" d="M8186 16726l-14 0 -41 -73 -1 0c0,3 1,6 1,9 0,3 0,6 0,8 0,3 0,6 0,8l0 48 -11 0 0 -88 14 0 41 72 1 0c0,-3 0,-6 -1,-9 0,-1 0,-2 0,-4 0,-1 0,-2 0,-4 0,-1 0,-2 0,-4 0,-1 0,-2 0,-3l0 -48 11 0 0 88z"/>
  <path id="3" fill="#999999" fill-rule="nonzero" d="M8262 16726l-10 -27 -33 0 -10 27 -11 0 33 -89 10 0 32 89 -11 0zm-13 -37l-9 -26c-1,-1 -1,-2 -1,-3 -1,-1 -1,-2 -1,-3 -1,-1 -1,-2 -1,-4 -1,-1 -1,-2 -1,-4 -1,2 -1,3 -1,4 -1,2 -1,3 -1,4 -1,1 -1,3 -2,4 0,1 0,1 0,2l-9 26 26 0z"/>
  <path id="4" fill="#999999" fill-rule="nonzero" d="M8296 16690l0 36 -11 0 0 -88 22 0c10,0 18,2 23,6 5,4 8,10 8,19 0,3 0,6 -1,9 -1,3 -3,5 -4,7 -2,2 -4,3 -6,4 -2,2 -4,3 -6,3l24 40 -14 0 -21 -36 -14 0zm0 -10l10 0c4,0 7,0 9,-1 3,-1 5,-2 6,-3 2,-2 3,-3 4,-5 1,-2 1,-5 1,-8 0,-3 0,-5 -1,-7 -1,-2 -2,-4 -4,-5 -1,-1 -4,-2 -6,-3 -3,0 -6,-1 -9,-1l-10 0 0 33z"/>
  <path fill="#534745" fill-rule="nonzero" d="M7937 15705l30 0 0 43c-3,1 -5,2 -7,2 -2,1 -5,1 -7,2 -2,0 -5,0 -7,0 -3,1 -6,1 -9,1 -6,0 -12,-1 -17,-3 -5,-3 -9,-6 -12,-9 -3,-4 -6,-9 -8,-15 -1,-5 -2,-12 -2,-19 0,-7 1,-13 3,-18 2,-6 4,-11 8,-15 4,-4 8,-7 14,-9 5,-2 11,-3 18,-3 4,0 9,1 13,1 4,1 8,3 11,4l-4 10c-2,-1 -3,-1 -5,-2 -1,-1 -3,-1 -5,-1 -2,-1 -4,-1 -5,-2 -2,0 -4,0 -6,0 -5,0 -9,1 -13,2 -4,2 -7,4 -9,7 -3,3 -5,7 -6,12 -2,4 -2,9 -2,14 0,6 0,10 1,15 1,4 3,8 6,11 2,3 5,6 9,7 4,2 8,3 14,3 2,0 3,0 5,0 1,0 2,-1 4,-1 1,0 2,0 3,0 1,-1 2,-1 3,-1l0 -26 -18 0 0 -10z"/>
  <path id="1" fill="#534745" fill-rule="nonzero" d="M8040 15689c0,4 0,7 -1,11 -1,3 -3,6 -6,9 -2,2 -6,4 -10,6 -4,1 -9,2 -15,2l-9 0 0 34 -12 0 0 -88 22 0c6,0 10,1 14,2 4,1 7,3 10,5 2,2 4,5 6,8 1,3 1,7 1,11zm-41 19l7 0c4,0 7,-1 10,-1 3,-1 5,-2 7,-3 2,-2 3,-4 4,-6 1,-2 1,-5 1,-8 0,-6 -1,-10 -4,-13 -4,-3 -9,-4 -16,-4l-9 0 0 35z"/>
  <polygon id="2" fill="#534745" fill-rule="nonzero" points="8084,15751 8052,15751 8052,15745 8062,15743 8062,15672 8052,15669 8052,15663 8084,15663 8084,15669 8073,15672 8073,15743 8084,15745 "/>
  <path id="3" fill="#534745" fill-rule="nonzero" d="M8171 15707c0,7 -1,13 -2,19 -2,5 -4,10 -7,14 -4,4 -8,7 -12,9 -5,3 -11,4 -17,4 -6,0 -12,-1 -17,-4 -5,-2 -9,-5 -12,-9 -3,-4 -5,-9 -7,-14 -1,-6 -2,-12 -2,-19 0,-7 1,-13 2,-18 2,-6 4,-11 7,-15 3,-4 7,-7 12,-9 5,-2 11,-3 17,-3 6,0 12,1 17,3 4,2 8,5 12,9 3,4 5,9 7,15 1,5 2,11 2,18zm-64 0c0,6 0,11 1,15 1,5 3,8 5,11 2,3 5,6 8,7 4,2 8,3 12,3 5,0 9,-1 12,-3 3,-1 6,-4 8,-7 2,-3 4,-6 5,-11 1,-4 1,-9 1,-15 0,-5 0,-10 -1,-15 -1,-4 -3,-8 -5,-11 -2,-3 -5,-5 -8,-7 -3,-1 -7,-2 -12,-2 -4,0 -8,1 -12,2 -3,2 -6,4 -8,7 -2,3 -4,7 -5,11 -1,5 -1,10 -1,15z"/>
  <polygon id="4" fill="#534745" fill-rule="nonzero" points="8184,15723 8184,15713 8214,15713 8214,15723 "/>
  <path id="5" fill="#534745" fill-rule="nonzero" d="M8262 15751l-11 0 0 -55c0,-1 0,-3 0,-5 0,-2 0,-4 0,-6 0,-2 0,-4 0,-6 0,-1 0,-3 0,-4 0,0 -1,1 -1,2 -1,0 -1,1 -2,1 -1,1 -1,1 -2,2 0,0 -1,1 -2,1l-9 8 -6 -8 23 -18 10 0 0 88z"/>
  <path id="6" fill="#534745" fill-rule="nonzero" d="M8320 15697c3,0 7,1 11,2 3,1 6,3 9,5 2,2 4,5 6,8 1,3 2,7 2,11 0,5 -1,9 -2,13 -2,3 -4,6 -6,9 -3,2 -6,4 -10,6 -4,1 -9,2 -14,2 -2,0 -4,0 -6,-1 -2,0 -4,0 -6,0 -2,-1 -3,-1 -5,-2 -2,-1 -3,-1 -4,-2l0 -10c1,1 2,1 4,2 2,1 4,1 6,2 2,0 4,1 6,1 2,0 4,0 5,0 4,0 6,0 9,-1 2,0 5,-2 6,-3 2,-2 3,-4 4,-6 1,-2 2,-5 2,-9 0,-5 -2,-10 -6,-13 -3,-3 -8,-4 -15,-4 -1,0 -2,0 -4,0 -1,0 -2,0 -4,0 -1,0 -2,1 -3,1 -1,0 -2,0 -3,0l-6 -3 4 -42 41 0 0 10 -32 0 -2 26c1,-1 3,-1 5,-1 2,0 5,-1 8,-1z"/>
  <path fill="#534745" fill-rule="nonzero" d="M11784 15706l29 0 0 43c-2,1 -4,1 -6,2 -3,0 -5,1 -7,1 -3,1 -5,1 -8,1 -2,0 -5,0 -8,0 -6,0 -12,-1 -17,-3 -5,-2 -9,-5 -12,-9 -4,-4 -6,-8 -8,-14 -2,-6 -2,-12 -2,-19 0,-7 1,-13 2,-19 2,-5 5,-10 9,-14 3,-4 8,-7 13,-9 6,-2 12,-3 19,-3 4,0 8,0 13,1 4,1 7,2 11,4l-4 10c-2,-1 -3,-2 -5,-2 -2,-1 -3,-1 -5,-2 -2,0 -4,-1 -6,-1 -2,0 -3,0 -5,0 -5,0 -9,0 -13,2 -4,2 -7,4 -10,7 -2,3 -4,7 -6,11 -1,5 -2,10 -2,15 0,5 1,10 2,14 1,5 3,8 5,12 3,3 6,5 10,7 4,2 8,3 14,3 1,0 3,-1 4,-1 2,0 3,0 4,0 2,0 3,0 4,-1 1,0 2,0 3,0l0 -27 -18 0 0 -9z"/>
  <path id="1" fill="#534745" fill-rule="nonzero" d="M11887 15690c0,3 0,7 -2,10 -1,4 -3,7 -5,9 -3,3 -6,5 -10,7 -4,1 -9,2 -15,2l-10 0 0 34 -11 0 0 -88 22 0c5,0 10,1 14,2 4,1 7,3 10,5 2,2 4,5 5,8 1,3 2,7 2,11zm-42 18l8 0c4,0 7,0 10,-1 3,0 5,-1 7,-3 2,-1 3,-3 4,-5 1,-3 1,-5 1,-9 0,-5 -1,-10 -5,-12 -3,-3 -8,-4 -15,-4l-10 0 0 34z"/>
  <polygon id="2" fill="#534745" fill-rule="nonzero" points="11930,15752 11898,15752 11898,15746 11909,15744 11909,15673 11898,15670 11898,15664 11930,15664 11930,15670 11920,15673 11920,15744 11930,15746 "/>
  <path id="3" fill="#534745" fill-rule="nonzero" d="M12018 15708c0,7 -1,13 -2,19 -2,5 -4,10 -8,14 -3,4 -7,7 -12,9 -4,2 -10,3 -16,3 -7,0 -12,-1 -17,-3 -5,-2 -9,-5 -12,-9 -3,-4 -6,-9 -7,-14 -2,-6 -2,-12 -2,-19 0,-7 0,-13 2,-19 1,-5 4,-10 7,-14 3,-4 7,-7 12,-9 5,-2 10,-3 17,-3 6,0 12,1 16,3 5,2 9,5 12,9 4,4 6,9 8,14 1,6 2,12 2,19zm-65 0c0,5 1,10 2,15 1,4 3,8 5,11 2,3 5,5 8,7 3,2 7,3 12,3 4,0 8,-1 12,-3 3,-2 6,-4 8,-7 2,-3 4,-7 5,-11 1,-5 1,-10 1,-15 0,-6 0,-11 -1,-15 -1,-4 -3,-8 -5,-11 -2,-3 -5,-5 -8,-7 -4,-2 -7,-2 -12,-2 -5,0 -9,0 -12,2 -3,2 -6,4 -8,7 -2,3 -4,7 -5,11 -1,4 -2,9 -2,15z"/>
  <polygon id="4" fill="#534745" fill-rule="nonzero" points="12031,15724 12031,15714 12060,15714 12060,15724 "/>
  <path id="5" fill="#534745" fill-rule="nonzero" d="M12131 15732l-13 0 0 20 -10 0 0 -20 -41 0 0 -9 40 -59 11 0 0 58 13 0 0 10zm-23 -10l0 -21c0,-2 0,-5 0,-7 0,-3 0,-5 0,-7 0,-3 0,-5 0,-7 0,-2 0,-4 0,-5l0 0c-1,1 -1,2 -1,3 -1,1 -1,1 -2,2 0,1 -1,2 -1,3 -1,1 -1,2 -2,3l-25 36 31 0z"/>
  <path fill="#534745" fill-rule="nonzero" d="M7937 15960l30 0 0 43c-3,1 -5,1 -7,2 -2,0 -5,1 -7,1 -2,1 -5,1 -7,1 -3,0 -6,0 -9,0 -6,0 -12,-1 -17,-3 -5,-2 -9,-5 -12,-9 -3,-4 -6,-9 -8,-14 -1,-6 -2,-12 -2,-19 0,-7 1,-13 3,-19 2,-5 4,-10 8,-14 4,-4 8,-7 14,-9 5,-2 11,-3 18,-3 4,0 9,0 13,1 4,1 8,2 11,4l-4 10c-2,-1 -3,-2 -5,-2 -1,-1 -3,-1 -5,-2 -2,0 -4,-1 -5,-1 -2,0 -4,0 -6,0 -5,0 -9,0 -13,2 -4,2 -7,4 -9,7 -3,3 -5,7 -6,11 -2,5 -2,10 -2,15 0,5 0,10 1,14 1,5 3,8 6,12 2,3 5,5 9,7 4,2 8,2 14,2 2,0 3,0 5,0 1,0 2,0 4,0 1,0 2,0 3,-1 1,0 2,0 3,0l0 -27 -18 0 0 -9z"/>
  <path id="1" fill="#534745" fill-rule="nonzero" d="M8040 15944c0,3 0,7 -1,10 -1,4 -3,7 -6,9 -2,3 -6,5 -10,6 -4,2 -9,3 -15,3l-9 0 0 34 -12 0 0 -88 22 0c6,0 10,1 14,2 4,1 7,2 10,5 2,2 4,5 6,8 1,3 1,7 1,11zm-41 18l7 0c4,0 7,0 10,-1 3,0 5,-1 7,-3 2,-1 3,-3 4,-5 1,-3 1,-5 1,-9 0,-5 -1,-10 -4,-12 -4,-3 -9,-4 -16,-4l-9 0 0 34z"/>
  <polygon id="2" fill="#534745" fill-rule="nonzero" points="8084,16006 8052,16006 8052,16000 8062,15997 8062,15927 8052,15924 8052,15918 8084,15918 8084,15924 8073,15927 8073,15997 8084,16000 "/>
  <path id="3" fill="#534745" fill-rule="nonzero" d="M8171 15962c0,7 -1,13 -2,18 -2,6 -4,11 -7,15 -4,4 -8,7 -12,9 -5,2 -11,3 -17,3 -6,0 -12,-1 -17,-3 -5,-2 -9,-5 -12,-9 -3,-4 -5,-9 -7,-15 -1,-5 -2,-11 -2,-18 0,-7 1,-13 2,-19 2,-5 4,-10 7,-14 3,-4 7,-7 12,-9 5,-2 11,-3 17,-3 6,0 12,1 17,3 4,2 8,5 12,9 3,4 5,9 7,14 1,6 2,12 2,19zm-64 0c0,5 0,10 1,15 1,4 3,8 5,11 2,3 5,5 8,7 4,2 8,2 12,2 5,0 9,0 12,-2 3,-2 6,-4 8,-7 2,-3 4,-7 5,-11 1,-5 1,-10 1,-15 0,-6 0,-11 -1,-15 -1,-4 -3,-8 -5,-11 -2,-3 -5,-5 -8,-7 -3,-2 -7,-3 -12,-3 -4,0 -8,1 -12,3 -3,2 -6,4 -8,7 -2,3 -4,7 -5,11 -1,4 -1,9 -1,15z"/>
  <polygon id="4" fill="#534745" fill-rule="nonzero" points="8184,15978 8184,15968 8214,15968 8214,15978 "/>
  <path id="5" fill="#534745" fill-rule="nonzero" d="M8262 16006l-11 0 0 -55c0,-2 0,-4 0,-6 0,-1 0,-3 0,-5 0,-2 0,-4 0,-6 0,-2 0,-3 0,-5 0,1 -1,2 -1,2 -1,1 -1,1 -2,2 -1,0 -1,1 -2,1 0,1 -1,1 -2,2l-9 7 -6 -7 23 -18 10 0 0 88z"/>
  <path id="6" fill="#534745" fill-rule="nonzero" d="M8352 15986l-13 0 0 20 -10 0 0 -20 -41 0 0 -9 40 -60 11 0 0 59 13 0 0 10zm-23 -10l0 -21c0,-2 0,-5 0,-7 0,-3 0,-5 0,-7 0,-3 0,-5 0,-7 0,-2 1,-4 1,-5l-1 0c0,1 -1,1 -1,2 0,1 -1,2 -1,3 -1,1 -1,2 -2,3 0,1 -1,2 -1,3l-25 36 30 0z"/>
  <path fill="#534745" fill-rule="nonzero" d="M11784 15960l29 0 0 43c-2,1 -4,1 -6,2 -3,0 -5,1 -7,1 -3,1 -5,1 -8,1 -2,0 -5,0 -8,0 -6,0 -12,-1 -17,-3 -5,-2 -9,-5 -12,-9 -4,-4 -6,-8 -8,-14 -2,-6 -2,-12 -2,-19 0,-7 1,-13 2,-19 2,-5 5,-10 9,-14 3,-4 8,-7 13,-9 6,-2 12,-3 19,-3 4,0 8,0 13,1 4,1 7,2 11,4l-4 10c-2,-1 -3,-2 -5,-2 -2,-1 -3,-1 -5,-2 -2,0 -4,-1 -6,-1 -2,0 -3,0 -5,0 -5,0 -9,0 -13,2 -4,2 -7,4 -10,7 -2,3 -4,7 -6,11 -1,5 -2,10 -2,15 0,5 1,10 2,14 1,5 3,8 5,12 3,3 6,5 10,7 4,2 8,3 14,3 1,0 3,-1 4,-1 2,0 3,0 4,0 2,0 3,0 4,-1 1,0 2,0 3,0l0 -27 -18 0 0 -9z"/>
  <path id="1" fill="#534745" fill-rule="nonzero" d="M11887 15944c0,3 0,7 -2,10 -1,4 -3,7 -5,9 -3,3 -6,5 -10,7 -4,1 -9,2 -15,2l-10 0 0 34 -11 0 0 -88 22 0c5,0 10,1 14,2 4,1 7,3 10,5 2,2 4,5 5,8 1,3 2,7 2,11zm-42 18l8 0c4,0 7,0 10,-1 3,0 5,-1 7,-3 2,-1 3,-3 4,-5 1,-3 1,-5 1,-9 0,-5 -1,-10 -5,-12 -3,-3 -8,-4 -15,-4l-10 0 0 34z"/>
  <polygon id="2" fill="#534745" fill-rule="nonzero" points="11930,16006 11898,16006 11898,16000 11909,15998 11909,15927 11898,15924 11898,15918 11930,15918 11930,15924 11920,15927 11920,15998 11930,16000 "/>
  <path id="3" fill="#534745" fill-rule="nonzero" d="M12018 15962c0,7 -1,13 -2,19 -2,5 -4,10 -8,14 -3,4 -7,7 -12,9 -4,2 -10,3 -16,3 -7,0 -12,-1 -17,-3 -5,-2 -9,-5 -12,-9 -3,-4 -6,-9 -7,-14 -2,-6 -2,-12 -2,-19 0,-7 0,-13 2,-19 1,-5 4,-10 7,-14 3,-4 7,-7 12,-9 5,-2 10,-3 17,-3 6,0 12,1 16,3 5,2 9,5 12,9 4,4 6,9 8,14 1,6 2,12 2,19zm-65 0c0,5 1,10 2,15 1,4 3,8 5,11 2,3 5,5 8,7 3,2 7,3 12,3 4,0 8,-1 12,-3 3,-2 6,-4 8,-7 2,-3 4,-7 5,-11 1,-5 1,-10 1,-15 0,-6 0,-11 -1,-15 -1,-4 -3,-8 -5,-11 -2,-3 -5,-5 -8,-7 -4,-2 -7,-2 -12,-2 -5,0 -9,0 -12,2 -3,2 -6,4 -8,7 -2,3 -4,7 -5,11 -1,4 -2,9 -2,15z"/>
  <polygon id="4" fill="#534745" fill-rule="nonzero" points="12031,15978 12031,15968 12060,15968 12060,15978 "/>
  <path id="5" fill="#534745" fill-rule="nonzero" d="M12123 15939c0,3 0,5 -1,8 -1,2 -2,4 -4,6 -2,2 -4,3 -6,4 -2,2 -5,2 -8,3l0 0c7,1 13,3 16,7 4,4 6,8 6,14 0,4 -1,8 -2,11 -1,3 -3,6 -6,8 -2,2 -6,4 -10,5 -4,2 -9,2 -14,2 -5,0 -9,0 -13,-1 -4,0 -7,-2 -11,-3l0 -11c4,2 8,4 12,5 4,1 8,1 12,1 3,0 6,0 9,-1 3,-1 5,-2 7,-4 2,-1 3,-3 4,-5 0,-2 1,-5 1,-7 0,-3 -1,-5 -2,-7 -1,-2 -2,-4 -4,-5 -2,-1 -5,-2 -8,-3 -2,0 -6,-1 -9,-1l-8 0 0 -9 8 0c3,0 6,0 9,-1 2,-1 4,-2 6,-4 2,-1 3,-3 4,-5 1,-2 1,-4 1,-7 0,-2 0,-4 -1,-5 -1,-2 -2,-3 -3,-4 -1,-2 -3,-2 -5,-3 -2,-1 -4,-1 -6,-1 -4,0 -8,1 -11,2 -4,1 -7,3 -10,5l-5 -7c1,-1 3,-3 5,-4 2,-1 4,-2 6,-3 2,0 5,-1 7,-2 3,0 5,0 8,0 4,0 8,0 11,1 4,1 6,3 9,5 2,2 4,4 5,7 1,3 1,5 1,9z"/>
  <path fill="#534745" fill-rule="nonzero" d="M11784 16220l29 0 0 43c-2,1 -4,1 -6,2 -3,0 -5,1 -7,1 -3,1 -5,1 -8,1 -2,0 -5,0 -8,0 -6,0 -12,-1 -17,-3 -5,-2 -9,-5 -12,-9 -4,-4 -6,-8 -8,-14 -2,-6 -2,-12 -2,-19 0,-7 1,-13 2,-19 2,-5 5,-10 9,-14 3,-4 8,-7 13,-9 6,-2 12,-3 19,-3 4,0 8,0 13,1 4,1 7,2 11,4l-4 10c-2,-1 -3,-2 -5,-2 -2,-1 -3,-1 -5,-2 -2,0 -4,-1 -6,-1 -2,0 -3,0 -5,0 -5,0 -9,0 -13,2 -4,2 -7,4 -10,7 -2,3 -4,7 -6,11 -1,5 -2,10 -2,15 0,5 1,10 2,14 1,5 3,8 5,12 3,3 6,5 10,7 4,2 8,3 14,3 1,0 3,-1 4,-1 2,0 3,0 4,0 2,0 3,0 4,-1 1,0 2,0 3,0l0 -27 -18 0 0 -9z"/>
  <path id="1" fill="#534745" fill-rule="nonzero" d="M11887 16204c0,3 0,7 -2,10 -1,4 -3,7 -5,9 -3,3 -6,5 -10,7 -4,1 -9,2 -15,2l-10 0 0 34 -11 0 0 -88 22 0c5,0 10,1 14,2 4,1 7,3 10,5 2,2 4,5 5,8 1,3 2,7 2,11zm-42 18l8 0c4,0 7,0 10,-1 3,0 5,-1 7,-3 2,-1 3,-3 4,-5 1,-3 1,-5 1,-9 0,-5 -1,-10 -5,-12 -3,-3 -8,-4 -15,-4l-10 0 0 34z"/>
  <polygon id="2" fill="#534745" fill-rule="nonzero" points="11930,16266 11898,16266 11898,16260 11909,16258 11909,16187 11898,16184 11898,16178 11930,16178 11930,16184 11920,16187 11920,16258 11930,16260 "/>
  <path id="3" fill="#534745" fill-rule="nonzero" d="M12018 16222c0,7 -1,13 -2,19 -2,5 -4,10 -8,14 -3,4 -7,7 -12,9 -4,2 -10,3 -16,3 -7,0 -12,-1 -17,-3 -5,-2 -9,-5 -12,-9 -3,-4 -6,-9 -7,-14 -2,-6 -2,-12 -2,-19 0,-7 0,-13 2,-19 1,-5 4,-10 7,-14 3,-4 7,-7 12,-9 5,-2 10,-3 17,-3 6,0 12,1 16,3 5,2 9,5 12,9 4,4 6,9 8,14 1,6 2,12 2,19zm-65 0c0,5 1,10 2,15 1,4 3,8 5,11 2,3 5,5 8,7 3,2 7,3 12,3 4,0 8,-1 12,-3 3,-2 6,-4 8,-7 2,-3 4,-7 5,-11 1,-5 1,-10 1,-15 0,-6 0,-11 -1,-15 -1,-4 -3,-8 -5,-11 -2,-3 -5,-5 -8,-7 -4,-2 -7,-2 -12,-2 -5,0 -9,0 -12,2 -3,2 -6,4 -8,7 -2,3 -4,7 -5,11 -1,4 -2,9 -2,15z"/>
  <polygon id="4" fill="#534745" fill-rule="nonzero" points="12031,16238 12031,16228 12060,16228 12060,16238 "/>
  <path id="5" fill="#534745" fill-rule="nonzero" d="M12126 16266l-55 0 0 -9 21 -23c3,-3 6,-6 8,-9 3,-3 5,-5 6,-8 2,-3 3,-5 4,-8 1,-2 2,-5 2,-8 0,-3 -1,-5 -1,-6 -1,-2 -2,-4 -3,-5 -2,-1 -3,-2 -5,-3 -2,-1 -4,-1 -6,-1 -3,0 -7,1 -10,2 -3,2 -6,4 -9,6l-6 -7c2,-1 3,-3 5,-4 2,-1 4,-2 6,-3 2,-1 5,-2 7,-2 2,-1 5,-1 7,-1 4,0 8,0 11,1 3,1 6,3 8,5 2,2 4,5 5,7 1,3 2,7 2,10 0,4 -1,7 -2,10 -1,3 -2,6 -4,9 -2,3 -4,6 -7,9 -3,3 -5,6 -8,10l-17 18 0 0 41 0 0 10z"/>
  <path fill="#534745" fill-rule="nonzero" d="M7913 13324c-7,0 -13,0 -19,-2 -5,-2 -10,-4 -14,-7 -4,-4 -7,-8 -9,-12 -3,-5 -4,-11 -4,-17 0,-6 1,-12 4,-17 2,-5 5,-9 9,-12 4,-3 9,-5 14,-7 6,-1 12,-2 19,-2 7,0 13,1 19,2 5,2 10,4 14,7 4,3 7,8 9,12 2,5 3,11 3,17 0,7 -1,12 -3,17 -2,5 -5,8 -9,12 -4,3 -9,5 -15,7 -5,2 -11,2 -18,2zm0 -64c-6,0 -11,0 -15,1 -4,1 -8,3 -11,5 -3,2 -6,5 -7,8 -2,4 -3,8 -3,12 0,5 1,9 3,12 1,3 4,6 7,8 3,2 7,4 11,5 4,1 9,2 15,2 5,0 10,-1 15,-2 4,-1 8,-3 11,-5 3,-2 5,-5 7,-8 1,-3 2,-7 2,-12 0,-4 -1,-8 -2,-11 -2,-4 -4,-7 -7,-9 -3,-2 -7,-4 -11,-5 -5,-1 -10,-1 -15,-1z"/>
  <path id="1" fill="#534745" fill-rule="nonzero" d="M7948 13380c0,-4 -1,-8 -2,-12 -2,-3 -4,-6 -7,-9 -3,-2 -7,-4 -11,-5 -5,-2 -10,-3 -15,-3 -6,0 -11,1 -15,2 -5,1 -8,3 -12,6 -3,2 -5,5 -6,8 -2,4 -3,8 -3,13 0,3 1,7 1,10 1,3 2,6 3,10l-10 0c-1,-2 -1,-4 -2,-5 0,-2 0,-3 -1,-5 0,-2 0,-4 0,-5 -1,-2 -1,-5 -1,-7 0,-7 1,-12 4,-17 2,-5 5,-9 9,-12 4,-3 9,-6 14,-7 6,-2 12,-2 19,-2 6,0 13,0 18,2 6,2 10,5 14,8 4,3 7,8 10,13 2,5 3,10 3,17 0,4 0,8 -1,12 -1,4 -2,8 -4,11l-10 -5c2,-2 3,-5 4,-8 1,-3 1,-6 1,-10z"/>
  <path id="2" fill="#534745" fill-rule="nonzero" d="M7869 13449l0 -10 55 0c1,0 3,0 5,0 2,0 4,0 6,0 2,0 4,0 6,0 1,0 3,0 4,0 0,0 -1,-1 -1,-2 -1,0 -1,-1 -2,-1 0,-1 -1,-1 -1,-2 -1,0 -2,-1 -2,-2l-8 -9 8 -6 18 23 0 9 -88 0z"/>
  <polygon id="3" fill="#534745" fill-rule="nonzero" points="7908,13504 7908,13481 7917,13481 7917,13504 7940,13504 7940,13513 7917,13513 7917,13536 7908,13536 7908,13513 7884,13513 7884,13504 "/>
  <path fill="#534745" fill-rule="nonzero" d="M7914 13702c-7,0 -13,-1 -19,-2 -5,-2 -10,-4 -14,-8 -4,-3 -7,-7 -9,-12 -2,-4 -3,-10 -3,-16 0,-7 1,-12 3,-17 2,-5 5,-9 9,-12 4,-3 9,-6 14,-7 6,-2 12,-2 19,-2 7,0 13,0 19,2 5,1 10,4 14,7 4,3 7,7 9,12 2,5 3,10 3,17 0,6 -1,12 -3,16 -2,5 -5,9 -9,12 -4,4 -9,6 -14,8 -6,1 -12,2 -19,2zm0 -64c-5,0 -10,0 -15,1 -4,1 -8,3 -11,5 -3,2 -5,5 -7,8 -2,3 -3,7 -3,12 0,5 1,8 3,12 2,3 4,6 7,8 3,2 7,4 11,5 5,1 10,1 15,1 6,0 11,0 15,-1 4,-1 8,-3 11,-5 3,-2 5,-5 7,-8 2,-3 2,-7 2,-12 0,-5 0,-9 -2,-12 -2,-3 -4,-6 -7,-8 -3,-2 -7,-4 -11,-5 -4,-1 -9,-1 -15,-1z"/>
  <path id="1" fill="#534745" fill-rule="nonzero" d="M7949 13758c0,-5 0,-9 -2,-12 -2,-4 -4,-7 -7,-9 -3,-3 -7,-4 -11,-6 -5,-1 -10,-2 -15,-2 -6,0 -11,1 -15,2 -5,1 -8,3 -11,5 -3,3 -6,6 -7,9 -2,4 -3,8 -3,13 0,3 1,7 2,10 0,3 1,6 2,9l-10 0c0,-1 -1,-3 -1,-4 -1,-2 -1,-4 -2,-5 0,-2 0,-4 0,-6 0,-2 0,-4 0,-6 0,-7 1,-13 3,-17 2,-5 5,-9 9,-12 4,-4 9,-6 14,-7 6,-2 12,-3 19,-3 7,0 13,1 18,3 6,2 11,4 15,8 4,3 7,7 9,12 2,5 3,11 3,18 0,4 0,8 -1,12 -1,4 -2,7 -4,11l-9 -5c1,-3 2,-5 3,-8 1,-3 1,-7 1,-10z"/>
  <path id="2" fill="#534745" fill-rule="nonzero" d="M7870 13827l0 -11 55 0c2,0 3,0 5,0 2,0 4,1 6,1 2,0 4,0 6,0 2,0 3,0 5,0 -1,-1 -2,-1 -2,-2 -1,0 -1,-1 -2,-2 0,0 -1,-1 -1,-1 -1,-1 -1,-2 -2,-2l-7 -9 7 -6 18 23 0 9 -88 0z"/>
  <path fill="#999999" fill-rule="nonzero" d="M8092 13529c-7,0 -13,-1 -18,-3 -6,-1 -11,-4 -15,-7 -4,-3 -7,-7 -9,-12 -2,-5 -3,-10 -3,-16 0,-7 1,-13 3,-17 2,-5 5,-9 9,-12 4,-3 9,-6 15,-7 5,-2 12,-3 18,-3 7,0 13,1 19,3 6,1 10,4 14,7 4,3 7,7 9,12 3,5 4,10 4,17 0,6 -1,12 -4,16 -2,5 -5,9 -9,12 -4,3 -8,6 -14,7 -6,2 -12,3 -19,3zm0 -65c-5,0 -10,1 -15,2 -4,1 -8,3 -11,5 -3,2 -5,5 -7,8 -1,3 -2,7 -2,12 0,4 1,8 2,12 2,3 4,6 7,8 3,2 7,3 11,4 5,1 10,2 15,2 6,0 11,-1 15,-2 5,-1 8,-2 11,-4 3,-2 6,-5 7,-8 2,-4 3,-8 3,-12 0,-5 -1,-9 -3,-12 -1,-3 -4,-6 -7,-8 -3,-2 -6,-4 -11,-5 -4,-1 -9,-2 -15,-2z"/>
  <path id="1" fill="#999999" fill-rule="nonzero" d="M8128 13584c0,-4 -1,-8 -3,-11 -1,-4 -4,-7 -7,-9 -3,-3 -7,-5 -11,-6 -4,-1 -9,-2 -15,-2 -5,0 -11,1 -15,2 -4,1 -8,3 -11,5 -3,2 -5,5 -7,9 -1,3 -2,8 -2,12 0,4 0,7 1,11 0,3 1,6 2,9l-10 0c0,-1 -1,-3 -1,-5 -1,-1 -1,-3 -1,-5 -1,-1 -1,-3 -1,-5 0,-2 0,-4 0,-6 0,-7 1,-13 3,-18 2,-4 5,-8 9,-12 4,-3 9,-5 15,-7 5,-1 11,-2 18,-2 7,0 13,1 19,3 5,1 10,4 14,7 4,4 7,8 9,13 2,5 4,11 4,17 0,5 -1,9 -2,13 -1,4 -2,7 -4,10l-9 -4c1,-3 2,-6 3,-9 1,-3 2,-6 2,-10z"/>
  <path id="2" fill="#999999" fill-rule="nonzero" d="M8048 13654l0 -11 55 0c2,0 4,0 6,0 2,0 4,0 6,0 2,0 3,0 5,1 2,0 4,0 5,0 -1,-1 -1,-2 -2,-2 0,-1 -1,-1 -1,-2 -1,0 -1,-1 -2,-1 -1,-1 -1,-2 -2,-3l-7 -8 7 -6 18 23 0 9 -88 0z"/>
  <path fill="#534745" fill-rule="nonzero" d="M12091 13781c7,0 13,1 19,3 5,1 10,4 14,7 4,3 7,7 9,12 2,5 3,10 3,16 0,7 -1,13 -3,17 -2,5 -5,9 -9,12 -4,4 -9,6 -14,7 -6,2 -12,3 -19,3 -7,0 -13,-1 -19,-3 -5,-1 -10,-3 -14,-7 -4,-3 -7,-7 -9,-12 -2,-4 -3,-10 -3,-17 0,-6 1,-11 3,-16 2,-5 5,-9 9,-12 4,-3 9,-6 14,-7 6,-2 12,-3 19,-3zm0 65c5,0 10,-1 15,-2 4,-1 8,-2 11,-5 3,-2 5,-4 7,-8 2,-3 3,-7 3,-12 0,-4 -1,-8 -3,-11 -2,-4 -4,-6 -7,-9 -3,-2 -7,-3 -11,-4 -5,-1 -10,-2 -15,-2 -6,0 -11,1 -15,2 -4,1 -8,2 -11,4 -3,2 -5,5 -7,8 -2,4 -2,8 -2,12 0,5 0,9 2,12 2,3 4,6 7,8 3,3 7,4 11,5 4,1 9,2 15,2z"/>
  <path id="1" fill="#534745" fill-rule="nonzero" d="M12056 13726c0,4 0,8 2,11 2,4 4,7 7,9 3,3 7,5 11,6 5,1 10,2 15,2 6,0 11,0 15,-2 5,-1 8,-3 11,-5 3,-2 6,-5 7,-9 2,-3 3,-7 3,-12 0,-4 -1,-7 -2,-10 0,-4 -1,-7 -2,-10l10 0c0,2 1,3 1,5 1,1 1,3 2,5 0,1 0,3 0,5 0,2 0,4 0,7 0,6 -1,12 -3,17 -2,5 -5,9 -9,12 -4,3 -9,5 -14,7 -6,1 -12,2 -19,2 -7,0 -13,-1 -18,-3 -6,-1 -11,-4 -15,-7 -4,-4 -7,-8 -9,-13 -2,-5 -3,-11 -3,-17 0,-5 0,-9 1,-13 1,-4 2,-7 4,-10l9 4c-1,3 -2,6 -3,9 -1,3 -1,6 -1,10z"/>
  <path id="2" fill="#534745" fill-rule="nonzero" d="M12135 13638l0 55 -9 0 -23 -21c-3,-3 -6,-5 -9,-8 -3,-2 -5,-4 -8,-6 -3,-2 -5,-3 -8,-4 -2,-1 -5,-1 -8,-1 -3,0 -5,0 -6,1 -2,1 -4,2 -5,3 -1,1 -2,3 -3,4 -1,2 -1,4 -1,6 0,4 1,7 2,11 2,3 4,6 6,8l-7 6c-1,-1 -3,-3 -4,-5 -1,-2 -2,-4 -3,-6 -1,-2 -2,-4 -2,-6 -1,-3 -1,-5 -1,-8 0,-4 0,-7 1,-10 1,-4 3,-6 5,-8 2,-3 5,-4 7,-5 3,-2 7,-2 10,-2 4,0 7,0 10,1 3,1 6,3 9,5 3,2 6,4 9,7 3,2 6,5 10,8l18 17 0 0 0 -42 10 0z"/>
  <path fill="#534745" fill-rule="nonzero" d="M12091 13423c7,0 13,1 19,2 5,2 10,4 14,8 4,3 7,7 9,12 2,4 3,10 3,16 0,7 -1,12 -3,17 -2,5 -5,9 -9,12 -4,3 -9,6 -14,7 -6,2 -12,2 -19,2 -7,0 -13,0 -19,-2 -5,-1 -10,-4 -14,-7 -4,-3 -7,-7 -9,-12 -2,-5 -3,-10 -3,-17 0,-6 1,-12 3,-16 2,-5 5,-9 9,-12 4,-4 9,-6 14,-8 6,-1 12,-2 19,-2zm0 64c5,0 10,0 15,-1 4,-1 8,-3 11,-5 3,-2 5,-5 7,-8 2,-3 3,-7 3,-12 0,-4 -1,-8 -3,-12 -2,-3 -4,-6 -7,-8 -3,-2 -7,-4 -11,-5 -5,-1 -10,-1 -15,-1 -6,0 -11,0 -15,1 -4,1 -8,3 -11,5 -3,2 -5,5 -7,8 -2,3 -2,7 -2,12 0,5 0,9 2,12 2,3 4,6 7,8 3,2 7,4 11,5 4,1 9,1 15,1z"/>
  <path id="1" fill="#534745" fill-rule="nonzero" d="M12056 13367c0,5 0,9 2,12 2,4 4,7 7,9 3,3 7,4 11,6 5,1 10,2 15,2 6,0 11,-1 15,-2 5,-1 8,-3 11,-5 3,-3 6,-6 7,-9 2,-4 3,-8 3,-13 0,-3 -1,-7 -2,-10 0,-3 -1,-6 -2,-9l10 0c0,1 1,3 1,4 1,2 1,4 2,5 0,2 0,4 0,6 0,2 0,4 0,6 0,7 -1,13 -3,17 -2,5 -5,9 -9,12 -4,4 -9,6 -14,7 -6,2 -12,3 -19,3 -7,0 -13,-1 -18,-3 -6,-2 -11,-4 -15,-8 -4,-3 -7,-7 -9,-12 -2,-5 -3,-11 -3,-18 0,-4 0,-8 1,-12 1,-4 2,-7 4,-11l9 5c-1,3 -2,5 -3,8 -1,3 -1,7 -1,10z"/>
  <path id="2" fill="#534745" fill-rule="nonzero" d="M12135 13280l0 55 -9 0 -23 -21c-3,-3 -6,-6 -9,-8 -3,-2 -5,-5 -8,-6 -3,-2 -5,-3 -8,-4 -2,-1 -5,-1 -8,-1 -3,0 -5,0 -6,1 -2,0 -4,1 -5,3 -1,1 -2,2 -3,4 -1,2 -1,4 -1,6 0,4 1,7 2,10 2,3 4,6 6,9l-7 6c-1,-1 -3,-3 -4,-5 -1,-2 -2,-4 -3,-6 -1,-2 -2,-4 -2,-7 -1,-2 -1,-5 -1,-7 0,-4 0,-8 1,-11 1,-3 3,-5 5,-8 2,-2 5,-4 7,-5 3,-1 7,-1 10,-1 4,0 7,0 10,1 3,1 6,3 9,5 3,1 6,4 9,6 3,3 6,6 10,9l18 17 0 0 0 -42 10 0z"/>
  <polygon id="3" fill="#534745" fill-rule="nonzero" points="12096,13243 12096,13267 12087,13267 12087,13243 12064,13243 12064,13234 12087,13234 12087,13211 12096,13211 12096,13234 12119,13234 12119,13243 "/>
  <path fill="#999999" fill-rule="nonzero" d="M11913 13524c7,0 13,1 18,3 6,1 11,4 15,7 4,3 7,7 9,12 2,5 3,10 3,16 0,7 -1,13 -3,17 -2,5 -5,9 -9,12 -4,4 -9,6 -15,7 -5,2 -12,3 -18,3 -7,0 -13,-1 -19,-3 -6,-1 -10,-3 -14,-7 -4,-3 -7,-7 -9,-12 -3,-4 -4,-10 -4,-17 0,-6 1,-11 4,-16 2,-5 5,-9 9,-12 4,-3 8,-6 14,-7 6,-2 12,-3 19,-3zm0 65c5,0 10,-1 15,-2 4,-1 8,-2 11,-5 3,-2 5,-4 7,-8 1,-3 2,-7 2,-12 0,-4 -1,-8 -2,-11 -2,-4 -4,-6 -7,-9 -3,-2 -7,-3 -11,-4 -5,-1 -10,-2 -15,-2 -6,0 -11,1 -15,2 -5,1 -8,2 -11,4 -3,3 -6,5 -7,9 -2,3 -3,7 -3,11 0,5 1,9 3,12 1,4 4,6 7,8 3,3 6,4 11,5 4,1 9,2 15,2z"/>
  <path id="1" fill="#999999" fill-rule="nonzero" d="M11877 13469c0,4 1,8 3,12 1,3 4,6 7,8 3,3 7,5 11,6 4,2 9,2 15,2 5,0 11,0 15,-2 4,-1 8,-3 11,-5 3,-2 5,-5 7,-9 1,-3 2,-7 2,-12 0,-4 0,-7 -1,-10 0,-4 -1,-7 -2,-10l10 0c0,2 1,3 1,5 1,1 1,3 1,5 1,1 1,3 1,5 0,2 0,4 0,7 0,6 -1,12 -3,17 -2,5 -5,9 -9,12 -4,3 -9,5 -15,7 -5,1 -11,2 -18,2 -7,0 -13,-1 -19,-3 -5,-1 -10,-4 -14,-7 -4,-4 -7,-8 -9,-13 -2,-5 -4,-11 -4,-17 0,-5 1,-9 2,-13 1,-4 2,-7 4,-10l9 4c-1,3 -2,6 -3,9 -1,3 -2,6 -2,10z"/>
  <path id="2" fill="#999999" fill-rule="nonzero" d="M11957 13381l0 55 -10 0 -22 -21c-4,-3 -7,-5 -9,-8 -3,-2 -6,-4 -8,-6 -3,-1 -5,-3 -8,-4 -3,-1 -5,-1 -9,-1 -2,0 -4,0 -6,1 -2,1 -3,2 -4,3 -2,1 -3,3 -3,4 -1,2 -1,4 -1,6 0,4 1,8 2,11 2,3 4,6 6,8l-7 6c-2,-1 -3,-3 -4,-5 -1,-2 -3,-4 -4,-6 0,-2 -1,-4 -2,-6 0,-3 -1,-5 -1,-8 0,-4 1,-7 2,-10 1,-3 3,-6 5,-8 2,-2 4,-4 7,-5 3,-2 6,-2 10,-2 3,0 7,0 10,1 3,2 6,3 9,5 3,2 6,4 9,7 3,2 6,5 9,8l18 17 1 0 0 -42 10 0z"/>
  <path fill="#534745" fill-rule="nonzero" d="M10799 16905l-10 -27 -32 0 -10 27 -12 0 33 -88 10 0 33 88 -12 0zm-13 -37l-9 -25c0,-1 -1,-2 -1,-3 0,-1 -1,-2 -1,-3 0,-2 -1,-3 -1,-4 0,-2 -1,-3 -1,-4 0,1 -1,3 -1,4 0,1 -1,2 -1,4 0,1 -1,2 -1,3 0,1 -1,2 -1,3l-9 25 26 0z"/>
  <path fill="#534745" fill-rule="nonzero" d="M10995 16816l24 0c5,0 10,0 14,1 4,1 7,2 10,4 2,2 4,4 6,7 1,3 2,6 2,10 0,3 -1,5 -2,7 0,3 -1,5 -3,6 -1,2 -3,3 -5,4 -3,1 -5,2 -8,3l0 0c3,1 6,1 8,2 2,1 4,2 6,4 2,2 3,4 4,6 2,2 2,5 2,9 0,4 -1,7 -2,10 -1,4 -3,6 -6,8 -2,3 -5,4 -9,5 -3,2 -7,2 -12,2l-29 0 0 -88zm11 37l15 0c4,0 6,0 9,0 2,-1 4,-2 5,-3 2,-1 3,-3 3,-5 1,-1 1,-3 1,-6 0,-5 -1,-8 -4,-10 -3,-2 -8,-3 -15,-3l-14 0 0 27zm0 10l0 32 16 0c4,0 7,-1 9,-2 3,0 5,-1 6,-3 2,-1 3,-3 3,-5 1,-2 1,-4 1,-7 0,-2 0,-4 -1,-6 -1,-2 -2,-3 -3,-5 -2,-1 -4,-2 -6,-3 -3,-1 -6,-1 -9,-1l-16 0z"/>
  <polygon fill="#999999" fill-rule="nonzero" points="10802,16726 10802,16638 10813,16638 10813,16716 10848,16716 10848,16726 "/>
  <polygon id="1" fill="#999999" fill-rule="nonzero" points="10908,16726 10863,16726 10863,16638 10908,16638 10908,16648 10874,16648 10874,16675 10906,16675 10906,16685 10874,16685 10874,16716 10908,16716 "/>
  <polygon id="2" fill="#999999" fill-rule="nonzero" points="10939,16726 10928,16726 10928,16638 10974,16638 10974,16648 10939,16648 10939,16679 10971,16679 10971,16689 10939,16689 "/>
  <polygon id="3" fill="#999999" fill-rule="nonzero" points="11014,16726 11003,16726 11003,16648 10978,16648 10978,16638 11039,16638 11039,16648 11014,16648 "/>
  <path fill="#534745" fill-rule="nonzero" d="M11579 16905l-10 -27 -32 0 -10 27 -12 0 33 -88 10 0 33 88 -12 0zm-13 -37l-9 -25c0,-1 -1,-2 -1,-3 0,-1 -1,-2 -1,-3 0,-2 -1,-3 -1,-4 0,-2 -1,-3 -1,-4 0,1 -1,3 -1,4 0,1 -1,2 -1,4 0,1 -1,2 -1,3 0,1 -1,2 -1,3l-9 25 26 0z"/>
  <path fill="#534745" fill-rule="nonzero" d="M11775 16816l24 0c5,0 10,0 14,1 4,1 7,2 10,4 2,2 4,4 6,7 1,3 2,6 2,10 0,3 -1,5 -2,7 0,3 -1,5 -3,6 -1,2 -3,3 -5,4 -3,1 -5,2 -8,3l0 0c3,1 6,1 8,2 2,1 4,2 6,4 2,2 3,4 4,6 2,2 2,5 2,9 0,4 -1,7 -2,10 -1,4 -3,6 -6,8 -2,3 -5,4 -9,5 -3,2 -7,2 -12,2l-29 0 0 -88zm11 37l15 0c4,0 6,0 9,0 2,-1 4,-2 5,-3 2,-1 3,-3 3,-5 1,-1 1,-3 1,-6 0,-5 -1,-8 -4,-10 -3,-2 -8,-3 -15,-3l-14 0 0 27zm0 10l0 32 16 0c4,0 7,-1 9,-2 3,0 5,-1 6,-3 2,-1 3,-3 3,-5 1,-2 1,-4 1,-7 0,-2 0,-4 -1,-6 -1,-2 -2,-3 -3,-5 -2,-1 -4,-2 -6,-3 -3,-1 -6,-1 -9,-1l-16 0z"/>
  <path fill="#999999" fill-rule="nonzero" d="M11533 16690l0 36 -11 0 0 -88 21 0c11,0 19,2 24,6 5,4 8,10 8,19 0,3 -1,6 -2,9 -1,3 -2,5 -4,7 -1,2 -3,3 -5,4 -2,2 -4,3 -7,3l24 40 -13 0 -21 -36 -14 0zm0 -10l10 0c4,0 7,0 9,-1 3,-1 5,-2 6,-3 2,-2 3,-3 4,-5 1,-2 1,-5 1,-8 0,-3 -1,-5 -1,-7 -1,-2 -2,-4 -4,-5 -2,-1 -4,-2 -6,-3 -3,0 -6,-1 -9,-1l-10 0 0 33z"/>
  <polygon id="1" fill="#999999" fill-rule="nonzero" points="11620,16726 11588,16726 11588,16720 11598,16717 11598,16646 11588,16644 11588,16638 11620,16638 11620,16644 11609,16646 11609,16717 11620,16720 "/>
  <path id="2" fill="#999999" fill-rule="nonzero" d="M11670 16679l30 0 0 44c-2,0 -5,1 -7,2 -2,0 -5,1 -7,1 -2,0 -5,1 -7,1 -3,0 -6,0 -9,0 -6,0 -12,-1 -17,-3 -4,-2 -9,-5 -12,-9 -3,-4 -6,-9 -7,-14 -2,-6 -3,-12 -3,-19 0,-7 1,-13 3,-19 2,-6 5,-10 8,-14 4,-4 8,-7 14,-9 5,-2 11,-3 18,-3 5,0 9,0 13,1 4,1 8,2 11,4l-4 10c-1,-1 -3,-2 -5,-2 -1,-1 -3,-2 -5,-2 -2,0 -3,-1 -5,-1 -2,0 -4,-1 -6,-1 -5,0 -9,1 -13,3 -4,2 -7,4 -9,7 -3,3 -5,7 -6,11 -2,4 -2,9 -2,15 0,5 0,10 1,14 2,5 3,8 6,11 2,4 5,6 9,8 4,1 8,2 14,2 2,0 3,0 5,0 1,0 3,0 4,0 1,0 2,-1 3,-1 1,0 2,0 4,0l0 -27 -19 0 0 -10z"/>
  <polygon id="3" fill="#999999" fill-rule="nonzero" points="11783,16726 11772,16726 11772,16685 11732,16685 11732,16726 11721,16726 11721,16638 11732,16638 11732,16675 11772,16675 11772,16638 11783,16638 "/>
  <polygon id="4" fill="#999999" fill-rule="nonzero" points="11833,16726 11822,16726 11822,16648 11796,16648 11796,16638 11858,16638 11858,16648 11833,16648 "/>
 </g>
</svg>
